<?xml version="1.0" encoding="utf-8" standalone="no"?>
<!DOCTYPE svg PUBLIC "-//W3C//DTD SVG 1.1//EN"
  "http://www.w3.org/Graphics/SVG/1.1/DTD/svg11.dtd">
<!-- Created with matplotlib (https://matplotlib.org/) -->
<svg height="1440pt" version="1.1" viewBox="0 0 1440 1440" width="1440pt" xmlns="http://www.w3.org/2000/svg" xmlns:xlink="http://www.w3.org/1999/xlink">
 <defs>
  <style type="text/css">
*{stroke-linecap:butt;stroke-linejoin:round;}
  </style>
 </defs>
 <g id="figure_1">
  <g id="patch_1">
   <path d="M 0 1440 
L 1440 1440 
L 1440 0 
L 0 0 
z
" style="fill:#ffffff;"/>
  </g>
  <g id="axes_1">
   <g id="patch_2">
    <path d="M 180 1281.6 
L 1296 1281.6 
L 1296 172.8 
L 180 172.8 
z
" style="fill:#ffffff;"/>
   </g>
   <g id="matplotlib.axis_1">
    <g id="xtick_1">
     <g id="line2d_1">
      <defs>
       <path d="M 0 0 
L 0 3.5 
" id="m272b5de9ce" style="stroke:#000000;stroke-width:0.8;"/>
      </defs>
      <g>
       <use style="stroke:#000000;stroke-width:0.8;" x="208.341125" xlink:href="#m272b5de9ce" y="1281.6"/>
      </g>
     </g>
     <g id="text_1">
      <!-- −0.15 -->
      <defs>
       <path d="M 10.59375 35.5 
L 73.1875 35.5 
L 73.1875 27.203125 
L 10.59375 27.203125 
z
" id="DejaVuSans-8722"/>
       <path d="M 31.78125 66.40625 
Q 24.171875 66.40625 20.328125 58.90625 
Q 16.5 51.421875 16.5 36.375 
Q 16.5 21.390625 20.328125 13.890625 
Q 24.171875 6.390625 31.78125 6.390625 
Q 39.453125 6.390625 43.28125 13.890625 
Q 47.125 21.390625 47.125 36.375 
Q 47.125 51.421875 43.28125 58.90625 
Q 39.453125 66.40625 31.78125 66.40625 
z
M 31.78125 74.21875 
Q 44.046875 74.21875 50.515625 64.515625 
Q 56.984375 54.828125 56.984375 36.375 
Q 56.984375 17.96875 50.515625 8.265625 
Q 44.046875 -1.421875 31.78125 -1.421875 
Q 19.53125 -1.421875 13.0625 8.265625 
Q 6.59375 17.96875 6.59375 36.375 
Q 6.59375 54.828125 13.0625 64.515625 
Q 19.53125 74.21875 31.78125 74.21875 
z
" id="DejaVuSans-48"/>
       <path d="M 10.6875 12.40625 
L 21 12.40625 
L 21 0 
L 10.6875 0 
z
" id="DejaVuSans-46"/>
       <path d="M 12.40625 8.296875 
L 28.515625 8.296875 
L 28.515625 63.921875 
L 10.984375 60.40625 
L 10.984375 69.390625 
L 28.421875 72.90625 
L 38.28125 72.90625 
L 38.28125 8.296875 
L 54.390625 8.296875 
L 54.390625 0 
L 12.40625 0 
z
" id="DejaVuSans-49"/>
       <path d="M 10.796875 72.90625 
L 49.515625 72.90625 
L 49.515625 64.59375 
L 19.828125 64.59375 
L 19.828125 46.734375 
Q 21.96875 47.46875 24.109375 47.828125 
Q 26.265625 48.1875 28.421875 48.1875 
Q 40.625 48.1875 47.75 41.5 
Q 54.890625 34.8125 54.890625 23.390625 
Q 54.890625 11.625 47.5625 5.09375 
Q 40.234375 -1.421875 26.90625 -1.421875 
Q 22.3125 -1.421875 17.546875 -0.640625 
Q 12.796875 0.140625 7.71875 1.703125 
L 7.71875 11.625 
Q 12.109375 9.234375 16.796875 8.0625 
Q 21.484375 6.890625 26.703125 6.890625 
Q 35.15625 6.890625 40.078125 11.328125 
Q 45.015625 15.765625 45.015625 23.390625 
Q 45.015625 31 40.078125 35.4375 
Q 35.15625 39.890625 26.703125 39.890625 
Q 22.75 39.890625 18.8125 39.015625 
Q 14.890625 38.140625 10.796875 36.28125 
z
" id="DejaVuSans-53"/>
      </defs>
      <g transform="translate(193.018469 1296.198437)scale(0.1 -0.1)">
       <use xlink:href="#DejaVuSans-8722"/>
       <use x="83.789062" xlink:href="#DejaVuSans-48"/>
       <use x="147.412109" xlink:href="#DejaVuSans-46"/>
       <use x="179.199219" xlink:href="#DejaVuSans-49"/>
       <use x="242.822266" xlink:href="#DejaVuSans-53"/>
      </g>
     </g>
    </g>
    <g id="xtick_2">
     <g id="line2d_2">
      <g>
       <use style="stroke:#000000;stroke-width:0.8;" x="360.187476" xlink:href="#m272b5de9ce" y="1281.6"/>
      </g>
     </g>
     <g id="text_2">
      <!-- −0.10 -->
      <g transform="translate(344.86482 1296.198437)scale(0.1 -0.1)">
       <use xlink:href="#DejaVuSans-8722"/>
       <use x="83.789062" xlink:href="#DejaVuSans-48"/>
       <use x="147.412109" xlink:href="#DejaVuSans-46"/>
       <use x="179.199219" xlink:href="#DejaVuSans-49"/>
       <use x="242.822266" xlink:href="#DejaVuSans-48"/>
      </g>
     </g>
    </g>
    <g id="xtick_3">
     <g id="line2d_3">
      <g>
       <use style="stroke:#000000;stroke-width:0.8;" x="512.033827" xlink:href="#m272b5de9ce" y="1281.6"/>
      </g>
     </g>
     <g id="text_3">
      <!-- −0.05 -->
      <g transform="translate(496.71117 1296.198437)scale(0.1 -0.1)">
       <use xlink:href="#DejaVuSans-8722"/>
       <use x="83.789062" xlink:href="#DejaVuSans-48"/>
       <use x="147.412109" xlink:href="#DejaVuSans-46"/>
       <use x="179.199219" xlink:href="#DejaVuSans-48"/>
       <use x="242.822266" xlink:href="#DejaVuSans-53"/>
      </g>
     </g>
    </g>
    <g id="xtick_4">
     <g id="line2d_4">
      <g>
       <use style="stroke:#000000;stroke-width:0.8;" x="663.880177" xlink:href="#m272b5de9ce" y="1281.6"/>
      </g>
     </g>
     <g id="text_4">
      <!-- 0.00 -->
      <g transform="translate(652.747365 1296.198437)scale(0.1 -0.1)">
       <use xlink:href="#DejaVuSans-48"/>
       <use x="63.623047" xlink:href="#DejaVuSans-46"/>
       <use x="95.410156" xlink:href="#DejaVuSans-48"/>
       <use x="159.033203" xlink:href="#DejaVuSans-48"/>
      </g>
     </g>
    </g>
    <g id="xtick_5">
     <g id="line2d_5">
      <g>
       <use style="stroke:#000000;stroke-width:0.8;" x="815.726528" xlink:href="#m272b5de9ce" y="1281.6"/>
      </g>
     </g>
     <g id="text_5">
      <!-- 0.05 -->
      <g transform="translate(804.593715 1296.198437)scale(0.1 -0.1)">
       <use xlink:href="#DejaVuSans-48"/>
       <use x="63.623047" xlink:href="#DejaVuSans-46"/>
       <use x="95.410156" xlink:href="#DejaVuSans-48"/>
       <use x="159.033203" xlink:href="#DejaVuSans-53"/>
      </g>
     </g>
    </g>
    <g id="xtick_6">
     <g id="line2d_6">
      <g>
       <use style="stroke:#000000;stroke-width:0.8;" x="967.572879" xlink:href="#m272b5de9ce" y="1281.6"/>
      </g>
     </g>
     <g id="text_6">
      <!-- 0.10 -->
      <g transform="translate(956.440066 1296.198437)scale(0.1 -0.1)">
       <use xlink:href="#DejaVuSans-48"/>
       <use x="63.623047" xlink:href="#DejaVuSans-46"/>
       <use x="95.410156" xlink:href="#DejaVuSans-49"/>
       <use x="159.033203" xlink:href="#DejaVuSans-48"/>
      </g>
     </g>
    </g>
    <g id="xtick_7">
     <g id="line2d_7">
      <g>
       <use style="stroke:#000000;stroke-width:0.8;" x="1119.419229" xlink:href="#m272b5de9ce" y="1281.6"/>
      </g>
     </g>
     <g id="text_7">
      <!-- 0.15 -->
      <g transform="translate(1108.286417 1296.198437)scale(0.1 -0.1)">
       <use xlink:href="#DejaVuSans-48"/>
       <use x="63.623047" xlink:href="#DejaVuSans-46"/>
       <use x="95.410156" xlink:href="#DejaVuSans-49"/>
       <use x="159.033203" xlink:href="#DejaVuSans-53"/>
      </g>
     </g>
    </g>
    <g id="xtick_8">
     <g id="line2d_8">
      <g>
       <use style="stroke:#000000;stroke-width:0.8;" x="1271.26558" xlink:href="#m272b5de9ce" y="1281.6"/>
      </g>
     </g>
     <g id="text_8">
      <!-- 0.20 -->
      <defs>
       <path d="M 19.1875 8.296875 
L 53.609375 8.296875 
L 53.609375 0 
L 7.328125 0 
L 7.328125 8.296875 
Q 12.9375 14.109375 22.625 23.890625 
Q 32.328125 33.6875 34.8125 36.53125 
Q 39.546875 41.84375 41.421875 45.53125 
Q 43.3125 49.21875 43.3125 52.78125 
Q 43.3125 58.59375 39.234375 62.25 
Q 35.15625 65.921875 28.609375 65.921875 
Q 23.96875 65.921875 18.8125 64.3125 
Q 13.671875 62.703125 7.8125 59.421875 
L 7.8125 69.390625 
Q 13.765625 71.78125 18.9375 73 
Q 24.125 74.21875 28.421875 74.21875 
Q 39.75 74.21875 46.484375 68.546875 
Q 53.21875 62.890625 53.21875 53.421875 
Q 53.21875 48.921875 51.53125 44.890625 
Q 49.859375 40.875 45.40625 35.40625 
Q 44.1875 33.984375 37.640625 27.21875 
Q 31.109375 20.453125 19.1875 8.296875 
z
" id="DejaVuSans-50"/>
      </defs>
      <g transform="translate(1260.132767 1296.198437)scale(0.1 -0.1)">
       <use xlink:href="#DejaVuSans-48"/>
       <use x="63.623047" xlink:href="#DejaVuSans-46"/>
       <use x="95.410156" xlink:href="#DejaVuSans-50"/>
       <use x="159.033203" xlink:href="#DejaVuSans-48"/>
      </g>
     </g>
    </g>
   </g>
   <g id="matplotlib.axis_2">
    <g id="ytick_1">
     <g id="line2d_9">
      <defs>
       <path d="M 0 0 
L -3.5 0 
" id="m659fa33bc9" style="stroke:#000000;stroke-width:0.8;"/>
      </defs>
      <g>
       <use style="stroke:#000000;stroke-width:0.8;" x="180" xlink:href="#m659fa33bc9" y="1264.483057"/>
      </g>
     </g>
     <g id="text_9">
      <!-- −0.15 -->
      <g transform="translate(142.354688 1268.282276)scale(0.1 -0.1)">
       <use xlink:href="#DejaVuSans-8722"/>
       <use x="83.789062" xlink:href="#DejaVuSans-48"/>
       <use x="147.412109" xlink:href="#DejaVuSans-46"/>
       <use x="179.199219" xlink:href="#DejaVuSans-49"/>
       <use x="242.822266" xlink:href="#DejaVuSans-53"/>
      </g>
     </g>
    </g>
    <g id="ytick_2">
     <g id="line2d_10">
      <g>
       <use style="stroke:#000000;stroke-width:0.8;" x="180" xlink:href="#m659fa33bc9" y="1140.729748"/>
      </g>
     </g>
     <g id="text_10">
      <!-- −0.10 -->
      <g transform="translate(142.354688 1144.528967)scale(0.1 -0.1)">
       <use xlink:href="#DejaVuSans-8722"/>
       <use x="83.789062" xlink:href="#DejaVuSans-48"/>
       <use x="147.412109" xlink:href="#DejaVuSans-46"/>
       <use x="179.199219" xlink:href="#DejaVuSans-49"/>
       <use x="242.822266" xlink:href="#DejaVuSans-48"/>
      </g>
     </g>
    </g>
    <g id="ytick_3">
     <g id="line2d_11">
      <g>
       <use style="stroke:#000000;stroke-width:0.8;" x="180" xlink:href="#m659fa33bc9" y="1016.97644"/>
      </g>
     </g>
     <g id="text_11">
      <!-- −0.05 -->
      <g transform="translate(142.354688 1020.775659)scale(0.1 -0.1)">
       <use xlink:href="#DejaVuSans-8722"/>
       <use x="83.789062" xlink:href="#DejaVuSans-48"/>
       <use x="147.412109" xlink:href="#DejaVuSans-46"/>
       <use x="179.199219" xlink:href="#DejaVuSans-48"/>
       <use x="242.822266" xlink:href="#DejaVuSans-53"/>
      </g>
     </g>
    </g>
    <g id="ytick_4">
     <g id="line2d_12">
      <g>
       <use style="stroke:#000000;stroke-width:0.8;" x="180" xlink:href="#m659fa33bc9" y="893.223131"/>
      </g>
     </g>
     <g id="text_12">
      <!-- 0.00 -->
      <g transform="translate(150.734375 897.02235)scale(0.1 -0.1)">
       <use xlink:href="#DejaVuSans-48"/>
       <use x="63.623047" xlink:href="#DejaVuSans-46"/>
       <use x="95.410156" xlink:href="#DejaVuSans-48"/>
       <use x="159.033203" xlink:href="#DejaVuSans-48"/>
      </g>
     </g>
    </g>
    <g id="ytick_5">
     <g id="line2d_13">
      <g>
       <use style="stroke:#000000;stroke-width:0.8;" x="180" xlink:href="#m659fa33bc9" y="769.469823"/>
      </g>
     </g>
     <g id="text_13">
      <!-- 0.05 -->
      <g transform="translate(150.734375 773.269042)scale(0.1 -0.1)">
       <use xlink:href="#DejaVuSans-48"/>
       <use x="63.623047" xlink:href="#DejaVuSans-46"/>
       <use x="95.410156" xlink:href="#DejaVuSans-48"/>
       <use x="159.033203" xlink:href="#DejaVuSans-53"/>
      </g>
     </g>
    </g>
    <g id="ytick_6">
     <g id="line2d_14">
      <g>
       <use style="stroke:#000000;stroke-width:0.8;" x="180" xlink:href="#m659fa33bc9" y="645.716515"/>
      </g>
     </g>
     <g id="text_14">
      <!-- 0.10 -->
      <g transform="translate(150.734375 649.515733)scale(0.1 -0.1)">
       <use xlink:href="#DejaVuSans-48"/>
       <use x="63.623047" xlink:href="#DejaVuSans-46"/>
       <use x="95.410156" xlink:href="#DejaVuSans-49"/>
       <use x="159.033203" xlink:href="#DejaVuSans-48"/>
      </g>
     </g>
    </g>
    <g id="ytick_7">
     <g id="line2d_15">
      <g>
       <use style="stroke:#000000;stroke-width:0.8;" x="180" xlink:href="#m659fa33bc9" y="521.963206"/>
      </g>
     </g>
     <g id="text_15">
      <!-- 0.15 -->
      <g transform="translate(150.734375 525.762425)scale(0.1 -0.1)">
       <use xlink:href="#DejaVuSans-48"/>
       <use x="63.623047" xlink:href="#DejaVuSans-46"/>
       <use x="95.410156" xlink:href="#DejaVuSans-49"/>
       <use x="159.033203" xlink:href="#DejaVuSans-53"/>
      </g>
     </g>
    </g>
    <g id="ytick_8">
     <g id="line2d_16">
      <g>
       <use style="stroke:#000000;stroke-width:0.8;" x="180" xlink:href="#m659fa33bc9" y="398.209898"/>
      </g>
     </g>
     <g id="text_16">
      <!-- 0.20 -->
      <g transform="translate(150.734375 402.009116)scale(0.1 -0.1)">
       <use xlink:href="#DejaVuSans-48"/>
       <use x="63.623047" xlink:href="#DejaVuSans-46"/>
       <use x="95.410156" xlink:href="#DejaVuSans-50"/>
       <use x="159.033203" xlink:href="#DejaVuSans-48"/>
      </g>
     </g>
    </g>
    <g id="ytick_9">
     <g id="line2d_17">
      <g>
       <use style="stroke:#000000;stroke-width:0.8;" x="180" xlink:href="#m659fa33bc9" y="274.456589"/>
      </g>
     </g>
     <g id="text_17">
      <!-- 0.25 -->
      <g transform="translate(150.734375 278.255808)scale(0.1 -0.1)">
       <use xlink:href="#DejaVuSans-48"/>
       <use x="63.623047" xlink:href="#DejaVuSans-46"/>
       <use x="95.410156" xlink:href="#DejaVuSans-50"/>
       <use x="159.033203" xlink:href="#DejaVuSans-53"/>
      </g>
     </g>
    </g>
   </g>
   <g id="line2d_18">
    <defs>
     <path d="M 0 9 
C 2.386828 9 4.676219 8.051703 6.363961 6.363961 
C 8.051703 4.676219 9 2.386828 9 0 
C 9 -2.386828 8.051703 -4.676219 6.363961 -6.363961 
C 4.676219 -8.051703 2.386828 -9 0 -9 
C -2.386828 -9 -4.676219 -8.051703 -6.363961 -6.363961 
C -8.051703 -4.676219 -9 -2.386828 -9 0 
C -9 2.386828 -8.051703 4.676219 -6.363961 6.363961 
C -4.676219 8.051703 -2.386828 9 0 9 
z
" id="m9a4fc59af2" style="stroke:#000000;"/>
    </defs>
    <g clip-path="url(#p07de662fc5)">
     <use style="fill:#9e0142;stroke:#000000;" x="1243.850215" xlink:href="#m9a4fc59af2" y="985.327388"/>
    </g>
   </g>
   <g id="line2d_19">
    <defs>
     <path d="M 0 9 
C 2.386828 9 4.676219 8.051703 6.363961 6.363961 
C 8.051703 4.676219 9 2.386828 9 0 
C 9 -2.386828 8.051703 -4.676219 6.363961 -6.363961 
C 4.676219 -8.051703 2.386828 -9 0 -9 
C -2.386828 -9 -4.676219 -8.051703 -6.363961 -6.363961 
C -8.051703 -4.676219 -9 -2.386828 -9 0 
C -9 2.386828 -8.051703 4.676219 -6.363961 6.363961 
C -4.676219 8.051703 -2.386828 9 0 9 
z
" id="m200f897276" style="stroke:#000000;"/>
    </defs>
    <g clip-path="url(#p07de662fc5)">
     <use style="fill:#fdbf6f;stroke:#000000;" x="1127.147866" xlink:href="#m200f897276" y="487.593499"/>
    </g>
   </g>
   <g id="line2d_20">
    <g clip-path="url(#p07de662fc5)">
     <use style="fill:#9e0142;stroke:#000000;" x="1235.432885" xlink:href="#m9a4fc59af2" y="985.599236"/>
    </g>
   </g>
   <g id="line2d_21">
    <g clip-path="url(#p07de662fc5)">
     <use style="fill:#9e0142;stroke:#000000;" x="1241.824454" xlink:href="#m9a4fc59af2" y="985.802917"/>
    </g>
   </g>
   <g id="line2d_22">
    <g clip-path="url(#p07de662fc5)">
     <use style="fill:#fdbf6f;stroke:#000000;" x="1172.889167" xlink:href="#m200f897276" y="363.634282"/>
    </g>
   </g>
   <g id="line2d_23">
    <defs>
     <path d="M 0 3 
C 0.795609 3 1.55874 2.683901 2.12132 2.12132 
C 2.683901 1.55874 3 0.795609 3 0 
C 3 -0.795609 2.683901 -1.55874 2.12132 -2.12132 
C 1.55874 -2.683901 0.795609 -3 0 -3 
C -0.795609 -3 -1.55874 -2.683901 -2.12132 -2.12132 
C -2.683901 -1.55874 -3 -0.795609 -3 0 
C -3 0.795609 -2.683901 1.55874 -2.12132 2.12132 
C -1.55874 2.683901 -0.795609 3 0 3 
z
" id="m4af670914f" style="stroke:#000000;"/>
    </defs>
    <g clip-path="url(#p07de662fc5)">
     <use style="stroke:#000000;" x="509.818396" xlink:href="#m4af670914f" y="877.805647"/>
    </g>
   </g>
   <g id="line2d_24">
    <g clip-path="url(#p07de662fc5)">
     <use style="fill:#fdbf6f;stroke:#000000;" x="1165.293474" xlink:href="#m200f897276" y="364.178075"/>
    </g>
   </g>
   <g id="line2d_25">
    <g clip-path="url(#p07de662fc5)">
     <use style="fill:#fdbf6f;stroke:#000000;" x="1163.371252" xlink:href="#m200f897276" y="370.856663"/>
    </g>
   </g>
   <g id="line2d_26">
    <g clip-path="url(#p07de662fc5)">
     <use style="fill:#9e0142;stroke:#000000;" x="1205.259261" xlink:href="#m9a4fc59af2" y="1108.328248"/>
    </g>
   </g>
   <g id="line2d_27">
    <g clip-path="url(#p07de662fc5)">
     <use style="fill:#fdbf6f;stroke:#000000;" x="1128.338387" xlink:href="#m200f897276" y="484.919263"/>
    </g>
   </g>
   <g id="line2d_28">
    <g clip-path="url(#p07de662fc5)">
     <use style="stroke:#000000;" x="230.727273" xlink:href="#m4af670914f" y="476.029403"/>
    </g>
   </g>
   <g id="line2d_29">
    <g clip-path="url(#p07de662fc5)">
     <use style="stroke:#000000;" x="839.311937" xlink:href="#m4af670914f" y="1231.2"/>
    </g>
   </g>
   <g id="line2d_30">
    <g clip-path="url(#p07de662fc5)">
     <use style="fill:#9e0142;stroke:#000000;" x="1196.798666" xlink:href="#m9a4fc59af2" y="1107.756225"/>
    </g>
   </g>
   <g id="line2d_31">
    <defs>
     <path d="M 0 9 
C 2.386828 9 4.676219 8.051703 6.363961 6.363961 
C 8.051703 4.676219 9 2.386828 9 0 
C 9 -2.386828 8.051703 -4.676219 6.363961 -6.363961 
C 4.676219 -8.051703 2.386828 -9 0 -9 
C -2.386828 -9 -4.676219 -8.051703 -6.363961 -6.363961 
C -8.051703 -4.676219 -9 -2.386828 -9 0 
C -9 2.386828 -8.051703 4.676219 -6.363961 6.363961 
C -4.676219 8.051703 -2.386828 9 0 9 
z
" id="m52fa20e04e" style="stroke:#000000;"/>
    </defs>
    <g clip-path="url(#p07de662fc5)">
     <use style="fill:#bfe5a0;stroke:#000000;" x="268.796663" xlink:href="#m52fa20e04e" y="232.874151"/>
    </g>
   </g>
   <g id="line2d_32">
    <g clip-path="url(#p07de662fc5)">
     <use style="fill:#9e0142;stroke:#000000;" x="1240.518086" xlink:href="#m9a4fc59af2" y="985.297774"/>
    </g>
   </g>
   <g id="line2d_33">
    <g clip-path="url(#p07de662fc5)">
     <use style="fill:#fdbf6f;stroke:#000000;" x="1165.171064" xlink:href="#m200f897276" y="372.239446"/>
    </g>
   </g>
   <g id="line2d_34">
    <g clip-path="url(#p07de662fc5)">
     <use style="fill:#fdbf6f;stroke:#000000;" x="1164.727948" xlink:href="#m200f897276" y="363.031617"/>
    </g>
   </g>
   <g id="line2d_35">
    <g clip-path="url(#p07de662fc5)">
     <use style="fill:#9e0142;stroke:#000000;" x="1201.960995" xlink:href="#m9a4fc59af2" y="1104.36425"/>
    </g>
   </g>
   <g id="line2d_36">
    <g clip-path="url(#p07de662fc5)">
     <use style="fill:#9e0142;stroke:#000000;" x="1201.73942" xlink:href="#m9a4fc59af2" y="1105.112768"/>
    </g>
   </g>
   <g id="line2d_37">
    <g clip-path="url(#p07de662fc5)">
     <use style="fill:#bfe5a0;stroke:#000000;" x="268.025993" xlink:href="#m52fa20e04e" y="228.315155"/>
    </g>
   </g>
   <g id="line2d_38">
    <g clip-path="url(#p07de662fc5)">
     <use style="fill:#9e0142;stroke:#000000;" x="1236.716874" xlink:href="#m9a4fc59af2" y="985.627541"/>
    </g>
   </g>
   <g id="line2d_39">
    <g clip-path="url(#p07de662fc5)">
     <use style="fill:#9e0142;stroke:#000000;" x="1237.204881" xlink:href="#m9a4fc59af2" y="986.507856"/>
    </g>
   </g>
   <g id="line2d_40">
    <g clip-path="url(#p07de662fc5)">
     <use style="fill:#9e0142;stroke:#000000;" x="1196.862172" xlink:href="#m9a4fc59af2" y="1105.108418"/>
    </g>
   </g>
   <g id="line2d_41">
    <g clip-path="url(#p07de662fc5)">
     <use style="fill:#9e0142;stroke:#000000;" x="1236.416104" xlink:href="#m9a4fc59af2" y="986.023238"/>
    </g>
   </g>
   <g id="line2d_42">
    <g clip-path="url(#p07de662fc5)">
     <use style="fill:#fdbf6f;stroke:#000000;" x="1169.718775" xlink:href="#m200f897276" y="364.809037"/>
    </g>
   </g>
   <g id="line2d_43">
    <g clip-path="url(#p07de662fc5)">
     <use style="fill:#bfe5a0;stroke:#000000;" x="269.205397" xlink:href="#m52fa20e04e" y="228.999714"/>
    </g>
   </g>
   <g id="line2d_44">
    <g clip-path="url(#p07de662fc5)">
     <use style="fill:#fdbf6f;stroke:#000000;" x="1082.037361" xlink:href="#m200f897276" y="431.304415"/>
    </g>
   </g>
   <g id="line2d_45">
    <g clip-path="url(#p07de662fc5)">
     <use style="stroke:#000000;" x="1190.698683" xlink:href="#m4af670914f" y="656.18755"/>
    </g>
   </g>
   <g id="line2d_46">
    <g clip-path="url(#p07de662fc5)">
     <use style="fill:#bfe5a0;stroke:#000000;" x="266.63317" xlink:href="#m52fa20e04e" y="230.054268"/>
    </g>
   </g>
   <g id="line2d_47">
    <g clip-path="url(#p07de662fc5)">
     <use style="stroke:#000000;" x="504.10296" xlink:href="#m4af670914f" y="917.097079"/>
    </g>
   </g>
   <g id="line2d_48">
    <g clip-path="url(#p07de662fc5)">
     <use style="stroke:#000000;" x="989.507873" xlink:href="#m4af670914f" y="283.402788"/>
    </g>
   </g>
   <g id="line2d_49">
    <g clip-path="url(#p07de662fc5)">
     <use style="stroke:#000000;" x="886.611281" xlink:href="#m4af670914f" y="1049.581513"/>
    </g>
   </g>
   <g id="line2d_50">
    <g clip-path="url(#p07de662fc5)">
     <use style="fill:#9e0142;stroke:#000000;" x="1245.25791" xlink:href="#m9a4fc59af2" y="985.582883"/>
    </g>
   </g>
   <g id="line2d_51">
    <g clip-path="url(#p07de662fc5)">
     <use style="fill:#fdbf6f;stroke:#000000;" x="1082.097729" xlink:href="#m200f897276" y="436.559427"/>
    </g>
   </g>
   <g id="line2d_52">
    <g clip-path="url(#p07de662fc5)">
     <use style="fill:#9e0142;stroke:#000000;" x="1245.272727" xlink:href="#m9a4fc59af2" y="985.776193"/>
    </g>
   </g>
   <g id="line2d_53">
    <g clip-path="url(#p07de662fc5)">
     <use style="fill:#9e0142;stroke:#000000;" x="1241.812366" xlink:href="#m9a4fc59af2" y="985.128596"/>
    </g>
   </g>
   <g id="line2d_54">
    <g clip-path="url(#p07de662fc5)">
     <use style="fill:#fdbf6f;stroke:#000000;" x="1171.90146" xlink:href="#m200f897276" y="370.14261"/>
    </g>
   </g>
   <g id="line2d_55">
    <g clip-path="url(#p07de662fc5)">
     <use style="fill:#9e0142;stroke:#000000;" x="1205.075327" xlink:href="#m9a4fc59af2" y="1106.55751"/>
    </g>
   </g>
   <g id="line2d_56">
    <g clip-path="url(#p07de662fc5)">
     <use style="stroke:#000000;" x="313.325091" xlink:href="#m4af670914f" y="575.759129"/>
    </g>
   </g>
   <g id="line2d_57">
    <g clip-path="url(#p07de662fc5)">
     <use style="stroke:#000000;" x="560.650166" xlink:href="#m4af670914f" y="684.540332"/>
    </g>
   </g>
   <g id="line2d_58">
    <g clip-path="url(#p07de662fc5)">
     <use style="fill:#bfe5a0;stroke:#000000;" x="269.448906" xlink:href="#m52fa20e04e" y="223.2"/>
    </g>
   </g>
   <g id="patch_3">
    <path d="M 180 1281.6 
L 180 172.8 
" style="fill:none;stroke:#000000;stroke-linecap:square;stroke-linejoin:miter;stroke-width:0.8;"/>
   </g>
   <g id="patch_4">
    <path d="M 1296 1281.6 
L 1296 172.8 
" style="fill:none;stroke:#000000;stroke-linecap:square;stroke-linejoin:miter;stroke-width:0.8;"/>
   </g>
   <g id="patch_5">
    <path d="M 180 1281.6 
L 1296 1281.6 
" style="fill:none;stroke:#000000;stroke-linecap:square;stroke-linejoin:miter;stroke-width:0.8;"/>
   </g>
   <g id="patch_6">
    <path d="M 180 172.8 
L 1296 172.8 
" style="fill:none;stroke:#000000;stroke-linecap:square;stroke-linejoin:miter;stroke-width:0.8;"/>
   </g>
  </g>
 </g>
 <defs>
  <clipPath id="p07de662fc5">
   <rect height="1108.8" width="1116" x="180" y="172.8"/>
  </clipPath>
 </defs>
</svg>
