<?xml version="1.0" encoding="utf-8" standalone="no"?>
<!DOCTYPE svg PUBLIC "-//W3C//DTD SVG 1.1//EN"
  "http://www.w3.org/Graphics/SVG/1.1/DTD/svg11.dtd">
<!-- Created with matplotlib (https://matplotlib.org/) -->
<svg height="1440pt" version="1.1" viewBox="0 0 1440 1440" width="1440pt" xmlns="http://www.w3.org/2000/svg" xmlns:xlink="http://www.w3.org/1999/xlink">
 <defs>
  <style type="text/css">
*{stroke-linecap:butt;stroke-linejoin:round;}
  </style>
 </defs>
 <g id="figure_1">
  <g id="patch_1">
   <path d="M 0 1440 
L 1440 1440 
L 1440 0 
L 0 0 
z
" style="fill:#ffffff;"/>
  </g>
  <g id="axes_1">
   <g id="patch_2">
    <path d="M 180 1281.6 
L 1296 1281.6 
L 1296 172.8 
L 180 172.8 
z
" style="fill:#ffffff;"/>
   </g>
   <g id="matplotlib.axis_1">
    <g id="xtick_1">
     <g id="line2d_1">
      <defs>
       <path d="M 0 0 
L 0 3.5 
" id="m77a8502c67" style="stroke:#000000;stroke-width:0.8;"/>
      </defs>
      <g>
       <use style="stroke:#000000;stroke-width:0.8;" x="195.80763" xlink:href="#m77a8502c67" y="1281.6"/>
      </g>
     </g>
     <g id="text_1">
      <!-- −0.15 -->
      <defs>
       <path d="M 10.59375 35.5 
L 73.1875 35.5 
L 73.1875 27.203125 
L 10.59375 27.203125 
z
" id="DejaVuSans-8722"/>
       <path d="M 31.78125 66.40625 
Q 24.171875 66.40625 20.328125 58.90625 
Q 16.5 51.421875 16.5 36.375 
Q 16.5 21.390625 20.328125 13.890625 
Q 24.171875 6.390625 31.78125 6.390625 
Q 39.453125 6.390625 43.28125 13.890625 
Q 47.125 21.390625 47.125 36.375 
Q 47.125 51.421875 43.28125 58.90625 
Q 39.453125 66.40625 31.78125 66.40625 
z
M 31.78125 74.21875 
Q 44.046875 74.21875 50.515625 64.515625 
Q 56.984375 54.828125 56.984375 36.375 
Q 56.984375 17.96875 50.515625 8.265625 
Q 44.046875 -1.421875 31.78125 -1.421875 
Q 19.53125 -1.421875 13.0625 8.265625 
Q 6.59375 17.96875 6.59375 36.375 
Q 6.59375 54.828125 13.0625 64.515625 
Q 19.53125 74.21875 31.78125 74.21875 
z
" id="DejaVuSans-48"/>
       <path d="M 10.6875 12.40625 
L 21 12.40625 
L 21 0 
L 10.6875 0 
z
" id="DejaVuSans-46"/>
       <path d="M 12.40625 8.296875 
L 28.515625 8.296875 
L 28.515625 63.921875 
L 10.984375 60.40625 
L 10.984375 69.390625 
L 28.421875 72.90625 
L 38.28125 72.90625 
L 38.28125 8.296875 
L 54.390625 8.296875 
L 54.390625 0 
L 12.40625 0 
z
" id="DejaVuSans-49"/>
       <path d="M 10.796875 72.90625 
L 49.515625 72.90625 
L 49.515625 64.59375 
L 19.828125 64.59375 
L 19.828125 46.734375 
Q 21.96875 47.46875 24.109375 47.828125 
Q 26.265625 48.1875 28.421875 48.1875 
Q 40.625 48.1875 47.75 41.5 
Q 54.890625 34.8125 54.890625 23.390625 
Q 54.890625 11.625 47.5625 5.09375 
Q 40.234375 -1.421875 26.90625 -1.421875 
Q 22.3125 -1.421875 17.546875 -0.640625 
Q 12.796875 0.140625 7.71875 1.703125 
L 7.71875 11.625 
Q 12.109375 9.234375 16.796875 8.0625 
Q 21.484375 6.890625 26.703125 6.890625 
Q 35.15625 6.890625 40.078125 11.328125 
Q 45.015625 15.765625 45.015625 23.390625 
Q 45.015625 31 40.078125 35.4375 
Q 35.15625 39.890625 26.703125 39.890625 
Q 22.75 39.890625 18.8125 39.015625 
Q 14.890625 38.140625 10.796875 36.28125 
z
" id="DejaVuSans-53"/>
      </defs>
      <g transform="translate(180.484974 1296.198437)scale(0.1 -0.1)">
       <use xlink:href="#DejaVuSans-8722"/>
       <use x="83.789062" xlink:href="#DejaVuSans-48"/>
       <use x="147.412109" xlink:href="#DejaVuSans-46"/>
       <use x="179.199219" xlink:href="#DejaVuSans-49"/>
       <use x="242.822266" xlink:href="#DejaVuSans-53"/>
      </g>
     </g>
    </g>
    <g id="xtick_2">
     <g id="line2d_2">
      <g>
       <use style="stroke:#000000;stroke-width:0.8;" x="345.432795" xlink:href="#m77a8502c67" y="1281.6"/>
      </g>
     </g>
     <g id="text_2">
      <!-- −0.10 -->
      <g transform="translate(330.110139 1296.198437)scale(0.1 -0.1)">
       <use xlink:href="#DejaVuSans-8722"/>
       <use x="83.789062" xlink:href="#DejaVuSans-48"/>
       <use x="147.412109" xlink:href="#DejaVuSans-46"/>
       <use x="179.199219" xlink:href="#DejaVuSans-49"/>
       <use x="242.822266" xlink:href="#DejaVuSans-48"/>
      </g>
     </g>
    </g>
    <g id="xtick_3">
     <g id="line2d_3">
      <g>
       <use style="stroke:#000000;stroke-width:0.8;" x="495.05796" xlink:href="#m77a8502c67" y="1281.6"/>
      </g>
     </g>
     <g id="text_3">
      <!-- −0.05 -->
      <g transform="translate(479.735304 1296.198437)scale(0.1 -0.1)">
       <use xlink:href="#DejaVuSans-8722"/>
       <use x="83.789062" xlink:href="#DejaVuSans-48"/>
       <use x="147.412109" xlink:href="#DejaVuSans-46"/>
       <use x="179.199219" xlink:href="#DejaVuSans-48"/>
       <use x="242.822266" xlink:href="#DejaVuSans-53"/>
      </g>
     </g>
    </g>
    <g id="xtick_4">
     <g id="line2d_4">
      <g>
       <use style="stroke:#000000;stroke-width:0.8;" x="644.683125" xlink:href="#m77a8502c67" y="1281.6"/>
      </g>
     </g>
     <g id="text_4">
      <!-- 0.00 -->
      <g transform="translate(633.550313 1296.198437)scale(0.1 -0.1)">
       <use xlink:href="#DejaVuSans-48"/>
       <use x="63.623047" xlink:href="#DejaVuSans-46"/>
       <use x="95.410156" xlink:href="#DejaVuSans-48"/>
       <use x="159.033203" xlink:href="#DejaVuSans-48"/>
      </g>
     </g>
    </g>
    <g id="xtick_5">
     <g id="line2d_5">
      <g>
       <use style="stroke:#000000;stroke-width:0.8;" x="794.30829" xlink:href="#m77a8502c67" y="1281.6"/>
      </g>
     </g>
     <g id="text_5">
      <!-- 0.05 -->
      <g transform="translate(783.175478 1296.198437)scale(0.1 -0.1)">
       <use xlink:href="#DejaVuSans-48"/>
       <use x="63.623047" xlink:href="#DejaVuSans-46"/>
       <use x="95.410156" xlink:href="#DejaVuSans-48"/>
       <use x="159.033203" xlink:href="#DejaVuSans-53"/>
      </g>
     </g>
    </g>
    <g id="xtick_6">
     <g id="line2d_6">
      <g>
       <use style="stroke:#000000;stroke-width:0.8;" x="943.933455" xlink:href="#m77a8502c67" y="1281.6"/>
      </g>
     </g>
     <g id="text_6">
      <!-- 0.10 -->
      <g transform="translate(932.800643 1296.198437)scale(0.1 -0.1)">
       <use xlink:href="#DejaVuSans-48"/>
       <use x="63.623047" xlink:href="#DejaVuSans-46"/>
       <use x="95.410156" xlink:href="#DejaVuSans-49"/>
       <use x="159.033203" xlink:href="#DejaVuSans-48"/>
      </g>
     </g>
    </g>
    <g id="xtick_7">
     <g id="line2d_7">
      <g>
       <use style="stroke:#000000;stroke-width:0.8;" x="1093.55862" xlink:href="#m77a8502c67" y="1281.6"/>
      </g>
     </g>
     <g id="text_7">
      <!-- 0.15 -->
      <g transform="translate(1082.425808 1296.198437)scale(0.1 -0.1)">
       <use xlink:href="#DejaVuSans-48"/>
       <use x="63.623047" xlink:href="#DejaVuSans-46"/>
       <use x="95.410156" xlink:href="#DejaVuSans-49"/>
       <use x="159.033203" xlink:href="#DejaVuSans-53"/>
      </g>
     </g>
    </g>
    <g id="xtick_8">
     <g id="line2d_8">
      <g>
       <use style="stroke:#000000;stroke-width:0.8;" x="1243.183785" xlink:href="#m77a8502c67" y="1281.6"/>
      </g>
     </g>
     <g id="text_8">
      <!-- 0.20 -->
      <defs>
       <path d="M 19.1875 8.296875 
L 53.609375 8.296875 
L 53.609375 0 
L 7.328125 0 
L 7.328125 8.296875 
Q 12.9375 14.109375 22.625 23.890625 
Q 32.328125 33.6875 34.8125 36.53125 
Q 39.546875 41.84375 41.421875 45.53125 
Q 43.3125 49.21875 43.3125 52.78125 
Q 43.3125 58.59375 39.234375 62.25 
Q 35.15625 65.921875 28.609375 65.921875 
Q 23.96875 65.921875 18.8125 64.3125 
Q 13.671875 62.703125 7.8125 59.421875 
L 7.8125 69.390625 
Q 13.765625 71.78125 18.9375 73 
Q 24.125 74.21875 28.421875 74.21875 
Q 39.75 74.21875 46.484375 68.546875 
Q 53.21875 62.890625 53.21875 53.421875 
Q 53.21875 48.921875 51.53125 44.890625 
Q 49.859375 40.875 45.40625 35.40625 
Q 44.1875 33.984375 37.640625 27.21875 
Q 31.109375 20.453125 19.1875 8.296875 
z
" id="DejaVuSans-50"/>
      </defs>
      <g transform="translate(1232.050973 1296.198437)scale(0.1 -0.1)">
       <use xlink:href="#DejaVuSans-48"/>
       <use x="63.623047" xlink:href="#DejaVuSans-46"/>
       <use x="95.410156" xlink:href="#DejaVuSans-50"/>
       <use x="159.033203" xlink:href="#DejaVuSans-48"/>
      </g>
     </g>
    </g>
   </g>
   <g id="matplotlib.axis_2">
    <g id="ytick_1">
     <g id="line2d_9">
      <defs>
       <path d="M 0 0 
L -3.5 0 
" id="mc8eda0a29b" style="stroke:#000000;stroke-width:0.8;"/>
      </defs>
      <g>
       <use style="stroke:#000000;stroke-width:0.8;" x="180" xlink:href="#mc8eda0a29b" y="1274.571291"/>
      </g>
     </g>
     <g id="text_9">
      <!-- −0.10 -->
      <g transform="translate(142.354688 1278.37051)scale(0.1 -0.1)">
       <use xlink:href="#DejaVuSans-8722"/>
       <use x="83.789062" xlink:href="#DejaVuSans-48"/>
       <use x="147.412109" xlink:href="#DejaVuSans-46"/>
       <use x="179.199219" xlink:href="#DejaVuSans-49"/>
       <use x="242.822266" xlink:href="#DejaVuSans-48"/>
      </g>
     </g>
    </g>
    <g id="ytick_2">
     <g id="line2d_10">
      <g>
       <use style="stroke:#000000;stroke-width:0.8;" x="180" xlink:href="#mc8eda0a29b" y="1115.97304"/>
      </g>
     </g>
     <g id="text_10">
      <!-- −0.05 -->
      <g transform="translate(142.354688 1119.772259)scale(0.1 -0.1)">
       <use xlink:href="#DejaVuSans-8722"/>
       <use x="83.789062" xlink:href="#DejaVuSans-48"/>
       <use x="147.412109" xlink:href="#DejaVuSans-46"/>
       <use x="179.199219" xlink:href="#DejaVuSans-48"/>
       <use x="242.822266" xlink:href="#DejaVuSans-53"/>
      </g>
     </g>
    </g>
    <g id="ytick_3">
     <g id="line2d_11">
      <g>
       <use style="stroke:#000000;stroke-width:0.8;" x="180" xlink:href="#mc8eda0a29b" y="957.374789"/>
      </g>
     </g>
     <g id="text_11">
      <!-- 0.00 -->
      <g transform="translate(150.734375 961.174008)scale(0.1 -0.1)">
       <use xlink:href="#DejaVuSans-48"/>
       <use x="63.623047" xlink:href="#DejaVuSans-46"/>
       <use x="95.410156" xlink:href="#DejaVuSans-48"/>
       <use x="159.033203" xlink:href="#DejaVuSans-48"/>
      </g>
     </g>
    </g>
    <g id="ytick_4">
     <g id="line2d_12">
      <g>
       <use style="stroke:#000000;stroke-width:0.8;" x="180" xlink:href="#mc8eda0a29b" y="798.776538"/>
      </g>
     </g>
     <g id="text_12">
      <!-- 0.05 -->
      <g transform="translate(150.734375 802.575756)scale(0.1 -0.1)">
       <use xlink:href="#DejaVuSans-48"/>
       <use x="63.623047" xlink:href="#DejaVuSans-46"/>
       <use x="95.410156" xlink:href="#DejaVuSans-48"/>
       <use x="159.033203" xlink:href="#DejaVuSans-53"/>
      </g>
     </g>
    </g>
    <g id="ytick_5">
     <g id="line2d_13">
      <g>
       <use style="stroke:#000000;stroke-width:0.8;" x="180" xlink:href="#mc8eda0a29b" y="640.178286"/>
      </g>
     </g>
     <g id="text_13">
      <!-- 0.10 -->
      <g transform="translate(150.734375 643.977505)scale(0.1 -0.1)">
       <use xlink:href="#DejaVuSans-48"/>
       <use x="63.623047" xlink:href="#DejaVuSans-46"/>
       <use x="95.410156" xlink:href="#DejaVuSans-49"/>
       <use x="159.033203" xlink:href="#DejaVuSans-48"/>
      </g>
     </g>
    </g>
    <g id="ytick_6">
     <g id="line2d_14">
      <g>
       <use style="stroke:#000000;stroke-width:0.8;" x="180" xlink:href="#mc8eda0a29b" y="481.580035"/>
      </g>
     </g>
     <g id="text_14">
      <!-- 0.15 -->
      <g transform="translate(150.734375 485.379254)scale(0.1 -0.1)">
       <use xlink:href="#DejaVuSans-48"/>
       <use x="63.623047" xlink:href="#DejaVuSans-46"/>
       <use x="95.410156" xlink:href="#DejaVuSans-49"/>
       <use x="159.033203" xlink:href="#DejaVuSans-53"/>
      </g>
     </g>
    </g>
    <g id="ytick_7">
     <g id="line2d_15">
      <g>
       <use style="stroke:#000000;stroke-width:0.8;" x="180" xlink:href="#mc8eda0a29b" y="322.981784"/>
      </g>
     </g>
     <g id="text_15">
      <!-- 0.20 -->
      <g transform="translate(150.734375 326.781002)scale(0.1 -0.1)">
       <use xlink:href="#DejaVuSans-48"/>
       <use x="63.623047" xlink:href="#DejaVuSans-46"/>
       <use x="95.410156" xlink:href="#DejaVuSans-50"/>
       <use x="159.033203" xlink:href="#DejaVuSans-48"/>
      </g>
     </g>
    </g>
   </g>
   <g id="line2d_16">
    <defs>
     <path d="M 0 3 
C 0.795609 3 1.55874 2.683901 2.12132 2.12132 
C 2.683901 1.55874 3 0.795609 3 0 
C 3 -0.795609 2.683901 -1.55874 2.12132 -2.12132 
C 1.55874 -2.683901 0.795609 -3 0 -3 
C -0.795609 -3 -1.55874 -2.683901 -2.12132 -2.12132 
C -2.683901 -1.55874 -3 -0.795609 -3 0 
C -3 0.795609 -2.683901 1.55874 -2.12132 2.12132 
C -1.55874 2.683901 -0.795609 3 0 3 
z
" id="mc8853a145b" style="stroke:#000000;"/>
    </defs>
    <g clip-path="url(#pe9f0fac88a)">
     <use style="stroke:#000000;" x="628.387594" xlink:href="#mc8853a145b" y="235.260247"/>
    </g>
   </g>
   <g id="line2d_17">
    <g clip-path="url(#pe9f0fac88a)">
     <use style="stroke:#000000;" x="628.429031" xlink:href="#mc8853a145b" y="228.735687"/>
    </g>
   </g>
   <g id="line2d_18">
    <g clip-path="url(#pe9f0fac88a)">
     <use style="stroke:#000000;" x="745.192806" xlink:href="#mc8853a145b" y="301.247506"/>
    </g>
   </g>
   <g id="line2d_19">
    <g clip-path="url(#pe9f0fac88a)">
     <use style="stroke:#000000;" x="804.579356" xlink:href="#mc8853a145b" y="467.902953"/>
    </g>
   </g>
   <g id="line2d_20">
    <g clip-path="url(#pe9f0fac88a)">
     <use style="stroke:#000000;" x="1208.443824" xlink:href="#mc8853a145b" y="1007.021773"/>
    </g>
   </g>
   <g id="line2d_21">
    <g clip-path="url(#pe9f0fac88a)">
     <use style="stroke:#000000;" x="811.320213" xlink:href="#mc8853a145b" y="455.856238"/>
    </g>
   </g>
   <g id="line2d_22">
    <g clip-path="url(#pe9f0fac88a)">
     <use style="stroke:#000000;" x="1242.860703" xlink:href="#mc8853a145b" y="1159.725333"/>
    </g>
   </g>
   <g id="line2d_23">
    <g clip-path="url(#pe9f0fac88a)">
     <use style="stroke:#000000;" x="1145.83463" xlink:href="#mc8853a145b" y="990.330721"/>
    </g>
   </g>
   <g id="line2d_24">
    <g clip-path="url(#pe9f0fac88a)">
     <use style="stroke:#000000;" x="1161.715289" xlink:href="#mc8853a145b" y="944.010377"/>
    </g>
   </g>
   <g id="line2d_25">
    <g clip-path="url(#pe9f0fac88a)">
     <use style="stroke:#000000;" x="626.449476" xlink:href="#mc8853a145b" y="465.217142"/>
    </g>
   </g>
   <g id="line2d_26">
    <g clip-path="url(#pe9f0fac88a)">
     <use style="stroke:#000000;" x="628.365219" xlink:href="#mc8853a145b" y="233.691373"/>
    </g>
   </g>
   <g id="line2d_27">
    <g clip-path="url(#pe9f0fac88a)">
     <use style="stroke:#000000;" x="1217.611757" xlink:href="#mc8853a145b" y="1013.588147"/>
    </g>
   </g>
   <g id="line2d_28">
    <g clip-path="url(#pe9f0fac88a)">
     <use style="stroke:#000000;" x="1190.866748" xlink:href="#mc8853a145b" y="1032.836658"/>
    </g>
   </g>
   <g id="line2d_29">
    <g clip-path="url(#pe9f0fac88a)">
     <use style="stroke:#000000;" x="738.054512" xlink:href="#mc8853a145b" y="226.762461"/>
    </g>
   </g>
   <g id="line2d_30">
    <defs>
     <path d="M 0 9 
C 2.386828 9 4.676219 8.051703 6.363961 6.363961 
C 8.051703 4.676219 9 2.386828 9 0 
C 9 -2.386828 8.051703 -4.676219 6.363961 -6.363961 
C 4.676219 -8.051703 2.386828 -9 0 -9 
C -2.386828 -9 -4.676219 -8.051703 -6.363961 -6.363961 
C -8.051703 -4.676219 -9 -2.386828 -9 0 
C -9 2.386828 -8.051703 4.676219 -6.363961 6.363961 
C -4.676219 8.051703 -2.386828 9 0 9 
z
" id="m9fc03517c3" style="stroke:#000000;"/>
    </defs>
    <g clip-path="url(#pe9f0fac88a)">
     <use style="fill:#9e0142;stroke:#000000;" x="746.714823" xlink:href="#m9fc03517c3" y="226.173052"/>
    </g>
   </g>
   <g id="line2d_31">
    <g clip-path="url(#pe9f0fac88a)">
     <use style="stroke:#000000;" x="1150.576927" xlink:href="#mc8853a145b" y="1080.771323"/>
    </g>
   </g>
   <g id="line2d_32">
    <g clip-path="url(#pe9f0fac88a)">
     <use style="stroke:#000000;" x="762.426015" xlink:href="#mc8853a145b" y="338.038998"/>
    </g>
   </g>
   <g id="line2d_33">
    <g clip-path="url(#pe9f0fac88a)">
     <use style="stroke:#000000;" x="662.400248" xlink:href="#mc8853a145b" y="420.644936"/>
    </g>
   </g>
   <g id="line2d_34">
    <defs>
     <path d="M 0 9 
C 2.386828 9 4.676219 8.051703 6.363961 6.363961 
C 8.051703 4.676219 9 2.386828 9 0 
C 9 -2.386828 8.051703 -4.676219 6.363961 -6.363961 
C 4.676219 -8.051703 2.386828 -9 0 -9 
C -2.386828 -9 -4.676219 -8.051703 -6.363961 -6.363961 
C -8.051703 -4.676219 -9 -2.386828 -9 0 
C -9 2.386828 -8.051703 4.676219 -6.363961 6.363961 
C -4.676219 8.051703 -2.386828 9 0 9 
z
" id="md66930f90f" style="stroke:#000000;"/>
    </defs>
    <g clip-path="url(#pe9f0fac88a)">
     <use style="fill:#ffffbe;stroke:#000000;" x="1211.066996" xlink:href="#md66930f90f" y="963.916823"/>
    </g>
   </g>
   <g id="line2d_35">
    <g clip-path="url(#pe9f0fac88a)">
     <use style="stroke:#000000;" x="735.479763" xlink:href="#mc8853a145b" y="281.555805"/>
    </g>
   </g>
   <g id="line2d_36">
    <g clip-path="url(#pe9f0fac88a)">
     <use style="stroke:#000000;" x="769.139948" xlink:href="#mc8853a145b" y="299.423888"/>
    </g>
   </g>
   <g id="line2d_37">
    <g clip-path="url(#pe9f0fac88a)">
     <use style="stroke:#000000;" x="621.586801" xlink:href="#mc8853a145b" y="525.62319"/>
    </g>
   </g>
   <g id="line2d_38">
    <g clip-path="url(#pe9f0fac88a)">
     <use style="stroke:#000000;" x="952.206279" xlink:href="#mc8853a145b" y="661.470668"/>
    </g>
   </g>
   <g id="line2d_39">
    <g clip-path="url(#pe9f0fac88a)">
     <use style="fill:#ffffbe;stroke:#000000;" x="1212.464265" xlink:href="#md66930f90f" y="963.844306"/>
    </g>
   </g>
   <g id="line2d_40">
    <g clip-path="url(#pe9f0fac88a)">
     <use style="stroke:#000000;" x="678.524425" xlink:href="#mc8853a145b" y="409.837461"/>
    </g>
   </g>
   <g id="line2d_41">
    <g clip-path="url(#pe9f0fac88a)">
     <use style="stroke:#000000;" x="968.028049" xlink:href="#mc8853a145b" y="856.772272"/>
    </g>
   </g>
   <g id="line2d_42">
    <g clip-path="url(#pe9f0fac88a)">
     <use style="stroke:#000000;" x="1209.618406" xlink:href="#mc8853a145b" y="1223.223249"/>
    </g>
   </g>
   <g id="line2d_43">
    <g clip-path="url(#pe9f0fac88a)">
     <use style="fill:#9e0142;stroke:#000000;" x="746.117763" xlink:href="#m9fc03517c3" y="224.650271"/>
    </g>
   </g>
   <g id="line2d_44">
    <g clip-path="url(#pe9f0fac88a)">
     <use style="stroke:#000000;" x="230.727273" xlink:href="#mc8853a145b" y="820.055769"/>
    </g>
   </g>
   <g id="line2d_45">
    <g clip-path="url(#pe9f0fac88a)">
     <use style="stroke:#000000;" x="840.138144" xlink:href="#mc8853a145b" y="566.292316"/>
    </g>
   </g>
   <g id="line2d_46">
    <g clip-path="url(#pe9f0fac88a)">
     <use style="stroke:#000000;" x="1161.098771" xlink:href="#mc8853a145b" y="1038.03874"/>
    </g>
   </g>
   <g id="line2d_47">
    <g clip-path="url(#pe9f0fac88a)">
     <use style="fill:#9e0142;stroke:#000000;" x="746.441055" xlink:href="#m9fc03517c3" y="227.673328"/>
    </g>
   </g>
   <g id="line2d_48">
    <g clip-path="url(#pe9f0fac88a)">
     <use style="fill:#ffffbe;stroke:#000000;" x="1217.37715" xlink:href="#md66930f90f" y="963.860231"/>
    </g>
   </g>
   <g id="line2d_49">
    <g clip-path="url(#pe9f0fac88a)">
     <use style="stroke:#000000;" x="1091.8108" xlink:href="#mc8853a145b" y="831.085899"/>
    </g>
   </g>
   <g id="line2d_50">
    <g clip-path="url(#pe9f0fac88a)">
     <use style="stroke:#000000;" x="614.079648" xlink:href="#mc8853a145b" y="336.012975"/>
    </g>
   </g>
   <g id="line2d_51">
    <g clip-path="url(#pe9f0fac88a)">
     <use style="stroke:#000000;" x="997.592091" xlink:href="#mc8853a145b" y="863.640692"/>
    </g>
   </g>
   <g id="line2d_52">
    <g clip-path="url(#pe9f0fac88a)">
     <use style="stroke:#000000;" x="1211.030862" xlink:href="#mc8853a145b" y="1225.287584"/>
    </g>
   </g>
   <g id="line2d_53">
    <g clip-path="url(#pe9f0fac88a)">
     <use style="stroke:#000000;" x="1185.29607" xlink:href="#mc8853a145b" y="1033.166999"/>
    </g>
   </g>
   <g id="line2d_54">
    <g clip-path="url(#pe9f0fac88a)">
     <use style="fill:#ffffbe;stroke:#000000;" x="1219.361417" xlink:href="#md66930f90f" y="963.900655"/>
    </g>
   </g>
   <g id="line2d_55">
    <g clip-path="url(#pe9f0fac88a)">
     <use style="fill:#ffffbe;stroke:#000000;" x="1213.138934" xlink:href="#md66930f90f" y="963.84477"/>
    </g>
   </g>
   <g id="line2d_56">
    <g clip-path="url(#pe9f0fac88a)">
     <use style="fill:#ffffbe;stroke:#000000;" x="1214.86943" xlink:href="#md66930f90f" y="963.813481"/>
    </g>
   </g>
   <g id="line2d_57">
    <g clip-path="url(#pe9f0fac88a)">
     <use style="fill:#ffffbe;stroke:#000000;" x="1208.807555" xlink:href="#md66930f90f" y="963.885855"/>
    </g>
   </g>
   <g id="line2d_58">
    <g clip-path="url(#pe9f0fac88a)">
     <use style="stroke:#000000;" x="970.605755" xlink:href="#mc8853a145b" y="789.269403"/>
    </g>
   </g>
   <g id="line2d_59">
    <g clip-path="url(#pe9f0fac88a)">
     <use style="stroke:#000000;" x="1180.782345" xlink:href="#mc8853a145b" y="1032.875002"/>
    </g>
   </g>
   <g id="line2d_60">
    <g clip-path="url(#pe9f0fac88a)">
     <use style="stroke:#000000;" x="1205.775459" xlink:href="#mc8853a145b" y="1225.03722"/>
    </g>
   </g>
   <g id="line2d_61">
    <g clip-path="url(#pe9f0fac88a)">
     <use style="fill:#ffffbe;stroke:#000000;" x="1215.938638" xlink:href="#md66930f90f" y="963.913285"/>
    </g>
   </g>
   <g id="line2d_62">
    <g clip-path="url(#pe9f0fac88a)">
     <use style="fill:#9e0142;stroke:#000000;" x="745.906649" xlink:href="#m9fc03517c3" y="226.654119"/>
    </g>
   </g>
   <g id="line2d_63">
    <g clip-path="url(#pe9f0fac88a)">
     <use style="stroke:#000000;" x="1245.272727" xlink:href="#mc8853a145b" y="1160.612228"/>
    </g>
   </g>
   <g id="line2d_64">
    <g clip-path="url(#pe9f0fac88a)">
     <use style="stroke:#000000;" x="660.163395" xlink:href="#mc8853a145b" y="333.493856"/>
    </g>
   </g>
   <g id="line2d_65">
    <g clip-path="url(#pe9f0fac88a)">
     <use style="stroke:#000000;" x="849.196703" xlink:href="#mc8853a145b" y="832.711661"/>
    </g>
   </g>
   <g id="line2d_66">
    <g clip-path="url(#pe9f0fac88a)">
     <use style="stroke:#000000;" x="735.456918" xlink:href="#mc8853a145b" y="282.238246"/>
    </g>
   </g>
   <g id="line2d_67">
    <g clip-path="url(#pe9f0fac88a)">
     <use style="stroke:#000000;" x="1183.853233" xlink:href="#mc8853a145b" y="1231.2"/>
    </g>
   </g>
   <g id="line2d_68">
    <g clip-path="url(#pe9f0fac88a)">
     <use style="stroke:#000000;" x="993.333905" xlink:href="#mc8853a145b" y="846.816615"/>
    </g>
   </g>
   <g id="line2d_69">
    <g clip-path="url(#pe9f0fac88a)">
     <use style="stroke:#000000;" x="443.507886" xlink:href="#mc8853a145b" y="636.784013"/>
    </g>
   </g>
   <g id="line2d_70">
    <g clip-path="url(#pe9f0fac88a)">
     <use style="fill:#9e0142;stroke:#000000;" x="745.062715" xlink:href="#m9fc03517c3" y="223.2"/>
    </g>
   </g>
   <g id="line2d_71">
    <g clip-path="url(#pe9f0fac88a)">
     <use style="stroke:#000000;" x="1160.966276" xlink:href="#mc8853a145b" y="943.883813"/>
    </g>
   </g>
   <g id="line2d_72">
    <g clip-path="url(#pe9f0fac88a)">
     <use style="stroke:#000000;" x="1206.856542" xlink:href="#mc8853a145b" y="1007.150848"/>
    </g>
   </g>
   <g id="patch_3">
    <path d="M 180 1281.6 
L 180 172.8 
" style="fill:none;stroke:#000000;stroke-linecap:square;stroke-linejoin:miter;stroke-width:0.8;"/>
   </g>
   <g id="patch_4">
    <path d="M 1296 1281.6 
L 1296 172.8 
" style="fill:none;stroke:#000000;stroke-linecap:square;stroke-linejoin:miter;stroke-width:0.8;"/>
   </g>
   <g id="patch_5">
    <path d="M 180 1281.6 
L 1296 1281.6 
" style="fill:none;stroke:#000000;stroke-linecap:square;stroke-linejoin:miter;stroke-width:0.8;"/>
   </g>
   <g id="patch_6">
    <path d="M 180 172.8 
L 1296 172.8 
" style="fill:none;stroke:#000000;stroke-linecap:square;stroke-linejoin:miter;stroke-width:0.8;"/>
   </g>
  </g>
 </g>
 <defs>
  <clipPath id="pe9f0fac88a">
   <rect height="1108.8" width="1116" x="180" y="172.8"/>
  </clipPath>
 </defs>
</svg>
