<?xml version="1.0" encoding="utf-8" standalone="no"?>
<!DOCTYPE svg PUBLIC "-//W3C//DTD SVG 1.1//EN"
  "http://www.w3.org/Graphics/SVG/1.1/DTD/svg11.dtd">
<!-- Created with matplotlib (https://matplotlib.org/) -->
<svg height="1440pt" version="1.1" viewBox="0 0 1440 1440" width="1440pt" xmlns="http://www.w3.org/2000/svg" xmlns:xlink="http://www.w3.org/1999/xlink">
 <defs>
  <style type="text/css">
*{stroke-linecap:butt;stroke-linejoin:round;}
  </style>
 </defs>
 <g id="figure_1">
  <g id="patch_1">
   <path d="M 0 1440 
L 1440 1440 
L 1440 0 
L 0 0 
z
" style="fill:#ffffff;"/>
  </g>
  <g id="axes_1">
   <g id="patch_2">
    <path d="M 180 1281.6 
L 1296 1281.6 
L 1296 172.8 
L 180 172.8 
z
" style="fill:#ffffff;"/>
   </g>
   <g id="matplotlib.axis_1">
    <g id="xtick_1">
     <g id="line2d_1">
      <defs>
       <path d="M 0 0 
L 0 3.5 
" id="m460a0f22bc" style="stroke:#000000;stroke-width:0.8;"/>
      </defs>
      <g>
       <use style="stroke:#000000;stroke-width:0.8;" x="302.18644" xlink:href="#m460a0f22bc" y="1281.6"/>
      </g>
     </g>
     <g id="text_1">
      <!-- 0.00 -->
      <defs>
       <path d="M 31.78125 66.40625 
Q 24.171875 66.40625 20.328125 58.90625 
Q 16.5 51.421875 16.5 36.375 
Q 16.5 21.390625 20.328125 13.890625 
Q 24.171875 6.390625 31.78125 6.390625 
Q 39.453125 6.390625 43.28125 13.890625 
Q 47.125 21.390625 47.125 36.375 
Q 47.125 51.421875 43.28125 58.90625 
Q 39.453125 66.40625 31.78125 66.40625 
z
M 31.78125 74.21875 
Q 44.046875 74.21875 50.515625 64.515625 
Q 56.984375 54.828125 56.984375 36.375 
Q 56.984375 17.96875 50.515625 8.265625 
Q 44.046875 -1.421875 31.78125 -1.421875 
Q 19.53125 -1.421875 13.0625 8.265625 
Q 6.59375 17.96875 6.59375 36.375 
Q 6.59375 54.828125 13.0625 64.515625 
Q 19.53125 74.21875 31.78125 74.21875 
z
" id="DejaVuSans-48"/>
       <path d="M 10.6875 12.40625 
L 21 12.40625 
L 21 0 
L 10.6875 0 
z
" id="DejaVuSans-46"/>
      </defs>
      <g transform="translate(291.053628 1296.198437)scale(0.1 -0.1)">
       <use xlink:href="#DejaVuSans-48"/>
       <use x="63.623047" xlink:href="#DejaVuSans-46"/>
       <use x="95.410156" xlink:href="#DejaVuSans-48"/>
       <use x="159.033203" xlink:href="#DejaVuSans-48"/>
      </g>
     </g>
    </g>
    <g id="xtick_2">
     <g id="line2d_2">
      <g>
       <use style="stroke:#000000;stroke-width:0.8;" x="445.963015" xlink:href="#m460a0f22bc" y="1281.6"/>
      </g>
     </g>
     <g id="text_2">
      <!-- 0.02 -->
      <defs>
       <path d="M 19.1875 8.296875 
L 53.609375 8.296875 
L 53.609375 0 
L 7.328125 0 
L 7.328125 8.296875 
Q 12.9375 14.109375 22.625 23.890625 
Q 32.328125 33.6875 34.8125 36.53125 
Q 39.546875 41.84375 41.421875 45.53125 
Q 43.3125 49.21875 43.3125 52.78125 
Q 43.3125 58.59375 39.234375 62.25 
Q 35.15625 65.921875 28.609375 65.921875 
Q 23.96875 65.921875 18.8125 64.3125 
Q 13.671875 62.703125 7.8125 59.421875 
L 7.8125 69.390625 
Q 13.765625 71.78125 18.9375 73 
Q 24.125 74.21875 28.421875 74.21875 
Q 39.75 74.21875 46.484375 68.546875 
Q 53.21875 62.890625 53.21875 53.421875 
Q 53.21875 48.921875 51.53125 44.890625 
Q 49.859375 40.875 45.40625 35.40625 
Q 44.1875 33.984375 37.640625 27.21875 
Q 31.109375 20.453125 19.1875 8.296875 
z
" id="DejaVuSans-50"/>
      </defs>
      <g transform="translate(434.830203 1296.198437)scale(0.1 -0.1)">
       <use xlink:href="#DejaVuSans-48"/>
       <use x="63.623047" xlink:href="#DejaVuSans-46"/>
       <use x="95.410156" xlink:href="#DejaVuSans-48"/>
       <use x="159.033203" xlink:href="#DejaVuSans-50"/>
      </g>
     </g>
    </g>
    <g id="xtick_3">
     <g id="line2d_3">
      <g>
       <use style="stroke:#000000;stroke-width:0.8;" x="589.739591" xlink:href="#m460a0f22bc" y="1281.6"/>
      </g>
     </g>
     <g id="text_3">
      <!-- 0.04 -->
      <defs>
       <path d="M 37.796875 64.3125 
L 12.890625 25.390625 
L 37.796875 25.390625 
z
M 35.203125 72.90625 
L 47.609375 72.90625 
L 47.609375 25.390625 
L 58.015625 25.390625 
L 58.015625 17.1875 
L 47.609375 17.1875 
L 47.609375 0 
L 37.796875 0 
L 37.796875 17.1875 
L 4.890625 17.1875 
L 4.890625 26.703125 
z
" id="DejaVuSans-52"/>
      </defs>
      <g transform="translate(578.606778 1296.198437)scale(0.1 -0.1)">
       <use xlink:href="#DejaVuSans-48"/>
       <use x="63.623047" xlink:href="#DejaVuSans-46"/>
       <use x="95.410156" xlink:href="#DejaVuSans-48"/>
       <use x="159.033203" xlink:href="#DejaVuSans-52"/>
      </g>
     </g>
    </g>
    <g id="xtick_4">
     <g id="line2d_4">
      <g>
       <use style="stroke:#000000;stroke-width:0.8;" x="733.516166" xlink:href="#m460a0f22bc" y="1281.6"/>
      </g>
     </g>
     <g id="text_4">
      <!-- 0.06 -->
      <defs>
       <path d="M 33.015625 40.375 
Q 26.375 40.375 22.484375 35.828125 
Q 18.609375 31.296875 18.609375 23.390625 
Q 18.609375 15.53125 22.484375 10.953125 
Q 26.375 6.390625 33.015625 6.390625 
Q 39.65625 6.390625 43.53125 10.953125 
Q 47.40625 15.53125 47.40625 23.390625 
Q 47.40625 31.296875 43.53125 35.828125 
Q 39.65625 40.375 33.015625 40.375 
z
M 52.59375 71.296875 
L 52.59375 62.3125 
Q 48.875 64.0625 45.09375 64.984375 
Q 41.3125 65.921875 37.59375 65.921875 
Q 27.828125 65.921875 22.671875 59.328125 
Q 17.53125 52.734375 16.796875 39.40625 
Q 19.671875 43.65625 24.015625 45.921875 
Q 28.375 48.1875 33.59375 48.1875 
Q 44.578125 48.1875 50.953125 41.515625 
Q 57.328125 34.859375 57.328125 23.390625 
Q 57.328125 12.15625 50.6875 5.359375 
Q 44.046875 -1.421875 33.015625 -1.421875 
Q 20.359375 -1.421875 13.671875 8.265625 
Q 6.984375 17.96875 6.984375 36.375 
Q 6.984375 53.65625 15.1875 63.9375 
Q 23.390625 74.21875 37.203125 74.21875 
Q 40.921875 74.21875 44.703125 73.484375 
Q 48.484375 72.75 52.59375 71.296875 
z
" id="DejaVuSans-54"/>
      </defs>
      <g transform="translate(722.383354 1296.198437)scale(0.1 -0.1)">
       <use xlink:href="#DejaVuSans-48"/>
       <use x="63.623047" xlink:href="#DejaVuSans-46"/>
       <use x="95.410156" xlink:href="#DejaVuSans-48"/>
       <use x="159.033203" xlink:href="#DejaVuSans-54"/>
      </g>
     </g>
    </g>
    <g id="xtick_5">
     <g id="line2d_5">
      <g>
       <use style="stroke:#000000;stroke-width:0.8;" x="877.292741" xlink:href="#m460a0f22bc" y="1281.6"/>
      </g>
     </g>
     <g id="text_5">
      <!-- 0.08 -->
      <defs>
       <path d="M 31.78125 34.625 
Q 24.75 34.625 20.71875 30.859375 
Q 16.703125 27.09375 16.703125 20.515625 
Q 16.703125 13.921875 20.71875 10.15625 
Q 24.75 6.390625 31.78125 6.390625 
Q 38.8125 6.390625 42.859375 10.171875 
Q 46.921875 13.96875 46.921875 20.515625 
Q 46.921875 27.09375 42.890625 30.859375 
Q 38.875 34.625 31.78125 34.625 
z
M 21.921875 38.8125 
Q 15.578125 40.375 12.03125 44.71875 
Q 8.5 49.078125 8.5 55.328125 
Q 8.5 64.0625 14.71875 69.140625 
Q 20.953125 74.21875 31.78125 74.21875 
Q 42.671875 74.21875 48.875 69.140625 
Q 55.078125 64.0625 55.078125 55.328125 
Q 55.078125 49.078125 51.53125 44.71875 
Q 48 40.375 41.703125 38.8125 
Q 48.828125 37.15625 52.796875 32.3125 
Q 56.78125 27.484375 56.78125 20.515625 
Q 56.78125 9.90625 50.3125 4.234375 
Q 43.84375 -1.421875 31.78125 -1.421875 
Q 19.734375 -1.421875 13.25 4.234375 
Q 6.78125 9.90625 6.78125 20.515625 
Q 6.78125 27.484375 10.78125 32.3125 
Q 14.796875 37.15625 21.921875 38.8125 
z
M 18.3125 54.390625 
Q 18.3125 48.734375 21.84375 45.5625 
Q 25.390625 42.390625 31.78125 42.390625 
Q 38.140625 42.390625 41.71875 45.5625 
Q 45.3125 48.734375 45.3125 54.390625 
Q 45.3125 60.0625 41.71875 63.234375 
Q 38.140625 66.40625 31.78125 66.40625 
Q 25.390625 66.40625 21.84375 63.234375 
Q 18.3125 60.0625 18.3125 54.390625 
z
" id="DejaVuSans-56"/>
      </defs>
      <g transform="translate(866.159929 1296.198437)scale(0.1 -0.1)">
       <use xlink:href="#DejaVuSans-48"/>
       <use x="63.623047" xlink:href="#DejaVuSans-46"/>
       <use x="95.410156" xlink:href="#DejaVuSans-48"/>
       <use x="159.033203" xlink:href="#DejaVuSans-56"/>
      </g>
     </g>
    </g>
    <g id="xtick_6">
     <g id="line2d_6">
      <g>
       <use style="stroke:#000000;stroke-width:0.8;" x="1021.069317" xlink:href="#m460a0f22bc" y="1281.6"/>
      </g>
     </g>
     <g id="text_6">
      <!-- 0.10 -->
      <defs>
       <path d="M 12.40625 8.296875 
L 28.515625 8.296875 
L 28.515625 63.921875 
L 10.984375 60.40625 
L 10.984375 69.390625 
L 28.421875 72.90625 
L 38.28125 72.90625 
L 38.28125 8.296875 
L 54.390625 8.296875 
L 54.390625 0 
L 12.40625 0 
z
" id="DejaVuSans-49"/>
      </defs>
      <g transform="translate(1009.936504 1296.198437)scale(0.1 -0.1)">
       <use xlink:href="#DejaVuSans-48"/>
       <use x="63.623047" xlink:href="#DejaVuSans-46"/>
       <use x="95.410156" xlink:href="#DejaVuSans-49"/>
       <use x="159.033203" xlink:href="#DejaVuSans-48"/>
      </g>
     </g>
    </g>
    <g id="xtick_7">
     <g id="line2d_7">
      <g>
       <use style="stroke:#000000;stroke-width:0.8;" x="1164.845892" xlink:href="#m460a0f22bc" y="1281.6"/>
      </g>
     </g>
     <g id="text_7">
      <!-- 0.12 -->
      <g transform="translate(1153.713079 1296.198437)scale(0.1 -0.1)">
       <use xlink:href="#DejaVuSans-48"/>
       <use x="63.623047" xlink:href="#DejaVuSans-46"/>
       <use x="95.410156" xlink:href="#DejaVuSans-49"/>
       <use x="159.033203" xlink:href="#DejaVuSans-50"/>
      </g>
     </g>
    </g>
   </g>
   <g id="matplotlib.axis_2">
    <g id="ytick_1">
     <g id="line2d_8">
      <defs>
       <path d="M 0 0 
L -3.5 0 
" id="md43fbab936" style="stroke:#000000;stroke-width:0.8;"/>
      </defs>
      <g>
       <use style="stroke:#000000;stroke-width:0.8;" x="180" xlink:href="#md43fbab936" y="1261.515902"/>
      </g>
     </g>
     <g id="text_8">
      <!-- −0.2 -->
      <defs>
       <path d="M 10.59375 35.5 
L 73.1875 35.5 
L 73.1875 27.203125 
L 10.59375 27.203125 
z
" id="DejaVuSans-8722"/>
      </defs>
      <g transform="translate(148.717187 1265.315121)scale(0.1 -0.1)">
       <use xlink:href="#DejaVuSans-8722"/>
       <use x="83.789062" xlink:href="#DejaVuSans-48"/>
       <use x="147.412109" xlink:href="#DejaVuSans-46"/>
       <use x="179.199219" xlink:href="#DejaVuSans-50"/>
      </g>
     </g>
    </g>
    <g id="ytick_2">
     <g id="line2d_9">
      <g>
       <use style="stroke:#000000;stroke-width:0.8;" x="180" xlink:href="#md43fbab936" y="1039.194014"/>
      </g>
     </g>
     <g id="text_9">
      <!-- −0.1 -->
      <g transform="translate(148.717187 1042.993233)scale(0.1 -0.1)">
       <use xlink:href="#DejaVuSans-8722"/>
       <use x="83.789062" xlink:href="#DejaVuSans-48"/>
       <use x="147.412109" xlink:href="#DejaVuSans-46"/>
       <use x="179.199219" xlink:href="#DejaVuSans-49"/>
      </g>
     </g>
    </g>
    <g id="ytick_3">
     <g id="line2d_10">
      <g>
       <use style="stroke:#000000;stroke-width:0.8;" x="180" xlink:href="#md43fbab936" y="816.872126"/>
      </g>
     </g>
     <g id="text_10">
      <!-- 0.0 -->
      <g transform="translate(157.096875 820.671344)scale(0.1 -0.1)">
       <use xlink:href="#DejaVuSans-48"/>
       <use x="63.623047" xlink:href="#DejaVuSans-46"/>
       <use x="95.410156" xlink:href="#DejaVuSans-48"/>
      </g>
     </g>
    </g>
    <g id="ytick_4">
     <g id="line2d_11">
      <g>
       <use style="stroke:#000000;stroke-width:0.8;" x="180" xlink:href="#md43fbab936" y="594.550237"/>
      </g>
     </g>
     <g id="text_11">
      <!-- 0.1 -->
      <g transform="translate(157.096875 598.349456)scale(0.1 -0.1)">
       <use xlink:href="#DejaVuSans-48"/>
       <use x="63.623047" xlink:href="#DejaVuSans-46"/>
       <use x="95.410156" xlink:href="#DejaVuSans-49"/>
      </g>
     </g>
    </g>
    <g id="ytick_5">
     <g id="line2d_12">
      <g>
       <use style="stroke:#000000;stroke-width:0.8;" x="180" xlink:href="#md43fbab936" y="372.228349"/>
      </g>
     </g>
     <g id="text_12">
      <!-- 0.2 -->
      <g transform="translate(157.096875 376.027568)scale(0.1 -0.1)">
       <use xlink:href="#DejaVuSans-48"/>
       <use x="63.623047" xlink:href="#DejaVuSans-46"/>
       <use x="95.410156" xlink:href="#DejaVuSans-50"/>
      </g>
     </g>
    </g>
   </g>
   <g id="line2d_13">
    <defs>
     <path d="M 0 9 
C 2.386828 9 4.676219 8.051703 6.363961 6.363961 
C 8.051703 4.676219 9 2.386828 9 0 
C 9 -2.386828 8.051703 -4.676219 6.363961 -6.363961 
C 4.676219 -8.051703 2.386828 -9 0 -9 
C -2.386828 -9 -4.676219 -8.051703 -6.363961 -6.363961 
C -8.051703 -4.676219 -9 -2.386828 -9 0 
C -9 2.386828 -8.051703 4.676219 -6.363961 6.363961 
C -4.676219 8.051703 -2.386828 9 0 9 
z
" id="md93aa087fc" style="stroke:#000000;"/>
    </defs>
    <g clip-path="url(#pf15c239f7f)">
     <use style="fill:#9e0142;stroke:#000000;" x="1245.272727" xlink:href="#md93aa087fc" y="846.861624"/>
    </g>
   </g>
   <g id="line2d_14">
    <g clip-path="url(#pf15c239f7f)">
     <use style="fill:#9e0142;stroke:#000000;" x="1244.467184" xlink:href="#md93aa087fc" y="846.984505"/>
    </g>
   </g>
   <g id="line2d_15">
    <g clip-path="url(#pf15c239f7f)">
     <use style="fill:#9e0142;stroke:#000000;" x="1228.658139" xlink:href="#md93aa087fc" y="841.895232"/>
    </g>
   </g>
   <g id="line2d_16">
    <defs>
     <path d="M 0 9 
C 2.386828 9 4.676219 8.051703 6.363961 6.363961 
C 8.051703 4.676219 9 2.386828 9 0 
C 9 -2.386828 8.051703 -4.676219 6.363961 -6.363961 
C 4.676219 -8.051703 2.386828 -9 0 -9 
C -2.386828 -9 -4.676219 -8.051703 -6.363961 -6.363961 
C -8.051703 -4.676219 -9 -2.386828 -9 0 
C -9 2.386828 -8.051703 4.676219 -6.363961 6.363961 
C -4.676219 8.051703 -2.386828 9 0 9 
z
" id="mf41dee0398" style="stroke:#000000;"/>
    </defs>
    <g clip-path="url(#pf15c239f7f)">
     <use style="fill:#f98e52;stroke:#000000;" x="1069.560958" xlink:href="#mf41dee0398" y="752.785032"/>
    </g>
   </g>
   <g id="line2d_17">
    <defs>
     <path d="M 0 3 
C 0.795609 3 1.55874 2.683901 2.12132 2.12132 
C 2.683901 1.55874 3 0.795609 3 0 
C 3 -0.795609 2.683901 -1.55874 2.12132 -2.12132 
C 1.55874 -2.683901 0.795609 -3 0 -3 
C -0.795609 -3 -1.55874 -2.683901 -2.12132 -2.12132 
C -2.683901 -1.55874 -3 -0.795609 -3 0 
C -3 0.795609 -2.683901 1.55874 -2.12132 2.12132 
C -1.55874 2.683901 -0.795609 3 0 3 
z
" id="m1058e4cd95" style="stroke:#000000;"/>
    </defs>
    <g clip-path="url(#pf15c239f7f)">
     <use style="stroke:#000000;" x="472.268645" xlink:href="#m1058e4cd95" y="398.53796"/>
    </g>
   </g>
   <g id="line2d_18">
    <g clip-path="url(#pf15c239f7f)">
     <use style="fill:#f98e52;stroke:#000000;" x="1061.944783" xlink:href="#mf41dee0398" y="752.288706"/>
    </g>
   </g>
   <g id="line2d_19">
    <defs>
     <path d="M 0 9 
C 2.386828 9 4.676219 8.051703 6.363961 6.363961 
C 8.051703 4.676219 9 2.386828 9 0 
C 9 -2.386828 8.051703 -4.676219 6.363961 -6.363961 
C 4.676219 -8.051703 2.386828 -9 0 -9 
C -2.386828 -9 -4.676219 -8.051703 -6.363961 -6.363961 
C -8.051703 -4.676219 -9 -2.386828 -9 0 
C -9 2.386828 -8.051703 4.676219 -6.363961 6.363961 
C -4.676219 8.051703 -2.386828 9 0 9 
z
" id="m4d926fae5a" style="stroke:#000000;"/>
    </defs>
    <g clip-path="url(#pf15c239f7f)">
     <use style="fill:#ffffbe;stroke:#000000;" x="262.801796" xlink:href="#m4d926fae5a" y="225.940109"/>
    </g>
   </g>
   <g id="line2d_20">
    <g clip-path="url(#pf15c239f7f)">
     <use style="stroke:#000000;" x="471.434133" xlink:href="#m1058e4cd95" y="399.414221"/>
    </g>
   </g>
   <g id="line2d_21">
    <g clip-path="url(#pf15c239f7f)">
     <use style="fill:#ffffbe;stroke:#000000;" x="262.27559" xlink:href="#m4d926fae5a" y="232.958937"/>
    </g>
   </g>
   <g id="line2d_22">
    <g clip-path="url(#pf15c239f7f)">
     <use style="fill:#f98e52;stroke:#000000;" x="1068.369483" xlink:href="#mf41dee0398" y="752.230228"/>
    </g>
   </g>
   <g id="line2d_23">
    <g clip-path="url(#pf15c239f7f)">
     <use style="fill:#9e0142;stroke:#000000;" x="1238.826437" xlink:href="#md93aa087fc" y="841.866778"/>
    </g>
   </g>
   <g id="line2d_24">
    <g clip-path="url(#pf15c239f7f)">
     <use style="fill:#f98e52;stroke:#000000;" x="1064.20947" xlink:href="#mf41dee0398" y="751.785344"/>
    </g>
   </g>
   <g id="line2d_25">
    <g clip-path="url(#pf15c239f7f)">
     <use style="fill:#9e0142;stroke:#000000;" x="1225.725003" xlink:href="#md93aa087fc" y="841.576626"/>
    </g>
   </g>
   <g id="line2d_26">
    <g clip-path="url(#pf15c239f7f)">
     <use style="stroke:#000000;" x="681.71942" xlink:href="#m1058e4cd95" y="1231.2"/>
    </g>
   </g>
   <g id="line2d_27">
    <g clip-path="url(#pf15c239f7f)">
     <use style="fill:#9e0142;stroke:#000000;" x="1227.415966" xlink:href="#md93aa087fc" y="841.637045"/>
    </g>
   </g>
   <g id="line2d_28">
    <defs>
     <path d="M 0 9 
C 2.386828 9 4.676219 8.051703 6.363961 6.363961 
C 8.051703 4.676219 9 2.386828 9 0 
C 9 -2.386828 8.051703 -4.676219 6.363961 -6.363961 
C 4.676219 -8.051703 2.386828 -9 0 -9 
C -2.386828 -9 -4.676219 -8.051703 -6.363961 -6.363961 
C -8.051703 -4.676219 -9 -2.386828 -9 0 
C -9 2.386828 -8.051703 4.676219 -6.363961 6.363961 
C -4.676219 8.051703 -2.386828 9 0 9 
z
" id="mf29173df4a" style="stroke:#000000;"/>
    </defs>
    <g clip-path="url(#pf15c239f7f)">
     <use style="fill:#86cfa5;stroke:#000000;" x="999.674775" xlink:href="#mf29173df4a" y="653.443783"/>
    </g>
   </g>
   <g id="line2d_29">
    <g clip-path="url(#pf15c239f7f)">
     <use style="fill:#86cfa5;stroke:#000000;" x="1001.296594" xlink:href="#mf29173df4a" y="654.104701"/>
    </g>
   </g>
   <g id="line2d_30">
    <g clip-path="url(#pf15c239f7f)">
     <use style="stroke:#000000;" x="1141.117767" xlink:href="#m1058e4cd95" y="892.154727"/>
    </g>
   </g>
   <g id="line2d_31">
    <g clip-path="url(#pf15c239f7f)">
     <use style="fill:#9e0142;stroke:#000000;" x="1223.463414" xlink:href="#md93aa087fc" y="841.566125"/>
    </g>
   </g>
   <g id="line2d_32">
    <g clip-path="url(#pf15c239f7f)">
     <use style="stroke:#000000;" x="700.784522" xlink:href="#m1058e4cd95" y="1220.363414"/>
    </g>
   </g>
   <g id="line2d_33">
    <g clip-path="url(#pf15c239f7f)">
     <use style="fill:#9e0142;stroke:#000000;" x="1226.793975" xlink:href="#md93aa087fc" y="841.812658"/>
    </g>
   </g>
   <g id="line2d_34">
    <g clip-path="url(#pf15c239f7f)">
     <use style="fill:#9e0142;stroke:#000000;" x="1236.483792" xlink:href="#md93aa087fc" y="841.717782"/>
    </g>
   </g>
   <g id="line2d_35">
    <g clip-path="url(#pf15c239f7f)">
     <use style="fill:#86cfa5;stroke:#000000;" x="996.041288" xlink:href="#mf29173df4a" y="654.433259"/>
    </g>
   </g>
   <g id="line2d_36">
    <g clip-path="url(#pf15c239f7f)">
     <use style="fill:#f98e52;stroke:#000000;" x="1057.408505" xlink:href="#mf41dee0398" y="751.707367"/>
    </g>
   </g>
   <g id="line2d_37">
    <g clip-path="url(#pf15c239f7f)">
     <use style="fill:#86cfa5;stroke:#000000;" x="1008.992093" xlink:href="#mf29173df4a" y="653.233627"/>
    </g>
   </g>
   <g id="line2d_38">
    <g clip-path="url(#pf15c239f7f)">
     <use style="fill:#86cfa5;stroke:#000000;" x="997.625949" xlink:href="#mf29173df4a" y="655.507352"/>
    </g>
   </g>
   <g id="line2d_39">
    <g clip-path="url(#pf15c239f7f)">
     <use style="fill:#f98e52;stroke:#000000;" x="1057.339982" xlink:href="#mf41dee0398" y="752.229912"/>
    </g>
   </g>
   <g id="line2d_40">
    <g clip-path="url(#pf15c239f7f)">
     <use style="fill:#9e0142;stroke:#000000;" x="1237.753485" xlink:href="#md93aa087fc" y="841.503055"/>
    </g>
   </g>
   <g id="line2d_41">
    <g clip-path="url(#pf15c239f7f)">
     <use style="fill:#9e0142;stroke:#000000;" x="1222.35049" xlink:href="#md93aa087fc" y="841.585567"/>
    </g>
   </g>
   <g id="line2d_42">
    <g clip-path="url(#pf15c239f7f)">
     <use style="fill:#9e0142;stroke:#000000;" x="1236.041385" xlink:href="#md93aa087fc" y="841.435604"/>
    </g>
   </g>
   <g id="line2d_43">
    <g clip-path="url(#pf15c239f7f)">
     <use style="fill:#9e0142;stroke:#000000;" x="1228.878252" xlink:href="#md93aa087fc" y="841.690755"/>
    </g>
   </g>
   <g id="line2d_44">
    <g clip-path="url(#pf15c239f7f)">
     <use style="stroke:#000000;" x="829.024463" xlink:href="#m1058e4cd95" y="571.368638"/>
    </g>
   </g>
   <g id="line2d_45">
    <g clip-path="url(#pf15c239f7f)">
     <use style="stroke:#000000;" x="760.724578" xlink:href="#m1058e4cd95" y="586.212179"/>
    </g>
   </g>
   <g id="line2d_46">
    <g clip-path="url(#pf15c239f7f)">
     <use style="fill:#9e0142;stroke:#000000;" x="1223.511338" xlink:href="#md93aa087fc" y="841.647268"/>
    </g>
   </g>
   <g id="line2d_47">
    <g clip-path="url(#pf15c239f7f)">
     <use style="stroke:#000000;" x="1092.930083" xlink:href="#m1058e4cd95" y="782.499931"/>
    </g>
   </g>
   <g id="line2d_48">
    <g clip-path="url(#pf15c239f7f)">
     <use style="fill:#f98e52;stroke:#000000;" x="1060.143673" xlink:href="#mf41dee0398" y="752.415788"/>
    </g>
   </g>
   <g id="line2d_49">
    <g clip-path="url(#pf15c239f7f)">
     <use style="fill:#9e0142;stroke:#000000;" x="1233.429906" xlink:href="#md93aa087fc" y="841.513586"/>
    </g>
   </g>
   <g id="line2d_50">
    <g clip-path="url(#pf15c239f7f)">
     <use style="fill:#86cfa5;stroke:#000000;" x="1008.268727" xlink:href="#mf29173df4a" y="654.393288"/>
    </g>
   </g>
   <g id="line2d_51">
    <g clip-path="url(#pf15c239f7f)">
     <use style="fill:#9e0142;stroke:#000000;" x="1237.208969" xlink:href="#md93aa087fc" y="841.879841"/>
    </g>
   </g>
   <g id="line2d_52">
    <g clip-path="url(#pf15c239f7f)">
     <use style="stroke:#000000;" x="818.19295" xlink:href="#m1058e4cd95" y="1056.796545"/>
    </g>
   </g>
   <g id="line2d_53">
    <g clip-path="url(#pf15c239f7f)">
     <use style="fill:#9e0142;stroke:#000000;" x="1221.452233" xlink:href="#md93aa087fc" y="841.769863"/>
    </g>
   </g>
   <g id="line2d_54">
    <g clip-path="url(#pf15c239f7f)">
     <use style="fill:#9e0142;stroke:#000000;" x="1227.943234" xlink:href="#md93aa087fc" y="841.465938"/>
    </g>
   </g>
   <g id="line2d_55">
    <g clip-path="url(#pf15c239f7f)">
     <use style="fill:#9e0142;stroke:#000000;" x="1221.830581" xlink:href="#md93aa087fc" y="841.835465"/>
    </g>
   </g>
   <g id="line2d_56">
    <g clip-path="url(#pf15c239f7f)">
     <use style="fill:#9e0142;stroke:#000000;" x="1221.615599" xlink:href="#md93aa087fc" y="841.821821"/>
    </g>
   </g>
   <g id="line2d_57">
    <g clip-path="url(#pf15c239f7f)">
     <use style="stroke:#000000;" x="593.69121" xlink:href="#m1058e4cd95" y="479.190655"/>
    </g>
   </g>
   <g id="line2d_58">
    <g clip-path="url(#pf15c239f7f)">
     <use style="fill:#ffffbe;stroke:#000000;" x="262.23407" xlink:href="#m4d926fae5a" y="227.144893"/>
    </g>
   </g>
   <g id="line2d_59">
    <g clip-path="url(#pf15c239f7f)">
     <use style="fill:#ffffbe;stroke:#000000;" x="262.920295" xlink:href="#m4d926fae5a" y="225.456271"/>
    </g>
   </g>
   <g id="line2d_60">
    <g clip-path="url(#pf15c239f7f)">
     <use style="fill:#86cfa5;stroke:#000000;" x="998.03424" xlink:href="#mf29173df4a" y="652.582608"/>
    </g>
   </g>
   <g id="line2d_61">
    <g clip-path="url(#pf15c239f7f)">
     <use style="fill:#9e0142;stroke:#000000;" x="1232.620202" xlink:href="#md93aa087fc" y="841.632148"/>
    </g>
   </g>
   <g id="line2d_62">
    <g clip-path="url(#pf15c239f7f)">
     <use style="fill:#9e0142;stroke:#000000;" x="1233.899006" xlink:href="#md93aa087fc" y="841.568228"/>
    </g>
   </g>
   <g id="line2d_63">
    <g clip-path="url(#pf15c239f7f)">
     <use style="stroke:#000000;" x="829.528034" xlink:href="#m1058e4cd95" y="573.547377"/>
    </g>
   </g>
   <g id="line2d_64">
    <g clip-path="url(#pf15c239f7f)">
     <use style="fill:#86cfa5;stroke:#000000;" x="1008.385368" xlink:href="#mf29173df4a" y="655.181023"/>
    </g>
   </g>
   <g id="line2d_65">
    <g clip-path="url(#pf15c239f7f)">
     <use style="fill:#86cfa5;stroke:#000000;" x="1002.864142" xlink:href="#mf29173df4a" y="652.954358"/>
    </g>
   </g>
   <g id="line2d_66">
    <g clip-path="url(#pf15c239f7f)">
     <use style="stroke:#000000;" x="1095.977539" xlink:href="#m1058e4cd95" y="782.718326"/>
    </g>
   </g>
   <g id="line2d_67">
    <g clip-path="url(#pf15c239f7f)">
     <use style="fill:#ffffbe;stroke:#000000;" x="262.922417" xlink:href="#m4d926fae5a" y="232.944758"/>
    </g>
   </g>
   <g id="line2d_68">
    <g clip-path="url(#pf15c239f7f)">
     <use style="fill:#9e0142;stroke:#000000;" x="1227.500846" xlink:href="#md93aa087fc" y="841.656519"/>
    </g>
   </g>
   <g id="line2d_69">
    <g clip-path="url(#pf15c239f7f)">
     <use style="fill:#9e0142;stroke:#000000;" x="1237.597514" xlink:href="#md93aa087fc" y="841.744104"/>
    </g>
   </g>
   <g id="line2d_70">
    <g clip-path="url(#pf15c239f7f)">
     <use style="fill:#9e0142;stroke:#000000;" x="1229.034094" xlink:href="#md93aa087fc" y="841.658042"/>
    </g>
   </g>
   <g id="line2d_71">
    <g clip-path="url(#pf15c239f7f)">
     <use style="fill:#9e0142;stroke:#000000;" x="1226.919736" xlink:href="#md93aa087fc" y="841.910723"/>
    </g>
   </g>
   <g id="line2d_72">
    <g clip-path="url(#pf15c239f7f)">
     <use style="stroke:#000000;" x="471.31816" xlink:href="#m1058e4cd95" y="396.922601"/>
    </g>
   </g>
   <g id="line2d_73">
    <g clip-path="url(#pf15c239f7f)">
     <use style="fill:#9e0142;stroke:#000000;" x="1205.769106" xlink:href="#md93aa087fc" y="847.777014"/>
    </g>
   </g>
   <g id="line2d_74">
    <g clip-path="url(#pf15c239f7f)">
     <use style="fill:#9e0142;stroke:#000000;" x="1234.535481" xlink:href="#md93aa087fc" y="841.627954"/>
    </g>
   </g>
   <g id="line2d_75">
    <g clip-path="url(#pf15c239f7f)">
     <use style="fill:#9e0142;stroke:#000000;" x="1233.015566" xlink:href="#md93aa087fc" y="841.53144"/>
    </g>
   </g>
   <g id="line2d_76">
    <g clip-path="url(#pf15c239f7f)">
     <use style="fill:#9e0142;stroke:#000000;" x="1230.584924" xlink:href="#md93aa087fc" y="841.899778"/>
    </g>
   </g>
   <g id="line2d_77">
    <g clip-path="url(#pf15c239f7f)">
     <use style="stroke:#000000;" x="889.012111" xlink:href="#m1058e4cd95" y="996.634476"/>
    </g>
   </g>
   <g id="line2d_78">
    <g clip-path="url(#pf15c239f7f)">
     <use style="stroke:#000000;" x="920.237974" xlink:href="#m1058e4cd95" y="1051.644907"/>
    </g>
   </g>
   <g id="line2d_79">
    <g clip-path="url(#pf15c239f7f)">
     <use style="fill:#9e0142;stroke:#000000;" x="1228.750655" xlink:href="#md93aa087fc" y="841.769086"/>
    </g>
   </g>
   <g id="line2d_80">
    <g clip-path="url(#pf15c239f7f)">
     <use style="fill:#9e0142;stroke:#000000;" x="1234.007425" xlink:href="#md93aa087fc" y="841.555194"/>
    </g>
   </g>
   <g id="line2d_81">
    <g clip-path="url(#pf15c239f7f)">
     <use style="fill:#ffffbe;stroke:#000000;" x="230.727273" xlink:href="#m4d926fae5a" y="231.999494"/>
    </g>
   </g>
   <g id="line2d_82">
    <g clip-path="url(#pf15c239f7f)">
     <use style="fill:#9e0142;stroke:#000000;" x="1234.762284" xlink:href="#md93aa087fc" y="841.512033"/>
    </g>
   </g>
   <g id="line2d_83">
    <g clip-path="url(#pf15c239f7f)">
     <use style="stroke:#000000;" x="653.401653" xlink:href="#m1058e4cd95" y="770.276285"/>
    </g>
   </g>
   <g id="line2d_84">
    <g clip-path="url(#pf15c239f7f)">
     <use style="fill:#ffffbe;stroke:#000000;" x="262.575986" xlink:href="#m4d926fae5a" y="228.092869"/>
    </g>
   </g>
   <g id="line2d_85">
    <g clip-path="url(#pf15c239f7f)">
     <use style="fill:#9e0142;stroke:#000000;" x="1221.164257" xlink:href="#md93aa087fc" y="841.442075"/>
    </g>
   </g>
   <g id="line2d_86">
    <g clip-path="url(#pf15c239f7f)">
     <use style="stroke:#000000;" x="723.699199" xlink:href="#m1058e4cd95" y="968.746826"/>
    </g>
   </g>
   <g id="line2d_87">
    <g clip-path="url(#pf15c239f7f)">
     <use style="fill:#9e0142;stroke:#000000;" x="1235.064391" xlink:href="#md93aa087fc" y="841.471062"/>
    </g>
   </g>
   <g id="line2d_88">
    <g clip-path="url(#pf15c239f7f)">
     <use style="fill:#9e0142;stroke:#000000;" x="1235.883846" xlink:href="#md93aa087fc" y="841.617082"/>
    </g>
   </g>
   <g id="line2d_89">
    <g clip-path="url(#pf15c239f7f)">
     <use style="fill:#ffffbe;stroke:#000000;" x="262.48196" xlink:href="#m4d926fae5a" y="232.260951"/>
    </g>
   </g>
   <g id="line2d_90">
    <g clip-path="url(#pf15c239f7f)">
     <use style="stroke:#000000;" x="898.943944" xlink:href="#m1058e4cd95" y="1082.217931"/>
    </g>
   </g>
   <g id="line2d_91">
    <g clip-path="url(#pf15c239f7f)">
     <use style="fill:#9e0142;stroke:#000000;" x="1236.740091" xlink:href="#md93aa087fc" y="841.669399"/>
    </g>
   </g>
   <g id="line2d_92">
    <g clip-path="url(#pf15c239f7f)">
     <use style="fill:#ffffbe;stroke:#000000;" x="262.667578" xlink:href="#m4d926fae5a" y="223.2"/>
    </g>
   </g>
   <g id="line2d_93">
    <g clip-path="url(#pf15c239f7f)">
     <use style="fill:#9e0142;stroke:#000000;" x="1237.74776" xlink:href="#md93aa087fc" y="846.965432"/>
    </g>
   </g>
   <g id="line2d_94">
    <g clip-path="url(#pf15c239f7f)">
     <use style="stroke:#000000;" x="1000.825421" xlink:href="#m1058e4cd95" y="1013.203539"/>
    </g>
   </g>
   <g id="line2d_95">
    <g clip-path="url(#pf15c239f7f)">
     <use style="fill:#9e0142;stroke:#000000;" x="1228.948054" xlink:href="#md93aa087fc" y="841.494525"/>
    </g>
   </g>
   <g id="line2d_96">
    <g clip-path="url(#pf15c239f7f)">
     <use style="fill:#86cfa5;stroke:#000000;" x="1001.877232" xlink:href="#mf29173df4a" y="653.242789"/>
    </g>
   </g>
   <g id="line2d_97">
    <g clip-path="url(#pf15c239f7f)">
     <use style="fill:#86cfa5;stroke:#000000;" x="995.990284" xlink:href="#mf29173df4a" y="652.910743"/>
    </g>
   </g>
   <g id="line2d_98">
    <g clip-path="url(#pf15c239f7f)">
     <use style="fill:#9e0142;stroke:#000000;" x="1224.141327" xlink:href="#md93aa087fc" y="841.684929"/>
    </g>
   </g>
   <g id="line2d_99">
    <g clip-path="url(#pf15c239f7f)">
     <use style="fill:#9e0142;stroke:#000000;" x="1227.163462" xlink:href="#md93aa087fc" y="841.558419"/>
    </g>
   </g>
   <g id="line2d_100">
    <g clip-path="url(#pf15c239f7f)">
     <use style="stroke:#000000;" x="618.302955" xlink:href="#m1058e4cd95" y="996.252874"/>
    </g>
   </g>
   <g id="line2d_101">
    <g clip-path="url(#pf15c239f7f)">
     <use style="fill:#9e0142;stroke:#000000;" x="1224.680814" xlink:href="#md93aa087fc" y="841.910107"/>
    </g>
   </g>
   <g id="line2d_102">
    <g clip-path="url(#pf15c239f7f)">
     <use style="fill:#f98e52;stroke:#000000;" x="1057.738459" xlink:href="#mf41dee0398" y="752.535856"/>
    </g>
   </g>
   <g id="patch_3">
    <path d="M 180 1281.6 
L 180 172.8 
" style="fill:none;stroke:#000000;stroke-linecap:square;stroke-linejoin:miter;stroke-width:0.8;"/>
   </g>
   <g id="patch_4">
    <path d="M 1296 1281.6 
L 1296 172.8 
" style="fill:none;stroke:#000000;stroke-linecap:square;stroke-linejoin:miter;stroke-width:0.8;"/>
   </g>
   <g id="patch_5">
    <path d="M 180 1281.6 
L 1296 1281.6 
" style="fill:none;stroke:#000000;stroke-linecap:square;stroke-linejoin:miter;stroke-width:0.8;"/>
   </g>
   <g id="patch_6">
    <path d="M 180 172.8 
L 1296 172.8 
" style="fill:none;stroke:#000000;stroke-linecap:square;stroke-linejoin:miter;stroke-width:0.8;"/>
   </g>
  </g>
 </g>
 <defs>
  <clipPath id="pf15c239f7f">
   <rect height="1108.8" width="1116" x="180" y="172.8"/>
  </clipPath>
 </defs>
</svg>
