<?xml version="1.0" encoding="utf-8" standalone="no"?>
<!DOCTYPE svg PUBLIC "-//W3C//DTD SVG 1.1//EN"
  "http://www.w3.org/Graphics/SVG/1.1/DTD/svg11.dtd">
<!-- Created with matplotlib (https://matplotlib.org/) -->
<svg height="1440pt" version="1.1" viewBox="0 0 1440 1440" width="1440pt" xmlns="http://www.w3.org/2000/svg" xmlns:xlink="http://www.w3.org/1999/xlink">
 <defs>
  <style type="text/css">
*{stroke-linecap:butt;stroke-linejoin:round;}
  </style>
 </defs>
 <g id="figure_1">
  <g id="patch_1">
   <path d="M 0 1440 
L 1440 1440 
L 1440 0 
L 0 0 
z
" style="fill:#ffffff;"/>
  </g>
  <g id="axes_1">
   <g id="patch_2">
    <path d="M 180 1281.6 
L 1296 1281.6 
L 1296 172.8 
L 180 172.8 
z
" style="fill:#ffffff;"/>
   </g>
   <g id="matplotlib.axis_1">
    <g id="xtick_1">
     <g id="line2d_1">
      <defs>
       <path d="M 0 0 
L 0 3.5 
" id="m29a357579b" style="stroke:#000000;stroke-width:0.8;"/>
      </defs>
      <g>
       <use style="stroke:#000000;stroke-width:0.8;" x="281.536886" xlink:href="#m29a357579b" y="1281.6"/>
      </g>
     </g>
     <g id="text_1">
      <!-- −0.15 -->
      <defs>
       <path d="M 10.59375 35.5 
L 73.1875 35.5 
L 73.1875 27.203125 
L 10.59375 27.203125 
z
" id="DejaVuSans-8722"/>
       <path d="M 31.78125 66.40625 
Q 24.171875 66.40625 20.328125 58.90625 
Q 16.5 51.421875 16.5 36.375 
Q 16.5 21.390625 20.328125 13.890625 
Q 24.171875 6.390625 31.78125 6.390625 
Q 39.453125 6.390625 43.28125 13.890625 
Q 47.125 21.390625 47.125 36.375 
Q 47.125 51.421875 43.28125 58.90625 
Q 39.453125 66.40625 31.78125 66.40625 
z
M 31.78125 74.21875 
Q 44.046875 74.21875 50.515625 64.515625 
Q 56.984375 54.828125 56.984375 36.375 
Q 56.984375 17.96875 50.515625 8.265625 
Q 44.046875 -1.421875 31.78125 -1.421875 
Q 19.53125 -1.421875 13.0625 8.265625 
Q 6.59375 17.96875 6.59375 36.375 
Q 6.59375 54.828125 13.0625 64.515625 
Q 19.53125 74.21875 31.78125 74.21875 
z
" id="DejaVuSans-48"/>
       <path d="M 10.6875 12.40625 
L 21 12.40625 
L 21 0 
L 10.6875 0 
z
" id="DejaVuSans-46"/>
       <path d="M 12.40625 8.296875 
L 28.515625 8.296875 
L 28.515625 63.921875 
L 10.984375 60.40625 
L 10.984375 69.390625 
L 28.421875 72.90625 
L 38.28125 72.90625 
L 38.28125 8.296875 
L 54.390625 8.296875 
L 54.390625 0 
L 12.40625 0 
z
" id="DejaVuSans-49"/>
       <path d="M 10.796875 72.90625 
L 49.515625 72.90625 
L 49.515625 64.59375 
L 19.828125 64.59375 
L 19.828125 46.734375 
Q 21.96875 47.46875 24.109375 47.828125 
Q 26.265625 48.1875 28.421875 48.1875 
Q 40.625 48.1875 47.75 41.5 
Q 54.890625 34.8125 54.890625 23.390625 
Q 54.890625 11.625 47.5625 5.09375 
Q 40.234375 -1.421875 26.90625 -1.421875 
Q 22.3125 -1.421875 17.546875 -0.640625 
Q 12.796875 0.140625 7.71875 1.703125 
L 7.71875 11.625 
Q 12.109375 9.234375 16.796875 8.0625 
Q 21.484375 6.890625 26.703125 6.890625 
Q 35.15625 6.890625 40.078125 11.328125 
Q 45.015625 15.765625 45.015625 23.390625 
Q 45.015625 31 40.078125 35.4375 
Q 35.15625 39.890625 26.703125 39.890625 
Q 22.75 39.890625 18.8125 39.015625 
Q 14.890625 38.140625 10.796875 36.28125 
z
" id="DejaVuSans-53"/>
      </defs>
      <g transform="translate(266.21423 1296.198437)scale(0.1 -0.1)">
       <use xlink:href="#DejaVuSans-8722"/>
       <use x="83.789062" xlink:href="#DejaVuSans-48"/>
       <use x="147.412109" xlink:href="#DejaVuSans-46"/>
       <use x="179.199219" xlink:href="#DejaVuSans-49"/>
       <use x="242.822266" xlink:href="#DejaVuSans-53"/>
      </g>
     </g>
    </g>
    <g id="xtick_2">
     <g id="line2d_2">
      <g>
       <use style="stroke:#000000;stroke-width:0.8;" x="421.650958" xlink:href="#m29a357579b" y="1281.6"/>
      </g>
     </g>
     <g id="text_2">
      <!-- −0.10 -->
      <g transform="translate(406.328302 1296.198437)scale(0.1 -0.1)">
       <use xlink:href="#DejaVuSans-8722"/>
       <use x="83.789062" xlink:href="#DejaVuSans-48"/>
       <use x="147.412109" xlink:href="#DejaVuSans-46"/>
       <use x="179.199219" xlink:href="#DejaVuSans-49"/>
       <use x="242.822266" xlink:href="#DejaVuSans-48"/>
      </g>
     </g>
    </g>
    <g id="xtick_3">
     <g id="line2d_3">
      <g>
       <use style="stroke:#000000;stroke-width:0.8;" x="561.76503" xlink:href="#m29a357579b" y="1281.6"/>
      </g>
     </g>
     <g id="text_3">
      <!-- −0.05 -->
      <g transform="translate(546.442374 1296.198437)scale(0.1 -0.1)">
       <use xlink:href="#DejaVuSans-8722"/>
       <use x="83.789062" xlink:href="#DejaVuSans-48"/>
       <use x="147.412109" xlink:href="#DejaVuSans-46"/>
       <use x="179.199219" xlink:href="#DejaVuSans-48"/>
       <use x="242.822266" xlink:href="#DejaVuSans-53"/>
      </g>
     </g>
    </g>
    <g id="xtick_4">
     <g id="line2d_4">
      <g>
       <use style="stroke:#000000;stroke-width:0.8;" x="701.879102" xlink:href="#m29a357579b" y="1281.6"/>
      </g>
     </g>
     <g id="text_4">
      <!-- 0.00 -->
      <g transform="translate(690.74629 1296.198437)scale(0.1 -0.1)">
       <use xlink:href="#DejaVuSans-48"/>
       <use x="63.623047" xlink:href="#DejaVuSans-46"/>
       <use x="95.410156" xlink:href="#DejaVuSans-48"/>
       <use x="159.033203" xlink:href="#DejaVuSans-48"/>
      </g>
     </g>
    </g>
    <g id="xtick_5">
     <g id="line2d_5">
      <g>
       <use style="stroke:#000000;stroke-width:0.8;" x="841.993175" xlink:href="#m29a357579b" y="1281.6"/>
      </g>
     </g>
     <g id="text_5">
      <!-- 0.05 -->
      <g transform="translate(830.860362 1296.198437)scale(0.1 -0.1)">
       <use xlink:href="#DejaVuSans-48"/>
       <use x="63.623047" xlink:href="#DejaVuSans-46"/>
       <use x="95.410156" xlink:href="#DejaVuSans-48"/>
       <use x="159.033203" xlink:href="#DejaVuSans-53"/>
      </g>
     </g>
    </g>
    <g id="xtick_6">
     <g id="line2d_6">
      <g>
       <use style="stroke:#000000;stroke-width:0.8;" x="982.107247" xlink:href="#m29a357579b" y="1281.6"/>
      </g>
     </g>
     <g id="text_6">
      <!-- 0.10 -->
      <g transform="translate(970.974434 1296.198437)scale(0.1 -0.1)">
       <use xlink:href="#DejaVuSans-48"/>
       <use x="63.623047" xlink:href="#DejaVuSans-46"/>
       <use x="95.410156" xlink:href="#DejaVuSans-49"/>
       <use x="159.033203" xlink:href="#DejaVuSans-48"/>
      </g>
     </g>
    </g>
    <g id="xtick_7">
     <g id="line2d_7">
      <g>
       <use style="stroke:#000000;stroke-width:0.8;" x="1122.221319" xlink:href="#m29a357579b" y="1281.6"/>
      </g>
     </g>
     <g id="text_7">
      <!-- 0.15 -->
      <g transform="translate(1111.088506 1296.198437)scale(0.1 -0.1)">
       <use xlink:href="#DejaVuSans-48"/>
       <use x="63.623047" xlink:href="#DejaVuSans-46"/>
       <use x="95.410156" xlink:href="#DejaVuSans-49"/>
       <use x="159.033203" xlink:href="#DejaVuSans-53"/>
      </g>
     </g>
    </g>
    <g id="xtick_8">
     <g id="line2d_8">
      <g>
       <use style="stroke:#000000;stroke-width:0.8;" x="1262.335391" xlink:href="#m29a357579b" y="1281.6"/>
      </g>
     </g>
     <g id="text_8">
      <!-- 0.20 -->
      <defs>
       <path d="M 19.1875 8.296875 
L 53.609375 8.296875 
L 53.609375 0 
L 7.328125 0 
L 7.328125 8.296875 
Q 12.9375 14.109375 22.625 23.890625 
Q 32.328125 33.6875 34.8125 36.53125 
Q 39.546875 41.84375 41.421875 45.53125 
Q 43.3125 49.21875 43.3125 52.78125 
Q 43.3125 58.59375 39.234375 62.25 
Q 35.15625 65.921875 28.609375 65.921875 
Q 23.96875 65.921875 18.8125 64.3125 
Q 13.671875 62.703125 7.8125 59.421875 
L 7.8125 69.390625 
Q 13.765625 71.78125 18.9375 73 
Q 24.125 74.21875 28.421875 74.21875 
Q 39.75 74.21875 46.484375 68.546875 
Q 53.21875 62.890625 53.21875 53.421875 
Q 53.21875 48.921875 51.53125 44.890625 
Q 49.859375 40.875 45.40625 35.40625 
Q 44.1875 33.984375 37.640625 27.21875 
Q 31.109375 20.453125 19.1875 8.296875 
z
" id="DejaVuSans-50"/>
      </defs>
      <g transform="translate(1251.202579 1296.198437)scale(0.1 -0.1)">
       <use xlink:href="#DejaVuSans-48"/>
       <use x="63.623047" xlink:href="#DejaVuSans-46"/>
       <use x="95.410156" xlink:href="#DejaVuSans-50"/>
       <use x="159.033203" xlink:href="#DejaVuSans-48"/>
      </g>
     </g>
    </g>
   </g>
   <g id="matplotlib.axis_2">
    <g id="ytick_1">
     <g id="line2d_9">
      <defs>
       <path d="M 0 0 
L -3.5 0 
" id="mb48edbbb7c" style="stroke:#000000;stroke-width:0.8;"/>
      </defs>
      <g>
       <use style="stroke:#000000;stroke-width:0.8;" x="180" xlink:href="#mb48edbbb7c" y="1121.49793"/>
      </g>
     </g>
     <g id="text_9">
      <!-- −0.2 -->
      <g transform="translate(148.717187 1125.297149)scale(0.1 -0.1)">
       <use xlink:href="#DejaVuSans-8722"/>
       <use x="83.789062" xlink:href="#DejaVuSans-48"/>
       <use x="147.412109" xlink:href="#DejaVuSans-46"/>
       <use x="179.199219" xlink:href="#DejaVuSans-50"/>
      </g>
     </g>
    </g>
    <g id="ytick_2">
     <g id="line2d_10">
      <g>
       <use style="stroke:#000000;stroke-width:0.8;" x="180" xlink:href="#mb48edbbb7c" y="921.534242"/>
      </g>
     </g>
     <g id="text_10">
      <!-- −0.1 -->
      <g transform="translate(148.717187 925.333461)scale(0.1 -0.1)">
       <use xlink:href="#DejaVuSans-8722"/>
       <use x="83.789062" xlink:href="#DejaVuSans-48"/>
       <use x="147.412109" xlink:href="#DejaVuSans-46"/>
       <use x="179.199219" xlink:href="#DejaVuSans-49"/>
      </g>
     </g>
    </g>
    <g id="ytick_3">
     <g id="line2d_11">
      <g>
       <use style="stroke:#000000;stroke-width:0.8;" x="180" xlink:href="#mb48edbbb7c" y="721.570554"/>
      </g>
     </g>
     <g id="text_11">
      <!-- 0.0 -->
      <g transform="translate(157.096875 725.369773)scale(0.1 -0.1)">
       <use xlink:href="#DejaVuSans-48"/>
       <use x="63.623047" xlink:href="#DejaVuSans-46"/>
       <use x="95.410156" xlink:href="#DejaVuSans-48"/>
      </g>
     </g>
    </g>
    <g id="ytick_4">
     <g id="line2d_12">
      <g>
       <use style="stroke:#000000;stroke-width:0.8;" x="180" xlink:href="#mb48edbbb7c" y="521.606867"/>
      </g>
     </g>
     <g id="text_12">
      <!-- 0.1 -->
      <g transform="translate(157.096875 525.406085)scale(0.1 -0.1)">
       <use xlink:href="#DejaVuSans-48"/>
       <use x="63.623047" xlink:href="#DejaVuSans-46"/>
       <use x="95.410156" xlink:href="#DejaVuSans-49"/>
      </g>
     </g>
    </g>
    <g id="ytick_5">
     <g id="line2d_13">
      <g>
       <use style="stroke:#000000;stroke-width:0.8;" x="180" xlink:href="#mb48edbbb7c" y="321.643179"/>
      </g>
     </g>
     <g id="text_13">
      <!-- 0.2 -->
      <g transform="translate(157.096875 325.442398)scale(0.1 -0.1)">
       <use xlink:href="#DejaVuSans-48"/>
       <use x="63.623047" xlink:href="#DejaVuSans-46"/>
       <use x="95.410156" xlink:href="#DejaVuSans-50"/>
      </g>
     </g>
    </g>
   </g>
   <g id="line2d_14">
    <defs>
     <path d="M 0 9 
C 2.386828 9 4.676219 8.051703 6.363961 6.363961 
C 8.051703 4.676219 9 2.386828 9 0 
C 9 -2.386828 8.051703 -4.676219 6.363961 -6.363961 
C 4.676219 -8.051703 2.386828 -9 0 -9 
C -2.386828 -9 -4.676219 -8.051703 -6.363961 -6.363961 
C -8.051703 -4.676219 -9 -2.386828 -9 0 
C -9 2.386828 -8.051703 4.676219 -6.363961 6.363961 
C -4.676219 8.051703 -2.386828 9 0 9 
z
" id="mae6a1c97b9" style="stroke:#000000;"/>
    </defs>
    <g clip-path="url(#p3d57d82265)">
     <use style="fill:#9e0142;stroke:#000000;" x="1237.978477" xlink:href="#mae6a1c97b9" y="508.944511"/>
    </g>
   </g>
   <g id="line2d_15">
    <defs>
     <path d="M 0 9 
C 2.386828 9 4.676219 8.051703 6.363961 6.363961 
C 8.051703 4.676219 9 2.386828 9 0 
C 9 -2.386828 8.051703 -4.676219 6.363961 -6.363961 
C 4.676219 -8.051703 2.386828 -9 0 -9 
C -2.386828 -9 -4.676219 -8.051703 -6.363961 -6.363961 
C -8.051703 -4.676219 -9 -2.386828 -9 0 
C -9 2.386828 -8.051703 4.676219 -6.363961 6.363961 
C -4.676219 8.051703 -2.386828 9 0 9 
z
" id="m9d4649b485" style="stroke:#000000;"/>
    </defs>
    <g clip-path="url(#p3d57d82265)">
     <use style="fill:#ffffbe;stroke:#000000;" x="280.814601" xlink:href="#m9d4649b485" y="229.749761"/>
    </g>
   </g>
   <g id="line2d_16">
    <defs>
     <path d="M 0 3 
C 0.795609 3 1.55874 2.683901 2.12132 2.12132 
C 2.683901 1.55874 3 0.795609 3 0 
C 3 -0.795609 2.683901 -1.55874 2.12132 -2.12132 
C 1.55874 -2.683901 0.795609 -3 0 -3 
C -0.795609 -3 -1.55874 -2.683901 -2.12132 -2.12132 
C -2.683901 -1.55874 -3 -0.795609 -3 0 
C -3 0.795609 -2.683901 1.55874 -2.12132 2.12132 
C -1.55874 2.683901 -0.795609 3 0 3 
z
" id="me8d8f8b771" style="stroke:#000000;"/>
    </defs>
    <g clip-path="url(#p3d57d82265)">
     <use style="stroke:#000000;" x="764.848599" xlink:href="#me8d8f8b771" y="271.626349"/>
    </g>
   </g>
   <g id="line2d_17">
    <g clip-path="url(#p3d57d82265)">
     <use style="fill:#9e0142;stroke:#000000;" x="1243.044829" xlink:href="#mae6a1c97b9" y="508.772824"/>
    </g>
   </g>
   <g id="line2d_18">
    <g clip-path="url(#p3d57d82265)">
     <use style="fill:#ffffbe;stroke:#000000;" x="278.704308" xlink:href="#m9d4649b485" y="230.395138"/>
    </g>
   </g>
   <g id="line2d_19">
    <g clip-path="url(#p3d57d82265)">
     <use style="fill:#9e0142;stroke:#000000;" x="1245.272727" xlink:href="#mae6a1c97b9" y="510.807541"/>
    </g>
   </g>
   <g id="line2d_20">
    <g clip-path="url(#p3d57d82265)">
     <use style="fill:#9e0142;stroke:#000000;" x="1240.507933" xlink:href="#mae6a1c97b9" y="508.789754"/>
    </g>
   </g>
   <g id="line2d_21">
    <g clip-path="url(#p3d57d82265)">
     <use style="fill:#9e0142;stroke:#000000;" x="1242.557999" xlink:href="#mae6a1c97b9" y="510.094405"/>
    </g>
   </g>
   <g id="line2d_22">
    <g clip-path="url(#p3d57d82265)">
     <use style="fill:#9e0142;stroke:#000000;" x="1239.144454" xlink:href="#mae6a1c97b9" y="510.406423"/>
    </g>
   </g>
   <g id="line2d_23">
    <g clip-path="url(#p3d57d82265)">
     <use style="fill:#ffffbe;stroke:#000000;" x="278.557716" xlink:href="#m9d4649b485" y="223.2"/>
    </g>
   </g>
   <g id="line2d_24">
    <g clip-path="url(#p3d57d82265)">
     <use style="fill:#9e0142;stroke:#000000;" x="1238.958386" xlink:href="#mae6a1c97b9" y="510.310594"/>
    </g>
   </g>
   <g id="line2d_25">
    <g clip-path="url(#p3d57d82265)">
     <use style="stroke:#000000;" x="678.020973" xlink:href="#me8d8f8b771" y="1231.2"/>
    </g>
   </g>
   <g id="line2d_26">
    <g clip-path="url(#p3d57d82265)">
     <use style="fill:#ffffbe;stroke:#000000;" x="277.266263" xlink:href="#m9d4649b485" y="224.539336"/>
    </g>
   </g>
   <g id="line2d_27">
    <g clip-path="url(#p3d57d82265)">
     <use style="fill:#9e0142;stroke:#000000;" x="1245.209109" xlink:href="#mae6a1c97b9" y="511.531729"/>
    </g>
   </g>
   <g id="line2d_28">
    <g clip-path="url(#p3d57d82265)">
     <use style="fill:#ffffbe;stroke:#000000;" x="230.727273" xlink:href="#m9d4649b485" y="250.624243"/>
    </g>
   </g>
   <g id="line2d_29">
    <g clip-path="url(#p3d57d82265)">
     <use style="fill:#ffffbe;stroke:#000000;" x="233.714581" xlink:href="#m9d4649b485" y="252.338684"/>
    </g>
   </g>
   <g id="line2d_30">
    <g clip-path="url(#p3d57d82265)">
     <use style="fill:#ffffbe;stroke:#000000;" x="277.311985" xlink:href="#m9d4649b485" y="228.483161"/>
    </g>
   </g>
   <g id="line2d_31">
    <g clip-path="url(#p3d57d82265)">
     <use style="fill:#ffffbe;stroke:#000000;" x="281.928523" xlink:href="#m9d4649b485" y="224.484236"/>
    </g>
   </g>
   <g id="line2d_32">
    <g clip-path="url(#p3d57d82265)">
     <use style="fill:#ffffbe;stroke:#000000;" x="280.343966" xlink:href="#m9d4649b485" y="223.946545"/>
    </g>
   </g>
   <g id="line2d_33">
    <g clip-path="url(#p3d57d82265)">
     <use style="fill:#9e0142;stroke:#000000;" x="1240.813211" xlink:href="#mae6a1c97b9" y="507.581268"/>
    </g>
   </g>
   <g id="line2d_34">
    <g clip-path="url(#p3d57d82265)">
     <use style="fill:#9e0142;stroke:#000000;" x="1238.466259" xlink:href="#mae6a1c97b9" y="510.114101"/>
    </g>
   </g>
   <g id="line2d_35">
    <g clip-path="url(#p3d57d82265)">
     <use style="fill:#ffffbe;stroke:#000000;" x="275.167654" xlink:href="#m9d4649b485" y="224.542059"/>
    </g>
   </g>
   <g id="line2d_36">
    <g clip-path="url(#p3d57d82265)">
     <use style="fill:#9e0142;stroke:#000000;" x="1237.830833" xlink:href="#mae6a1c97b9" y="509.244101"/>
    </g>
   </g>
   <g id="line2d_37">
    <g clip-path="url(#p3d57d82265)">
     <use style="fill:#9e0142;stroke:#000000;" x="1242.268236" xlink:href="#mae6a1c97b9" y="509.228767"/>
    </g>
   </g>
   <g id="line2d_38">
    <g clip-path="url(#p3d57d82265)">
     <use style="fill:#9e0142;stroke:#000000;" x="1235.794671" xlink:href="#mae6a1c97b9" y="509.391395"/>
    </g>
   </g>
   <g id="line2d_39">
    <g clip-path="url(#p3d57d82265)">
     <use style="fill:#9e0142;stroke:#000000;" x="1240.576982" xlink:href="#mae6a1c97b9" y="509.384155"/>
    </g>
   </g>
   <g id="line2d_40">
    <g clip-path="url(#p3d57d82265)">
     <use style="fill:#9e0142;stroke:#000000;" x="1240.369145" xlink:href="#mae6a1c97b9" y="510.618102"/>
    </g>
   </g>
   <g id="line2d_41">
    <g clip-path="url(#p3d57d82265)">
     <use style="fill:#9e0142;stroke:#000000;" x="1238.285062" xlink:href="#mae6a1c97b9" y="508.936128"/>
    </g>
   </g>
   <g id="line2d_42">
    <g clip-path="url(#p3d57d82265)">
     <use style="fill:#ffffbe;stroke:#000000;" x="281.303971" xlink:href="#m9d4649b485" y="228.914173"/>
    </g>
   </g>
   <g id="line2d_43">
    <g clip-path="url(#p3d57d82265)">
     <use style="fill:#9e0142;stroke:#000000;" x="1244.152986" xlink:href="#mae6a1c97b9" y="508.488022"/>
    </g>
   </g>
   <g id="line2d_44">
    <g clip-path="url(#p3d57d82265)">
     <use style="fill:#9e0142;stroke:#000000;" x="1239.827176" xlink:href="#mae6a1c97b9" y="507.536507"/>
    </g>
   </g>
   <g id="line2d_45">
    <g clip-path="url(#p3d57d82265)">
     <use style="fill:#9e0142;stroke:#000000;" x="1236.533739" xlink:href="#mae6a1c97b9" y="510.097531"/>
    </g>
   </g>
   <g id="line2d_46">
    <g clip-path="url(#p3d57d82265)">
     <use style="fill:#9e0142;stroke:#000000;" x="1237.254148" xlink:href="#mae6a1c97b9" y="509.27857"/>
    </g>
   </g>
   <g id="patch_3">
    <path d="M 180 1281.6 
L 180 172.8 
" style="fill:none;stroke:#000000;stroke-linecap:square;stroke-linejoin:miter;stroke-width:0.8;"/>
   </g>
   <g id="patch_4">
    <path d="M 1296 1281.6 
L 1296 172.8 
" style="fill:none;stroke:#000000;stroke-linecap:square;stroke-linejoin:miter;stroke-width:0.8;"/>
   </g>
   <g id="patch_5">
    <path d="M 180 1281.6 
L 1296 1281.6 
" style="fill:none;stroke:#000000;stroke-linecap:square;stroke-linejoin:miter;stroke-width:0.8;"/>
   </g>
   <g id="patch_6">
    <path d="M 180 172.8 
L 1296 172.8 
" style="fill:none;stroke:#000000;stroke-linecap:square;stroke-linejoin:miter;stroke-width:0.8;"/>
   </g>
  </g>
 </g>
 <defs>
  <clipPath id="p3d57d82265">
   <rect height="1108.8" width="1116" x="180" y="172.8"/>
  </clipPath>
 </defs>
</svg>
