<?xml version="1.0" encoding="utf-8" standalone="no"?>
<!DOCTYPE svg PUBLIC "-//W3C//DTD SVG 1.1//EN"
  "http://www.w3.org/Graphics/SVG/1.1/DTD/svg11.dtd">
<!-- Created with matplotlib (https://matplotlib.org/) -->
<svg height="1440pt" version="1.1" viewBox="0 0 1440 1440" width="1440pt" xmlns="http://www.w3.org/2000/svg" xmlns:xlink="http://www.w3.org/1999/xlink">
 <defs>
  <style type="text/css">
*{stroke-linecap:butt;stroke-linejoin:round;}
  </style>
 </defs>
 <g id="figure_1">
  <g id="patch_1">
   <path d="M 0 1440 
L 1440 1440 
L 1440 0 
L 0 0 
z
" style="fill:#ffffff;"/>
  </g>
  <g id="axes_1">
   <g id="patch_2">
    <path d="M 180 1281.6 
L 1296 1281.6 
L 1296 172.8 
L 180 172.8 
z
" style="fill:#ffffff;"/>
   </g>
   <g id="matplotlib.axis_1">
    <g id="xtick_1">
     <g id="line2d_1">
      <defs>
       <path d="M 0 0 
L 0 3.5 
" id="m9db38ecbbc" style="stroke:#000000;stroke-width:0.8;"/>
      </defs>
      <g>
       <use style="stroke:#000000;stroke-width:0.8;" x="230.523998" xlink:href="#m9db38ecbbc" y="1281.6"/>
      </g>
     </g>
     <g id="text_1">
      <!-- −0.02 -->
      <defs>
       <path d="M 10.59375 35.5 
L 73.1875 35.5 
L 73.1875 27.203125 
L 10.59375 27.203125 
z
" id="DejaVuSans-8722"/>
       <path d="M 31.78125 66.40625 
Q 24.171875 66.40625 20.328125 58.90625 
Q 16.5 51.421875 16.5 36.375 
Q 16.5 21.390625 20.328125 13.890625 
Q 24.171875 6.390625 31.78125 6.390625 
Q 39.453125 6.390625 43.28125 13.890625 
Q 47.125 21.390625 47.125 36.375 
Q 47.125 51.421875 43.28125 58.90625 
Q 39.453125 66.40625 31.78125 66.40625 
z
M 31.78125 74.21875 
Q 44.046875 74.21875 50.515625 64.515625 
Q 56.984375 54.828125 56.984375 36.375 
Q 56.984375 17.96875 50.515625 8.265625 
Q 44.046875 -1.421875 31.78125 -1.421875 
Q 19.53125 -1.421875 13.0625 8.265625 
Q 6.59375 17.96875 6.59375 36.375 
Q 6.59375 54.828125 13.0625 64.515625 
Q 19.53125 74.21875 31.78125 74.21875 
z
" id="DejaVuSans-48"/>
       <path d="M 10.6875 12.40625 
L 21 12.40625 
L 21 0 
L 10.6875 0 
z
" id="DejaVuSans-46"/>
       <path d="M 19.1875 8.296875 
L 53.609375 8.296875 
L 53.609375 0 
L 7.328125 0 
L 7.328125 8.296875 
Q 12.9375 14.109375 22.625 23.890625 
Q 32.328125 33.6875 34.8125 36.53125 
Q 39.546875 41.84375 41.421875 45.53125 
Q 43.3125 49.21875 43.3125 52.78125 
Q 43.3125 58.59375 39.234375 62.25 
Q 35.15625 65.921875 28.609375 65.921875 
Q 23.96875 65.921875 18.8125 64.3125 
Q 13.671875 62.703125 7.8125 59.421875 
L 7.8125 69.390625 
Q 13.765625 71.78125 18.9375 73 
Q 24.125 74.21875 28.421875 74.21875 
Q 39.75 74.21875 46.484375 68.546875 
Q 53.21875 62.890625 53.21875 53.421875 
Q 53.21875 48.921875 51.53125 44.890625 
Q 49.859375 40.875 45.40625 35.40625 
Q 44.1875 33.984375 37.640625 27.21875 
Q 31.109375 20.453125 19.1875 8.296875 
z
" id="DejaVuSans-50"/>
      </defs>
      <g transform="translate(215.201341 1296.198437)scale(0.1 -0.1)">
       <use xlink:href="#DejaVuSans-8722"/>
       <use x="83.789062" xlink:href="#DejaVuSans-48"/>
       <use x="147.412109" xlink:href="#DejaVuSans-46"/>
       <use x="179.199219" xlink:href="#DejaVuSans-48"/>
       <use x="242.822266" xlink:href="#DejaVuSans-50"/>
      </g>
     </g>
    </g>
    <g id="xtick_2">
     <g id="line2d_2">
      <g>
       <use style="stroke:#000000;stroke-width:0.8;" x="370.51577" xlink:href="#m9db38ecbbc" y="1281.6"/>
      </g>
     </g>
     <g id="text_2">
      <!-- 0.00 -->
      <g transform="translate(359.382957 1296.198437)scale(0.1 -0.1)">
       <use xlink:href="#DejaVuSans-48"/>
       <use x="63.623047" xlink:href="#DejaVuSans-46"/>
       <use x="95.410156" xlink:href="#DejaVuSans-48"/>
       <use x="159.033203" xlink:href="#DejaVuSans-48"/>
      </g>
     </g>
    </g>
    <g id="xtick_3">
     <g id="line2d_3">
      <g>
       <use style="stroke:#000000;stroke-width:0.8;" x="510.507542" xlink:href="#m9db38ecbbc" y="1281.6"/>
      </g>
     </g>
     <g id="text_3">
      <!-- 0.02 -->
      <g transform="translate(499.374729 1296.198437)scale(0.1 -0.1)">
       <use xlink:href="#DejaVuSans-48"/>
       <use x="63.623047" xlink:href="#DejaVuSans-46"/>
       <use x="95.410156" xlink:href="#DejaVuSans-48"/>
       <use x="159.033203" xlink:href="#DejaVuSans-50"/>
      </g>
     </g>
    </g>
    <g id="xtick_4">
     <g id="line2d_4">
      <g>
       <use style="stroke:#000000;stroke-width:0.8;" x="650.499314" xlink:href="#m9db38ecbbc" y="1281.6"/>
      </g>
     </g>
     <g id="text_4">
      <!-- 0.04 -->
      <defs>
       <path d="M 37.796875 64.3125 
L 12.890625 25.390625 
L 37.796875 25.390625 
z
M 35.203125 72.90625 
L 47.609375 72.90625 
L 47.609375 25.390625 
L 58.015625 25.390625 
L 58.015625 17.1875 
L 47.609375 17.1875 
L 47.609375 0 
L 37.796875 0 
L 37.796875 17.1875 
L 4.890625 17.1875 
L 4.890625 26.703125 
z
" id="DejaVuSans-52"/>
      </defs>
      <g transform="translate(639.366501 1296.198437)scale(0.1 -0.1)">
       <use xlink:href="#DejaVuSans-48"/>
       <use x="63.623047" xlink:href="#DejaVuSans-46"/>
       <use x="95.410156" xlink:href="#DejaVuSans-48"/>
       <use x="159.033203" xlink:href="#DejaVuSans-52"/>
      </g>
     </g>
    </g>
    <g id="xtick_5">
     <g id="line2d_5">
      <g>
       <use style="stroke:#000000;stroke-width:0.8;" x="790.491086" xlink:href="#m9db38ecbbc" y="1281.6"/>
      </g>
     </g>
     <g id="text_5">
      <!-- 0.06 -->
      <defs>
       <path d="M 33.015625 40.375 
Q 26.375 40.375 22.484375 35.828125 
Q 18.609375 31.296875 18.609375 23.390625 
Q 18.609375 15.53125 22.484375 10.953125 
Q 26.375 6.390625 33.015625 6.390625 
Q 39.65625 6.390625 43.53125 10.953125 
Q 47.40625 15.53125 47.40625 23.390625 
Q 47.40625 31.296875 43.53125 35.828125 
Q 39.65625 40.375 33.015625 40.375 
z
M 52.59375 71.296875 
L 52.59375 62.3125 
Q 48.875 64.0625 45.09375 64.984375 
Q 41.3125 65.921875 37.59375 65.921875 
Q 27.828125 65.921875 22.671875 59.328125 
Q 17.53125 52.734375 16.796875 39.40625 
Q 19.671875 43.65625 24.015625 45.921875 
Q 28.375 48.1875 33.59375 48.1875 
Q 44.578125 48.1875 50.953125 41.515625 
Q 57.328125 34.859375 57.328125 23.390625 
Q 57.328125 12.15625 50.6875 5.359375 
Q 44.046875 -1.421875 33.015625 -1.421875 
Q 20.359375 -1.421875 13.671875 8.265625 
Q 6.984375 17.96875 6.984375 36.375 
Q 6.984375 53.65625 15.1875 63.9375 
Q 23.390625 74.21875 37.203125 74.21875 
Q 40.921875 74.21875 44.703125 73.484375 
Q 48.484375 72.75 52.59375 71.296875 
z
" id="DejaVuSans-54"/>
      </defs>
      <g transform="translate(779.358274 1296.198437)scale(0.1 -0.1)">
       <use xlink:href="#DejaVuSans-48"/>
       <use x="63.623047" xlink:href="#DejaVuSans-46"/>
       <use x="95.410156" xlink:href="#DejaVuSans-48"/>
       <use x="159.033203" xlink:href="#DejaVuSans-54"/>
      </g>
     </g>
    </g>
    <g id="xtick_6">
     <g id="line2d_6">
      <g>
       <use style="stroke:#000000;stroke-width:0.8;" x="930.482858" xlink:href="#m9db38ecbbc" y="1281.6"/>
      </g>
     </g>
     <g id="text_6">
      <!-- 0.08 -->
      <defs>
       <path d="M 31.78125 34.625 
Q 24.75 34.625 20.71875 30.859375 
Q 16.703125 27.09375 16.703125 20.515625 
Q 16.703125 13.921875 20.71875 10.15625 
Q 24.75 6.390625 31.78125 6.390625 
Q 38.8125 6.390625 42.859375 10.171875 
Q 46.921875 13.96875 46.921875 20.515625 
Q 46.921875 27.09375 42.890625 30.859375 
Q 38.875 34.625 31.78125 34.625 
z
M 21.921875 38.8125 
Q 15.578125 40.375 12.03125 44.71875 
Q 8.5 49.078125 8.5 55.328125 
Q 8.5 64.0625 14.71875 69.140625 
Q 20.953125 74.21875 31.78125 74.21875 
Q 42.671875 74.21875 48.875 69.140625 
Q 55.078125 64.0625 55.078125 55.328125 
Q 55.078125 49.078125 51.53125 44.71875 
Q 48 40.375 41.703125 38.8125 
Q 48.828125 37.15625 52.796875 32.3125 
Q 56.78125 27.484375 56.78125 20.515625 
Q 56.78125 9.90625 50.3125 4.234375 
Q 43.84375 -1.421875 31.78125 -1.421875 
Q 19.734375 -1.421875 13.25 4.234375 
Q 6.78125 9.90625 6.78125 20.515625 
Q 6.78125 27.484375 10.78125 32.3125 
Q 14.796875 37.15625 21.921875 38.8125 
z
M 18.3125 54.390625 
Q 18.3125 48.734375 21.84375 45.5625 
Q 25.390625 42.390625 31.78125 42.390625 
Q 38.140625 42.390625 41.71875 45.5625 
Q 45.3125 48.734375 45.3125 54.390625 
Q 45.3125 60.0625 41.71875 63.234375 
Q 38.140625 66.40625 31.78125 66.40625 
Q 25.390625 66.40625 21.84375 63.234375 
Q 18.3125 60.0625 18.3125 54.390625 
z
" id="DejaVuSans-56"/>
      </defs>
      <g transform="translate(919.350046 1296.198437)scale(0.1 -0.1)">
       <use xlink:href="#DejaVuSans-48"/>
       <use x="63.623047" xlink:href="#DejaVuSans-46"/>
       <use x="95.410156" xlink:href="#DejaVuSans-48"/>
       <use x="159.033203" xlink:href="#DejaVuSans-56"/>
      </g>
     </g>
    </g>
    <g id="xtick_7">
     <g id="line2d_7">
      <g>
       <use style="stroke:#000000;stroke-width:0.8;" x="1070.47463" xlink:href="#m9db38ecbbc" y="1281.6"/>
      </g>
     </g>
     <g id="text_7">
      <!-- 0.10 -->
      <defs>
       <path d="M 12.40625 8.296875 
L 28.515625 8.296875 
L 28.515625 63.921875 
L 10.984375 60.40625 
L 10.984375 69.390625 
L 28.421875 72.90625 
L 38.28125 72.90625 
L 38.28125 8.296875 
L 54.390625 8.296875 
L 54.390625 0 
L 12.40625 0 
z
" id="DejaVuSans-49"/>
      </defs>
      <g transform="translate(1059.341818 1296.198437)scale(0.1 -0.1)">
       <use xlink:href="#DejaVuSans-48"/>
       <use x="63.623047" xlink:href="#DejaVuSans-46"/>
       <use x="95.410156" xlink:href="#DejaVuSans-49"/>
       <use x="159.033203" xlink:href="#DejaVuSans-48"/>
      </g>
     </g>
    </g>
    <g id="xtick_8">
     <g id="line2d_8">
      <g>
       <use style="stroke:#000000;stroke-width:0.8;" x="1210.466402" xlink:href="#m9db38ecbbc" y="1281.6"/>
      </g>
     </g>
     <g id="text_8">
      <!-- 0.12 -->
      <g transform="translate(1199.33359 1296.198437)scale(0.1 -0.1)">
       <use xlink:href="#DejaVuSans-48"/>
       <use x="63.623047" xlink:href="#DejaVuSans-46"/>
       <use x="95.410156" xlink:href="#DejaVuSans-49"/>
       <use x="159.033203" xlink:href="#DejaVuSans-50"/>
      </g>
     </g>
    </g>
   </g>
   <g id="matplotlib.axis_2">
    <g id="ytick_1">
     <g id="line2d_9">
      <defs>
       <path d="M 0 0 
L -3.5 0 
" id="mf59c22b385" style="stroke:#000000;stroke-width:0.8;"/>
      </defs>
      <g>
       <use style="stroke:#000000;stroke-width:0.8;" x="180" xlink:href="#mf59c22b385" y="1200.744004"/>
      </g>
     </g>
     <g id="text_9">
      <!-- −0.20 -->
      <g transform="translate(142.354688 1204.543223)scale(0.1 -0.1)">
       <use xlink:href="#DejaVuSans-8722"/>
       <use x="83.789062" xlink:href="#DejaVuSans-48"/>
       <use x="147.412109" xlink:href="#DejaVuSans-46"/>
       <use x="179.199219" xlink:href="#DejaVuSans-50"/>
       <use x="242.822266" xlink:href="#DejaVuSans-48"/>
      </g>
     </g>
    </g>
    <g id="ytick_2">
     <g id="line2d_10">
      <g>
       <use style="stroke:#000000;stroke-width:0.8;" x="180" xlink:href="#mf59c22b385" y="1070.845189"/>
      </g>
     </g>
     <g id="text_10">
      <!-- −0.15 -->
      <defs>
       <path d="M 10.796875 72.90625 
L 49.515625 72.90625 
L 49.515625 64.59375 
L 19.828125 64.59375 
L 19.828125 46.734375 
Q 21.96875 47.46875 24.109375 47.828125 
Q 26.265625 48.1875 28.421875 48.1875 
Q 40.625 48.1875 47.75 41.5 
Q 54.890625 34.8125 54.890625 23.390625 
Q 54.890625 11.625 47.5625 5.09375 
Q 40.234375 -1.421875 26.90625 -1.421875 
Q 22.3125 -1.421875 17.546875 -0.640625 
Q 12.796875 0.140625 7.71875 1.703125 
L 7.71875 11.625 
Q 12.109375 9.234375 16.796875 8.0625 
Q 21.484375 6.890625 26.703125 6.890625 
Q 35.15625 6.890625 40.078125 11.328125 
Q 45.015625 15.765625 45.015625 23.390625 
Q 45.015625 31 40.078125 35.4375 
Q 35.15625 39.890625 26.703125 39.890625 
Q 22.75 39.890625 18.8125 39.015625 
Q 14.890625 38.140625 10.796875 36.28125 
z
" id="DejaVuSans-53"/>
      </defs>
      <g transform="translate(142.354688 1074.644408)scale(0.1 -0.1)">
       <use xlink:href="#DejaVuSans-8722"/>
       <use x="83.789062" xlink:href="#DejaVuSans-48"/>
       <use x="147.412109" xlink:href="#DejaVuSans-46"/>
       <use x="179.199219" xlink:href="#DejaVuSans-49"/>
       <use x="242.822266" xlink:href="#DejaVuSans-53"/>
      </g>
     </g>
    </g>
    <g id="ytick_3">
     <g id="line2d_11">
      <g>
       <use style="stroke:#000000;stroke-width:0.8;" x="180" xlink:href="#mf59c22b385" y="940.946375"/>
      </g>
     </g>
     <g id="text_11">
      <!-- −0.10 -->
      <g transform="translate(142.354688 944.745593)scale(0.1 -0.1)">
       <use xlink:href="#DejaVuSans-8722"/>
       <use x="83.789062" xlink:href="#DejaVuSans-48"/>
       <use x="147.412109" xlink:href="#DejaVuSans-46"/>
       <use x="179.199219" xlink:href="#DejaVuSans-49"/>
       <use x="242.822266" xlink:href="#DejaVuSans-48"/>
      </g>
     </g>
    </g>
    <g id="ytick_4">
     <g id="line2d_12">
      <g>
       <use style="stroke:#000000;stroke-width:0.8;" x="180" xlink:href="#mf59c22b385" y="811.04756"/>
      </g>
     </g>
     <g id="text_12">
      <!-- −0.05 -->
      <g transform="translate(142.354688 814.846779)scale(0.1 -0.1)">
       <use xlink:href="#DejaVuSans-8722"/>
       <use x="83.789062" xlink:href="#DejaVuSans-48"/>
       <use x="147.412109" xlink:href="#DejaVuSans-46"/>
       <use x="179.199219" xlink:href="#DejaVuSans-48"/>
       <use x="242.822266" xlink:href="#DejaVuSans-53"/>
      </g>
     </g>
    </g>
    <g id="ytick_5">
     <g id="line2d_13">
      <g>
       <use style="stroke:#000000;stroke-width:0.8;" x="180" xlink:href="#mf59c22b385" y="681.148745"/>
      </g>
     </g>
     <g id="text_13">
      <!-- 0.00 -->
      <g transform="translate(150.734375 684.947964)scale(0.1 -0.1)">
       <use xlink:href="#DejaVuSans-48"/>
       <use x="63.623047" xlink:href="#DejaVuSans-46"/>
       <use x="95.410156" xlink:href="#DejaVuSans-48"/>
       <use x="159.033203" xlink:href="#DejaVuSans-48"/>
      </g>
     </g>
    </g>
    <g id="ytick_6">
     <g id="line2d_14">
      <g>
       <use style="stroke:#000000;stroke-width:0.8;" x="180" xlink:href="#mf59c22b385" y="551.249931"/>
      </g>
     </g>
     <g id="text_14">
      <!-- 0.05 -->
      <g transform="translate(150.734375 555.04915)scale(0.1 -0.1)">
       <use xlink:href="#DejaVuSans-48"/>
       <use x="63.623047" xlink:href="#DejaVuSans-46"/>
       <use x="95.410156" xlink:href="#DejaVuSans-48"/>
       <use x="159.033203" xlink:href="#DejaVuSans-53"/>
      </g>
     </g>
    </g>
    <g id="ytick_7">
     <g id="line2d_15">
      <g>
       <use style="stroke:#000000;stroke-width:0.8;" x="180" xlink:href="#mf59c22b385" y="421.351116"/>
      </g>
     </g>
     <g id="text_15">
      <!-- 0.10 -->
      <g transform="translate(150.734375 425.150335)scale(0.1 -0.1)">
       <use xlink:href="#DejaVuSans-48"/>
       <use x="63.623047" xlink:href="#DejaVuSans-46"/>
       <use x="95.410156" xlink:href="#DejaVuSans-49"/>
       <use x="159.033203" xlink:href="#DejaVuSans-48"/>
      </g>
     </g>
    </g>
    <g id="ytick_8">
     <g id="line2d_16">
      <g>
       <use style="stroke:#000000;stroke-width:0.8;" x="180" xlink:href="#mf59c22b385" y="291.452302"/>
      </g>
     </g>
     <g id="text_16">
      <!-- 0.15 -->
      <g transform="translate(150.734375 295.25152)scale(0.1 -0.1)">
       <use xlink:href="#DejaVuSans-48"/>
       <use x="63.623047" xlink:href="#DejaVuSans-46"/>
       <use x="95.410156" xlink:href="#DejaVuSans-49"/>
       <use x="159.033203" xlink:href="#DejaVuSans-53"/>
      </g>
     </g>
    </g>
   </g>
   <g id="line2d_17">
    <defs>
     <path d="M 0 9 
C 2.386828 9 4.676219 8.051703 6.363961 6.363961 
C 8.051703 4.676219 9 2.386828 9 0 
C 9 -2.386828 8.051703 -4.676219 6.363961 -6.363961 
C 4.676219 -8.051703 2.386828 -9 0 -9 
C -2.386828 -9 -4.676219 -8.051703 -6.363961 -6.363961 
C -8.051703 -4.676219 -9 -2.386828 -9 0 
C -9 2.386828 -8.051703 4.676219 -6.363961 6.363961 
C -4.676219 8.051703 -2.386828 9 0 9 
z
" id="m8707c7107d" style="stroke:#000000;"/>
    </defs>
    <g clip-path="url(#p5a06b0ca50)">
     <use style="fill:#9e0142;stroke:#000000;" x="1231.729552" xlink:href="#m8707c7107d" y="565.031717"/>
    </g>
   </g>
   <g id="line2d_18">
    <g clip-path="url(#p5a06b0ca50)">
     <use style="fill:#9e0142;stroke:#000000;" x="1245.272727" xlink:href="#m8707c7107d" y="566.192042"/>
    </g>
   </g>
   <g id="line2d_19">
    <g clip-path="url(#p5a06b0ca50)">
     <use style="fill:#9e0142;stroke:#000000;" x="1234.55592" xlink:href="#m8707c7107d" y="565.372443"/>
    </g>
   </g>
   <g id="line2d_20">
    <defs>
     <path d="M 0 9 
C 2.386828 9 4.676219 8.051703 6.363961 6.363961 
C 8.051703 4.676219 9 2.386828 9 0 
C 9 -2.386828 8.051703 -4.676219 6.363961 -6.363961 
C 4.676219 -8.051703 2.386828 -9 0 -9 
C -2.386828 -9 -4.676219 -8.051703 -6.363961 -6.363961 
C -8.051703 -4.676219 -9 -2.386828 -9 0 
C -9 2.386828 -8.051703 4.676219 -6.363961 6.363961 
C -4.676219 8.051703 -2.386828 9 0 9 
z
" id="m0267d0d961" style="stroke:#000000;"/>
    </defs>
    <g clip-path="url(#p5a06b0ca50)">
     <use style="fill:#fdbf6f;stroke:#000000;" x="1131.212894" xlink:href="#m0267d0d961" y="683.531236"/>
    </g>
   </g>
   <g id="line2d_21">
    <defs>
     <path d="M 0 9 
C 2.386828 9 4.676219 8.051703 6.363961 6.363961 
C 8.051703 4.676219 9 2.386828 9 0 
C 9 -2.386828 8.051703 -4.676219 6.363961 -6.363961 
C 4.676219 -8.051703 2.386828 -9 0 -9 
C -2.386828 -9 -4.676219 -8.051703 -6.363961 -6.363961 
C -8.051703 -4.676219 -9 -2.386828 -9 0 
C -9 2.386828 -8.051703 4.676219 -6.363961 6.363961 
C -4.676219 8.051703 -2.386828 9 0 9 
z
" id="md7e4d26764" style="stroke:#000000;"/>
    </defs>
    <g clip-path="url(#p5a06b0ca50)">
     <use style="fill:#bfe5a0;stroke:#000000;" x="1028.146478" xlink:href="#md7e4d26764" y="1230.598459"/>
    </g>
   </g>
   <g id="line2d_22">
    <g clip-path="url(#p5a06b0ca50)">
     <use style="fill:#bfe5a0;stroke:#000000;" x="1031.6892" xlink:href="#md7e4d26764" y="1224.387137"/>
    </g>
   </g>
   <g id="line2d_23">
    <g clip-path="url(#p5a06b0ca50)">
     <use style="fill:#fdbf6f;stroke:#000000;" x="1123.89982" xlink:href="#m0267d0d961" y="683.49462"/>
    </g>
   </g>
   <g id="line2d_24">
    <defs>
     <path d="M 0 3 
C 0.795609 3 1.55874 2.683901 2.12132 2.12132 
C 2.683901 1.55874 3 0.795609 3 0 
C 3 -0.795609 2.683901 -1.55874 2.12132 -2.12132 
C 1.55874 -2.683901 0.795609 -3 0 -3 
C -0.795609 -3 -1.55874 -2.683901 -2.12132 -2.12132 
C -2.683901 -1.55874 -3 -0.795609 -3 0 
C -3 0.795609 -2.683901 1.55874 -2.12132 2.12132 
C -1.55874 2.683901 -0.795609 3 0 3 
z
" id="m64646730ae" style="stroke:#000000;"/>
    </defs>
    <g clip-path="url(#p5a06b0ca50)">
     <use style="stroke:#000000;" x="443.724692" xlink:href="#m64646730ae" y="248.665793"/>
    </g>
   </g>
   <g id="line2d_25">
    <g clip-path="url(#p5a06b0ca50)">
     <use style="fill:#bfe5a0;stroke:#000000;" x="1024.795615" xlink:href="#md7e4d26764" y="1230.286509"/>
    </g>
   </g>
   <g id="line2d_26">
    <g clip-path="url(#p5a06b0ca50)">
     <use style="fill:#bfe5a0;stroke:#000000;" x="1022.407181" xlink:href="#md7e4d26764" y="1230.952654"/>
    </g>
   </g>
   <g id="line2d_27">
    <g clip-path="url(#p5a06b0ca50)">
     <use style="stroke:#000000;" x="622.132936" xlink:href="#m64646730ae" y="789.378305"/>
    </g>
   </g>
   <g id="line2d_28">
    <g clip-path="url(#p5a06b0ca50)">
     <use style="fill:#9e0142;stroke:#000000;" x="1228.440775" xlink:href="#m8707c7107d" y="567.266628"/>
    </g>
   </g>
   <g id="line2d_29">
    <g clip-path="url(#p5a06b0ca50)">
     <use style="fill:#bfe5a0;stroke:#000000;" x="1024.374964" xlink:href="#md7e4d26764" y="1224.536746"/>
    </g>
   </g>
   <g id="line2d_30">
    <g clip-path="url(#p5a06b0ca50)">
     <use style="fill:#fdbf6f;stroke:#000000;" x="1133.588557" xlink:href="#m0267d0d961" y="683.503923"/>
    </g>
   </g>
   <g id="line2d_31">
    <g clip-path="url(#p5a06b0ca50)">
     <use style="stroke:#000000;" x="554.47075" xlink:href="#m64646730ae" y="432.655707"/>
    </g>
   </g>
   <g id="line2d_32">
    <g clip-path="url(#p5a06b0ca50)">
     <use style="stroke:#000000;" x="553.564807" xlink:href="#m64646730ae" y="429.695679"/>
    </g>
   </g>
   <g id="line2d_33">
    <g clip-path="url(#p5a06b0ca50)">
     <use style="fill:#9e0142;stroke:#000000;" x="1242.881671" xlink:href="#m8707c7107d" y="565.775456"/>
    </g>
   </g>
   <g id="line2d_34">
    <g clip-path="url(#p5a06b0ca50)">
     <use style="fill:#fdbf6f;stroke:#000000;" x="1132.874754" xlink:href="#m0267d0d961" y="683.527632"/>
    </g>
   </g>
   <g id="line2d_35">
    <g clip-path="url(#p5a06b0ca50)">
     <use style="fill:#9e0142;stroke:#000000;" x="1238.696195" xlink:href="#m8707c7107d" y="566.610452"/>
    </g>
   </g>
   <g id="line2d_36">
    <g clip-path="url(#p5a06b0ca50)">
     <use style="stroke:#000000;" x="341.816565" xlink:href="#m64646730ae" y="223.2"/>
    </g>
   </g>
   <g id="line2d_37">
    <g clip-path="url(#p5a06b0ca50)">
     <use style="fill:#9e0142;stroke:#000000;" x="1236.328849" xlink:href="#m8707c7107d" y="565.130061"/>
    </g>
   </g>
   <g id="line2d_38">
    <g clip-path="url(#p5a06b0ca50)">
     <use style="fill:#9e0142;stroke:#000000;" x="1232.095286" xlink:href="#m8707c7107d" y="565.543375"/>
    </g>
   </g>
   <g id="line2d_39">
    <g clip-path="url(#p5a06b0ca50)">
     <use style="fill:#9e0142;stroke:#000000;" x="1234.840298" xlink:href="#m8707c7107d" y="566.253103"/>
    </g>
   </g>
   <g id="line2d_40">
    <g clip-path="url(#p5a06b0ca50)">
     <use style="stroke:#000000;" x="966.653702" xlink:href="#m64646730ae" y="483.785166"/>
    </g>
   </g>
   <g id="line2d_41">
    <g clip-path="url(#p5a06b0ca50)">
     <use style="fill:#9e0142;stroke:#000000;" x="1231.452947" xlink:href="#m8707c7107d" y="566.356267"/>
    </g>
   </g>
   <g id="line2d_42">
    <g clip-path="url(#p5a06b0ca50)">
     <use style="stroke:#000000;" x="374.643663" xlink:href="#m64646730ae" y="402.270894"/>
    </g>
   </g>
   <g id="line2d_43">
    <g clip-path="url(#p5a06b0ca50)">
     <use style="stroke:#000000;" x="230.727273" xlink:href="#m64646730ae" y="272.183591"/>
    </g>
   </g>
   <g id="line2d_44">
    <g clip-path="url(#p5a06b0ca50)">
     <use style="stroke:#000000;" x="231.793674" xlink:href="#m64646730ae" y="275.148476"/>
    </g>
   </g>
   <g id="line2d_45">
    <g clip-path="url(#p5a06b0ca50)">
     <use style="fill:#9e0142;stroke:#000000;" x="1233.145725" xlink:href="#m8707c7107d" y="565.38851"/>
    </g>
   </g>
   <g id="line2d_46">
    <g clip-path="url(#p5a06b0ca50)">
     <use style="fill:#9e0142;stroke:#000000;" x="1237.596091" xlink:href="#m8707c7107d" y="565.709994"/>
    </g>
   </g>
   <g id="line2d_47">
    <g clip-path="url(#p5a06b0ca50)">
     <use style="fill:#9e0142;stroke:#000000;" x="1230.92173" xlink:href="#m8707c7107d" y="566.730292"/>
    </g>
   </g>
   <g id="line2d_48">
    <g clip-path="url(#p5a06b0ca50)">
     <use style="stroke:#000000;" x="1055.769807" xlink:href="#m64646730ae" y="521.952255"/>
    </g>
   </g>
   <g id="line2d_49">
    <g clip-path="url(#p5a06b0ca50)">
     <use style="fill:#fdbf6f;stroke:#000000;" x="1127.360073" xlink:href="#m0267d0d961" y="683.510294"/>
    </g>
   </g>
   <g id="line2d_50">
    <g clip-path="url(#p5a06b0ca50)">
     <use style="fill:#9e0142;stroke:#000000;" x="1235.572571" xlink:href="#m8707c7107d" y="565.313359"/>
    </g>
   </g>
   <g id="line2d_51">
    <g clip-path="url(#p5a06b0ca50)">
     <use style="fill:#9e0142;stroke:#000000;" x="1242.348678" xlink:href="#m8707c7107d" y="567.088846"/>
    </g>
   </g>
   <g id="line2d_52">
    <g clip-path="url(#p5a06b0ca50)">
     <use style="stroke:#000000;" x="1130.227816" xlink:href="#m64646730ae" y="540.371745"/>
    </g>
   </g>
   <g id="line2d_53">
    <g clip-path="url(#p5a06b0ca50)">
     <use style="fill:#9e0142;stroke:#000000;" x="1233.635311" xlink:href="#m8707c7107d" y="565.42059"/>
    </g>
   </g>
   <g id="line2d_54">
    <g clip-path="url(#p5a06b0ca50)">
     <use style="stroke:#000000;" x="443.78541" xlink:href="#m64646730ae" y="249.749435"/>
    </g>
   </g>
   <g id="line2d_55">
    <g clip-path="url(#p5a06b0ca50)">
     <use style="fill:#9e0142;stroke:#000000;" x="1244.202989" xlink:href="#m8707c7107d" y="566.67576"/>
    </g>
   </g>
   <g id="line2d_56">
    <g clip-path="url(#p5a06b0ca50)">
     <use style="fill:#bfe5a0;stroke:#000000;" x="1028.180921" xlink:href="#md7e4d26764" y="1224.452804"/>
    </g>
   </g>
   <g id="line2d_57">
    <g clip-path="url(#p5a06b0ca50)">
     <use style="stroke:#000000;" x="656.265351" xlink:href="#m64646730ae" y="970.973469"/>
    </g>
   </g>
   <g id="line2d_58">
    <g clip-path="url(#p5a06b0ca50)">
     <use style="fill:#9e0142;stroke:#000000;" x="1230.859327" xlink:href="#m8707c7107d" y="567.250609"/>
    </g>
   </g>
   <g id="line2d_59">
    <g clip-path="url(#p5a06b0ca50)">
     <use style="fill:#9e0142;stroke:#000000;" x="1241.495118" xlink:href="#m8707c7107d" y="565.337993"/>
    </g>
   </g>
   <g id="line2d_60">
    <g clip-path="url(#p5a06b0ca50)">
     <use style="fill:#9e0142;stroke:#000000;" x="1238.215543" xlink:href="#m8707c7107d" y="565.852071"/>
    </g>
   </g>
   <g id="line2d_61">
    <g clip-path="url(#p5a06b0ca50)">
     <use style="fill:#9e0142;stroke:#000000;" x="1228.489728" xlink:href="#m8707c7107d" y="567.025152"/>
    </g>
   </g>
   <g id="line2d_62">
    <g clip-path="url(#p5a06b0ca50)">
     <use style="fill:#9e0142;stroke:#000000;" x="1231.912592" xlink:href="#m8707c7107d" y="565.920081"/>
    </g>
   </g>
   <g id="line2d_63">
    <g clip-path="url(#p5a06b0ca50)">
     <use style="fill:#9e0142;stroke:#000000;" x="1237.824913" xlink:href="#m8707c7107d" y="567.089732"/>
    </g>
   </g>
   <g id="line2d_64">
    <g clip-path="url(#p5a06b0ca50)">
     <use style="fill:#9e0142;stroke:#000000;" x="1245.228419" xlink:href="#m8707c7107d" y="566.391802"/>
    </g>
   </g>
   <g id="line2d_65">
    <g clip-path="url(#p5a06b0ca50)">
     <use style="fill:#9e0142;stroke:#000000;" x="1237.280715" xlink:href="#m8707c7107d" y="566.602994"/>
    </g>
   </g>
   <g id="line2d_66">
    <g clip-path="url(#p5a06b0ca50)">
     <use style="fill:#9e0142;stroke:#000000;" x="1234.67121" xlink:href="#m8707c7107d" y="566.744355"/>
    </g>
   </g>
   <g id="line2d_67">
    <g clip-path="url(#p5a06b0ca50)">
     <use style="stroke:#000000;" x="1022.075595" xlink:href="#m64646730ae" y="1093.222626"/>
    </g>
   </g>
   <g id="line2d_68">
    <g clip-path="url(#p5a06b0ca50)">
     <use style="fill:#bfe5a0;stroke:#000000;" x="1033.130619" xlink:href="#md7e4d26764" y="1231.2"/>
    </g>
   </g>
   <g id="line2d_69">
    <g clip-path="url(#p5a06b0ca50)">
     <use style="fill:#bfe5a0;stroke:#000000;" x="1031.527149" xlink:href="#md7e4d26764" y="1228.002958"/>
    </g>
   </g>
   <g id="line2d_70">
    <g clip-path="url(#p5a06b0ca50)">
     <use style="fill:#9e0142;stroke:#000000;" x="1240.042608" xlink:href="#m8707c7107d" y="567.017221"/>
    </g>
   </g>
   <g id="line2d_71">
    <g clip-path="url(#p5a06b0ca50)">
     <use style="fill:#9e0142;stroke:#000000;" x="1244.343003" xlink:href="#m8707c7107d" y="567.176222"/>
    </g>
   </g>
   <g id="line2d_72">
    <g clip-path="url(#p5a06b0ca50)">
     <use style="stroke:#000000;" x="834.58878" xlink:href="#m64646730ae" y="453.819591"/>
    </g>
   </g>
   <g id="line2d_73">
    <g clip-path="url(#p5a06b0ca50)">
     <use style="fill:#9e0142;stroke:#000000;" x="1236.5313" xlink:href="#m8707c7107d" y="566.561234"/>
    </g>
   </g>
   <g id="line2d_74">
    <g clip-path="url(#p5a06b0ca50)">
     <use style="fill:#9e0142;stroke:#000000;" x="1243.585885" xlink:href="#m8707c7107d" y="567.097577"/>
    </g>
   </g>
   <g id="line2d_75">
    <g clip-path="url(#p5a06b0ca50)">
     <use style="fill:#9e0142;stroke:#000000;" x="1235.062941" xlink:href="#m8707c7107d" y="566.374405"/>
    </g>
   </g>
   <g id="line2d_76">
    <g clip-path="url(#p5a06b0ca50)">
     <use style="fill:#bfe5a0;stroke:#000000;" x="1024.229552" xlink:href="#md7e4d26764" y="1228.237959"/>
    </g>
   </g>
   <g id="line2d_77">
    <g clip-path="url(#p5a06b0ca50)">
     <use style="fill:#9e0142;stroke:#000000;" x="1228.531263" xlink:href="#m8707c7107d" y="566.93548"/>
    </g>
   </g>
   <g id="line2d_78">
    <g clip-path="url(#p5a06b0ca50)">
     <use style="fill:#bfe5a0;stroke:#000000;" x="1025.546313" xlink:href="#md7e4d26764" y="1227.426499"/>
    </g>
   </g>
   <g id="line2d_79">
    <g clip-path="url(#p5a06b0ca50)">
     <use style="fill:#9e0142;stroke:#000000;" x="1232.718239" xlink:href="#m8707c7107d" y="567.298362"/>
    </g>
   </g>
   <g id="line2d_80">
    <g clip-path="url(#p5a06b0ca50)">
     <use style="fill:#9e0142;stroke:#000000;" x="1241.71536" xlink:href="#m8707c7107d" y="567.131529"/>
    </g>
   </g>
   <g id="line2d_81">
    <g clip-path="url(#p5a06b0ca50)">
     <use style="fill:#bfe5a0;stroke:#000000;" x="1030.257178" xlink:href="#md7e4d26764" y="1224.476254"/>
    </g>
   </g>
   <g id="line2d_82">
    <g clip-path="url(#p5a06b0ca50)">
     <use style="fill:#9e0142;stroke:#000000;" x="1234.897727" xlink:href="#m8707c7107d" y="565.096883"/>
    </g>
   </g>
   <g id="line2d_83">
    <g clip-path="url(#p5a06b0ca50)">
     <use style="fill:#9e0142;stroke:#000000;" x="1239.978325" xlink:href="#m8707c7107d" y="565.543344"/>
    </g>
   </g>
   <g id="line2d_84">
    <g clip-path="url(#p5a06b0ca50)">
     <use style="fill:#9e0142;stroke:#000000;" x="1234.190429" xlink:href="#m8707c7107d" y="566.608253"/>
    </g>
   </g>
   <g id="line2d_85">
    <g clip-path="url(#p5a06b0ca50)">
     <use style="fill:#9e0142;stroke:#000000;" x="1237.879161" xlink:href="#m8707c7107d" y="565.779692"/>
    </g>
   </g>
   <g id="line2d_86">
    <g clip-path="url(#p5a06b0ca50)">
     <use style="fill:#9e0142;stroke:#000000;" x="1243.887915" xlink:href="#m8707c7107d" y="566.06305"/>
    </g>
   </g>
   <g id="line2d_87">
    <g clip-path="url(#p5a06b0ca50)">
     <use style="fill:#9e0142;stroke:#000000;" x="1244.672548" xlink:href="#m8707c7107d" y="565.60767"/>
    </g>
   </g>
   <g id="line2d_88">
    <g clip-path="url(#p5a06b0ca50)">
     <use style="fill:#9e0142;stroke:#000000;" x="1242.420345" xlink:href="#m8707c7107d" y="566.802159"/>
    </g>
   </g>
   <g id="line2d_89">
    <g clip-path="url(#p5a06b0ca50)">
     <use style="fill:#9e0142;stroke:#000000;" x="1229.693805" xlink:href="#m8707c7107d" y="566.267178"/>
    </g>
   </g>
   <g id="line2d_90">
    <g clip-path="url(#p5a06b0ca50)">
     <use style="fill:#9e0142;stroke:#000000;" x="1230.126352" xlink:href="#m8707c7107d" y="567.177204"/>
    </g>
   </g>
   <g id="line2d_91">
    <g clip-path="url(#p5a06b0ca50)">
     <use style="fill:#bfe5a0;stroke:#000000;" x="1023.305425" xlink:href="#md7e4d26764" y="1229.277401"/>
    </g>
   </g>
   <g id="line2d_92">
    <g clip-path="url(#p5a06b0ca50)">
     <use style="fill:#9e0142;stroke:#000000;" x="1231.706301" xlink:href="#m8707c7107d" y="566.627246"/>
    </g>
   </g>
   <g id="line2d_93">
    <g clip-path="url(#p5a06b0ca50)">
     <use style="fill:#9e0142;stroke:#000000;" x="1240.236637" xlink:href="#m8707c7107d" y="565.901297"/>
    </g>
   </g>
   <g id="line2d_94">
    <g clip-path="url(#p5a06b0ca50)">
     <use style="fill:#9e0142;stroke:#000000;" x="1230.588762" xlink:href="#m8707c7107d" y="565.572752"/>
    </g>
   </g>
   <g id="line2d_95">
    <g clip-path="url(#p5a06b0ca50)">
     <use style="fill:#bfe5a0;stroke:#000000;" x="1029.094132" xlink:href="#md7e4d26764" y="1223.400592"/>
    </g>
   </g>
   <g id="line2d_96">
    <g clip-path="url(#p5a06b0ca50)">
     <use style="fill:#9e0142;stroke:#000000;" x="1228.485872" xlink:href="#m8707c7107d" y="565.225257"/>
    </g>
   </g>
   <g id="line2d_97">
    <g clip-path="url(#p5a06b0ca50)">
     <use style="fill:#bfe5a0;stroke:#000000;" x="1032.210798" xlink:href="#md7e4d26764" y="1228.404885"/>
    </g>
   </g>
   <g id="line2d_98">
    <g clip-path="url(#p5a06b0ca50)">
     <use style="stroke:#000000;" x="231.346854" xlink:href="#m64646730ae" y="273.650964"/>
    </g>
   </g>
   <g id="line2d_99">
    <g clip-path="url(#p5a06b0ca50)">
     <use style="stroke:#000000;" x="935.906267" xlink:href="#m64646730ae" y="493.850212"/>
    </g>
   </g>
   <g id="line2d_100">
    <g clip-path="url(#p5a06b0ca50)">
     <use style="fill:#9e0142;stroke:#000000;" x="1232.982669" xlink:href="#m8707c7107d" y="565.428121"/>
    </g>
   </g>
   <g id="line2d_101">
    <g clip-path="url(#p5a06b0ca50)">
     <use style="stroke:#000000;" x="443.762419" xlink:href="#m64646730ae" y="249.46799"/>
    </g>
   </g>
   <g id="line2d_102">
    <g clip-path="url(#p5a06b0ca50)">
     <use style="fill:#9e0142;stroke:#000000;" x="1243.569957" xlink:href="#m8707c7107d" y="566.570756"/>
    </g>
   </g>
   <g id="line2d_103">
    <g clip-path="url(#p5a06b0ca50)">
     <use style="fill:#fdbf6f;stroke:#000000;" x="1131.91172" xlink:href="#m0267d0d961" y="683.495294"/>
    </g>
   </g>
   <g id="patch_3">
    <path d="M 180 1281.6 
L 180 172.8 
" style="fill:none;stroke:#000000;stroke-linecap:square;stroke-linejoin:miter;stroke-width:0.8;"/>
   </g>
   <g id="patch_4">
    <path d="M 1296 1281.6 
L 1296 172.8 
" style="fill:none;stroke:#000000;stroke-linecap:square;stroke-linejoin:miter;stroke-width:0.8;"/>
   </g>
   <g id="patch_5">
    <path d="M 180 1281.6 
L 1296 1281.6 
" style="fill:none;stroke:#000000;stroke-linecap:square;stroke-linejoin:miter;stroke-width:0.8;"/>
   </g>
   <g id="patch_6">
    <path d="M 180 172.8 
L 1296 172.8 
" style="fill:none;stroke:#000000;stroke-linecap:square;stroke-linejoin:miter;stroke-width:0.8;"/>
   </g>
  </g>
 </g>
 <defs>
  <clipPath id="p5a06b0ca50">
   <rect height="1108.8" width="1116" x="180" y="172.8"/>
  </clipPath>
 </defs>
</svg>
