<?xml version="1.0" encoding="utf-8" standalone="no"?>
<!DOCTYPE svg PUBLIC "-//W3C//DTD SVG 1.1//EN"
  "http://www.w3.org/Graphics/SVG/1.1/DTD/svg11.dtd">
<!-- Created with matplotlib (https://matplotlib.org/) -->
<svg height="1440pt" version="1.1" viewBox="0 0 1440 1440" width="1440pt" xmlns="http://www.w3.org/2000/svg" xmlns:xlink="http://www.w3.org/1999/xlink">
 <defs>
  <style type="text/css">
*{stroke-linecap:butt;stroke-linejoin:round;}
  </style>
 </defs>
 <g id="figure_1">
  <g id="patch_1">
   <path d="M 0 1440 
L 1440 1440 
L 1440 0 
L 0 0 
z
" style="fill:#ffffff;"/>
  </g>
  <g id="axes_1">
   <g id="patch_2">
    <path d="M 180 1281.6 
L 1296 1281.6 
L 1296 172.8 
L 180 172.8 
z
" style="fill:#ffffff;"/>
   </g>
   <g id="matplotlib.axis_1">
    <g id="xtick_1">
     <g id="line2d_1">
      <defs>
       <path d="M 0 0 
L 0 3.5 
" id="m6d981abcd5" style="stroke:#000000;stroke-width:0.8;"/>
      </defs>
      <g>
       <use style="stroke:#000000;stroke-width:0.8;" x="314.443318" xlink:href="#m6d981abcd5" y="1281.6"/>
      </g>
     </g>
     <g id="text_1">
      <!-- −0.04 -->
      <defs>
       <path d="M 10.59375 35.5 
L 73.1875 35.5 
L 73.1875 27.203125 
L 10.59375 27.203125 
z
" id="DejaVuSans-8722"/>
       <path d="M 31.78125 66.40625 
Q 24.171875 66.40625 20.328125 58.90625 
Q 16.5 51.421875 16.5 36.375 
Q 16.5 21.390625 20.328125 13.890625 
Q 24.171875 6.390625 31.78125 6.390625 
Q 39.453125 6.390625 43.28125 13.890625 
Q 47.125 21.390625 47.125 36.375 
Q 47.125 51.421875 43.28125 58.90625 
Q 39.453125 66.40625 31.78125 66.40625 
z
M 31.78125 74.21875 
Q 44.046875 74.21875 50.515625 64.515625 
Q 56.984375 54.828125 56.984375 36.375 
Q 56.984375 17.96875 50.515625 8.265625 
Q 44.046875 -1.421875 31.78125 -1.421875 
Q 19.53125 -1.421875 13.0625 8.265625 
Q 6.59375 17.96875 6.59375 36.375 
Q 6.59375 54.828125 13.0625 64.515625 
Q 19.53125 74.21875 31.78125 74.21875 
z
" id="DejaVuSans-48"/>
       <path d="M 10.6875 12.40625 
L 21 12.40625 
L 21 0 
L 10.6875 0 
z
" id="DejaVuSans-46"/>
       <path d="M 37.796875 64.3125 
L 12.890625 25.390625 
L 37.796875 25.390625 
z
M 35.203125 72.90625 
L 47.609375 72.90625 
L 47.609375 25.390625 
L 58.015625 25.390625 
L 58.015625 17.1875 
L 47.609375 17.1875 
L 47.609375 0 
L 37.796875 0 
L 37.796875 17.1875 
L 4.890625 17.1875 
L 4.890625 26.703125 
z
" id="DejaVuSans-52"/>
      </defs>
      <g transform="translate(299.120662 1296.198437)scale(0.1 -0.1)">
       <use xlink:href="#DejaVuSans-8722"/>
       <use x="83.789062" xlink:href="#DejaVuSans-48"/>
       <use x="147.412109" xlink:href="#DejaVuSans-46"/>
       <use x="179.199219" xlink:href="#DejaVuSans-48"/>
       <use x="242.822266" xlink:href="#DejaVuSans-52"/>
      </g>
     </g>
    </g>
    <g id="xtick_2">
     <g id="line2d_2">
      <g>
       <use style="stroke:#000000;stroke-width:0.8;" x="451.581461" xlink:href="#m6d981abcd5" y="1281.6"/>
      </g>
     </g>
     <g id="text_2">
      <!-- −0.02 -->
      <defs>
       <path d="M 19.1875 8.296875 
L 53.609375 8.296875 
L 53.609375 0 
L 7.328125 0 
L 7.328125 8.296875 
Q 12.9375 14.109375 22.625 23.890625 
Q 32.328125 33.6875 34.8125 36.53125 
Q 39.546875 41.84375 41.421875 45.53125 
Q 43.3125 49.21875 43.3125 52.78125 
Q 43.3125 58.59375 39.234375 62.25 
Q 35.15625 65.921875 28.609375 65.921875 
Q 23.96875 65.921875 18.8125 64.3125 
Q 13.671875 62.703125 7.8125 59.421875 
L 7.8125 69.390625 
Q 13.765625 71.78125 18.9375 73 
Q 24.125 74.21875 28.421875 74.21875 
Q 39.75 74.21875 46.484375 68.546875 
Q 53.21875 62.890625 53.21875 53.421875 
Q 53.21875 48.921875 51.53125 44.890625 
Q 49.859375 40.875 45.40625 35.40625 
Q 44.1875 33.984375 37.640625 27.21875 
Q 31.109375 20.453125 19.1875 8.296875 
z
" id="DejaVuSans-50"/>
      </defs>
      <g transform="translate(436.258805 1296.198437)scale(0.1 -0.1)">
       <use xlink:href="#DejaVuSans-8722"/>
       <use x="83.789062" xlink:href="#DejaVuSans-48"/>
       <use x="147.412109" xlink:href="#DejaVuSans-46"/>
       <use x="179.199219" xlink:href="#DejaVuSans-48"/>
       <use x="242.822266" xlink:href="#DejaVuSans-50"/>
      </g>
     </g>
    </g>
    <g id="xtick_3">
     <g id="line2d_3">
      <g>
       <use style="stroke:#000000;stroke-width:0.8;" x="588.719604" xlink:href="#m6d981abcd5" y="1281.6"/>
      </g>
     </g>
     <g id="text_3">
      <!-- 0.00 -->
      <g transform="translate(577.586791 1296.198437)scale(0.1 -0.1)">
       <use xlink:href="#DejaVuSans-48"/>
       <use x="63.623047" xlink:href="#DejaVuSans-46"/>
       <use x="95.410156" xlink:href="#DejaVuSans-48"/>
       <use x="159.033203" xlink:href="#DejaVuSans-48"/>
      </g>
     </g>
    </g>
    <g id="xtick_4">
     <g id="line2d_4">
      <g>
       <use style="stroke:#000000;stroke-width:0.8;" x="725.857747" xlink:href="#m6d981abcd5" y="1281.6"/>
      </g>
     </g>
     <g id="text_4">
      <!-- 0.02 -->
      <g transform="translate(714.724934 1296.198437)scale(0.1 -0.1)">
       <use xlink:href="#DejaVuSans-48"/>
       <use x="63.623047" xlink:href="#DejaVuSans-46"/>
       <use x="95.410156" xlink:href="#DejaVuSans-48"/>
       <use x="159.033203" xlink:href="#DejaVuSans-50"/>
      </g>
     </g>
    </g>
    <g id="xtick_5">
     <g id="line2d_5">
      <g>
       <use style="stroke:#000000;stroke-width:0.8;" x="862.99589" xlink:href="#m6d981abcd5" y="1281.6"/>
      </g>
     </g>
     <g id="text_5">
      <!-- 0.04 -->
      <g transform="translate(851.863077 1296.198437)scale(0.1 -0.1)">
       <use xlink:href="#DejaVuSans-48"/>
       <use x="63.623047" xlink:href="#DejaVuSans-46"/>
       <use x="95.410156" xlink:href="#DejaVuSans-48"/>
       <use x="159.033203" xlink:href="#DejaVuSans-52"/>
      </g>
     </g>
    </g>
    <g id="xtick_6">
     <g id="line2d_6">
      <g>
       <use style="stroke:#000000;stroke-width:0.8;" x="1000.134033" xlink:href="#m6d981abcd5" y="1281.6"/>
      </g>
     </g>
     <g id="text_6">
      <!-- 0.06 -->
      <defs>
       <path d="M 33.015625 40.375 
Q 26.375 40.375 22.484375 35.828125 
Q 18.609375 31.296875 18.609375 23.390625 
Q 18.609375 15.53125 22.484375 10.953125 
Q 26.375 6.390625 33.015625 6.390625 
Q 39.65625 6.390625 43.53125 10.953125 
Q 47.40625 15.53125 47.40625 23.390625 
Q 47.40625 31.296875 43.53125 35.828125 
Q 39.65625 40.375 33.015625 40.375 
z
M 52.59375 71.296875 
L 52.59375 62.3125 
Q 48.875 64.0625 45.09375 64.984375 
Q 41.3125 65.921875 37.59375 65.921875 
Q 27.828125 65.921875 22.671875 59.328125 
Q 17.53125 52.734375 16.796875 39.40625 
Q 19.671875 43.65625 24.015625 45.921875 
Q 28.375 48.1875 33.59375 48.1875 
Q 44.578125 48.1875 50.953125 41.515625 
Q 57.328125 34.859375 57.328125 23.390625 
Q 57.328125 12.15625 50.6875 5.359375 
Q 44.046875 -1.421875 33.015625 -1.421875 
Q 20.359375 -1.421875 13.671875 8.265625 
Q 6.984375 17.96875 6.984375 36.375 
Q 6.984375 53.65625 15.1875 63.9375 
Q 23.390625 74.21875 37.203125 74.21875 
Q 40.921875 74.21875 44.703125 73.484375 
Q 48.484375 72.75 52.59375 71.296875 
z
" id="DejaVuSans-54"/>
      </defs>
      <g transform="translate(989.00122 1296.198437)scale(0.1 -0.1)">
       <use xlink:href="#DejaVuSans-48"/>
       <use x="63.623047" xlink:href="#DejaVuSans-46"/>
       <use x="95.410156" xlink:href="#DejaVuSans-48"/>
       <use x="159.033203" xlink:href="#DejaVuSans-54"/>
      </g>
     </g>
    </g>
    <g id="xtick_7">
     <g id="line2d_7">
      <g>
       <use style="stroke:#000000;stroke-width:0.8;" x="1137.272175" xlink:href="#m6d981abcd5" y="1281.6"/>
      </g>
     </g>
     <g id="text_7">
      <!-- 0.08 -->
      <defs>
       <path d="M 31.78125 34.625 
Q 24.75 34.625 20.71875 30.859375 
Q 16.703125 27.09375 16.703125 20.515625 
Q 16.703125 13.921875 20.71875 10.15625 
Q 24.75 6.390625 31.78125 6.390625 
Q 38.8125 6.390625 42.859375 10.171875 
Q 46.921875 13.96875 46.921875 20.515625 
Q 46.921875 27.09375 42.890625 30.859375 
Q 38.875 34.625 31.78125 34.625 
z
M 21.921875 38.8125 
Q 15.578125 40.375 12.03125 44.71875 
Q 8.5 49.078125 8.5 55.328125 
Q 8.5 64.0625 14.71875 69.140625 
Q 20.953125 74.21875 31.78125 74.21875 
Q 42.671875 74.21875 48.875 69.140625 
Q 55.078125 64.0625 55.078125 55.328125 
Q 55.078125 49.078125 51.53125 44.71875 
Q 48 40.375 41.703125 38.8125 
Q 48.828125 37.15625 52.796875 32.3125 
Q 56.78125 27.484375 56.78125 20.515625 
Q 56.78125 9.90625 50.3125 4.234375 
Q 43.84375 -1.421875 31.78125 -1.421875 
Q 19.734375 -1.421875 13.25 4.234375 
Q 6.78125 9.90625 6.78125 20.515625 
Q 6.78125 27.484375 10.78125 32.3125 
Q 14.796875 37.15625 21.921875 38.8125 
z
M 18.3125 54.390625 
Q 18.3125 48.734375 21.84375 45.5625 
Q 25.390625 42.390625 31.78125 42.390625 
Q 38.140625 42.390625 41.71875 45.5625 
Q 45.3125 48.734375 45.3125 54.390625 
Q 45.3125 60.0625 41.71875 63.234375 
Q 38.140625 66.40625 31.78125 66.40625 
Q 25.390625 66.40625 21.84375 63.234375 
Q 18.3125 60.0625 18.3125 54.390625 
z
" id="DejaVuSans-56"/>
      </defs>
      <g transform="translate(1126.139363 1296.198437)scale(0.1 -0.1)">
       <use xlink:href="#DejaVuSans-48"/>
       <use x="63.623047" xlink:href="#DejaVuSans-46"/>
       <use x="95.410156" xlink:href="#DejaVuSans-48"/>
       <use x="159.033203" xlink:href="#DejaVuSans-56"/>
      </g>
     </g>
    </g>
    <g id="xtick_8">
     <g id="line2d_8">
      <g>
       <use style="stroke:#000000;stroke-width:0.8;" x="1274.410318" xlink:href="#m6d981abcd5" y="1281.6"/>
      </g>
     </g>
     <g id="text_8">
      <!-- 0.10 -->
      <defs>
       <path d="M 12.40625 8.296875 
L 28.515625 8.296875 
L 28.515625 63.921875 
L 10.984375 60.40625 
L 10.984375 69.390625 
L 28.421875 72.90625 
L 38.28125 72.90625 
L 38.28125 8.296875 
L 54.390625 8.296875 
L 54.390625 0 
L 12.40625 0 
z
" id="DejaVuSans-49"/>
      </defs>
      <g transform="translate(1263.277506 1296.198437)scale(0.1 -0.1)">
       <use xlink:href="#DejaVuSans-48"/>
       <use x="63.623047" xlink:href="#DejaVuSans-46"/>
       <use x="95.410156" xlink:href="#DejaVuSans-49"/>
       <use x="159.033203" xlink:href="#DejaVuSans-48"/>
      </g>
     </g>
    </g>
   </g>
   <g id="matplotlib.axis_2">
    <g id="ytick_1">
     <g id="line2d_9">
      <defs>
       <path d="M 0 0 
L -3.5 0 
" id="m8aa8285630" style="stroke:#000000;stroke-width:0.8;"/>
      </defs>
      <g>
       <use style="stroke:#000000;stroke-width:0.8;" x="180" xlink:href="#m8aa8285630" y="1093.560284"/>
      </g>
     </g>
     <g id="text_9">
      <!-- −0.1 -->
      <g transform="translate(148.717187 1097.359503)scale(0.1 -0.1)">
       <use xlink:href="#DejaVuSans-8722"/>
       <use x="83.789062" xlink:href="#DejaVuSans-48"/>
       <use x="147.412109" xlink:href="#DejaVuSans-46"/>
       <use x="179.199219" xlink:href="#DejaVuSans-49"/>
      </g>
     </g>
    </g>
    <g id="ytick_2">
     <g id="line2d_10">
      <g>
       <use style="stroke:#000000;stroke-width:0.8;" x="180" xlink:href="#m8aa8285630" y="884.836675"/>
      </g>
     </g>
     <g id="text_10">
      <!-- 0.0 -->
      <g transform="translate(157.096875 888.635894)scale(0.1 -0.1)">
       <use xlink:href="#DejaVuSans-48"/>
       <use x="63.623047" xlink:href="#DejaVuSans-46"/>
       <use x="95.410156" xlink:href="#DejaVuSans-48"/>
      </g>
     </g>
    </g>
    <g id="ytick_3">
     <g id="line2d_11">
      <g>
       <use style="stroke:#000000;stroke-width:0.8;" x="180" xlink:href="#m8aa8285630" y="676.113066"/>
      </g>
     </g>
     <g id="text_11">
      <!-- 0.1 -->
      <g transform="translate(157.096875 679.912285)scale(0.1 -0.1)">
       <use xlink:href="#DejaVuSans-48"/>
       <use x="63.623047" xlink:href="#DejaVuSans-46"/>
       <use x="95.410156" xlink:href="#DejaVuSans-49"/>
      </g>
     </g>
    </g>
    <g id="ytick_4">
     <g id="line2d_12">
      <g>
       <use style="stroke:#000000;stroke-width:0.8;" x="180" xlink:href="#m8aa8285630" y="467.389457"/>
      </g>
     </g>
     <g id="text_12">
      <!-- 0.2 -->
      <g transform="translate(157.096875 471.188676)scale(0.1 -0.1)">
       <use xlink:href="#DejaVuSans-48"/>
       <use x="63.623047" xlink:href="#DejaVuSans-46"/>
       <use x="95.410156" xlink:href="#DejaVuSans-50"/>
      </g>
     </g>
    </g>
    <g id="ytick_5">
     <g id="line2d_13">
      <g>
       <use style="stroke:#000000;stroke-width:0.8;" x="180" xlink:href="#m8aa8285630" y="258.665848"/>
      </g>
     </g>
     <g id="text_13">
      <!-- 0.3 -->
      <defs>
       <path d="M 40.578125 39.3125 
Q 47.65625 37.796875 51.625 33 
Q 55.609375 28.21875 55.609375 21.1875 
Q 55.609375 10.40625 48.1875 4.484375 
Q 40.765625 -1.421875 27.09375 -1.421875 
Q 22.515625 -1.421875 17.65625 -0.515625 
Q 12.796875 0.390625 7.625 2.203125 
L 7.625 11.71875 
Q 11.71875 9.328125 16.59375 8.109375 
Q 21.484375 6.890625 26.8125 6.890625 
Q 36.078125 6.890625 40.9375 10.546875 
Q 45.796875 14.203125 45.796875 21.1875 
Q 45.796875 27.640625 41.28125 31.265625 
Q 36.765625 34.90625 28.71875 34.90625 
L 20.21875 34.90625 
L 20.21875 43.015625 
L 29.109375 43.015625 
Q 36.375 43.015625 40.234375 45.921875 
Q 44.09375 48.828125 44.09375 54.296875 
Q 44.09375 59.90625 40.109375 62.90625 
Q 36.140625 65.921875 28.71875 65.921875 
Q 24.65625 65.921875 20.015625 65.03125 
Q 15.375 64.15625 9.8125 62.3125 
L 9.8125 71.09375 
Q 15.4375 72.65625 20.34375 73.4375 
Q 25.25 74.21875 29.59375 74.21875 
Q 40.828125 74.21875 47.359375 69.109375 
Q 53.90625 64.015625 53.90625 55.328125 
Q 53.90625 49.265625 50.4375 45.09375 
Q 46.96875 40.921875 40.578125 39.3125 
z
" id="DejaVuSans-51"/>
      </defs>
      <g transform="translate(157.096875 262.465067)scale(0.1 -0.1)">
       <use xlink:href="#DejaVuSans-48"/>
       <use x="63.623047" xlink:href="#DejaVuSans-46"/>
       <use x="95.410156" xlink:href="#DejaVuSans-51"/>
      </g>
     </g>
    </g>
   </g>
   <g id="line2d_14">
    <defs>
     <path d="M 0 9 
C 2.386828 9 4.676219 8.051703 6.363961 6.363961 
C 8.051703 4.676219 9 2.386828 9 0 
C 9 -2.386828 8.051703 -4.676219 6.363961 -6.363961 
C 4.676219 -8.051703 2.386828 -9 0 -9 
C -2.386828 -9 -4.676219 -8.051703 -6.363961 -6.363961 
C -8.051703 -4.676219 -9 -2.386828 -9 0 
C -9 2.386828 -8.051703 4.676219 -6.363961 6.363961 
C -4.676219 8.051703 -2.386828 9 0 9 
z
" id="m28bd952181" style="stroke:#000000;"/>
    </defs>
    <g clip-path="url(#p6a0fcb3365)">
     <use style="fill:#9e0142;stroke:#000000;" x="1243.387478" xlink:href="#m28bd952181" y="888.316969"/>
    </g>
   </g>
   <g id="line2d_15">
    <g clip-path="url(#p6a0fcb3365)">
     <use style="fill:#9e0142;stroke:#000000;" x="1240.54896" xlink:href="#m28bd952181" y="888.299109"/>
    </g>
   </g>
   <g id="line2d_16">
    <g clip-path="url(#p6a0fcb3365)">
     <use style="fill:#9e0142;stroke:#000000;" x="1239.098279" xlink:href="#m28bd952181" y="888.302164"/>
    </g>
   </g>
   <g id="line2d_17">
    <g clip-path="url(#p6a0fcb3365)">
     <use style="fill:#9e0142;stroke:#000000;" x="1241.650597" xlink:href="#m28bd952181" y="888.303366"/>
    </g>
   </g>
   <g id="line2d_18">
    <g clip-path="url(#p6a0fcb3365)">
     <use style="fill:#9e0142;stroke:#000000;" x="1233.798832" xlink:href="#m28bd952181" y="888.284179"/>
    </g>
   </g>
   <g id="line2d_19">
    <g clip-path="url(#p6a0fcb3365)">
     <use style="fill:#9e0142;stroke:#000000;" x="1234.093038" xlink:href="#m28bd952181" y="888.265928"/>
    </g>
   </g>
   <g id="line2d_20">
    <g clip-path="url(#p6a0fcb3365)">
     <use style="fill:#9e0142;stroke:#000000;" x="1239.100607" xlink:href="#m28bd952181" y="888.312999"/>
    </g>
   </g>
   <g id="line2d_21">
    <g clip-path="url(#p6a0fcb3365)">
     <use style="fill:#9e0142;stroke:#000000;" x="1243.22208" xlink:href="#m28bd952181" y="888.271888"/>
    </g>
   </g>
   <g id="line2d_22">
    <g clip-path="url(#p6a0fcb3365)">
     <use style="fill:#9e0142;stroke:#000000;" x="1235.843809" xlink:href="#m28bd952181" y="888.316513"/>
    </g>
   </g>
   <g id="line2d_23">
    <g clip-path="url(#p6a0fcb3365)">
     <use style="fill:#9e0142;stroke:#000000;" x="1237.891667" xlink:href="#m28bd952181" y="888.273462"/>
    </g>
   </g>
   <g id="line2d_24">
    <g clip-path="url(#p6a0fcb3365)">
     <use style="fill:#9e0142;stroke:#000000;" x="1235.835694" xlink:href="#m28bd952181" y="888.265564"/>
    </g>
   </g>
   <g id="line2d_25">
    <g clip-path="url(#p6a0fcb3365)">
     <use style="fill:#9e0142;stroke:#000000;" x="1237.330178" xlink:href="#m28bd952181" y="888.261799"/>
    </g>
   </g>
   <g id="line2d_26">
    <g clip-path="url(#p6a0fcb3365)">
     <use style="fill:#9e0142;stroke:#000000;" x="1238.812124" xlink:href="#m28bd952181" y="888.304773"/>
    </g>
   </g>
   <g id="line2d_27">
    <g clip-path="url(#p6a0fcb3365)">
     <use style="fill:#9e0142;stroke:#000000;" x="1234.184688" xlink:href="#m28bd952181" y="888.30884"/>
    </g>
   </g>
   <g id="line2d_28">
    <g clip-path="url(#p6a0fcb3365)">
     <use style="fill:#9e0142;stroke:#000000;" x="1235.366238" xlink:href="#m28bd952181" y="888.276655"/>
    </g>
   </g>
   <g id="line2d_29">
    <g clip-path="url(#p6a0fcb3365)">
     <use style="fill:#9e0142;stroke:#000000;" x="1239.77821" xlink:href="#m28bd952181" y="888.305701"/>
    </g>
   </g>
   <g id="line2d_30">
    <g clip-path="url(#p6a0fcb3365)">
     <use style="fill:#9e0142;stroke:#000000;" x="1240.438718" xlink:href="#m28bd952181" y="888.304107"/>
    </g>
   </g>
   <g id="line2d_31">
    <g clip-path="url(#p6a0fcb3365)">
     <use style="fill:#9e0142;stroke:#000000;" x="1238.728446" xlink:href="#m28bd952181" y="888.271219"/>
    </g>
   </g>
   <g id="line2d_32">
    <g clip-path="url(#p6a0fcb3365)">
     <use style="fill:#9e0142;stroke:#000000;" x="1238.752474" xlink:href="#m28bd952181" y="888.294149"/>
    </g>
   </g>
   <g id="line2d_33">
    <g clip-path="url(#p6a0fcb3365)">
     <use style="fill:#9e0142;stroke:#000000;" x="1235.98466" xlink:href="#m28bd952181" y="888.295923"/>
    </g>
   </g>
   <g id="line2d_34">
    <defs>
     <path d="M 0 9 
C 2.386828 9 4.676219 8.051703 6.363961 6.363961 
C 8.051703 4.676219 9 2.386828 9 0 
C 9 -2.386828 8.051703 -4.676219 6.363961 -6.363961 
C 4.676219 -8.051703 2.386828 -9 0 -9 
C -2.386828 -9 -4.676219 -8.051703 -6.363961 -6.363961 
C -8.051703 -4.676219 -9 -2.386828 -9 0 
C -9 2.386828 -8.051703 4.676219 -6.363961 6.363961 
C -4.676219 8.051703 -2.386828 9 0 9 
z
" id="m97c6560e3e" style="stroke:#000000;"/>
    </defs>
    <g clip-path="url(#p6a0fcb3365)">
     <use style="fill:#ffffbe;stroke:#000000;" x="610.635089" xlink:href="#m97c6560e3e" y="225.457181"/>
    </g>
   </g>
   <g id="line2d_35">
    <g clip-path="url(#p6a0fcb3365)">
     <use style="fill:#9e0142;stroke:#000000;" x="1245.272727" xlink:href="#m28bd952181" y="888.297353"/>
    </g>
   </g>
   <g id="line2d_36">
    <defs>
     <path d="M 0 3 
C 0.795609 3 1.55874 2.683901 2.12132 2.12132 
C 2.683901 1.55874 3 0.795609 3 0 
C 3 -0.795609 2.683901 -1.55874 2.12132 -2.12132 
C 1.55874 -2.683901 0.795609 -3 0 -3 
C -0.795609 -3 -1.55874 -2.683901 -2.12132 -2.12132 
C -2.683901 -1.55874 -3 -0.795609 -3 0 
C -3 0.795609 -2.683901 1.55874 -2.12132 2.12132 
C -1.55874 2.683901 -0.795609 3 0 3 
z
" id="mb69d57952a" style="stroke:#000000;"/>
    </defs>
    <g clip-path="url(#p6a0fcb3365)">
     <use style="stroke:#000000;" x="662.667771" xlink:href="#mb69d57952a" y="352.318763"/>
    </g>
   </g>
   <g id="line2d_37">
    <g clip-path="url(#p6a0fcb3365)">
     <use style="fill:#9e0142;stroke:#000000;" x="1234.401517" xlink:href="#m28bd952181" y="888.267412"/>
    </g>
   </g>
   <g id="line2d_38">
    <g clip-path="url(#p6a0fcb3365)">
     <use style="fill:#9e0142;stroke:#000000;" x="1239.406615" xlink:href="#m28bd952181" y="888.302739"/>
    </g>
   </g>
   <g id="line2d_39">
    <g clip-path="url(#p6a0fcb3365)">
     <use style="fill:#9e0142;stroke:#000000;" x="1242.503457" xlink:href="#m28bd952181" y="888.270872"/>
    </g>
   </g>
   <g id="line2d_40">
    <g clip-path="url(#p6a0fcb3365)">
     <use style="fill:#9e0142;stroke:#000000;" x="1233.963899" xlink:href="#m28bd952181" y="888.31573"/>
    </g>
   </g>
   <g id="line2d_41">
    <g clip-path="url(#p6a0fcb3365)">
     <use style="stroke:#000000;" x="1032.239517" xlink:href="#mb69d57952a" y="650.868566"/>
    </g>
   </g>
   <g id="line2d_42">
    <g clip-path="url(#p6a0fcb3365)">
     <use style="fill:#ffffbe;stroke:#000000;" x="610.450036" xlink:href="#m97c6560e3e" y="224.083936"/>
    </g>
   </g>
   <g id="line2d_43">
    <g clip-path="url(#p6a0fcb3365)">
     <use style="fill:#9e0142;stroke:#000000;" x="1245.092444" xlink:href="#m28bd952181" y="888.258973"/>
    </g>
   </g>
   <g id="line2d_44">
    <g clip-path="url(#p6a0fcb3365)">
     <use style="fill:#9e0142;stroke:#000000;" x="1235.303447" xlink:href="#m28bd952181" y="888.290781"/>
    </g>
   </g>
   <g id="line2d_45">
    <g clip-path="url(#p6a0fcb3365)">
     <use style="fill:#9e0142;stroke:#000000;" x="1232.646168" xlink:href="#m28bd952181" y="888.258241"/>
    </g>
   </g>
   <g id="line2d_46">
    <g clip-path="url(#p6a0fcb3365)">
     <use style="fill:#9e0142;stroke:#000000;" x="1232.867419" xlink:href="#m28bd952181" y="888.298528"/>
    </g>
   </g>
   <g id="line2d_47">
    <g clip-path="url(#p6a0fcb3365)">
     <use style="fill:#9e0142;stroke:#000000;" x="1229.551977" xlink:href="#m28bd952181" y="905.082034"/>
    </g>
   </g>
   <g id="line2d_48">
    <g clip-path="url(#p6a0fcb3365)">
     <use style="fill:#9e0142;stroke:#000000;" x="1233.041212" xlink:href="#m28bd952181" y="888.312519"/>
    </g>
   </g>
   <g id="line2d_49">
    <g clip-path="url(#p6a0fcb3365)">
     <use style="fill:#ffffbe;stroke:#000000;" x="610.408875" xlink:href="#m97c6560e3e" y="223.563408"/>
    </g>
   </g>
   <g id="line2d_50">
    <g clip-path="url(#p6a0fcb3365)">
     <use style="fill:#9e0142;stroke:#000000;" x="1241.806319" xlink:href="#m28bd952181" y="888.28151"/>
    </g>
   </g>
   <g id="line2d_51">
    <g clip-path="url(#p6a0fcb3365)">
     <use style="fill:#9e0142;stroke:#000000;" x="1236.362667" xlink:href="#m28bd952181" y="888.300869"/>
    </g>
   </g>
   <g id="line2d_52">
    <g clip-path="url(#p6a0fcb3365)">
     <use style="fill:#9e0142;stroke:#000000;" x="1239.580155" xlink:href="#m28bd952181" y="888.290168"/>
    </g>
   </g>
   <g id="line2d_53">
    <g clip-path="url(#p6a0fcb3365)">
     <use style="fill:#9e0142;stroke:#000000;" x="1234.202096" xlink:href="#m28bd952181" y="888.313422"/>
    </g>
   </g>
   <g id="line2d_54">
    <g clip-path="url(#p6a0fcb3365)">
     <use style="fill:#9e0142;stroke:#000000;" x="1237.244464" xlink:href="#m28bd952181" y="888.266263"/>
    </g>
   </g>
   <g id="line2d_55">
    <g clip-path="url(#p6a0fcb3365)">
     <use style="fill:#9e0142;stroke:#000000;" x="1234.179063" xlink:href="#m28bd952181" y="888.288577"/>
    </g>
   </g>
   <g id="line2d_56">
    <g clip-path="url(#p6a0fcb3365)">
     <use style="fill:#9e0142;stroke:#000000;" x="1245.241098" xlink:href="#m28bd952181" y="888.277665"/>
    </g>
   </g>
   <g id="line2d_57">
    <g clip-path="url(#p6a0fcb3365)">
     <use style="fill:#9e0142;stroke:#000000;" x="1236.503504" xlink:href="#m28bd952181" y="888.318285"/>
    </g>
   </g>
   <g id="line2d_58">
    <g clip-path="url(#p6a0fcb3365)">
     <use style="fill:#9e0142;stroke:#000000;" x="1238.762234" xlink:href="#m28bd952181" y="888.271867"/>
    </g>
   </g>
   <g id="line2d_59">
    <g clip-path="url(#p6a0fcb3365)">
     <use style="fill:#9e0142;stroke:#000000;" x="1232.540745" xlink:href="#m28bd952181" y="888.26029"/>
    </g>
   </g>
   <g id="line2d_60">
    <g clip-path="url(#p6a0fcb3365)">
     <use style="fill:#9e0142;stroke:#000000;" x="1237.001182" xlink:href="#m28bd952181" y="888.310024"/>
    </g>
   </g>
   <g id="line2d_61">
    <g clip-path="url(#p6a0fcb3365)">
     <use style="fill:#9e0142;stroke:#000000;" x="1233.523264" xlink:href="#m28bd952181" y="888.321749"/>
    </g>
   </g>
   <g id="line2d_62">
    <g clip-path="url(#p6a0fcb3365)">
     <use style="fill:#9e0142;stroke:#000000;" x="1242.720643" xlink:href="#m28bd952181" y="888.266179"/>
    </g>
   </g>
   <g id="line2d_63">
    <g clip-path="url(#p6a0fcb3365)">
     <use style="fill:#9e0142;stroke:#000000;" x="1236.511828" xlink:href="#m28bd952181" y="888.290049"/>
    </g>
   </g>
   <g id="line2d_64">
    <g clip-path="url(#p6a0fcb3365)">
     <use style="fill:#9e0142;stroke:#000000;" x="1234.172092" xlink:href="#m28bd952181" y="888.287988"/>
    </g>
   </g>
   <g id="line2d_65">
    <g clip-path="url(#p6a0fcb3365)">
     <use style="fill:#9e0142;stroke:#000000;" x="1242.919434" xlink:href="#m28bd952181" y="888.286435"/>
    </g>
   </g>
   <g id="line2d_66">
    <g clip-path="url(#p6a0fcb3365)">
     <use style="fill:#9e0142;stroke:#000000;" x="1243.913911" xlink:href="#m28bd952181" y="888.276224"/>
    </g>
   </g>
   <g id="line2d_67">
    <g clip-path="url(#p6a0fcb3365)">
     <use style="fill:#9e0142;stroke:#000000;" x="1243.034227" xlink:href="#m28bd952181" y="888.275212"/>
    </g>
   </g>
   <g id="line2d_68">
    <g clip-path="url(#p6a0fcb3365)">
     <use style="fill:#9e0142;stroke:#000000;" x="1235.202732" xlink:href="#m28bd952181" y="888.300695"/>
    </g>
   </g>
   <g id="line2d_69">
    <g clip-path="url(#p6a0fcb3365)">
     <use style="stroke:#000000;" x="642.471437" xlink:href="#mb69d57952a" y="363.074749"/>
    </g>
   </g>
   <g id="line2d_70">
    <g clip-path="url(#p6a0fcb3365)">
     <use style="fill:#9e0142;stroke:#000000;" x="1238.212794" xlink:href="#m28bd952181" y="888.299018"/>
    </g>
   </g>
   <g id="line2d_71">
    <g clip-path="url(#p6a0fcb3365)">
     <use style="fill:#ffffbe;stroke:#000000;" x="610.575923" xlink:href="#m97c6560e3e" y="229.074799"/>
    </g>
   </g>
   <g id="line2d_72">
    <g clip-path="url(#p6a0fcb3365)">
     <use style="fill:#9e0142;stroke:#000000;" x="1244.758636" xlink:href="#m28bd952181" y="888.280055"/>
    </g>
   </g>
   <g id="line2d_73">
    <g clip-path="url(#p6a0fcb3365)">
     <use style="fill:#9e0142;stroke:#000000;" x="1240.877097" xlink:href="#m28bd952181" y="888.278393"/>
    </g>
   </g>
   <g id="line2d_74">
    <g clip-path="url(#p6a0fcb3365)">
     <use style="fill:#9e0142;stroke:#000000;" x="1236.408817" xlink:href="#m28bd952181" y="888.304023"/>
    </g>
   </g>
   <g id="line2d_75">
    <g clip-path="url(#p6a0fcb3365)">
     <use style="fill:#9e0142;stroke:#000000;" x="1239.89238" xlink:href="#m28bd952181" y="888.309021"/>
    </g>
   </g>
   <g id="line2d_76">
    <g clip-path="url(#p6a0fcb3365)">
     <use style="fill:#9e0142;stroke:#000000;" x="1242.662092" xlink:href="#m28bd952181" y="888.314689"/>
    </g>
   </g>
   <g id="line2d_77">
    <g clip-path="url(#p6a0fcb3365)">
     <use style="fill:#9e0142;stroke:#000000;" x="1243.513879" xlink:href="#m28bd952181" y="888.274749"/>
    </g>
   </g>
   <g id="line2d_78">
    <g clip-path="url(#p6a0fcb3365)">
     <use style="fill:#9e0142;stroke:#000000;" x="1243.963768" xlink:href="#m28bd952181" y="888.279121"/>
    </g>
   </g>
   <g id="line2d_79">
    <g clip-path="url(#p6a0fcb3365)">
     <use style="fill:#9e0142;stroke:#000000;" x="1232.667335" xlink:href="#m28bd952181" y="888.271179"/>
    </g>
   </g>
   <g id="line2d_80">
    <g clip-path="url(#p6a0fcb3365)">
     <use style="fill:#9e0142;stroke:#000000;" x="1242.190458" xlink:href="#m28bd952181" y="888.312015"/>
    </g>
   </g>
   <g id="line2d_81">
    <g clip-path="url(#p6a0fcb3365)">
     <use style="fill:#9e0142;stroke:#000000;" x="1237.789502" xlink:href="#m28bd952181" y="888.289734"/>
    </g>
   </g>
   <g id="line2d_82">
    <g clip-path="url(#p6a0fcb3365)">
     <use style="fill:#9e0142;stroke:#000000;" x="1237.94592" xlink:href="#m28bd952181" y="888.287022"/>
    </g>
   </g>
   <g id="line2d_83">
    <g clip-path="url(#p6a0fcb3365)">
     <use style="fill:#9e0142;stroke:#000000;" x="1235.091274" xlink:href="#m28bd952181" y="888.321992"/>
    </g>
   </g>
   <g id="line2d_84">
    <g clip-path="url(#p6a0fcb3365)">
     <use style="fill:#9e0142;stroke:#000000;" x="1237.377381" xlink:href="#m28bd952181" y="888.265336"/>
    </g>
   </g>
   <g id="line2d_85">
    <g clip-path="url(#p6a0fcb3365)">
     <use style="fill:#9e0142;stroke:#000000;" x="1233.591556" xlink:href="#m28bd952181" y="888.276201"/>
    </g>
   </g>
   <g id="line2d_86">
    <g clip-path="url(#p6a0fcb3365)">
     <use style="fill:#9e0142;stroke:#000000;" x="1244.731565" xlink:href="#m28bd952181" y="888.265972"/>
    </g>
   </g>
   <g id="line2d_87">
    <g clip-path="url(#p6a0fcb3365)">
     <use style="fill:#9e0142;stroke:#000000;" x="1237.898059" xlink:href="#m28bd952181" y="888.313834"/>
    </g>
   </g>
   <g id="line2d_88">
    <g clip-path="url(#p6a0fcb3365)">
     <use style="fill:#9e0142;stroke:#000000;" x="1241.470554" xlink:href="#m28bd952181" y="888.267969"/>
    </g>
   </g>
   <g id="line2d_89">
    <g clip-path="url(#p6a0fcb3365)">
     <use style="fill:#9e0142;stroke:#000000;" x="1245.144869" xlink:href="#m28bd952181" y="888.301978"/>
    </g>
   </g>
   <g id="line2d_90">
    <g clip-path="url(#p6a0fcb3365)">
     <use style="stroke:#000000;" x="752.890025" xlink:href="#mb69d57952a" y="466.698049"/>
    </g>
   </g>
   <g id="line2d_91">
    <g clip-path="url(#p6a0fcb3365)">
     <use style="fill:#9e0142;stroke:#000000;" x="1243.766604" xlink:href="#m28bd952181" y="888.293108"/>
    </g>
   </g>
   <g id="line2d_92">
    <g clip-path="url(#p6a0fcb3365)">
     <use style="fill:#9e0142;stroke:#000000;" x="1238.507384" xlink:href="#m28bd952181" y="888.285065"/>
    </g>
   </g>
   <g id="line2d_93">
    <g clip-path="url(#p6a0fcb3365)">
     <use style="fill:#9e0142;stroke:#000000;" x="1241.426446" xlink:href="#m28bd952181" y="888.306359"/>
    </g>
   </g>
   <g id="line2d_94">
    <g clip-path="url(#p6a0fcb3365)">
     <use style="stroke:#000000;" x="986.170799" xlink:href="#mb69d57952a" y="1231.2"/>
    </g>
   </g>
   <g id="line2d_95">
    <g clip-path="url(#p6a0fcb3365)">
     <use style="fill:#9e0142;stroke:#000000;" x="1243.431431" xlink:href="#m28bd952181" y="888.291802"/>
    </g>
   </g>
   <g id="line2d_96">
    <g clip-path="url(#p6a0fcb3365)">
     <use style="fill:#9e0142;stroke:#000000;" x="1243.337075" xlink:href="#m28bd952181" y="888.280663"/>
    </g>
   </g>
   <g id="line2d_97">
    <g clip-path="url(#p6a0fcb3365)">
     <use style="fill:#ffffbe;stroke:#000000;" x="610.550598" xlink:href="#m97c6560e3e" y="232.154357"/>
    </g>
   </g>
   <g id="line2d_98">
    <g clip-path="url(#p6a0fcb3365)">
     <use style="fill:#9e0142;stroke:#000000;" x="1233.670929" xlink:href="#m28bd952181" y="888.299663"/>
    </g>
   </g>
   <g id="line2d_99">
    <g clip-path="url(#p6a0fcb3365)">
     <use style="fill:#9e0142;stroke:#000000;" x="1235.003805" xlink:href="#m28bd952181" y="888.266726"/>
    </g>
   </g>
   <g id="line2d_100">
    <g clip-path="url(#p6a0fcb3365)">
     <use style="fill:#9e0142;stroke:#000000;" x="1242.126594" xlink:href="#m28bd952181" y="888.308789"/>
    </g>
   </g>
   <g id="line2d_101">
    <g clip-path="url(#p6a0fcb3365)">
     <use style="fill:#9e0142;stroke:#000000;" x="1237.568875" xlink:href="#m28bd952181" y="888.29914"/>
    </g>
   </g>
   <g id="line2d_102">
    <g clip-path="url(#p6a0fcb3365)">
     <use style="fill:#9e0142;stroke:#000000;" x="1244.21222" xlink:href="#m28bd952181" y="888.299957"/>
    </g>
   </g>
   <g id="line2d_103">
    <g clip-path="url(#p6a0fcb3365)">
     <use style="fill:#9e0142;stroke:#000000;" x="1242.064857" xlink:href="#m28bd952181" y="888.316678"/>
    </g>
   </g>
   <g id="line2d_104">
    <g clip-path="url(#p6a0fcb3365)">
     <use style="fill:#9e0142;stroke:#000000;" x="1235.060204" xlink:href="#m28bd952181" y="888.302459"/>
    </g>
   </g>
   <g id="line2d_105">
    <g clip-path="url(#p6a0fcb3365)">
     <use style="fill:#9e0142;stroke:#000000;" x="1240.689231" xlink:href="#m28bd952181" y="888.309258"/>
    </g>
   </g>
   <g id="line2d_106">
    <g clip-path="url(#p6a0fcb3365)">
     <use style="stroke:#000000;" x="230.727273" xlink:href="#mb69d57952a" y="989.936956"/>
    </g>
   </g>
   <g id="line2d_107">
    <g clip-path="url(#p6a0fcb3365)">
     <use style="fill:#9e0142;stroke:#000000;" x="1240.175661" xlink:href="#m28bd952181" y="888.276451"/>
    </g>
   </g>
   <g id="line2d_108">
    <g clip-path="url(#p6a0fcb3365)">
     <use style="fill:#9e0142;stroke:#000000;" x="1243.336191" xlink:href="#m28bd952181" y="888.30526"/>
    </g>
   </g>
   <g id="line2d_109">
    <g clip-path="url(#p6a0fcb3365)">
     <use style="fill:#9e0142;stroke:#000000;" x="1244.644903" xlink:href="#m28bd952181" y="888.287292"/>
    </g>
   </g>
   <g id="line2d_110">
    <g clip-path="url(#p6a0fcb3365)">
     <use style="fill:#9e0142;stroke:#000000;" x="1240.496111" xlink:href="#m28bd952181" y="888.324939"/>
    </g>
   </g>
   <g id="line2d_111">
    <g clip-path="url(#p6a0fcb3365)">
     <use style="fill:#9e0142;stroke:#000000;" x="1234.680389" xlink:href="#m28bd952181" y="888.312042"/>
    </g>
   </g>
   <g id="line2d_112">
    <g clip-path="url(#p6a0fcb3365)">
     <use style="fill:#9e0142;stroke:#000000;" x="1240.949518" xlink:href="#m28bd952181" y="888.280935"/>
    </g>
   </g>
   <g id="line2d_113">
    <g clip-path="url(#p6a0fcb3365)">
     <use style="fill:#9e0142;stroke:#000000;" x="1239.016311" xlink:href="#m28bd952181" y="888.272255"/>
    </g>
   </g>
   <g id="line2d_114">
    <g clip-path="url(#p6a0fcb3365)">
     <use style="fill:#9e0142;stroke:#000000;" x="1236.233469" xlink:href="#m28bd952181" y="888.304925"/>
    </g>
   </g>
   <g id="line2d_115">
    <g clip-path="url(#p6a0fcb3365)">
     <use style="fill:#9e0142;stroke:#000000;" x="1241.345428" xlink:href="#m28bd952181" y="888.296533"/>
    </g>
   </g>
   <g id="line2d_116">
    <g clip-path="url(#p6a0fcb3365)">
     <use style="fill:#ffffbe;stroke:#000000;" x="610.685842" xlink:href="#m97c6560e3e" y="233.570869"/>
    </g>
   </g>
   <g id="line2d_117">
    <g clip-path="url(#p6a0fcb3365)">
     <use style="fill:#9e0142;stroke:#000000;" x="1239.768027" xlink:href="#m28bd952181" y="888.315935"/>
    </g>
   </g>
   <g id="line2d_118">
    <g clip-path="url(#p6a0fcb3365)">
     <use style="fill:#9e0142;stroke:#000000;" x="1237.152118" xlink:href="#m28bd952181" y="888.312118"/>
    </g>
   </g>
   <g id="line2d_119">
    <g clip-path="url(#p6a0fcb3365)">
     <use style="fill:#9e0142;stroke:#000000;" x="1238.086887" xlink:href="#m28bd952181" y="888.32149"/>
    </g>
   </g>
   <g id="line2d_120">
    <g clip-path="url(#p6a0fcb3365)">
     <use style="fill:#9e0142;stroke:#000000;" x="1234.269043" xlink:href="#m28bd952181" y="888.265988"/>
    </g>
   </g>
   <g id="line2d_121">
    <g clip-path="url(#p6a0fcb3365)">
     <use style="fill:#9e0142;stroke:#000000;" x="1234.010238" xlink:href="#m28bd952181" y="888.290849"/>
    </g>
   </g>
   <g id="line2d_122">
    <g clip-path="url(#p6a0fcb3365)">
     <use style="fill:#9e0142;stroke:#000000;" x="1233.89114" xlink:href="#m28bd952181" y="888.31939"/>
    </g>
   </g>
   <g id="line2d_123">
    <g clip-path="url(#p6a0fcb3365)">
     <use style="fill:#ffffbe;stroke:#000000;" x="610.52578" xlink:href="#m97c6560e3e" y="226.730305"/>
    </g>
   </g>
   <g id="line2d_124">
    <g clip-path="url(#p6a0fcb3365)">
     <use style="fill:#9e0142;stroke:#000000;" x="1232.910773" xlink:href="#m28bd952181" y="888.299725"/>
    </g>
   </g>
   <g id="line2d_125">
    <g clip-path="url(#p6a0fcb3365)">
     <use style="fill:#9e0142;stroke:#000000;" x="1234.137472" xlink:href="#m28bd952181" y="888.287891"/>
    </g>
   </g>
   <g id="line2d_126">
    <g clip-path="url(#p6a0fcb3365)">
     <use style="fill:#9e0142;stroke:#000000;" x="1237.901441" xlink:href="#m28bd952181" y="888.319514"/>
    </g>
   </g>
   <g id="line2d_127">
    <g clip-path="url(#p6a0fcb3365)">
     <use style="fill:#9e0142;stroke:#000000;" x="1232.58471" xlink:href="#m28bd952181" y="888.287344"/>
    </g>
   </g>
   <g id="line2d_128">
    <g clip-path="url(#p6a0fcb3365)">
     <use style="fill:#9e0142;stroke:#000000;" x="1245.270985" xlink:href="#m28bd952181" y="888.270593"/>
    </g>
   </g>
   <g id="line2d_129">
    <g clip-path="url(#p6a0fcb3365)">
     <use style="fill:#9e0142;stroke:#000000;" x="1237.407918" xlink:href="#m28bd952181" y="888.304234"/>
    </g>
   </g>
   <g id="line2d_130">
    <g clip-path="url(#p6a0fcb3365)">
     <use style="fill:#9e0142;stroke:#000000;" x="1239.257779" xlink:href="#m28bd952181" y="888.275425"/>
    </g>
   </g>
   <g id="line2d_131">
    <g clip-path="url(#p6a0fcb3365)">
     <use style="fill:#9e0142;stroke:#000000;" x="1234.330299" xlink:href="#m28bd952181" y="888.293941"/>
    </g>
   </g>
   <g id="line2d_132">
    <g clip-path="url(#p6a0fcb3365)">
     <use style="fill:#9e0142;stroke:#000000;" x="1243.143312" xlink:href="#m28bd952181" y="888.292536"/>
    </g>
   </g>
   <g id="line2d_133">
    <g clip-path="url(#p6a0fcb3365)">
     <use style="fill:#ffffbe;stroke:#000000;" x="610.729859" xlink:href="#m97c6560e3e" y="223.2"/>
    </g>
   </g>
   <g id="line2d_134">
    <g clip-path="url(#p6a0fcb3365)">
     <use style="fill:#9e0142;stroke:#000000;" x="1243.017001" xlink:href="#m28bd952181" y="888.277014"/>
    </g>
   </g>
   <g id="line2d_135">
    <g clip-path="url(#p6a0fcb3365)">
     <use style="fill:#9e0142;stroke:#000000;" x="1240.70238" xlink:href="#m28bd952181" y="888.307467"/>
    </g>
   </g>
   <g id="line2d_136">
    <g clip-path="url(#p6a0fcb3365)">
     <use style="fill:#9e0142;stroke:#000000;" x="1238.504763" xlink:href="#m28bd952181" y="888.272868"/>
    </g>
   </g>
   <g id="line2d_137">
    <g clip-path="url(#p6a0fcb3365)">
     <use style="fill:#9e0142;stroke:#000000;" x="1244.153416" xlink:href="#m28bd952181" y="888.302436"/>
    </g>
   </g>
   <g id="patch_3">
    <path d="M 180 1281.6 
L 180 172.8 
" style="fill:none;stroke:#000000;stroke-linecap:square;stroke-linejoin:miter;stroke-width:0.8;"/>
   </g>
   <g id="patch_4">
    <path d="M 1296 1281.6 
L 1296 172.8 
" style="fill:none;stroke:#000000;stroke-linecap:square;stroke-linejoin:miter;stroke-width:0.8;"/>
   </g>
   <g id="patch_5">
    <path d="M 180 1281.6 
L 1296 1281.6 
" style="fill:none;stroke:#000000;stroke-linecap:square;stroke-linejoin:miter;stroke-width:0.8;"/>
   </g>
   <g id="patch_6">
    <path d="M 180 172.8 
L 1296 172.8 
" style="fill:none;stroke:#000000;stroke-linecap:square;stroke-linejoin:miter;stroke-width:0.8;"/>
   </g>
  </g>
 </g>
 <defs>
  <clipPath id="p6a0fcb3365">
   <rect height="1108.8" width="1116" x="180" y="172.8"/>
  </clipPath>
 </defs>
</svg>
