<?xml version="1.0" encoding="utf-8" standalone="no"?>
<!DOCTYPE svg PUBLIC "-//W3C//DTD SVG 1.1//EN"
  "http://www.w3.org/Graphics/SVG/1.1/DTD/svg11.dtd">
<!-- Created with matplotlib (https://matplotlib.org/) -->
<svg height="1440pt" version="1.1" viewBox="0 0 1440 1440" width="1440pt" xmlns="http://www.w3.org/2000/svg" xmlns:xlink="http://www.w3.org/1999/xlink">
 <defs>
  <style type="text/css">
*{stroke-linecap:butt;stroke-linejoin:round;}
  </style>
 </defs>
 <g id="figure_1">
  <g id="patch_1">
   <path d="M 0 1440 
L 1440 1440 
L 1440 0 
L 0 0 
z
" style="fill:#ffffff;"/>
  </g>
  <g id="axes_1">
   <g id="patch_2">
    <path d="M 180 1281.6 
L 1296 1281.6 
L 1296 172.8 
L 180 172.8 
z
" style="fill:#ffffff;"/>
   </g>
   <g id="matplotlib.axis_1">
    <g id="xtick_1">
     <g id="line2d_1">
      <defs>
       <path d="M 0 0 
L 0 3.5 
" id="m2095f4bd56" style="stroke:#000000;stroke-width:0.8;"/>
      </defs>
      <g>
       <use style="stroke:#000000;stroke-width:0.8;" x="283.153318" xlink:href="#m2095f4bd56" y="1281.6"/>
      </g>
     </g>
     <g id="text_1">
      <!-- −0.04 -->
      <defs>
       <path d="M 10.59375 35.5 
L 73.1875 35.5 
L 73.1875 27.203125 
L 10.59375 27.203125 
z
" id="DejaVuSans-8722"/>
       <path d="M 31.78125 66.40625 
Q 24.171875 66.40625 20.328125 58.90625 
Q 16.5 51.421875 16.5 36.375 
Q 16.5 21.390625 20.328125 13.890625 
Q 24.171875 6.390625 31.78125 6.390625 
Q 39.453125 6.390625 43.28125 13.890625 
Q 47.125 21.390625 47.125 36.375 
Q 47.125 51.421875 43.28125 58.90625 
Q 39.453125 66.40625 31.78125 66.40625 
z
M 31.78125 74.21875 
Q 44.046875 74.21875 50.515625 64.515625 
Q 56.984375 54.828125 56.984375 36.375 
Q 56.984375 17.96875 50.515625 8.265625 
Q 44.046875 -1.421875 31.78125 -1.421875 
Q 19.53125 -1.421875 13.0625 8.265625 
Q 6.59375 17.96875 6.59375 36.375 
Q 6.59375 54.828125 13.0625 64.515625 
Q 19.53125 74.21875 31.78125 74.21875 
z
" id="DejaVuSans-48"/>
       <path d="M 10.6875 12.40625 
L 21 12.40625 
L 21 0 
L 10.6875 0 
z
" id="DejaVuSans-46"/>
       <path d="M 37.796875 64.3125 
L 12.890625 25.390625 
L 37.796875 25.390625 
z
M 35.203125 72.90625 
L 47.609375 72.90625 
L 47.609375 25.390625 
L 58.015625 25.390625 
L 58.015625 17.1875 
L 47.609375 17.1875 
L 47.609375 0 
L 37.796875 0 
L 37.796875 17.1875 
L 4.890625 17.1875 
L 4.890625 26.703125 
z
" id="DejaVuSans-52"/>
      </defs>
      <g transform="translate(267.830662 1296.198437)scale(0.1 -0.1)">
       <use xlink:href="#DejaVuSans-8722"/>
       <use x="83.789062" xlink:href="#DejaVuSans-48"/>
       <use x="147.412109" xlink:href="#DejaVuSans-46"/>
       <use x="179.199219" xlink:href="#DejaVuSans-48"/>
       <use x="242.822266" xlink:href="#DejaVuSans-52"/>
      </g>
     </g>
    </g>
    <g id="xtick_2">
     <g id="line2d_2">
      <g>
       <use style="stroke:#000000;stroke-width:0.8;" x="426.264926" xlink:href="#m2095f4bd56" y="1281.6"/>
      </g>
     </g>
     <g id="text_2">
      <!-- −0.02 -->
      <defs>
       <path d="M 19.1875 8.296875 
L 53.609375 8.296875 
L 53.609375 0 
L 7.328125 0 
L 7.328125 8.296875 
Q 12.9375 14.109375 22.625 23.890625 
Q 32.328125 33.6875 34.8125 36.53125 
Q 39.546875 41.84375 41.421875 45.53125 
Q 43.3125 49.21875 43.3125 52.78125 
Q 43.3125 58.59375 39.234375 62.25 
Q 35.15625 65.921875 28.609375 65.921875 
Q 23.96875 65.921875 18.8125 64.3125 
Q 13.671875 62.703125 7.8125 59.421875 
L 7.8125 69.390625 
Q 13.765625 71.78125 18.9375 73 
Q 24.125 74.21875 28.421875 74.21875 
Q 39.75 74.21875 46.484375 68.546875 
Q 53.21875 62.890625 53.21875 53.421875 
Q 53.21875 48.921875 51.53125 44.890625 
Q 49.859375 40.875 45.40625 35.40625 
Q 44.1875 33.984375 37.640625 27.21875 
Q 31.109375 20.453125 19.1875 8.296875 
z
" id="DejaVuSans-50"/>
      </defs>
      <g transform="translate(410.94227 1296.198437)scale(0.1 -0.1)">
       <use xlink:href="#DejaVuSans-8722"/>
       <use x="83.789062" xlink:href="#DejaVuSans-48"/>
       <use x="147.412109" xlink:href="#DejaVuSans-46"/>
       <use x="179.199219" xlink:href="#DejaVuSans-48"/>
       <use x="242.822266" xlink:href="#DejaVuSans-50"/>
      </g>
     </g>
    </g>
    <g id="xtick_3">
     <g id="line2d_3">
      <g>
       <use style="stroke:#000000;stroke-width:0.8;" x="569.376534" xlink:href="#m2095f4bd56" y="1281.6"/>
      </g>
     </g>
     <g id="text_3">
      <!-- 0.00 -->
      <g transform="translate(558.243722 1296.198437)scale(0.1 -0.1)">
       <use xlink:href="#DejaVuSans-48"/>
       <use x="63.623047" xlink:href="#DejaVuSans-46"/>
       <use x="95.410156" xlink:href="#DejaVuSans-48"/>
       <use x="159.033203" xlink:href="#DejaVuSans-48"/>
      </g>
     </g>
    </g>
    <g id="xtick_4">
     <g id="line2d_4">
      <g>
       <use style="stroke:#000000;stroke-width:0.8;" x="712.488142" xlink:href="#m2095f4bd56" y="1281.6"/>
      </g>
     </g>
     <g id="text_4">
      <!-- 0.02 -->
      <g transform="translate(701.35533 1296.198437)scale(0.1 -0.1)">
       <use xlink:href="#DejaVuSans-48"/>
       <use x="63.623047" xlink:href="#DejaVuSans-46"/>
       <use x="95.410156" xlink:href="#DejaVuSans-48"/>
       <use x="159.033203" xlink:href="#DejaVuSans-50"/>
      </g>
     </g>
    </g>
    <g id="xtick_5">
     <g id="line2d_5">
      <g>
       <use style="stroke:#000000;stroke-width:0.8;" x="855.59975" xlink:href="#m2095f4bd56" y="1281.6"/>
      </g>
     </g>
     <g id="text_5">
      <!-- 0.04 -->
      <g transform="translate(844.466938 1296.198437)scale(0.1 -0.1)">
       <use xlink:href="#DejaVuSans-48"/>
       <use x="63.623047" xlink:href="#DejaVuSans-46"/>
       <use x="95.410156" xlink:href="#DejaVuSans-48"/>
       <use x="159.033203" xlink:href="#DejaVuSans-52"/>
      </g>
     </g>
    </g>
    <g id="xtick_6">
     <g id="line2d_6">
      <g>
       <use style="stroke:#000000;stroke-width:0.8;" x="998.711359" xlink:href="#m2095f4bd56" y="1281.6"/>
      </g>
     </g>
     <g id="text_6">
      <!-- 0.06 -->
      <defs>
       <path d="M 33.015625 40.375 
Q 26.375 40.375 22.484375 35.828125 
Q 18.609375 31.296875 18.609375 23.390625 
Q 18.609375 15.53125 22.484375 10.953125 
Q 26.375 6.390625 33.015625 6.390625 
Q 39.65625 6.390625 43.53125 10.953125 
Q 47.40625 15.53125 47.40625 23.390625 
Q 47.40625 31.296875 43.53125 35.828125 
Q 39.65625 40.375 33.015625 40.375 
z
M 52.59375 71.296875 
L 52.59375 62.3125 
Q 48.875 64.0625 45.09375 64.984375 
Q 41.3125 65.921875 37.59375 65.921875 
Q 27.828125 65.921875 22.671875 59.328125 
Q 17.53125 52.734375 16.796875 39.40625 
Q 19.671875 43.65625 24.015625 45.921875 
Q 28.375 48.1875 33.59375 48.1875 
Q 44.578125 48.1875 50.953125 41.515625 
Q 57.328125 34.859375 57.328125 23.390625 
Q 57.328125 12.15625 50.6875 5.359375 
Q 44.046875 -1.421875 33.015625 -1.421875 
Q 20.359375 -1.421875 13.671875 8.265625 
Q 6.984375 17.96875 6.984375 36.375 
Q 6.984375 53.65625 15.1875 63.9375 
Q 23.390625 74.21875 37.203125 74.21875 
Q 40.921875 74.21875 44.703125 73.484375 
Q 48.484375 72.75 52.59375 71.296875 
z
" id="DejaVuSans-54"/>
      </defs>
      <g transform="translate(987.578546 1296.198437)scale(0.1 -0.1)">
       <use xlink:href="#DejaVuSans-48"/>
       <use x="63.623047" xlink:href="#DejaVuSans-46"/>
       <use x="95.410156" xlink:href="#DejaVuSans-48"/>
       <use x="159.033203" xlink:href="#DejaVuSans-54"/>
      </g>
     </g>
    </g>
    <g id="xtick_7">
     <g id="line2d_7">
      <g>
       <use style="stroke:#000000;stroke-width:0.8;" x="1141.822967" xlink:href="#m2095f4bd56" y="1281.6"/>
      </g>
     </g>
     <g id="text_7">
      <!-- 0.08 -->
      <defs>
       <path d="M 31.78125 34.625 
Q 24.75 34.625 20.71875 30.859375 
Q 16.703125 27.09375 16.703125 20.515625 
Q 16.703125 13.921875 20.71875 10.15625 
Q 24.75 6.390625 31.78125 6.390625 
Q 38.8125 6.390625 42.859375 10.171875 
Q 46.921875 13.96875 46.921875 20.515625 
Q 46.921875 27.09375 42.890625 30.859375 
Q 38.875 34.625 31.78125 34.625 
z
M 21.921875 38.8125 
Q 15.578125 40.375 12.03125 44.71875 
Q 8.5 49.078125 8.5 55.328125 
Q 8.5 64.0625 14.71875 69.140625 
Q 20.953125 74.21875 31.78125 74.21875 
Q 42.671875 74.21875 48.875 69.140625 
Q 55.078125 64.0625 55.078125 55.328125 
Q 55.078125 49.078125 51.53125 44.71875 
Q 48 40.375 41.703125 38.8125 
Q 48.828125 37.15625 52.796875 32.3125 
Q 56.78125 27.484375 56.78125 20.515625 
Q 56.78125 9.90625 50.3125 4.234375 
Q 43.84375 -1.421875 31.78125 -1.421875 
Q 19.734375 -1.421875 13.25 4.234375 
Q 6.78125 9.90625 6.78125 20.515625 
Q 6.78125 27.484375 10.78125 32.3125 
Q 14.796875 37.15625 21.921875 38.8125 
z
M 18.3125 54.390625 
Q 18.3125 48.734375 21.84375 45.5625 
Q 25.390625 42.390625 31.78125 42.390625 
Q 38.140625 42.390625 41.71875 45.5625 
Q 45.3125 48.734375 45.3125 54.390625 
Q 45.3125 60.0625 41.71875 63.234375 
Q 38.140625 66.40625 31.78125 66.40625 
Q 25.390625 66.40625 21.84375 63.234375 
Q 18.3125 60.0625 18.3125 54.390625 
z
" id="DejaVuSans-56"/>
      </defs>
      <g transform="translate(1130.690154 1296.198437)scale(0.1 -0.1)">
       <use xlink:href="#DejaVuSans-48"/>
       <use x="63.623047" xlink:href="#DejaVuSans-46"/>
       <use x="95.410156" xlink:href="#DejaVuSans-48"/>
       <use x="159.033203" xlink:href="#DejaVuSans-56"/>
      </g>
     </g>
    </g>
    <g id="xtick_8">
     <g id="line2d_8">
      <g>
       <use style="stroke:#000000;stroke-width:0.8;" x="1284.934575" xlink:href="#m2095f4bd56" y="1281.6"/>
      </g>
     </g>
     <g id="text_8">
      <!-- 0.10 -->
      <defs>
       <path d="M 12.40625 8.296875 
L 28.515625 8.296875 
L 28.515625 63.921875 
L 10.984375 60.40625 
L 10.984375 69.390625 
L 28.421875 72.90625 
L 38.28125 72.90625 
L 38.28125 8.296875 
L 54.390625 8.296875 
L 54.390625 0 
L 12.40625 0 
z
" id="DejaVuSans-49"/>
      </defs>
      <g transform="translate(1273.801762 1296.198437)scale(0.1 -0.1)">
       <use xlink:href="#DejaVuSans-48"/>
       <use x="63.623047" xlink:href="#DejaVuSans-46"/>
       <use x="95.410156" xlink:href="#DejaVuSans-49"/>
       <use x="159.033203" xlink:href="#DejaVuSans-48"/>
      </g>
     </g>
    </g>
   </g>
   <g id="matplotlib.axis_2">
    <g id="ytick_1">
     <g id="line2d_9">
      <defs>
       <path d="M 0 0 
L -3.5 0 
" id="m417a1922e0" style="stroke:#000000;stroke-width:0.8;"/>
      </defs>
      <g>
       <use style="stroke:#000000;stroke-width:0.8;" x="180" xlink:href="#m417a1922e0" y="1169.662377"/>
      </g>
     </g>
     <g id="text_9">
      <!-- −0.050 -->
      <defs>
       <path d="M 10.796875 72.90625 
L 49.515625 72.90625 
L 49.515625 64.59375 
L 19.828125 64.59375 
L 19.828125 46.734375 
Q 21.96875 47.46875 24.109375 47.828125 
Q 26.265625 48.1875 28.421875 48.1875 
Q 40.625 48.1875 47.75 41.5 
Q 54.890625 34.8125 54.890625 23.390625 
Q 54.890625 11.625 47.5625 5.09375 
Q 40.234375 -1.421875 26.90625 -1.421875 
Q 22.3125 -1.421875 17.546875 -0.640625 
Q 12.796875 0.140625 7.71875 1.703125 
L 7.71875 11.625 
Q 12.109375 9.234375 16.796875 8.0625 
Q 21.484375 6.890625 26.703125 6.890625 
Q 35.15625 6.890625 40.078125 11.328125 
Q 45.015625 15.765625 45.015625 23.390625 
Q 45.015625 31 40.078125 35.4375 
Q 35.15625 39.890625 26.703125 39.890625 
Q 22.75 39.890625 18.8125 39.015625 
Q 14.890625 38.140625 10.796875 36.28125 
z
" id="DejaVuSans-53"/>
      </defs>
      <g transform="translate(135.992188 1173.461595)scale(0.1 -0.1)">
       <use xlink:href="#DejaVuSans-8722"/>
       <use x="83.789062" xlink:href="#DejaVuSans-48"/>
       <use x="147.412109" xlink:href="#DejaVuSans-46"/>
       <use x="179.199219" xlink:href="#DejaVuSans-48"/>
       <use x="242.822266" xlink:href="#DejaVuSans-53"/>
       <use x="306.445312" xlink:href="#DejaVuSans-48"/>
      </g>
     </g>
    </g>
    <g id="ytick_2">
     <g id="line2d_10">
      <g>
       <use style="stroke:#000000;stroke-width:0.8;" x="180" xlink:href="#m417a1922e0" y="1043.394315"/>
      </g>
     </g>
     <g id="text_10">
      <!-- −0.025 -->
      <g transform="translate(135.992188 1047.193534)scale(0.1 -0.1)">
       <use xlink:href="#DejaVuSans-8722"/>
       <use x="83.789062" xlink:href="#DejaVuSans-48"/>
       <use x="147.412109" xlink:href="#DejaVuSans-46"/>
       <use x="179.199219" xlink:href="#DejaVuSans-48"/>
       <use x="242.822266" xlink:href="#DejaVuSans-50"/>
       <use x="306.445312" xlink:href="#DejaVuSans-53"/>
      </g>
     </g>
    </g>
    <g id="ytick_3">
     <g id="line2d_11">
      <g>
       <use style="stroke:#000000;stroke-width:0.8;" x="180" xlink:href="#m417a1922e0" y="917.126254"/>
      </g>
     </g>
     <g id="text_11">
      <!-- 0.000 -->
      <g transform="translate(144.371875 920.925473)scale(0.1 -0.1)">
       <use xlink:href="#DejaVuSans-48"/>
       <use x="63.623047" xlink:href="#DejaVuSans-46"/>
       <use x="95.410156" xlink:href="#DejaVuSans-48"/>
       <use x="159.033203" xlink:href="#DejaVuSans-48"/>
       <use x="222.65625" xlink:href="#DejaVuSans-48"/>
      </g>
     </g>
    </g>
    <g id="ytick_4">
     <g id="line2d_12">
      <g>
       <use style="stroke:#000000;stroke-width:0.8;" x="180" xlink:href="#m417a1922e0" y="790.858193"/>
      </g>
     </g>
     <g id="text_12">
      <!-- 0.025 -->
      <g transform="translate(144.371875 794.657411)scale(0.1 -0.1)">
       <use xlink:href="#DejaVuSans-48"/>
       <use x="63.623047" xlink:href="#DejaVuSans-46"/>
       <use x="95.410156" xlink:href="#DejaVuSans-48"/>
       <use x="159.033203" xlink:href="#DejaVuSans-50"/>
       <use x="222.65625" xlink:href="#DejaVuSans-53"/>
      </g>
     </g>
    </g>
    <g id="ytick_5">
     <g id="line2d_13">
      <g>
       <use style="stroke:#000000;stroke-width:0.8;" x="180" xlink:href="#m417a1922e0" y="664.590131"/>
      </g>
     </g>
     <g id="text_13">
      <!-- 0.050 -->
      <g transform="translate(144.371875 668.38935)scale(0.1 -0.1)">
       <use xlink:href="#DejaVuSans-48"/>
       <use x="63.623047" xlink:href="#DejaVuSans-46"/>
       <use x="95.410156" xlink:href="#DejaVuSans-48"/>
       <use x="159.033203" xlink:href="#DejaVuSans-53"/>
       <use x="222.65625" xlink:href="#DejaVuSans-48"/>
      </g>
     </g>
    </g>
    <g id="ytick_6">
     <g id="line2d_14">
      <g>
       <use style="stroke:#000000;stroke-width:0.8;" x="180" xlink:href="#m417a1922e0" y="538.32207"/>
      </g>
     </g>
     <g id="text_14">
      <!-- 0.075 -->
      <defs>
       <path d="M 8.203125 72.90625 
L 55.078125 72.90625 
L 55.078125 68.703125 
L 28.609375 0 
L 18.3125 0 
L 43.21875 64.59375 
L 8.203125 64.59375 
z
" id="DejaVuSans-55"/>
      </defs>
      <g transform="translate(144.371875 542.121289)scale(0.1 -0.1)">
       <use xlink:href="#DejaVuSans-48"/>
       <use x="63.623047" xlink:href="#DejaVuSans-46"/>
       <use x="95.410156" xlink:href="#DejaVuSans-48"/>
       <use x="159.033203" xlink:href="#DejaVuSans-55"/>
       <use x="222.65625" xlink:href="#DejaVuSans-53"/>
      </g>
     </g>
    </g>
    <g id="ytick_7">
     <g id="line2d_15">
      <g>
       <use style="stroke:#000000;stroke-width:0.8;" x="180" xlink:href="#m417a1922e0" y="412.054009"/>
      </g>
     </g>
     <g id="text_15">
      <!-- 0.100 -->
      <g transform="translate(144.371875 415.853227)scale(0.1 -0.1)">
       <use xlink:href="#DejaVuSans-48"/>
       <use x="63.623047" xlink:href="#DejaVuSans-46"/>
       <use x="95.410156" xlink:href="#DejaVuSans-49"/>
       <use x="159.033203" xlink:href="#DejaVuSans-48"/>
       <use x="222.65625" xlink:href="#DejaVuSans-48"/>
      </g>
     </g>
    </g>
    <g id="ytick_8">
     <g id="line2d_16">
      <g>
       <use style="stroke:#000000;stroke-width:0.8;" x="180" xlink:href="#m417a1922e0" y="285.785947"/>
      </g>
     </g>
     <g id="text_16">
      <!-- 0.125 -->
      <g transform="translate(144.371875 289.585166)scale(0.1 -0.1)">
       <use xlink:href="#DejaVuSans-48"/>
       <use x="63.623047" xlink:href="#DejaVuSans-46"/>
       <use x="95.410156" xlink:href="#DejaVuSans-49"/>
       <use x="159.033203" xlink:href="#DejaVuSans-50"/>
       <use x="222.65625" xlink:href="#DejaVuSans-53"/>
      </g>
     </g>
    </g>
   </g>
   <g id="line2d_17">
    <defs>
     <path d="M 0 9 
C 2.386828 9 4.676219 8.051703 6.363961 6.363961 
C 8.051703 4.676219 9 2.386828 9 0 
C 9 -2.386828 8.051703 -4.676219 6.363961 -6.363961 
C 4.676219 -8.051703 2.386828 -9 0 -9 
C -2.386828 -9 -4.676219 -8.051703 -6.363961 -6.363961 
C -8.051703 -4.676219 -9 -2.386828 -9 0 
C -9 2.386828 -8.051703 4.676219 -6.363961 6.363961 
C -4.676219 8.051703 -2.386828 9 0 9 
z
" id="m43a697871a" style="stroke:#000000;"/>
    </defs>
    <g clip-path="url(#p4bf17eaac5)">
     <use style="fill:#9e0142;stroke:#000000;" x="232.140306" xlink:href="#m43a697871a" y="223.2"/>
    </g>
   </g>
   <g id="line2d_18">
    <defs>
     <path d="M 0 9 
C 2.386828 9 4.676219 8.051703 6.363961 6.363961 
C 8.051703 4.676219 9 2.386828 9 0 
C 9 -2.386828 8.051703 -4.676219 6.363961 -6.363961 
C 4.676219 -8.051703 2.386828 -9 0 -9 
C -2.386828 -9 -4.676219 -8.051703 -6.363961 -6.363961 
C -8.051703 -4.676219 -9 -2.386828 -9 0 
C -9 2.386828 -8.051703 4.676219 -6.363961 6.363961 
C -4.676219 8.051703 -2.386828 9 0 9 
z
" id="m1c8cd61ef7" style="stroke:#000000;"/>
    </defs>
    <g clip-path="url(#p4bf17eaac5)">
     <use style="fill:#ffffbe;stroke:#000000;" x="1238.622592" xlink:href="#m1c8cd61ef7" y="759.907742"/>
    </g>
   </g>
   <g id="line2d_19">
    <g clip-path="url(#p4bf17eaac5)">
     <use style="fill:#9e0142;stroke:#000000;" x="232.869752" xlink:href="#m43a697871a" y="231.596671"/>
    </g>
   </g>
   <g id="line2d_20">
    <g clip-path="url(#p4bf17eaac5)">
     <use style="fill:#9e0142;stroke:#000000;" x="236.694431" xlink:href="#m43a697871a" y="232.985014"/>
    </g>
   </g>
   <g id="line2d_21">
    <g clip-path="url(#p4bf17eaac5)">
     <use style="fill:#ffffbe;stroke:#000000;" x="1238.43411" xlink:href="#m1c8cd61ef7" y="757.567788"/>
    </g>
   </g>
   <g id="line2d_22">
    <g clip-path="url(#p4bf17eaac5)">
     <use style="fill:#9e0142;stroke:#000000;" x="234.786261" xlink:href="#m43a697871a" y="232.745014"/>
    </g>
   </g>
   <g id="line2d_23">
    <g clip-path="url(#p4bf17eaac5)">
     <use style="fill:#ffffbe;stroke:#000000;" x="1234.651206" xlink:href="#m1c8cd61ef7" y="758.573147"/>
    </g>
   </g>
   <g id="line2d_24">
    <g clip-path="url(#p4bf17eaac5)">
     <use style="fill:#9e0142;stroke:#000000;" x="233.258499" xlink:href="#m43a697871a" y="230.241271"/>
    </g>
   </g>
   <g id="line2d_25">
    <g clip-path="url(#p4bf17eaac5)">
     <use style="fill:#ffffbe;stroke:#000000;" x="1243.634358" xlink:href="#m1c8cd61ef7" y="758.245536"/>
    </g>
   </g>
   <g id="line2d_26">
    <g clip-path="url(#p4bf17eaac5)">
     <use style="fill:#9e0142;stroke:#000000;" x="236.14659" xlink:href="#m43a697871a" y="230.737714"/>
    </g>
   </g>
   <g id="line2d_27">
    <g clip-path="url(#p4bf17eaac5)">
     <use style="fill:#9e0142;stroke:#000000;" x="232.204672" xlink:href="#m43a697871a" y="235.100021"/>
    </g>
   </g>
   <g id="line2d_28">
    <g clip-path="url(#p4bf17eaac5)">
     <use style="fill:#9e0142;stroke:#000000;" x="232.448486" xlink:href="#m43a697871a" y="232.858211"/>
    </g>
   </g>
   <g id="line2d_29">
    <g clip-path="url(#p4bf17eaac5)">
     <use style="fill:#9e0142;stroke:#000000;" x="233.841743" xlink:href="#m43a697871a" y="236.501914"/>
    </g>
   </g>
   <g id="line2d_30">
    <g clip-path="url(#p4bf17eaac5)">
     <use style="fill:#9e0142;stroke:#000000;" x="236.312108" xlink:href="#m43a697871a" y="231.897718"/>
    </g>
   </g>
   <g id="line2d_31">
    <g clip-path="url(#p4bf17eaac5)">
     <use style="fill:#ffffbe;stroke:#000000;" x="1234.877952" xlink:href="#m1c8cd61ef7" y="759.135439"/>
    </g>
   </g>
   <g id="line2d_32">
    <g clip-path="url(#p4bf17eaac5)">
     <use style="fill:#ffffbe;stroke:#000000;" x="1236.818055" xlink:href="#m1c8cd61ef7" y="759.891627"/>
    </g>
   </g>
   <g id="line2d_33">
    <g clip-path="url(#p4bf17eaac5)">
     <use style="fill:#9e0142;stroke:#000000;" x="231.173401" xlink:href="#m43a697871a" y="230.664716"/>
    </g>
   </g>
   <g id="line2d_34">
    <g clip-path="url(#p4bf17eaac5)">
     <use style="fill:#9e0142;stroke:#000000;" x="234.002303" xlink:href="#m43a697871a" y="229.974458"/>
    </g>
   </g>
   <g id="line2d_35">
    <defs>
     <path d="M 0 3 
C 0.795609 3 1.55874 2.683901 2.12132 2.12132 
C 2.683901 1.55874 3 0.795609 3 0 
C 3 -0.795609 2.683901 -1.55874 2.12132 -2.12132 
C 1.55874 -2.683901 0.795609 -3 0 -3 
C -0.795609 -3 -1.55874 -2.683901 -2.12132 -2.12132 
C -2.683901 -1.55874 -3 -0.795609 -3 0 
C -3 0.795609 -2.683901 1.55874 -2.12132 2.12132 
C -1.55874 2.683901 -0.795609 3 0 3 
z
" id="m041b804d79" style="stroke:#000000;"/>
    </defs>
    <g clip-path="url(#p4bf17eaac5)">
     <use style="stroke:#000000;" x="727.650914" xlink:href="#m041b804d79" y="519.298803"/>
    </g>
   </g>
   <g id="line2d_36">
    <g clip-path="url(#p4bf17eaac5)">
     <use style="fill:#ffffbe;stroke:#000000;" x="1236.52027" xlink:href="#m1c8cd61ef7" y="757.646363"/>
    </g>
   </g>
   <g id="line2d_37">
    <g clip-path="url(#p4bf17eaac5)">
     <use style="fill:#ffffbe;stroke:#000000;" x="1241.003731" xlink:href="#m1c8cd61ef7" y="759.124869"/>
    </g>
   </g>
   <g id="line2d_38">
    <g clip-path="url(#p4bf17eaac5)">
     <use style="fill:#ffffbe;stroke:#000000;" x="1237.204771" xlink:href="#m1c8cd61ef7" y="758.362175"/>
    </g>
   </g>
   <g id="line2d_39">
    <g clip-path="url(#p4bf17eaac5)">
     <use style="fill:#ffffbe;stroke:#000000;" x="1241.998888" xlink:href="#m1c8cd61ef7" y="760.015662"/>
    </g>
   </g>
   <g id="line2d_40">
    <g clip-path="url(#p4bf17eaac5)">
     <use style="fill:#ffffbe;stroke:#000000;" x="1241.059149" xlink:href="#m1c8cd61ef7" y="760.155594"/>
    </g>
   </g>
   <g id="line2d_41">
    <g clip-path="url(#p4bf17eaac5)">
     <use style="fill:#ffffbe;stroke:#000000;" x="1234.957773" xlink:href="#m1c8cd61ef7" y="759.553327"/>
    </g>
   </g>
   <g id="line2d_42">
    <g clip-path="url(#p4bf17eaac5)">
     <use style="fill:#ffffbe;stroke:#000000;" x="1238.338942" xlink:href="#m1c8cd61ef7" y="757.89197"/>
    </g>
   </g>
   <g id="line2d_43">
    <g clip-path="url(#p4bf17eaac5)">
     <use style="fill:#ffffbe;stroke:#000000;" x="1239.860236" xlink:href="#m1c8cd61ef7" y="757.832559"/>
    </g>
   </g>
   <g id="line2d_44">
    <g clip-path="url(#p4bf17eaac5)">
     <use style="fill:#ffffbe;stroke:#000000;" x="1241.408745" xlink:href="#m1c8cd61ef7" y="758.34315"/>
    </g>
   </g>
   <g id="line2d_45">
    <g clip-path="url(#p4bf17eaac5)">
     <use style="fill:#ffffbe;stroke:#000000;" x="1232.93135" xlink:href="#m1c8cd61ef7" y="757.936492"/>
    </g>
   </g>
   <g id="line2d_46">
    <g clip-path="url(#p4bf17eaac5)">
     <use style="fill:#9e0142;stroke:#000000;" x="230.727273" xlink:href="#m43a697871a" y="235.456426"/>
    </g>
   </g>
   <g id="line2d_47">
    <g clip-path="url(#p4bf17eaac5)">
     <use style="fill:#ffffbe;stroke:#000000;" x="1241.651474" xlink:href="#m1c8cd61ef7" y="757.488965"/>
    </g>
   </g>
   <g id="line2d_48">
    <g clip-path="url(#p4bf17eaac5)">
     <use style="fill:#9e0142;stroke:#000000;" x="236.543969" xlink:href="#m43a697871a" y="228.894392"/>
    </g>
   </g>
   <g id="line2d_49">
    <g clip-path="url(#p4bf17eaac5)">
     <use style="fill:#9e0142;stroke:#000000;" x="231.917715" xlink:href="#m43a697871a" y="230.787416"/>
    </g>
   </g>
   <g id="line2d_50">
    <g clip-path="url(#p4bf17eaac5)">
     <use style="fill:#9e0142;stroke:#000000;" x="233.92386" xlink:href="#m43a697871a" y="231.808407"/>
    </g>
   </g>
   <g id="line2d_51">
    <g clip-path="url(#p4bf17eaac5)">
     <use style="fill:#9e0142;stroke:#000000;" x="235.199834" xlink:href="#m43a697871a" y="233.057647"/>
    </g>
   </g>
   <g id="line2d_52">
    <g clip-path="url(#p4bf17eaac5)">
     <use style="fill:#9e0142;stroke:#000000;" x="233.915775" xlink:href="#m43a697871a" y="231.113875"/>
    </g>
   </g>
   <g id="line2d_53">
    <g clip-path="url(#p4bf17eaac5)">
     <use style="fill:#ffffbe;stroke:#000000;" x="1242.511264" xlink:href="#m1c8cd61ef7" y="758.842286"/>
    </g>
   </g>
   <g id="line2d_54">
    <g clip-path="url(#p4bf17eaac5)">
     <use style="fill:#9e0142;stroke:#000000;" x="237.157894" xlink:href="#m43a697871a" y="227.887838"/>
    </g>
   </g>
   <g id="line2d_55">
    <g clip-path="url(#p4bf17eaac5)">
     <use style="fill:#ffffbe;stroke:#000000;" x="1236.473385" xlink:href="#m1c8cd61ef7" y="758.042182"/>
    </g>
   </g>
   <g id="line2d_56">
    <g clip-path="url(#p4bf17eaac5)">
     <use style="fill:#9e0142;stroke:#000000;" x="235.144268" xlink:href="#m43a697871a" y="223.860064"/>
    </g>
   </g>
   <g id="line2d_57">
    <g clip-path="url(#p4bf17eaac5)">
     <use style="fill:#9e0142;stroke:#000000;" x="232.552755" xlink:href="#m43a697871a" y="235.962929"/>
    </g>
   </g>
   <g id="line2d_58">
    <g clip-path="url(#p4bf17eaac5)">
     <use style="fill:#ffffbe;stroke:#000000;" x="1233.288462" xlink:href="#m1c8cd61ef7" y="759.074859"/>
    </g>
   </g>
   <g id="line2d_59">
    <g clip-path="url(#p4bf17eaac5)">
     <use style="fill:#9e0142;stroke:#000000;" x="234.189587" xlink:href="#m43a697871a" y="223.459982"/>
    </g>
   </g>
   <g id="line2d_60">
    <g clip-path="url(#p4bf17eaac5)">
     <use style="fill:#ffffbe;stroke:#000000;" x="1235.185683" xlink:href="#m1c8cd61ef7" y="757.441361"/>
    </g>
   </g>
   <g id="line2d_61">
    <g clip-path="url(#p4bf17eaac5)">
     <use style="fill:#9e0142;stroke:#000000;" x="236.353155" xlink:href="#m43a697871a" y="231.517496"/>
    </g>
   </g>
   <g id="line2d_62">
    <g clip-path="url(#p4bf17eaac5)">
     <use style="fill:#ffffbe;stroke:#000000;" x="1242.621679" xlink:href="#m1c8cd61ef7" y="759.124946"/>
    </g>
   </g>
   <g id="line2d_63">
    <g clip-path="url(#p4bf17eaac5)">
     <use style="fill:#9e0142;stroke:#000000;" x="235.278673" xlink:href="#m43a697871a" y="236.188326"/>
    </g>
   </g>
   <g id="line2d_64">
    <g clip-path="url(#p4bf17eaac5)">
     <use style="fill:#ffffbe;stroke:#000000;" x="1243.34771" xlink:href="#m1c8cd61ef7" y="758.257376"/>
    </g>
   </g>
   <g id="line2d_65">
    <g clip-path="url(#p4bf17eaac5)">
     <use style="fill:#9e0142;stroke:#000000;" x="232.366886" xlink:href="#m43a697871a" y="226.09694"/>
    </g>
   </g>
   <g id="line2d_66">
    <g clip-path="url(#p4bf17eaac5)">
     <use style="fill:#ffffbe;stroke:#000000;" x="1245.208213" xlink:href="#m1c8cd61ef7" y="760.504205"/>
    </g>
   </g>
   <g id="line2d_67">
    <g clip-path="url(#p4bf17eaac5)">
     <use style="stroke:#000000;" x="691.008554" xlink:href="#m041b804d79" y="1122.730427"/>
    </g>
   </g>
   <g id="line2d_68">
    <g clip-path="url(#p4bf17eaac5)">
     <use style="fill:#ffffbe;stroke:#000000;" x="1235.2101" xlink:href="#m1c8cd61ef7" y="758.856859"/>
    </g>
   </g>
   <g id="line2d_69">
    <g clip-path="url(#p4bf17eaac5)">
     <use style="fill:#ffffbe;stroke:#000000;" x="1243.029451" xlink:href="#m1c8cd61ef7" y="759.654596"/>
    </g>
   </g>
   <g id="line2d_70">
    <g clip-path="url(#p4bf17eaac5)">
     <use style="fill:#9e0142;stroke:#000000;" x="234.155777" xlink:href="#m43a697871a" y="223.349575"/>
    </g>
   </g>
   <g id="line2d_71">
    <g clip-path="url(#p4bf17eaac5)">
     <use style="fill:#ffffbe;stroke:#000000;" x="1238.825269" xlink:href="#m1c8cd61ef7" y="758.722557"/>
    </g>
   </g>
   <g id="line2d_72">
    <g clip-path="url(#p4bf17eaac5)">
     <use style="fill:#9e0142;stroke:#000000;" x="236.533653" xlink:href="#m43a697871a" y="227.351876"/>
    </g>
   </g>
   <g id="line2d_73">
    <g clip-path="url(#p4bf17eaac5)">
     <use style="fill:#ffffbe;stroke:#000000;" x="1233.328895" xlink:href="#m1c8cd61ef7" y="759.700949"/>
    </g>
   </g>
   <g id="line2d_74">
    <g clip-path="url(#p4bf17eaac5)">
     <use style="stroke:#000000;" x="808.877471" xlink:href="#m041b804d79" y="1097.381997"/>
    </g>
   </g>
   <g id="line2d_75">
    <g clip-path="url(#p4bf17eaac5)">
     <use style="fill:#ffffbe;stroke:#000000;" x="1234.902462" xlink:href="#m1c8cd61ef7" y="760.248749"/>
    </g>
   </g>
   <g id="line2d_76">
    <g clip-path="url(#p4bf17eaac5)">
     <use style="stroke:#000000;" x="948.654894" xlink:href="#m041b804d79" y="725.132585"/>
    </g>
   </g>
   <g id="line2d_77">
    <g clip-path="url(#p4bf17eaac5)">
     <use style="fill:#ffffbe;stroke:#000000;" x="1243.385914" xlink:href="#m1c8cd61ef7" y="758.676681"/>
    </g>
   </g>
   <g id="line2d_78">
    <g clip-path="url(#p4bf17eaac5)">
     <use style="fill:#ffffbe;stroke:#000000;" x="1245.119524" xlink:href="#m1c8cd61ef7" y="759.885285"/>
    </g>
   </g>
   <g id="line2d_79">
    <g clip-path="url(#p4bf17eaac5)">
     <use style="fill:#ffffbe;stroke:#000000;" x="1235.790852" xlink:href="#m1c8cd61ef7" y="759.351313"/>
    </g>
   </g>
   <g id="line2d_80">
    <g clip-path="url(#p4bf17eaac5)">
     <use style="fill:#ffffbe;stroke:#000000;" x="1238.312959" xlink:href="#m1c8cd61ef7" y="757.774058"/>
    </g>
   </g>
   <g id="line2d_81">
    <g clip-path="url(#p4bf17eaac5)">
     <use style="fill:#ffffbe;stroke:#000000;" x="1235.375544" xlink:href="#m1c8cd61ef7" y="757.596729"/>
    </g>
   </g>
   <g id="line2d_82">
    <g clip-path="url(#p4bf17eaac5)">
     <use style="fill:#ffffbe;stroke:#000000;" x="1243.940711" xlink:href="#m1c8cd61ef7" y="759.656574"/>
    </g>
   </g>
   <g id="line2d_83">
    <g clip-path="url(#p4bf17eaac5)">
     <use style="fill:#ffffbe;stroke:#000000;" x="1233.071348" xlink:href="#m1c8cd61ef7" y="760.367629"/>
    </g>
   </g>
   <g id="line2d_84">
    <g clip-path="url(#p4bf17eaac5)">
     <use style="fill:#ffffbe;stroke:#000000;" x="1241.44063" xlink:href="#m1c8cd61ef7" y="758.513338"/>
    </g>
   </g>
   <g id="line2d_85">
    <g clip-path="url(#p4bf17eaac5)">
     <use style="fill:#ffffbe;stroke:#000000;" x="1237.616525" xlink:href="#m1c8cd61ef7" y="760.158237"/>
    </g>
   </g>
   <g id="line2d_86">
    <g clip-path="url(#p4bf17eaac5)">
     <use style="fill:#ffffbe;stroke:#000000;" x="1244.86772" xlink:href="#m1c8cd61ef7" y="758.761644"/>
    </g>
   </g>
   <g id="line2d_87">
    <g clip-path="url(#p4bf17eaac5)">
     <use style="fill:#ffffbe;stroke:#000000;" x="1235.935107" xlink:href="#m1c8cd61ef7" y="758.2419"/>
    </g>
   </g>
   <g id="line2d_88">
    <g clip-path="url(#p4bf17eaac5)">
     <use style="fill:#ffffbe;stroke:#000000;" x="1232.861522" xlink:href="#m1c8cd61ef7" y="757.504033"/>
    </g>
   </g>
   <g id="line2d_89">
    <g clip-path="url(#p4bf17eaac5)">
     <use style="fill:#9e0142;stroke:#000000;" x="231.10052" xlink:href="#m43a697871a" y="230.790344"/>
    </g>
   </g>
   <g id="line2d_90">
    <g clip-path="url(#p4bf17eaac5)">
     <use style="fill:#ffffbe;stroke:#000000;" x="1233.342288" xlink:href="#m1c8cd61ef7" y="757.979629"/>
    </g>
   </g>
   <g id="line2d_91">
    <g clip-path="url(#p4bf17eaac5)">
     <use style="fill:#ffffbe;stroke:#000000;" x="1243.222129" xlink:href="#m1c8cd61ef7" y="760.230749"/>
    </g>
   </g>
   <g id="line2d_92">
    <g clip-path="url(#p4bf17eaac5)">
     <use style="fill:#9e0142;stroke:#000000;" x="236.126984" xlink:href="#m43a697871a" y="225.632697"/>
    </g>
   </g>
   <g id="line2d_93">
    <g clip-path="url(#p4bf17eaac5)">
     <use style="fill:#ffffbe;stroke:#000000;" x="1241.544285" xlink:href="#m1c8cd61ef7" y="757.434678"/>
    </g>
   </g>
   <g id="line2d_94">
    <g clip-path="url(#p4bf17eaac5)">
     <use style="fill:#9e0142;stroke:#000000;" x="233.03003" xlink:href="#m43a697871a" y="233.426236"/>
    </g>
   </g>
   <g id="line2d_95">
    <g clip-path="url(#p4bf17eaac5)">
     <use style="fill:#9e0142;stroke:#000000;" x="233.545865" xlink:href="#m43a697871a" y="233.099234"/>
    </g>
   </g>
   <g id="line2d_96">
    <g clip-path="url(#p4bf17eaac5)">
     <use style="fill:#ffffbe;stroke:#000000;" x="1244.472277" xlink:href="#m1c8cd61ef7" y="758.71322"/>
    </g>
   </g>
   <g id="line2d_97">
    <g clip-path="url(#p4bf17eaac5)">
     <use style="fill:#ffffbe;stroke:#000000;" x="1242.162318" xlink:href="#m1c8cd61ef7" y="760.395628"/>
    </g>
   </g>
   <g id="line2d_98">
    <g clip-path="url(#p4bf17eaac5)">
     <use style="stroke:#000000;" x="771.900287" xlink:href="#m041b804d79" y="1181.170451"/>
    </g>
   </g>
   <g id="line2d_99">
    <g clip-path="url(#p4bf17eaac5)">
     <use style="fill:#ffffbe;stroke:#000000;" x="1244.102742" xlink:href="#m1c8cd61ef7" y="759.55632"/>
    </g>
   </g>
   <g id="line2d_100">
    <g clip-path="url(#p4bf17eaac5)">
     <use style="fill:#ffffbe;stroke:#000000;" x="1242.237279" xlink:href="#m1c8cd61ef7" y="760.082943"/>
    </g>
   </g>
   <g id="line2d_101">
    <g clip-path="url(#p4bf17eaac5)">
     <use style="stroke:#000000;" x="772.256064" xlink:href="#m041b804d79" y="1180.655065"/>
    </g>
   </g>
   <g id="line2d_102">
    <g clip-path="url(#p4bf17eaac5)">
     <use style="fill:#ffffbe;stroke:#000000;" x="1233.541264" xlink:href="#m1c8cd61ef7" y="758.68123"/>
    </g>
   </g>
   <g id="line2d_103">
    <g clip-path="url(#p4bf17eaac5)">
     <use style="stroke:#000000;" x="1239.526202" xlink:href="#m041b804d79" y="773.963326"/>
    </g>
   </g>
   <g id="line2d_104">
    <g clip-path="url(#p4bf17eaac5)">
     <use style="fill:#ffffbe;stroke:#000000;" x="1245.272727" xlink:href="#m1c8cd61ef7" y="758.091894"/>
    </g>
   </g>
   <g id="line2d_105">
    <g clip-path="url(#p4bf17eaac5)">
     <use style="fill:#ffffbe;stroke:#000000;" x="1232.66614" xlink:href="#m1c8cd61ef7" y="758.16369"/>
    </g>
   </g>
   <g id="line2d_106">
    <g clip-path="url(#p4bf17eaac5)">
     <use style="fill:#ffffbe;stroke:#000000;" x="1237.554253" xlink:href="#m1c8cd61ef7" y="758.631508"/>
    </g>
   </g>
   <g id="line2d_107">
    <g clip-path="url(#p4bf17eaac5)">
     <use style="fill:#ffffbe;stroke:#000000;" x="1242.178334" xlink:href="#m1c8cd61ef7" y="758.894304"/>
    </g>
   </g>
   <g id="line2d_108">
    <g clip-path="url(#p4bf17eaac5)">
     <use style="fill:#ffffbe;stroke:#000000;" x="1240.911206" xlink:href="#m1c8cd61ef7" y="760.119756"/>
    </g>
   </g>
   <g id="line2d_109">
    <g clip-path="url(#p4bf17eaac5)">
     <use style="fill:#ffffbe;stroke:#000000;" x="1233.500966" xlink:href="#m1c8cd61ef7" y="760.462201"/>
    </g>
   </g>
   <g id="line2d_110">
    <g clip-path="url(#p4bf17eaac5)">
     <use style="fill:#ffffbe;stroke:#000000;" x="1237.678107" xlink:href="#m1c8cd61ef7" y="760.13677"/>
    </g>
   </g>
   <g id="line2d_111">
    <g clip-path="url(#p4bf17eaac5)">
     <use style="stroke:#000000;" x="670.913688" xlink:href="#m041b804d79" y="1152.060693"/>
    </g>
   </g>
   <g id="line2d_112">
    <g clip-path="url(#p4bf17eaac5)">
     <use style="fill:#ffffbe;stroke:#000000;" x="1237.309918" xlink:href="#m1c8cd61ef7" y="759.329071"/>
    </g>
   </g>
   <g id="line2d_113">
    <g clip-path="url(#p4bf17eaac5)">
     <use style="fill:#ffffbe;stroke:#000000;" x="1236.484496" xlink:href="#m1c8cd61ef7" y="759.140939"/>
    </g>
   </g>
   <g id="line2d_114">
    <g clip-path="url(#p4bf17eaac5)">
     <use style="fill:#ffffbe;stroke:#000000;" x="1235.982272" xlink:href="#m1c8cd61ef7" y="758.734799"/>
    </g>
   </g>
   <g id="line2d_115">
    <g clip-path="url(#p4bf17eaac5)">
     <use style="fill:#ffffbe;stroke:#000000;" x="1243.749492" xlink:href="#m1c8cd61ef7" y="757.679594"/>
    </g>
   </g>
   <g id="line2d_116">
    <g clip-path="url(#p4bf17eaac5)">
     <use style="fill:#ffffbe;stroke:#000000;" x="1243.831769" xlink:href="#m1c8cd61ef7" y="759.20878"/>
    </g>
   </g>
   <g id="line2d_117">
    <g clip-path="url(#p4bf17eaac5)">
     <use style="fill:#ffffbe;stroke:#000000;" x="1243.608711" xlink:href="#m1c8cd61ef7" y="757.571014"/>
    </g>
   </g>
   <g id="line2d_118">
    <g clip-path="url(#p4bf17eaac5)">
     <use style="fill:#ffffbe;stroke:#000000;" x="1239.239955" xlink:href="#m1c8cd61ef7" y="759.092247"/>
    </g>
   </g>
   <g id="line2d_119">
    <g clip-path="url(#p4bf17eaac5)">
     <use style="fill:#9e0142;stroke:#000000;" x="233.953647" xlink:href="#m43a697871a" y="229.819062"/>
    </g>
   </g>
   <g id="line2d_120">
    <g clip-path="url(#p4bf17eaac5)">
     <use style="fill:#ffffbe;stroke:#000000;" x="1233.124042" xlink:href="#m1c8cd61ef7" y="759.368867"/>
    </g>
   </g>
   <g id="line2d_121">
    <g clip-path="url(#p4bf17eaac5)">
     <use style="fill:#ffffbe;stroke:#000000;" x="1241.392367" xlink:href="#m1c8cd61ef7" y="759.652689"/>
    </g>
   </g>
   <g id="line2d_122">
    <g clip-path="url(#p4bf17eaac5)">
     <use style="stroke:#000000;" x="755.231411" xlink:href="#m041b804d79" y="1231.2"/>
    </g>
   </g>
   <g id="line2d_123">
    <g clip-path="url(#p4bf17eaac5)">
     <use style="fill:#9e0142;stroke:#000000;" x="233.390905" xlink:href="#m43a697871a" y="231.933863"/>
    </g>
   </g>
   <g id="line2d_124">
    <g clip-path="url(#p4bf17eaac5)">
     <use style="fill:#9e0142;stroke:#000000;" x="234.137215" xlink:href="#m43a697871a" y="225.917672"/>
    </g>
   </g>
   <g id="line2d_125">
    <g clip-path="url(#p4bf17eaac5)">
     <use style="fill:#ffffbe;stroke:#000000;" x="1241.729976" xlink:href="#m1c8cd61ef7" y="759.562396"/>
    </g>
   </g>
   <g id="line2d_126">
    <g clip-path="url(#p4bf17eaac5)">
     <use style="fill:#ffffbe;stroke:#000000;" x="1240.91124" xlink:href="#m1c8cd61ef7" y="760.210738"/>
    </g>
   </g>
   <g id="line2d_127">
    <g clip-path="url(#p4bf17eaac5)">
     <use style="stroke:#000000;" x="949.53094" xlink:href="#m041b804d79" y="724.728021"/>
    </g>
   </g>
   <g id="line2d_128">
    <g clip-path="url(#p4bf17eaac5)">
     <use style="fill:#ffffbe;stroke:#000000;" x="1237.286901" xlink:href="#m1c8cd61ef7" y="759.265509"/>
    </g>
   </g>
   <g id="line2d_129">
    <g clip-path="url(#p4bf17eaac5)">
     <use style="fill:#ffffbe;stroke:#000000;" x="1235.957923" xlink:href="#m1c8cd61ef7" y="758.267328"/>
    </g>
   </g>
   <g id="line2d_130">
    <g clip-path="url(#p4bf17eaac5)">
     <use style="fill:#9e0142;stroke:#000000;" x="237.139462" xlink:href="#m43a697871a" y="230.080728"/>
    </g>
   </g>
   <g id="line2d_131">
    <g clip-path="url(#p4bf17eaac5)">
     <use style="fill:#ffffbe;stroke:#000000;" x="1241.617995" xlink:href="#m1c8cd61ef7" y="760.166508"/>
    </g>
   </g>
   <g id="line2d_132">
    <g clip-path="url(#p4bf17eaac5)">
     <use style="fill:#ffffbe;stroke:#000000;" x="1242.618347" xlink:href="#m1c8cd61ef7" y="760.176468"/>
    </g>
   </g>
   <g id="line2d_133">
    <g clip-path="url(#p4bf17eaac5)">
     <use style="fill:#ffffbe;stroke:#000000;" x="1238.560962" xlink:href="#m1c8cd61ef7" y="758.549338"/>
    </g>
   </g>
   <g id="line2d_134">
    <g clip-path="url(#p4bf17eaac5)">
     <use style="fill:#ffffbe;stroke:#000000;" x="1243.404159" xlink:href="#m1c8cd61ef7" y="757.97807"/>
    </g>
   </g>
   <g id="line2d_135">
    <g clip-path="url(#p4bf17eaac5)">
     <use style="fill:#9e0142;stroke:#000000;" x="235.083575" xlink:href="#m43a697871a" y="225.711371"/>
    </g>
   </g>
   <g id="line2d_136">
    <g clip-path="url(#p4bf17eaac5)">
     <use style="fill:#9e0142;stroke:#000000;" x="234.110799" xlink:href="#m43a697871a" y="232.240964"/>
    </g>
   </g>
   <g id="line2d_137">
    <g clip-path="url(#p4bf17eaac5)">
     <use style="fill:#ffffbe;stroke:#000000;" x="1243.113769" xlink:href="#m1c8cd61ef7" y="757.865595"/>
    </g>
   </g>
   <g id="line2d_138">
    <g clip-path="url(#p4bf17eaac5)">
     <use style="fill:#ffffbe;stroke:#000000;" x="1240.647937" xlink:href="#m1c8cd61ef7" y="758.535815"/>
    </g>
   </g>
   <g id="line2d_139">
    <g clip-path="url(#p4bf17eaac5)">
     <use style="fill:#9e0142;stroke:#000000;" x="231.877393" xlink:href="#m43a697871a" y="230.626372"/>
    </g>
   </g>
   <g id="line2d_140">
    <g clip-path="url(#p4bf17eaac5)">
     <use style="fill:#ffffbe;stroke:#000000;" x="1244.52989" xlink:href="#m1c8cd61ef7" y="759.606197"/>
    </g>
   </g>
   <g id="line2d_141">
    <g clip-path="url(#p4bf17eaac5)">
     <use style="fill:#ffffbe;stroke:#000000;" x="1237.923433" xlink:href="#m1c8cd61ef7" y="759.498111"/>
    </g>
   </g>
   <g id="line2d_142">
    <g clip-path="url(#p4bf17eaac5)">
     <use style="fill:#ffffbe;stroke:#000000;" x="1233.153699" xlink:href="#m1c8cd61ef7" y="758.377966"/>
    </g>
   </g>
   <g id="line2d_143">
    <g clip-path="url(#p4bf17eaac5)">
     <use style="fill:#ffffbe;stroke:#000000;" x="1233.936754" xlink:href="#m1c8cd61ef7" y="759.338343"/>
    </g>
   </g>
   <g id="line2d_144">
    <g clip-path="url(#p4bf17eaac5)">
     <use style="fill:#ffffbe;stroke:#000000;" x="1233.236264" xlink:href="#m1c8cd61ef7" y="759.296381"/>
    </g>
   </g>
   <g id="line2d_145">
    <g clip-path="url(#p4bf17eaac5)">
     <use style="fill:#9e0142;stroke:#000000;" x="231.835233" xlink:href="#m43a697871a" y="233.812458"/>
    </g>
   </g>
   <g id="line2d_146">
    <g clip-path="url(#p4bf17eaac5)">
     <use style="fill:#ffffbe;stroke:#000000;" x="1232.995616" xlink:href="#m1c8cd61ef7" y="758.151439"/>
    </g>
   </g>
   <g id="line2d_147">
    <g clip-path="url(#p4bf17eaac5)">
     <use style="fill:#ffffbe;stroke:#000000;" x="1239.149452" xlink:href="#m1c8cd61ef7" y="758.490512"/>
    </g>
   </g>
   <g id="line2d_148">
    <g clip-path="url(#p4bf17eaac5)">
     <use style="fill:#ffffbe;stroke:#000000;" x="1067.514191" xlink:href="#m1c8cd61ef7" y="687.758079"/>
    </g>
   </g>
   <g id="line2d_149">
    <g clip-path="url(#p4bf17eaac5)">
     <use style="fill:#ffffbe;stroke:#000000;" x="1245.239885" xlink:href="#m1c8cd61ef7" y="759.531547"/>
    </g>
   </g>
   <g id="line2d_150">
    <g clip-path="url(#p4bf17eaac5)">
     <use style="fill:#ffffbe;stroke:#000000;" x="1239.985021" xlink:href="#m1c8cd61ef7" y="757.838102"/>
    </g>
   </g>
   <g id="line2d_151">
    <g clip-path="url(#p4bf17eaac5)">
     <use style="fill:#ffffbe;stroke:#000000;" x="1065.129289" xlink:href="#m1c8cd61ef7" y="688.763975"/>
    </g>
   </g>
   <g id="line2d_152">
    <g clip-path="url(#p4bf17eaac5)">
     <use style="fill:#ffffbe;stroke:#000000;" x="1240.089981" xlink:href="#m1c8cd61ef7" y="759.780327"/>
    </g>
   </g>
   <g id="line2d_153">
    <g clip-path="url(#p4bf17eaac5)">
     <use style="fill:#9e0142;stroke:#000000;" x="232.276416" xlink:href="#m43a697871a" y="233.251902"/>
    </g>
   </g>
   <g id="line2d_154">
    <g clip-path="url(#p4bf17eaac5)">
     <use style="fill:#ffffbe;stroke:#000000;" x="1242.820214" xlink:href="#m1c8cd61ef7" y="760.212572"/>
    </g>
   </g>
   <g id="line2d_155">
    <g clip-path="url(#p4bf17eaac5)">
     <use style="fill:#ffffbe;stroke:#000000;" x="1239.520787" xlink:href="#m1c8cd61ef7" y="759.185976"/>
    </g>
   </g>
   <g id="line2d_156">
    <g clip-path="url(#p4bf17eaac5)">
     <use style="fill:#ffffbe;stroke:#000000;" x="1244.6797" xlink:href="#m1c8cd61ef7" y="758.08442"/>
    </g>
   </g>
   <g id="line2d_157">
    <g clip-path="url(#p4bf17eaac5)">
     <use style="fill:#ffffbe;stroke:#000000;" x="1232.422414" xlink:href="#m1c8cd61ef7" y="759.99097"/>
    </g>
   </g>
   <g id="line2d_158">
    <g clip-path="url(#p4bf17eaac5)">
     <use style="fill:#ffffbe;stroke:#000000;" x="1240.470385" xlink:href="#m1c8cd61ef7" y="759.754574"/>
    </g>
   </g>
   <g id="line2d_159">
    <g clip-path="url(#p4bf17eaac5)">
     <use style="fill:#9e0142;stroke:#000000;" x="234.498321" xlink:href="#m43a697871a" y="232.422534"/>
    </g>
   </g>
   <g id="line2d_160">
    <g clip-path="url(#p4bf17eaac5)">
     <use style="fill:#9e0142;stroke:#000000;" x="237.125583" xlink:href="#m43a697871a" y="236.795513"/>
    </g>
   </g>
   <g id="line2d_161">
    <g clip-path="url(#p4bf17eaac5)">
     <use style="fill:#ffffbe;stroke:#000000;" x="1065.004829" xlink:href="#m1c8cd61ef7" y="687.306408"/>
    </g>
   </g>
   <g id="line2d_162">
    <g clip-path="url(#p4bf17eaac5)">
     <use style="fill:#ffffbe;stroke:#000000;" x="1238.382573" xlink:href="#m1c8cd61ef7" y="757.498905"/>
    </g>
   </g>
   <g id="line2d_163">
    <g clip-path="url(#p4bf17eaac5)">
     <use style="fill:#9e0142;stroke:#000000;" x="235.034842" xlink:href="#m43a697871a" y="232.178357"/>
    </g>
   </g>
   <g id="line2d_164">
    <g clip-path="url(#p4bf17eaac5)">
     <use style="fill:#ffffbe;stroke:#000000;" x="1067.440847" xlink:href="#m1c8cd61ef7" y="686.955428"/>
    </g>
   </g>
   <g id="line2d_165">
    <g clip-path="url(#p4bf17eaac5)">
     <use style="fill:#9e0142;stroke:#000000;" x="233.435641" xlink:href="#m43a697871a" y="234.220682"/>
    </g>
   </g>
   <g id="line2d_166">
    <g clip-path="url(#p4bf17eaac5)">
     <use style="fill:#9e0142;stroke:#000000;" x="231.114413" xlink:href="#m43a697871a" y="224.908432"/>
    </g>
   </g>
   <g id="line2d_167">
    <g clip-path="url(#p4bf17eaac5)">
     <use style="stroke:#000000;" x="807.631831" xlink:href="#m041b804d79" y="1100.669324"/>
    </g>
   </g>
   <g id="line2d_168">
    <g clip-path="url(#p4bf17eaac5)">
     <use style="fill:#ffffbe;stroke:#000000;" x="1233.054756" xlink:href="#m1c8cd61ef7" y="759.318488"/>
    </g>
   </g>
   <g id="line2d_169">
    <g clip-path="url(#p4bf17eaac5)">
     <use style="fill:#ffffbe;stroke:#000000;" x="1239.220431" xlink:href="#m1c8cd61ef7" y="759.826549"/>
    </g>
   </g>
   <g id="line2d_170">
    <g clip-path="url(#p4bf17eaac5)">
     <use style="fill:#ffffbe;stroke:#000000;" x="1238.742731" xlink:href="#m1c8cd61ef7" y="759.312571"/>
    </g>
   </g>
   <g id="line2d_171">
    <g clip-path="url(#p4bf17eaac5)">
     <use style="fill:#ffffbe;stroke:#000000;" x="1244.536041" xlink:href="#m1c8cd61ef7" y="759.362439"/>
    </g>
   </g>
   <g id="line2d_172">
    <g clip-path="url(#p4bf17eaac5)">
     <use style="fill:#ffffbe;stroke:#000000;" x="1239.696592" xlink:href="#m1c8cd61ef7" y="759.924701"/>
    </g>
   </g>
   <g id="line2d_173">
    <g clip-path="url(#p4bf17eaac5)">
     <use style="fill:#ffffbe;stroke:#000000;" x="1240.259729" xlink:href="#m1c8cd61ef7" y="759.563758"/>
    </g>
   </g>
   <g id="line2d_174">
    <g clip-path="url(#p4bf17eaac5)">
     <use style="fill:#9e0142;stroke:#000000;" x="233.489121" xlink:href="#m43a697871a" y="224.926229"/>
    </g>
   </g>
   <g id="line2d_175">
    <g clip-path="url(#p4bf17eaac5)">
     <use style="fill:#9e0142;stroke:#000000;" x="235.680756" xlink:href="#m43a697871a" y="234.776098"/>
    </g>
   </g>
   <g id="line2d_176">
    <g clip-path="url(#p4bf17eaac5)">
     <use style="fill:#ffffbe;stroke:#000000;" x="1244.837039" xlink:href="#m1c8cd61ef7" y="757.514068"/>
    </g>
   </g>
   <g id="patch_3">
    <path d="M 180 1281.6 
L 180 172.8 
" style="fill:none;stroke:#000000;stroke-linecap:square;stroke-linejoin:miter;stroke-width:0.8;"/>
   </g>
   <g id="patch_4">
    <path d="M 1296 1281.6 
L 1296 172.8 
" style="fill:none;stroke:#000000;stroke-linecap:square;stroke-linejoin:miter;stroke-width:0.8;"/>
   </g>
   <g id="patch_5">
    <path d="M 180 1281.6 
L 1296 1281.6 
" style="fill:none;stroke:#000000;stroke-linecap:square;stroke-linejoin:miter;stroke-width:0.8;"/>
   </g>
   <g id="patch_6">
    <path d="M 180 172.8 
L 1296 172.8 
" style="fill:none;stroke:#000000;stroke-linecap:square;stroke-linejoin:miter;stroke-width:0.8;"/>
   </g>
  </g>
 </g>
 <defs>
  <clipPath id="p4bf17eaac5">
   <rect height="1108.8" width="1116" x="180" y="172.8"/>
  </clipPath>
 </defs>
</svg>
