<?xml version="1.0" encoding="utf-8" standalone="no"?>
<!DOCTYPE svg PUBLIC "-//W3C//DTD SVG 1.1//EN"
  "http://www.w3.org/Graphics/SVG/1.1/DTD/svg11.dtd">
<!-- Created with matplotlib (https://matplotlib.org/) -->
<svg height="1440pt" version="1.1" viewBox="0 0 1440 1440" width="1440pt" xmlns="http://www.w3.org/2000/svg" xmlns:xlink="http://www.w3.org/1999/xlink">
 <defs>
  <style type="text/css">
*{stroke-linecap:butt;stroke-linejoin:round;}
  </style>
 </defs>
 <g id="figure_1">
  <g id="patch_1">
   <path d="M 0 1440 
L 1440 1440 
L 1440 0 
L 0 0 
z
" style="fill:#ffffff;"/>
  </g>
  <g id="axes_1">
   <g id="patch_2">
    <path d="M 180 1281.6 
L 1296 1281.6 
L 1296 172.8 
L 180 172.8 
z
" style="fill:#ffffff;"/>
   </g>
   <g id="matplotlib.axis_1">
    <g id="xtick_1">
     <g id="line2d_1">
      <defs>
       <path d="M 0 0 
L 0 3.5 
" id="m669e84ef6a" style="stroke:#000000;stroke-width:0.8;"/>
      </defs>
      <g>
       <use style="stroke:#000000;stroke-width:0.8;" x="415.820569" xlink:href="#m669e84ef6a" y="1281.6"/>
      </g>
     </g>
     <g id="text_1">
      <!-- 0.02 -->
      <defs>
       <path d="M 31.78125 66.40625 
Q 24.171875 66.40625 20.328125 58.90625 
Q 16.5 51.421875 16.5 36.375 
Q 16.5 21.390625 20.328125 13.890625 
Q 24.171875 6.390625 31.78125 6.390625 
Q 39.453125 6.390625 43.28125 13.890625 
Q 47.125 21.390625 47.125 36.375 
Q 47.125 51.421875 43.28125 58.90625 
Q 39.453125 66.40625 31.78125 66.40625 
z
M 31.78125 74.21875 
Q 44.046875 74.21875 50.515625 64.515625 
Q 56.984375 54.828125 56.984375 36.375 
Q 56.984375 17.96875 50.515625 8.265625 
Q 44.046875 -1.421875 31.78125 -1.421875 
Q 19.53125 -1.421875 13.0625 8.265625 
Q 6.59375 17.96875 6.59375 36.375 
Q 6.59375 54.828125 13.0625 64.515625 
Q 19.53125 74.21875 31.78125 74.21875 
z
" id="DejaVuSans-48"/>
       <path d="M 10.6875 12.40625 
L 21 12.40625 
L 21 0 
L 10.6875 0 
z
" id="DejaVuSans-46"/>
       <path d="M 19.1875 8.296875 
L 53.609375 8.296875 
L 53.609375 0 
L 7.328125 0 
L 7.328125 8.296875 
Q 12.9375 14.109375 22.625 23.890625 
Q 32.328125 33.6875 34.8125 36.53125 
Q 39.546875 41.84375 41.421875 45.53125 
Q 43.3125 49.21875 43.3125 52.78125 
Q 43.3125 58.59375 39.234375 62.25 
Q 35.15625 65.921875 28.609375 65.921875 
Q 23.96875 65.921875 18.8125 64.3125 
Q 13.671875 62.703125 7.8125 59.421875 
L 7.8125 69.390625 
Q 13.765625 71.78125 18.9375 73 
Q 24.125 74.21875 28.421875 74.21875 
Q 39.75 74.21875 46.484375 68.546875 
Q 53.21875 62.890625 53.21875 53.421875 
Q 53.21875 48.921875 51.53125 44.890625 
Q 49.859375 40.875 45.40625 35.40625 
Q 44.1875 33.984375 37.640625 27.21875 
Q 31.109375 20.453125 19.1875 8.296875 
z
" id="DejaVuSans-50"/>
      </defs>
      <g transform="translate(404.687756 1296.198437)scale(0.1 -0.1)">
       <use xlink:href="#DejaVuSans-48"/>
       <use x="63.623047" xlink:href="#DejaVuSans-46"/>
       <use x="95.410156" xlink:href="#DejaVuSans-48"/>
       <use x="159.033203" xlink:href="#DejaVuSans-50"/>
      </g>
     </g>
    </g>
    <g id="xtick_2">
     <g id="line2d_2">
      <g>
       <use style="stroke:#000000;stroke-width:0.8;" x="652.168808" xlink:href="#m669e84ef6a" y="1281.6"/>
      </g>
     </g>
     <g id="text_2">
      <!-- 0.04 -->
      <defs>
       <path d="M 37.796875 64.3125 
L 12.890625 25.390625 
L 37.796875 25.390625 
z
M 35.203125 72.90625 
L 47.609375 72.90625 
L 47.609375 25.390625 
L 58.015625 25.390625 
L 58.015625 17.1875 
L 47.609375 17.1875 
L 47.609375 0 
L 37.796875 0 
L 37.796875 17.1875 
L 4.890625 17.1875 
L 4.890625 26.703125 
z
" id="DejaVuSans-52"/>
      </defs>
      <g transform="translate(641.035996 1296.198437)scale(0.1 -0.1)">
       <use xlink:href="#DejaVuSans-48"/>
       <use x="63.623047" xlink:href="#DejaVuSans-46"/>
       <use x="95.410156" xlink:href="#DejaVuSans-48"/>
       <use x="159.033203" xlink:href="#DejaVuSans-52"/>
      </g>
     </g>
    </g>
    <g id="xtick_3">
     <g id="line2d_3">
      <g>
       <use style="stroke:#000000;stroke-width:0.8;" x="888.517048" xlink:href="#m669e84ef6a" y="1281.6"/>
      </g>
     </g>
     <g id="text_3">
      <!-- 0.06 -->
      <defs>
       <path d="M 33.015625 40.375 
Q 26.375 40.375 22.484375 35.828125 
Q 18.609375 31.296875 18.609375 23.390625 
Q 18.609375 15.53125 22.484375 10.953125 
Q 26.375 6.390625 33.015625 6.390625 
Q 39.65625 6.390625 43.53125 10.953125 
Q 47.40625 15.53125 47.40625 23.390625 
Q 47.40625 31.296875 43.53125 35.828125 
Q 39.65625 40.375 33.015625 40.375 
z
M 52.59375 71.296875 
L 52.59375 62.3125 
Q 48.875 64.0625 45.09375 64.984375 
Q 41.3125 65.921875 37.59375 65.921875 
Q 27.828125 65.921875 22.671875 59.328125 
Q 17.53125 52.734375 16.796875 39.40625 
Q 19.671875 43.65625 24.015625 45.921875 
Q 28.375 48.1875 33.59375 48.1875 
Q 44.578125 48.1875 50.953125 41.515625 
Q 57.328125 34.859375 57.328125 23.390625 
Q 57.328125 12.15625 50.6875 5.359375 
Q 44.046875 -1.421875 33.015625 -1.421875 
Q 20.359375 -1.421875 13.671875 8.265625 
Q 6.984375 17.96875 6.984375 36.375 
Q 6.984375 53.65625 15.1875 63.9375 
Q 23.390625 74.21875 37.203125 74.21875 
Q 40.921875 74.21875 44.703125 73.484375 
Q 48.484375 72.75 52.59375 71.296875 
z
" id="DejaVuSans-54"/>
      </defs>
      <g transform="translate(877.384235 1296.198437)scale(0.1 -0.1)">
       <use xlink:href="#DejaVuSans-48"/>
       <use x="63.623047" xlink:href="#DejaVuSans-46"/>
       <use x="95.410156" xlink:href="#DejaVuSans-48"/>
       <use x="159.033203" xlink:href="#DejaVuSans-54"/>
      </g>
     </g>
    </g>
    <g id="xtick_4">
     <g id="line2d_4">
      <g>
       <use style="stroke:#000000;stroke-width:0.8;" x="1124.865287" xlink:href="#m669e84ef6a" y="1281.6"/>
      </g>
     </g>
     <g id="text_4">
      <!-- 0.08 -->
      <defs>
       <path d="M 31.78125 34.625 
Q 24.75 34.625 20.71875 30.859375 
Q 16.703125 27.09375 16.703125 20.515625 
Q 16.703125 13.921875 20.71875 10.15625 
Q 24.75 6.390625 31.78125 6.390625 
Q 38.8125 6.390625 42.859375 10.171875 
Q 46.921875 13.96875 46.921875 20.515625 
Q 46.921875 27.09375 42.890625 30.859375 
Q 38.875 34.625 31.78125 34.625 
z
M 21.921875 38.8125 
Q 15.578125 40.375 12.03125 44.71875 
Q 8.5 49.078125 8.5 55.328125 
Q 8.5 64.0625 14.71875 69.140625 
Q 20.953125 74.21875 31.78125 74.21875 
Q 42.671875 74.21875 48.875 69.140625 
Q 55.078125 64.0625 55.078125 55.328125 
Q 55.078125 49.078125 51.53125 44.71875 
Q 48 40.375 41.703125 38.8125 
Q 48.828125 37.15625 52.796875 32.3125 
Q 56.78125 27.484375 56.78125 20.515625 
Q 56.78125 9.90625 50.3125 4.234375 
Q 43.84375 -1.421875 31.78125 -1.421875 
Q 19.734375 -1.421875 13.25 4.234375 
Q 6.78125 9.90625 6.78125 20.515625 
Q 6.78125 27.484375 10.78125 32.3125 
Q 14.796875 37.15625 21.921875 38.8125 
z
M 18.3125 54.390625 
Q 18.3125 48.734375 21.84375 45.5625 
Q 25.390625 42.390625 31.78125 42.390625 
Q 38.140625 42.390625 41.71875 45.5625 
Q 45.3125 48.734375 45.3125 54.390625 
Q 45.3125 60.0625 41.71875 63.234375 
Q 38.140625 66.40625 31.78125 66.40625 
Q 25.390625 66.40625 21.84375 63.234375 
Q 18.3125 60.0625 18.3125 54.390625 
z
" id="DejaVuSans-56"/>
      </defs>
      <g transform="translate(1113.732475 1296.198437)scale(0.1 -0.1)">
       <use xlink:href="#DejaVuSans-48"/>
       <use x="63.623047" xlink:href="#DejaVuSans-46"/>
       <use x="95.410156" xlink:href="#DejaVuSans-48"/>
       <use x="159.033203" xlink:href="#DejaVuSans-56"/>
      </g>
     </g>
    </g>
   </g>
   <g id="matplotlib.axis_2">
    <g id="ytick_1">
     <g id="line2d_5">
      <defs>
       <path d="M 0 0 
L -3.5 0 
" id="md651fb50ff" style="stroke:#000000;stroke-width:0.8;"/>
      </defs>
      <g>
       <use style="stroke:#000000;stroke-width:0.8;" x="180" xlink:href="#md651fb50ff" y="1227.643656"/>
      </g>
     </g>
     <g id="text_5">
      <!-- −0.3 -->
      <defs>
       <path d="M 10.59375 35.5 
L 73.1875 35.5 
L 73.1875 27.203125 
L 10.59375 27.203125 
z
" id="DejaVuSans-8722"/>
       <path d="M 40.578125 39.3125 
Q 47.65625 37.796875 51.625 33 
Q 55.609375 28.21875 55.609375 21.1875 
Q 55.609375 10.40625 48.1875 4.484375 
Q 40.765625 -1.421875 27.09375 -1.421875 
Q 22.515625 -1.421875 17.65625 -0.515625 
Q 12.796875 0.390625 7.625 2.203125 
L 7.625 11.71875 
Q 11.71875 9.328125 16.59375 8.109375 
Q 21.484375 6.890625 26.8125 6.890625 
Q 36.078125 6.890625 40.9375 10.546875 
Q 45.796875 14.203125 45.796875 21.1875 
Q 45.796875 27.640625 41.28125 31.265625 
Q 36.765625 34.90625 28.71875 34.90625 
L 20.21875 34.90625 
L 20.21875 43.015625 
L 29.109375 43.015625 
Q 36.375 43.015625 40.234375 45.921875 
Q 44.09375 48.828125 44.09375 54.296875 
Q 44.09375 59.90625 40.109375 62.90625 
Q 36.140625 65.921875 28.71875 65.921875 
Q 24.65625 65.921875 20.015625 65.03125 
Q 15.375 64.15625 9.8125 62.3125 
L 9.8125 71.09375 
Q 15.4375 72.65625 20.34375 73.4375 
Q 25.25 74.21875 29.59375 74.21875 
Q 40.828125 74.21875 47.359375 69.109375 
Q 53.90625 64.015625 53.90625 55.328125 
Q 53.90625 49.265625 50.4375 45.09375 
Q 46.96875 40.921875 40.578125 39.3125 
z
" id="DejaVuSans-51"/>
      </defs>
      <g transform="translate(148.717187 1231.442875)scale(0.1 -0.1)">
       <use xlink:href="#DejaVuSans-8722"/>
       <use x="83.789062" xlink:href="#DejaVuSans-48"/>
       <use x="147.412109" xlink:href="#DejaVuSans-46"/>
       <use x="179.199219" xlink:href="#DejaVuSans-51"/>
      </g>
     </g>
    </g>
    <g id="ytick_2">
     <g id="line2d_6">
      <g>
       <use style="stroke:#000000;stroke-width:0.8;" x="180" xlink:href="#md651fb50ff" y="1026.745399"/>
      </g>
     </g>
     <g id="text_6">
      <!-- −0.2 -->
      <g transform="translate(148.717187 1030.544618)scale(0.1 -0.1)">
       <use xlink:href="#DejaVuSans-8722"/>
       <use x="83.789062" xlink:href="#DejaVuSans-48"/>
       <use x="147.412109" xlink:href="#DejaVuSans-46"/>
       <use x="179.199219" xlink:href="#DejaVuSans-50"/>
      </g>
     </g>
    </g>
    <g id="ytick_3">
     <g id="line2d_7">
      <g>
       <use style="stroke:#000000;stroke-width:0.8;" x="180" xlink:href="#md651fb50ff" y="825.847142"/>
      </g>
     </g>
     <g id="text_7">
      <!-- −0.1 -->
      <defs>
       <path d="M 12.40625 8.296875 
L 28.515625 8.296875 
L 28.515625 63.921875 
L 10.984375 60.40625 
L 10.984375 69.390625 
L 28.421875 72.90625 
L 38.28125 72.90625 
L 38.28125 8.296875 
L 54.390625 8.296875 
L 54.390625 0 
L 12.40625 0 
z
" id="DejaVuSans-49"/>
      </defs>
      <g transform="translate(148.717187 829.646361)scale(0.1 -0.1)">
       <use xlink:href="#DejaVuSans-8722"/>
       <use x="83.789062" xlink:href="#DejaVuSans-48"/>
       <use x="147.412109" xlink:href="#DejaVuSans-46"/>
       <use x="179.199219" xlink:href="#DejaVuSans-49"/>
      </g>
     </g>
    </g>
    <g id="ytick_4">
     <g id="line2d_8">
      <g>
       <use style="stroke:#000000;stroke-width:0.8;" x="180" xlink:href="#md651fb50ff" y="624.948886"/>
      </g>
     </g>
     <g id="text_8">
      <!-- 0.0 -->
      <g transform="translate(157.096875 628.748104)scale(0.1 -0.1)">
       <use xlink:href="#DejaVuSans-48"/>
       <use x="63.623047" xlink:href="#DejaVuSans-46"/>
       <use x="95.410156" xlink:href="#DejaVuSans-48"/>
      </g>
     </g>
    </g>
    <g id="ytick_5">
     <g id="line2d_9">
      <g>
       <use style="stroke:#000000;stroke-width:0.8;" x="180" xlink:href="#md651fb50ff" y="424.050629"/>
      </g>
     </g>
     <g id="text_9">
      <!-- 0.1 -->
      <g transform="translate(157.096875 427.849848)scale(0.1 -0.1)">
       <use xlink:href="#DejaVuSans-48"/>
       <use x="63.623047" xlink:href="#DejaVuSans-46"/>
       <use x="95.410156" xlink:href="#DejaVuSans-49"/>
      </g>
     </g>
    </g>
    <g id="ytick_6">
     <g id="line2d_10">
      <g>
       <use style="stroke:#000000;stroke-width:0.8;" x="180" xlink:href="#md651fb50ff" y="223.152372"/>
      </g>
     </g>
     <g id="text_10">
      <!-- 0.2 -->
      <g transform="translate(157.096875 226.951591)scale(0.1 -0.1)">
       <use xlink:href="#DejaVuSans-48"/>
       <use x="63.623047" xlink:href="#DejaVuSans-46"/>
       <use x="95.410156" xlink:href="#DejaVuSans-50"/>
      </g>
     </g>
    </g>
   </g>
   <g id="line2d_11">
    <defs>
     <path d="M 0 9 
C 2.386828 9 4.676219 8.051703 6.363961 6.363961 
C 8.051703 4.676219 9 2.386828 9 0 
C 9 -2.386828 8.051703 -4.676219 6.363961 -6.363961 
C 4.676219 -8.051703 2.386828 -9 0 -9 
C -2.386828 -9 -4.676219 -8.051703 -6.363961 -6.363961 
C -8.051703 -4.676219 -9 -2.386828 -9 0 
C -9 2.386828 -8.051703 4.676219 -6.363961 6.363961 
C -4.676219 8.051703 -2.386828 9 0 9 
z
" id="ma2b6f8aa41" style="stroke:#000000;"/>
    </defs>
    <g clip-path="url(#pb6763a75ef)">
     <use style="fill:#9e0142;stroke:#000000;" x="715.416375" xlink:href="#ma2b6f8aa41" y="1196.076977"/>
    </g>
   </g>
   <g id="line2d_12">
    <defs>
     <path d="M 0 9 
C 2.386828 9 4.676219 8.051703 6.363961 6.363961 
C 8.051703 4.676219 9 2.386828 9 0 
C 9 -2.386828 8.051703 -4.676219 6.363961 -6.363961 
C 4.676219 -8.051703 2.386828 -9 0 -9 
C -2.386828 -9 -4.676219 -8.051703 -6.363961 -6.363961 
C -8.051703 -4.676219 -9 -2.386828 -9 0 
C -9 2.386828 -8.051703 4.676219 -6.363961 6.363961 
C -4.676219 8.051703 -2.386828 9 0 9 
z
" id="m767154d1a1" style="stroke:#000000;"/>
    </defs>
    <g clip-path="url(#pb6763a75ef)">
     <use style="fill:#ffffbe;stroke:#000000;" x="1235.977131" xlink:href="#m767154d1a1" y="638.158454"/>
    </g>
   </g>
   <g id="line2d_13">
    <g clip-path="url(#pb6763a75ef)">
     <use style="fill:#ffffbe;stroke:#000000;" x="1216.65998" xlink:href="#m767154d1a1" y="549.742649"/>
    </g>
   </g>
   <g id="line2d_14">
    <g clip-path="url(#pb6763a75ef)">
     <use style="fill:#ffffbe;stroke:#000000;" x="1228.991839" xlink:href="#m767154d1a1" y="638.138095"/>
    </g>
   </g>
   <g id="line2d_15">
    <g clip-path="url(#pb6763a75ef)">
     <use style="fill:#ffffbe;stroke:#000000;" x="1230.511655" xlink:href="#m767154d1a1" y="638.176137"/>
    </g>
   </g>
   <g id="line2d_16">
    <defs>
     <path d="M 0 3 
C 0.795609 3 1.55874 2.683901 2.12132 2.12132 
C 2.683901 1.55874 3 0.795609 3 0 
C 3 -0.795609 2.683901 -1.55874 2.12132 -2.12132 
C 1.55874 -2.683901 0.795609 -3 0 -3 
C -0.795609 -3 -1.55874 -2.683901 -2.12132 -2.12132 
C -2.683901 -1.55874 -3 -0.795609 -3 0 
C -3 0.795609 -2.683901 1.55874 -2.12132 2.12132 
C -1.55874 2.683901 -0.795609 3 0 3 
z
" id="m06c8b6a755" style="stroke:#000000;"/>
    </defs>
    <g clip-path="url(#pb6763a75ef)">
     <use style="stroke:#000000;" x="1064.335012" xlink:href="#m06c8b6a755" y="782.048416"/>
    </g>
   </g>
   <g id="line2d_17">
    <g clip-path="url(#pb6763a75ef)">
     <use style="fill:#ffffbe;stroke:#000000;" x="1244.803552" xlink:href="#m767154d1a1" y="638.127233"/>
    </g>
   </g>
   <g id="line2d_18">
    <g clip-path="url(#pb6763a75ef)">
     <use style="fill:#ffffbe;stroke:#000000;" x="1237.94669" xlink:href="#m767154d1a1" y="638.109655"/>
    </g>
   </g>
   <g id="line2d_19">
    <g clip-path="url(#pb6763a75ef)">
     <use style="fill:#ffffbe;stroke:#000000;" x="1232.827215" xlink:href="#m767154d1a1" y="638.172539"/>
    </g>
   </g>
   <g id="line2d_20">
    <g clip-path="url(#pb6763a75ef)">
     <use style="fill:#ffffbe;stroke:#000000;" x="1239.229406" xlink:href="#m767154d1a1" y="638.283518"/>
    </g>
   </g>
   <g id="line2d_21">
    <g clip-path="url(#pb6763a75ef)">
     <use style="fill:#ffffbe;stroke:#000000;" x="1231.561852" xlink:href="#m767154d1a1" y="638.268441"/>
    </g>
   </g>
   <g id="line2d_22">
    <g clip-path="url(#pb6763a75ef)">
     <use style="fill:#ffffbe;stroke:#000000;" x="1233.271479" xlink:href="#m767154d1a1" y="638.339869"/>
    </g>
   </g>
   <g id="line2d_23">
    <g clip-path="url(#pb6763a75ef)">
     <use style="fill:#ffffbe;stroke:#000000;" x="1240.727393" xlink:href="#m767154d1a1" y="638.29219"/>
    </g>
   </g>
   <g id="line2d_24">
    <g clip-path="url(#pb6763a75ef)">
     <use style="fill:#ffffbe;stroke:#000000;" x="1238.312779" xlink:href="#m767154d1a1" y="638.312198"/>
    </g>
   </g>
   <g id="line2d_25">
    <g clip-path="url(#pb6763a75ef)">
     <use style="fill:#ffffbe;stroke:#000000;" x="1205.549362" xlink:href="#m767154d1a1" y="549.299599"/>
    </g>
   </g>
   <g id="line2d_26">
    <g clip-path="url(#pb6763a75ef)">
     <use style="fill:#ffffbe;stroke:#000000;" x="1243.876539" xlink:href="#m767154d1a1" y="638.292208"/>
    </g>
   </g>
   <g id="line2d_27">
    <g clip-path="url(#pb6763a75ef)">
     <use style="fill:#ffffbe;stroke:#000000;" x="1216.941618" xlink:href="#m767154d1a1" y="591.125067"/>
    </g>
   </g>
   <g id="line2d_28">
    <g clip-path="url(#pb6763a75ef)">
     <use style="fill:#ffffbe;stroke:#000000;" x="1200.381894" xlink:href="#m767154d1a1" y="549.350325"/>
    </g>
   </g>
   <g id="line2d_29">
    <g clip-path="url(#pb6763a75ef)">
     <use style="fill:#ffffbe;stroke:#000000;" x="1243.037991" xlink:href="#m767154d1a1" y="638.080759"/>
    </g>
   </g>
   <g id="line2d_30">
    <g clip-path="url(#pb6763a75ef)">
     <use style="fill:#ffffbe;stroke:#000000;" x="1214.981423" xlink:href="#m767154d1a1" y="548.941853"/>
    </g>
   </g>
   <g id="line2d_31">
    <g clip-path="url(#pb6763a75ef)">
     <use style="fill:#ffffbe;stroke:#000000;" x="1213.179094" xlink:href="#m767154d1a1" y="549.938626"/>
    </g>
   </g>
   <g id="line2d_32">
    <g clip-path="url(#pb6763a75ef)">
     <use style="fill:#ffffbe;stroke:#000000;" x="1230.756091" xlink:href="#m767154d1a1" y="638.2811"/>
    </g>
   </g>
   <g id="line2d_33">
    <g clip-path="url(#pb6763a75ef)">
     <use style="fill:#ffffbe;stroke:#000000;" x="1228.288287" xlink:href="#m767154d1a1" y="638.115465"/>
    </g>
   </g>
   <g id="line2d_34">
    <g clip-path="url(#pb6763a75ef)">
     <use style="fill:#ffffbe;stroke:#000000;" x="1235.392056" xlink:href="#m767154d1a1" y="638.262172"/>
    </g>
   </g>
   <g id="line2d_35">
    <g clip-path="url(#pb6763a75ef)">
     <use style="fill:#ffffbe;stroke:#000000;" x="1244.828379" xlink:href="#m767154d1a1" y="638.161625"/>
    </g>
   </g>
   <g id="line2d_36">
    <g clip-path="url(#pb6763a75ef)">
     <use style="fill:#ffffbe;stroke:#000000;" x="1230.0974" xlink:href="#m767154d1a1" y="638.093644"/>
    </g>
   </g>
   <g id="line2d_37">
    <g clip-path="url(#pb6763a75ef)">
     <use style="fill:#ffffbe;stroke:#000000;" x="1242.215278" xlink:href="#m767154d1a1" y="638.16095"/>
    </g>
   </g>
   <g id="line2d_38">
    <g clip-path="url(#pb6763a75ef)">
     <use style="fill:#ffffbe;stroke:#000000;" x="1240.33503" xlink:href="#m767154d1a1" y="638.311561"/>
    </g>
   </g>
   <g id="line2d_39">
    <g clip-path="url(#pb6763a75ef)">
     <use style="fill:#ffffbe;stroke:#000000;" x="1239.265759" xlink:href="#m767154d1a1" y="638.176683"/>
    </g>
   </g>
   <g id="line2d_40">
    <g clip-path="url(#pb6763a75ef)">
     <use style="fill:#ffffbe;stroke:#000000;" x="1236.54801" xlink:href="#m767154d1a1" y="638.078007"/>
    </g>
   </g>
   <g id="line2d_41">
    <g clip-path="url(#pb6763a75ef)">
     <use style="fill:#ffffbe;stroke:#000000;" x="1209.205964" xlink:href="#m767154d1a1" y="549.418439"/>
    </g>
   </g>
   <g id="line2d_42">
    <g clip-path="url(#pb6763a75ef)">
     <use style="fill:#ffffbe;stroke:#000000;" x="1240.682985" xlink:href="#m767154d1a1" y="638.163992"/>
    </g>
   </g>
   <g id="line2d_43">
    <g clip-path="url(#pb6763a75ef)">
     <use style="fill:#ffffbe;stroke:#000000;" x="1240.844496" xlink:href="#m767154d1a1" y="638.086647"/>
    </g>
   </g>
   <g id="line2d_44">
    <g clip-path="url(#pb6763a75ef)">
     <use style="fill:#ffffbe;stroke:#000000;" x="1243.038646" xlink:href="#m767154d1a1" y="638.15473"/>
    </g>
   </g>
   <g id="line2d_45">
    <g clip-path="url(#pb6763a75ef)">
     <use style="fill:#ffffbe;stroke:#000000;" x="1234.064468" xlink:href="#m767154d1a1" y="638.210424"/>
    </g>
   </g>
   <g id="line2d_46">
    <g clip-path="url(#pb6763a75ef)">
     <use style="fill:#ffffbe;stroke:#000000;" x="1208.928759" xlink:href="#m767154d1a1" y="548.919541"/>
    </g>
   </g>
   <g id="line2d_47">
    <g clip-path="url(#pb6763a75ef)">
     <use style="fill:#ffffbe;stroke:#000000;" x="1231.175254" xlink:href="#m767154d1a1" y="638.340239"/>
    </g>
   </g>
   <g id="line2d_48">
    <g clip-path="url(#pb6763a75ef)">
     <use style="fill:#ffffbe;stroke:#000000;" x="1232.888881" xlink:href="#m767154d1a1" y="638.202548"/>
    </g>
   </g>
   <g id="line2d_49">
    <g clip-path="url(#pb6763a75ef)">
     <use style="fill:#ffffbe;stroke:#000000;" x="1200.195947" xlink:href="#m767154d1a1" y="550.009915"/>
    </g>
   </g>
   <g id="line2d_50">
    <g clip-path="url(#pb6763a75ef)">
     <use style="fill:#ffffbe;stroke:#000000;" x="1233.589551" xlink:href="#m767154d1a1" y="638.153053"/>
    </g>
   </g>
   <g id="line2d_51">
    <g clip-path="url(#pb6763a75ef)">
     <use style="fill:#ffffbe;stroke:#000000;" x="1204.837595" xlink:href="#m767154d1a1" y="550.219365"/>
    </g>
   </g>
   <g id="line2d_52">
    <g clip-path="url(#pb6763a75ef)">
     <use style="fill:#9e0142;stroke:#000000;" x="712.993295" xlink:href="#ma2b6f8aa41" y="1194.468927"/>
    </g>
   </g>
   <g id="line2d_53">
    <g clip-path="url(#pb6763a75ef)">
     <use style="fill:#ffffbe;stroke:#000000;" x="1245.272727" xlink:href="#m767154d1a1" y="638.190263"/>
    </g>
   </g>
   <g id="line2d_54">
    <g clip-path="url(#pb6763a75ef)">
     <use style="fill:#ffffbe;stroke:#000000;" x="1241.769747" xlink:href="#m767154d1a1" y="638.335911"/>
    </g>
   </g>
   <g id="line2d_55">
    <g clip-path="url(#pb6763a75ef)">
     <use style="fill:#ffffbe;stroke:#000000;" x="1240.651783" xlink:href="#m767154d1a1" y="638.170087"/>
    </g>
   </g>
   <g id="line2d_56">
    <g clip-path="url(#pb6763a75ef)">
     <use style="fill:#ffffbe;stroke:#000000;" x="1216.718981" xlink:href="#m767154d1a1" y="548.81187"/>
    </g>
   </g>
   <g id="line2d_57">
    <g clip-path="url(#pb6763a75ef)">
     <use style="fill:#ffffbe;stroke:#000000;" x="1226.866417" xlink:href="#m767154d1a1" y="638.130362"/>
    </g>
   </g>
   <g id="line2d_58">
    <g clip-path="url(#pb6763a75ef)">
     <use style="stroke:#000000;" x="1023.620192" xlink:href="#m06c8b6a755" y="818.497176"/>
    </g>
   </g>
   <g id="line2d_59">
    <g clip-path="url(#pb6763a75ef)">
     <use style="fill:#ffffbe;stroke:#000000;" x="1214.539835" xlink:href="#m767154d1a1" y="549.943248"/>
    </g>
   </g>
   <g id="line2d_60">
    <g clip-path="url(#pb6763a75ef)">
     <use style="fill:#ffffbe;stroke:#000000;" x="1243.430997" xlink:href="#m767154d1a1" y="638.145152"/>
    </g>
   </g>
   <g id="line2d_61">
    <g clip-path="url(#pb6763a75ef)">
     <use style="stroke:#000000;" x="944.609176" xlink:href="#m06c8b6a755" y="442.844863"/>
    </g>
   </g>
   <g id="line2d_62">
    <g clip-path="url(#pb6763a75ef)">
     <use style="fill:#ffffbe;stroke:#000000;" x="1212.953731" xlink:href="#m767154d1a1" y="549.624297"/>
    </g>
   </g>
   <g id="line2d_63">
    <g clip-path="url(#pb6763a75ef)">
     <use style="fill:#ffffbe;stroke:#000000;" x="1229.700172" xlink:href="#m767154d1a1" y="638.253789"/>
    </g>
   </g>
   <g id="line2d_64">
    <g clip-path="url(#pb6763a75ef)">
     <use style="fill:#ffffbe;stroke:#000000;" x="1203.348591" xlink:href="#m767154d1a1" y="549.150569"/>
    </g>
   </g>
   <g id="line2d_65">
    <g clip-path="url(#pb6763a75ef)">
     <use style="fill:#ffffbe;stroke:#000000;" x="1231.933842" xlink:href="#m767154d1a1" y="638.111056"/>
    </g>
   </g>
   <g id="line2d_66">
    <g clip-path="url(#pb6763a75ef)">
     <use style="fill:#ffffbe;stroke:#000000;" x="1229.627729" xlink:href="#m767154d1a1" y="638.097092"/>
    </g>
   </g>
   <g id="line2d_67">
    <g clip-path="url(#pb6763a75ef)">
     <use style="fill:#ffffbe;stroke:#000000;" x="1215.511395" xlink:href="#m767154d1a1" y="549.479325"/>
    </g>
   </g>
   <g id="line2d_68">
    <g clip-path="url(#pb6763a75ef)">
     <use style="fill:#ffffbe;stroke:#000000;" x="1204.707384" xlink:href="#m767154d1a1" y="548.987534"/>
    </g>
   </g>
   <g id="line2d_69">
    <g clip-path="url(#pb6763a75ef)">
     <use style="stroke:#000000;" x="802.220471" xlink:href="#m06c8b6a755" y="1050.784816"/>
    </g>
   </g>
   <g id="line2d_70">
    <g clip-path="url(#pb6763a75ef)">
     <use style="fill:#ffffbe;stroke:#000000;" x="1233.576989" xlink:href="#m767154d1a1" y="638.113014"/>
    </g>
   </g>
   <g id="line2d_71">
    <g clip-path="url(#pb6763a75ef)">
     <use style="fill:#9e0142;stroke:#000000;" x="715.034341" xlink:href="#ma2b6f8aa41" y="1192.886527"/>
    </g>
   </g>
   <g id="line2d_72">
    <g clip-path="url(#pb6763a75ef)">
     <use style="fill:#ffffbe;stroke:#000000;" x="1206.790255" xlink:href="#m767154d1a1" y="549.709714"/>
    </g>
   </g>
   <g id="line2d_73">
    <g clip-path="url(#pb6763a75ef)">
     <use style="stroke:#000000;" x="770.746675" xlink:href="#m06c8b6a755" y="370.25053"/>
    </g>
   </g>
   <g id="line2d_74">
    <g clip-path="url(#pb6763a75ef)">
     <use style="fill:#ffffbe;stroke:#000000;" x="1240.998745" xlink:href="#m767154d1a1" y="638.295067"/>
    </g>
   </g>
   <g id="line2d_75">
    <g clip-path="url(#pb6763a75ef)">
     <use style="fill:#ffffbe;stroke:#000000;" x="1228.448912" xlink:href="#m767154d1a1" y="638.311423"/>
    </g>
   </g>
   <g id="line2d_76">
    <g clip-path="url(#pb6763a75ef)">
     <use style="stroke:#000000;" x="555.977034" xlink:href="#m06c8b6a755" y="371.117152"/>
    </g>
   </g>
   <g id="line2d_77">
    <g clip-path="url(#pb6763a75ef)">
     <use style="stroke:#000000;" x="687.662283" xlink:href="#m06c8b6a755" y="344.270562"/>
    </g>
   </g>
   <g id="line2d_78">
    <g clip-path="url(#pb6763a75ef)">
     <use style="stroke:#000000;" x="349.96793" xlink:href="#m06c8b6a755" y="223.2"/>
    </g>
   </g>
   <g id="line2d_79">
    <g clip-path="url(#pb6763a75ef)">
     <use style="fill:#ffffbe;stroke:#000000;" x="1228.744036" xlink:href="#m767154d1a1" y="638.245006"/>
    </g>
   </g>
   <g id="line2d_80">
    <g clip-path="url(#pb6763a75ef)">
     <use style="fill:#ffffbe;stroke:#000000;" x="1211.423373" xlink:href="#m767154d1a1" y="549.33347"/>
    </g>
   </g>
   <g id="line2d_81">
    <g clip-path="url(#pb6763a75ef)">
     <use style="fill:#ffffbe;stroke:#000000;" x="1229.187265" xlink:href="#m767154d1a1" y="638.288827"/>
    </g>
   </g>
   <g id="line2d_82">
    <g clip-path="url(#pb6763a75ef)">
     <use style="fill:#ffffbe;stroke:#000000;" x="1225.875859" xlink:href="#m767154d1a1" y="638.161083"/>
    </g>
   </g>
   <g id="line2d_83">
    <g clip-path="url(#pb6763a75ef)">
     <use style="fill:#ffffbe;stroke:#000000;" x="1201.817501" xlink:href="#m767154d1a1" y="549.06442"/>
    </g>
   </g>
   <g id="line2d_84">
    <g clip-path="url(#pb6763a75ef)">
     <use style="stroke:#000000;" x="657.993459" xlink:href="#m06c8b6a755" y="1231.2"/>
    </g>
   </g>
   <g id="line2d_85">
    <g clip-path="url(#pb6763a75ef)">
     <use style="fill:#ffffbe;stroke:#000000;" x="1227.665381" xlink:href="#m767154d1a1" y="638.1899"/>
    </g>
   </g>
   <g id="line2d_86">
    <g clip-path="url(#pb6763a75ef)">
     <use style="fill:#9e0142;stroke:#000000;" x="720.586732" xlink:href="#ma2b6f8aa41" y="1193.556702"/>
    </g>
   </g>
   <g id="line2d_87">
    <g clip-path="url(#pb6763a75ef)">
     <use style="fill:#ffffbe;stroke:#000000;" x="1240.583171" xlink:href="#m767154d1a1" y="638.26482"/>
    </g>
   </g>
   <g id="line2d_88">
    <g clip-path="url(#pb6763a75ef)">
     <use style="fill:#ffffbe;stroke:#000000;" x="1211.768408" xlink:href="#m767154d1a1" y="549.835553"/>
    </g>
   </g>
   <g id="line2d_89">
    <g clip-path="url(#pb6763a75ef)">
     <use style="fill:#ffffbe;stroke:#000000;" x="1234.206198" xlink:href="#m767154d1a1" y="638.319195"/>
    </g>
   </g>
   <g id="line2d_90">
    <g clip-path="url(#pb6763a75ef)">
     <use style="fill:#ffffbe;stroke:#000000;" x="1203.635438" xlink:href="#m767154d1a1" y="549.810967"/>
    </g>
   </g>
   <g id="line2d_91">
    <g clip-path="url(#pb6763a75ef)">
     <use style="fill:#ffffbe;stroke:#000000;" x="1227.892442" xlink:href="#m767154d1a1" y="638.185551"/>
    </g>
   </g>
   <g id="line2d_92">
    <g clip-path="url(#pb6763a75ef)">
     <use style="fill:#9e0142;stroke:#000000;" x="719.671287" xlink:href="#ma2b6f8aa41" y="1192.611052"/>
    </g>
   </g>
   <g id="line2d_93">
    <g clip-path="url(#pb6763a75ef)">
     <use style="fill:#ffffbe;stroke:#000000;" x="1236.783938" xlink:href="#m767154d1a1" y="638.18877"/>
    </g>
   </g>
   <g id="line2d_94">
    <g clip-path="url(#pb6763a75ef)">
     <use style="fill:#ffffbe;stroke:#000000;" x="1228.164037" xlink:href="#m767154d1a1" y="638.258614"/>
    </g>
   </g>
   <g id="line2d_95">
    <g clip-path="url(#pb6763a75ef)">
     <use style="fill:#ffffbe;stroke:#000000;" x="1218.554937" xlink:href="#m767154d1a1" y="549.910388"/>
    </g>
   </g>
   <g id="line2d_96">
    <g clip-path="url(#pb6763a75ef)">
     <use style="fill:#ffffbe;stroke:#000000;" x="1234.153114" xlink:href="#m767154d1a1" y="638.258417"/>
    </g>
   </g>
   <g id="line2d_97">
    <g clip-path="url(#pb6763a75ef)">
     <use style="fill:#ffffbe;stroke:#000000;" x="1226.28188" xlink:href="#m767154d1a1" y="638.244401"/>
    </g>
   </g>
   <g id="line2d_98">
    <g clip-path="url(#pb6763a75ef)">
     <use style="stroke:#000000;" x="798.242389" xlink:href="#m06c8b6a755" y="1049.479166"/>
    </g>
   </g>
   <g id="line2d_99">
    <g clip-path="url(#pb6763a75ef)">
     <use style="fill:#ffffbe;stroke:#000000;" x="1218.083935" xlink:href="#m767154d1a1" y="549.115497"/>
    </g>
   </g>
   <g id="line2d_100">
    <g clip-path="url(#pb6763a75ef)">
     <use style="fill:#ffffbe;stroke:#000000;" x="1217.791937" xlink:href="#m767154d1a1" y="549.827577"/>
    </g>
   </g>
   <g id="line2d_101">
    <g clip-path="url(#pb6763a75ef)">
     <use style="fill:#ffffbe;stroke:#000000;" x="1232.523773" xlink:href="#m767154d1a1" y="638.154775"/>
    </g>
   </g>
   <g id="line2d_102">
    <g clip-path="url(#pb6763a75ef)">
     <use style="fill:#ffffbe;stroke:#000000;" x="1200.491871" xlink:href="#m767154d1a1" y="549.493009"/>
    </g>
   </g>
   <g id="line2d_103">
    <g clip-path="url(#pb6763a75ef)">
     <use style="stroke:#000000;" x="977.681286" xlink:href="#m06c8b6a755" y="455.082843"/>
    </g>
   </g>
   <g id="line2d_104">
    <g clip-path="url(#pb6763a75ef)">
     <use style="fill:#ffffbe;stroke:#000000;" x="1203.894099" xlink:href="#m767154d1a1" y="549.161847"/>
    </g>
   </g>
   <g id="line2d_105">
    <g clip-path="url(#pb6763a75ef)">
     <use style="fill:#ffffbe;stroke:#000000;" x="1227.236908" xlink:href="#m767154d1a1" y="638.300868"/>
    </g>
   </g>
   <g id="line2d_106">
    <g clip-path="url(#pb6763a75ef)">
     <use style="fill:#ffffbe;stroke:#000000;" x="1216.491362" xlink:href="#m767154d1a1" y="549.717745"/>
    </g>
   </g>
   <g id="line2d_107">
    <g clip-path="url(#pb6763a75ef)">
     <use style="fill:#ffffbe;stroke:#000000;" x="1212.045087" xlink:href="#m767154d1a1" y="548.958324"/>
    </g>
   </g>
   <g id="line2d_108">
    <g clip-path="url(#pb6763a75ef)">
     <use style="fill:#ffffbe;stroke:#000000;" x="1215.20249" xlink:href="#m767154d1a1" y="550.020313"/>
    </g>
   </g>
   <g id="line2d_109">
    <g clip-path="url(#pb6763a75ef)">
     <use style="fill:#9e0142;stroke:#000000;" x="718.776303" xlink:href="#ma2b6f8aa41" y="1196.631576"/>
    </g>
   </g>
   <g id="line2d_110">
    <g clip-path="url(#pb6763a75ef)">
     <use style="fill:#ffffbe;stroke:#000000;" x="1237.51732" xlink:href="#m767154d1a1" y="638.257637"/>
    </g>
   </g>
   <g id="line2d_111">
    <g clip-path="url(#pb6763a75ef)">
     <use style="fill:#ffffbe;stroke:#000000;" x="1219.584839" xlink:href="#m767154d1a1" y="548.739888"/>
    </g>
   </g>
   <g id="line2d_112">
    <g clip-path="url(#pb6763a75ef)">
     <use style="fill:#ffffbe;stroke:#000000;" x="1242.218698" xlink:href="#m767154d1a1" y="638.213621"/>
    </g>
   </g>
   <g id="line2d_113">
    <g clip-path="url(#pb6763a75ef)">
     <use style="stroke:#000000;" x="803.778687" xlink:href="#m06c8b6a755" y="1053.396804"/>
    </g>
   </g>
   <g id="line2d_114">
    <g clip-path="url(#pb6763a75ef)">
     <use style="fill:#ffffbe;stroke:#000000;" x="1229.246345" xlink:href="#m767154d1a1" y="638.305931"/>
    </g>
   </g>
   <g id="line2d_115">
    <g clip-path="url(#pb6763a75ef)">
     <use style="fill:#ffffbe;stroke:#000000;" x="1242.796691" xlink:href="#m767154d1a1" y="638.316778"/>
    </g>
   </g>
   <g id="line2d_116">
    <g clip-path="url(#pb6763a75ef)">
     <use style="fill:#ffffbe;stroke:#000000;" x="1211.124698" xlink:href="#m767154d1a1" y="549.21289"/>
    </g>
   </g>
   <g id="line2d_117">
    <g clip-path="url(#pb6763a75ef)">
     <use style="fill:#ffffbe;stroke:#000000;" x="1238.195717" xlink:href="#m767154d1a1" y="638.099132"/>
    </g>
   </g>
   <g id="line2d_118">
    <g clip-path="url(#pb6763a75ef)">
     <use style="stroke:#000000;" x="587.758172" xlink:href="#m06c8b6a755" y="406.718814"/>
    </g>
   </g>
   <g id="line2d_119">
    <g clip-path="url(#pb6763a75ef)">
     <use style="stroke:#000000;" x="230.727273" xlink:href="#m06c8b6a755" y="289.162415"/>
    </g>
   </g>
   <g id="line2d_120">
    <g clip-path="url(#pb6763a75ef)">
     <use style="fill:#ffffbe;stroke:#000000;" x="1209.269766" xlink:href="#m767154d1a1" y="550.062717"/>
    </g>
   </g>
   <g id="line2d_121">
    <g clip-path="url(#pb6763a75ef)">
     <use style="fill:#ffffbe;stroke:#000000;" x="1228.895424" xlink:href="#m767154d1a1" y="638.164104"/>
    </g>
   </g>
   <g id="line2d_122">
    <g clip-path="url(#pb6763a75ef)">
     <use style="fill:#ffffbe;stroke:#000000;" x="1230.563251" xlink:href="#m767154d1a1" y="638.123904"/>
    </g>
   </g>
   <g id="line2d_123">
    <g clip-path="url(#pb6763a75ef)">
     <use style="fill:#ffffbe;stroke:#000000;" x="1216.825589" xlink:href="#m767154d1a1" y="549.082225"/>
    </g>
   </g>
   <g id="line2d_124">
    <g clip-path="url(#pb6763a75ef)">
     <use style="fill:#ffffbe;stroke:#000000;" x="1231.277569" xlink:href="#m767154d1a1" y="638.215935"/>
    </g>
   </g>
   <g id="line2d_125">
    <g clip-path="url(#pb6763a75ef)">
     <use style="fill:#ffffbe;stroke:#000000;" x="1211.225414" xlink:href="#m767154d1a1" y="549.326868"/>
    </g>
   </g>
   <g id="line2d_126">
    <g clip-path="url(#pb6763a75ef)">
     <use style="fill:#ffffbe;stroke:#000000;" x="1209.328448" xlink:href="#m767154d1a1" y="548.989743"/>
    </g>
   </g>
   <g id="line2d_127">
    <g clip-path="url(#pb6763a75ef)">
     <use style="fill:#ffffbe;stroke:#000000;" x="1200.524303" xlink:href="#m767154d1a1" y="549.026233"/>
    </g>
   </g>
   <g id="line2d_128">
    <g clip-path="url(#pb6763a75ef)">
     <use style="fill:#ffffbe;stroke:#000000;" x="1216.836407" xlink:href="#m767154d1a1" y="549.855313"/>
    </g>
   </g>
   <g id="line2d_129">
    <g clip-path="url(#pb6763a75ef)">
     <use style="fill:#ffffbe;stroke:#000000;" x="1202.479498" xlink:href="#m767154d1a1" y="549.314407"/>
    </g>
   </g>
   <g id="line2d_130">
    <g clip-path="url(#pb6763a75ef)">
     <use style="fill:#ffffbe;stroke:#000000;" x="1209.063926" xlink:href="#m767154d1a1" y="549.156784"/>
    </g>
   </g>
   <g id="line2d_131">
    <g clip-path="url(#pb6763a75ef)">
     <use style="fill:#ffffbe;stroke:#000000;" x="1218.446464" xlink:href="#m767154d1a1" y="549.634156"/>
    </g>
   </g>
   <g id="line2d_132">
    <g clip-path="url(#pb6763a75ef)">
     <use style="fill:#ffffbe;stroke:#000000;" x="1235.961425" xlink:href="#m767154d1a1" y="638.261157"/>
    </g>
   </g>
   <g id="line2d_133">
    <g clip-path="url(#pb6763a75ef)">
     <use style="fill:#ffffbe;stroke:#000000;" x="1228.159203" xlink:href="#m767154d1a1" y="638.322321"/>
    </g>
   </g>
   <g id="line2d_134">
    <g clip-path="url(#pb6763a75ef)">
     <use style="fill:#ffffbe;stroke:#000000;" x="1217.693127" xlink:href="#m767154d1a1" y="549.764486"/>
    </g>
   </g>
   <g id="line2d_135">
    <g clip-path="url(#pb6763a75ef)">
     <use style="fill:#ffffbe;stroke:#000000;" x="1225.382986" xlink:href="#m767154d1a1" y="638.173918"/>
    </g>
   </g>
   <g id="line2d_136">
    <g clip-path="url(#pb6763a75ef)">
     <use style="fill:#ffffbe;stroke:#000000;" x="1231.244171" xlink:href="#m767154d1a1" y="638.237404"/>
    </g>
   </g>
   <g id="line2d_137">
    <g clip-path="url(#pb6763a75ef)">
     <use style="fill:#ffffbe;stroke:#000000;" x="1203.17884" xlink:href="#m767154d1a1" y="549.553635"/>
    </g>
   </g>
   <g id="line2d_138">
    <g clip-path="url(#pb6763a75ef)">
     <use style="fill:#ffffbe;stroke:#000000;" x="1215.071846" xlink:href="#m767154d1a1" y="548.851028"/>
    </g>
   </g>
   <g id="line2d_139">
    <g clip-path="url(#pb6763a75ef)">
     <use style="fill:#ffffbe;stroke:#000000;" x="1209.454281" xlink:href="#m767154d1a1" y="550.208384"/>
    </g>
   </g>
   <g id="line2d_140">
    <g clip-path="url(#pb6763a75ef)">
     <use style="fill:#ffffbe;stroke:#000000;" x="1243.876707" xlink:href="#m767154d1a1" y="638.09942"/>
    </g>
   </g>
   <g id="line2d_141">
    <g clip-path="url(#pb6763a75ef)">
     <use style="fill:#ffffbe;stroke:#000000;" x="1215.377732" xlink:href="#m767154d1a1" y="549.957636"/>
    </g>
   </g>
   <g id="line2d_142">
    <g clip-path="url(#pb6763a75ef)">
     <use style="fill:#ffffbe;stroke:#000000;" x="1244.062792" xlink:href="#m767154d1a1" y="638.128006"/>
    </g>
   </g>
   <g id="line2d_143">
    <g clip-path="url(#pb6763a75ef)">
     <use style="fill:#ffffbe;stroke:#000000;" x="1230.969514" xlink:href="#m767154d1a1" y="638.14083"/>
    </g>
   </g>
   <g id="line2d_144">
    <g clip-path="url(#pb6763a75ef)">
     <use style="fill:#ffffbe;stroke:#000000;" x="1233.018123" xlink:href="#m767154d1a1" y="638.118239"/>
    </g>
   </g>
   <g id="line2d_145">
    <g clip-path="url(#pb6763a75ef)">
     <use style="fill:#ffffbe;stroke:#000000;" x="1207.965822" xlink:href="#m767154d1a1" y="549.054147"/>
    </g>
   </g>
   <g id="line2d_146">
    <g clip-path="url(#pb6763a75ef)">
     <use style="stroke:#000000;" x="798.853423" xlink:href="#m06c8b6a755" y="1051.917657"/>
    </g>
   </g>
   <g id="line2d_147">
    <g clip-path="url(#pb6763a75ef)">
     <use style="fill:#ffffbe;stroke:#000000;" x="1219.803691" xlink:href="#m767154d1a1" y="548.807824"/>
    </g>
   </g>
   <g id="line2d_148">
    <g clip-path="url(#pb6763a75ef)">
     <use style="stroke:#000000;" x="487.145762" xlink:href="#m06c8b6a755" y="378.434116"/>
    </g>
   </g>
   <g id="line2d_149">
    <g clip-path="url(#pb6763a75ef)">
     <use style="fill:#ffffbe;stroke:#000000;" x="1228.322762" xlink:href="#m767154d1a1" y="638.30602"/>
    </g>
   </g>
   <g id="line2d_150">
    <g clip-path="url(#pb6763a75ef)">
     <use style="fill:#ffffbe;stroke:#000000;" x="1239.46033" xlink:href="#m767154d1a1" y="638.101363"/>
    </g>
   </g>
   <g id="line2d_151">
    <g clip-path="url(#pb6763a75ef)">
     <use style="fill:#ffffbe;stroke:#000000;" x="1228.32728" xlink:href="#m767154d1a1" y="638.260952"/>
    </g>
   </g>
   <g id="line2d_152">
    <g clip-path="url(#pb6763a75ef)">
     <use style="fill:#ffffbe;stroke:#000000;" x="1229.409724" xlink:href="#m767154d1a1" y="638.220696"/>
    </g>
   </g>
   <g id="line2d_153">
    <g clip-path="url(#pb6763a75ef)">
     <use style="fill:#ffffbe;stroke:#000000;" x="1234.602867" xlink:href="#m767154d1a1" y="638.266941"/>
    </g>
   </g>
   <g id="patch_3">
    <path d="M 180 1281.6 
L 180 172.8 
" style="fill:none;stroke:#000000;stroke-linecap:square;stroke-linejoin:miter;stroke-width:0.8;"/>
   </g>
   <g id="patch_4">
    <path d="M 1296 1281.6 
L 1296 172.8 
" style="fill:none;stroke:#000000;stroke-linecap:square;stroke-linejoin:miter;stroke-width:0.8;"/>
   </g>
   <g id="patch_5">
    <path d="M 180 1281.6 
L 1296 1281.6 
" style="fill:none;stroke:#000000;stroke-linecap:square;stroke-linejoin:miter;stroke-width:0.8;"/>
   </g>
   <g id="patch_6">
    <path d="M 180 172.8 
L 1296 172.8 
" style="fill:none;stroke:#000000;stroke-linecap:square;stroke-linejoin:miter;stroke-width:0.8;"/>
   </g>
  </g>
 </g>
 <defs>
  <clipPath id="pb6763a75ef">
   <rect height="1108.8" width="1116" x="180" y="172.8"/>
  </clipPath>
 </defs>
</svg>
