<?xml version="1.0" encoding="utf-8" standalone="no"?>
<!DOCTYPE svg PUBLIC "-//W3C//DTD SVG 1.1//EN"
  "http://www.w3.org/Graphics/SVG/1.1/DTD/svg11.dtd">
<!-- Created with matplotlib (https://matplotlib.org/) -->
<svg height="1440pt" version="1.1" viewBox="0 0 1440 1440" width="1440pt" xmlns="http://www.w3.org/2000/svg" xmlns:xlink="http://www.w3.org/1999/xlink">
 <defs>
  <style type="text/css">
*{stroke-linecap:butt;stroke-linejoin:round;}
  </style>
 </defs>
 <g id="figure_1">
  <g id="patch_1">
   <path d="M 0 1440 
L 1440 1440 
L 1440 0 
L 0 0 
z
" style="fill:#ffffff;"/>
  </g>
  <g id="axes_1">
   <g id="patch_2">
    <path d="M 180 1281.6 
L 1296 1281.6 
L 1296 172.8 
L 180 172.8 
z
" style="fill:#ffffff;"/>
   </g>
   <g id="matplotlib.axis_1">
    <g id="xtick_1">
     <g id="line2d_1">
      <defs>
       <path d="M 0 0 
L 0 3.5 
" id="maa421f64de" style="stroke:#000000;stroke-width:0.8;"/>
      </defs>
      <g>
       <use style="stroke:#000000;stroke-width:0.8;" x="196.39547" xlink:href="#maa421f64de" y="1281.6"/>
      </g>
     </g>
     <g id="text_1">
      <!-- −0.075 -->
      <defs>
       <path d="M 10.59375 35.5 
L 73.1875 35.5 
L 73.1875 27.203125 
L 10.59375 27.203125 
z
" id="DejaVuSans-8722"/>
       <path d="M 31.78125 66.40625 
Q 24.171875 66.40625 20.328125 58.90625 
Q 16.5 51.421875 16.5 36.375 
Q 16.5 21.390625 20.328125 13.890625 
Q 24.171875 6.390625 31.78125 6.390625 
Q 39.453125 6.390625 43.28125 13.890625 
Q 47.125 21.390625 47.125 36.375 
Q 47.125 51.421875 43.28125 58.90625 
Q 39.453125 66.40625 31.78125 66.40625 
z
M 31.78125 74.21875 
Q 44.046875 74.21875 50.515625 64.515625 
Q 56.984375 54.828125 56.984375 36.375 
Q 56.984375 17.96875 50.515625 8.265625 
Q 44.046875 -1.421875 31.78125 -1.421875 
Q 19.53125 -1.421875 13.0625 8.265625 
Q 6.59375 17.96875 6.59375 36.375 
Q 6.59375 54.828125 13.0625 64.515625 
Q 19.53125 74.21875 31.78125 74.21875 
z
" id="DejaVuSans-48"/>
       <path d="M 10.6875 12.40625 
L 21 12.40625 
L 21 0 
L 10.6875 0 
z
" id="DejaVuSans-46"/>
       <path d="M 8.203125 72.90625 
L 55.078125 72.90625 
L 55.078125 68.703125 
L 28.609375 0 
L 18.3125 0 
L 43.21875 64.59375 
L 8.203125 64.59375 
z
" id="DejaVuSans-55"/>
       <path d="M 10.796875 72.90625 
L 49.515625 72.90625 
L 49.515625 64.59375 
L 19.828125 64.59375 
L 19.828125 46.734375 
Q 21.96875 47.46875 24.109375 47.828125 
Q 26.265625 48.1875 28.421875 48.1875 
Q 40.625 48.1875 47.75 41.5 
Q 54.890625 34.8125 54.890625 23.390625 
Q 54.890625 11.625 47.5625 5.09375 
Q 40.234375 -1.421875 26.90625 -1.421875 
Q 22.3125 -1.421875 17.546875 -0.640625 
Q 12.796875 0.140625 7.71875 1.703125 
L 7.71875 11.625 
Q 12.109375 9.234375 16.796875 8.0625 
Q 21.484375 6.890625 26.703125 6.890625 
Q 35.15625 6.890625 40.078125 11.328125 
Q 45.015625 15.765625 45.015625 23.390625 
Q 45.015625 31 40.078125 35.4375 
Q 35.15625 39.890625 26.703125 39.890625 
Q 22.75 39.890625 18.8125 39.015625 
Q 14.890625 38.140625 10.796875 36.28125 
z
" id="DejaVuSans-53"/>
      </defs>
      <g transform="translate(177.891564 1296.198437)scale(0.1 -0.1)">
       <use xlink:href="#DejaVuSans-8722"/>
       <use x="83.789062" xlink:href="#DejaVuSans-48"/>
       <use x="147.412109" xlink:href="#DejaVuSans-46"/>
       <use x="179.199219" xlink:href="#DejaVuSans-48"/>
       <use x="242.822266" xlink:href="#DejaVuSans-55"/>
       <use x="306.445312" xlink:href="#DejaVuSans-53"/>
      </g>
     </g>
    </g>
    <g id="xtick_2">
     <g id="line2d_2">
      <g>
       <use style="stroke:#000000;stroke-width:0.8;" x="327.265267" xlink:href="#maa421f64de" y="1281.6"/>
      </g>
     </g>
     <g id="text_2">
      <!-- −0.050 -->
      <g transform="translate(308.761361 1296.198437)scale(0.1 -0.1)">
       <use xlink:href="#DejaVuSans-8722"/>
       <use x="83.789062" xlink:href="#DejaVuSans-48"/>
       <use x="147.412109" xlink:href="#DejaVuSans-46"/>
       <use x="179.199219" xlink:href="#DejaVuSans-48"/>
       <use x="242.822266" xlink:href="#DejaVuSans-53"/>
       <use x="306.445312" xlink:href="#DejaVuSans-48"/>
      </g>
     </g>
    </g>
    <g id="xtick_3">
     <g id="line2d_3">
      <g>
       <use style="stroke:#000000;stroke-width:0.8;" x="458.135065" xlink:href="#maa421f64de" y="1281.6"/>
      </g>
     </g>
     <g id="text_3">
      <!-- −0.025 -->
      <defs>
       <path d="M 19.1875 8.296875 
L 53.609375 8.296875 
L 53.609375 0 
L 7.328125 0 
L 7.328125 8.296875 
Q 12.9375 14.109375 22.625 23.890625 
Q 32.328125 33.6875 34.8125 36.53125 
Q 39.546875 41.84375 41.421875 45.53125 
Q 43.3125 49.21875 43.3125 52.78125 
Q 43.3125 58.59375 39.234375 62.25 
Q 35.15625 65.921875 28.609375 65.921875 
Q 23.96875 65.921875 18.8125 64.3125 
Q 13.671875 62.703125 7.8125 59.421875 
L 7.8125 69.390625 
Q 13.765625 71.78125 18.9375 73 
Q 24.125 74.21875 28.421875 74.21875 
Q 39.75 74.21875 46.484375 68.546875 
Q 53.21875 62.890625 53.21875 53.421875 
Q 53.21875 48.921875 51.53125 44.890625 
Q 49.859375 40.875 45.40625 35.40625 
Q 44.1875 33.984375 37.640625 27.21875 
Q 31.109375 20.453125 19.1875 8.296875 
z
" id="DejaVuSans-50"/>
      </defs>
      <g transform="translate(439.631159 1296.198437)scale(0.1 -0.1)">
       <use xlink:href="#DejaVuSans-8722"/>
       <use x="83.789062" xlink:href="#DejaVuSans-48"/>
       <use x="147.412109" xlink:href="#DejaVuSans-46"/>
       <use x="179.199219" xlink:href="#DejaVuSans-48"/>
       <use x="242.822266" xlink:href="#DejaVuSans-50"/>
       <use x="306.445312" xlink:href="#DejaVuSans-53"/>
      </g>
     </g>
    </g>
    <g id="xtick_4">
     <g id="line2d_4">
      <g>
       <use style="stroke:#000000;stroke-width:0.8;" x="589.004862" xlink:href="#maa421f64de" y="1281.6"/>
      </g>
     </g>
     <g id="text_4">
      <!-- 0.000 -->
      <g transform="translate(574.6908 1296.198437)scale(0.1 -0.1)">
       <use xlink:href="#DejaVuSans-48"/>
       <use x="63.623047" xlink:href="#DejaVuSans-46"/>
       <use x="95.410156" xlink:href="#DejaVuSans-48"/>
       <use x="159.033203" xlink:href="#DejaVuSans-48"/>
       <use x="222.65625" xlink:href="#DejaVuSans-48"/>
      </g>
     </g>
    </g>
    <g id="xtick_5">
     <g id="line2d_5">
      <g>
       <use style="stroke:#000000;stroke-width:0.8;" x="719.87466" xlink:href="#maa421f64de" y="1281.6"/>
      </g>
     </g>
     <g id="text_5">
      <!-- 0.025 -->
      <g transform="translate(705.560597 1296.198437)scale(0.1 -0.1)">
       <use xlink:href="#DejaVuSans-48"/>
       <use x="63.623047" xlink:href="#DejaVuSans-46"/>
       <use x="95.410156" xlink:href="#DejaVuSans-48"/>
       <use x="159.033203" xlink:href="#DejaVuSans-50"/>
       <use x="222.65625" xlink:href="#DejaVuSans-53"/>
      </g>
     </g>
    </g>
    <g id="xtick_6">
     <g id="line2d_6">
      <g>
       <use style="stroke:#000000;stroke-width:0.8;" x="850.744457" xlink:href="#maa421f64de" y="1281.6"/>
      </g>
     </g>
     <g id="text_6">
      <!-- 0.050 -->
      <g transform="translate(836.430395 1296.198437)scale(0.1 -0.1)">
       <use xlink:href="#DejaVuSans-48"/>
       <use x="63.623047" xlink:href="#DejaVuSans-46"/>
       <use x="95.410156" xlink:href="#DejaVuSans-48"/>
       <use x="159.033203" xlink:href="#DejaVuSans-53"/>
       <use x="222.65625" xlink:href="#DejaVuSans-48"/>
      </g>
     </g>
    </g>
    <g id="xtick_7">
     <g id="line2d_7">
      <g>
       <use style="stroke:#000000;stroke-width:0.8;" x="981.614255" xlink:href="#maa421f64de" y="1281.6"/>
      </g>
     </g>
     <g id="text_7">
      <!-- 0.075 -->
      <g transform="translate(967.300192 1296.198437)scale(0.1 -0.1)">
       <use xlink:href="#DejaVuSans-48"/>
       <use x="63.623047" xlink:href="#DejaVuSans-46"/>
       <use x="95.410156" xlink:href="#DejaVuSans-48"/>
       <use x="159.033203" xlink:href="#DejaVuSans-55"/>
       <use x="222.65625" xlink:href="#DejaVuSans-53"/>
      </g>
     </g>
    </g>
    <g id="xtick_8">
     <g id="line2d_8">
      <g>
       <use style="stroke:#000000;stroke-width:0.8;" x="1112.484052" xlink:href="#maa421f64de" y="1281.6"/>
      </g>
     </g>
     <g id="text_8">
      <!-- 0.100 -->
      <defs>
       <path d="M 12.40625 8.296875 
L 28.515625 8.296875 
L 28.515625 63.921875 
L 10.984375 60.40625 
L 10.984375 69.390625 
L 28.421875 72.90625 
L 38.28125 72.90625 
L 38.28125 8.296875 
L 54.390625 8.296875 
L 54.390625 0 
L 12.40625 0 
z
" id="DejaVuSans-49"/>
      </defs>
      <g transform="translate(1098.16999 1296.198437)scale(0.1 -0.1)">
       <use xlink:href="#DejaVuSans-48"/>
       <use x="63.623047" xlink:href="#DejaVuSans-46"/>
       <use x="95.410156" xlink:href="#DejaVuSans-49"/>
       <use x="159.033203" xlink:href="#DejaVuSans-48"/>
       <use x="222.65625" xlink:href="#DejaVuSans-48"/>
      </g>
     </g>
    </g>
    <g id="xtick_9">
     <g id="line2d_9">
      <g>
       <use style="stroke:#000000;stroke-width:0.8;" x="1243.35385" xlink:href="#maa421f64de" y="1281.6"/>
      </g>
     </g>
     <g id="text_9">
      <!-- 0.125 -->
      <g transform="translate(1229.039787 1296.198437)scale(0.1 -0.1)">
       <use xlink:href="#DejaVuSans-48"/>
       <use x="63.623047" xlink:href="#DejaVuSans-46"/>
       <use x="95.410156" xlink:href="#DejaVuSans-49"/>
       <use x="159.033203" xlink:href="#DejaVuSans-50"/>
       <use x="222.65625" xlink:href="#DejaVuSans-53"/>
      </g>
     </g>
    </g>
   </g>
   <g id="matplotlib.axis_2">
    <g id="ytick_1">
     <g id="line2d_10">
      <defs>
       <path d="M 0 0 
L -3.5 0 
" id="m92868988aa" style="stroke:#000000;stroke-width:0.8;"/>
      </defs>
      <g>
       <use style="stroke:#000000;stroke-width:0.8;" x="180" xlink:href="#m92868988aa" y="1144.435948"/>
      </g>
     </g>
     <g id="text_10">
      <!-- −0.2 -->
      <g transform="translate(148.717187 1148.235167)scale(0.1 -0.1)">
       <use xlink:href="#DejaVuSans-8722"/>
       <use x="83.789062" xlink:href="#DejaVuSans-48"/>
       <use x="147.412109" xlink:href="#DejaVuSans-46"/>
       <use x="179.199219" xlink:href="#DejaVuSans-50"/>
      </g>
     </g>
    </g>
    <g id="ytick_2">
     <g id="line2d_11">
      <g>
       <use style="stroke:#000000;stroke-width:0.8;" x="180" xlink:href="#m92868988aa" y="985.119002"/>
      </g>
     </g>
     <g id="text_11">
      <!-- −0.1 -->
      <g transform="translate(148.717187 988.918221)scale(0.1 -0.1)">
       <use xlink:href="#DejaVuSans-8722"/>
       <use x="83.789062" xlink:href="#DejaVuSans-48"/>
       <use x="147.412109" xlink:href="#DejaVuSans-46"/>
       <use x="179.199219" xlink:href="#DejaVuSans-49"/>
      </g>
     </g>
    </g>
    <g id="ytick_3">
     <g id="line2d_12">
      <g>
       <use style="stroke:#000000;stroke-width:0.8;" x="180" xlink:href="#m92868988aa" y="825.802056"/>
      </g>
     </g>
     <g id="text_12">
      <!-- 0.0 -->
      <g transform="translate(157.096875 829.601275)scale(0.1 -0.1)">
       <use xlink:href="#DejaVuSans-48"/>
       <use x="63.623047" xlink:href="#DejaVuSans-46"/>
       <use x="95.410156" xlink:href="#DejaVuSans-48"/>
      </g>
     </g>
    </g>
    <g id="ytick_4">
     <g id="line2d_13">
      <g>
       <use style="stroke:#000000;stroke-width:0.8;" x="180" xlink:href="#m92868988aa" y="666.48511"/>
      </g>
     </g>
     <g id="text_13">
      <!-- 0.1 -->
      <g transform="translate(157.096875 670.284329)scale(0.1 -0.1)">
       <use xlink:href="#DejaVuSans-48"/>
       <use x="63.623047" xlink:href="#DejaVuSans-46"/>
       <use x="95.410156" xlink:href="#DejaVuSans-49"/>
      </g>
     </g>
    </g>
    <g id="ytick_5">
     <g id="line2d_14">
      <g>
       <use style="stroke:#000000;stroke-width:0.8;" x="180" xlink:href="#m92868988aa" y="507.168164"/>
      </g>
     </g>
     <g id="text_14">
      <!-- 0.2 -->
      <g transform="translate(157.096875 510.967383)scale(0.1 -0.1)">
       <use xlink:href="#DejaVuSans-48"/>
       <use x="63.623047" xlink:href="#DejaVuSans-46"/>
       <use x="95.410156" xlink:href="#DejaVuSans-50"/>
      </g>
     </g>
    </g>
    <g id="ytick_6">
     <g id="line2d_15">
      <g>
       <use style="stroke:#000000;stroke-width:0.8;" x="180" xlink:href="#m92868988aa" y="347.851218"/>
      </g>
     </g>
     <g id="text_15">
      <!-- 0.3 -->
      <defs>
       <path d="M 40.578125 39.3125 
Q 47.65625 37.796875 51.625 33 
Q 55.609375 28.21875 55.609375 21.1875 
Q 55.609375 10.40625 48.1875 4.484375 
Q 40.765625 -1.421875 27.09375 -1.421875 
Q 22.515625 -1.421875 17.65625 -0.515625 
Q 12.796875 0.390625 7.625 2.203125 
L 7.625 11.71875 
Q 11.71875 9.328125 16.59375 8.109375 
Q 21.484375 6.890625 26.8125 6.890625 
Q 36.078125 6.890625 40.9375 10.546875 
Q 45.796875 14.203125 45.796875 21.1875 
Q 45.796875 27.640625 41.28125 31.265625 
Q 36.765625 34.90625 28.71875 34.90625 
L 20.21875 34.90625 
L 20.21875 43.015625 
L 29.109375 43.015625 
Q 36.375 43.015625 40.234375 45.921875 
Q 44.09375 48.828125 44.09375 54.296875 
Q 44.09375 59.90625 40.109375 62.90625 
Q 36.140625 65.921875 28.71875 65.921875 
Q 24.65625 65.921875 20.015625 65.03125 
Q 15.375 64.15625 9.8125 62.3125 
L 9.8125 71.09375 
Q 15.4375 72.65625 20.34375 73.4375 
Q 25.25 74.21875 29.59375 74.21875 
Q 40.828125 74.21875 47.359375 69.109375 
Q 53.90625 64.015625 53.90625 55.328125 
Q 53.90625 49.265625 50.4375 45.09375 
Q 46.96875 40.921875 40.578125 39.3125 
z
" id="DejaVuSans-51"/>
      </defs>
      <g transform="translate(157.096875 351.650437)scale(0.1 -0.1)">
       <use xlink:href="#DejaVuSans-48"/>
       <use x="63.623047" xlink:href="#DejaVuSans-46"/>
       <use x="95.410156" xlink:href="#DejaVuSans-51"/>
      </g>
     </g>
    </g>
    <g id="ytick_7">
     <g id="line2d_16">
      <g>
       <use style="stroke:#000000;stroke-width:0.8;" x="180" xlink:href="#m92868988aa" y="188.534272"/>
      </g>
     </g>
     <g id="text_16">
      <!-- 0.4 -->
      <defs>
       <path d="M 37.796875 64.3125 
L 12.890625 25.390625 
L 37.796875 25.390625 
z
M 35.203125 72.90625 
L 47.609375 72.90625 
L 47.609375 25.390625 
L 58.015625 25.390625 
L 58.015625 17.1875 
L 47.609375 17.1875 
L 47.609375 0 
L 37.796875 0 
L 37.796875 17.1875 
L 4.890625 17.1875 
L 4.890625 26.703125 
z
" id="DejaVuSans-52"/>
      </defs>
      <g transform="translate(157.096875 192.333491)scale(0.1 -0.1)">
       <use xlink:href="#DejaVuSans-48"/>
       <use x="63.623047" xlink:href="#DejaVuSans-46"/>
       <use x="95.410156" xlink:href="#DejaVuSans-52"/>
      </g>
     </g>
    </g>
   </g>
   <g id="line2d_17">
    <defs>
     <path d="M 0 9 
C 2.386828 9 4.676219 8.051703 6.363961 6.363961 
C 8.051703 4.676219 9 2.386828 9 0 
C 9 -2.386828 8.051703 -4.676219 6.363961 -6.363961 
C 4.676219 -8.051703 2.386828 -9 0 -9 
C -2.386828 -9 -4.676219 -8.051703 -6.363961 -6.363961 
C -8.051703 -4.676219 -9 -2.386828 -9 0 
C -9 2.386828 -8.051703 4.676219 -6.363961 6.363961 
C -4.676219 8.051703 -2.386828 9 0 9 
z
" id="mb3e9d5cba8" style="stroke:#000000;"/>
    </defs>
    <g clip-path="url(#pecc995f5f5)">
     <use style="fill:#9e0142;stroke:#000000;" x="1221.270265" xlink:href="#mb3e9d5cba8" y="859.575305"/>
    </g>
   </g>
   <g id="line2d_18">
    <g clip-path="url(#pecc995f5f5)">
     <use style="fill:#9e0142;stroke:#000000;" x="1239.957311" xlink:href="#mb3e9d5cba8" y="792.417212"/>
    </g>
   </g>
   <g id="line2d_19">
    <g clip-path="url(#pecc995f5f5)">
     <use style="fill:#9e0142;stroke:#000000;" x="1241.046358" xlink:href="#mb3e9d5cba8" y="792.471098"/>
    </g>
   </g>
   <g id="line2d_20">
    <g clip-path="url(#pecc995f5f5)">
     <use style="fill:#9e0142;stroke:#000000;" x="1231.727533" xlink:href="#mb3e9d5cba8" y="792.147504"/>
    </g>
   </g>
   <g id="line2d_21">
    <g clip-path="url(#pecc995f5f5)">
     <use style="fill:#9e0142;stroke:#000000;" x="1243.266937" xlink:href="#mb3e9d5cba8" y="792.51288"/>
    </g>
   </g>
   <g id="line2d_22">
    <g clip-path="url(#pecc995f5f5)">
     <use style="fill:#9e0142;stroke:#000000;" x="1235.363863" xlink:href="#mb3e9d5cba8" y="792.447806"/>
    </g>
   </g>
   <g id="line2d_23">
    <g clip-path="url(#pecc995f5f5)">
     <use style="fill:#9e0142;stroke:#000000;" x="1235.299147" xlink:href="#mb3e9d5cba8" y="792.268256"/>
    </g>
   </g>
   <g id="line2d_24">
    <g clip-path="url(#pecc995f5f5)">
     <use style="fill:#9e0142;stroke:#000000;" x="1240.104574" xlink:href="#mb3e9d5cba8" y="792.218964"/>
    </g>
   </g>
   <g id="line2d_25">
    <defs>
     <path d="M 0 9 
C 2.386828 9 4.676219 8.051703 6.363961 6.363961 
C 8.051703 4.676219 9 2.386828 9 0 
C 9 -2.386828 8.051703 -4.676219 6.363961 -6.363961 
C 4.676219 -8.051703 2.386828 -9 0 -9 
C -2.386828 -9 -4.676219 -8.051703 -6.363961 -6.363961 
C -8.051703 -4.676219 -9 -2.386828 -9 0 
C -9 2.386828 -8.051703 4.676219 -6.363961 6.363961 
C -4.676219 8.051703 -2.386828 9 0 9 
z
" id="mace9feb2a6" style="stroke:#000000;"/>
    </defs>
    <g clip-path="url(#pecc995f5f5)">
     <use style="fill:#ffffbe;stroke:#000000;" x="417.878693" xlink:href="#mace9feb2a6" y="228.736476"/>
    </g>
   </g>
   <g id="line2d_26">
    <g clip-path="url(#pecc995f5f5)">
     <use style="fill:#ffffbe;stroke:#000000;" x="416.626713" xlink:href="#mace9feb2a6" y="224.123911"/>
    </g>
   </g>
   <g id="line2d_27">
    <g clip-path="url(#pecc995f5f5)">
     <use style="fill:#ffffbe;stroke:#000000;" x="417.678898" xlink:href="#mace9feb2a6" y="229.481959"/>
    </g>
   </g>
   <g id="line2d_28">
    <g clip-path="url(#pecc995f5f5)">
     <use style="fill:#ffffbe;stroke:#000000;" x="416.935771" xlink:href="#mace9feb2a6" y="223.2"/>
    </g>
   </g>
   <g id="line2d_29">
    <g clip-path="url(#pecc995f5f5)">
     <use style="fill:#ffffbe;stroke:#000000;" x="418.291816" xlink:href="#mace9feb2a6" y="229.733242"/>
    </g>
   </g>
   <g id="line2d_30">
    <defs>
     <path d="M 0 3 
C 0.795609 3 1.55874 2.683901 2.12132 2.12132 
C 2.683901 1.55874 3 0.795609 3 0 
C 3 -0.795609 2.683901 -1.55874 2.12132 -2.12132 
C 1.55874 -2.683901 0.795609 -3 0 -3 
C -0.795609 -3 -1.55874 -2.683901 -2.12132 -2.12132 
C -2.683901 -1.55874 -3 -0.795609 -3 0 
C -3 0.795609 -2.683901 1.55874 -2.12132 2.12132 
C -1.55874 2.683901 -0.795609 3 0 3 
z
" id="m871983dd6a" style="stroke:#000000;"/>
    </defs>
    <g clip-path="url(#pecc995f5f5)">
     <use style="stroke:#000000;" x="230.727273" xlink:href="#m871983dd6a" y="594.250885"/>
    </g>
   </g>
   <g id="line2d_31">
    <g clip-path="url(#pecc995f5f5)">
     <use style="fill:#9e0142;stroke:#000000;" x="1239.566736" xlink:href="#mb3e9d5cba8" y="792.16489"/>
    </g>
   </g>
   <g id="line2d_32">
    <g clip-path="url(#pecc995f5f5)">
     <use style="fill:#9e0142;stroke:#000000;" x="1233.920996" xlink:href="#mb3e9d5cba8" y="792.115232"/>
    </g>
   </g>
   <g id="line2d_33">
    <g clip-path="url(#pecc995f5f5)">
     <use style="fill:#9e0142;stroke:#000000;" x="1212.735395" xlink:href="#mb3e9d5cba8" y="859.755804"/>
    </g>
   </g>
   <g id="line2d_34">
    <g clip-path="url(#pecc995f5f5)">
     <use style="fill:#9e0142;stroke:#000000;" x="1232.121651" xlink:href="#mb3e9d5cba8" y="792.081577"/>
    </g>
   </g>
   <g id="line2d_35">
    <g clip-path="url(#pecc995f5f5)">
     <use style="fill:#9e0142;stroke:#000000;" x="1236.485288" xlink:href="#mb3e9d5cba8" y="812.918713"/>
    </g>
   </g>
   <g id="line2d_36">
    <g clip-path="url(#pecc995f5f5)">
     <use style="fill:#9e0142;stroke:#000000;" x="1236.326322" xlink:href="#mb3e9d5cba8" y="812.916337"/>
    </g>
   </g>
   <g id="line2d_37">
    <g clip-path="url(#pecc995f5f5)">
     <use style="fill:#9e0142;stroke:#000000;" x="1235.577872" xlink:href="#mb3e9d5cba8" y="791.996623"/>
    </g>
   </g>
   <g id="line2d_38">
    <g clip-path="url(#pecc995f5f5)">
     <use style="fill:#9e0142;stroke:#000000;" x="1238.165743" xlink:href="#mb3e9d5cba8" y="792.289441"/>
    </g>
   </g>
   <g id="line2d_39">
    <g clip-path="url(#pecc995f5f5)">
     <use style="fill:#9e0142;stroke:#000000;" x="1237.434278" xlink:href="#mb3e9d5cba8" y="792.261937"/>
    </g>
   </g>
   <g id="line2d_40">
    <g clip-path="url(#pecc995f5f5)">
     <use style="fill:#9e0142;stroke:#000000;" x="1232.87021" xlink:href="#mb3e9d5cba8" y="791.879357"/>
    </g>
   </g>
   <g id="line2d_41">
    <g clip-path="url(#pecc995f5f5)">
     <use style="fill:#9e0142;stroke:#000000;" x="1242.949205" xlink:href="#mb3e9d5cba8" y="791.996108"/>
    </g>
   </g>
   <g id="line2d_42">
    <g clip-path="url(#pecc995f5f5)">
     <use style="stroke:#000000;" x="781.481655" xlink:href="#m871983dd6a" y="838.222542"/>
    </g>
   </g>
   <g id="line2d_43">
    <g clip-path="url(#pecc995f5f5)">
     <use style="fill:#9e0142;stroke:#000000;" x="1241.808326" xlink:href="#mb3e9d5cba8" y="791.997501"/>
    </g>
   </g>
   <g id="line2d_44">
    <g clip-path="url(#pecc995f5f5)">
     <use style="fill:#9e0142;stroke:#000000;" x="1240.377389" xlink:href="#mb3e9d5cba8" y="792.087898"/>
    </g>
   </g>
   <g id="line2d_45">
    <g clip-path="url(#pecc995f5f5)">
     <use style="fill:#9e0142;stroke:#000000;" x="1232.533231" xlink:href="#mb3e9d5cba8" y="792.336283"/>
    </g>
   </g>
   <g id="line2d_46">
    <g clip-path="url(#pecc995f5f5)">
     <use style="fill:#9e0142;stroke:#000000;" x="1243.892007" xlink:href="#mb3e9d5cba8" y="792.158264"/>
    </g>
   </g>
   <g id="line2d_47">
    <g clip-path="url(#pecc995f5f5)">
     <use style="stroke:#000000;" x="1065.922621" xlink:href="#m871983dd6a" y="746.11877"/>
    </g>
   </g>
   <g id="line2d_48">
    <g clip-path="url(#pecc995f5f5)">
     <use style="fill:#9e0142;stroke:#000000;" x="1233.84272" xlink:href="#mb3e9d5cba8" y="812.960274"/>
    </g>
   </g>
   <g id="line2d_49">
    <g clip-path="url(#pecc995f5f5)">
     <use style="fill:#9e0142;stroke:#000000;" x="1240.07993" xlink:href="#mb3e9d5cba8" y="792.368333"/>
    </g>
   </g>
   <g id="line2d_50">
    <g clip-path="url(#pecc995f5f5)">
     <use style="fill:#9e0142;stroke:#000000;" x="1239.84325" xlink:href="#mb3e9d5cba8" y="812.977072"/>
    </g>
   </g>
   <g id="line2d_51">
    <g clip-path="url(#pecc995f5f5)">
     <use style="fill:#9e0142;stroke:#000000;" x="1245.272727" xlink:href="#mb3e9d5cba8" y="813.05163"/>
    </g>
   </g>
   <g id="line2d_52">
    <g clip-path="url(#pecc995f5f5)">
     <use style="fill:#9e0142;stroke:#000000;" x="1213.416878" xlink:href="#mb3e9d5cba8" y="859.610096"/>
    </g>
   </g>
   <g id="line2d_53">
    <g clip-path="url(#pecc995f5f5)">
     <use style="fill:#9e0142;stroke:#000000;" x="1238.294486" xlink:href="#mb3e9d5cba8" y="792.18374"/>
    </g>
   </g>
   <g id="line2d_54">
    <g clip-path="url(#pecc995f5f5)">
     <use style="fill:#9e0142;stroke:#000000;" x="1235.685739" xlink:href="#mb3e9d5cba8" y="791.948675"/>
    </g>
   </g>
   <g id="line2d_55">
    <g clip-path="url(#pecc995f5f5)">
     <use style="fill:#9e0142;stroke:#000000;" x="1219.861293" xlink:href="#mb3e9d5cba8" y="859.403541"/>
    </g>
   </g>
   <g id="line2d_56">
    <g clip-path="url(#pecc995f5f5)">
     <use style="fill:#9e0142;stroke:#000000;" x="1235.519644" xlink:href="#mb3e9d5cba8" y="791.877053"/>
    </g>
   </g>
   <g id="line2d_57">
    <g clip-path="url(#pecc995f5f5)">
     <use style="stroke:#000000;" x="492.938585" xlink:href="#m871983dd6a" y="626.147582"/>
    </g>
   </g>
   <g id="line2d_58">
    <g clip-path="url(#pecc995f5f5)">
     <use style="fill:#9e0142;stroke:#000000;" x="1234.65337" xlink:href="#mb3e9d5cba8" y="792.033094"/>
    </g>
   </g>
   <g id="line2d_59">
    <g clip-path="url(#pecc995f5f5)">
     <use style="fill:#9e0142;stroke:#000000;" x="1212.363159" xlink:href="#mb3e9d5cba8" y="859.750926"/>
    </g>
   </g>
   <g id="line2d_60">
    <g clip-path="url(#pecc995f5f5)">
     <use style="fill:#9e0142;stroke:#000000;" x="1231.681553" xlink:href="#mb3e9d5cba8" y="792.268777"/>
    </g>
   </g>
   <g id="line2d_61">
    <g clip-path="url(#pecc995f5f5)">
     <use style="fill:#9e0142;stroke:#000000;" x="1235.466839" xlink:href="#mb3e9d5cba8" y="791.923462"/>
    </g>
   </g>
   <g id="line2d_62">
    <g clip-path="url(#pecc995f5f5)">
     <use style="fill:#9e0142;stroke:#000000;" x="1215.947261" xlink:href="#mb3e9d5cba8" y="859.610204"/>
    </g>
   </g>
   <g id="line2d_63">
    <g clip-path="url(#pecc995f5f5)">
     <use style="fill:#9e0142;stroke:#000000;" x="1242.844744" xlink:href="#mb3e9d5cba8" y="792.206897"/>
    </g>
   </g>
   <g id="line2d_64">
    <g clip-path="url(#pecc995f5f5)">
     <use style="fill:#9e0142;stroke:#000000;" x="1243.748279" xlink:href="#mb3e9d5cba8" y="792.137746"/>
    </g>
   </g>
   <g id="line2d_65">
    <g clip-path="url(#pecc995f5f5)">
     <use style="fill:#9e0142;stroke:#000000;" x="1232.058518" xlink:href="#mb3e9d5cba8" y="792.522847"/>
    </g>
   </g>
   <g id="line2d_66">
    <g clip-path="url(#pecc995f5f5)">
     <use style="fill:#9e0142;stroke:#000000;" x="1234.540643" xlink:href="#mb3e9d5cba8" y="792.416766"/>
    </g>
   </g>
   <g id="line2d_67">
    <g clip-path="url(#pecc995f5f5)">
     <use style="fill:#9e0142;stroke:#000000;" x="1237.7774" xlink:href="#mb3e9d5cba8" y="792.016549"/>
    </g>
   </g>
   <g id="line2d_68">
    <g clip-path="url(#pecc995f5f5)">
     <use style="fill:#9e0142;stroke:#000000;" x="1232.780649" xlink:href="#mb3e9d5cba8" y="792.111489"/>
    </g>
   </g>
   <g id="line2d_69">
    <g clip-path="url(#pecc995f5f5)">
     <use style="stroke:#000000;" x="1033.844743" xlink:href="#m871983dd6a" y="1231.2"/>
    </g>
   </g>
   <g id="line2d_70">
    <g clip-path="url(#pecc995f5f5)">
     <use style="fill:#9e0142;stroke:#000000;" x="1242.391886" xlink:href="#mb3e9d5cba8" y="792.102804"/>
    </g>
   </g>
   <g id="line2d_71">
    <g clip-path="url(#pecc995f5f5)">
     <use style="fill:#9e0142;stroke:#000000;" x="1242.04085" xlink:href="#mb3e9d5cba8" y="792.156176"/>
    </g>
   </g>
   <g id="line2d_72">
    <g clip-path="url(#pecc995f5f5)">
     <use style="fill:#9e0142;stroke:#000000;" x="1235.916336" xlink:href="#mb3e9d5cba8" y="792.141447"/>
    </g>
   </g>
   <g id="line2d_73">
    <g clip-path="url(#pecc995f5f5)">
     <use style="stroke:#000000;" x="1010.662234" xlink:href="#m871983dd6a" y="1181.137064"/>
    </g>
   </g>
   <g id="line2d_74">
    <g clip-path="url(#pecc995f5f5)">
     <use style="fill:#9e0142;stroke:#000000;" x="1239.022105" xlink:href="#mb3e9d5cba8" y="792.24899"/>
    </g>
   </g>
   <g id="line2d_75">
    <g clip-path="url(#pecc995f5f5)">
     <use style="fill:#9e0142;stroke:#000000;" x="1238.878526" xlink:href="#mb3e9d5cba8" y="791.880085"/>
    </g>
   </g>
   <g id="line2d_76">
    <g clip-path="url(#pecc995f5f5)">
     <use style="fill:#9e0142;stroke:#000000;" x="1235.654472" xlink:href="#mb3e9d5cba8" y="791.995446"/>
    </g>
   </g>
   <g id="line2d_77">
    <g clip-path="url(#pecc995f5f5)">
     <use style="fill:#9e0142;stroke:#000000;" x="1236.046123" xlink:href="#mb3e9d5cba8" y="792.318361"/>
    </g>
   </g>
   <g id="line2d_78">
    <g clip-path="url(#pecc995f5f5)">
     <use style="stroke:#000000;" x="720.21514" xlink:href="#m871983dd6a" y="431.112532"/>
    </g>
   </g>
   <g id="line2d_79">
    <g clip-path="url(#pecc995f5f5)">
     <use style="fill:#9e0142;stroke:#000000;" x="1236.610767" xlink:href="#mb3e9d5cba8" y="792.353548"/>
    </g>
   </g>
   <g id="line2d_80">
    <g clip-path="url(#pecc995f5f5)">
     <use style="fill:#9e0142;stroke:#000000;" x="1242.921544" xlink:href="#mb3e9d5cba8" y="792.156154"/>
    </g>
   </g>
   <g id="line2d_81">
    <g clip-path="url(#pecc995f5f5)">
     <use style="fill:#9e0142;stroke:#000000;" x="1192.719517" xlink:href="#mb3e9d5cba8" y="818.651531"/>
    </g>
   </g>
   <g id="line2d_82">
    <g clip-path="url(#pecc995f5f5)">
     <use style="fill:#9e0142;stroke:#000000;" x="1241.556932" xlink:href="#mb3e9d5cba8" y="792.302341"/>
    </g>
   </g>
   <g id="line2d_83">
    <g clip-path="url(#pecc995f5f5)">
     <use style="fill:#9e0142;stroke:#000000;" x="1229.955613" xlink:href="#mb3e9d5cba8" y="829.142203"/>
    </g>
   </g>
   <g id="line2d_84">
    <g clip-path="url(#pecc995f5f5)">
     <use style="fill:#9e0142;stroke:#000000;" x="1242.430919" xlink:href="#mb3e9d5cba8" y="792.242851"/>
    </g>
   </g>
   <g id="line2d_85">
    <g clip-path="url(#pecc995f5f5)">
     <use style="fill:#9e0142;stroke:#000000;" x="1233.472588" xlink:href="#mb3e9d5cba8" y="792.448018"/>
    </g>
   </g>
   <g id="line2d_86">
    <g clip-path="url(#pecc995f5f5)">
     <use style="fill:#9e0142;stroke:#000000;" x="1237.86615" xlink:href="#mb3e9d5cba8" y="792.178687"/>
    </g>
   </g>
   <g id="line2d_87">
    <g clip-path="url(#pecc995f5f5)">
     <use style="fill:#9e0142;stroke:#000000;" x="1240.85037" xlink:href="#mb3e9d5cba8" y="791.987349"/>
    </g>
   </g>
   <g id="line2d_88">
    <g clip-path="url(#pecc995f5f5)">
     <use style="stroke:#000000;" x="1008.389305" xlink:href="#m871983dd6a" y="1184.626577"/>
    </g>
   </g>
   <g id="line2d_89">
    <g clip-path="url(#pecc995f5f5)">
     <use style="fill:#9e0142;stroke:#000000;" x="1232.100827" xlink:href="#mb3e9d5cba8" y="792.077579"/>
    </g>
   </g>
   <g id="line2d_90">
    <g clip-path="url(#pecc995f5f5)">
     <use style="fill:#9e0142;stroke:#000000;" x="1232.814044" xlink:href="#mb3e9d5cba8" y="792.062838"/>
    </g>
   </g>
   <g id="line2d_91">
    <g clip-path="url(#pecc995f5f5)">
     <use style="fill:#9e0142;stroke:#000000;" x="1236.398645" xlink:href="#mb3e9d5cba8" y="792.053003"/>
    </g>
   </g>
   <g id="line2d_92">
    <g clip-path="url(#pecc995f5f5)">
     <use style="fill:#9e0142;stroke:#000000;" x="1242.37186" xlink:href="#mb3e9d5cba8" y="792.044635"/>
    </g>
   </g>
   <g id="patch_3">
    <path d="M 180 1281.6 
L 180 172.8 
" style="fill:none;stroke:#000000;stroke-linecap:square;stroke-linejoin:miter;stroke-width:0.8;"/>
   </g>
   <g id="patch_4">
    <path d="M 1296 1281.6 
L 1296 172.8 
" style="fill:none;stroke:#000000;stroke-linecap:square;stroke-linejoin:miter;stroke-width:0.8;"/>
   </g>
   <g id="patch_5">
    <path d="M 180 1281.6 
L 1296 1281.6 
" style="fill:none;stroke:#000000;stroke-linecap:square;stroke-linejoin:miter;stroke-width:0.8;"/>
   </g>
   <g id="patch_6">
    <path d="M 180 172.8 
L 1296 172.8 
" style="fill:none;stroke:#000000;stroke-linecap:square;stroke-linejoin:miter;stroke-width:0.8;"/>
   </g>
  </g>
 </g>
 <defs>
  <clipPath id="pecc995f5f5">
   <rect height="1108.8" width="1116" x="180" y="172.8"/>
  </clipPath>
 </defs>
</svg>
