<?xml version="1.0" encoding="utf-8" standalone="no"?>
<!DOCTYPE svg PUBLIC "-//W3C//DTD SVG 1.1//EN"
  "http://www.w3.org/Graphics/SVG/1.1/DTD/svg11.dtd">
<!-- Created with matplotlib (https://matplotlib.org/) -->
<svg height="1440pt" version="1.1" viewBox="0 0 1440 1440" width="1440pt" xmlns="http://www.w3.org/2000/svg" xmlns:xlink="http://www.w3.org/1999/xlink">
 <defs>
  <style type="text/css">
*{stroke-linecap:butt;stroke-linejoin:round;}
  </style>
 </defs>
 <g id="figure_1">
  <g id="patch_1">
   <path d="M 0 1440 
L 1440 1440 
L 1440 0 
L 0 0 
z
" style="fill:#ffffff;"/>
  </g>
  <g id="axes_1">
   <g id="patch_2">
    <path d="M 180 1281.6 
L 1296 1281.6 
L 1296 172.8 
L 180 172.8 
z
" style="fill:#ffffff;"/>
   </g>
   <g id="matplotlib.axis_1">
    <g id="xtick_1">
     <g id="line2d_1">
      <defs>
       <path d="M 0 0 
L 0 3.5 
" id="m1c2130c523" style="stroke:#000000;stroke-width:0.8;"/>
      </defs>
      <g>
       <use style="stroke:#000000;stroke-width:0.8;" x="328.372984" xlink:href="#m1c2130c523" y="1281.6"/>
      </g>
     </g>
     <g id="text_1">
      <!-- −0.10 -->
      <defs>
       <path d="M 10.59375 35.5 
L 73.1875 35.5 
L 73.1875 27.203125 
L 10.59375 27.203125 
z
" id="DejaVuSans-8722"/>
       <path d="M 31.78125 66.40625 
Q 24.171875 66.40625 20.328125 58.90625 
Q 16.5 51.421875 16.5 36.375 
Q 16.5 21.390625 20.328125 13.890625 
Q 24.171875 6.390625 31.78125 6.390625 
Q 39.453125 6.390625 43.28125 13.890625 
Q 47.125 21.390625 47.125 36.375 
Q 47.125 51.421875 43.28125 58.90625 
Q 39.453125 66.40625 31.78125 66.40625 
z
M 31.78125 74.21875 
Q 44.046875 74.21875 50.515625 64.515625 
Q 56.984375 54.828125 56.984375 36.375 
Q 56.984375 17.96875 50.515625 8.265625 
Q 44.046875 -1.421875 31.78125 -1.421875 
Q 19.53125 -1.421875 13.0625 8.265625 
Q 6.59375 17.96875 6.59375 36.375 
Q 6.59375 54.828125 13.0625 64.515625 
Q 19.53125 74.21875 31.78125 74.21875 
z
" id="DejaVuSans-48"/>
       <path d="M 10.6875 12.40625 
L 21 12.40625 
L 21 0 
L 10.6875 0 
z
" id="DejaVuSans-46"/>
       <path d="M 12.40625 8.296875 
L 28.515625 8.296875 
L 28.515625 63.921875 
L 10.984375 60.40625 
L 10.984375 69.390625 
L 28.421875 72.90625 
L 38.28125 72.90625 
L 38.28125 8.296875 
L 54.390625 8.296875 
L 54.390625 0 
L 12.40625 0 
z
" id="DejaVuSans-49"/>
      </defs>
      <g transform="translate(313.050328 1296.198437)scale(0.1 -0.1)">
       <use xlink:href="#DejaVuSans-8722"/>
       <use x="83.789062" xlink:href="#DejaVuSans-48"/>
       <use x="147.412109" xlink:href="#DejaVuSans-46"/>
       <use x="179.199219" xlink:href="#DejaVuSans-49"/>
       <use x="242.822266" xlink:href="#DejaVuSans-48"/>
      </g>
     </g>
    </g>
    <g id="xtick_2">
     <g id="line2d_2">
      <g>
       <use style="stroke:#000000;stroke-width:0.8;" x="514.742754" xlink:href="#m1c2130c523" y="1281.6"/>
      </g>
     </g>
     <g id="text_2">
      <!-- −0.05 -->
      <defs>
       <path d="M 10.796875 72.90625 
L 49.515625 72.90625 
L 49.515625 64.59375 
L 19.828125 64.59375 
L 19.828125 46.734375 
Q 21.96875 47.46875 24.109375 47.828125 
Q 26.265625 48.1875 28.421875 48.1875 
Q 40.625 48.1875 47.75 41.5 
Q 54.890625 34.8125 54.890625 23.390625 
Q 54.890625 11.625 47.5625 5.09375 
Q 40.234375 -1.421875 26.90625 -1.421875 
Q 22.3125 -1.421875 17.546875 -0.640625 
Q 12.796875 0.140625 7.71875 1.703125 
L 7.71875 11.625 
Q 12.109375 9.234375 16.796875 8.0625 
Q 21.484375 6.890625 26.703125 6.890625 
Q 35.15625 6.890625 40.078125 11.328125 
Q 45.015625 15.765625 45.015625 23.390625 
Q 45.015625 31 40.078125 35.4375 
Q 35.15625 39.890625 26.703125 39.890625 
Q 22.75 39.890625 18.8125 39.015625 
Q 14.890625 38.140625 10.796875 36.28125 
z
" id="DejaVuSans-53"/>
      </defs>
      <g transform="translate(499.420098 1296.198437)scale(0.1 -0.1)">
       <use xlink:href="#DejaVuSans-8722"/>
       <use x="83.789062" xlink:href="#DejaVuSans-48"/>
       <use x="147.412109" xlink:href="#DejaVuSans-46"/>
       <use x="179.199219" xlink:href="#DejaVuSans-48"/>
       <use x="242.822266" xlink:href="#DejaVuSans-53"/>
      </g>
     </g>
    </g>
    <g id="xtick_3">
     <g id="line2d_3">
      <g>
       <use style="stroke:#000000;stroke-width:0.8;" x="701.112524" xlink:href="#m1c2130c523" y="1281.6"/>
      </g>
     </g>
     <g id="text_3">
      <!-- 0.00 -->
      <g transform="translate(689.979711 1296.198437)scale(0.1 -0.1)">
       <use xlink:href="#DejaVuSans-48"/>
       <use x="63.623047" xlink:href="#DejaVuSans-46"/>
       <use x="95.410156" xlink:href="#DejaVuSans-48"/>
       <use x="159.033203" xlink:href="#DejaVuSans-48"/>
      </g>
     </g>
    </g>
    <g id="xtick_4">
     <g id="line2d_4">
      <g>
       <use style="stroke:#000000;stroke-width:0.8;" x="887.482294" xlink:href="#m1c2130c523" y="1281.6"/>
      </g>
     </g>
     <g id="text_4">
      <!-- 0.05 -->
      <g transform="translate(876.349481 1296.198437)scale(0.1 -0.1)">
       <use xlink:href="#DejaVuSans-48"/>
       <use x="63.623047" xlink:href="#DejaVuSans-46"/>
       <use x="95.410156" xlink:href="#DejaVuSans-48"/>
       <use x="159.033203" xlink:href="#DejaVuSans-53"/>
      </g>
     </g>
    </g>
    <g id="xtick_5">
     <g id="line2d_5">
      <g>
       <use style="stroke:#000000;stroke-width:0.8;" x="1073.852064" xlink:href="#m1c2130c523" y="1281.6"/>
      </g>
     </g>
     <g id="text_5">
      <!-- 0.10 -->
      <g transform="translate(1062.719251 1296.198437)scale(0.1 -0.1)">
       <use xlink:href="#DejaVuSans-48"/>
       <use x="63.623047" xlink:href="#DejaVuSans-46"/>
       <use x="95.410156" xlink:href="#DejaVuSans-49"/>
       <use x="159.033203" xlink:href="#DejaVuSans-48"/>
      </g>
     </g>
    </g>
    <g id="xtick_6">
     <g id="line2d_6">
      <g>
       <use style="stroke:#000000;stroke-width:0.8;" x="1260.221833" xlink:href="#m1c2130c523" y="1281.6"/>
      </g>
     </g>
     <g id="text_6">
      <!-- 0.15 -->
      <g transform="translate(1249.089021 1296.198437)scale(0.1 -0.1)">
       <use xlink:href="#DejaVuSans-48"/>
       <use x="63.623047" xlink:href="#DejaVuSans-46"/>
       <use x="95.410156" xlink:href="#DejaVuSans-49"/>
       <use x="159.033203" xlink:href="#DejaVuSans-53"/>
      </g>
     </g>
    </g>
   </g>
   <g id="matplotlib.axis_2">
    <g id="ytick_1">
     <g id="line2d_7">
      <defs>
       <path d="M 0 0 
L -3.5 0 
" id="m4ddc8bc1ff" style="stroke:#000000;stroke-width:0.8;"/>
      </defs>
      <g>
       <use style="stroke:#000000;stroke-width:0.8;" x="180" xlink:href="#m4ddc8bc1ff" y="1202.570428"/>
      </g>
     </g>
     <g id="text_7">
      <!-- −0.05 -->
      <g transform="translate(142.354688 1206.369647)scale(0.1 -0.1)">
       <use xlink:href="#DejaVuSans-8722"/>
       <use x="83.789062" xlink:href="#DejaVuSans-48"/>
       <use x="147.412109" xlink:href="#DejaVuSans-46"/>
       <use x="179.199219" xlink:href="#DejaVuSans-48"/>
       <use x="242.822266" xlink:href="#DejaVuSans-53"/>
      </g>
     </g>
    </g>
    <g id="ytick_2">
     <g id="line2d_8">
      <g>
       <use style="stroke:#000000;stroke-width:0.8;" x="180" xlink:href="#m4ddc8bc1ff" y="997.08212"/>
      </g>
     </g>
     <g id="text_8">
      <!-- 0.00 -->
      <g transform="translate(150.734375 1000.881339)scale(0.1 -0.1)">
       <use xlink:href="#DejaVuSans-48"/>
       <use x="63.623047" xlink:href="#DejaVuSans-46"/>
       <use x="95.410156" xlink:href="#DejaVuSans-48"/>
       <use x="159.033203" xlink:href="#DejaVuSans-48"/>
      </g>
     </g>
    </g>
    <g id="ytick_3">
     <g id="line2d_9">
      <g>
       <use style="stroke:#000000;stroke-width:0.8;" x="180" xlink:href="#m4ddc8bc1ff" y="791.593812"/>
      </g>
     </g>
     <g id="text_9">
      <!-- 0.05 -->
      <g transform="translate(150.734375 795.393031)scale(0.1 -0.1)">
       <use xlink:href="#DejaVuSans-48"/>
       <use x="63.623047" xlink:href="#DejaVuSans-46"/>
       <use x="95.410156" xlink:href="#DejaVuSans-48"/>
       <use x="159.033203" xlink:href="#DejaVuSans-53"/>
      </g>
     </g>
    </g>
    <g id="ytick_4">
     <g id="line2d_10">
      <g>
       <use style="stroke:#000000;stroke-width:0.8;" x="180" xlink:href="#m4ddc8bc1ff" y="586.105505"/>
      </g>
     </g>
     <g id="text_10">
      <!-- 0.10 -->
      <g transform="translate(150.734375 589.904723)scale(0.1 -0.1)">
       <use xlink:href="#DejaVuSans-48"/>
       <use x="63.623047" xlink:href="#DejaVuSans-46"/>
       <use x="95.410156" xlink:href="#DejaVuSans-49"/>
       <use x="159.033203" xlink:href="#DejaVuSans-48"/>
      </g>
     </g>
    </g>
    <g id="ytick_5">
     <g id="line2d_11">
      <g>
       <use style="stroke:#000000;stroke-width:0.8;" x="180" xlink:href="#m4ddc8bc1ff" y="380.617197"/>
      </g>
     </g>
     <g id="text_11">
      <!-- 0.15 -->
      <g transform="translate(150.734375 384.416415)scale(0.1 -0.1)">
       <use xlink:href="#DejaVuSans-48"/>
       <use x="63.623047" xlink:href="#DejaVuSans-46"/>
       <use x="95.410156" xlink:href="#DejaVuSans-49"/>
       <use x="159.033203" xlink:href="#DejaVuSans-53"/>
      </g>
     </g>
    </g>
    <g id="ytick_6">
     <g id="line2d_12">
      <g>
       <use style="stroke:#000000;stroke-width:0.8;" x="180" xlink:href="#m4ddc8bc1ff" y="175.128889"/>
      </g>
     </g>
     <g id="text_12">
      <!-- 0.20 -->
      <defs>
       <path d="M 19.1875 8.296875 
L 53.609375 8.296875 
L 53.609375 0 
L 7.328125 0 
L 7.328125 8.296875 
Q 12.9375 14.109375 22.625 23.890625 
Q 32.328125 33.6875 34.8125 36.53125 
Q 39.546875 41.84375 41.421875 45.53125 
Q 43.3125 49.21875 43.3125 52.78125 
Q 43.3125 58.59375 39.234375 62.25 
Q 35.15625 65.921875 28.609375 65.921875 
Q 23.96875 65.921875 18.8125 64.3125 
Q 13.671875 62.703125 7.8125 59.421875 
L 7.8125 69.390625 
Q 13.765625 71.78125 18.9375 73 
Q 24.125 74.21875 28.421875 74.21875 
Q 39.75 74.21875 46.484375 68.546875 
Q 53.21875 62.890625 53.21875 53.421875 
Q 53.21875 48.921875 51.53125 44.890625 
Q 49.859375 40.875 45.40625 35.40625 
Q 44.1875 33.984375 37.640625 27.21875 
Q 31.109375 20.453125 19.1875 8.296875 
z
" id="DejaVuSans-50"/>
      </defs>
      <g transform="translate(150.734375 178.928107)scale(0.1 -0.1)">
       <use xlink:href="#DejaVuSans-48"/>
       <use x="63.623047" xlink:href="#DejaVuSans-46"/>
       <use x="95.410156" xlink:href="#DejaVuSans-50"/>
       <use x="159.033203" xlink:href="#DejaVuSans-48"/>
      </g>
     </g>
    </g>
   </g>
   <g id="line2d_13">
    <defs>
     <path d="M 0 3 
C 0.795609 3 1.55874 2.683901 2.12132 2.12132 
C 2.683901 1.55874 3 0.795609 3 0 
C 3 -0.795609 2.683901 -1.55874 2.12132 -2.12132 
C 1.55874 -2.683901 0.795609 -3 0 -3 
C -0.795609 -3 -1.55874 -2.683901 -2.12132 -2.12132 
C -2.683901 -1.55874 -3 -0.795609 -3 0 
C -3 0.795609 -2.683901 1.55874 -2.12132 2.12132 
C -1.55874 2.683901 -0.795609 3 0 3 
z
" id="m1f95e76897" style="stroke:#000000;"/>
    </defs>
    <g clip-path="url(#p3911c4bb7d)">
     <use style="stroke:#000000;" x="423.938424" xlink:href="#m1f95e76897" y="338.589534"/>
    </g>
   </g>
   <g id="line2d_14">
    <defs>
     <path d="M 0 9 
C 2.386828 9 4.676219 8.051703 6.363961 6.363961 
C 8.051703 4.676219 9 2.386828 9 0 
C 9 -2.386828 8.051703 -4.676219 6.363961 -6.363961 
C 4.676219 -8.051703 2.386828 -9 0 -9 
C -2.386828 -9 -4.676219 -8.051703 -6.363961 -6.363961 
C -8.051703 -4.676219 -9 -2.386828 -9 0 
C -9 2.386828 -8.051703 4.676219 -6.363961 6.363961 
C -4.676219 8.051703 -2.386828 9 0 9 
z
" id="m92698e5577" style="stroke:#000000;"/>
    </defs>
    <g clip-path="url(#p3911c4bb7d)">
     <use style="fill:#9e0142;stroke:#000000;" x="1243.114354" xlink:href="#m92698e5577" y="947.349536"/>
    </g>
   </g>
   <g id="line2d_15">
    <defs>
     <path d="M 0 9 
C 2.386828 9 4.676219 8.051703 6.363961 6.363961 
C 8.051703 4.676219 9 2.386828 9 0 
C 9 -2.386828 8.051703 -4.676219 6.363961 -6.363961 
C 4.676219 -8.051703 2.386828 -9 0 -9 
C -2.386828 -9 -4.676219 -8.051703 -6.363961 -6.363961 
C -8.051703 -4.676219 -9 -2.386828 -9 0 
C -9 2.386828 -8.051703 4.676219 -6.363961 6.363961 
C -4.676219 8.051703 -2.386828 9 0 9 
z
" id="m1bd0cda341" style="stroke:#000000;"/>
    </defs>
    <g clip-path="url(#p3911c4bb7d)">
     <use style="fill:#f46d43;stroke:#000000;" x="1023.610497" xlink:href="#m1bd0cda341" y="515.669635"/>
    </g>
   </g>
   <g id="line2d_16">
    <defs>
     <path d="M 0 9 
C 2.386828 9 4.676219 8.051703 6.363961 6.363961 
C 8.051703 4.676219 9 2.386828 9 0 
C 9 -2.386828 8.051703 -4.676219 6.363961 -6.363961 
C 4.676219 -8.051703 2.386828 -9 0 -9 
C -2.386828 -9 -4.676219 -8.051703 -6.363961 -6.363961 
C -8.051703 -4.676219 -9 -2.386828 -9 0 
C -9 2.386828 -8.051703 4.676219 -6.363961 6.363961 
C -4.676219 8.051703 -2.386828 9 0 9 
z
" id="mdcf2829d6f" style="stroke:#000000;"/>
    </defs>
    <g clip-path="url(#p3911c4bb7d)">
     <use style="fill:#fee08b;stroke:#000000;" x="238.078202" xlink:href="#mdcf2829d6f" y="223.2"/>
    </g>
   </g>
   <g id="line2d_17">
    <g clip-path="url(#p3911c4bb7d)">
     <use style="fill:#fee08b;stroke:#000000;" x="237.115729" xlink:href="#mdcf2829d6f" y="225.101839"/>
    </g>
   </g>
   <g id="line2d_18">
    <g clip-path="url(#p3911c4bb7d)">
     <use style="fill:#fee08b;stroke:#000000;" x="234.14088" xlink:href="#mdcf2829d6f" y="227.798553"/>
    </g>
   </g>
   <g id="line2d_19">
    <g clip-path="url(#p3911c4bb7d)">
     <use style="fill:#fee08b;stroke:#000000;" x="235.926893" xlink:href="#mdcf2829d6f" y="224.721816"/>
    </g>
   </g>
   <g id="line2d_20">
    <g clip-path="url(#p3911c4bb7d)">
     <use style="fill:#fee08b;stroke:#000000;" x="236.416677" xlink:href="#mdcf2829d6f" y="233.051963"/>
    </g>
   </g>
   <g id="line2d_21">
    <g clip-path="url(#p3911c4bb7d)">
     <use style="fill:#fee08b;stroke:#000000;" x="239.379052" xlink:href="#mdcf2829d6f" y="229.381301"/>
    </g>
   </g>
   <g id="line2d_22">
    <g clip-path="url(#p3911c4bb7d)">
     <use style="fill:#fee08b;stroke:#000000;" x="236.569217" xlink:href="#mdcf2829d6f" y="223.246565"/>
    </g>
   </g>
   <g id="line2d_23">
    <g clip-path="url(#p3911c4bb7d)">
     <use style="fill:#fee08b;stroke:#000000;" x="237.446648" xlink:href="#mdcf2829d6f" y="227.907497"/>
    </g>
   </g>
   <g id="line2d_24">
    <g clip-path="url(#p3911c4bb7d)">
     <use style="fill:#fee08b;stroke:#000000;" x="235.903201" xlink:href="#mdcf2829d6f" y="232.186305"/>
    </g>
   </g>
   <g id="line2d_25">
    <g clip-path="url(#p3911c4bb7d)">
     <use style="fill:#fee08b;stroke:#000000;" x="239.075393" xlink:href="#mdcf2829d6f" y="233.915305"/>
    </g>
   </g>
   <g id="line2d_26">
    <g clip-path="url(#p3911c4bb7d)">
     <use style="fill:#fee08b;stroke:#000000;" x="235.419151" xlink:href="#mdcf2829d6f" y="230.607813"/>
    </g>
   </g>
   <g id="line2d_27">
    <defs>
     <path d="M 0 9 
C 2.386828 9 4.676219 8.051703 6.363961 6.363961 
C 8.051703 4.676219 9 2.386828 9 0 
C 9 -2.386828 8.051703 -4.676219 6.363961 -6.363961 
C 4.676219 -8.051703 2.386828 -9 0 -9 
C -2.386828 -9 -4.676219 -8.051703 -6.363961 -6.363961 
C -8.051703 -4.676219 -9 -2.386828 -9 0 
C -9 2.386828 -8.051703 4.676219 -6.363961 6.363961 
C -4.676219 8.051703 -2.386828 9 0 9 
z
" id="m644dd4760e" style="stroke:#000000;"/>
    </defs>
    <g clip-path="url(#p3911c4bb7d)">
     <use style="fill:#e6f598;stroke:#000000;" x="1167.808929" xlink:href="#m644dd4760e" y="592.899453"/>
    </g>
   </g>
   <g id="line2d_28">
    <g clip-path="url(#p3911c4bb7d)">
     <use style="stroke:#000000;" x="459.48696" xlink:href="#m1f95e76897" y="705.840419"/>
    </g>
   </g>
   <g id="line2d_29">
    <g clip-path="url(#p3911c4bb7d)">
     <use style="fill:#e6f598;stroke:#000000;" x="1190.660181" xlink:href="#m644dd4760e" y="596.20076"/>
    </g>
   </g>
   <g id="line2d_30">
    <g clip-path="url(#p3911c4bb7d)">
     <use style="fill:#e6f598;stroke:#000000;" x="1186.817584" xlink:href="#m644dd4760e" y="599.472115"/>
    </g>
   </g>
   <g id="line2d_31">
    <g clip-path="url(#p3911c4bb7d)">
     <use style="fill:#e6f598;stroke:#000000;" x="1163.359403" xlink:href="#m644dd4760e" y="597.430256"/>
    </g>
   </g>
   <g id="line2d_32">
    <g clip-path="url(#p3911c4bb7d)">
     <use style="stroke:#000000;" x="888.115684" xlink:href="#m1f95e76897" y="537.221654"/>
    </g>
   </g>
   <g id="line2d_33">
    <g clip-path="url(#p3911c4bb7d)">
     <use style="stroke:#000000;" x="947.281297" xlink:href="#m1f95e76897" y="1208.762123"/>
    </g>
   </g>
   <g id="line2d_34">
    <g clip-path="url(#p3911c4bb7d)">
     <use style="stroke:#000000;" x="716.491972" xlink:href="#m1f95e76897" y="379.486749"/>
    </g>
   </g>
   <g id="line2d_35">
    <g clip-path="url(#p3911c4bb7d)">
     <use style="stroke:#000000;" x="946.409213" xlink:href="#m1f95e76897" y="1211.698466"/>
    </g>
   </g>
   <g id="line2d_36">
    <g clip-path="url(#p3911c4bb7d)">
     <use style="stroke:#000000;" x="269.011216" xlink:href="#m1f95e76897" y="351.266331"/>
    </g>
   </g>
   <g id="line2d_37">
    <defs>
     <path d="M 0 9 
C 2.386828 9 4.676219 8.051703 6.363961 6.363961 
C 8.051703 4.676219 9 2.386828 9 0 
C 9 -2.386828 8.051703 -4.676219 6.363961 -6.363961 
C 4.676219 -8.051703 2.386828 -9 0 -9 
C -2.386828 -9 -4.676219 -8.051703 -6.363961 -6.363961 
C -8.051703 -4.676219 -9 -2.386828 -9 0 
C -9 2.386828 -8.051703 4.676219 -6.363961 6.363961 
C -4.676219 8.051703 -2.386828 9 0 9 
z
" id="m70257e4d8f" style="stroke:#000000;"/>
    </defs>
    <g clip-path="url(#p3911c4bb7d)">
     <use style="fill:#66c2a5;stroke:#000000;" x="571.394231" xlink:href="#m70257e4d8f" y="354.793651"/>
    </g>
   </g>
   <g id="line2d_38">
    <g clip-path="url(#p3911c4bb7d)">
     <use style="fill:#e6f598;stroke:#000000;" x="1186.964706" xlink:href="#m644dd4760e" y="599.403454"/>
    </g>
   </g>
   <g id="line2d_39">
    <g clip-path="url(#p3911c4bb7d)">
     <use style="fill:#e6f598;stroke:#000000;" x="1185.670342" xlink:href="#m644dd4760e" y="599.744828"/>
    </g>
   </g>
   <g id="line2d_40">
    <g clip-path="url(#p3911c4bb7d)">
     <use style="fill:#f46d43;stroke:#000000;" x="1023.63876" xlink:href="#m1bd0cda341" y="510.10421"/>
    </g>
   </g>
   <g id="line2d_41">
    <g clip-path="url(#p3911c4bb7d)">
     <use style="stroke:#000000;" x="947.917753" xlink:href="#m1f95e76897" y="922.251665"/>
    </g>
   </g>
   <g id="line2d_42">
    <g clip-path="url(#p3911c4bb7d)">
     <use style="stroke:#000000;" x="1052.811076" xlink:href="#m1f95e76897" y="1231.2"/>
    </g>
   </g>
   <g id="line2d_43">
    <g clip-path="url(#p3911c4bb7d)">
     <use style="fill:#9e0142;stroke:#000000;" x="1237.763901" xlink:href="#m92698e5577" y="947.187838"/>
    </g>
   </g>
   <g id="line2d_44">
    <g clip-path="url(#p3911c4bb7d)">
     <use style="fill:#9e0142;stroke:#000000;" x="1238.209298" xlink:href="#m92698e5577" y="947.517046"/>
    </g>
   </g>
   <g id="line2d_45">
    <g clip-path="url(#p3911c4bb7d)">
     <use style="stroke:#000000;" x="945.924862" xlink:href="#m1f95e76897" y="923.35831"/>
    </g>
   </g>
   <g id="line2d_46">
    <g clip-path="url(#p3911c4bb7d)">
     <use style="fill:#e6f598;stroke:#000000;" x="1188.025011" xlink:href="#m644dd4760e" y="597.848764"/>
    </g>
   </g>
   <g id="line2d_47">
    <g clip-path="url(#p3911c4bb7d)">
     <use style="stroke:#000000;" x="426.002841" xlink:href="#m1f95e76897" y="898.826251"/>
    </g>
   </g>
   <g id="line2d_48">
    <g clip-path="url(#p3911c4bb7d)">
     <use style="fill:#e6f598;stroke:#000000;" x="1164.58486" xlink:href="#m644dd4760e" y="594.659827"/>
    </g>
   </g>
   <g id="line2d_49">
    <g clip-path="url(#p3911c4bb7d)">
     <use style="fill:#e6f598;stroke:#000000;" x="1187.678266" xlink:href="#m644dd4760e" y="598.841034"/>
    </g>
   </g>
   <g id="line2d_50">
    <g clip-path="url(#p3911c4bb7d)">
     <use style="fill:#9e0142;stroke:#000000;" x="1245.272727" xlink:href="#m92698e5577" y="947.275646"/>
    </g>
   </g>
   <g id="line2d_51">
    <g clip-path="url(#p3911c4bb7d)">
     <use style="fill:#66c2a5;stroke:#000000;" x="573.055528" xlink:href="#m70257e4d8f" y="351.953186"/>
    </g>
   </g>
   <g id="line2d_52">
    <g clip-path="url(#p3911c4bb7d)">
     <use style="stroke:#000000;" x="455.842479" xlink:href="#m1f95e76897" y="716.954483"/>
    </g>
   </g>
   <g id="line2d_53">
    <g clip-path="url(#p3911c4bb7d)">
     <use style="fill:#9e0142;stroke:#000000;" x="1236.279785" xlink:href="#m92698e5577" y="947.464003"/>
    </g>
   </g>
   <g id="line2d_54">
    <g clip-path="url(#p3911c4bb7d)">
     <use style="fill:#e6f598;stroke:#000000;" x="1169.229944" xlink:href="#m644dd4760e" y="594.884052"/>
    </g>
   </g>
   <g id="line2d_55">
    <g clip-path="url(#p3911c4bb7d)">
     <use style="stroke:#000000;" x="749.525967" xlink:href="#m1f95e76897" y="418.325539"/>
    </g>
   </g>
   <g id="line2d_56">
    <g clip-path="url(#p3911c4bb7d)">
     <use style="fill:#e6f598;stroke:#000000;" x="1167.125916" xlink:href="#m644dd4760e" y="598.255042"/>
    </g>
   </g>
   <g id="line2d_57">
    <g clip-path="url(#p3911c4bb7d)">
     <use style="fill:#9e0142;stroke:#000000;" x="1242.516723" xlink:href="#m92698e5577" y="947.631315"/>
    </g>
   </g>
   <g id="line2d_58">
    <g clip-path="url(#p3911c4bb7d)">
     <use style="fill:#9e0142;stroke:#000000;" x="1240.831986" xlink:href="#m92698e5577" y="947.253928"/>
    </g>
   </g>
   <g id="line2d_59">
    <g clip-path="url(#p3911c4bb7d)">
     <use style="fill:#e6f598;stroke:#000000;" x="1184.003139" xlink:href="#m644dd4760e" y="598.573423"/>
    </g>
   </g>
   <g id="line2d_60">
    <g clip-path="url(#p3911c4bb7d)">
     <use style="fill:#9e0142;stroke:#000000;" x="1240.264868" xlink:href="#m92698e5577" y="947.551703"/>
    </g>
   </g>
   <g id="line2d_61">
    <g clip-path="url(#p3911c4bb7d)">
     <use style="fill:#e6f598;stroke:#000000;" x="1169.062582" xlink:href="#m644dd4760e" y="592.62293"/>
    </g>
   </g>
   <g id="line2d_62">
    <g clip-path="url(#p3911c4bb7d)">
     <use style="stroke:#000000;" x="716.411787" xlink:href="#m1f95e76897" y="472.862914"/>
    </g>
   </g>
   <g id="line2d_63">
    <g clip-path="url(#p3911c4bb7d)">
     <use style="fill:#9e0142;stroke:#000000;" x="1239.139921" xlink:href="#m92698e5577" y="947.953628"/>
    </g>
   </g>
   <g id="line2d_64">
    <g clip-path="url(#p3911c4bb7d)">
     <use style="fill:#e6f598;stroke:#000000;" x="1065.468437" xlink:href="#m644dd4760e" y="548.837081"/>
    </g>
   </g>
   <g id="line2d_65">
    <g clip-path="url(#p3911c4bb7d)">
     <use style="stroke:#000000;" x="264.926787" xlink:href="#m1f95e76897" y="350.311096"/>
    </g>
   </g>
   <g id="line2d_66">
    <g clip-path="url(#p3911c4bb7d)">
     <use style="fill:#e6f598;stroke:#000000;" x="1189.895701" xlink:href="#m644dd4760e" y="598.136338"/>
    </g>
   </g>
   <g id="line2d_67">
    <g clip-path="url(#p3911c4bb7d)">
     <use style="fill:#f46d43;stroke:#000000;" x="1028.384713" xlink:href="#m1bd0cda341" y="581.621063"/>
    </g>
   </g>
   <g id="line2d_68">
    <g clip-path="url(#p3911c4bb7d)">
     <use style="fill:#66c2a5;stroke:#000000;" x="587.907621" xlink:href="#m70257e4d8f" y="456.316124"/>
    </g>
   </g>
   <g id="line2d_69">
    <g clip-path="url(#p3911c4bb7d)">
     <use style="fill:#66c2a5;stroke:#000000;" x="589.74729" xlink:href="#m70257e4d8f" y="451.14461"/>
    </g>
   </g>
   <g id="line2d_70">
    <g clip-path="url(#p3911c4bb7d)">
     <use style="fill:#e6f598;stroke:#000000;" x="1165.021874" xlink:href="#m644dd4760e" y="593.603543"/>
    </g>
   </g>
   <g id="line2d_71">
    <g clip-path="url(#p3911c4bb7d)">
     <use style="fill:#f46d43;stroke:#000000;" x="1026.701341" xlink:href="#m1bd0cda341" y="513.58891"/>
    </g>
   </g>
   <g id="line2d_72">
    <g clip-path="url(#p3911c4bb7d)">
     <use style="fill:#e6f598;stroke:#000000;" x="1189.76143" xlink:href="#m644dd4760e" y="596.571328"/>
    </g>
   </g>
   <g id="line2d_73">
    <g clip-path="url(#p3911c4bb7d)">
     <use style="fill:#fee08b;stroke:#000000;" x="230.727273" xlink:href="#mdcf2829d6f" y="230.09589"/>
    </g>
   </g>
   <g id="line2d_74">
    <g clip-path="url(#p3911c4bb7d)">
     <use style="fill:#9e0142;stroke:#000000;" x="1242.017208" xlink:href="#m92698e5577" y="947.818902"/>
    </g>
   </g>
   <g id="line2d_75">
    <g clip-path="url(#p3911c4bb7d)">
     <use style="fill:#f46d43;stroke:#000000;" x="1025.814046" xlink:href="#m1bd0cda341" y="512.36937"/>
    </g>
   </g>
   <g id="line2d_76">
    <g clip-path="url(#p3911c4bb7d)">
     <use style="stroke:#000000;" x="475.394749" xlink:href="#m1f95e76897" y="754.750253"/>
    </g>
   </g>
   <g id="line2d_77">
    <g clip-path="url(#p3911c4bb7d)">
     <use style="stroke:#000000;" x="946.764001" xlink:href="#m1f95e76897" y="923.577034"/>
    </g>
   </g>
   <g id="line2d_78">
    <g clip-path="url(#p3911c4bb7d)">
     <use style="fill:#66c2a5;stroke:#000000;" x="588.37664" xlink:href="#m70257e4d8f" y="366.151616"/>
    </g>
   </g>
   <g id="line2d_79">
    <g clip-path="url(#p3911c4bb7d)">
     <use style="fill:#9e0142;stroke:#000000;" x="1223.060634" xlink:href="#m92698e5577" y="933.303082"/>
    </g>
   </g>
   <g id="line2d_80">
    <g clip-path="url(#p3911c4bb7d)">
     <use style="fill:#9e0142;stroke:#000000;" x="1225.460542" xlink:href="#m92698e5577" y="932.88697"/>
    </g>
   </g>
   <g id="line2d_81">
    <g clip-path="url(#p3911c4bb7d)">
     <use style="fill:#9e0142;stroke:#000000;" x="1237.81028" xlink:href="#m92698e5577" y="947.789511"/>
    </g>
   </g>
   <g id="line2d_82">
    <g clip-path="url(#p3911c4bb7d)">
     <use style="fill:#e6f598;stroke:#000000;" x="1186.318258" xlink:href="#m644dd4760e" y="597.204238"/>
    </g>
   </g>
   <g id="line2d_83">
    <g clip-path="url(#p3911c4bb7d)">
     <use style="stroke:#000000;" x="944.748968" xlink:href="#m1f95e76897" y="933.065835"/>
    </g>
   </g>
   <g id="line2d_84">
    <g clip-path="url(#p3911c4bb7d)">
     <use style="fill:#e6f598;stroke:#000000;" x="1163.195426" xlink:href="#m644dd4760e" y="596.443063"/>
    </g>
   </g>
   <g id="line2d_85">
    <g clip-path="url(#p3911c4bb7d)">
     <use style="fill:#e6f598;stroke:#000000;" x="1168.911428" xlink:href="#m644dd4760e" y="600.015473"/>
    </g>
   </g>
   <g id="line2d_86">
    <g clip-path="url(#p3911c4bb7d)">
     <use style="fill:#e6f598;stroke:#000000;" x="1166.085466" xlink:href="#m644dd4760e" y="598.047442"/>
    </g>
   </g>
   <g id="line2d_87">
    <g clip-path="url(#p3911c4bb7d)">
     <use style="fill:#f46d43;stroke:#000000;" x="1027.538234" xlink:href="#m1bd0cda341" y="509.114193"/>
    </g>
   </g>
   <g id="line2d_88">
    <g clip-path="url(#p3911c4bb7d)">
     <use style="fill:#e6f598;stroke:#000000;" x="1183.781834" xlink:href="#m644dd4760e" y="683.852822"/>
    </g>
   </g>
   <g id="line2d_89">
    <g clip-path="url(#p3911c4bb7d)">
     <use style="fill:#9e0142;stroke:#000000;" x="1238.697629" xlink:href="#m92698e5577" y="947.275489"/>
    </g>
   </g>
   <g id="line2d_90">
    <g clip-path="url(#p3911c4bb7d)">
     <use style="fill:#f46d43;stroke:#000000;" x="1028.728078" xlink:href="#m1bd0cda341" y="509.100383"/>
    </g>
   </g>
   <g id="line2d_91">
    <g clip-path="url(#p3911c4bb7d)">
     <use style="fill:#9e0142;stroke:#000000;" x="1239.343864" xlink:href="#m92698e5577" y="947.231731"/>
    </g>
   </g>
   <g id="patch_3">
    <path d="M 180 1281.6 
L 180 172.8 
" style="fill:none;stroke:#000000;stroke-linecap:square;stroke-linejoin:miter;stroke-width:0.8;"/>
   </g>
   <g id="patch_4">
    <path d="M 1296 1281.6 
L 1296 172.8 
" style="fill:none;stroke:#000000;stroke-linecap:square;stroke-linejoin:miter;stroke-width:0.8;"/>
   </g>
   <g id="patch_5">
    <path d="M 180 1281.6 
L 1296 1281.6 
" style="fill:none;stroke:#000000;stroke-linecap:square;stroke-linejoin:miter;stroke-width:0.8;"/>
   </g>
   <g id="patch_6">
    <path d="M 180 172.8 
L 1296 172.8 
" style="fill:none;stroke:#000000;stroke-linecap:square;stroke-linejoin:miter;stroke-width:0.8;"/>
   </g>
  </g>
 </g>
 <defs>
  <clipPath id="p3911c4bb7d">
   <rect height="1108.8" width="1116" x="180" y="172.8"/>
  </clipPath>
 </defs>
</svg>
