<?xml version="1.0" encoding="utf-8" standalone="no"?>
<!DOCTYPE svg PUBLIC "-//W3C//DTD SVG 1.1//EN"
  "http://www.w3.org/Graphics/SVG/1.1/DTD/svg11.dtd">
<!-- Created with matplotlib (https://matplotlib.org/) -->
<svg height="1440pt" version="1.1" viewBox="0 0 1440 1440" width="1440pt" xmlns="http://www.w3.org/2000/svg" xmlns:xlink="http://www.w3.org/1999/xlink">
 <defs>
  <style type="text/css">
*{stroke-linecap:butt;stroke-linejoin:round;}
  </style>
 </defs>
 <g id="figure_1">
  <g id="patch_1">
   <path d="M 0 1440 
L 1440 1440 
L 1440 0 
L 0 0 
z
" style="fill:#ffffff;"/>
  </g>
  <g id="axes_1">
   <g id="patch_2">
    <path d="M 180 1281.6 
L 1296 1281.6 
L 1296 172.8 
L 180 172.8 
z
" style="fill:#ffffff;"/>
   </g>
   <g id="matplotlib.axis_1">
    <g id="xtick_1">
     <g id="line2d_1">
      <defs>
       <path d="M 0 0 
L 0 3.5 
" id="m05dd259d85" style="stroke:#000000;stroke-width:0.8;"/>
      </defs>
      <g>
       <use style="stroke:#000000;stroke-width:0.8;" x="213.471836" xlink:href="#m05dd259d85" y="1281.6"/>
      </g>
     </g>
     <g id="text_1">
      <!-- −0.025 -->
      <defs>
       <path d="M 10.59375 35.5 
L 73.1875 35.5 
L 73.1875 27.203125 
L 10.59375 27.203125 
z
" id="DejaVuSans-8722"/>
       <path d="M 31.78125 66.40625 
Q 24.171875 66.40625 20.328125 58.90625 
Q 16.5 51.421875 16.5 36.375 
Q 16.5 21.390625 20.328125 13.890625 
Q 24.171875 6.390625 31.78125 6.390625 
Q 39.453125 6.390625 43.28125 13.890625 
Q 47.125 21.390625 47.125 36.375 
Q 47.125 51.421875 43.28125 58.90625 
Q 39.453125 66.40625 31.78125 66.40625 
z
M 31.78125 74.21875 
Q 44.046875 74.21875 50.515625 64.515625 
Q 56.984375 54.828125 56.984375 36.375 
Q 56.984375 17.96875 50.515625 8.265625 
Q 44.046875 -1.421875 31.78125 -1.421875 
Q 19.53125 -1.421875 13.0625 8.265625 
Q 6.59375 17.96875 6.59375 36.375 
Q 6.59375 54.828125 13.0625 64.515625 
Q 19.53125 74.21875 31.78125 74.21875 
z
" id="DejaVuSans-48"/>
       <path d="M 10.6875 12.40625 
L 21 12.40625 
L 21 0 
L 10.6875 0 
z
" id="DejaVuSans-46"/>
       <path d="M 19.1875 8.296875 
L 53.609375 8.296875 
L 53.609375 0 
L 7.328125 0 
L 7.328125 8.296875 
Q 12.9375 14.109375 22.625 23.890625 
Q 32.328125 33.6875 34.8125 36.53125 
Q 39.546875 41.84375 41.421875 45.53125 
Q 43.3125 49.21875 43.3125 52.78125 
Q 43.3125 58.59375 39.234375 62.25 
Q 35.15625 65.921875 28.609375 65.921875 
Q 23.96875 65.921875 18.8125 64.3125 
Q 13.671875 62.703125 7.8125 59.421875 
L 7.8125 69.390625 
Q 13.765625 71.78125 18.9375 73 
Q 24.125 74.21875 28.421875 74.21875 
Q 39.75 74.21875 46.484375 68.546875 
Q 53.21875 62.890625 53.21875 53.421875 
Q 53.21875 48.921875 51.53125 44.890625 
Q 49.859375 40.875 45.40625 35.40625 
Q 44.1875 33.984375 37.640625 27.21875 
Q 31.109375 20.453125 19.1875 8.296875 
z
" id="DejaVuSans-50"/>
       <path d="M 10.796875 72.90625 
L 49.515625 72.90625 
L 49.515625 64.59375 
L 19.828125 64.59375 
L 19.828125 46.734375 
Q 21.96875 47.46875 24.109375 47.828125 
Q 26.265625 48.1875 28.421875 48.1875 
Q 40.625 48.1875 47.75 41.5 
Q 54.890625 34.8125 54.890625 23.390625 
Q 54.890625 11.625 47.5625 5.09375 
Q 40.234375 -1.421875 26.90625 -1.421875 
Q 22.3125 -1.421875 17.546875 -0.640625 
Q 12.796875 0.140625 7.71875 1.703125 
L 7.71875 11.625 
Q 12.109375 9.234375 16.796875 8.0625 
Q 21.484375 6.890625 26.703125 6.890625 
Q 35.15625 6.890625 40.078125 11.328125 
Q 45.015625 15.765625 45.015625 23.390625 
Q 45.015625 31 40.078125 35.4375 
Q 35.15625 39.890625 26.703125 39.890625 
Q 22.75 39.890625 18.8125 39.015625 
Q 14.890625 38.140625 10.796875 36.28125 
z
" id="DejaVuSans-53"/>
      </defs>
      <g transform="translate(194.96793 1296.198437)scale(0.1 -0.1)">
       <use xlink:href="#DejaVuSans-8722"/>
       <use x="83.789062" xlink:href="#DejaVuSans-48"/>
       <use x="147.412109" xlink:href="#DejaVuSans-46"/>
       <use x="179.199219" xlink:href="#DejaVuSans-48"/>
       <use x="242.822266" xlink:href="#DejaVuSans-50"/>
       <use x="306.445312" xlink:href="#DejaVuSans-53"/>
      </g>
     </g>
    </g>
    <g id="xtick_2">
     <g id="line2d_2">
      <g>
       <use style="stroke:#000000;stroke-width:0.8;" x="351.54847" xlink:href="#m05dd259d85" y="1281.6"/>
      </g>
     </g>
     <g id="text_2">
      <!-- 0.000 -->
      <g transform="translate(337.234408 1296.198437)scale(0.1 -0.1)">
       <use xlink:href="#DejaVuSans-48"/>
       <use x="63.623047" xlink:href="#DejaVuSans-46"/>
       <use x="95.410156" xlink:href="#DejaVuSans-48"/>
       <use x="159.033203" xlink:href="#DejaVuSans-48"/>
       <use x="222.65625" xlink:href="#DejaVuSans-48"/>
      </g>
     </g>
    </g>
    <g id="xtick_3">
     <g id="line2d_3">
      <g>
       <use style="stroke:#000000;stroke-width:0.8;" x="489.625105" xlink:href="#m05dd259d85" y="1281.6"/>
      </g>
     </g>
     <g id="text_3">
      <!-- 0.025 -->
      <g transform="translate(475.311043 1296.198437)scale(0.1 -0.1)">
       <use xlink:href="#DejaVuSans-48"/>
       <use x="63.623047" xlink:href="#DejaVuSans-46"/>
       <use x="95.410156" xlink:href="#DejaVuSans-48"/>
       <use x="159.033203" xlink:href="#DejaVuSans-50"/>
       <use x="222.65625" xlink:href="#DejaVuSans-53"/>
      </g>
     </g>
    </g>
    <g id="xtick_4">
     <g id="line2d_4">
      <g>
       <use style="stroke:#000000;stroke-width:0.8;" x="627.70174" xlink:href="#m05dd259d85" y="1281.6"/>
      </g>
     </g>
     <g id="text_4">
      <!-- 0.050 -->
      <g transform="translate(613.387677 1296.198437)scale(0.1 -0.1)">
       <use xlink:href="#DejaVuSans-48"/>
       <use x="63.623047" xlink:href="#DejaVuSans-46"/>
       <use x="95.410156" xlink:href="#DejaVuSans-48"/>
       <use x="159.033203" xlink:href="#DejaVuSans-53"/>
       <use x="222.65625" xlink:href="#DejaVuSans-48"/>
      </g>
     </g>
    </g>
    <g id="xtick_5">
     <g id="line2d_5">
      <g>
       <use style="stroke:#000000;stroke-width:0.8;" x="765.778374" xlink:href="#m05dd259d85" y="1281.6"/>
      </g>
     </g>
     <g id="text_5">
      <!-- 0.075 -->
      <defs>
       <path d="M 8.203125 72.90625 
L 55.078125 72.90625 
L 55.078125 68.703125 
L 28.609375 0 
L 18.3125 0 
L 43.21875 64.59375 
L 8.203125 64.59375 
z
" id="DejaVuSans-55"/>
      </defs>
      <g transform="translate(751.464312 1296.198437)scale(0.1 -0.1)">
       <use xlink:href="#DejaVuSans-48"/>
       <use x="63.623047" xlink:href="#DejaVuSans-46"/>
       <use x="95.410156" xlink:href="#DejaVuSans-48"/>
       <use x="159.033203" xlink:href="#DejaVuSans-55"/>
       <use x="222.65625" xlink:href="#DejaVuSans-53"/>
      </g>
     </g>
    </g>
    <g id="xtick_6">
     <g id="line2d_6">
      <g>
       <use style="stroke:#000000;stroke-width:0.8;" x="903.855009" xlink:href="#m05dd259d85" y="1281.6"/>
      </g>
     </g>
     <g id="text_6">
      <!-- 0.100 -->
      <defs>
       <path d="M 12.40625 8.296875 
L 28.515625 8.296875 
L 28.515625 63.921875 
L 10.984375 60.40625 
L 10.984375 69.390625 
L 28.421875 72.90625 
L 38.28125 72.90625 
L 38.28125 8.296875 
L 54.390625 8.296875 
L 54.390625 0 
L 12.40625 0 
z
" id="DejaVuSans-49"/>
      </defs>
      <g transform="translate(889.540946 1296.198437)scale(0.1 -0.1)">
       <use xlink:href="#DejaVuSans-48"/>
       <use x="63.623047" xlink:href="#DejaVuSans-46"/>
       <use x="95.410156" xlink:href="#DejaVuSans-49"/>
       <use x="159.033203" xlink:href="#DejaVuSans-48"/>
       <use x="222.65625" xlink:href="#DejaVuSans-48"/>
      </g>
     </g>
    </g>
    <g id="xtick_7">
     <g id="line2d_7">
      <g>
       <use style="stroke:#000000;stroke-width:0.8;" x="1041.931644" xlink:href="#m05dd259d85" y="1281.6"/>
      </g>
     </g>
     <g id="text_7">
      <!-- 0.125 -->
      <g transform="translate(1027.617581 1296.198437)scale(0.1 -0.1)">
       <use xlink:href="#DejaVuSans-48"/>
       <use x="63.623047" xlink:href="#DejaVuSans-46"/>
       <use x="95.410156" xlink:href="#DejaVuSans-49"/>
       <use x="159.033203" xlink:href="#DejaVuSans-50"/>
       <use x="222.65625" xlink:href="#DejaVuSans-53"/>
      </g>
     </g>
    </g>
    <g id="xtick_8">
     <g id="line2d_8">
      <g>
       <use style="stroke:#000000;stroke-width:0.8;" x="1180.008278" xlink:href="#m05dd259d85" y="1281.6"/>
      </g>
     </g>
     <g id="text_8">
      <!-- 0.150 -->
      <g transform="translate(1165.694216 1296.198437)scale(0.1 -0.1)">
       <use xlink:href="#DejaVuSans-48"/>
       <use x="63.623047" xlink:href="#DejaVuSans-46"/>
       <use x="95.410156" xlink:href="#DejaVuSans-49"/>
       <use x="159.033203" xlink:href="#DejaVuSans-53"/>
       <use x="222.65625" xlink:href="#DejaVuSans-48"/>
      </g>
     </g>
    </g>
   </g>
   <g id="matplotlib.axis_2">
    <g id="ytick_1">
     <g id="line2d_9">
      <defs>
       <path d="M 0 0 
L -3.5 0 
" id="m881cd6a6a8" style="stroke:#000000;stroke-width:0.8;"/>
      </defs>
      <g>
       <use style="stroke:#000000;stroke-width:0.8;" x="180" xlink:href="#m881cd6a6a8" y="1195.012727"/>
      </g>
     </g>
     <g id="text_9">
      <!-- −0.2 -->
      <g transform="translate(148.717187 1198.811945)scale(0.1 -0.1)">
       <use xlink:href="#DejaVuSans-8722"/>
       <use x="83.789062" xlink:href="#DejaVuSans-48"/>
       <use x="147.412109" xlink:href="#DejaVuSans-46"/>
       <use x="179.199219" xlink:href="#DejaVuSans-50"/>
      </g>
     </g>
    </g>
    <g id="ytick_2">
     <g id="line2d_10">
      <g>
       <use style="stroke:#000000;stroke-width:0.8;" x="180" xlink:href="#m881cd6a6a8" y="1053.019596"/>
      </g>
     </g>
     <g id="text_10">
      <!-- −0.1 -->
      <g transform="translate(148.717187 1056.818815)scale(0.1 -0.1)">
       <use xlink:href="#DejaVuSans-8722"/>
       <use x="83.789062" xlink:href="#DejaVuSans-48"/>
       <use x="147.412109" xlink:href="#DejaVuSans-46"/>
       <use x="179.199219" xlink:href="#DejaVuSans-49"/>
      </g>
     </g>
    </g>
    <g id="ytick_3">
     <g id="line2d_11">
      <g>
       <use style="stroke:#000000;stroke-width:0.8;" x="180" xlink:href="#m881cd6a6a8" y="911.026465"/>
      </g>
     </g>
     <g id="text_11">
      <!-- 0.0 -->
      <g transform="translate(157.096875 914.825684)scale(0.1 -0.1)">
       <use xlink:href="#DejaVuSans-48"/>
       <use x="63.623047" xlink:href="#DejaVuSans-46"/>
       <use x="95.410156" xlink:href="#DejaVuSans-48"/>
      </g>
     </g>
    </g>
    <g id="ytick_4">
     <g id="line2d_12">
      <g>
       <use style="stroke:#000000;stroke-width:0.8;" x="180" xlink:href="#m881cd6a6a8" y="769.033335"/>
      </g>
     </g>
     <g id="text_12">
      <!-- 0.1 -->
      <g transform="translate(157.096875 772.832553)scale(0.1 -0.1)">
       <use xlink:href="#DejaVuSans-48"/>
       <use x="63.623047" xlink:href="#DejaVuSans-46"/>
       <use x="95.410156" xlink:href="#DejaVuSans-49"/>
      </g>
     </g>
    </g>
    <g id="ytick_5">
     <g id="line2d_13">
      <g>
       <use style="stroke:#000000;stroke-width:0.8;" x="180" xlink:href="#m881cd6a6a8" y="627.040204"/>
      </g>
     </g>
     <g id="text_13">
      <!-- 0.2 -->
      <g transform="translate(157.096875 630.839423)scale(0.1 -0.1)">
       <use xlink:href="#DejaVuSans-48"/>
       <use x="63.623047" xlink:href="#DejaVuSans-46"/>
       <use x="95.410156" xlink:href="#DejaVuSans-50"/>
      </g>
     </g>
    </g>
    <g id="ytick_6">
     <g id="line2d_14">
      <g>
       <use style="stroke:#000000;stroke-width:0.8;" x="180" xlink:href="#m881cd6a6a8" y="485.047073"/>
      </g>
     </g>
     <g id="text_14">
      <!-- 0.3 -->
      <defs>
       <path d="M 40.578125 39.3125 
Q 47.65625 37.796875 51.625 33 
Q 55.609375 28.21875 55.609375 21.1875 
Q 55.609375 10.40625 48.1875 4.484375 
Q 40.765625 -1.421875 27.09375 -1.421875 
Q 22.515625 -1.421875 17.65625 -0.515625 
Q 12.796875 0.390625 7.625 2.203125 
L 7.625 11.71875 
Q 11.71875 9.328125 16.59375 8.109375 
Q 21.484375 6.890625 26.8125 6.890625 
Q 36.078125 6.890625 40.9375 10.546875 
Q 45.796875 14.203125 45.796875 21.1875 
Q 45.796875 27.640625 41.28125 31.265625 
Q 36.765625 34.90625 28.71875 34.90625 
L 20.21875 34.90625 
L 20.21875 43.015625 
L 29.109375 43.015625 
Q 36.375 43.015625 40.234375 45.921875 
Q 44.09375 48.828125 44.09375 54.296875 
Q 44.09375 59.90625 40.109375 62.90625 
Q 36.140625 65.921875 28.71875 65.921875 
Q 24.65625 65.921875 20.015625 65.03125 
Q 15.375 64.15625 9.8125 62.3125 
L 9.8125 71.09375 
Q 15.4375 72.65625 20.34375 73.4375 
Q 25.25 74.21875 29.59375 74.21875 
Q 40.828125 74.21875 47.359375 69.109375 
Q 53.90625 64.015625 53.90625 55.328125 
Q 53.90625 49.265625 50.4375 45.09375 
Q 46.96875 40.921875 40.578125 39.3125 
z
" id="DejaVuSans-51"/>
      </defs>
      <g transform="translate(157.096875 488.846292)scale(0.1 -0.1)">
       <use xlink:href="#DejaVuSans-48"/>
       <use x="63.623047" xlink:href="#DejaVuSans-46"/>
       <use x="95.410156" xlink:href="#DejaVuSans-51"/>
      </g>
     </g>
    </g>
    <g id="ytick_7">
     <g id="line2d_15">
      <g>
       <use style="stroke:#000000;stroke-width:0.8;" x="180" xlink:href="#m881cd6a6a8" y="343.053943"/>
      </g>
     </g>
     <g id="text_15">
      <!-- 0.4 -->
      <defs>
       <path d="M 37.796875 64.3125 
L 12.890625 25.390625 
L 37.796875 25.390625 
z
M 35.203125 72.90625 
L 47.609375 72.90625 
L 47.609375 25.390625 
L 58.015625 25.390625 
L 58.015625 17.1875 
L 47.609375 17.1875 
L 47.609375 0 
L 37.796875 0 
L 37.796875 17.1875 
L 4.890625 17.1875 
L 4.890625 26.703125 
z
" id="DejaVuSans-52"/>
      </defs>
      <g transform="translate(157.096875 346.853162)scale(0.1 -0.1)">
       <use xlink:href="#DejaVuSans-48"/>
       <use x="63.623047" xlink:href="#DejaVuSans-46"/>
       <use x="95.410156" xlink:href="#DejaVuSans-52"/>
      </g>
     </g>
    </g>
    <g id="ytick_8">
     <g id="line2d_16">
      <g>
       <use style="stroke:#000000;stroke-width:0.8;" x="180" xlink:href="#m881cd6a6a8" y="201.060812"/>
      </g>
     </g>
     <g id="text_16">
      <!-- 0.5 -->
      <g transform="translate(157.096875 204.860031)scale(0.1 -0.1)">
       <use xlink:href="#DejaVuSans-48"/>
       <use x="63.623047" xlink:href="#DejaVuSans-46"/>
       <use x="95.410156" xlink:href="#DejaVuSans-53"/>
      </g>
     </g>
    </g>
   </g>
   <g id="line2d_17">
    <defs>
     <path d="M 0 9 
C 2.386828 9 4.676219 8.051703 6.363961 6.363961 
C 8.051703 4.676219 9 2.386828 9 0 
C 9 -2.386828 8.051703 -4.676219 6.363961 -6.363961 
C 4.676219 -8.051703 2.386828 -9 0 -9 
C -2.386828 -9 -4.676219 -8.051703 -6.363961 -6.363961 
C -8.051703 -4.676219 -9 -2.386828 -9 0 
C -9 2.386828 -8.051703 4.676219 -6.363961 6.363961 
C -4.676219 8.051703 -2.386828 9 0 9 
z
" id="mfa551473c5" style="stroke:#000000;"/>
    </defs>
    <g clip-path="url(#pc060e61392)">
     <use style="fill:#9e0142;stroke:#000000;" x="1237.500171" xlink:href="#mfa551473c5" y="910.694936"/>
    </g>
   </g>
   <g id="line2d_18">
    <g clip-path="url(#pc060e61392)">
     <use style="fill:#9e0142;stroke:#000000;" x="1229.325618" xlink:href="#mfa551473c5" y="910.689392"/>
    </g>
   </g>
   <g id="line2d_19">
    <g clip-path="url(#pc060e61392)">
     <use style="fill:#9e0142;stroke:#000000;" x="1067.699437" xlink:href="#mfa551473c5" y="821.481282"/>
    </g>
   </g>
   <g id="line2d_20">
    <g clip-path="url(#pc060e61392)">
     <use style="fill:#9e0142;stroke:#000000;" x="1236.28446" xlink:href="#mfa551473c5" y="910.694227"/>
    </g>
   </g>
   <g id="line2d_21">
    <defs>
     <path d="M 0 3 
C 0.795609 3 1.55874 2.683901 2.12132 2.12132 
C 2.683901 1.55874 3 0.795609 3 0 
C 3 -0.795609 2.683901 -1.55874 2.12132 -2.12132 
C 1.55874 -2.683901 0.795609 -3 0 -3 
C -0.795609 -3 -1.55874 -2.683901 -2.12132 -2.12132 
C -2.683901 -1.55874 -3 -0.795609 -3 0 
C -3 0.795609 -2.683901 1.55874 -2.12132 2.12132 
C -1.55874 2.683901 -0.795609 3 0 3 
z
" id="mfcbee1f73b" style="stroke:#000000;"/>
    </defs>
    <g clip-path="url(#pc060e61392)">
     <use style="stroke:#000000;" x="347.749618" xlink:href="#mfcbee1f73b" y="287.311186"/>
    </g>
   </g>
   <g id="line2d_22">
    <g clip-path="url(#pc060e61392)">
     <use style="fill:#9e0142;stroke:#000000;" x="1243.448042" xlink:href="#mfa551473c5" y="910.690959"/>
    </g>
   </g>
   <g id="line2d_23">
    <g clip-path="url(#pc060e61392)">
     <use style="fill:#9e0142;stroke:#000000;" x="1237.621734" xlink:href="#mfa551473c5" y="910.688668"/>
    </g>
   </g>
   <g id="line2d_24">
    <g clip-path="url(#pc060e61392)">
     <use style="fill:#9e0142;stroke:#000000;" x="1244.681512" xlink:href="#mfa551473c5" y="910.693134"/>
    </g>
   </g>
   <g id="line2d_25">
    <g clip-path="url(#pc060e61392)">
     <use style="fill:#9e0142;stroke:#000000;" x="1231.828263" xlink:href="#mfa551473c5" y="910.691965"/>
    </g>
   </g>
   <g id="line2d_26">
    <g clip-path="url(#pc060e61392)">
     <use style="fill:#9e0142;stroke:#000000;" x="1232.44641" xlink:href="#mfa551473c5" y="910.690745"/>
    </g>
   </g>
   <g id="line2d_27">
    <g clip-path="url(#pc060e61392)">
     <use style="fill:#9e0142;stroke:#000000;" x="1228.277994" xlink:href="#mfa551473c5" y="910.693046"/>
    </g>
   </g>
   <g id="line2d_28">
    <g clip-path="url(#pc060e61392)">
     <use style="fill:#9e0142;stroke:#000000;" x="1241.768114" xlink:href="#mfa551473c5" y="910.694734"/>
    </g>
   </g>
   <g id="line2d_29">
    <g clip-path="url(#pc060e61392)">
     <use style="fill:#9e0142;stroke:#000000;" x="1234.344692" xlink:href="#mfa551473c5" y="910.694805"/>
    </g>
   </g>
   <g id="line2d_30">
    <g clip-path="url(#pc060e61392)">
     <use style="fill:#9e0142;stroke:#000000;" x="1238.634893" xlink:href="#mfa551473c5" y="910.694586"/>
    </g>
   </g>
   <g id="line2d_31">
    <g clip-path="url(#pc060e61392)">
     <use style="fill:#9e0142;stroke:#000000;" x="1228.286697" xlink:href="#mfa551473c5" y="910.691412"/>
    </g>
   </g>
   <g id="line2d_32">
    <g clip-path="url(#pc060e61392)">
     <use style="stroke:#000000;" x="230.727273" xlink:href="#mfcbee1f73b" y="1229.833048"/>
    </g>
   </g>
   <g id="line2d_33">
    <g clip-path="url(#pc060e61392)">
     <use style="fill:#9e0142;stroke:#000000;" x="1239.592586" xlink:href="#mfa551473c5" y="910.689044"/>
    </g>
   </g>
   <g id="line2d_34">
    <g clip-path="url(#pc060e61392)">
     <use style="stroke:#000000;" x="297.246535" xlink:href="#mfcbee1f73b" y="244.931551"/>
    </g>
   </g>
   <g id="line2d_35">
    <g clip-path="url(#pc060e61392)">
     <use style="stroke:#000000;" x="231.513599" xlink:href="#mfcbee1f73b" y="1231.2"/>
    </g>
   </g>
   <g id="line2d_36">
    <g clip-path="url(#pc060e61392)">
     <use style="fill:#9e0142;stroke:#000000;" x="1232.106235" xlink:href="#mfa551473c5" y="910.691112"/>
    </g>
   </g>
   <g id="line2d_37">
    <g clip-path="url(#pc060e61392)">
     <use style="fill:#9e0142;stroke:#000000;" x="1230.155595" xlink:href="#mfa551473c5" y="910.693649"/>
    </g>
   </g>
   <g id="line2d_38">
    <g clip-path="url(#pc060e61392)">
     <use style="fill:#9e0142;stroke:#000000;" x="1238.718582" xlink:href="#mfa551473c5" y="910.693426"/>
    </g>
   </g>
   <g id="line2d_39">
    <g clip-path="url(#pc060e61392)">
     <use style="stroke:#000000;" x="1034.013533" xlink:href="#mfcbee1f73b" y="1125.49378"/>
    </g>
   </g>
   <g id="line2d_40">
    <g clip-path="url(#pc060e61392)">
     <use style="fill:#9e0142;stroke:#000000;" x="1243.036041" xlink:href="#mfa551473c5" y="910.688824"/>
    </g>
   </g>
   <g id="line2d_41">
    <g clip-path="url(#pc060e61392)">
     <use style="fill:#9e0142;stroke:#000000;" x="1239.819519" xlink:href="#mfa551473c5" y="910.691758"/>
    </g>
   </g>
   <g id="line2d_42">
    <g clip-path="url(#pc060e61392)">
     <use style="fill:#9e0142;stroke:#000000;" x="1229.363598" xlink:href="#mfa551473c5" y="910.692027"/>
    </g>
   </g>
   <g id="line2d_43">
    <g clip-path="url(#pc060e61392)">
     <use style="fill:#9e0142;stroke:#000000;" x="1240.602522" xlink:href="#mfa551473c5" y="910.692036"/>
    </g>
   </g>
   <g id="line2d_44">
    <g clip-path="url(#pc060e61392)">
     <use style="fill:#9e0142;stroke:#000000;" x="1245.272727" xlink:href="#mfa551473c5" y="910.691626"/>
    </g>
   </g>
   <g id="line2d_45">
    <g clip-path="url(#pc060e61392)">
     <use style="fill:#9e0142;stroke:#000000;" x="1241.138494" xlink:href="#mfa551473c5" y="910.694666"/>
    </g>
   </g>
   <g id="line2d_46">
    <g clip-path="url(#pc060e61392)">
     <use style="fill:#9e0142;stroke:#000000;" x="1239.043617" xlink:href="#mfa551473c5" y="910.692071"/>
    </g>
   </g>
   <g id="line2d_47">
    <g clip-path="url(#pc060e61392)">
     <use style="stroke:#000000;" x="347.759362" xlink:href="#mfcbee1f73b" y="290.688801"/>
    </g>
   </g>
   <g id="line2d_48">
    <g clip-path="url(#pc060e61392)">
     <use style="fill:#9e0142;stroke:#000000;" x="1232.392149" xlink:href="#mfa551473c5" y="910.693481"/>
    </g>
   </g>
   <g id="line2d_49">
    <g clip-path="url(#pc060e61392)">
     <use style="fill:#9e0142;stroke:#000000;" x="1240.876023" xlink:href="#mfa551473c5" y="910.694476"/>
    </g>
   </g>
   <g id="line2d_50">
    <g clip-path="url(#pc060e61392)">
     <use style="fill:#9e0142;stroke:#000000;" x="1229.476574" xlink:href="#mfa551473c5" y="910.688683"/>
    </g>
   </g>
   <g id="line2d_51">
    <g clip-path="url(#pc060e61392)">
     <use style="fill:#9e0142;stroke:#000000;" x="1239.593002" xlink:href="#mfa551473c5" y="910.689673"/>
    </g>
   </g>
   <g id="line2d_52">
    <g clip-path="url(#pc060e61392)">
     <use style="stroke:#000000;" x="298.550046" xlink:href="#mfcbee1f73b" y="223.2"/>
    </g>
   </g>
   <g id="line2d_53">
    <g clip-path="url(#pc060e61392)">
     <use style="fill:#9e0142;stroke:#000000;" x="1240.130195" xlink:href="#mfa551473c5" y="910.691807"/>
    </g>
   </g>
   <g id="line2d_54">
    <g clip-path="url(#pc060e61392)">
     <use style="stroke:#000000;" x="1089.854675" xlink:href="#mfcbee1f73b" y="1075.514013"/>
    </g>
   </g>
   <g id="line2d_55">
    <g clip-path="url(#pc060e61392)">
     <use style="fill:#9e0142;stroke:#000000;" x="1237.053076" xlink:href="#mfa551473c5" y="910.691238"/>
    </g>
   </g>
   <g id="line2d_56">
    <g clip-path="url(#pc060e61392)">
     <use style="fill:#9e0142;stroke:#000000;" x="1231.891085" xlink:href="#mfa551473c5" y="910.692419"/>
    </g>
   </g>
   <g id="line2d_57">
    <g clip-path="url(#pc060e61392)">
     <use style="fill:#9e0142;stroke:#000000;" x="1065.821538" xlink:href="#mfa551473c5" y="820.982523"/>
    </g>
   </g>
   <g id="line2d_58">
    <g clip-path="url(#pc060e61392)">
     <use style="fill:#9e0142;stroke:#000000;" x="1057.406349" xlink:href="#mfa551473c5" y="819.816698"/>
    </g>
   </g>
   <g id="line2d_59">
    <g clip-path="url(#pc060e61392)">
     <use style="fill:#9e0142;stroke:#000000;" x="1058.39562" xlink:href="#mfa551473c5" y="821.314021"/>
    </g>
   </g>
   <g id="line2d_60">
    <g clip-path="url(#pc060e61392)">
     <use style="fill:#9e0142;stroke:#000000;" x="1239.813039" xlink:href="#mfa551473c5" y="910.688821"/>
    </g>
   </g>
   <g id="line2d_61">
    <g clip-path="url(#pc060e61392)">
     <use style="fill:#9e0142;stroke:#000000;" x="1232.062917" xlink:href="#mfa551473c5" y="910.690077"/>
    </g>
   </g>
   <g id="line2d_62">
    <g clip-path="url(#pc060e61392)">
     <use style="fill:#9e0142;stroke:#000000;" x="1242.545344" xlink:href="#mfa551473c5" y="910.690696"/>
    </g>
   </g>
   <g id="line2d_63">
    <g clip-path="url(#pc060e61392)">
     <use style="fill:#9e0142;stroke:#000000;" x="1245.23241" xlink:href="#mfa551473c5" y="910.691062"/>
    </g>
   </g>
   <g id="patch_3">
    <path d="M 180 1281.6 
L 180 172.8 
" style="fill:none;stroke:#000000;stroke-linecap:square;stroke-linejoin:miter;stroke-width:0.8;"/>
   </g>
   <g id="patch_4">
    <path d="M 1296 1281.6 
L 1296 172.8 
" style="fill:none;stroke:#000000;stroke-linecap:square;stroke-linejoin:miter;stroke-width:0.8;"/>
   </g>
   <g id="patch_5">
    <path d="M 180 1281.6 
L 1296 1281.6 
" style="fill:none;stroke:#000000;stroke-linecap:square;stroke-linejoin:miter;stroke-width:0.8;"/>
   </g>
   <g id="patch_6">
    <path d="M 180 172.8 
L 1296 172.8 
" style="fill:none;stroke:#000000;stroke-linecap:square;stroke-linejoin:miter;stroke-width:0.8;"/>
   </g>
  </g>
 </g>
 <defs>
  <clipPath id="pc060e61392">
   <rect height="1108.8" width="1116" x="180" y="172.8"/>
  </clipPath>
 </defs>
</svg>
