<?xml version="1.0" encoding="utf-8" standalone="no"?>
<!DOCTYPE svg PUBLIC "-//W3C//DTD SVG 1.1//EN"
  "http://www.w3.org/Graphics/SVG/1.1/DTD/svg11.dtd">
<!-- Created with matplotlib (https://matplotlib.org/) -->
<svg height="1440pt" version="1.1" viewBox="0 0 1440 1440" width="1440pt" xmlns="http://www.w3.org/2000/svg" xmlns:xlink="http://www.w3.org/1999/xlink">
 <defs>
  <style type="text/css">
*{stroke-linecap:butt;stroke-linejoin:round;}
  </style>
 </defs>
 <g id="figure_1">
  <g id="patch_1">
   <path d="M 0 1440 
L 1440 1440 
L 1440 0 
L 0 0 
z
" style="fill:#ffffff;"/>
  </g>
  <g id="axes_1">
   <g id="patch_2">
    <path d="M 180 1281.6 
L 1296 1281.6 
L 1296 172.8 
L 180 172.8 
z
" style="fill:#ffffff;"/>
   </g>
   <g id="matplotlib.axis_1">
    <g id="xtick_1">
     <g id="line2d_1">
      <defs>
       <path d="M 0 0 
L 0 3.5 
" id="m078e8cf4c4" style="stroke:#000000;stroke-width:0.8;"/>
      </defs>
      <g>
       <use style="stroke:#000000;stroke-width:0.8;" x="225.325946" xlink:href="#m078e8cf4c4" y="1281.6"/>
      </g>
     </g>
     <g id="text_1">
      <!-- −0.3 -->
      <defs>
       <path d="M 10.59375 35.5 
L 73.1875 35.5 
L 73.1875 27.203125 
L 10.59375 27.203125 
z
" id="DejaVuSans-8722"/>
       <path d="M 31.78125 66.40625 
Q 24.171875 66.40625 20.328125 58.90625 
Q 16.5 51.421875 16.5 36.375 
Q 16.5 21.390625 20.328125 13.890625 
Q 24.171875 6.390625 31.78125 6.390625 
Q 39.453125 6.390625 43.28125 13.890625 
Q 47.125 21.390625 47.125 36.375 
Q 47.125 51.421875 43.28125 58.90625 
Q 39.453125 66.40625 31.78125 66.40625 
z
M 31.78125 74.21875 
Q 44.046875 74.21875 50.515625 64.515625 
Q 56.984375 54.828125 56.984375 36.375 
Q 56.984375 17.96875 50.515625 8.265625 
Q 44.046875 -1.421875 31.78125 -1.421875 
Q 19.53125 -1.421875 13.0625 8.265625 
Q 6.59375 17.96875 6.59375 36.375 
Q 6.59375 54.828125 13.0625 64.515625 
Q 19.53125 74.21875 31.78125 74.21875 
z
" id="DejaVuSans-48"/>
       <path d="M 10.6875 12.40625 
L 21 12.40625 
L 21 0 
L 10.6875 0 
z
" id="DejaVuSans-46"/>
       <path d="M 40.578125 39.3125 
Q 47.65625 37.796875 51.625 33 
Q 55.609375 28.21875 55.609375 21.1875 
Q 55.609375 10.40625 48.1875 4.484375 
Q 40.765625 -1.421875 27.09375 -1.421875 
Q 22.515625 -1.421875 17.65625 -0.515625 
Q 12.796875 0.390625 7.625 2.203125 
L 7.625 11.71875 
Q 11.71875 9.328125 16.59375 8.109375 
Q 21.484375 6.890625 26.8125 6.890625 
Q 36.078125 6.890625 40.9375 10.546875 
Q 45.796875 14.203125 45.796875 21.1875 
Q 45.796875 27.640625 41.28125 31.265625 
Q 36.765625 34.90625 28.71875 34.90625 
L 20.21875 34.90625 
L 20.21875 43.015625 
L 29.109375 43.015625 
Q 36.375 43.015625 40.234375 45.921875 
Q 44.09375 48.828125 44.09375 54.296875 
Q 44.09375 59.90625 40.109375 62.90625 
Q 36.140625 65.921875 28.71875 65.921875 
Q 24.65625 65.921875 20.015625 65.03125 
Q 15.375 64.15625 9.8125 62.3125 
L 9.8125 71.09375 
Q 15.4375 72.65625 20.34375 73.4375 
Q 25.25 74.21875 29.59375 74.21875 
Q 40.828125 74.21875 47.359375 69.109375 
Q 53.90625 64.015625 53.90625 55.328125 
Q 53.90625 49.265625 50.4375 45.09375 
Q 46.96875 40.921875 40.578125 39.3125 
z
" id="DejaVuSans-51"/>
      </defs>
      <g transform="translate(213.18454 1296.198437)scale(0.1 -0.1)">
       <use xlink:href="#DejaVuSans-8722"/>
       <use x="83.789062" xlink:href="#DejaVuSans-48"/>
       <use x="147.412109" xlink:href="#DejaVuSans-46"/>
       <use x="179.199219" xlink:href="#DejaVuSans-51"/>
      </g>
     </g>
    </g>
    <g id="xtick_2">
     <g id="line2d_2">
      <g>
       <use style="stroke:#000000;stroke-width:0.8;" x="437.714304" xlink:href="#m078e8cf4c4" y="1281.6"/>
      </g>
     </g>
     <g id="text_2">
      <!-- −0.2 -->
      <defs>
       <path d="M 19.1875 8.296875 
L 53.609375 8.296875 
L 53.609375 0 
L 7.328125 0 
L 7.328125 8.296875 
Q 12.9375 14.109375 22.625 23.890625 
Q 32.328125 33.6875 34.8125 36.53125 
Q 39.546875 41.84375 41.421875 45.53125 
Q 43.3125 49.21875 43.3125 52.78125 
Q 43.3125 58.59375 39.234375 62.25 
Q 35.15625 65.921875 28.609375 65.921875 
Q 23.96875 65.921875 18.8125 64.3125 
Q 13.671875 62.703125 7.8125 59.421875 
L 7.8125 69.390625 
Q 13.765625 71.78125 18.9375 73 
Q 24.125 74.21875 28.421875 74.21875 
Q 39.75 74.21875 46.484375 68.546875 
Q 53.21875 62.890625 53.21875 53.421875 
Q 53.21875 48.921875 51.53125 44.890625 
Q 49.859375 40.875 45.40625 35.40625 
Q 44.1875 33.984375 37.640625 27.21875 
Q 31.109375 20.453125 19.1875 8.296875 
z
" id="DejaVuSans-50"/>
      </defs>
      <g transform="translate(425.572898 1296.198437)scale(0.1 -0.1)">
       <use xlink:href="#DejaVuSans-8722"/>
       <use x="83.789062" xlink:href="#DejaVuSans-48"/>
       <use x="147.412109" xlink:href="#DejaVuSans-46"/>
       <use x="179.199219" xlink:href="#DejaVuSans-50"/>
      </g>
     </g>
    </g>
    <g id="xtick_3">
     <g id="line2d_3">
      <g>
       <use style="stroke:#000000;stroke-width:0.8;" x="650.102662" xlink:href="#m078e8cf4c4" y="1281.6"/>
      </g>
     </g>
     <g id="text_3">
      <!-- −0.1 -->
      <defs>
       <path d="M 12.40625 8.296875 
L 28.515625 8.296875 
L 28.515625 63.921875 
L 10.984375 60.40625 
L 10.984375 69.390625 
L 28.421875 72.90625 
L 38.28125 72.90625 
L 38.28125 8.296875 
L 54.390625 8.296875 
L 54.390625 0 
L 12.40625 0 
z
" id="DejaVuSans-49"/>
      </defs>
      <g transform="translate(637.961256 1296.198437)scale(0.1 -0.1)">
       <use xlink:href="#DejaVuSans-8722"/>
       <use x="83.789062" xlink:href="#DejaVuSans-48"/>
       <use x="147.412109" xlink:href="#DejaVuSans-46"/>
       <use x="179.199219" xlink:href="#DejaVuSans-49"/>
      </g>
     </g>
    </g>
    <g id="xtick_4">
     <g id="line2d_4">
      <g>
       <use style="stroke:#000000;stroke-width:0.8;" x="862.49102" xlink:href="#m078e8cf4c4" y="1281.6"/>
      </g>
     </g>
     <g id="text_4">
      <!-- 0.0 -->
      <g transform="translate(854.539458 1296.198437)scale(0.1 -0.1)">
       <use xlink:href="#DejaVuSans-48"/>
       <use x="63.623047" xlink:href="#DejaVuSans-46"/>
       <use x="95.410156" xlink:href="#DejaVuSans-48"/>
      </g>
     </g>
    </g>
    <g id="xtick_5">
     <g id="line2d_5">
      <g>
       <use style="stroke:#000000;stroke-width:0.8;" x="1074.879378" xlink:href="#m078e8cf4c4" y="1281.6"/>
      </g>
     </g>
     <g id="text_5">
      <!-- 0.1 -->
      <g transform="translate(1066.927816 1296.198437)scale(0.1 -0.1)">
       <use xlink:href="#DejaVuSans-48"/>
       <use x="63.623047" xlink:href="#DejaVuSans-46"/>
       <use x="95.410156" xlink:href="#DejaVuSans-49"/>
      </g>
     </g>
    </g>
    <g id="xtick_6">
     <g id="line2d_6">
      <g>
       <use style="stroke:#000000;stroke-width:0.8;" x="1287.267736" xlink:href="#m078e8cf4c4" y="1281.6"/>
      </g>
     </g>
     <g id="text_6">
      <!-- 0.2 -->
      <g transform="translate(1279.316174 1296.198437)scale(0.1 -0.1)">
       <use xlink:href="#DejaVuSans-48"/>
       <use x="63.623047" xlink:href="#DejaVuSans-46"/>
       <use x="95.410156" xlink:href="#DejaVuSans-50"/>
      </g>
     </g>
    </g>
   </g>
   <g id="matplotlib.axis_2">
    <g id="ytick_1">
     <g id="line2d_7">
      <defs>
       <path d="M 0 0 
L -3.5 0 
" id="m1f5159ee11" style="stroke:#000000;stroke-width:0.8;"/>
      </defs>
      <g>
       <use style="stroke:#000000;stroke-width:0.8;" x="180" xlink:href="#m1f5159ee11" y="1181.806048"/>
      </g>
     </g>
     <g id="text_7">
      <!-- −0.2 -->
      <g transform="translate(148.717187 1185.605267)scale(0.1 -0.1)">
       <use xlink:href="#DejaVuSans-8722"/>
       <use x="83.789062" xlink:href="#DejaVuSans-48"/>
       <use x="147.412109" xlink:href="#DejaVuSans-46"/>
       <use x="179.199219" xlink:href="#DejaVuSans-50"/>
      </g>
     </g>
    </g>
    <g id="ytick_2">
     <g id="line2d_8">
      <g>
       <use style="stroke:#000000;stroke-width:0.8;" x="180" xlink:href="#m1f5159ee11" y="993.811613"/>
      </g>
     </g>
     <g id="text_8">
      <!-- −0.1 -->
      <g transform="translate(148.717187 997.610832)scale(0.1 -0.1)">
       <use xlink:href="#DejaVuSans-8722"/>
       <use x="83.789062" xlink:href="#DejaVuSans-48"/>
       <use x="147.412109" xlink:href="#DejaVuSans-46"/>
       <use x="179.199219" xlink:href="#DejaVuSans-49"/>
      </g>
     </g>
    </g>
    <g id="ytick_3">
     <g id="line2d_9">
      <g>
       <use style="stroke:#000000;stroke-width:0.8;" x="180" xlink:href="#m1f5159ee11" y="805.817178"/>
      </g>
     </g>
     <g id="text_9">
      <!-- 0.0 -->
      <g transform="translate(157.096875 809.616396)scale(0.1 -0.1)">
       <use xlink:href="#DejaVuSans-48"/>
       <use x="63.623047" xlink:href="#DejaVuSans-46"/>
       <use x="95.410156" xlink:href="#DejaVuSans-48"/>
      </g>
     </g>
    </g>
    <g id="ytick_4">
     <g id="line2d_10">
      <g>
       <use style="stroke:#000000;stroke-width:0.8;" x="180" xlink:href="#m1f5159ee11" y="617.822742"/>
      </g>
     </g>
     <g id="text_10">
      <!-- 0.1 -->
      <g transform="translate(157.096875 621.621961)scale(0.1 -0.1)">
       <use xlink:href="#DejaVuSans-48"/>
       <use x="63.623047" xlink:href="#DejaVuSans-46"/>
       <use x="95.410156" xlink:href="#DejaVuSans-49"/>
      </g>
     </g>
    </g>
    <g id="ytick_5">
     <g id="line2d_11">
      <g>
       <use style="stroke:#000000;stroke-width:0.8;" x="180" xlink:href="#m1f5159ee11" y="429.828307"/>
      </g>
     </g>
     <g id="text_11">
      <!-- 0.2 -->
      <g transform="translate(157.096875 433.627526)scale(0.1 -0.1)">
       <use xlink:href="#DejaVuSans-48"/>
       <use x="63.623047" xlink:href="#DejaVuSans-46"/>
       <use x="95.410156" xlink:href="#DejaVuSans-50"/>
      </g>
     </g>
    </g>
    <g id="ytick_6">
     <g id="line2d_12">
      <g>
       <use style="stroke:#000000;stroke-width:0.8;" x="180" xlink:href="#m1f5159ee11" y="241.833872"/>
      </g>
     </g>
     <g id="text_12">
      <!-- 0.3 -->
      <g transform="translate(157.096875 245.63309)scale(0.1 -0.1)">
       <use xlink:href="#DejaVuSans-48"/>
       <use x="63.623047" xlink:href="#DejaVuSans-46"/>
       <use x="95.410156" xlink:href="#DejaVuSans-51"/>
      </g>
     </g>
    </g>
   </g>
   <g id="line2d_13">
    <defs>
     <path d="M 0 3 
C 0.795609 3 1.55874 2.683901 2.12132 2.12132 
C 2.683901 1.55874 3 0.795609 3 0 
C 3 -0.795609 2.683901 -1.55874 2.12132 -2.12132 
C 1.55874 -2.683901 0.795609 -3 0 -3 
C -0.795609 -3 -1.55874 -2.683901 -2.12132 -2.12132 
C -2.683901 -1.55874 -3 -0.795609 -3 0 
C -3 0.795609 -2.683901 1.55874 -2.12132 2.12132 
C -1.55874 2.683901 -0.795609 3 0 3 
z
" id="m8fe44dc2ad" style="stroke:#000000;"/>
    </defs>
    <g clip-path="url(#pb01d4f9fe2)">
     <use style="stroke:#000000;" x="1218.914474" xlink:href="#m8fe44dc2ad" y="712.677053"/>
    </g>
   </g>
   <g id="line2d_14">
    <g clip-path="url(#pb01d4f9fe2)">
     <use style="stroke:#000000;" x="693.957642" xlink:href="#m8fe44dc2ad" y="1177.511768"/>
    </g>
   </g>
   <g id="line2d_15">
    <g clip-path="url(#pb01d4f9fe2)">
     <use style="stroke:#000000;" x="275.135237" xlink:href="#m8fe44dc2ad" y="711.836682"/>
    </g>
   </g>
   <g id="line2d_16">
    <g clip-path="url(#pb01d4f9fe2)">
     <use style="stroke:#000000;" x="267.010286" xlink:href="#m8fe44dc2ad" y="712.315871"/>
    </g>
   </g>
   <g id="line2d_17">
    <g clip-path="url(#pb01d4f9fe2)">
     <use style="stroke:#000000;" x="882.660205" xlink:href="#m8fe44dc2ad" y="545.132348"/>
    </g>
   </g>
   <g id="line2d_18">
    <g clip-path="url(#pb01d4f9fe2)">
     <use style="stroke:#000000;" x="627.407191" xlink:href="#m8fe44dc2ad" y="419.228166"/>
    </g>
   </g>
   <g id="line2d_19">
    <g clip-path="url(#pb01d4f9fe2)">
     <use style="stroke:#000000;" x="357.106504" xlink:href="#m8fe44dc2ad" y="689.379609"/>
    </g>
   </g>
   <g id="line2d_20">
    <g clip-path="url(#pb01d4f9fe2)">
     <use style="stroke:#000000;" x="1241.283746" xlink:href="#m8fe44dc2ad" y="1142.23007"/>
    </g>
   </g>
   <g id="line2d_21">
    <g clip-path="url(#pb01d4f9fe2)">
     <use style="stroke:#000000;" x="622.491262" xlink:href="#m8fe44dc2ad" y="479.459107"/>
    </g>
   </g>
   <g id="line2d_22">
    <g clip-path="url(#pb01d4f9fe2)">
     <use style="stroke:#000000;" x="1085.901577" xlink:href="#m8fe44dc2ad" y="697.874349"/>
    </g>
   </g>
   <g id="line2d_23">
    <g clip-path="url(#pb01d4f9fe2)">
     <use style="stroke:#000000;" x="550.688644" xlink:href="#m8fe44dc2ad" y="404.493136"/>
    </g>
   </g>
   <g id="line2d_24">
    <g clip-path="url(#pb01d4f9fe2)">
     <use style="stroke:#000000;" x="1153.104193" xlink:href="#m8fe44dc2ad" y="258.819177"/>
    </g>
   </g>
   <g id="line2d_25">
    <g clip-path="url(#pb01d4f9fe2)">
     <use style="stroke:#000000;" x="541.064602" xlink:href="#m8fe44dc2ad" y="392.997481"/>
    </g>
   </g>
   <g id="line2d_26">
    <g clip-path="url(#pb01d4f9fe2)">
     <use style="stroke:#000000;" x="801.623117" xlink:href="#m8fe44dc2ad" y="472.077872"/>
    </g>
   </g>
   <g id="line2d_27">
    <g clip-path="url(#pb01d4f9fe2)">
     <use style="stroke:#000000;" x="330.961619" xlink:href="#m8fe44dc2ad" y="684.023932"/>
    </g>
   </g>
   <g id="line2d_28">
    <g clip-path="url(#pb01d4f9fe2)">
     <use style="stroke:#000000;" x="1198.255378" xlink:href="#m8fe44dc2ad" y="680.72389"/>
    </g>
   </g>
   <g id="line2d_29">
    <g clip-path="url(#pb01d4f9fe2)">
     <use style="stroke:#000000;" x="1213.245427" xlink:href="#m8fe44dc2ad" y="970.824034"/>
    </g>
   </g>
   <g id="line2d_30">
    <g clip-path="url(#pb01d4f9fe2)">
     <use style="stroke:#000000;" x="1148.922502" xlink:href="#m8fe44dc2ad" y="311.96062"/>
    </g>
   </g>
   <g id="line2d_31">
    <g clip-path="url(#pb01d4f9fe2)">
     <use style="stroke:#000000;" x="1116.747406" xlink:href="#m8fe44dc2ad" y="311.924582"/>
    </g>
   </g>
   <g id="line2d_32">
    <g clip-path="url(#pb01d4f9fe2)">
     <use style="stroke:#000000;" x="416.23829" xlink:href="#m8fe44dc2ad" y="1039.739324"/>
    </g>
   </g>
   <g id="line2d_33">
    <g clip-path="url(#pb01d4f9fe2)">
     <use style="stroke:#000000;" x="320.705143" xlink:href="#m8fe44dc2ad" y="682.985806"/>
    </g>
   </g>
   <g id="line2d_34">
    <g clip-path="url(#pb01d4f9fe2)">
     <use style="stroke:#000000;" x="1245.272727" xlink:href="#m8fe44dc2ad" y="772.652327"/>
    </g>
   </g>
   <g id="line2d_35">
    <g clip-path="url(#pb01d4f9fe2)">
     <use style="stroke:#000000;" x="1056.202981" xlink:href="#m8fe44dc2ad" y="351.724519"/>
    </g>
   </g>
   <g id="line2d_36">
    <g clip-path="url(#pb01d4f9fe2)">
     <use style="stroke:#000000;" x="1141.412232" xlink:href="#m8fe44dc2ad" y="254.597606"/>
    </g>
   </g>
   <g id="line2d_37">
    <g clip-path="url(#pb01d4f9fe2)">
     <use style="stroke:#000000;" x="316.004344" xlink:href="#m8fe44dc2ad" y="684.016778"/>
    </g>
   </g>
   <g id="line2d_38">
    <g clip-path="url(#pb01d4f9fe2)">
     <use style="stroke:#000000;" x="422.816093" xlink:href="#m8fe44dc2ad" y="1042.732185"/>
    </g>
   </g>
   <g id="line2d_39">
    <g clip-path="url(#pb01d4f9fe2)">
     <use style="stroke:#000000;" x="1116.640292" xlink:href="#m8fe44dc2ad" y="308.952399"/>
    </g>
   </g>
   <g id="line2d_40">
    <g clip-path="url(#pb01d4f9fe2)">
     <use style="stroke:#000000;" x="230.727273" xlink:href="#m8fe44dc2ad" y="848.485626"/>
    </g>
   </g>
   <g id="line2d_41">
    <g clip-path="url(#pb01d4f9fe2)">
     <use style="stroke:#000000;" x="1230.852101" xlink:href="#m8fe44dc2ad" y="1231.2"/>
    </g>
   </g>
   <g id="line2d_42">
    <g clip-path="url(#pb01d4f9fe2)">
     <use style="stroke:#000000;" x="539.354885" xlink:href="#m8fe44dc2ad" y="388.977633"/>
    </g>
   </g>
   <g id="line2d_43">
    <g clip-path="url(#pb01d4f9fe2)">
     <use style="stroke:#000000;" x="1114.080272" xlink:href="#m8fe44dc2ad" y="223.2"/>
    </g>
   </g>
   <g id="line2d_44">
    <g clip-path="url(#pb01d4f9fe2)">
     <use style="stroke:#000000;" x="1240.325792" xlink:href="#m8fe44dc2ad" y="986.863525"/>
    </g>
   </g>
   <g id="patch_3">
    <path d="M 180 1281.6 
L 180 172.8 
" style="fill:none;stroke:#000000;stroke-linecap:square;stroke-linejoin:miter;stroke-width:0.8;"/>
   </g>
   <g id="patch_4">
    <path d="M 1296 1281.6 
L 1296 172.8 
" style="fill:none;stroke:#000000;stroke-linecap:square;stroke-linejoin:miter;stroke-width:0.8;"/>
   </g>
   <g id="patch_5">
    <path d="M 180 1281.6 
L 1296 1281.6 
" style="fill:none;stroke:#000000;stroke-linecap:square;stroke-linejoin:miter;stroke-width:0.8;"/>
   </g>
   <g id="patch_6">
    <path d="M 180 172.8 
L 1296 172.8 
" style="fill:none;stroke:#000000;stroke-linecap:square;stroke-linejoin:miter;stroke-width:0.8;"/>
   </g>
  </g>
 </g>
 <defs>
  <clipPath id="pb01d4f9fe2">
   <rect height="1108.8" width="1116" x="180" y="172.8"/>
  </clipPath>
 </defs>
</svg>
