<?xml version="1.0" encoding="utf-8" standalone="no"?>
<!DOCTYPE svg PUBLIC "-//W3C//DTD SVG 1.1//EN"
  "http://www.w3.org/Graphics/SVG/1.1/DTD/svg11.dtd">
<!-- Created with matplotlib (https://matplotlib.org/) -->
<svg height="1440pt" version="1.1" viewBox="0 0 1440 1440" width="1440pt" xmlns="http://www.w3.org/2000/svg" xmlns:xlink="http://www.w3.org/1999/xlink">
 <defs>
  <style type="text/css">
*{stroke-linecap:butt;stroke-linejoin:round;}
  </style>
 </defs>
 <g id="figure_1">
  <g id="patch_1">
   <path d="M 0 1440 
L 1440 1440 
L 1440 0 
L 0 0 
z
" style="fill:#ffffff;"/>
  </g>
  <g id="axes_1">
   <g id="patch_2">
    <path d="M 180 1281.6 
L 1296 1281.6 
L 1296 172.8 
L 180 172.8 
z
" style="fill:#ffffff;"/>
   </g>
   <g id="matplotlib.axis_1">
    <g id="xtick_1">
     <g id="line2d_1">
      <defs>
       <path d="M 0 0 
L 0 3.5 
" id="m162b7136b5" style="stroke:#000000;stroke-width:0.8;"/>
      </defs>
      <g>
       <use style="stroke:#000000;stroke-width:0.8;" x="298.473808" xlink:href="#m162b7136b5" y="1281.6"/>
      </g>
     </g>
     <g id="text_1">
      <!-- −0.050 -->
      <defs>
       <path d="M 10.59375 35.5 
L 73.1875 35.5 
L 73.1875 27.203125 
L 10.59375 27.203125 
z
" id="DejaVuSans-8722"/>
       <path d="M 31.78125 66.40625 
Q 24.171875 66.40625 20.328125 58.90625 
Q 16.5 51.421875 16.5 36.375 
Q 16.5 21.390625 20.328125 13.890625 
Q 24.171875 6.390625 31.78125 6.390625 
Q 39.453125 6.390625 43.28125 13.890625 
Q 47.125 21.390625 47.125 36.375 
Q 47.125 51.421875 43.28125 58.90625 
Q 39.453125 66.40625 31.78125 66.40625 
z
M 31.78125 74.21875 
Q 44.046875 74.21875 50.515625 64.515625 
Q 56.984375 54.828125 56.984375 36.375 
Q 56.984375 17.96875 50.515625 8.265625 
Q 44.046875 -1.421875 31.78125 -1.421875 
Q 19.53125 -1.421875 13.0625 8.265625 
Q 6.59375 17.96875 6.59375 36.375 
Q 6.59375 54.828125 13.0625 64.515625 
Q 19.53125 74.21875 31.78125 74.21875 
z
" id="DejaVuSans-48"/>
       <path d="M 10.6875 12.40625 
L 21 12.40625 
L 21 0 
L 10.6875 0 
z
" id="DejaVuSans-46"/>
       <path d="M 10.796875 72.90625 
L 49.515625 72.90625 
L 49.515625 64.59375 
L 19.828125 64.59375 
L 19.828125 46.734375 
Q 21.96875 47.46875 24.109375 47.828125 
Q 26.265625 48.1875 28.421875 48.1875 
Q 40.625 48.1875 47.75 41.5 
Q 54.890625 34.8125 54.890625 23.390625 
Q 54.890625 11.625 47.5625 5.09375 
Q 40.234375 -1.421875 26.90625 -1.421875 
Q 22.3125 -1.421875 17.546875 -0.640625 
Q 12.796875 0.140625 7.71875 1.703125 
L 7.71875 11.625 
Q 12.109375 9.234375 16.796875 8.0625 
Q 21.484375 6.890625 26.703125 6.890625 
Q 35.15625 6.890625 40.078125 11.328125 
Q 45.015625 15.765625 45.015625 23.390625 
Q 45.015625 31 40.078125 35.4375 
Q 35.15625 39.890625 26.703125 39.890625 
Q 22.75 39.890625 18.8125 39.015625 
Q 14.890625 38.140625 10.796875 36.28125 
z
" id="DejaVuSans-53"/>
      </defs>
      <g transform="translate(279.969902 1296.198437)scale(0.1 -0.1)">
       <use xlink:href="#DejaVuSans-8722"/>
       <use x="83.789062" xlink:href="#DejaVuSans-48"/>
       <use x="147.412109" xlink:href="#DejaVuSans-46"/>
       <use x="179.199219" xlink:href="#DejaVuSans-48"/>
       <use x="242.822266" xlink:href="#DejaVuSans-53"/>
       <use x="306.445312" xlink:href="#DejaVuSans-48"/>
      </g>
     </g>
    </g>
    <g id="xtick_2">
     <g id="line2d_2">
      <g>
       <use style="stroke:#000000;stroke-width:0.8;" x="445.056949" xlink:href="#m162b7136b5" y="1281.6"/>
      </g>
     </g>
     <g id="text_2">
      <!-- −0.025 -->
      <defs>
       <path d="M 19.1875 8.296875 
L 53.609375 8.296875 
L 53.609375 0 
L 7.328125 0 
L 7.328125 8.296875 
Q 12.9375 14.109375 22.625 23.890625 
Q 32.328125 33.6875 34.8125 36.53125 
Q 39.546875 41.84375 41.421875 45.53125 
Q 43.3125 49.21875 43.3125 52.78125 
Q 43.3125 58.59375 39.234375 62.25 
Q 35.15625 65.921875 28.609375 65.921875 
Q 23.96875 65.921875 18.8125 64.3125 
Q 13.671875 62.703125 7.8125 59.421875 
L 7.8125 69.390625 
Q 13.765625 71.78125 18.9375 73 
Q 24.125 74.21875 28.421875 74.21875 
Q 39.75 74.21875 46.484375 68.546875 
Q 53.21875 62.890625 53.21875 53.421875 
Q 53.21875 48.921875 51.53125 44.890625 
Q 49.859375 40.875 45.40625 35.40625 
Q 44.1875 33.984375 37.640625 27.21875 
Q 31.109375 20.453125 19.1875 8.296875 
z
" id="DejaVuSans-50"/>
      </defs>
      <g transform="translate(426.553042 1296.198437)scale(0.1 -0.1)">
       <use xlink:href="#DejaVuSans-8722"/>
       <use x="83.789062" xlink:href="#DejaVuSans-48"/>
       <use x="147.412109" xlink:href="#DejaVuSans-46"/>
       <use x="179.199219" xlink:href="#DejaVuSans-48"/>
       <use x="242.822266" xlink:href="#DejaVuSans-50"/>
       <use x="306.445312" xlink:href="#DejaVuSans-53"/>
      </g>
     </g>
    </g>
    <g id="xtick_3">
     <g id="line2d_3">
      <g>
       <use style="stroke:#000000;stroke-width:0.8;" x="591.640089" xlink:href="#m162b7136b5" y="1281.6"/>
      </g>
     </g>
     <g id="text_3">
      <!-- 0.000 -->
      <g transform="translate(577.326027 1296.198437)scale(0.1 -0.1)">
       <use xlink:href="#DejaVuSans-48"/>
       <use x="63.623047" xlink:href="#DejaVuSans-46"/>
       <use x="95.410156" xlink:href="#DejaVuSans-48"/>
       <use x="159.033203" xlink:href="#DejaVuSans-48"/>
       <use x="222.65625" xlink:href="#DejaVuSans-48"/>
      </g>
     </g>
    </g>
    <g id="xtick_4">
     <g id="line2d_4">
      <g>
       <use style="stroke:#000000;stroke-width:0.8;" x="738.22323" xlink:href="#m162b7136b5" y="1281.6"/>
      </g>
     </g>
     <g id="text_4">
      <!-- 0.025 -->
      <g transform="translate(723.909167 1296.198437)scale(0.1 -0.1)">
       <use xlink:href="#DejaVuSans-48"/>
       <use x="63.623047" xlink:href="#DejaVuSans-46"/>
       <use x="95.410156" xlink:href="#DejaVuSans-48"/>
       <use x="159.033203" xlink:href="#DejaVuSans-50"/>
       <use x="222.65625" xlink:href="#DejaVuSans-53"/>
      </g>
     </g>
    </g>
    <g id="xtick_5">
     <g id="line2d_5">
      <g>
       <use style="stroke:#000000;stroke-width:0.8;" x="884.80637" xlink:href="#m162b7136b5" y="1281.6"/>
      </g>
     </g>
     <g id="text_5">
      <!-- 0.050 -->
      <g transform="translate(870.492308 1296.198437)scale(0.1 -0.1)">
       <use xlink:href="#DejaVuSans-48"/>
       <use x="63.623047" xlink:href="#DejaVuSans-46"/>
       <use x="95.410156" xlink:href="#DejaVuSans-48"/>
       <use x="159.033203" xlink:href="#DejaVuSans-53"/>
       <use x="222.65625" xlink:href="#DejaVuSans-48"/>
      </g>
     </g>
    </g>
    <g id="xtick_6">
     <g id="line2d_6">
      <g>
       <use style="stroke:#000000;stroke-width:0.8;" x="1031.389511" xlink:href="#m162b7136b5" y="1281.6"/>
      </g>
     </g>
     <g id="text_6">
      <!-- 0.075 -->
      <defs>
       <path d="M 8.203125 72.90625 
L 55.078125 72.90625 
L 55.078125 68.703125 
L 28.609375 0 
L 18.3125 0 
L 43.21875 64.59375 
L 8.203125 64.59375 
z
" id="DejaVuSans-55"/>
      </defs>
      <g transform="translate(1017.075449 1296.198437)scale(0.1 -0.1)">
       <use xlink:href="#DejaVuSans-48"/>
       <use x="63.623047" xlink:href="#DejaVuSans-46"/>
       <use x="95.410156" xlink:href="#DejaVuSans-48"/>
       <use x="159.033203" xlink:href="#DejaVuSans-55"/>
       <use x="222.65625" xlink:href="#DejaVuSans-53"/>
      </g>
     </g>
    </g>
    <g id="xtick_7">
     <g id="line2d_7">
      <g>
       <use style="stroke:#000000;stroke-width:0.8;" x="1177.972652" xlink:href="#m162b7136b5" y="1281.6"/>
      </g>
     </g>
     <g id="text_7">
      <!-- 0.100 -->
      <defs>
       <path d="M 12.40625 8.296875 
L 28.515625 8.296875 
L 28.515625 63.921875 
L 10.984375 60.40625 
L 10.984375 69.390625 
L 28.421875 72.90625 
L 38.28125 72.90625 
L 38.28125 8.296875 
L 54.390625 8.296875 
L 54.390625 0 
L 12.40625 0 
z
" id="DejaVuSans-49"/>
      </defs>
      <g transform="translate(1163.658589 1296.198437)scale(0.1 -0.1)">
       <use xlink:href="#DejaVuSans-48"/>
       <use x="63.623047" xlink:href="#DejaVuSans-46"/>
       <use x="95.410156" xlink:href="#DejaVuSans-49"/>
       <use x="159.033203" xlink:href="#DejaVuSans-48"/>
       <use x="222.65625" xlink:href="#DejaVuSans-48"/>
      </g>
     </g>
    </g>
   </g>
   <g id="matplotlib.axis_2">
    <g id="ytick_1">
     <g id="line2d_8">
      <defs>
       <path d="M 0 0 
L -3.5 0 
" id="mbc6c5c4a7f" style="stroke:#000000;stroke-width:0.8;"/>
      </defs>
      <g>
       <use style="stroke:#000000;stroke-width:0.8;" x="180" xlink:href="#mbc6c5c4a7f" y="1125.742616"/>
      </g>
     </g>
     <g id="text_8">
      <!-- −0.1 -->
      <g transform="translate(148.717187 1129.541835)scale(0.1 -0.1)">
       <use xlink:href="#DejaVuSans-8722"/>
       <use x="83.789062" xlink:href="#DejaVuSans-48"/>
       <use x="147.412109" xlink:href="#DejaVuSans-46"/>
       <use x="179.199219" xlink:href="#DejaVuSans-49"/>
      </g>
     </g>
    </g>
    <g id="ytick_2">
     <g id="line2d_9">
      <g>
       <use style="stroke:#000000;stroke-width:0.8;" x="180" xlink:href="#mbc6c5c4a7f" y="887.339793"/>
      </g>
     </g>
     <g id="text_9">
      <!-- 0.0 -->
      <g transform="translate(157.096875 891.139011)scale(0.1 -0.1)">
       <use xlink:href="#DejaVuSans-48"/>
       <use x="63.623047" xlink:href="#DejaVuSans-46"/>
       <use x="95.410156" xlink:href="#DejaVuSans-48"/>
      </g>
     </g>
    </g>
    <g id="ytick_3">
     <g id="line2d_10">
      <g>
       <use style="stroke:#000000;stroke-width:0.8;" x="180" xlink:href="#mbc6c5c4a7f" y="648.936969"/>
      </g>
     </g>
     <g id="text_10">
      <!-- 0.1 -->
      <g transform="translate(157.096875 652.736188)scale(0.1 -0.1)">
       <use xlink:href="#DejaVuSans-48"/>
       <use x="63.623047" xlink:href="#DejaVuSans-46"/>
       <use x="95.410156" xlink:href="#DejaVuSans-49"/>
      </g>
     </g>
    </g>
    <g id="ytick_4">
     <g id="line2d_11">
      <g>
       <use style="stroke:#000000;stroke-width:0.8;" x="180" xlink:href="#mbc6c5c4a7f" y="410.534146"/>
      </g>
     </g>
     <g id="text_11">
      <!-- 0.2 -->
      <g transform="translate(157.096875 414.333365)scale(0.1 -0.1)">
       <use xlink:href="#DejaVuSans-48"/>
       <use x="63.623047" xlink:href="#DejaVuSans-46"/>
       <use x="95.410156" xlink:href="#DejaVuSans-50"/>
      </g>
     </g>
    </g>
   </g>
   <g id="line2d_12">
    <defs>
     <path d="M 0 9 
C 2.386828 9 4.676219 8.051703 6.363961 6.363961 
C 8.051703 4.676219 9 2.386828 9 0 
C 9 -2.386828 8.051703 -4.676219 6.363961 -6.363961 
C 4.676219 -8.051703 2.386828 -9 0 -9 
C -2.386828 -9 -4.676219 -8.051703 -6.363961 -6.363961 
C -8.051703 -4.676219 -9 -2.386828 -9 0 
C -9 2.386828 -8.051703 4.676219 -6.363961 6.363961 
C -4.676219 8.051703 -2.386828 9 0 9 
z
" id="mb095317be1" style="stroke:#000000;"/>
    </defs>
    <g clip-path="url(#p3550a11f31)">
     <use style="fill:#9e0142;stroke:#000000;" x="1237.70106" xlink:href="#mb095317be1" y="903.738695"/>
    </g>
   </g>
   <g id="line2d_13">
    <defs>
     <path d="M 0 3 
C 0.795609 3 1.55874 2.683901 2.12132 2.12132 
C 2.683901 1.55874 3 0.795609 3 0 
C 3 -0.795609 2.683901 -1.55874 2.12132 -2.12132 
C 1.55874 -2.683901 0.795609 -3 0 -3 
C -0.795609 -3 -1.55874 -2.683901 -2.12132 -2.12132 
C -2.683901 -1.55874 -3 -0.795609 -3 0 
C -3 0.795609 -2.683901 1.55874 -2.12132 2.12132 
C -1.55874 2.683901 -0.795609 3 0 3 
z
" id="m6e8ac96da8" style="stroke:#000000;"/>
    </defs>
    <g clip-path="url(#p3550a11f31)">
     <use style="stroke:#000000;" x="1078.318818" xlink:href="#m6e8ac96da8" y="1231.2"/>
    </g>
   </g>
   <g id="line2d_14">
    <defs>
     <path d="M 0 9 
C 2.386828 9 4.676219 8.051703 6.363961 6.363961 
C 8.051703 4.676219 9 2.386828 9 0 
C 9 -2.386828 8.051703 -4.676219 6.363961 -6.363961 
C 4.676219 -8.051703 2.386828 -9 0 -9 
C -2.386828 -9 -4.676219 -8.051703 -6.363961 -6.363961 
C -8.051703 -4.676219 -9 -2.386828 -9 0 
C -9 2.386828 -8.051703 4.676219 -6.363961 6.363961 
C -4.676219 8.051703 -2.386828 9 0 9 
z
" id="m4ad165f06b" style="stroke:#000000;"/>
    </defs>
    <g clip-path="url(#p3550a11f31)">
     <use style="fill:#ffffbe;stroke:#000000;" x="262.104974" xlink:href="#m4ad165f06b" y="303.679558"/>
    </g>
   </g>
   <g id="line2d_15">
    <g clip-path="url(#p3550a11f31)">
     <use style="fill:#ffffbe;stroke:#000000;" x="259.022666" xlink:href="#m4ad165f06b" y="255.206212"/>
    </g>
   </g>
   <g id="line2d_16">
    <g clip-path="url(#p3550a11f31)">
     <use style="stroke:#000000;" x="1074.852234" xlink:href="#m6e8ac96da8" y="1227.464192"/>
    </g>
   </g>
   <g id="line2d_17">
    <g clip-path="url(#p3550a11f31)">
     <use style="fill:#9e0142;stroke:#000000;" x="1215.450669" xlink:href="#mb095317be1" y="713.055767"/>
    </g>
   </g>
   <g id="line2d_18">
    <g clip-path="url(#p3550a11f31)">
     <use style="fill:#9e0142;stroke:#000000;" x="1245.063234" xlink:href="#mb095317be1" y="903.668155"/>
    </g>
   </g>
   <g id="line2d_19">
    <g clip-path="url(#p3550a11f31)">
     <use style="stroke:#000000;" x="1080.276305" xlink:href="#m6e8ac96da8" y="1228.923457"/>
    </g>
   </g>
   <g id="line2d_20">
    <g clip-path="url(#p3550a11f31)">
     <use style="fill:#9e0142;stroke:#000000;" x="1235.42167" xlink:href="#mb095317be1" y="903.53784"/>
    </g>
   </g>
   <g id="line2d_21">
    <g clip-path="url(#p3550a11f31)">
     <use style="fill:#9e0142;stroke:#000000;" x="1241.500305" xlink:href="#mb095317be1" y="903.51731"/>
    </g>
   </g>
   <g id="line2d_22">
    <g clip-path="url(#p3550a11f31)">
     <use style="stroke:#000000;" x="1077.479331" xlink:href="#m6e8ac96da8" y="1227.929887"/>
    </g>
   </g>
   <g id="line2d_23">
    <g clip-path="url(#p3550a11f31)">
     <use style="fill:#9e0142;stroke:#000000;" x="1234.121142" xlink:href="#mb095317be1" y="903.572605"/>
    </g>
   </g>
   <g id="line2d_24">
    <g clip-path="url(#p3550a11f31)">
     <use style="fill:#9e0142;stroke:#000000;" x="1242.229119" xlink:href="#mb095317be1" y="903.634113"/>
    </g>
   </g>
   <g id="line2d_25">
    <g clip-path="url(#p3550a11f31)">
     <use style="fill:#9e0142;stroke:#000000;" x="1234.584133" xlink:href="#mb095317be1" y="903.479118"/>
    </g>
   </g>
   <g id="line2d_26">
    <g clip-path="url(#p3550a11f31)">
     <use style="fill:#9e0142;stroke:#000000;" x="1238.420041" xlink:href="#mb095317be1" y="903.705422"/>
    </g>
   </g>
   <g id="line2d_27">
    <g clip-path="url(#p3550a11f31)">
     <use style="fill:#9e0142;stroke:#000000;" x="1215.24706" xlink:href="#mb095317be1" y="715.935169"/>
    </g>
   </g>
   <g id="line2d_28">
    <g clip-path="url(#p3550a11f31)">
     <use style="fill:#9e0142;stroke:#000000;" x="1243.468712" xlink:href="#mb095317be1" y="903.520599"/>
    </g>
   </g>
   <g id="line2d_29">
    <g clip-path="url(#p3550a11f31)">
     <use style="fill:#9e0142;stroke:#000000;" x="1236.94257" xlink:href="#mb095317be1" y="903.772914"/>
    </g>
   </g>
   <g id="line2d_30">
    <g clip-path="url(#p3550a11f31)">
     <use style="fill:#9e0142;stroke:#000000;" x="1217.598608" xlink:href="#mb095317be1" y="715.967595"/>
    </g>
   </g>
   <g id="line2d_31">
    <g clip-path="url(#p3550a11f31)">
     <use style="fill:#9e0142;stroke:#000000;" x="1245.272727" xlink:href="#mb095317be1" y="903.526822"/>
    </g>
   </g>
   <g id="line2d_32">
    <g clip-path="url(#p3550a11f31)">
     <use style="fill:#9e0142;stroke:#000000;" x="1222.229792" xlink:href="#mb095317be1" y="714.997483"/>
    </g>
   </g>
   <g id="line2d_33">
    <g clip-path="url(#p3550a11f31)">
     <use style="fill:#ffffbe;stroke:#000000;" x="233.428817" xlink:href="#m4ad165f06b" y="233.677148"/>
    </g>
   </g>
   <g id="line2d_34">
    <g clip-path="url(#p3550a11f31)">
     <use style="fill:#9e0142;stroke:#000000;" x="1221.008957" xlink:href="#mb095317be1" y="715.180639"/>
    </g>
   </g>
   <g id="line2d_35">
    <g clip-path="url(#p3550a11f31)">
     <use style="fill:#ffffbe;stroke:#000000;" x="233.24024" xlink:href="#m4ad165f06b" y="223.2"/>
    </g>
   </g>
   <g id="line2d_36">
    <g clip-path="url(#p3550a11f31)">
     <use style="fill:#ffffbe;stroke:#000000;" x="257.117144" xlink:href="#m4ad165f06b" y="261.180694"/>
    </g>
   </g>
   <g id="line2d_37">
    <g clip-path="url(#p3550a11f31)">
     <use style="fill:#9e0142;stroke:#000000;" x="1216.892486" xlink:href="#mb095317be1" y="715.880057"/>
    </g>
   </g>
   <g id="line2d_38">
    <g clip-path="url(#p3550a11f31)">
     <use style="fill:#9e0142;stroke:#000000;" x="1212.934989" xlink:href="#mb095317be1" y="716.017067"/>
    </g>
   </g>
   <g id="line2d_39">
    <g clip-path="url(#p3550a11f31)">
     <use style="fill:#9e0142;stroke:#000000;" x="1235.155938" xlink:href="#mb095317be1" y="903.583182"/>
    </g>
   </g>
   <g id="line2d_40">
    <g clip-path="url(#p3550a11f31)">
     <use style="fill:#9e0142;stroke:#000000;" x="1211.345269" xlink:href="#mb095317be1" y="716.12294"/>
    </g>
   </g>
   <g id="line2d_41">
    <g clip-path="url(#p3550a11f31)">
     <use style="fill:#9e0142;stroke:#000000;" x="1210.967394" xlink:href="#mb095317be1" y="714.562621"/>
    </g>
   </g>
   <g id="line2d_42">
    <g clip-path="url(#p3550a11f31)">
     <use style="fill:#9e0142;stroke:#000000;" x="1219.427133" xlink:href="#mb095317be1" y="715.703505"/>
    </g>
   </g>
   <g id="line2d_43">
    <g clip-path="url(#p3550a11f31)">
     <use style="fill:#9e0142;stroke:#000000;" x="1212.883837" xlink:href="#mb095317be1" y="713.525691"/>
    </g>
   </g>
   <g id="line2d_44">
    <g clip-path="url(#p3550a11f31)">
     <use style="fill:#9e0142;stroke:#000000;" x="1242.154309" xlink:href="#mb095317be1" y="903.671421"/>
    </g>
   </g>
   <g id="line2d_45">
    <g clip-path="url(#p3550a11f31)">
     <use style="fill:#9e0142;stroke:#000000;" x="1215.981706" xlink:href="#mb095317be1" y="715.555"/>
    </g>
   </g>
   <g id="line2d_46">
    <g clip-path="url(#p3550a11f31)">
     <use style="fill:#9e0142;stroke:#000000;" x="1219.930989" xlink:href="#mb095317be1" y="713.45395"/>
    </g>
   </g>
   <g id="line2d_47">
    <g clip-path="url(#p3550a11f31)">
     <use style="fill:#9e0142;stroke:#000000;" x="1240.642763" xlink:href="#mb095317be1" y="903.639059"/>
    </g>
   </g>
   <g id="line2d_48">
    <g clip-path="url(#p3550a11f31)">
     <use style="fill:#9e0142;stroke:#000000;" x="1215.022717" xlink:href="#mb095317be1" y="715.405462"/>
    </g>
   </g>
   <g id="line2d_49">
    <g clip-path="url(#p3550a11f31)">
     <use style="fill:#9e0142;stroke:#000000;" x="1242.970647" xlink:href="#mb095317be1" y="903.507637"/>
    </g>
   </g>
   <g id="line2d_50">
    <g clip-path="url(#p3550a11f31)">
     <use style="fill:#9e0142;stroke:#000000;" x="1235.439638" xlink:href="#mb095317be1" y="903.555731"/>
    </g>
   </g>
   <g id="line2d_51">
    <g clip-path="url(#p3550a11f31)">
     <use style="fill:#9e0142;stroke:#000000;" x="1214.347825" xlink:href="#mb095317be1" y="715.473844"/>
    </g>
   </g>
   <g id="line2d_52">
    <g clip-path="url(#p3550a11f31)">
     <use style="fill:#9e0142;stroke:#000000;" x="1223.007647" xlink:href="#mb095317be1" y="1034.948155"/>
    </g>
   </g>
   <g id="line2d_53">
    <g clip-path="url(#p3550a11f31)">
     <use style="fill:#ffffbe;stroke:#000000;" x="255.61647" xlink:href="#m4ad165f06b" y="258.414343"/>
    </g>
   </g>
   <g id="line2d_54">
    <g clip-path="url(#p3550a11f31)">
     <use style="fill:#9e0142;stroke:#000000;" x="1238.321418" xlink:href="#mb095317be1" y="903.573371"/>
    </g>
   </g>
   <g id="line2d_55">
    <g clip-path="url(#p3550a11f31)">
     <use style="stroke:#000000;" x="527.604854" xlink:href="#m6e8ac96da8" y="505.884309"/>
    </g>
   </g>
   <g id="line2d_56">
    <g clip-path="url(#p3550a11f31)">
     <use style="fill:#9e0142;stroke:#000000;" x="1241.495771" xlink:href="#mb095317be1" y="903.540132"/>
    </g>
   </g>
   <g id="line2d_57">
    <g clip-path="url(#p3550a11f31)">
     <use style="fill:#9e0142;stroke:#000000;" x="1233.997844" xlink:href="#mb095317be1" y="903.537768"/>
    </g>
   </g>
   <g id="line2d_58">
    <g clip-path="url(#p3550a11f31)">
     <use style="fill:#9e0142;stroke:#000000;" x="1243.903908" xlink:href="#mb095317be1" y="903.487223"/>
    </g>
   </g>
   <g id="line2d_59">
    <g clip-path="url(#p3550a11f31)">
     <use style="fill:#9e0142;stroke:#000000;" x="1214.945395" xlink:href="#mb095317be1" y="715.730141"/>
    </g>
   </g>
   <g id="line2d_60">
    <g clip-path="url(#p3550a11f31)">
     <use style="fill:#ffffbe;stroke:#000000;" x="230.727273" xlink:href="#m4ad165f06b" y="229.33691"/>
    </g>
   </g>
   <g id="line2d_61">
    <g clip-path="url(#p3550a11f31)">
     <use style="fill:#9e0142;stroke:#000000;" x="1219.150807" xlink:href="#mb095317be1" y="715.548217"/>
    </g>
   </g>
   <g id="line2d_62">
    <g clip-path="url(#p3550a11f31)">
     <use style="fill:#9e0142;stroke:#000000;" x="1235.17257" xlink:href="#mb095317be1" y="903.731625"/>
    </g>
   </g>
   <g id="line2d_63">
    <g clip-path="url(#p3550a11f31)">
     <use style="fill:#9e0142;stroke:#000000;" x="1214.35972" xlink:href="#mb095317be1" y="715.823779"/>
    </g>
   </g>
   <g id="line2d_64">
    <g clip-path="url(#p3550a11f31)">
     <use style="fill:#9e0142;stroke:#000000;" x="1242.789696" xlink:href="#mb095317be1" y="903.767056"/>
    </g>
   </g>
   <g id="line2d_65">
    <g clip-path="url(#p3550a11f31)">
     <use style="fill:#9e0142;stroke:#000000;" x="1222.46891" xlink:href="#mb095317be1" y="714.894589"/>
    </g>
   </g>
   <g id="line2d_66">
    <g clip-path="url(#p3550a11f31)">
     <use style="fill:#9e0142;stroke:#000000;" x="1243.605846" xlink:href="#mb095317be1" y="903.63995"/>
    </g>
   </g>
   <g id="line2d_67">
    <g clip-path="url(#p3550a11f31)">
     <use style="fill:#9e0142;stroke:#000000;" x="1234.520175" xlink:href="#mb095317be1" y="903.536895"/>
    </g>
   </g>
   <g id="line2d_68">
    <g clip-path="url(#p3550a11f31)">
     <use style="fill:#9e0142;stroke:#000000;" x="1237.135625" xlink:href="#mb095317be1" y="903.539551"/>
    </g>
   </g>
   <g id="line2d_69">
    <g clip-path="url(#p3550a11f31)">
     <use style="fill:#9e0142;stroke:#000000;" x="1239.435279" xlink:href="#mb095317be1" y="903.517714"/>
    </g>
   </g>
   <g id="line2d_70">
    <g clip-path="url(#p3550a11f31)">
     <use style="fill:#9e0142;stroke:#000000;" x="1243.802904" xlink:href="#mb095317be1" y="903.735567"/>
    </g>
   </g>
   <g id="line2d_71">
    <g clip-path="url(#p3550a11f31)">
     <use style="fill:#9e0142;stroke:#000000;" x="1239.282305" xlink:href="#mb095317be1" y="903.757411"/>
    </g>
   </g>
   <g id="line2d_72">
    <g clip-path="url(#p3550a11f31)">
     <use style="stroke:#000000;" x="558.232145" xlink:href="#m6e8ac96da8" y="1105.846279"/>
    </g>
   </g>
   <g id="line2d_73">
    <g clip-path="url(#p3550a11f31)">
     <use style="fill:#9e0142;stroke:#000000;" x="1234.492088" xlink:href="#mb095317be1" y="903.559026"/>
    </g>
   </g>
   <g id="line2d_74">
    <g clip-path="url(#p3550a11f31)">
     <use style="fill:#9e0142;stroke:#000000;" x="1244.323672" xlink:href="#mb095317be1" y="903.684926"/>
    </g>
   </g>
   <g id="line2d_75">
    <g clip-path="url(#p3550a11f31)">
     <use style="fill:#9e0142;stroke:#000000;" x="1235.632396" xlink:href="#mb095317be1" y="903.61388"/>
    </g>
   </g>
   <g id="line2d_76">
    <g clip-path="url(#p3550a11f31)">
     <use style="fill:#9e0142;stroke:#000000;" x="1219.330901" xlink:href="#mb095317be1" y="715.259807"/>
    </g>
   </g>
   <g id="line2d_77">
    <g clip-path="url(#p3550a11f31)">
     <use style="fill:#9e0142;stroke:#000000;" x="1236.761858" xlink:href="#mb095317be1" y="903.560189"/>
    </g>
   </g>
   <g id="line2d_78">
    <g clip-path="url(#p3550a11f31)">
     <use style="fill:#9e0142;stroke:#000000;" x="1211.585043" xlink:href="#mb095317be1" y="713.237726"/>
    </g>
   </g>
   <g id="line2d_79">
    <g clip-path="url(#p3550a11f31)">
     <use style="fill:#9e0142;stroke:#000000;" x="1219.089778" xlink:href="#mb095317be1" y="716.113145"/>
    </g>
   </g>
   <g id="line2d_80">
    <g clip-path="url(#p3550a11f31)">
     <use style="fill:#9e0142;stroke:#000000;" x="1213.894534" xlink:href="#mb095317be1" y="713.303461"/>
    </g>
   </g>
   <g id="line2d_81">
    <g clip-path="url(#p3550a11f31)">
     <use style="fill:#9e0142;stroke:#000000;" x="1245.238322" xlink:href="#mb095317be1" y="903.525006"/>
    </g>
   </g>
   <g id="line2d_82">
    <g clip-path="url(#p3550a11f31)">
     <use style="fill:#9e0142;stroke:#000000;" x="1214.337586" xlink:href="#mb095317be1" y="715.582504"/>
    </g>
   </g>
   <g id="line2d_83">
    <g clip-path="url(#p3550a11f31)">
     <use style="fill:#9e0142;stroke:#000000;" x="1222.233278" xlink:href="#mb095317be1" y="713.300942"/>
    </g>
   </g>
   <g id="line2d_84">
    <g clip-path="url(#p3550a11f31)">
     <use style="fill:#9e0142;stroke:#000000;" x="1244.819946" xlink:href="#mb095317be1" y="903.600917"/>
    </g>
   </g>
   <g id="line2d_85">
    <g clip-path="url(#p3550a11f31)">
     <use style="fill:#9e0142;stroke:#000000;" x="1235.550502" xlink:href="#mb095317be1" y="903.775425"/>
    </g>
   </g>
   <g id="line2d_86">
    <g clip-path="url(#p3550a11f31)">
     <use style="fill:#9e0142;stroke:#000000;" x="1234.771241" xlink:href="#mb095317be1" y="903.694458"/>
    </g>
   </g>
   <g id="line2d_87">
    <g clip-path="url(#p3550a11f31)">
     <use style="fill:#9e0142;stroke:#000000;" x="1238.206909" xlink:href="#mb095317be1" y="903.741294"/>
    </g>
   </g>
   <g id="line2d_88">
    <g clip-path="url(#p3550a11f31)">
     <use style="fill:#9e0142;stroke:#000000;" x="1219.691209" xlink:href="#mb095317be1" y="715.308805"/>
    </g>
   </g>
   <g id="line2d_89">
    <g clip-path="url(#p3550a11f31)">
     <use style="fill:#ffffbe;stroke:#000000;" x="261.597532" xlink:href="#m4ad165f06b" y="306.244114"/>
    </g>
   </g>
   <g id="line2d_90">
    <g clip-path="url(#p3550a11f31)">
     <use style="fill:#9e0142;stroke:#000000;" x="1244.327758" xlink:href="#mb095317be1" y="903.466837"/>
    </g>
   </g>
   <g id="line2d_91">
    <g clip-path="url(#p3550a11f31)">
     <use style="fill:#9e0142;stroke:#000000;" x="1210.831361" xlink:href="#mb095317be1" y="714.114909"/>
    </g>
   </g>
   <g id="line2d_92">
    <g clip-path="url(#p3550a11f31)">
     <use style="fill:#9e0142;stroke:#000000;" x="1236.294871" xlink:href="#mb095317be1" y="903.573554"/>
    </g>
   </g>
   <g id="line2d_93">
    <g clip-path="url(#p3550a11f31)">
     <use style="fill:#ffffbe;stroke:#000000;" x="234.61053" xlink:href="#m4ad165f06b" y="226.418187"/>
    </g>
   </g>
   <g id="line2d_94">
    <g clip-path="url(#p3550a11f31)">
     <use style="fill:#9e0142;stroke:#000000;" x="1222.415533" xlink:href="#mb095317be1" y="715.259136"/>
    </g>
   </g>
   <g id="line2d_95">
    <g clip-path="url(#p3550a11f31)">
     <use style="fill:#9e0142;stroke:#000000;" x="1244.725066" xlink:href="#mb095317be1" y="903.760508"/>
    </g>
   </g>
   <g id="line2d_96">
    <g clip-path="url(#p3550a11f31)">
     <use style="fill:#9e0142;stroke:#000000;" x="1217.945047" xlink:href="#mb095317be1" y="714.606967"/>
    </g>
   </g>
   <g id="line2d_97">
    <g clip-path="url(#p3550a11f31)">
     <use style="fill:#9e0142;stroke:#000000;" x="1234.115136" xlink:href="#mb095317be1" y="903.668294"/>
    </g>
   </g>
   <g id="line2d_98">
    <g clip-path="url(#p3550a11f31)">
     <use style="fill:#9e0142;stroke:#000000;" x="1211.044978" xlink:href="#mb095317be1" y="713.297657"/>
    </g>
   </g>
   <g id="line2d_99">
    <g clip-path="url(#p3550a11f31)">
     <use style="fill:#9e0142;stroke:#000000;" x="1244.400843" xlink:href="#mb095317be1" y="903.612144"/>
    </g>
   </g>
   <g id="line2d_100">
    <g clip-path="url(#p3550a11f31)">
     <use style="fill:#9e0142;stroke:#000000;" x="1244.341147" xlink:href="#mb095317be1" y="903.584656"/>
    </g>
   </g>
   <g id="line2d_101">
    <g clip-path="url(#p3550a11f31)">
     <use style="fill:#9e0142;stroke:#000000;" x="1215.710165" xlink:href="#mb095317be1" y="715.862874"/>
    </g>
   </g>
   <g id="line2d_102">
    <g clip-path="url(#p3550a11f31)">
     <use style="fill:#ffffbe;stroke:#000000;" x="230.832906" xlink:href="#m4ad165f06b" y="233.140079"/>
    </g>
   </g>
   <g id="line2d_103">
    <g clip-path="url(#p3550a11f31)">
     <use style="fill:#9e0142;stroke:#000000;" x="1242.104381" xlink:href="#mb095317be1" y="903.590906"/>
    </g>
   </g>
   <g id="line2d_104">
    <g clip-path="url(#p3550a11f31)">
     <use style="fill:#9e0142;stroke:#000000;" x="1239.555646" xlink:href="#mb095317be1" y="903.76231"/>
    </g>
   </g>
   <g id="line2d_105">
    <g clip-path="url(#p3550a11f31)">
     <use style="fill:#9e0142;stroke:#000000;" x="1236.689928" xlink:href="#mb095317be1" y="903.468942"/>
    </g>
   </g>
   <g id="line2d_106">
    <g clip-path="url(#p3550a11f31)">
     <use style="fill:#9e0142;stroke:#000000;" x="1215.706461" xlink:href="#mb095317be1" y="714.416533"/>
    </g>
   </g>
   <g id="patch_3">
    <path d="M 180 1281.6 
L 180 172.8 
" style="fill:none;stroke:#000000;stroke-linecap:square;stroke-linejoin:miter;stroke-width:0.8;"/>
   </g>
   <g id="patch_4">
    <path d="M 1296 1281.6 
L 1296 172.8 
" style="fill:none;stroke:#000000;stroke-linecap:square;stroke-linejoin:miter;stroke-width:0.8;"/>
   </g>
   <g id="patch_5">
    <path d="M 180 1281.6 
L 1296 1281.6 
" style="fill:none;stroke:#000000;stroke-linecap:square;stroke-linejoin:miter;stroke-width:0.8;"/>
   </g>
   <g id="patch_6">
    <path d="M 180 172.8 
L 1296 172.8 
" style="fill:none;stroke:#000000;stroke-linecap:square;stroke-linejoin:miter;stroke-width:0.8;"/>
   </g>
  </g>
 </g>
 <defs>
  <clipPath id="p3550a11f31">
   <rect height="1108.8" width="1116" x="180" y="172.8"/>
  </clipPath>
 </defs>
</svg>
