<?xml version="1.0" encoding="utf-8" standalone="no"?>
<!DOCTYPE svg PUBLIC "-//W3C//DTD SVG 1.1//EN"
  "http://www.w3.org/Graphics/SVG/1.1/DTD/svg11.dtd">
<!-- Created with matplotlib (https://matplotlib.org/) -->
<svg height="1440pt" version="1.1" viewBox="0 0 1440 1440" width="1440pt" xmlns="http://www.w3.org/2000/svg" xmlns:xlink="http://www.w3.org/1999/xlink">
 <defs>
  <style type="text/css">
*{stroke-linecap:butt;stroke-linejoin:round;}
  </style>
 </defs>
 <g id="figure_1">
  <g id="patch_1">
   <path d="M 0 1440 
L 1440 1440 
L 1440 0 
L 0 0 
z
" style="fill:#ffffff;"/>
  </g>
  <g id="axes_1">
   <g id="patch_2">
    <path d="M 180 1281.6 
L 1296 1281.6 
L 1296 172.8 
L 180 172.8 
z
" style="fill:#ffffff;"/>
   </g>
   <g id="matplotlib.axis_1">
    <g id="xtick_1">
     <g id="line2d_1">
      <defs>
       <path d="M 0 0 
L 0 3.5 
" id="m7faf56db14" style="stroke:#000000;stroke-width:0.8;"/>
      </defs>
      <g>
       <use style="stroke:#000000;stroke-width:0.8;" x="289.104764" xlink:href="#m7faf56db14" y="1281.6"/>
      </g>
     </g>
     <g id="text_1">
      <!-- −0.2 -->
      <defs>
       <path d="M 10.59375 35.5 
L 73.1875 35.5 
L 73.1875 27.203125 
L 10.59375 27.203125 
z
" id="DejaVuSans-8722"/>
       <path d="M 31.78125 66.40625 
Q 24.171875 66.40625 20.328125 58.90625 
Q 16.5 51.421875 16.5 36.375 
Q 16.5 21.390625 20.328125 13.890625 
Q 24.171875 6.390625 31.78125 6.390625 
Q 39.453125 6.390625 43.28125 13.890625 
Q 47.125 21.390625 47.125 36.375 
Q 47.125 51.421875 43.28125 58.90625 
Q 39.453125 66.40625 31.78125 66.40625 
z
M 31.78125 74.21875 
Q 44.046875 74.21875 50.515625 64.515625 
Q 56.984375 54.828125 56.984375 36.375 
Q 56.984375 17.96875 50.515625 8.265625 
Q 44.046875 -1.421875 31.78125 -1.421875 
Q 19.53125 -1.421875 13.0625 8.265625 
Q 6.59375 17.96875 6.59375 36.375 
Q 6.59375 54.828125 13.0625 64.515625 
Q 19.53125 74.21875 31.78125 74.21875 
z
" id="DejaVuSans-48"/>
       <path d="M 10.6875 12.40625 
L 21 12.40625 
L 21 0 
L 10.6875 0 
z
" id="DejaVuSans-46"/>
       <path d="M 19.1875 8.296875 
L 53.609375 8.296875 
L 53.609375 0 
L 7.328125 0 
L 7.328125 8.296875 
Q 12.9375 14.109375 22.625 23.890625 
Q 32.328125 33.6875 34.8125 36.53125 
Q 39.546875 41.84375 41.421875 45.53125 
Q 43.3125 49.21875 43.3125 52.78125 
Q 43.3125 58.59375 39.234375 62.25 
Q 35.15625 65.921875 28.609375 65.921875 
Q 23.96875 65.921875 18.8125 64.3125 
Q 13.671875 62.703125 7.8125 59.421875 
L 7.8125 69.390625 
Q 13.765625 71.78125 18.9375 73 
Q 24.125 74.21875 28.421875 74.21875 
Q 39.75 74.21875 46.484375 68.546875 
Q 53.21875 62.890625 53.21875 53.421875 
Q 53.21875 48.921875 51.53125 44.890625 
Q 49.859375 40.875 45.40625 35.40625 
Q 44.1875 33.984375 37.640625 27.21875 
Q 31.109375 20.453125 19.1875 8.296875 
z
" id="DejaVuSans-50"/>
      </defs>
      <g transform="translate(276.963358 1296.198437)scale(0.1 -0.1)">
       <use xlink:href="#DejaVuSans-8722"/>
       <use x="83.789062" xlink:href="#DejaVuSans-48"/>
       <use x="147.412109" xlink:href="#DejaVuSans-46"/>
       <use x="179.199219" xlink:href="#DejaVuSans-50"/>
      </g>
     </g>
    </g>
    <g id="xtick_2">
     <g id="line2d_2">
      <g>
       <use style="stroke:#000000;stroke-width:0.8;" x="516.178038" xlink:href="#m7faf56db14" y="1281.6"/>
      </g>
     </g>
     <g id="text_2">
      <!-- −0.1 -->
      <defs>
       <path d="M 12.40625 8.296875 
L 28.515625 8.296875 
L 28.515625 63.921875 
L 10.984375 60.40625 
L 10.984375 69.390625 
L 28.421875 72.90625 
L 38.28125 72.90625 
L 38.28125 8.296875 
L 54.390625 8.296875 
L 54.390625 0 
L 12.40625 0 
z
" id="DejaVuSans-49"/>
      </defs>
      <g transform="translate(504.036632 1296.198437)scale(0.1 -0.1)">
       <use xlink:href="#DejaVuSans-8722"/>
       <use x="83.789062" xlink:href="#DejaVuSans-48"/>
       <use x="147.412109" xlink:href="#DejaVuSans-46"/>
       <use x="179.199219" xlink:href="#DejaVuSans-49"/>
      </g>
     </g>
    </g>
    <g id="xtick_3">
     <g id="line2d_3">
      <g>
       <use style="stroke:#000000;stroke-width:0.8;" x="743.251312" xlink:href="#m7faf56db14" y="1281.6"/>
      </g>
     </g>
     <g id="text_3">
      <!-- 0.0 -->
      <g transform="translate(735.299749 1296.198437)scale(0.1 -0.1)">
       <use xlink:href="#DejaVuSans-48"/>
       <use x="63.623047" xlink:href="#DejaVuSans-46"/>
       <use x="95.410156" xlink:href="#DejaVuSans-48"/>
      </g>
     </g>
    </g>
    <g id="xtick_4">
     <g id="line2d_4">
      <g>
       <use style="stroke:#000000;stroke-width:0.8;" x="970.324586" xlink:href="#m7faf56db14" y="1281.6"/>
      </g>
     </g>
     <g id="text_4">
      <!-- 0.1 -->
      <g transform="translate(962.373023 1296.198437)scale(0.1 -0.1)">
       <use xlink:href="#DejaVuSans-48"/>
       <use x="63.623047" xlink:href="#DejaVuSans-46"/>
       <use x="95.410156" xlink:href="#DejaVuSans-49"/>
      </g>
     </g>
    </g>
    <g id="xtick_5">
     <g id="line2d_5">
      <g>
       <use style="stroke:#000000;stroke-width:0.8;" x="1197.39786" xlink:href="#m7faf56db14" y="1281.6"/>
      </g>
     </g>
     <g id="text_5">
      <!-- 0.2 -->
      <g transform="translate(1189.446297 1296.198437)scale(0.1 -0.1)">
       <use xlink:href="#DejaVuSans-48"/>
       <use x="63.623047" xlink:href="#DejaVuSans-46"/>
       <use x="95.410156" xlink:href="#DejaVuSans-50"/>
      </g>
     </g>
    </g>
   </g>
   <g id="matplotlib.axis_2">
    <g id="ytick_1">
     <g id="line2d_6">
      <defs>
       <path d="M 0 0 
L -3.5 0 
" id="mfd0251a020" style="stroke:#000000;stroke-width:0.8;"/>
      </defs>
      <g>
       <use style="stroke:#000000;stroke-width:0.8;" x="180" xlink:href="#mfd0251a020" y="1234.987118"/>
      </g>
     </g>
     <g id="text_6">
      <!-- −0.2 -->
      <g transform="translate(148.717187 1238.786337)scale(0.1 -0.1)">
       <use xlink:href="#DejaVuSans-8722"/>
       <use x="83.789062" xlink:href="#DejaVuSans-48"/>
       <use x="147.412109" xlink:href="#DejaVuSans-46"/>
       <use x="179.199219" xlink:href="#DejaVuSans-50"/>
      </g>
     </g>
    </g>
    <g id="ytick_2">
     <g id="line2d_7">
      <g>
       <use style="stroke:#000000;stroke-width:0.8;" x="180" xlink:href="#mfd0251a020" y="1014.808737"/>
      </g>
     </g>
     <g id="text_7">
      <!-- −0.1 -->
      <g transform="translate(148.717187 1018.607956)scale(0.1 -0.1)">
       <use xlink:href="#DejaVuSans-8722"/>
       <use x="83.789062" xlink:href="#DejaVuSans-48"/>
       <use x="147.412109" xlink:href="#DejaVuSans-46"/>
       <use x="179.199219" xlink:href="#DejaVuSans-49"/>
      </g>
     </g>
    </g>
    <g id="ytick_3">
     <g id="line2d_8">
      <g>
       <use style="stroke:#000000;stroke-width:0.8;" x="180" xlink:href="#mfd0251a020" y="794.630356"/>
      </g>
     </g>
     <g id="text_8">
      <!-- 0.0 -->
      <g transform="translate(157.096875 798.429575)scale(0.1 -0.1)">
       <use xlink:href="#DejaVuSans-48"/>
       <use x="63.623047" xlink:href="#DejaVuSans-46"/>
       <use x="95.410156" xlink:href="#DejaVuSans-48"/>
      </g>
     </g>
    </g>
    <g id="ytick_4">
     <g id="line2d_9">
      <g>
       <use style="stroke:#000000;stroke-width:0.8;" x="180" xlink:href="#mfd0251a020" y="574.451975"/>
      </g>
     </g>
     <g id="text_9">
      <!-- 0.1 -->
      <g transform="translate(157.096875 578.251194)scale(0.1 -0.1)">
       <use xlink:href="#DejaVuSans-48"/>
       <use x="63.623047" xlink:href="#DejaVuSans-46"/>
       <use x="95.410156" xlink:href="#DejaVuSans-49"/>
      </g>
     </g>
    </g>
    <g id="ytick_5">
     <g id="line2d_10">
      <g>
       <use style="stroke:#000000;stroke-width:0.8;" x="180" xlink:href="#mfd0251a020" y="354.273594"/>
      </g>
     </g>
     <g id="text_10">
      <!-- 0.2 -->
      <g transform="translate(157.096875 358.072813)scale(0.1 -0.1)">
       <use xlink:href="#DejaVuSans-48"/>
       <use x="63.623047" xlink:href="#DejaVuSans-46"/>
       <use x="95.410156" xlink:href="#DejaVuSans-50"/>
      </g>
     </g>
    </g>
   </g>
   <g id="line2d_11">
    <defs>
     <path d="M 0 3 
C 0.795609 3 1.55874 2.683901 2.12132 2.12132 
C 2.683901 1.55874 3 0.795609 3 0 
C 3 -0.795609 2.683901 -1.55874 2.12132 -2.12132 
C 1.55874 -2.683901 0.795609 -3 0 -3 
C -0.795609 -3 -1.55874 -2.683901 -2.12132 -2.12132 
C -2.683901 -1.55874 -3 -0.795609 -3 0 
C -3 0.795609 -2.683901 1.55874 -2.12132 2.12132 
C -1.55874 2.683901 -0.795609 3 0 3 
z
" id="mac6b787fe2" style="stroke:#000000;"/>
    </defs>
    <g clip-path="url(#p94ca23381c)">
     <use style="stroke:#000000;" x="1010.903396" xlink:href="#mac6b787fe2" y="293.930353"/>
    </g>
   </g>
   <g id="line2d_12">
    <g clip-path="url(#p94ca23381c)">
     <use style="stroke:#000000;" x="1163.771329" xlink:href="#mac6b787fe2" y="1147.87566"/>
    </g>
   </g>
   <g id="line2d_13">
    <g clip-path="url(#p94ca23381c)">
     <use style="stroke:#000000;" x="1107.512575" xlink:href="#mac6b787fe2" y="943.539697"/>
    </g>
   </g>
   <g id="line2d_14">
    <g clip-path="url(#p94ca23381c)">
     <use style="stroke:#000000;" x="1010.686745" xlink:href="#mac6b787fe2" y="294.017172"/>
    </g>
   </g>
   <g id="line2d_15">
    <g clip-path="url(#p94ca23381c)">
     <use style="stroke:#000000;" x="1073.466112" xlink:href="#mac6b787fe2" y="866.513915"/>
    </g>
   </g>
   <g id="line2d_16">
    <g clip-path="url(#p94ca23381c)">
     <use style="stroke:#000000;" x="1194.519815" xlink:href="#mac6b787fe2" y="1049.536697"/>
    </g>
   </g>
   <g id="line2d_17">
    <g clip-path="url(#p94ca23381c)">
     <use style="stroke:#000000;" x="1099.229232" xlink:href="#mac6b787fe2" y="554.244907"/>
    </g>
   </g>
   <g id="line2d_18">
    <g clip-path="url(#p94ca23381c)">
     <use style="stroke:#000000;" x="1134.322946" xlink:href="#mac6b787fe2" y="380.539951"/>
    </g>
   </g>
   <g id="line2d_19">
    <g clip-path="url(#p94ca23381c)">
     <use style="stroke:#000000;" x="1134.008597" xlink:href="#mac6b787fe2" y="377.366243"/>
    </g>
   </g>
   <g id="line2d_20">
    <g clip-path="url(#p94ca23381c)">
     <use style="stroke:#000000;" x="1181.555274" xlink:href="#mac6b787fe2" y="1210.742907"/>
    </g>
   </g>
   <g id="line2d_21">
    <g clip-path="url(#p94ca23381c)">
     <use style="stroke:#000000;" x="1198.7127" xlink:href="#mac6b787fe2" y="781.18983"/>
    </g>
   </g>
   <g id="line2d_22">
    <g clip-path="url(#p94ca23381c)">
     <use style="stroke:#000000;" x="1128.879616" xlink:href="#mac6b787fe2" y="413.310081"/>
    </g>
   </g>
   <g id="line2d_23">
    <g clip-path="url(#p94ca23381c)">
     <use style="stroke:#000000;" x="1124.560595" xlink:href="#mac6b787fe2" y="380.883104"/>
    </g>
   </g>
   <g id="line2d_24">
    <g clip-path="url(#p94ca23381c)">
     <use style="stroke:#000000;" x="1110.821211" xlink:href="#mac6b787fe2" y="688.609467"/>
    </g>
   </g>
   <g id="line2d_25">
    <g clip-path="url(#p94ca23381c)">
     <use style="stroke:#000000;" x="1206.544873" xlink:href="#mac6b787fe2" y="1032.658918"/>
    </g>
   </g>
   <g id="line2d_26">
    <g clip-path="url(#p94ca23381c)">
     <use style="stroke:#000000;" x="1139.660455" xlink:href="#mac6b787fe2" y="382.188144"/>
    </g>
   </g>
   <g id="line2d_27">
    <g clip-path="url(#p94ca23381c)">
     <use style="stroke:#000000;" x="1004.266421" xlink:href="#mac6b787fe2" y="281.816389"/>
    </g>
   </g>
   <g id="line2d_28">
    <g clip-path="url(#p94ca23381c)">
     <use style="stroke:#000000;" x="996.936462" xlink:href="#mac6b787fe2" y="304.046746"/>
    </g>
   </g>
   <g id="line2d_29">
    <g clip-path="url(#p94ca23381c)">
     <use style="stroke:#000000;" x="1129.819448" xlink:href="#mac6b787fe2" y="367.942012"/>
    </g>
   </g>
   <g id="line2d_30">
    <g clip-path="url(#p94ca23381c)">
     <use style="stroke:#000000;" x="1120.008203" xlink:href="#mac6b787fe2" y="406.234981"/>
    </g>
   </g>
   <g id="line2d_31">
    <g clip-path="url(#p94ca23381c)">
     <use style="stroke:#000000;" x="998.536939" xlink:href="#mac6b787fe2" y="304.41555"/>
    </g>
   </g>
   <g id="line2d_32">
    <g clip-path="url(#p94ca23381c)">
     <use style="stroke:#000000;" x="1060.960229" xlink:href="#mac6b787fe2" y="426.392362"/>
    </g>
   </g>
   <g id="line2d_33">
    <g clip-path="url(#p94ca23381c)">
     <use style="stroke:#000000;" x="1239.433586" xlink:href="#mac6b787fe2" y="1219.788496"/>
    </g>
   </g>
   <g id="line2d_34">
    <g clip-path="url(#p94ca23381c)">
     <use style="stroke:#000000;" x="1126.074503" xlink:href="#mac6b787fe2" y="366.908066"/>
    </g>
   </g>
   <g id="line2d_35">
    <g clip-path="url(#p94ca23381c)">
     <use style="stroke:#000000;" x="1234.957581" xlink:href="#mac6b787fe2" y="1173.869132"/>
    </g>
   </g>
   <g id="line2d_36">
    <g clip-path="url(#p94ca23381c)">
     <use style="stroke:#000000;" x="1201.214481" xlink:href="#mac6b787fe2" y="1072.409961"/>
    </g>
   </g>
   <g id="line2d_37">
    <g clip-path="url(#p94ca23381c)">
     <use style="stroke:#000000;" x="1234.513992" xlink:href="#mac6b787fe2" y="1231.2"/>
    </g>
   </g>
   <g id="line2d_38">
    <g clip-path="url(#p94ca23381c)">
     <use style="stroke:#000000;" x="1234.034214" xlink:href="#mac6b787fe2" y="1179.721174"/>
    </g>
   </g>
   <g id="line2d_39">
    <g clip-path="url(#p94ca23381c)">
     <use style="stroke:#000000;" x="1239.910835" xlink:href="#mac6b787fe2" y="1224.722148"/>
    </g>
   </g>
   <g id="line2d_40">
    <g clip-path="url(#p94ca23381c)">
     <use style="stroke:#000000;" x="1036.038725" xlink:href="#mac6b787fe2" y="415.391747"/>
    </g>
   </g>
   <g id="line2d_41">
    <g clip-path="url(#p94ca23381c)">
     <use style="stroke:#000000;" x="230.727273" xlink:href="#mac6b787fe2" y="223.2"/>
    </g>
   </g>
   <g id="line2d_42">
    <g clip-path="url(#p94ca23381c)">
     <use style="stroke:#000000;" x="1245.272727" xlink:href="#mac6b787fe2" y="1223.537213"/>
    </g>
   </g>
   <g id="patch_3">
    <path d="M 180 1281.6 
L 180 172.8 
" style="fill:none;stroke:#000000;stroke-linecap:square;stroke-linejoin:miter;stroke-width:0.8;"/>
   </g>
   <g id="patch_4">
    <path d="M 1296 1281.6 
L 1296 172.8 
" style="fill:none;stroke:#000000;stroke-linecap:square;stroke-linejoin:miter;stroke-width:0.8;"/>
   </g>
   <g id="patch_5">
    <path d="M 180 1281.6 
L 1296 1281.6 
" style="fill:none;stroke:#000000;stroke-linecap:square;stroke-linejoin:miter;stroke-width:0.8;"/>
   </g>
   <g id="patch_6">
    <path d="M 180 172.8 
L 1296 172.8 
" style="fill:none;stroke:#000000;stroke-linecap:square;stroke-linejoin:miter;stroke-width:0.8;"/>
   </g>
  </g>
 </g>
 <defs>
  <clipPath id="p94ca23381c">
   <rect height="1108.8" width="1116" x="180" y="172.8"/>
  </clipPath>
 </defs>
</svg>
