<?xml version="1.0" encoding="utf-8" standalone="no"?>
<!DOCTYPE svg PUBLIC "-//W3C//DTD SVG 1.1//EN"
  "http://www.w3.org/Graphics/SVG/1.1/DTD/svg11.dtd">
<!-- Created with matplotlib (https://matplotlib.org/) -->
<svg height="1440pt" version="1.1" viewBox="0 0 1440 1440" width="1440pt" xmlns="http://www.w3.org/2000/svg" xmlns:xlink="http://www.w3.org/1999/xlink">
 <defs>
  <style type="text/css">
*{stroke-linecap:butt;stroke-linejoin:round;}
  </style>
 </defs>
 <g id="figure_1">
  <g id="patch_1">
   <path d="M 0 1440 
L 1440 1440 
L 1440 0 
L 0 0 
z
" style="fill:#ffffff;"/>
  </g>
  <g id="axes_1">
   <g id="patch_2">
    <path d="M 180 1281.6 
L 1296 1281.6 
L 1296 172.8 
L 180 172.8 
z
" style="fill:#ffffff;"/>
   </g>
   <g id="matplotlib.axis_1">
    <g id="xtick_1">
     <g id="line2d_1">
      <defs>
       <path d="M 0 0 
L 0 3.5 
" id="m96ea2d2801" style="stroke:#000000;stroke-width:0.8;"/>
      </defs>
      <g>
       <use style="stroke:#000000;stroke-width:0.8;" x="293.045139" xlink:href="#m96ea2d2801" y="1281.6"/>
      </g>
     </g>
     <g id="text_1">
      <!-- 0.00 -->
      <defs>
       <path d="M 31.78125 66.40625 
Q 24.171875 66.40625 20.328125 58.90625 
Q 16.5 51.421875 16.5 36.375 
Q 16.5 21.390625 20.328125 13.890625 
Q 24.171875 6.390625 31.78125 6.390625 
Q 39.453125 6.390625 43.28125 13.890625 
Q 47.125 21.390625 47.125 36.375 
Q 47.125 51.421875 43.28125 58.90625 
Q 39.453125 66.40625 31.78125 66.40625 
z
M 31.78125 74.21875 
Q 44.046875 74.21875 50.515625 64.515625 
Q 56.984375 54.828125 56.984375 36.375 
Q 56.984375 17.96875 50.515625 8.265625 
Q 44.046875 -1.421875 31.78125 -1.421875 
Q 19.53125 -1.421875 13.0625 8.265625 
Q 6.59375 17.96875 6.59375 36.375 
Q 6.59375 54.828125 13.0625 64.515625 
Q 19.53125 74.21875 31.78125 74.21875 
z
" id="DejaVuSans-48"/>
       <path d="M 10.6875 12.40625 
L 21 12.40625 
L 21 0 
L 10.6875 0 
z
" id="DejaVuSans-46"/>
      </defs>
      <g transform="translate(281.912327 1296.198437)scale(0.1 -0.1)">
       <use xlink:href="#DejaVuSans-48"/>
       <use x="63.623047" xlink:href="#DejaVuSans-46"/>
       <use x="95.410156" xlink:href="#DejaVuSans-48"/>
       <use x="159.033203" xlink:href="#DejaVuSans-48"/>
      </g>
     </g>
    </g>
    <g id="xtick_2">
     <g id="line2d_2">
      <g>
       <use style="stroke:#000000;stroke-width:0.8;" x="527.311002" xlink:href="#m96ea2d2801" y="1281.6"/>
      </g>
     </g>
     <g id="text_2">
      <!-- 0.05 -->
      <defs>
       <path d="M 10.796875 72.90625 
L 49.515625 72.90625 
L 49.515625 64.59375 
L 19.828125 64.59375 
L 19.828125 46.734375 
Q 21.96875 47.46875 24.109375 47.828125 
Q 26.265625 48.1875 28.421875 48.1875 
Q 40.625 48.1875 47.75 41.5 
Q 54.890625 34.8125 54.890625 23.390625 
Q 54.890625 11.625 47.5625 5.09375 
Q 40.234375 -1.421875 26.90625 -1.421875 
Q 22.3125 -1.421875 17.546875 -0.640625 
Q 12.796875 0.140625 7.71875 1.703125 
L 7.71875 11.625 
Q 12.109375 9.234375 16.796875 8.0625 
Q 21.484375 6.890625 26.703125 6.890625 
Q 35.15625 6.890625 40.078125 11.328125 
Q 45.015625 15.765625 45.015625 23.390625 
Q 45.015625 31 40.078125 35.4375 
Q 35.15625 39.890625 26.703125 39.890625 
Q 22.75 39.890625 18.8125 39.015625 
Q 14.890625 38.140625 10.796875 36.28125 
z
" id="DejaVuSans-53"/>
      </defs>
      <g transform="translate(516.17819 1296.198437)scale(0.1 -0.1)">
       <use xlink:href="#DejaVuSans-48"/>
       <use x="63.623047" xlink:href="#DejaVuSans-46"/>
       <use x="95.410156" xlink:href="#DejaVuSans-48"/>
       <use x="159.033203" xlink:href="#DejaVuSans-53"/>
      </g>
     </g>
    </g>
    <g id="xtick_3">
     <g id="line2d_3">
      <g>
       <use style="stroke:#000000;stroke-width:0.8;" x="761.576865" xlink:href="#m96ea2d2801" y="1281.6"/>
      </g>
     </g>
     <g id="text_3">
      <!-- 0.10 -->
      <defs>
       <path d="M 12.40625 8.296875 
L 28.515625 8.296875 
L 28.515625 63.921875 
L 10.984375 60.40625 
L 10.984375 69.390625 
L 28.421875 72.90625 
L 38.28125 72.90625 
L 38.28125 8.296875 
L 54.390625 8.296875 
L 54.390625 0 
L 12.40625 0 
z
" id="DejaVuSans-49"/>
      </defs>
      <g transform="translate(750.444052 1296.198437)scale(0.1 -0.1)">
       <use xlink:href="#DejaVuSans-48"/>
       <use x="63.623047" xlink:href="#DejaVuSans-46"/>
       <use x="95.410156" xlink:href="#DejaVuSans-49"/>
       <use x="159.033203" xlink:href="#DejaVuSans-48"/>
      </g>
     </g>
    </g>
    <g id="xtick_4">
     <g id="line2d_4">
      <g>
       <use style="stroke:#000000;stroke-width:0.8;" x="995.842728" xlink:href="#m96ea2d2801" y="1281.6"/>
      </g>
     </g>
     <g id="text_4">
      <!-- 0.15 -->
      <g transform="translate(984.709915 1296.198437)scale(0.1 -0.1)">
       <use xlink:href="#DejaVuSans-48"/>
       <use x="63.623047" xlink:href="#DejaVuSans-46"/>
       <use x="95.410156" xlink:href="#DejaVuSans-49"/>
       <use x="159.033203" xlink:href="#DejaVuSans-53"/>
      </g>
     </g>
    </g>
    <g id="xtick_5">
     <g id="line2d_5">
      <g>
       <use style="stroke:#000000;stroke-width:0.8;" x="1230.108591" xlink:href="#m96ea2d2801" y="1281.6"/>
      </g>
     </g>
     <g id="text_5">
      <!-- 0.20 -->
      <defs>
       <path d="M 19.1875 8.296875 
L 53.609375 8.296875 
L 53.609375 0 
L 7.328125 0 
L 7.328125 8.296875 
Q 12.9375 14.109375 22.625 23.890625 
Q 32.328125 33.6875 34.8125 36.53125 
Q 39.546875 41.84375 41.421875 45.53125 
Q 43.3125 49.21875 43.3125 52.78125 
Q 43.3125 58.59375 39.234375 62.25 
Q 35.15625 65.921875 28.609375 65.921875 
Q 23.96875 65.921875 18.8125 64.3125 
Q 13.671875 62.703125 7.8125 59.421875 
L 7.8125 69.390625 
Q 13.765625 71.78125 18.9375 73 
Q 24.125 74.21875 28.421875 74.21875 
Q 39.75 74.21875 46.484375 68.546875 
Q 53.21875 62.890625 53.21875 53.421875 
Q 53.21875 48.921875 51.53125 44.890625 
Q 49.859375 40.875 45.40625 35.40625 
Q 44.1875 33.984375 37.640625 27.21875 
Q 31.109375 20.453125 19.1875 8.296875 
z
" id="DejaVuSans-50"/>
      </defs>
      <g transform="translate(1218.975778 1296.198437)scale(0.1 -0.1)">
       <use xlink:href="#DejaVuSans-48"/>
       <use x="63.623047" xlink:href="#DejaVuSans-46"/>
       <use x="95.410156" xlink:href="#DejaVuSans-50"/>
       <use x="159.033203" xlink:href="#DejaVuSans-48"/>
      </g>
     </g>
    </g>
   </g>
   <g id="matplotlib.axis_2">
    <g id="ytick_1">
     <g id="line2d_6">
      <defs>
       <path d="M 0 0 
L -3.5 0 
" id="me867f1cbb8" style="stroke:#000000;stroke-width:0.8;"/>
      </defs>
      <g>
       <use style="stroke:#000000;stroke-width:0.8;" x="180" xlink:href="#me867f1cbb8" y="1160.002494"/>
      </g>
     </g>
     <g id="text_6">
      <!-- −0.3 -->
      <defs>
       <path d="M 10.59375 35.5 
L 73.1875 35.5 
L 73.1875 27.203125 
L 10.59375 27.203125 
z
" id="DejaVuSans-8722"/>
       <path d="M 40.578125 39.3125 
Q 47.65625 37.796875 51.625 33 
Q 55.609375 28.21875 55.609375 21.1875 
Q 55.609375 10.40625 48.1875 4.484375 
Q 40.765625 -1.421875 27.09375 -1.421875 
Q 22.515625 -1.421875 17.65625 -0.515625 
Q 12.796875 0.390625 7.625 2.203125 
L 7.625 11.71875 
Q 11.71875 9.328125 16.59375 8.109375 
Q 21.484375 6.890625 26.8125 6.890625 
Q 36.078125 6.890625 40.9375 10.546875 
Q 45.796875 14.203125 45.796875 21.1875 
Q 45.796875 27.640625 41.28125 31.265625 
Q 36.765625 34.90625 28.71875 34.90625 
L 20.21875 34.90625 
L 20.21875 43.015625 
L 29.109375 43.015625 
Q 36.375 43.015625 40.234375 45.921875 
Q 44.09375 48.828125 44.09375 54.296875 
Q 44.09375 59.90625 40.109375 62.90625 
Q 36.140625 65.921875 28.71875 65.921875 
Q 24.65625 65.921875 20.015625 65.03125 
Q 15.375 64.15625 9.8125 62.3125 
L 9.8125 71.09375 
Q 15.4375 72.65625 20.34375 73.4375 
Q 25.25 74.21875 29.59375 74.21875 
Q 40.828125 74.21875 47.359375 69.109375 
Q 53.90625 64.015625 53.90625 55.328125 
Q 53.90625 49.265625 50.4375 45.09375 
Q 46.96875 40.921875 40.578125 39.3125 
z
" id="DejaVuSans-51"/>
      </defs>
      <g transform="translate(148.717187 1163.801712)scale(0.1 -0.1)">
       <use xlink:href="#DejaVuSans-8722"/>
       <use x="83.789062" xlink:href="#DejaVuSans-48"/>
       <use x="147.412109" xlink:href="#DejaVuSans-46"/>
       <use x="179.199219" xlink:href="#DejaVuSans-51"/>
      </g>
     </g>
    </g>
    <g id="ytick_2">
     <g id="line2d_7">
      <g>
       <use style="stroke:#000000;stroke-width:0.8;" x="180" xlink:href="#me867f1cbb8" y="976.514507"/>
      </g>
     </g>
     <g id="text_7">
      <!-- −0.2 -->
      <g transform="translate(148.717187 980.313725)scale(0.1 -0.1)">
       <use xlink:href="#DejaVuSans-8722"/>
       <use x="83.789062" xlink:href="#DejaVuSans-48"/>
       <use x="147.412109" xlink:href="#DejaVuSans-46"/>
       <use x="179.199219" xlink:href="#DejaVuSans-50"/>
      </g>
     </g>
    </g>
    <g id="ytick_3">
     <g id="line2d_8">
      <g>
       <use style="stroke:#000000;stroke-width:0.8;" x="180" xlink:href="#me867f1cbb8" y="793.02652"/>
      </g>
     </g>
     <g id="text_8">
      <!-- −0.1 -->
      <g transform="translate(148.717187 796.825739)scale(0.1 -0.1)">
       <use xlink:href="#DejaVuSans-8722"/>
       <use x="83.789062" xlink:href="#DejaVuSans-48"/>
       <use x="147.412109" xlink:href="#DejaVuSans-46"/>
       <use x="179.199219" xlink:href="#DejaVuSans-49"/>
      </g>
     </g>
    </g>
    <g id="ytick_4">
     <g id="line2d_9">
      <g>
       <use style="stroke:#000000;stroke-width:0.8;" x="180" xlink:href="#me867f1cbb8" y="609.538533"/>
      </g>
     </g>
     <g id="text_9">
      <!-- 0.0 -->
      <g transform="translate(157.096875 613.337752)scale(0.1 -0.1)">
       <use xlink:href="#DejaVuSans-48"/>
       <use x="63.623047" xlink:href="#DejaVuSans-46"/>
       <use x="95.410156" xlink:href="#DejaVuSans-48"/>
      </g>
     </g>
    </g>
    <g id="ytick_5">
     <g id="line2d_10">
      <g>
       <use style="stroke:#000000;stroke-width:0.8;" x="180" xlink:href="#me867f1cbb8" y="426.050546"/>
      </g>
     </g>
     <g id="text_10">
      <!-- 0.1 -->
      <g transform="translate(157.096875 429.849765)scale(0.1 -0.1)">
       <use xlink:href="#DejaVuSans-48"/>
       <use x="63.623047" xlink:href="#DejaVuSans-46"/>
       <use x="95.410156" xlink:href="#DejaVuSans-49"/>
      </g>
     </g>
    </g>
    <g id="ytick_6">
     <g id="line2d_11">
      <g>
       <use style="stroke:#000000;stroke-width:0.8;" x="180" xlink:href="#me867f1cbb8" y="242.562559"/>
      </g>
     </g>
     <g id="text_11">
      <!-- 0.2 -->
      <g transform="translate(157.096875 246.361778)scale(0.1 -0.1)">
       <use xlink:href="#DejaVuSans-48"/>
       <use x="63.623047" xlink:href="#DejaVuSans-46"/>
       <use x="95.410156" xlink:href="#DejaVuSans-50"/>
      </g>
     </g>
    </g>
   </g>
   <g id="line2d_12">
    <defs>
     <path d="M 0 9 
C 2.386828 9 4.676219 8.051703 6.363961 6.363961 
C 8.051703 4.676219 9 2.386828 9 0 
C 9 -2.386828 8.051703 -4.676219 6.363961 -6.363961 
C 4.676219 -8.051703 2.386828 -9 0 -9 
C -2.386828 -9 -4.676219 -8.051703 -6.363961 -6.363961 
C -8.051703 -4.676219 -9 -2.386828 -9 0 
C -9 2.386828 -8.051703 4.676219 -6.363961 6.363961 
C -4.676219 8.051703 -2.386828 9 0 9 
z
" id="m7bd1cc2e00" style="stroke:#000000;"/>
    </defs>
    <g clip-path="url(#p9474f90f16)">
     <use style="fill:#9e0142;stroke:#000000;" x="1228.840763" xlink:href="#m7bd1cc2e00" y="499.917897"/>
    </g>
   </g>
   <g id="line2d_13">
    <defs>
     <path d="M 0 9 
C 2.386828 9 4.676219 8.051703 6.363961 6.363961 
C 8.051703 4.676219 9 2.386828 9 0 
C 9 -2.386828 8.051703 -4.676219 6.363961 -6.363961 
C 4.676219 -8.051703 2.386828 -9 0 -9 
C -2.386828 -9 -4.676219 -8.051703 -6.363961 -6.363961 
C -8.051703 -4.676219 -9 -2.386828 -9 0 
C -9 2.386828 -8.051703 4.676219 -6.363961 6.363961 
C -4.676219 8.051703 -2.386828 9 0 9 
z
" id="m35b53e00d9" style="stroke:#000000;"/>
    </defs>
    <g clip-path="url(#p9474f90f16)">
     <use style="fill:#ffffbe;stroke:#000000;" x="909.139294" xlink:href="#m35b53e00d9" y="1221.325193"/>
    </g>
   </g>
   <g id="line2d_14">
    <defs>
     <path d="M 0 3 
C 0.795609 3 1.55874 2.683901 2.12132 2.12132 
C 2.683901 1.55874 3 0.795609 3 0 
C 3 -0.795609 2.683901 -1.55874 2.12132 -2.12132 
C 1.55874 -2.683901 0.795609 -3 0 -3 
C -0.795609 -3 -1.55874 -2.683901 -2.12132 -2.12132 
C -2.683901 -1.55874 -3 -0.795609 -3 0 
C -3 0.795609 -2.683901 1.55874 -2.12132 2.12132 
C -1.55874 2.683901 -0.795609 3 0 3 
z
" id="mcea163fb63" style="stroke:#000000;"/>
    </defs>
    <g clip-path="url(#p9474f90f16)">
     <use style="stroke:#000000;" x="527.438009" xlink:href="#mcea163fb63" y="368.331313"/>
    </g>
   </g>
   <g id="line2d_15">
    <g clip-path="url(#p9474f90f16)">
     <use style="fill:#9e0142;stroke:#000000;" x="1231.017286" xlink:href="#m7bd1cc2e00" y="499.360653"/>
    </g>
   </g>
   <g id="line2d_16">
    <g clip-path="url(#p9474f90f16)">
     <use style="stroke:#000000;" x="267.579673" xlink:href="#mcea163fb63" y="223.2"/>
    </g>
   </g>
   <g id="line2d_17">
    <g clip-path="url(#p9474f90f16)">
     <use style="stroke:#000000;" x="1043.13937" xlink:href="#mcea163fb63" y="407.539619"/>
    </g>
   </g>
   <g id="line2d_18">
    <g clip-path="url(#p9474f90f16)">
     <use style="fill:#9e0142;stroke:#000000;" x="1222.326936" xlink:href="#m7bd1cc2e00" y="500.018492"/>
    </g>
   </g>
   <g id="line2d_19">
    <g clip-path="url(#p9474f90f16)">
     <use style="fill:#9e0142;stroke:#000000;" x="1227.147658" xlink:href="#m7bd1cc2e00" y="499.545291"/>
    </g>
   </g>
   <g id="line2d_20">
    <g clip-path="url(#p9474f90f16)">
     <use style="stroke:#000000;" x="878.20182" xlink:href="#mcea163fb63" y="539.807714"/>
    </g>
   </g>
   <g id="line2d_21">
    <g clip-path="url(#p9474f90f16)">
     <use style="fill:#9e0142;stroke:#000000;" x="1238.055604" xlink:href="#m7bd1cc2e00" y="498.389193"/>
    </g>
   </g>
   <g id="line2d_22">
    <g clip-path="url(#p9474f90f16)">
     <use style="fill:#ffffbe;stroke:#000000;" x="812.722331" xlink:href="#m35b53e00d9" y="1206.315626"/>
    </g>
   </g>
   <g id="line2d_23">
    <g clip-path="url(#p9474f90f16)">
     <use style="fill:#ffffbe;stroke:#000000;" x="909.91068" xlink:href="#m35b53e00d9" y="1228.058337"/>
    </g>
   </g>
   <g id="line2d_24">
    <g clip-path="url(#p9474f90f16)">
     <use style="fill:#9e0142;stroke:#000000;" x="1227.622315" xlink:href="#m7bd1cc2e00" y="498.886519"/>
    </g>
   </g>
   <g id="line2d_25">
    <g clip-path="url(#p9474f90f16)">
     <use style="fill:#9e0142;stroke:#000000;" x="1234.806552" xlink:href="#m7bd1cc2e00" y="500.084056"/>
    </g>
   </g>
   <g id="line2d_26">
    <g clip-path="url(#p9474f90f16)">
     <use style="fill:#9e0142;stroke:#000000;" x="1238.125186" xlink:href="#m7bd1cc2e00" y="500.007438"/>
    </g>
   </g>
   <g id="line2d_27">
    <g clip-path="url(#p9474f90f16)">
     <use style="stroke:#000000;" x="1080.320752" xlink:href="#mcea163fb63" y="537.157673"/>
    </g>
   </g>
   <g id="line2d_28">
    <g clip-path="url(#p9474f90f16)">
     <use style="fill:#ffffbe;stroke:#000000;" x="909.565581" xlink:href="#m35b53e00d9" y="1231.2"/>
    </g>
   </g>
   <g id="line2d_29">
    <g clip-path="url(#p9474f90f16)">
     <use style="stroke:#000000;" x="606.663548" xlink:href="#mcea163fb63" y="268.62194"/>
    </g>
   </g>
   <g id="line2d_30">
    <g clip-path="url(#p9474f90f16)">
     <use style="fill:#ffffbe;stroke:#000000;" x="916.836071" xlink:href="#m35b53e00d9" y="1221.763242"/>
    </g>
   </g>
   <g id="line2d_31">
    <g clip-path="url(#p9474f90f16)">
     <use style="fill:#ffffbe;stroke:#000000;" x="917.411941" xlink:href="#m35b53e00d9" y="1230.666603"/>
    </g>
   </g>
   <g id="line2d_32">
    <g clip-path="url(#p9474f90f16)">
     <use style="fill:#9e0142;stroke:#000000;" x="1239.842711" xlink:href="#m7bd1cc2e00" y="499.927685"/>
    </g>
   </g>
   <g id="line2d_33">
    <g clip-path="url(#p9474f90f16)">
     <use style="fill:#9e0142;stroke:#000000;" x="1236.073793" xlink:href="#m7bd1cc2e00" y="500.088321"/>
    </g>
   </g>
   <g id="line2d_34">
    <g clip-path="url(#p9474f90f16)">
     <use style="fill:#9e0142;stroke:#000000;" x="1226.20784" xlink:href="#m7bd1cc2e00" y="499.189242"/>
    </g>
   </g>
   <g id="line2d_35">
    <g clip-path="url(#p9474f90f16)">
     <use style="stroke:#000000;" x="230.727273" xlink:href="#mcea163fb63" y="807.891331"/>
    </g>
   </g>
   <g id="line2d_36">
    <g clip-path="url(#p9474f90f16)">
     <use style="stroke:#000000;" x="1074.241722" xlink:href="#mcea163fb63" y="535.998276"/>
    </g>
   </g>
   <g id="line2d_37">
    <g clip-path="url(#p9474f90f16)">
     <use style="fill:#9e0142;stroke:#000000;" x="1245.272727" xlink:href="#m7bd1cc2e00" y="494.670805"/>
    </g>
   </g>
   <g id="line2d_38">
    <g clip-path="url(#p9474f90f16)">
     <use style="fill:#9e0142;stroke:#000000;" x="1229.938978" xlink:href="#m7bd1cc2e00" y="500.473549"/>
    </g>
   </g>
   <g id="line2d_39">
    <g clip-path="url(#p9474f90f16)">
     <use style="fill:#9e0142;stroke:#000000;" x="1233.507836" xlink:href="#m7bd1cc2e00" y="498.64675"/>
    </g>
   </g>
   <g id="line2d_40">
    <g clip-path="url(#p9474f90f16)">
     <use style="fill:#9e0142;stroke:#000000;" x="1226.06526" xlink:href="#m7bd1cc2e00" y="499.65551"/>
    </g>
   </g>
   <g id="line2d_41">
    <g clip-path="url(#p9474f90f16)">
     <use style="fill:#9e0142;stroke:#000000;" x="1225.221152" xlink:href="#m7bd1cc2e00" y="499.314771"/>
    </g>
   </g>
   <g id="line2d_42">
    <g clip-path="url(#p9474f90f16)">
     <use style="fill:#9e0142;stroke:#000000;" x="1207.445233" xlink:href="#m7bd1cc2e00" y="510.503309"/>
    </g>
   </g>
   <g id="line2d_43">
    <g clip-path="url(#p9474f90f16)">
     <use style="fill:#9e0142;stroke:#000000;" x="1232.777037" xlink:href="#m7bd1cc2e00" y="498.321308"/>
    </g>
   </g>
   <g id="line2d_44">
    <g clip-path="url(#p9474f90f16)">
     <use style="fill:#9e0142;stroke:#000000;" x="1231.521447" xlink:href="#m7bd1cc2e00" y="499.22803"/>
    </g>
   </g>
   <g id="line2d_45">
    <g clip-path="url(#p9474f90f16)">
     <use style="fill:#ffffbe;stroke:#000000;" x="913.246572" xlink:href="#m35b53e00d9" y="1229.877277"/>
    </g>
   </g>
   <g id="line2d_46">
    <g clip-path="url(#p9474f90f16)">
     <use style="stroke:#000000;" x="887.735897" xlink:href="#mcea163fb63" y="315.669314"/>
    </g>
   </g>
   <g id="patch_3">
    <path d="M 180 1281.6 
L 180 172.8 
" style="fill:none;stroke:#000000;stroke-linecap:square;stroke-linejoin:miter;stroke-width:0.8;"/>
   </g>
   <g id="patch_4">
    <path d="M 1296 1281.6 
L 1296 172.8 
" style="fill:none;stroke:#000000;stroke-linecap:square;stroke-linejoin:miter;stroke-width:0.8;"/>
   </g>
   <g id="patch_5">
    <path d="M 180 1281.6 
L 1296 1281.6 
" style="fill:none;stroke:#000000;stroke-linecap:square;stroke-linejoin:miter;stroke-width:0.8;"/>
   </g>
   <g id="patch_6">
    <path d="M 180 172.8 
L 1296 172.8 
" style="fill:none;stroke:#000000;stroke-linecap:square;stroke-linejoin:miter;stroke-width:0.8;"/>
   </g>
  </g>
 </g>
 <defs>
  <clipPath id="p9474f90f16">
   <rect height="1108.8" width="1116" x="180" y="172.8"/>
  </clipPath>
 </defs>
</svg>
