<?xml version="1.0" encoding="utf-8" standalone="no"?>
<!DOCTYPE svg PUBLIC "-//W3C//DTD SVG 1.1//EN"
  "http://www.w3.org/Graphics/SVG/1.1/DTD/svg11.dtd">
<!-- Created with matplotlib (https://matplotlib.org/) -->
<svg height="1440pt" version="1.1" viewBox="0 0 1440 1440" width="1440pt" xmlns="http://www.w3.org/2000/svg" xmlns:xlink="http://www.w3.org/1999/xlink">
 <defs>
  <style type="text/css">
*{stroke-linecap:butt;stroke-linejoin:round;}
  </style>
 </defs>
 <g id="figure_1">
  <g id="patch_1">
   <path d="M 0 1440 
L 1440 1440 
L 1440 0 
L 0 0 
z
" style="fill:#ffffff;"/>
  </g>
  <g id="axes_1">
   <g id="patch_2">
    <path d="M 180 1281.6 
L 1296 1281.6 
L 1296 172.8 
L 180 172.8 
z
" style="fill:#ffffff;"/>
   </g>
   <g id="matplotlib.axis_1">
    <g id="xtick_1">
     <g id="line2d_1">
      <defs>
       <path d="M 0 0 
L 0 3.5 
" id="me5c4386825" style="stroke:#000000;stroke-width:0.8;"/>
      </defs>
      <g>
       <use style="stroke:#000000;stroke-width:0.8;" x="368.793892" xlink:href="#me5c4386825" y="1281.6"/>
      </g>
     </g>
     <g id="text_1">
      <!-- −0.05 -->
      <defs>
       <path d="M 10.59375 35.5 
L 73.1875 35.5 
L 73.1875 27.203125 
L 10.59375 27.203125 
z
" id="DejaVuSans-8722"/>
       <path d="M 31.78125 66.40625 
Q 24.171875 66.40625 20.328125 58.90625 
Q 16.5 51.421875 16.5 36.375 
Q 16.5 21.390625 20.328125 13.890625 
Q 24.171875 6.390625 31.78125 6.390625 
Q 39.453125 6.390625 43.28125 13.890625 
Q 47.125 21.390625 47.125 36.375 
Q 47.125 51.421875 43.28125 58.90625 
Q 39.453125 66.40625 31.78125 66.40625 
z
M 31.78125 74.21875 
Q 44.046875 74.21875 50.515625 64.515625 
Q 56.984375 54.828125 56.984375 36.375 
Q 56.984375 17.96875 50.515625 8.265625 
Q 44.046875 -1.421875 31.78125 -1.421875 
Q 19.53125 -1.421875 13.0625 8.265625 
Q 6.59375 17.96875 6.59375 36.375 
Q 6.59375 54.828125 13.0625 64.515625 
Q 19.53125 74.21875 31.78125 74.21875 
z
" id="DejaVuSans-48"/>
       <path d="M 10.6875 12.40625 
L 21 12.40625 
L 21 0 
L 10.6875 0 
z
" id="DejaVuSans-46"/>
       <path d="M 10.796875 72.90625 
L 49.515625 72.90625 
L 49.515625 64.59375 
L 19.828125 64.59375 
L 19.828125 46.734375 
Q 21.96875 47.46875 24.109375 47.828125 
Q 26.265625 48.1875 28.421875 48.1875 
Q 40.625 48.1875 47.75 41.5 
Q 54.890625 34.8125 54.890625 23.390625 
Q 54.890625 11.625 47.5625 5.09375 
Q 40.234375 -1.421875 26.90625 -1.421875 
Q 22.3125 -1.421875 17.546875 -0.640625 
Q 12.796875 0.140625 7.71875 1.703125 
L 7.71875 11.625 
Q 12.109375 9.234375 16.796875 8.0625 
Q 21.484375 6.890625 26.703125 6.890625 
Q 35.15625 6.890625 40.078125 11.328125 
Q 45.015625 15.765625 45.015625 23.390625 
Q 45.015625 31 40.078125 35.4375 
Q 35.15625 39.890625 26.703125 39.890625 
Q 22.75 39.890625 18.8125 39.015625 
Q 14.890625 38.140625 10.796875 36.28125 
z
" id="DejaVuSans-53"/>
      </defs>
      <g transform="translate(353.471235 1296.198437)scale(0.1 -0.1)">
       <use xlink:href="#DejaVuSans-8722"/>
       <use x="83.789062" xlink:href="#DejaVuSans-48"/>
       <use x="147.412109" xlink:href="#DejaVuSans-46"/>
       <use x="179.199219" xlink:href="#DejaVuSans-48"/>
       <use x="242.822266" xlink:href="#DejaVuSans-53"/>
      </g>
     </g>
    </g>
    <g id="xtick_2">
     <g id="line2d_2">
      <g>
       <use style="stroke:#000000;stroke-width:0.8;" x="564.588105" xlink:href="#me5c4386825" y="1281.6"/>
      </g>
     </g>
     <g id="text_2">
      <!-- 0.00 -->
      <g transform="translate(553.455292 1296.198437)scale(0.1 -0.1)">
       <use xlink:href="#DejaVuSans-48"/>
       <use x="63.623047" xlink:href="#DejaVuSans-46"/>
       <use x="95.410156" xlink:href="#DejaVuSans-48"/>
       <use x="159.033203" xlink:href="#DejaVuSans-48"/>
      </g>
     </g>
    </g>
    <g id="xtick_3">
     <g id="line2d_3">
      <g>
       <use style="stroke:#000000;stroke-width:0.8;" x="760.382318" xlink:href="#me5c4386825" y="1281.6"/>
      </g>
     </g>
     <g id="text_3">
      <!-- 0.05 -->
      <g transform="translate(749.249505 1296.198437)scale(0.1 -0.1)">
       <use xlink:href="#DejaVuSans-48"/>
       <use x="63.623047" xlink:href="#DejaVuSans-46"/>
       <use x="95.410156" xlink:href="#DejaVuSans-48"/>
       <use x="159.033203" xlink:href="#DejaVuSans-53"/>
      </g>
     </g>
    </g>
    <g id="xtick_4">
     <g id="line2d_4">
      <g>
       <use style="stroke:#000000;stroke-width:0.8;" x="956.176531" xlink:href="#me5c4386825" y="1281.6"/>
      </g>
     </g>
     <g id="text_4">
      <!-- 0.10 -->
      <defs>
       <path d="M 12.40625 8.296875 
L 28.515625 8.296875 
L 28.515625 63.921875 
L 10.984375 60.40625 
L 10.984375 69.390625 
L 28.421875 72.90625 
L 38.28125 72.90625 
L 38.28125 8.296875 
L 54.390625 8.296875 
L 54.390625 0 
L 12.40625 0 
z
" id="DejaVuSans-49"/>
      </defs>
      <g transform="translate(945.043719 1296.198437)scale(0.1 -0.1)">
       <use xlink:href="#DejaVuSans-48"/>
       <use x="63.623047" xlink:href="#DejaVuSans-46"/>
       <use x="95.410156" xlink:href="#DejaVuSans-49"/>
       <use x="159.033203" xlink:href="#DejaVuSans-48"/>
      </g>
     </g>
    </g>
    <g id="xtick_5">
     <g id="line2d_5">
      <g>
       <use style="stroke:#000000;stroke-width:0.8;" x="1151.970744" xlink:href="#me5c4386825" y="1281.6"/>
      </g>
     </g>
     <g id="text_5">
      <!-- 0.15 -->
      <g transform="translate(1140.837932 1296.198437)scale(0.1 -0.1)">
       <use xlink:href="#DejaVuSans-48"/>
       <use x="63.623047" xlink:href="#DejaVuSans-46"/>
       <use x="95.410156" xlink:href="#DejaVuSans-49"/>
       <use x="159.033203" xlink:href="#DejaVuSans-53"/>
      </g>
     </g>
    </g>
   </g>
   <g id="matplotlib.axis_2">
    <g id="ytick_1">
     <g id="line2d_6">
      <defs>
       <path d="M 0 0 
L -3.5 0 
" id="m668e2bef06" style="stroke:#000000;stroke-width:0.8;"/>
      </defs>
      <g>
       <use style="stroke:#000000;stroke-width:0.8;" x="180" xlink:href="#m668e2bef06" y="1125.282169"/>
      </g>
     </g>
     <g id="text_6">
      <!-- −0.05 -->
      <g transform="translate(142.354688 1129.081387)scale(0.1 -0.1)">
       <use xlink:href="#DejaVuSans-8722"/>
       <use x="83.789062" xlink:href="#DejaVuSans-48"/>
       <use x="147.412109" xlink:href="#DejaVuSans-46"/>
       <use x="179.199219" xlink:href="#DejaVuSans-48"/>
       <use x="242.822266" xlink:href="#DejaVuSans-53"/>
      </g>
     </g>
    </g>
    <g id="ytick_2">
     <g id="line2d_7">
      <g>
       <use style="stroke:#000000;stroke-width:0.8;" x="180" xlink:href="#m668e2bef06" y="926.913576"/>
      </g>
     </g>
     <g id="text_7">
      <!-- 0.00 -->
      <g transform="translate(150.734375 930.712794)scale(0.1 -0.1)">
       <use xlink:href="#DejaVuSans-48"/>
       <use x="63.623047" xlink:href="#DejaVuSans-46"/>
       <use x="95.410156" xlink:href="#DejaVuSans-48"/>
       <use x="159.033203" xlink:href="#DejaVuSans-48"/>
      </g>
     </g>
    </g>
    <g id="ytick_3">
     <g id="line2d_8">
      <g>
       <use style="stroke:#000000;stroke-width:0.8;" x="180" xlink:href="#m668e2bef06" y="728.544983"/>
      </g>
     </g>
     <g id="text_8">
      <!-- 0.05 -->
      <g transform="translate(150.734375 732.344201)scale(0.1 -0.1)">
       <use xlink:href="#DejaVuSans-48"/>
       <use x="63.623047" xlink:href="#DejaVuSans-46"/>
       <use x="95.410156" xlink:href="#DejaVuSans-48"/>
       <use x="159.033203" xlink:href="#DejaVuSans-53"/>
      </g>
     </g>
    </g>
    <g id="ytick_4">
     <g id="line2d_9">
      <g>
       <use style="stroke:#000000;stroke-width:0.8;" x="180" xlink:href="#m668e2bef06" y="530.17639"/>
      </g>
     </g>
     <g id="text_9">
      <!-- 0.10 -->
      <g transform="translate(150.734375 533.975608)scale(0.1 -0.1)">
       <use xlink:href="#DejaVuSans-48"/>
       <use x="63.623047" xlink:href="#DejaVuSans-46"/>
       <use x="95.410156" xlink:href="#DejaVuSans-49"/>
       <use x="159.033203" xlink:href="#DejaVuSans-48"/>
      </g>
     </g>
    </g>
    <g id="ytick_5">
     <g id="line2d_10">
      <g>
       <use style="stroke:#000000;stroke-width:0.8;" x="180" xlink:href="#m668e2bef06" y="331.807797"/>
      </g>
     </g>
     <g id="text_10">
      <!-- 0.15 -->
      <g transform="translate(150.734375 335.607015)scale(0.1 -0.1)">
       <use xlink:href="#DejaVuSans-48"/>
       <use x="63.623047" xlink:href="#DejaVuSans-46"/>
       <use x="95.410156" xlink:href="#DejaVuSans-49"/>
       <use x="159.033203" xlink:href="#DejaVuSans-53"/>
      </g>
     </g>
    </g>
   </g>
   <g id="line2d_11">
    <defs>
     <path d="M 0 9 
C 2.386828 9 4.676219 8.051703 6.363961 6.363961 
C 8.051703 4.676219 9 2.386828 9 0 
C 9 -2.386828 8.051703 -4.676219 6.363961 -6.363961 
C 4.676219 -8.051703 2.386828 -9 0 -9 
C -2.386828 -9 -4.676219 -8.051703 -6.363961 -6.363961 
C -8.051703 -4.676219 -9 -2.386828 -9 0 
C -9 2.386828 -8.051703 4.676219 -6.363961 6.363961 
C -4.676219 8.051703 -2.386828 9 0 9 
z
" id="mef89cce74e" style="stroke:#000000;"/>
    </defs>
    <g clip-path="url(#pada388ab66)">
     <use style="fill:#9e0142;stroke:#000000;" x="782.410088" xlink:href="#mef89cce74e" y="223.2"/>
    </g>
   </g>
   <g id="line2d_12">
    <g clip-path="url(#pada388ab66)">
     <use style="fill:#9e0142;stroke:#000000;" x="782.695292" xlink:href="#mef89cce74e" y="227.490226"/>
    </g>
   </g>
   <g id="line2d_13">
    <g clip-path="url(#pada388ab66)">
     <use style="fill:#9e0142;stroke:#000000;" x="784.799803" xlink:href="#mef89cce74e" y="228.575987"/>
    </g>
   </g>
   <g id="line2d_14">
    <g clip-path="url(#pada388ab66)">
     <use style="fill:#9e0142;stroke:#000000;" x="783.501427" xlink:href="#mef89cce74e" y="227.080248"/>
    </g>
   </g>
   <g id="line2d_15">
    <g clip-path="url(#pada388ab66)">
     <use style="fill:#9e0142;stroke:#000000;" x="782.974234" xlink:href="#mef89cce74e" y="227.397762"/>
    </g>
   </g>
   <g id="line2d_16">
    <defs>
     <path d="M 0 9 
C 2.386828 9 4.676219 8.051703 6.363961 6.363961 
C 8.051703 4.676219 9 2.386828 9 0 
C 9 -2.386828 8.051703 -4.676219 6.363961 -6.363961 
C 4.676219 -8.051703 2.386828 -9 0 -9 
C -2.386828 -9 -4.676219 -8.051703 -6.363961 -6.363961 
C -8.051703 -4.676219 -9 -2.386828 -9 0 
C -9 2.386828 -8.051703 4.676219 -6.363961 6.363961 
C -4.676219 8.051703 -2.386828 9 0 9 
z
" id="m8e1ae8ad3b" style="stroke:#000000;"/>
    </defs>
    <g clip-path="url(#pada388ab66)">
     <use style="fill:#ffffbe;stroke:#000000;" x="1240.687685" xlink:href="#m8e1ae8ad3b" y="1126.110368"/>
    </g>
   </g>
   <g id="line2d_17">
    <g clip-path="url(#pada388ab66)">
     <use style="fill:#9e0142;stroke:#000000;" x="784.0242" xlink:href="#mef89cce74e" y="234.449983"/>
    </g>
   </g>
   <g id="line2d_18">
    <defs>
     <path d="M 0 3 
C 0.795609 3 1.55874 2.683901 2.12132 2.12132 
C 2.683901 1.55874 3 0.795609 3 0 
C 3 -0.795609 2.683901 -1.55874 2.12132 -2.12132 
C 1.55874 -2.683901 0.795609 -3 0 -3 
C -0.795609 -3 -1.55874 -2.683901 -2.12132 -2.12132 
C -2.683901 -1.55874 -3 -0.795609 -3 0 
C -3 0.795609 -2.683901 1.55874 -2.12132 2.12132 
C -1.55874 2.683901 -0.795609 3 0 3 
z
" id="m659f0ade11" style="stroke:#000000;"/>
    </defs>
    <g clip-path="url(#pada388ab66)">
     <use style="stroke:#000000;" x="772.491626" xlink:href="#m659f0ade11" y="507.839764"/>
    </g>
   </g>
   <g id="line2d_19">
    <g clip-path="url(#pada388ab66)">
     <use style="fill:#ffffbe;stroke:#000000;" x="1242.391526" xlink:href="#m8e1ae8ad3b" y="1128.444573"/>
    </g>
   </g>
   <g id="line2d_20">
    <g clip-path="url(#pada388ab66)">
     <use style="fill:#ffffbe;stroke:#000000;" x="1245.23223" xlink:href="#m8e1ae8ad3b" y="1125.521585"/>
    </g>
   </g>
   <g id="line2d_21">
    <g clip-path="url(#pada388ab66)">
     <use style="fill:#9e0142;stroke:#000000;" x="786.533652" xlink:href="#mef89cce74e" y="225.173255"/>
    </g>
   </g>
   <g id="line2d_22">
    <g clip-path="url(#pada388ab66)">
     <use style="fill:#9e0142;stroke:#000000;" x="782.527393" xlink:href="#mef89cce74e" y="227.170269"/>
    </g>
   </g>
   <g id="line2d_23">
    <g clip-path="url(#pada388ab66)">
     <use style="fill:#9e0142;stroke:#000000;" x="784.176764" xlink:href="#mef89cce74e" y="225.49111"/>
    </g>
   </g>
   <g id="line2d_24">
    <g clip-path="url(#pada388ab66)">
     <use style="fill:#9e0142;stroke:#000000;" x="784.493702" xlink:href="#mef89cce74e" y="233.941119"/>
    </g>
   </g>
   <g id="line2d_25">
    <g clip-path="url(#pada388ab66)">
     <use style="fill:#9e0142;stroke:#000000;" x="782.471747" xlink:href="#mef89cce74e" y="229.630051"/>
    </g>
   </g>
   <g id="line2d_26">
    <g clip-path="url(#pada388ab66)">
     <use style="stroke:#000000;" x="627.335242" xlink:href="#m659f0ade11" y="314.224928"/>
    </g>
   </g>
   <g id="line2d_27">
    <g clip-path="url(#pada388ab66)">
     <use style="fill:#9e0142;stroke:#000000;" x="785.185597" xlink:href="#mef89cce74e" y="232.568885"/>
    </g>
   </g>
   <g id="line2d_28">
    <g clip-path="url(#pada388ab66)">
     <use style="fill:#ffffbe;stroke:#000000;" x="1235.24054" xlink:href="#m8e1ae8ad3b" y="1126.279298"/>
    </g>
   </g>
   <g id="line2d_29">
    <g clip-path="url(#pada388ab66)">
     <use style="fill:#9e0142;stroke:#000000;" x="785.264025" xlink:href="#mef89cce74e" y="223.524424"/>
    </g>
   </g>
   <g id="line2d_30">
    <g clip-path="url(#pada388ab66)">
     <use style="fill:#ffffbe;stroke:#000000;" x="1236.152939" xlink:href="#m8e1ae8ad3b" y="1125.120381"/>
    </g>
   </g>
   <g id="line2d_31">
    <g clip-path="url(#pada388ab66)">
     <use style="fill:#9e0142;stroke:#000000;" x="782.684145" xlink:href="#mef89cce74e" y="224.059322"/>
    </g>
   </g>
   <g id="line2d_32">
    <g clip-path="url(#pada388ab66)">
     <use style="stroke:#000000;" x="1046.311952" xlink:href="#m659f0ade11" y="1231.2"/>
    </g>
   </g>
   <g id="line2d_33">
    <g clip-path="url(#pada388ab66)">
     <use style="fill:#ffffbe;stroke:#000000;" x="1238.70934" xlink:href="#m8e1ae8ad3b" y="1128.339707"/>
    </g>
   </g>
   <g id="line2d_34">
    <g clip-path="url(#pada388ab66)">
     <use style="stroke:#000000;" x="230.727273" xlink:href="#m659f0ade11" y="512.887607"/>
    </g>
   </g>
   <g id="line2d_35">
    <g clip-path="url(#pada388ab66)">
     <use style="fill:#9e0142;stroke:#000000;" x="783.720354" xlink:href="#mef89cce74e" y="227.758691"/>
    </g>
   </g>
   <g id="line2d_36">
    <g clip-path="url(#pada388ab66)">
     <use style="fill:#ffffbe;stroke:#000000;" x="1245.272727" xlink:href="#m8e1ae8ad3b" y="1128.11654"/>
    </g>
   </g>
   <g id="line2d_37">
    <g clip-path="url(#pada388ab66)">
     <use style="fill:#ffffbe;stroke:#000000;" x="1235.409599" xlink:href="#m8e1ae8ad3b" y="1126.978956"/>
    </g>
   </g>
   <g id="line2d_38">
    <g clip-path="url(#pada388ab66)">
     <use style="fill:#ffffbe;stroke:#000000;" x="1242.269393" xlink:href="#m8e1ae8ad3b" y="1128.113628"/>
    </g>
   </g>
   <g id="line2d_39">
    <g clip-path="url(#pada388ab66)">
     <use style="stroke:#000000;" x="231.731769" xlink:href="#m659f0ade11" y="813.532778"/>
    </g>
   </g>
   <g id="line2d_40">
    <g clip-path="url(#pada388ab66)">
     <use style="fill:#ffffbe;stroke:#000000;" x="1241.683442" xlink:href="#m8e1ae8ad3b" y="1125.016414"/>
    </g>
   </g>
   <g id="line2d_41">
    <g clip-path="url(#pada388ab66)">
     <use style="fill:#ffffbe;stroke:#000000;" x="1238.067715" xlink:href="#m8e1ae8ad3b" y="1127.126183"/>
    </g>
   </g>
   <g id="line2d_42">
    <g clip-path="url(#pada388ab66)">
     <use style="fill:#ffffbe;stroke:#000000;" x="1241.082031" xlink:href="#m8e1ae8ad3b" y="1126.388905"/>
    </g>
   </g>
   <g id="line2d_43">
    <g clip-path="url(#pada388ab66)">
     <use style="fill:#ffffbe;stroke:#000000;" x="1238.030366" xlink:href="#m8e1ae8ad3b" y="1128.417293"/>
    </g>
   </g>
   <g id="line2d_44">
    <g clip-path="url(#pada388ab66)">
     <use style="stroke:#000000;" x="613.919988" xlink:href="#m659f0ade11" y="909.457542"/>
    </g>
   </g>
   <g id="line2d_45">
    <g clip-path="url(#pada388ab66)">
     <use style="fill:#ffffbe;stroke:#000000;" x="1240.364519" xlink:href="#m8e1ae8ad3b" y="1128.523281"/>
    </g>
   </g>
   <g id="line2d_46">
    <g clip-path="url(#pada388ab66)">
     <use style="fill:#ffffbe;stroke:#000000;" x="1235.841566" xlink:href="#m8e1ae8ad3b" y="1125.467721"/>
    </g>
   </g>
   <g id="line2d_47">
    <g clip-path="url(#pada388ab66)">
     <use style="fill:#ffffbe;stroke:#000000;" x="1240.080823" xlink:href="#m8e1ae8ad3b" y="1126.214371"/>
    </g>
   </g>
   <g id="line2d_48">
    <g clip-path="url(#pada388ab66)">
     <use style="fill:#9e0142;stroke:#000000;" x="784.628593" xlink:href="#mef89cce74e" y="227.2262"/>
    </g>
   </g>
   <g id="line2d_49">
    <g clip-path="url(#pada388ab66)">
     <use style="fill:#ffffbe;stroke:#000000;" x="1236.04318" xlink:href="#m8e1ae8ad3b" y="1125.488052"/>
    </g>
   </g>
   <g id="line2d_50">
    <g clip-path="url(#pada388ab66)">
     <use style="fill:#ffffbe;stroke:#000000;" x="1236.197002" xlink:href="#m8e1ae8ad3b" y="1126.601958"/>
    </g>
   </g>
   <g id="line2d_51">
    <g clip-path="url(#pada388ab66)">
     <use style="fill:#ffffbe;stroke:#000000;" x="1244.117494" xlink:href="#m8e1ae8ad3b" y="1127.511309"/>
    </g>
   </g>
   <g id="line2d_52">
    <g clip-path="url(#pada388ab66)">
     <use style="fill:#ffffbe;stroke:#000000;" x="1235.365644" xlink:href="#m8e1ae8ad3b" y="1125.057034"/>
    </g>
   </g>
   <g id="line2d_53">
    <g clip-path="url(#pada388ab66)">
     <use style="fill:#ffffbe;stroke:#000000;" x="1240.183248" xlink:href="#m8e1ae8ad3b" y="1124.85244"/>
    </g>
   </g>
   <g id="line2d_54">
    <g clip-path="url(#pada388ab66)">
     <use style="fill:#ffffbe;stroke:#000000;" x="1087.590263" xlink:href="#m8e1ae8ad3b" y="1220.144015"/>
    </g>
   </g>
   <g id="line2d_55">
    <g clip-path="url(#pada388ab66)">
     <use style="fill:#9e0142;stroke:#000000;" x="782.388913" xlink:href="#mef89cce74e" y="229.469344"/>
    </g>
   </g>
   <g id="line2d_56">
    <g clip-path="url(#pada388ab66)">
     <use style="fill:#ffffbe;stroke:#000000;" x="1235.181246" xlink:href="#m8e1ae8ad3b" y="1128.151039"/>
    </g>
   </g>
   <g id="line2d_57">
    <g clip-path="url(#pada388ab66)">
     <use style="fill:#9e0142;stroke:#000000;" x="785.597791" xlink:href="#mef89cce74e" y="228.616436"/>
    </g>
   </g>
   <g id="line2d_58">
    <g clip-path="url(#pada388ab66)">
     <use style="fill:#ffffbe;stroke:#000000;" x="1234.847719" xlink:href="#m8e1ae8ad3b" y="1125.237684"/>
    </g>
   </g>
   <g id="line2d_59">
    <g clip-path="url(#pada388ab66)">
     <use style="fill:#9e0142;stroke:#000000;" x="785.068564" xlink:href="#mef89cce74e" y="224.186449"/>
    </g>
   </g>
   <g id="line2d_60">
    <g clip-path="url(#pada388ab66)">
     <use style="fill:#9e0142;stroke:#000000;" x="783.621373" xlink:href="#mef89cce74e" y="228.962134"/>
    </g>
   </g>
   <g id="line2d_61">
    <g clip-path="url(#pada388ab66)">
     <use style="fill:#ffffbe;stroke:#000000;" x="1242.551103" xlink:href="#m8e1ae8ad3b" y="1128.567743"/>
    </g>
   </g>
   <g id="line2d_62">
    <g clip-path="url(#pada388ab66)">
     <use style="fill:#ffffbe;stroke:#000000;" x="1242.042999" xlink:href="#m8e1ae8ad3b" y="1127.327051"/>
    </g>
   </g>
   <g id="line2d_63">
    <g clip-path="url(#pada388ab66)">
     <use style="stroke:#000000;" x="1221.449931" xlink:href="#m659f0ade11" y="1183.923432"/>
    </g>
   </g>
   <g id="line2d_64">
    <g clip-path="url(#pada388ab66)">
     <use style="fill:#ffffbe;stroke:#000000;" x="1238.608171" xlink:href="#m8e1ae8ad3b" y="1126.7707"/>
    </g>
   </g>
   <g id="line2d_65">
    <g clip-path="url(#pada388ab66)">
     <use style="fill:#9e0142;stroke:#000000;" x="785.38896" xlink:href="#mef89cce74e" y="232.554597"/>
    </g>
   </g>
   <g id="line2d_66">
    <g clip-path="url(#pada388ab66)">
     <use style="fill:#9e0142;stroke:#000000;" x="786.169237" xlink:href="#mef89cce74e" y="226.099215"/>
    </g>
   </g>
   <g id="line2d_67">
    <g clip-path="url(#pada388ab66)">
     <use style="fill:#9e0142;stroke:#000000;" x="785.623692" xlink:href="#mef89cce74e" y="235.726437"/>
    </g>
   </g>
   <g id="line2d_68">
    <g clip-path="url(#pada388ab66)">
     <use style="fill:#9e0142;stroke:#000000;" x="785.689085" xlink:href="#mef89cce74e" y="225.762381"/>
    </g>
   </g>
   <g id="line2d_69">
    <g clip-path="url(#pada388ab66)">
     <use style="fill:#9e0142;stroke:#000000;" x="786.53037" xlink:href="#mef89cce74e" y="232.017095"/>
    </g>
   </g>
   <g id="line2d_70">
    <g clip-path="url(#pada388ab66)">
     <use style="fill:#9e0142;stroke:#000000;" x="782.616223" xlink:href="#mef89cce74e" y="235.282928"/>
    </g>
   </g>
   <g id="line2d_71">
    <g clip-path="url(#pada388ab66)">
     <use style="fill:#9e0142;stroke:#000000;" x="785.006154" xlink:href="#mef89cce74e" y="232.416232"/>
    </g>
   </g>
   <g id="line2d_72">
    <g clip-path="url(#pada388ab66)">
     <use style="fill:#ffffbe;stroke:#000000;" x="1238.288234" xlink:href="#m8e1ae8ad3b" y="1128.37962"/>
    </g>
   </g>
   <g id="line2d_73">
    <g clip-path="url(#pada388ab66)">
     <use style="fill:#9e0142;stroke:#000000;" x="784.174324" xlink:href="#mef89cce74e" y="232.279424"/>
    </g>
   </g>
   <g id="line2d_74">
    <g clip-path="url(#pada388ab66)">
     <use style="fill:#ffffbe;stroke:#000000;" x="1241.430369" xlink:href="#m8e1ae8ad3b" y="1128.41127"/>
    </g>
   </g>
   <g id="patch_3">
    <path d="M 180 1281.6 
L 180 172.8 
" style="fill:none;stroke:#000000;stroke-linecap:square;stroke-linejoin:miter;stroke-width:0.8;"/>
   </g>
   <g id="patch_4">
    <path d="M 1296 1281.6 
L 1296 172.8 
" style="fill:none;stroke:#000000;stroke-linecap:square;stroke-linejoin:miter;stroke-width:0.8;"/>
   </g>
   <g id="patch_5">
    <path d="M 180 1281.6 
L 1296 1281.6 
" style="fill:none;stroke:#000000;stroke-linecap:square;stroke-linejoin:miter;stroke-width:0.8;"/>
   </g>
   <g id="patch_6">
    <path d="M 180 172.8 
L 1296 172.8 
" style="fill:none;stroke:#000000;stroke-linecap:square;stroke-linejoin:miter;stroke-width:0.8;"/>
   </g>
  </g>
 </g>
 <defs>
  <clipPath id="pada388ab66">
   <rect height="1108.8" width="1116" x="180" y="172.8"/>
  </clipPath>
 </defs>
</svg>
