<?xml version="1.0" encoding="utf-8" standalone="no"?>
<!DOCTYPE svg PUBLIC "-//W3C//DTD SVG 1.1//EN"
  "http://www.w3.org/Graphics/SVG/1.1/DTD/svg11.dtd">
<!-- Created with matplotlib (https://matplotlib.org/) -->
<svg height="1440pt" version="1.1" viewBox="0 0 1440 1440" width="1440pt" xmlns="http://www.w3.org/2000/svg" xmlns:xlink="http://www.w3.org/1999/xlink">
 <defs>
  <style type="text/css">
*{stroke-linecap:butt;stroke-linejoin:round;}
  </style>
 </defs>
 <g id="figure_1">
  <g id="patch_1">
   <path d="M 0 1440 
L 1440 1440 
L 1440 0 
L 0 0 
z
" style="fill:#ffffff;"/>
  </g>
  <g id="axes_1">
   <g id="patch_2">
    <path d="M 180 1281.6 
L 1296 1281.6 
L 1296 172.8 
L 180 172.8 
z
" style="fill:#ffffff;"/>
   </g>
   <g id="matplotlib.axis_1">
    <g id="xtick_1">
     <g id="line2d_1">
      <defs>
       <path d="M 0 0 
L 0 3.5 
" id="ma08b1b303d" style="stroke:#000000;stroke-width:0.8;"/>
      </defs>
      <g>
       <use style="stroke:#000000;stroke-width:0.8;" x="308.820442" xlink:href="#ma08b1b303d" y="1281.6"/>
      </g>
     </g>
     <g id="text_1">
      <!-- −0.05 -->
      <defs>
       <path d="M 10.59375 35.5 
L 73.1875 35.5 
L 73.1875 27.203125 
L 10.59375 27.203125 
z
" id="DejaVuSans-8722"/>
       <path d="M 31.78125 66.40625 
Q 24.171875 66.40625 20.328125 58.90625 
Q 16.5 51.421875 16.5 36.375 
Q 16.5 21.390625 20.328125 13.890625 
Q 24.171875 6.390625 31.78125 6.390625 
Q 39.453125 6.390625 43.28125 13.890625 
Q 47.125 21.390625 47.125 36.375 
Q 47.125 51.421875 43.28125 58.90625 
Q 39.453125 66.40625 31.78125 66.40625 
z
M 31.78125 74.21875 
Q 44.046875 74.21875 50.515625 64.515625 
Q 56.984375 54.828125 56.984375 36.375 
Q 56.984375 17.96875 50.515625 8.265625 
Q 44.046875 -1.421875 31.78125 -1.421875 
Q 19.53125 -1.421875 13.0625 8.265625 
Q 6.59375 17.96875 6.59375 36.375 
Q 6.59375 54.828125 13.0625 64.515625 
Q 19.53125 74.21875 31.78125 74.21875 
z
" id="DejaVuSans-48"/>
       <path d="M 10.6875 12.40625 
L 21 12.40625 
L 21 0 
L 10.6875 0 
z
" id="DejaVuSans-46"/>
       <path d="M 10.796875 72.90625 
L 49.515625 72.90625 
L 49.515625 64.59375 
L 19.828125 64.59375 
L 19.828125 46.734375 
Q 21.96875 47.46875 24.109375 47.828125 
Q 26.265625 48.1875 28.421875 48.1875 
Q 40.625 48.1875 47.75 41.5 
Q 54.890625 34.8125 54.890625 23.390625 
Q 54.890625 11.625 47.5625 5.09375 
Q 40.234375 -1.421875 26.90625 -1.421875 
Q 22.3125 -1.421875 17.546875 -0.640625 
Q 12.796875 0.140625 7.71875 1.703125 
L 7.71875 11.625 
Q 12.109375 9.234375 16.796875 8.0625 
Q 21.484375 6.890625 26.703125 6.890625 
Q 35.15625 6.890625 40.078125 11.328125 
Q 45.015625 15.765625 45.015625 23.390625 
Q 45.015625 31 40.078125 35.4375 
Q 35.15625 39.890625 26.703125 39.890625 
Q 22.75 39.890625 18.8125 39.015625 
Q 14.890625 38.140625 10.796875 36.28125 
z
" id="DejaVuSans-53"/>
      </defs>
      <g transform="translate(293.497786 1296.198437)scale(0.1 -0.1)">
       <use xlink:href="#DejaVuSans-8722"/>
       <use x="83.789062" xlink:href="#DejaVuSans-48"/>
       <use x="147.412109" xlink:href="#DejaVuSans-46"/>
       <use x="179.199219" xlink:href="#DejaVuSans-48"/>
       <use x="242.822266" xlink:href="#DejaVuSans-53"/>
      </g>
     </g>
    </g>
    <g id="xtick_2">
     <g id="line2d_2">
      <g>
       <use style="stroke:#000000;stroke-width:0.8;" x="498.696857" xlink:href="#ma08b1b303d" y="1281.6"/>
      </g>
     </g>
     <g id="text_2">
      <!-- 0.00 -->
      <g transform="translate(487.564044 1296.198437)scale(0.1 -0.1)">
       <use xlink:href="#DejaVuSans-48"/>
       <use x="63.623047" xlink:href="#DejaVuSans-46"/>
       <use x="95.410156" xlink:href="#DejaVuSans-48"/>
       <use x="159.033203" xlink:href="#DejaVuSans-48"/>
      </g>
     </g>
    </g>
    <g id="xtick_3">
     <g id="line2d_3">
      <g>
       <use style="stroke:#000000;stroke-width:0.8;" x="688.573272" xlink:href="#ma08b1b303d" y="1281.6"/>
      </g>
     </g>
     <g id="text_3">
      <!-- 0.05 -->
      <g transform="translate(677.440459 1296.198437)scale(0.1 -0.1)">
       <use xlink:href="#DejaVuSans-48"/>
       <use x="63.623047" xlink:href="#DejaVuSans-46"/>
       <use x="95.410156" xlink:href="#DejaVuSans-48"/>
       <use x="159.033203" xlink:href="#DejaVuSans-53"/>
      </g>
     </g>
    </g>
    <g id="xtick_4">
     <g id="line2d_4">
      <g>
       <use style="stroke:#000000;stroke-width:0.8;" x="878.449687" xlink:href="#ma08b1b303d" y="1281.6"/>
      </g>
     </g>
     <g id="text_4">
      <!-- 0.10 -->
      <defs>
       <path d="M 12.40625 8.296875 
L 28.515625 8.296875 
L 28.515625 63.921875 
L 10.984375 60.40625 
L 10.984375 69.390625 
L 28.421875 72.90625 
L 38.28125 72.90625 
L 38.28125 8.296875 
L 54.390625 8.296875 
L 54.390625 0 
L 12.40625 0 
z
" id="DejaVuSans-49"/>
      </defs>
      <g transform="translate(867.316874 1296.198437)scale(0.1 -0.1)">
       <use xlink:href="#DejaVuSans-48"/>
       <use x="63.623047" xlink:href="#DejaVuSans-46"/>
       <use x="95.410156" xlink:href="#DejaVuSans-49"/>
       <use x="159.033203" xlink:href="#DejaVuSans-48"/>
      </g>
     </g>
    </g>
    <g id="xtick_5">
     <g id="line2d_5">
      <g>
       <use style="stroke:#000000;stroke-width:0.8;" x="1068.326102" xlink:href="#ma08b1b303d" y="1281.6"/>
      </g>
     </g>
     <g id="text_5">
      <!-- 0.15 -->
      <g transform="translate(1057.193289 1296.198437)scale(0.1 -0.1)">
       <use xlink:href="#DejaVuSans-48"/>
       <use x="63.623047" xlink:href="#DejaVuSans-46"/>
       <use x="95.410156" xlink:href="#DejaVuSans-49"/>
       <use x="159.033203" xlink:href="#DejaVuSans-53"/>
      </g>
     </g>
    </g>
    <g id="xtick_6">
     <g id="line2d_6">
      <g>
       <use style="stroke:#000000;stroke-width:0.8;" x="1258.202517" xlink:href="#ma08b1b303d" y="1281.6"/>
      </g>
     </g>
     <g id="text_6">
      <!-- 0.20 -->
      <defs>
       <path d="M 19.1875 8.296875 
L 53.609375 8.296875 
L 53.609375 0 
L 7.328125 0 
L 7.328125 8.296875 
Q 12.9375 14.109375 22.625 23.890625 
Q 32.328125 33.6875 34.8125 36.53125 
Q 39.546875 41.84375 41.421875 45.53125 
Q 43.3125 49.21875 43.3125 52.78125 
Q 43.3125 58.59375 39.234375 62.25 
Q 35.15625 65.921875 28.609375 65.921875 
Q 23.96875 65.921875 18.8125 64.3125 
Q 13.671875 62.703125 7.8125 59.421875 
L 7.8125 69.390625 
Q 13.765625 71.78125 18.9375 73 
Q 24.125 74.21875 28.421875 74.21875 
Q 39.75 74.21875 46.484375 68.546875 
Q 53.21875 62.890625 53.21875 53.421875 
Q 53.21875 48.921875 51.53125 44.890625 
Q 49.859375 40.875 45.40625 35.40625 
Q 44.1875 33.984375 37.640625 27.21875 
Q 31.109375 20.453125 19.1875 8.296875 
z
" id="DejaVuSans-50"/>
      </defs>
      <g transform="translate(1247.069704 1296.198437)scale(0.1 -0.1)">
       <use xlink:href="#DejaVuSans-48"/>
       <use x="63.623047" xlink:href="#DejaVuSans-46"/>
       <use x="95.410156" xlink:href="#DejaVuSans-50"/>
       <use x="159.033203" xlink:href="#DejaVuSans-48"/>
      </g>
     </g>
    </g>
   </g>
   <g id="matplotlib.axis_2">
    <g id="ytick_1">
     <g id="line2d_7">
      <defs>
       <path d="M 0 0 
L -3.5 0 
" id="m9c63fd912e" style="stroke:#000000;stroke-width:0.8;"/>
      </defs>
      <g>
       <use style="stroke:#000000;stroke-width:0.8;" x="180" xlink:href="#m9c63fd912e" y="1175.884165"/>
      </g>
     </g>
     <g id="text_7">
      <!-- −0.2 -->
      <g transform="translate(148.717187 1179.683384)scale(0.1 -0.1)">
       <use xlink:href="#DejaVuSans-8722"/>
       <use x="83.789062" xlink:href="#DejaVuSans-48"/>
       <use x="147.412109" xlink:href="#DejaVuSans-46"/>
       <use x="179.199219" xlink:href="#DejaVuSans-50"/>
      </g>
     </g>
    </g>
    <g id="ytick_2">
     <g id="line2d_8">
      <g>
       <use style="stroke:#000000;stroke-width:0.8;" x="180" xlink:href="#m9c63fd912e" y="937.405073"/>
      </g>
     </g>
     <g id="text_8">
      <!-- −0.1 -->
      <g transform="translate(148.717187 941.204292)scale(0.1 -0.1)">
       <use xlink:href="#DejaVuSans-8722"/>
       <use x="83.789062" xlink:href="#DejaVuSans-48"/>
       <use x="147.412109" xlink:href="#DejaVuSans-46"/>
       <use x="179.199219" xlink:href="#DejaVuSans-49"/>
      </g>
     </g>
    </g>
    <g id="ytick_3">
     <g id="line2d_9">
      <g>
       <use style="stroke:#000000;stroke-width:0.8;" x="180" xlink:href="#m9c63fd912e" y="698.92598"/>
      </g>
     </g>
     <g id="text_9">
      <!-- 0.0 -->
      <g transform="translate(157.096875 702.725199)scale(0.1 -0.1)">
       <use xlink:href="#DejaVuSans-48"/>
       <use x="63.623047" xlink:href="#DejaVuSans-46"/>
       <use x="95.410156" xlink:href="#DejaVuSans-48"/>
      </g>
     </g>
    </g>
    <g id="ytick_4">
     <g id="line2d_10">
      <g>
       <use style="stroke:#000000;stroke-width:0.8;" x="180" xlink:href="#m9c63fd912e" y="460.446888"/>
      </g>
     </g>
     <g id="text_10">
      <!-- 0.1 -->
      <g transform="translate(157.096875 464.246107)scale(0.1 -0.1)">
       <use xlink:href="#DejaVuSans-48"/>
       <use x="63.623047" xlink:href="#DejaVuSans-46"/>
       <use x="95.410156" xlink:href="#DejaVuSans-49"/>
      </g>
     </g>
    </g>
    <g id="ytick_5">
     <g id="line2d_11">
      <g>
       <use style="stroke:#000000;stroke-width:0.8;" x="180" xlink:href="#m9c63fd912e" y="221.967795"/>
      </g>
     </g>
     <g id="text_11">
      <!-- 0.2 -->
      <g transform="translate(157.096875 225.767014)scale(0.1 -0.1)">
       <use xlink:href="#DejaVuSans-48"/>
       <use x="63.623047" xlink:href="#DejaVuSans-46"/>
       <use x="95.410156" xlink:href="#DejaVuSans-50"/>
      </g>
     </g>
    </g>
   </g>
   <g id="line2d_12">
    <defs>
     <path d="M 0 3 
C 0.795609 3 1.55874 2.683901 2.12132 2.12132 
C 2.683901 1.55874 3 0.795609 3 0 
C 3 -0.795609 2.683901 -1.55874 2.12132 -2.12132 
C 1.55874 -2.683901 0.795609 -3 0 -3 
C -0.795609 -3 -1.55874 -2.683901 -2.12132 -2.12132 
C -2.683901 -1.55874 -3 -0.795609 -3 0 
C -3 0.795609 -2.683901 1.55874 -2.12132 2.12132 
C -1.55874 2.683901 -0.795609 3 0 3 
z
" id="mbe50a3d620" style="stroke:#000000;"/>
    </defs>
    <g clip-path="url(#p397fad6b5f)">
     <use style="stroke:#000000;" x="1117.220909" xlink:href="#mbe50a3d620" y="980.322391"/>
    </g>
   </g>
   <g id="line2d_13">
    <g clip-path="url(#p397fad6b5f)">
     <use style="stroke:#000000;" x="1012.822245" xlink:href="#mbe50a3d620" y="471.221576"/>
    </g>
   </g>
   <g id="line2d_14">
    <g clip-path="url(#p397fad6b5f)">
     <use style="stroke:#000000;" x="1077.388243" xlink:href="#mbe50a3d620" y="1231.2"/>
    </g>
   </g>
   <g id="line2d_15">
    <g clip-path="url(#p397fad6b5f)">
     <use style="stroke:#000000;" x="1038.703581" xlink:href="#mbe50a3d620" y="1204.261694"/>
    </g>
   </g>
   <g id="line2d_16">
    <g clip-path="url(#p397fad6b5f)">
     <use style="stroke:#000000;" x="1144.484799" xlink:href="#mbe50a3d620" y="377.501823"/>
    </g>
   </g>
   <g id="line2d_17">
    <g clip-path="url(#p397fad6b5f)">
     <use style="stroke:#000000;" x="1047.489766" xlink:href="#mbe50a3d620" y="443.347114"/>
    </g>
   </g>
   <g id="line2d_18">
    <g clip-path="url(#p397fad6b5f)">
     <use style="stroke:#000000;" x="334.109008" xlink:href="#mbe50a3d620" y="863.735186"/>
    </g>
   </g>
   <g id="line2d_19">
    <g clip-path="url(#p397fad6b5f)">
     <use style="stroke:#000000;" x="1095.79627" xlink:href="#mbe50a3d620" y="385.6227"/>
    </g>
   </g>
   <g id="line2d_20">
    <g clip-path="url(#p397fad6b5f)">
     <use style="stroke:#000000;" x="1111.516356" xlink:href="#mbe50a3d620" y="1065.377239"/>
    </g>
   </g>
   <g id="line2d_21">
    <g clip-path="url(#p397fad6b5f)">
     <use style="stroke:#000000;" x="1056.047378" xlink:href="#mbe50a3d620" y="461.78634"/>
    </g>
   </g>
   <g id="line2d_22">
    <g clip-path="url(#p397fad6b5f)">
     <use style="stroke:#000000;" x="1181.533879" xlink:href="#mbe50a3d620" y="472.95144"/>
    </g>
   </g>
   <g id="line2d_23">
    <g clip-path="url(#p397fad6b5f)">
     <use style="stroke:#000000;" x="893.881256" xlink:href="#mbe50a3d620" y="424.854557"/>
    </g>
   </g>
   <g id="line2d_24">
    <defs>
     <path d="M 0 9 
C 2.386828 9 4.676219 8.051703 6.363961 6.363961 
C 8.051703 4.676219 9 2.386828 9 0 
C 9 -2.386828 8.051703 -4.676219 6.363961 -6.363961 
C 4.676219 -8.051703 2.386828 -9 0 -9 
C -2.386828 -9 -4.676219 -8.051703 -6.363961 -6.363961 
C -8.051703 -4.676219 -9 -2.386828 -9 0 
C -9 2.386828 -8.051703 4.676219 -6.363961 6.363961 
C -4.676219 8.051703 -2.386828 9 0 9 
z
" id="me0f9a56c65" style="stroke:#000000;"/>
    </defs>
    <g clip-path="url(#p397fad6b5f)">
     <use style="fill:#9e0142;stroke:#000000;" x="1245.272727" xlink:href="#me0f9a56c65" y="228.650588"/>
    </g>
   </g>
   <g id="line2d_25">
    <g clip-path="url(#p397fad6b5f)">
     <use style="stroke:#000000;" x="1105.878176" xlink:href="#mbe50a3d620" y="1045.812921"/>
    </g>
   </g>
   <g id="line2d_26">
    <g clip-path="url(#p397fad6b5f)">
     <use style="stroke:#000000;" x="1091.181487" xlink:href="#mbe50a3d620" y="1192.235327"/>
    </g>
   </g>
   <g id="line2d_27">
    <g clip-path="url(#p397fad6b5f)">
     <use style="stroke:#000000;" x="1179.819961" xlink:href="#mbe50a3d620" y="641.041676"/>
    </g>
   </g>
   <g id="line2d_28">
    <g clip-path="url(#p397fad6b5f)">
     <use style="stroke:#000000;" x="1230.555459" xlink:href="#mbe50a3d620" y="241.062034"/>
    </g>
   </g>
   <g id="line2d_29">
    <g clip-path="url(#p397fad6b5f)">
     <use style="fill:#9e0142;stroke:#000000;" x="1243.88114" xlink:href="#me0f9a56c65" y="224.821215"/>
    </g>
   </g>
   <g id="line2d_30">
    <defs>
     <path d="M 0 9 
C 2.386828 9 4.676219 8.051703 6.363961 6.363961 
C 8.051703 4.676219 9 2.386828 9 0 
C 9 -2.386828 8.051703 -4.676219 6.363961 -6.363961 
C 4.676219 -8.051703 2.386828 -9 0 -9 
C -2.386828 -9 -4.676219 -8.051703 -6.363961 -6.363961 
C -8.051703 -4.676219 -9 -2.386828 -9 0 
C -9 2.386828 -8.051703 4.676219 -6.363961 6.363961 
C -4.676219 8.051703 -2.386828 9 0 9 
z
" id="m446cd311e8" style="stroke:#000000;"/>
    </defs>
    <g clip-path="url(#p397fad6b5f)">
     <use style="fill:#fdbf6f;stroke:#000000;" x="1121.496658" xlink:href="#m446cd311e8" y="1062.862917"/>
    </g>
   </g>
   <g id="line2d_31">
    <g clip-path="url(#p397fad6b5f)">
     <use style="stroke:#000000;" x="866.71362" xlink:href="#mbe50a3d620" y="1016.652812"/>
    </g>
   </g>
   <g id="line2d_32">
    <g clip-path="url(#p397fad6b5f)">
     <use style="stroke:#000000;" x="1101.314143" xlink:href="#mbe50a3d620" y="392.627647"/>
    </g>
   </g>
   <g id="line2d_33">
    <defs>
     <path d="M 0 9 
C 2.386828 9 4.676219 8.051703 6.363961 6.363961 
C 8.051703 4.676219 9 2.386828 9 0 
C 9 -2.386828 8.051703 -4.676219 6.363961 -6.363961 
C 4.676219 -8.051703 2.386828 -9 0 -9 
C -2.386828 -9 -4.676219 -8.051703 -6.363961 -6.363961 
C -8.051703 -4.676219 -9 -2.386828 -9 0 
C -9 2.386828 -8.051703 4.676219 -6.363961 6.363961 
C -4.676219 8.051703 -2.386828 9 0 9 
z
" id="m1a6211894a" style="stroke:#000000;"/>
    </defs>
    <g clip-path="url(#p397fad6b5f)">
     <use style="fill:#bfe5a0;stroke:#000000;" x="1158.551424" xlink:href="#m1a6211894a" y="1153.241146"/>
    </g>
   </g>
   <g id="line2d_34">
    <g clip-path="url(#p397fad6b5f)">
     <use style="stroke:#000000;" x="1082.680579" xlink:href="#mbe50a3d620" y="1223.158177"/>
    </g>
   </g>
   <g id="line2d_35">
    <g clip-path="url(#p397fad6b5f)">
     <use style="fill:#bfe5a0;stroke:#000000;" x="1142.046186" xlink:href="#m1a6211894a" y="1160.043732"/>
    </g>
   </g>
   <g id="line2d_36">
    <g clip-path="url(#p397fad6b5f)">
     <use style="stroke:#000000;" x="230.727273" xlink:href="#mbe50a3d620" y="805.907625"/>
    </g>
   </g>
   <g id="line2d_37">
    <g clip-path="url(#p397fad6b5f)">
     <use style="stroke:#000000;" x="1054.139358" xlink:href="#mbe50a3d620" y="742.330912"/>
    </g>
   </g>
   <g id="line2d_38">
    <g clip-path="url(#p397fad6b5f)">
     <use style="stroke:#000000;" x="1087.399099" xlink:href="#mbe50a3d620" y="1199.914885"/>
    </g>
   </g>
   <g id="line2d_39">
    <g clip-path="url(#p397fad6b5f)">
     <use style="stroke:#000000;" x="233.201683" xlink:href="#mbe50a3d620" y="804.909548"/>
    </g>
   </g>
   <g id="line2d_40">
    <g clip-path="url(#p397fad6b5f)">
     <use style="fill:#fdbf6f;stroke:#000000;" x="1129.348198" xlink:href="#m446cd311e8" y="1063.8076"/>
    </g>
   </g>
   <g id="line2d_41">
    <g clip-path="url(#p397fad6b5f)">
     <use style="fill:#9e0142;stroke:#000000;" x="1241.806844" xlink:href="#me0f9a56c65" y="229.345363"/>
    </g>
   </g>
   <g id="line2d_42">
    <g clip-path="url(#p397fad6b5f)">
     <use style="fill:#9e0142;stroke:#000000;" x="1239.796293" xlink:href="#me0f9a56c65" y="229.13559"/>
    </g>
   </g>
   <g id="line2d_43">
    <g clip-path="url(#p397fad6b5f)">
     <use style="fill:#9e0142;stroke:#000000;" x="1242.680822" xlink:href="#me0f9a56c65" y="226.620036"/>
    </g>
   </g>
   <g id="line2d_44">
    <g clip-path="url(#p397fad6b5f)">
     <use style="stroke:#000000;" x="1137.202359" xlink:href="#mbe50a3d620" y="432.722724"/>
    </g>
   </g>
   <g id="line2d_45">
    <g clip-path="url(#p397fad6b5f)">
     <use style="fill:#bfe5a0;stroke:#000000;" x="1147.140637" xlink:href="#m1a6211894a" y="1158.808916"/>
    </g>
   </g>
   <g id="line2d_46">
    <g clip-path="url(#p397fad6b5f)">
     <use style="fill:#9e0142;stroke:#000000;" x="1244.943094" xlink:href="#me0f9a56c65" y="223.2"/>
    </g>
   </g>
   <g id="line2d_47">
    <g clip-path="url(#p397fad6b5f)">
     <use style="stroke:#000000;" x="519.576388" xlink:href="#mbe50a3d620" y="789.416843"/>
    </g>
   </g>
   <g id="line2d_48">
    <g clip-path="url(#p397fad6b5f)">
     <use style="stroke:#000000;" x="1043.876893" xlink:href="#mbe50a3d620" y="1181.157561"/>
    </g>
   </g>
   <g id="line2d_49">
    <g clip-path="url(#p397fad6b5f)">
     <use style="stroke:#000000;" x="1091.800452" xlink:href="#mbe50a3d620" y="1079.271816"/>
    </g>
   </g>
   <g id="line2d_50">
    <g clip-path="url(#p397fad6b5f)">
     <use style="fill:#fdbf6f;stroke:#000000;" x="1126.762532" xlink:href="#m446cd311e8" y="1063.109052"/>
    </g>
   </g>
   <g id="line2d_51">
    <g clip-path="url(#p397fad6b5f)">
     <use style="fill:#9e0142;stroke:#000000;" x="1239.545061" xlink:href="#me0f9a56c65" y="225.780702"/>
    </g>
   </g>
   <g id="patch_3">
    <path d="M 180 1281.6 
L 180 172.8 
" style="fill:none;stroke:#000000;stroke-linecap:square;stroke-linejoin:miter;stroke-width:0.8;"/>
   </g>
   <g id="patch_4">
    <path d="M 1296 1281.6 
L 1296 172.8 
" style="fill:none;stroke:#000000;stroke-linecap:square;stroke-linejoin:miter;stroke-width:0.8;"/>
   </g>
   <g id="patch_5">
    <path d="M 180 1281.6 
L 1296 1281.6 
" style="fill:none;stroke:#000000;stroke-linecap:square;stroke-linejoin:miter;stroke-width:0.8;"/>
   </g>
   <g id="patch_6">
    <path d="M 180 172.8 
L 1296 172.8 
" style="fill:none;stroke:#000000;stroke-linecap:square;stroke-linejoin:miter;stroke-width:0.8;"/>
   </g>
  </g>
 </g>
 <defs>
  <clipPath id="p397fad6b5f">
   <rect height="1108.8" width="1116" x="180" y="172.8"/>
  </clipPath>
 </defs>
</svg>
