<?xml version="1.0" encoding="utf-8" standalone="no"?>
<!DOCTYPE svg PUBLIC "-//W3C//DTD SVG 1.1//EN"
  "http://www.w3.org/Graphics/SVG/1.1/DTD/svg11.dtd">
<!-- Created with matplotlib (https://matplotlib.org/) -->
<svg height="1440pt" version="1.1" viewBox="0 0 1440 1440" width="1440pt" xmlns="http://www.w3.org/2000/svg" xmlns:xlink="http://www.w3.org/1999/xlink">
 <defs>
  <style type="text/css">
*{stroke-linecap:butt;stroke-linejoin:round;}
  </style>
 </defs>
 <g id="figure_1">
  <g id="patch_1">
   <path d="M 0 1440 
L 1440 1440 
L 1440 0 
L 0 0 
z
" style="fill:#ffffff;"/>
  </g>
  <g id="axes_1">
   <g id="patch_2">
    <path d="M 180 1281.6 
L 1296 1281.6 
L 1296 172.8 
L 180 172.8 
z
" style="fill:#ffffff;"/>
   </g>
   <g id="matplotlib.axis_1">
    <g id="xtick_1">
     <g id="line2d_1">
      <defs>
       <path d="M 0 0 
L 0 3.5 
" id="m60132598f9" style="stroke:#000000;stroke-width:0.8;"/>
      </defs>
      <g>
       <use style="stroke:#000000;stroke-width:0.8;" x="373.469232" xlink:href="#m60132598f9" y="1281.6"/>
      </g>
     </g>
     <g id="text_1">
      <!-- 0.00 -->
      <defs>
       <path d="M 31.78125 66.40625 
Q 24.171875 66.40625 20.328125 58.90625 
Q 16.5 51.421875 16.5 36.375 
Q 16.5 21.390625 20.328125 13.890625 
Q 24.171875 6.390625 31.78125 6.390625 
Q 39.453125 6.390625 43.28125 13.890625 
Q 47.125 21.390625 47.125 36.375 
Q 47.125 51.421875 43.28125 58.90625 
Q 39.453125 66.40625 31.78125 66.40625 
z
M 31.78125 74.21875 
Q 44.046875 74.21875 50.515625 64.515625 
Q 56.984375 54.828125 56.984375 36.375 
Q 56.984375 17.96875 50.515625 8.265625 
Q 44.046875 -1.421875 31.78125 -1.421875 
Q 19.53125 -1.421875 13.0625 8.265625 
Q 6.59375 17.96875 6.59375 36.375 
Q 6.59375 54.828125 13.0625 64.515625 
Q 19.53125 74.21875 31.78125 74.21875 
z
" id="DejaVuSans-48"/>
       <path d="M 10.6875 12.40625 
L 21 12.40625 
L 21 0 
L 10.6875 0 
z
" id="DejaVuSans-46"/>
      </defs>
      <g transform="translate(362.33642 1296.198437)scale(0.1 -0.1)">
       <use xlink:href="#DejaVuSans-48"/>
       <use x="63.623047" xlink:href="#DejaVuSans-46"/>
       <use x="95.410156" xlink:href="#DejaVuSans-48"/>
       <use x="159.033203" xlink:href="#DejaVuSans-48"/>
      </g>
     </g>
    </g>
    <g id="xtick_2">
     <g id="line2d_2">
      <g>
       <use style="stroke:#000000;stroke-width:0.8;" x="591.742351" xlink:href="#m60132598f9" y="1281.6"/>
      </g>
     </g>
     <g id="text_2">
      <!-- 0.05 -->
      <defs>
       <path d="M 10.796875 72.90625 
L 49.515625 72.90625 
L 49.515625 64.59375 
L 19.828125 64.59375 
L 19.828125 46.734375 
Q 21.96875 47.46875 24.109375 47.828125 
Q 26.265625 48.1875 28.421875 48.1875 
Q 40.625 48.1875 47.75 41.5 
Q 54.890625 34.8125 54.890625 23.390625 
Q 54.890625 11.625 47.5625 5.09375 
Q 40.234375 -1.421875 26.90625 -1.421875 
Q 22.3125 -1.421875 17.546875 -0.640625 
Q 12.796875 0.140625 7.71875 1.703125 
L 7.71875 11.625 
Q 12.109375 9.234375 16.796875 8.0625 
Q 21.484375 6.890625 26.703125 6.890625 
Q 35.15625 6.890625 40.078125 11.328125 
Q 45.015625 15.765625 45.015625 23.390625 
Q 45.015625 31 40.078125 35.4375 
Q 35.15625 39.890625 26.703125 39.890625 
Q 22.75 39.890625 18.8125 39.015625 
Q 14.890625 38.140625 10.796875 36.28125 
z
" id="DejaVuSans-53"/>
      </defs>
      <g transform="translate(580.609538 1296.198437)scale(0.1 -0.1)">
       <use xlink:href="#DejaVuSans-48"/>
       <use x="63.623047" xlink:href="#DejaVuSans-46"/>
       <use x="95.410156" xlink:href="#DejaVuSans-48"/>
       <use x="159.033203" xlink:href="#DejaVuSans-53"/>
      </g>
     </g>
    </g>
    <g id="xtick_3">
     <g id="line2d_3">
      <g>
       <use style="stroke:#000000;stroke-width:0.8;" x="810.015469" xlink:href="#m60132598f9" y="1281.6"/>
      </g>
     </g>
     <g id="text_3">
      <!-- 0.10 -->
      <defs>
       <path d="M 12.40625 8.296875 
L 28.515625 8.296875 
L 28.515625 63.921875 
L 10.984375 60.40625 
L 10.984375 69.390625 
L 28.421875 72.90625 
L 38.28125 72.90625 
L 38.28125 8.296875 
L 54.390625 8.296875 
L 54.390625 0 
L 12.40625 0 
z
" id="DejaVuSans-49"/>
      </defs>
      <g transform="translate(798.882657 1296.198437)scale(0.1 -0.1)">
       <use xlink:href="#DejaVuSans-48"/>
       <use x="63.623047" xlink:href="#DejaVuSans-46"/>
       <use x="95.410156" xlink:href="#DejaVuSans-49"/>
       <use x="159.033203" xlink:href="#DejaVuSans-48"/>
      </g>
     </g>
    </g>
    <g id="xtick_4">
     <g id="line2d_4">
      <g>
       <use style="stroke:#000000;stroke-width:0.8;" x="1028.288588" xlink:href="#m60132598f9" y="1281.6"/>
      </g>
     </g>
     <g id="text_4">
      <!-- 0.15 -->
      <g transform="translate(1017.155775 1296.198437)scale(0.1 -0.1)">
       <use xlink:href="#DejaVuSans-48"/>
       <use x="63.623047" xlink:href="#DejaVuSans-46"/>
       <use x="95.410156" xlink:href="#DejaVuSans-49"/>
       <use x="159.033203" xlink:href="#DejaVuSans-53"/>
      </g>
     </g>
    </g>
    <g id="xtick_5">
     <g id="line2d_5">
      <g>
       <use style="stroke:#000000;stroke-width:0.8;" x="1246.561706" xlink:href="#m60132598f9" y="1281.6"/>
      </g>
     </g>
     <g id="text_5">
      <!-- 0.20 -->
      <defs>
       <path d="M 19.1875 8.296875 
L 53.609375 8.296875 
L 53.609375 0 
L 7.328125 0 
L 7.328125 8.296875 
Q 12.9375 14.109375 22.625 23.890625 
Q 32.328125 33.6875 34.8125 36.53125 
Q 39.546875 41.84375 41.421875 45.53125 
Q 43.3125 49.21875 43.3125 52.78125 
Q 43.3125 58.59375 39.234375 62.25 
Q 35.15625 65.921875 28.609375 65.921875 
Q 23.96875 65.921875 18.8125 64.3125 
Q 13.671875 62.703125 7.8125 59.421875 
L 7.8125 69.390625 
Q 13.765625 71.78125 18.9375 73 
Q 24.125 74.21875 28.421875 74.21875 
Q 39.75 74.21875 46.484375 68.546875 
Q 53.21875 62.890625 53.21875 53.421875 
Q 53.21875 48.921875 51.53125 44.890625 
Q 49.859375 40.875 45.40625 35.40625 
Q 44.1875 33.984375 37.640625 27.21875 
Q 31.109375 20.453125 19.1875 8.296875 
z
" id="DejaVuSans-50"/>
      </defs>
      <g transform="translate(1235.428893 1296.198437)scale(0.1 -0.1)">
       <use xlink:href="#DejaVuSans-48"/>
       <use x="63.623047" xlink:href="#DejaVuSans-46"/>
       <use x="95.410156" xlink:href="#DejaVuSans-50"/>
       <use x="159.033203" xlink:href="#DejaVuSans-48"/>
      </g>
     </g>
    </g>
   </g>
   <g id="matplotlib.axis_2">
    <g id="ytick_1">
     <g id="line2d_6">
      <defs>
       <path d="M 0 0 
L -3.5 0 
" id="m8b6f84ec42" style="stroke:#000000;stroke-width:0.8;"/>
      </defs>
      <g>
       <use style="stroke:#000000;stroke-width:0.8;" x="180" xlink:href="#m8b6f84ec42" y="1248.084319"/>
      </g>
     </g>
     <g id="text_6">
      <!-- −0.15 -->
      <defs>
       <path d="M 10.59375 35.5 
L 73.1875 35.5 
L 73.1875 27.203125 
L 10.59375 27.203125 
z
" id="DejaVuSans-8722"/>
      </defs>
      <g transform="translate(142.354688 1251.883538)scale(0.1 -0.1)">
       <use xlink:href="#DejaVuSans-8722"/>
       <use x="83.789062" xlink:href="#DejaVuSans-48"/>
       <use x="147.412109" xlink:href="#DejaVuSans-46"/>
       <use x="179.199219" xlink:href="#DejaVuSans-49"/>
       <use x="242.822266" xlink:href="#DejaVuSans-53"/>
      </g>
     </g>
    </g>
    <g id="ytick_2">
     <g id="line2d_7">
      <g>
       <use style="stroke:#000000;stroke-width:0.8;" x="180" xlink:href="#m8b6f84ec42" y="1122.267361"/>
      </g>
     </g>
     <g id="text_7">
      <!-- −0.10 -->
      <g transform="translate(142.354688 1126.06658)scale(0.1 -0.1)">
       <use xlink:href="#DejaVuSans-8722"/>
       <use x="83.789062" xlink:href="#DejaVuSans-48"/>
       <use x="147.412109" xlink:href="#DejaVuSans-46"/>
       <use x="179.199219" xlink:href="#DejaVuSans-49"/>
       <use x="242.822266" xlink:href="#DejaVuSans-48"/>
      </g>
     </g>
    </g>
    <g id="ytick_3">
     <g id="line2d_8">
      <g>
       <use style="stroke:#000000;stroke-width:0.8;" x="180" xlink:href="#m8b6f84ec42" y="996.450403"/>
      </g>
     </g>
     <g id="text_8">
      <!-- −0.05 -->
      <g transform="translate(142.354688 1000.249621)scale(0.1 -0.1)">
       <use xlink:href="#DejaVuSans-8722"/>
       <use x="83.789062" xlink:href="#DejaVuSans-48"/>
       <use x="147.412109" xlink:href="#DejaVuSans-46"/>
       <use x="179.199219" xlink:href="#DejaVuSans-48"/>
       <use x="242.822266" xlink:href="#DejaVuSans-53"/>
      </g>
     </g>
    </g>
    <g id="ytick_4">
     <g id="line2d_9">
      <g>
       <use style="stroke:#000000;stroke-width:0.8;" x="180" xlink:href="#m8b6f84ec42" y="870.633444"/>
      </g>
     </g>
     <g id="text_9">
      <!-- 0.00 -->
      <g transform="translate(150.734375 874.432663)scale(0.1 -0.1)">
       <use xlink:href="#DejaVuSans-48"/>
       <use x="63.623047" xlink:href="#DejaVuSans-46"/>
       <use x="95.410156" xlink:href="#DejaVuSans-48"/>
       <use x="159.033203" xlink:href="#DejaVuSans-48"/>
      </g>
     </g>
    </g>
    <g id="ytick_5">
     <g id="line2d_10">
      <g>
       <use style="stroke:#000000;stroke-width:0.8;" x="180" xlink:href="#m8b6f84ec42" y="744.816486"/>
      </g>
     </g>
     <g id="text_10">
      <!-- 0.05 -->
      <g transform="translate(150.734375 748.615704)scale(0.1 -0.1)">
       <use xlink:href="#DejaVuSans-48"/>
       <use x="63.623047" xlink:href="#DejaVuSans-46"/>
       <use x="95.410156" xlink:href="#DejaVuSans-48"/>
       <use x="159.033203" xlink:href="#DejaVuSans-53"/>
      </g>
     </g>
    </g>
    <g id="ytick_6">
     <g id="line2d_11">
      <g>
       <use style="stroke:#000000;stroke-width:0.8;" x="180" xlink:href="#m8b6f84ec42" y="618.999527"/>
      </g>
     </g>
     <g id="text_11">
      <!-- 0.10 -->
      <g transform="translate(150.734375 622.798746)scale(0.1 -0.1)">
       <use xlink:href="#DejaVuSans-48"/>
       <use x="63.623047" xlink:href="#DejaVuSans-46"/>
       <use x="95.410156" xlink:href="#DejaVuSans-49"/>
       <use x="159.033203" xlink:href="#DejaVuSans-48"/>
      </g>
     </g>
    </g>
    <g id="ytick_7">
     <g id="line2d_12">
      <g>
       <use style="stroke:#000000;stroke-width:0.8;" x="180" xlink:href="#m8b6f84ec42" y="493.182569"/>
      </g>
     </g>
     <g id="text_12">
      <!-- 0.15 -->
      <g transform="translate(150.734375 496.981788)scale(0.1 -0.1)">
       <use xlink:href="#DejaVuSans-48"/>
       <use x="63.623047" xlink:href="#DejaVuSans-46"/>
       <use x="95.410156" xlink:href="#DejaVuSans-49"/>
       <use x="159.033203" xlink:href="#DejaVuSans-53"/>
      </g>
     </g>
    </g>
    <g id="ytick_8">
     <g id="line2d_13">
      <g>
       <use style="stroke:#000000;stroke-width:0.8;" x="180" xlink:href="#m8b6f84ec42" y="367.36561"/>
      </g>
     </g>
     <g id="text_13">
      <!-- 0.20 -->
      <g transform="translate(150.734375 371.164829)scale(0.1 -0.1)">
       <use xlink:href="#DejaVuSans-48"/>
       <use x="63.623047" xlink:href="#DejaVuSans-46"/>
       <use x="95.410156" xlink:href="#DejaVuSans-50"/>
       <use x="159.033203" xlink:href="#DejaVuSans-48"/>
      </g>
     </g>
    </g>
    <g id="ytick_9">
     <g id="line2d_14">
      <g>
       <use style="stroke:#000000;stroke-width:0.8;" x="180" xlink:href="#m8b6f84ec42" y="241.548652"/>
      </g>
     </g>
     <g id="text_14">
      <!-- 0.25 -->
      <g transform="translate(150.734375 245.347871)scale(0.1 -0.1)">
       <use xlink:href="#DejaVuSans-48"/>
       <use x="63.623047" xlink:href="#DejaVuSans-46"/>
       <use x="95.410156" xlink:href="#DejaVuSans-50"/>
       <use x="159.033203" xlink:href="#DejaVuSans-53"/>
      </g>
     </g>
    </g>
   </g>
   <g id="line2d_15">
    <defs>
     <path d="M 0 9 
C 2.386828 9 4.676219 8.051703 6.363961 6.363961 
C 8.051703 4.676219 9 2.386828 9 0 
C 9 -2.386828 8.051703 -4.676219 6.363961 -6.363961 
C 4.676219 -8.051703 2.386828 -9 0 -9 
C -2.386828 -9 -4.676219 -8.051703 -6.363961 -6.363961 
C -8.051703 -4.676219 -9 -2.386828 -9 0 
C -9 2.386828 -8.051703 4.676219 -6.363961 6.363961 
C -4.676219 8.051703 -2.386828 9 0 9 
z
" id="m0d1333b11d" style="stroke:#000000;"/>
    </defs>
    <g clip-path="url(#pa12ae6ad8e)">
     <use style="fill:#9e0142;stroke:#000000;" x="549.276098" xlink:href="#m0d1333b11d" y="235.692645"/>
    </g>
   </g>
   <g id="line2d_16">
    <defs>
     <path d="M 0 9 
C 2.386828 9 4.676219 8.051703 6.363961 6.363961 
C 8.051703 4.676219 9 2.386828 9 0 
C 9 -2.386828 8.051703 -4.676219 6.363961 -6.363961 
C 4.676219 -8.051703 2.386828 -9 0 -9 
C -2.386828 -9 -4.676219 -8.051703 -6.363961 -6.363961 
C -8.051703 -4.676219 -9 -2.386828 -9 0 
C -9 2.386828 -8.051703 4.676219 -6.363961 6.363961 
C -4.676219 8.051703 -2.386828 9 0 9 
z
" id="me73cdc016a" style="stroke:#000000;"/>
    </defs>
    <g clip-path="url(#pa12ae6ad8e)">
     <use style="fill:#fdbf6f;stroke:#000000;" x="1241.529256" xlink:href="#me73cdc016a" y="984.908754"/>
    </g>
   </g>
   <g id="line2d_17">
    <defs>
     <path d="M 0 9 
C 2.386828 9 4.676219 8.051703 6.363961 6.363961 
C 8.051703 4.676219 9 2.386828 9 0 
C 9 -2.386828 8.051703 -4.676219 6.363961 -6.363961 
C 4.676219 -8.051703 2.386828 -9 0 -9 
C -2.386828 -9 -4.676219 -8.051703 -6.363961 -6.363961 
C -8.051703 -4.676219 -9 -2.386828 -9 0 
C -9 2.386828 -8.051703 4.676219 -6.363961 6.363961 
C -4.676219 8.051703 -2.386828 9 0 9 
z
" id="ma7e55b9300" style="stroke:#000000;"/>
    </defs>
    <g clip-path="url(#pa12ae6ad8e)">
     <use style="fill:#bfe5a0;stroke:#000000;" x="802.946858" xlink:href="#ma7e55b9300" y="378.150915"/>
    </g>
   </g>
   <g id="line2d_18">
    <g clip-path="url(#pa12ae6ad8e)">
     <use style="fill:#9e0142;stroke:#000000;" x="562.56738" xlink:href="#m0d1333b11d" y="263.374135"/>
    </g>
   </g>
   <g id="line2d_19">
    <g clip-path="url(#pa12ae6ad8e)">
     <use style="fill:#fdbf6f;stroke:#000000;" x="1245.272727" xlink:href="#me73cdc016a" y="984.823475"/>
    </g>
   </g>
   <g id="line2d_20">
    <defs>
     <path d="M 0 3 
C 0.795609 3 1.55874 2.683901 2.12132 2.12132 
C 2.683901 1.55874 3 0.795609 3 0 
C 3 -0.795609 2.683901 -1.55874 2.12132 -2.12132 
C 1.55874 -2.683901 0.795609 -3 0 -3 
C -0.795609 -3 -1.55874 -2.683901 -2.12132 -2.12132 
C -2.683901 -1.55874 -3 -0.795609 -3 0 
C -3 0.795609 -2.683901 1.55874 -2.12132 2.12132 
C -1.55874 2.683901 -0.795609 3 0 3 
z
" id="m4f86a48a27" style="stroke:#000000;"/>
    </defs>
    <g clip-path="url(#pa12ae6ad8e)">
     <use style="stroke:#000000;" x="439.255304" xlink:href="#m4f86a48a27" y="778.876549"/>
    </g>
   </g>
   <g id="line2d_21">
    <g clip-path="url(#pa12ae6ad8e)">
     <use style="stroke:#000000;" x="424.04448" xlink:href="#m4f86a48a27" y="440.811487"/>
    </g>
   </g>
   <g id="line2d_22">
    <g clip-path="url(#pa12ae6ad8e)">
     <use style="fill:#fdbf6f;stroke:#000000;" x="1231.229409" xlink:href="#me73cdc016a" y="984.27674"/>
    </g>
   </g>
   <g id="line2d_23">
    <g clip-path="url(#pa12ae6ad8e)">
     <use style="fill:#fdbf6f;stroke:#000000;" x="1240.387987" xlink:href="#me73cdc016a" y="984.880118"/>
    </g>
   </g>
   <g id="line2d_24">
    <g clip-path="url(#pa12ae6ad8e)">
     <use style="fill:#fdbf6f;stroke:#000000;" x="1239.118148" xlink:href="#me73cdc016a" y="985.464372"/>
    </g>
   </g>
   <g id="line2d_25">
    <g clip-path="url(#pa12ae6ad8e)">
     <use style="fill:#9e0142;stroke:#000000;" x="547.986659" xlink:href="#m0d1333b11d" y="223.2"/>
    </g>
   </g>
   <g id="line2d_26">
    <g clip-path="url(#pa12ae6ad8e)">
     <use style="fill:#bfe5a0;stroke:#000000;" x="804.995269" xlink:href="#ma7e55b9300" y="372.052713"/>
    </g>
   </g>
   <g id="line2d_27">
    <g clip-path="url(#pa12ae6ad8e)">
     <use style="stroke:#000000;" x="1045.302721" xlink:href="#m4f86a48a27" y="1114.516343"/>
    </g>
   </g>
   <g id="line2d_28">
    <g clip-path="url(#pa12ae6ad8e)">
     <use style="stroke:#000000;" x="230.727273" xlink:href="#m4f86a48a27" y="634.658627"/>
    </g>
   </g>
   <g id="line2d_29">
    <g clip-path="url(#pa12ae6ad8e)">
     <use style="stroke:#000000;" x="266.687348" xlink:href="#m4f86a48a27" y="401.982177"/>
    </g>
   </g>
   <g id="line2d_30">
    <g clip-path="url(#pa12ae6ad8e)">
     <use style="fill:#fdbf6f;stroke:#000000;" x="1241.421887" xlink:href="#me73cdc016a" y="985.850066"/>
    </g>
   </g>
   <g id="line2d_31">
    <g clip-path="url(#pa12ae6ad8e)">
     <use style="fill:#fdbf6f;stroke:#000000;" x="1232.254272" xlink:href="#me73cdc016a" y="984.681455"/>
    </g>
   </g>
   <g id="line2d_32">
    <g clip-path="url(#pa12ae6ad8e)">
     <use style="fill:#bfe5a0;stroke:#000000;" x="803.656182" xlink:href="#ma7e55b9300" y="374.037043"/>
    </g>
   </g>
   <g id="line2d_33">
    <g clip-path="url(#pa12ae6ad8e)">
     <use style="fill:#9e0142;stroke:#000000;" x="548.580076" xlink:href="#m0d1333b11d" y="232.586025"/>
    </g>
   </g>
   <g id="line2d_34">
    <g clip-path="url(#pa12ae6ad8e)">
     <use style="fill:#fdbf6f;stroke:#000000;" x="1234.33244" xlink:href="#me73cdc016a" y="984.678329"/>
    </g>
   </g>
   <g id="line2d_35">
    <g clip-path="url(#pa12ae6ad8e)">
     <use style="fill:#fdbf6f;stroke:#000000;" x="1245.21785" xlink:href="#me73cdc016a" y="985.445517"/>
    </g>
   </g>
   <g id="line2d_36">
    <g clip-path="url(#pa12ae6ad8e)">
     <use style="fill:#fdbf6f;stroke:#000000;" x="1231.624415" xlink:href="#me73cdc016a" y="984.38336"/>
    </g>
   </g>
   <g id="line2d_37">
    <g clip-path="url(#pa12ae6ad8e)">
     <use style="fill:#fdbf6f;stroke:#000000;" x="1243.21234" xlink:href="#me73cdc016a" y="985.480084"/>
    </g>
   </g>
   <g id="line2d_38">
    <g clip-path="url(#pa12ae6ad8e)">
     <use style="stroke:#000000;" x="266.090269" xlink:href="#m4f86a48a27" y="399.83476"/>
    </g>
   </g>
   <g id="line2d_39">
    <g clip-path="url(#pa12ae6ad8e)">
     <use style="fill:#9e0142;stroke:#000000;" x="547.086949" xlink:href="#m0d1333b11d" y="228.951651"/>
    </g>
   </g>
   <g id="line2d_40">
    <g clip-path="url(#pa12ae6ad8e)">
     <use style="stroke:#000000;" x="705.740058" xlink:href="#m4f86a48a27" y="852.885131"/>
    </g>
   </g>
   <g id="line2d_41">
    <g clip-path="url(#pa12ae6ad8e)">
     <use style="fill:#bfe5a0;stroke:#000000;" x="802.153716" xlink:href="#ma7e55b9300" y="374.213229"/>
    </g>
   </g>
   <g id="line2d_42">
    <g clip-path="url(#pa12ae6ad8e)">
     <use style="stroke:#000000;" x="1026.924789" xlink:href="#m4f86a48a27" y="969.382879"/>
    </g>
   </g>
   <g id="line2d_43">
    <g clip-path="url(#pa12ae6ad8e)">
     <use style="fill:#bfe5a0;stroke:#000000;" x="806.235715" xlink:href="#ma7e55b9300" y="377.576283"/>
    </g>
   </g>
   <g id="line2d_44">
    <g clip-path="url(#pa12ae6ad8e)">
     <use style="stroke:#000000;" x="913.454797" xlink:href="#m4f86a48a27" y="1231.2"/>
    </g>
   </g>
   <g id="line2d_45">
    <g clip-path="url(#pa12ae6ad8e)">
     <use style="fill:#fdbf6f;stroke:#000000;" x="1241.531002" xlink:href="#me73cdc016a" y="985.490091"/>
    </g>
   </g>
   <g id="line2d_46">
    <g clip-path="url(#pa12ae6ad8e)">
     <use style="stroke:#000000;" x="827.048181" xlink:href="#m4f86a48a27" y="1118.330038"/>
    </g>
   </g>
   <g id="line2d_47">
    <g clip-path="url(#pa12ae6ad8e)">
     <use style="fill:#fdbf6f;stroke:#000000;" x="1236.997285" xlink:href="#me73cdc016a" y="985.514539"/>
    </g>
   </g>
   <g id="line2d_48">
    <g clip-path="url(#pa12ae6ad8e)">
     <use style="fill:#fdbf6f;stroke:#000000;" x="1233.202246" xlink:href="#me73cdc016a" y="985.893582"/>
    </g>
   </g>
   <g id="line2d_49">
    <g clip-path="url(#pa12ae6ad8e)">
     <use style="stroke:#000000;" x="1229.194584" xlink:href="#m4f86a48a27" y="1037.189541"/>
    </g>
   </g>
   <g id="line2d_50">
    <g clip-path="url(#pa12ae6ad8e)">
     <use style="stroke:#000000;" x="1156.225949" xlink:href="#m4f86a48a27" y="1101.617166"/>
    </g>
   </g>
   <g id="line2d_51">
    <g clip-path="url(#pa12ae6ad8e)">
     <use style="fill:#fdbf6f;stroke:#000000;" x="1242.935467" xlink:href="#me73cdc016a" y="984.39433"/>
    </g>
   </g>
   <g id="line2d_52">
    <g clip-path="url(#pa12ae6ad8e)">
     <use style="fill:#9e0142;stroke:#000000;" x="548.601626" xlink:href="#m0d1333b11d" y="235.194257"/>
    </g>
   </g>
   <g id="line2d_53">
    <g clip-path="url(#pa12ae6ad8e)">
     <use style="fill:#fdbf6f;stroke:#000000;" x="1238.067928" xlink:href="#me73cdc016a" y="986.354162"/>
    </g>
   </g>
   <g id="line2d_54">
    <g clip-path="url(#pa12ae6ad8e)">
     <use style="fill:#bfe5a0;stroke:#000000;" x="805.088371" xlink:href="#ma7e55b9300" y="371.68199"/>
    </g>
   </g>
   <g id="line2d_55">
    <g clip-path="url(#pa12ae6ad8e)">
     <use style="fill:#fdbf6f;stroke:#000000;" x="1237.620999" xlink:href="#me73cdc016a" y="984.473419"/>
    </g>
   </g>
   <g id="line2d_56">
    <g clip-path="url(#pa12ae6ad8e)">
     <use style="fill:#bfe5a0;stroke:#000000;" x="802.07036" xlink:href="#ma7e55b9300" y="372.954106"/>
    </g>
   </g>
   <g id="line2d_57">
    <g clip-path="url(#pa12ae6ad8e)">
     <use style="fill:#bfe5a0;stroke:#000000;" x="802.942752" xlink:href="#ma7e55b9300" y="374.857279"/>
    </g>
   </g>
   <g id="line2d_58">
    <g clip-path="url(#pa12ae6ad8e)">
     <use style="stroke:#000000;" x="615.319342" xlink:href="#m4f86a48a27" y="516.236557"/>
    </g>
   </g>
   <g id="line2d_59">
    <g clip-path="url(#pa12ae6ad8e)">
     <use style="fill:#bfe5a0;stroke:#000000;" x="802.124491" xlink:href="#ma7e55b9300" y="371.252952"/>
    </g>
   </g>
   <g id="line2d_60">
    <g clip-path="url(#pa12ae6ad8e)">
     <use style="stroke:#000000;" x="1100.775968" xlink:href="#m4f86a48a27" y="1099.624947"/>
    </g>
   </g>
   <g id="line2d_61">
    <g clip-path="url(#pa12ae6ad8e)">
     <use style="stroke:#000000;" x="700.642698" xlink:href="#m4f86a48a27" y="852.947296"/>
    </g>
   </g>
   <g id="line2d_62">
    <g clip-path="url(#pa12ae6ad8e)">
     <use style="fill:#bfe5a0;stroke:#000000;" x="802.397762" xlink:href="#ma7e55b9300" y="375.196583"/>
    </g>
   </g>
   <g id="line2d_63">
    <g clip-path="url(#pa12ae6ad8e)">
     <use style="fill:#fdbf6f;stroke:#000000;" x="1244.089981" xlink:href="#me73cdc016a" y="985.245267"/>
    </g>
   </g>
   <g id="patch_3">
    <path d="M 180 1281.6 
L 180 172.8 
" style="fill:none;stroke:#000000;stroke-linecap:square;stroke-linejoin:miter;stroke-width:0.8;"/>
   </g>
   <g id="patch_4">
    <path d="M 1296 1281.6 
L 1296 172.8 
" style="fill:none;stroke:#000000;stroke-linecap:square;stroke-linejoin:miter;stroke-width:0.8;"/>
   </g>
   <g id="patch_5">
    <path d="M 180 1281.6 
L 1296 1281.6 
" style="fill:none;stroke:#000000;stroke-linecap:square;stroke-linejoin:miter;stroke-width:0.8;"/>
   </g>
   <g id="patch_6">
    <path d="M 180 172.8 
L 1296 172.8 
" style="fill:none;stroke:#000000;stroke-linecap:square;stroke-linejoin:miter;stroke-width:0.8;"/>
   </g>
  </g>
 </g>
 <defs>
  <clipPath id="pa12ae6ad8e">
   <rect height="1108.8" width="1116" x="180" y="172.8"/>
  </clipPath>
 </defs>
</svg>
