<?xml version="1.0" encoding="utf-8" standalone="no"?>
<!DOCTYPE svg PUBLIC "-//W3C//DTD SVG 1.1//EN"
  "http://www.w3.org/Graphics/SVG/1.1/DTD/svg11.dtd">
<!-- Created with matplotlib (https://matplotlib.org/) -->
<svg height="1440pt" version="1.1" viewBox="0 0 1440 1440" width="1440pt" xmlns="http://www.w3.org/2000/svg" xmlns:xlink="http://www.w3.org/1999/xlink">
 <defs>
  <style type="text/css">
*{stroke-linecap:butt;stroke-linejoin:round;}
  </style>
 </defs>
 <g id="figure_1">
  <g id="patch_1">
   <path d="M 0 1440 
L 1440 1440 
L 1440 0 
L 0 0 
z
" style="fill:#ffffff;"/>
  </g>
  <g id="axes_1">
   <g id="patch_2">
    <path d="M 180 1281.6 
L 1296 1281.6 
L 1296 172.8 
L 180 172.8 
z
" style="fill:#ffffff;"/>
   </g>
   <g id="matplotlib.axis_1">
    <g id="xtick_1">
     <g id="line2d_1">
      <defs>
       <path d="M 0 0 
L 0 3.5 
" id="me6daec6e71" style="stroke:#000000;stroke-width:0.8;"/>
      </defs>
      <g>
       <use style="stroke:#000000;stroke-width:0.8;" x="223.095617" xlink:href="#me6daec6e71" y="1281.6"/>
      </g>
     </g>
     <g id="text_1">
      <!-- 0.02 -->
      <defs>
       <path d="M 31.78125 66.40625 
Q 24.171875 66.40625 20.328125 58.90625 
Q 16.5 51.421875 16.5 36.375 
Q 16.5 21.390625 20.328125 13.890625 
Q 24.171875 6.390625 31.78125 6.390625 
Q 39.453125 6.390625 43.28125 13.890625 
Q 47.125 21.390625 47.125 36.375 
Q 47.125 51.421875 43.28125 58.90625 
Q 39.453125 66.40625 31.78125 66.40625 
z
M 31.78125 74.21875 
Q 44.046875 74.21875 50.515625 64.515625 
Q 56.984375 54.828125 56.984375 36.375 
Q 56.984375 17.96875 50.515625 8.265625 
Q 44.046875 -1.421875 31.78125 -1.421875 
Q 19.53125 -1.421875 13.0625 8.265625 
Q 6.59375 17.96875 6.59375 36.375 
Q 6.59375 54.828125 13.0625 64.515625 
Q 19.53125 74.21875 31.78125 74.21875 
z
" id="DejaVuSans-48"/>
       <path d="M 10.6875 12.40625 
L 21 12.40625 
L 21 0 
L 10.6875 0 
z
" id="DejaVuSans-46"/>
       <path d="M 19.1875 8.296875 
L 53.609375 8.296875 
L 53.609375 0 
L 7.328125 0 
L 7.328125 8.296875 
Q 12.9375 14.109375 22.625 23.890625 
Q 32.328125 33.6875 34.8125 36.53125 
Q 39.546875 41.84375 41.421875 45.53125 
Q 43.3125 49.21875 43.3125 52.78125 
Q 43.3125 58.59375 39.234375 62.25 
Q 35.15625 65.921875 28.609375 65.921875 
Q 23.96875 65.921875 18.8125 64.3125 
Q 13.671875 62.703125 7.8125 59.421875 
L 7.8125 69.390625 
Q 13.765625 71.78125 18.9375 73 
Q 24.125 74.21875 28.421875 74.21875 
Q 39.75 74.21875 46.484375 68.546875 
Q 53.21875 62.890625 53.21875 53.421875 
Q 53.21875 48.921875 51.53125 44.890625 
Q 49.859375 40.875 45.40625 35.40625 
Q 44.1875 33.984375 37.640625 27.21875 
Q 31.109375 20.453125 19.1875 8.296875 
z
" id="DejaVuSans-50"/>
      </defs>
      <g transform="translate(211.962804 1296.198437)scale(0.1 -0.1)">
       <use xlink:href="#DejaVuSans-48"/>
       <use x="63.623047" xlink:href="#DejaVuSans-46"/>
       <use x="95.410156" xlink:href="#DejaVuSans-48"/>
       <use x="159.033203" xlink:href="#DejaVuSans-50"/>
      </g>
     </g>
    </g>
    <g id="xtick_2">
     <g id="line2d_2">
      <g>
       <use style="stroke:#000000;stroke-width:0.8;" x="432.227256" xlink:href="#me6daec6e71" y="1281.6"/>
      </g>
     </g>
     <g id="text_2">
      <!-- 0.04 -->
      <defs>
       <path d="M 37.796875 64.3125 
L 12.890625 25.390625 
L 37.796875 25.390625 
z
M 35.203125 72.90625 
L 47.609375 72.90625 
L 47.609375 25.390625 
L 58.015625 25.390625 
L 58.015625 17.1875 
L 47.609375 17.1875 
L 47.609375 0 
L 37.796875 0 
L 37.796875 17.1875 
L 4.890625 17.1875 
L 4.890625 26.703125 
z
" id="DejaVuSans-52"/>
      </defs>
      <g transform="translate(421.094444 1296.198437)scale(0.1 -0.1)">
       <use xlink:href="#DejaVuSans-48"/>
       <use x="63.623047" xlink:href="#DejaVuSans-46"/>
       <use x="95.410156" xlink:href="#DejaVuSans-48"/>
       <use x="159.033203" xlink:href="#DejaVuSans-52"/>
      </g>
     </g>
    </g>
    <g id="xtick_3">
     <g id="line2d_3">
      <g>
       <use style="stroke:#000000;stroke-width:0.8;" x="641.358895" xlink:href="#me6daec6e71" y="1281.6"/>
      </g>
     </g>
     <g id="text_3">
      <!-- 0.06 -->
      <defs>
       <path d="M 33.015625 40.375 
Q 26.375 40.375 22.484375 35.828125 
Q 18.609375 31.296875 18.609375 23.390625 
Q 18.609375 15.53125 22.484375 10.953125 
Q 26.375 6.390625 33.015625 6.390625 
Q 39.65625 6.390625 43.53125 10.953125 
Q 47.40625 15.53125 47.40625 23.390625 
Q 47.40625 31.296875 43.53125 35.828125 
Q 39.65625 40.375 33.015625 40.375 
z
M 52.59375 71.296875 
L 52.59375 62.3125 
Q 48.875 64.0625 45.09375 64.984375 
Q 41.3125 65.921875 37.59375 65.921875 
Q 27.828125 65.921875 22.671875 59.328125 
Q 17.53125 52.734375 16.796875 39.40625 
Q 19.671875 43.65625 24.015625 45.921875 
Q 28.375 48.1875 33.59375 48.1875 
Q 44.578125 48.1875 50.953125 41.515625 
Q 57.328125 34.859375 57.328125 23.390625 
Q 57.328125 12.15625 50.6875 5.359375 
Q 44.046875 -1.421875 33.015625 -1.421875 
Q 20.359375 -1.421875 13.671875 8.265625 
Q 6.984375 17.96875 6.984375 36.375 
Q 6.984375 53.65625 15.1875 63.9375 
Q 23.390625 74.21875 37.203125 74.21875 
Q 40.921875 74.21875 44.703125 73.484375 
Q 48.484375 72.75 52.59375 71.296875 
z
" id="DejaVuSans-54"/>
      </defs>
      <g transform="translate(630.226083 1296.198437)scale(0.1 -0.1)">
       <use xlink:href="#DejaVuSans-48"/>
       <use x="63.623047" xlink:href="#DejaVuSans-46"/>
       <use x="95.410156" xlink:href="#DejaVuSans-48"/>
       <use x="159.033203" xlink:href="#DejaVuSans-54"/>
      </g>
     </g>
    </g>
    <g id="xtick_4">
     <g id="line2d_4">
      <g>
       <use style="stroke:#000000;stroke-width:0.8;" x="850.490535" xlink:href="#me6daec6e71" y="1281.6"/>
      </g>
     </g>
     <g id="text_4">
      <!-- 0.08 -->
      <defs>
       <path d="M 31.78125 34.625 
Q 24.75 34.625 20.71875 30.859375 
Q 16.703125 27.09375 16.703125 20.515625 
Q 16.703125 13.921875 20.71875 10.15625 
Q 24.75 6.390625 31.78125 6.390625 
Q 38.8125 6.390625 42.859375 10.171875 
Q 46.921875 13.96875 46.921875 20.515625 
Q 46.921875 27.09375 42.890625 30.859375 
Q 38.875 34.625 31.78125 34.625 
z
M 21.921875 38.8125 
Q 15.578125 40.375 12.03125 44.71875 
Q 8.5 49.078125 8.5 55.328125 
Q 8.5 64.0625 14.71875 69.140625 
Q 20.953125 74.21875 31.78125 74.21875 
Q 42.671875 74.21875 48.875 69.140625 
Q 55.078125 64.0625 55.078125 55.328125 
Q 55.078125 49.078125 51.53125 44.71875 
Q 48 40.375 41.703125 38.8125 
Q 48.828125 37.15625 52.796875 32.3125 
Q 56.78125 27.484375 56.78125 20.515625 
Q 56.78125 9.90625 50.3125 4.234375 
Q 43.84375 -1.421875 31.78125 -1.421875 
Q 19.734375 -1.421875 13.25 4.234375 
Q 6.78125 9.90625 6.78125 20.515625 
Q 6.78125 27.484375 10.78125 32.3125 
Q 14.796875 37.15625 21.921875 38.8125 
z
M 18.3125 54.390625 
Q 18.3125 48.734375 21.84375 45.5625 
Q 25.390625 42.390625 31.78125 42.390625 
Q 38.140625 42.390625 41.71875 45.5625 
Q 45.3125 48.734375 45.3125 54.390625 
Q 45.3125 60.0625 41.71875 63.234375 
Q 38.140625 66.40625 31.78125 66.40625 
Q 25.390625 66.40625 21.84375 63.234375 
Q 18.3125 60.0625 18.3125 54.390625 
z
" id="DejaVuSans-56"/>
      </defs>
      <g transform="translate(839.357722 1296.198437)scale(0.1 -0.1)">
       <use xlink:href="#DejaVuSans-48"/>
       <use x="63.623047" xlink:href="#DejaVuSans-46"/>
       <use x="95.410156" xlink:href="#DejaVuSans-48"/>
       <use x="159.033203" xlink:href="#DejaVuSans-56"/>
      </g>
     </g>
    </g>
    <g id="xtick_5">
     <g id="line2d_5">
      <g>
       <use style="stroke:#000000;stroke-width:0.8;" x="1059.622174" xlink:href="#me6daec6e71" y="1281.6"/>
      </g>
     </g>
     <g id="text_5">
      <!-- 0.10 -->
      <defs>
       <path d="M 12.40625 8.296875 
L 28.515625 8.296875 
L 28.515625 63.921875 
L 10.984375 60.40625 
L 10.984375 69.390625 
L 28.421875 72.90625 
L 38.28125 72.90625 
L 38.28125 8.296875 
L 54.390625 8.296875 
L 54.390625 0 
L 12.40625 0 
z
" id="DejaVuSans-49"/>
      </defs>
      <g transform="translate(1048.489362 1296.198437)scale(0.1 -0.1)">
       <use xlink:href="#DejaVuSans-48"/>
       <use x="63.623047" xlink:href="#DejaVuSans-46"/>
       <use x="95.410156" xlink:href="#DejaVuSans-49"/>
       <use x="159.033203" xlink:href="#DejaVuSans-48"/>
      </g>
     </g>
    </g>
    <g id="xtick_6">
     <g id="line2d_6">
      <g>
       <use style="stroke:#000000;stroke-width:0.8;" x="1268.753814" xlink:href="#me6daec6e71" y="1281.6"/>
      </g>
     </g>
     <g id="text_6">
      <!-- 0.12 -->
      <g transform="translate(1257.621001 1296.198437)scale(0.1 -0.1)">
       <use xlink:href="#DejaVuSans-48"/>
       <use x="63.623047" xlink:href="#DejaVuSans-46"/>
       <use x="95.410156" xlink:href="#DejaVuSans-49"/>
       <use x="159.033203" xlink:href="#DejaVuSans-50"/>
      </g>
     </g>
    </g>
   </g>
   <g id="matplotlib.axis_2">
    <g id="ytick_1">
     <g id="line2d_7">
      <defs>
       <path d="M 0 0 
L -3.5 0 
" id="m57fa462ad2" style="stroke:#000000;stroke-width:0.8;"/>
      </defs>
      <g>
       <use style="stroke:#000000;stroke-width:0.8;" x="180" xlink:href="#m57fa462ad2" y="1168.778267"/>
      </g>
     </g>
     <g id="text_7">
      <!-- −0.3 -->
      <defs>
       <path d="M 10.59375 35.5 
L 73.1875 35.5 
L 73.1875 27.203125 
L 10.59375 27.203125 
z
" id="DejaVuSans-8722"/>
       <path d="M 40.578125 39.3125 
Q 47.65625 37.796875 51.625 33 
Q 55.609375 28.21875 55.609375 21.1875 
Q 55.609375 10.40625 48.1875 4.484375 
Q 40.765625 -1.421875 27.09375 -1.421875 
Q 22.515625 -1.421875 17.65625 -0.515625 
Q 12.796875 0.390625 7.625 2.203125 
L 7.625 11.71875 
Q 11.71875 9.328125 16.59375 8.109375 
Q 21.484375 6.890625 26.8125 6.890625 
Q 36.078125 6.890625 40.9375 10.546875 
Q 45.796875 14.203125 45.796875 21.1875 
Q 45.796875 27.640625 41.28125 31.265625 
Q 36.765625 34.90625 28.71875 34.90625 
L 20.21875 34.90625 
L 20.21875 43.015625 
L 29.109375 43.015625 
Q 36.375 43.015625 40.234375 45.921875 
Q 44.09375 48.828125 44.09375 54.296875 
Q 44.09375 59.90625 40.109375 62.90625 
Q 36.140625 65.921875 28.71875 65.921875 
Q 24.65625 65.921875 20.015625 65.03125 
Q 15.375 64.15625 9.8125 62.3125 
L 9.8125 71.09375 
Q 15.4375 72.65625 20.34375 73.4375 
Q 25.25 74.21875 29.59375 74.21875 
Q 40.828125 74.21875 47.359375 69.109375 
Q 53.90625 64.015625 53.90625 55.328125 
Q 53.90625 49.265625 50.4375 45.09375 
Q 46.96875 40.921875 40.578125 39.3125 
z
" id="DejaVuSans-51"/>
      </defs>
      <g transform="translate(148.717187 1172.577486)scale(0.1 -0.1)">
       <use xlink:href="#DejaVuSans-8722"/>
       <use x="83.789062" xlink:href="#DejaVuSans-48"/>
       <use x="147.412109" xlink:href="#DejaVuSans-46"/>
       <use x="179.199219" xlink:href="#DejaVuSans-51"/>
      </g>
     </g>
    </g>
    <g id="ytick_2">
     <g id="line2d_8">
      <g>
       <use style="stroke:#000000;stroke-width:0.8;" x="180" xlink:href="#m57fa462ad2" y="941.364162"/>
      </g>
     </g>
     <g id="text_8">
      <!-- −0.2 -->
      <g transform="translate(148.717187 945.163381)scale(0.1 -0.1)">
       <use xlink:href="#DejaVuSans-8722"/>
       <use x="83.789062" xlink:href="#DejaVuSans-48"/>
       <use x="147.412109" xlink:href="#DejaVuSans-46"/>
       <use x="179.199219" xlink:href="#DejaVuSans-50"/>
      </g>
     </g>
    </g>
    <g id="ytick_3">
     <g id="line2d_9">
      <g>
       <use style="stroke:#000000;stroke-width:0.8;" x="180" xlink:href="#m57fa462ad2" y="713.950057"/>
      </g>
     </g>
     <g id="text_9">
      <!-- −0.1 -->
      <g transform="translate(148.717187 717.749276)scale(0.1 -0.1)">
       <use xlink:href="#DejaVuSans-8722"/>
       <use x="83.789062" xlink:href="#DejaVuSans-48"/>
       <use x="147.412109" xlink:href="#DejaVuSans-46"/>
       <use x="179.199219" xlink:href="#DejaVuSans-49"/>
      </g>
     </g>
    </g>
    <g id="ytick_4">
     <g id="line2d_10">
      <g>
       <use style="stroke:#000000;stroke-width:0.8;" x="180" xlink:href="#m57fa462ad2" y="486.535953"/>
      </g>
     </g>
     <g id="text_10">
      <!-- 0.0 -->
      <g transform="translate(157.096875 490.335171)scale(0.1 -0.1)">
       <use xlink:href="#DejaVuSans-48"/>
       <use x="63.623047" xlink:href="#DejaVuSans-46"/>
       <use x="95.410156" xlink:href="#DejaVuSans-48"/>
      </g>
     </g>
    </g>
    <g id="ytick_5">
     <g id="line2d_11">
      <g>
       <use style="stroke:#000000;stroke-width:0.8;" x="180" xlink:href="#m57fa462ad2" y="259.121848"/>
      </g>
     </g>
     <g id="text_11">
      <!-- 0.1 -->
      <g transform="translate(157.096875 262.921067)scale(0.1 -0.1)">
       <use xlink:href="#DejaVuSans-48"/>
       <use x="63.623047" xlink:href="#DejaVuSans-46"/>
       <use x="95.410156" xlink:href="#DejaVuSans-49"/>
      </g>
     </g>
    </g>
   </g>
   <g id="line2d_12">
    <defs>
     <path d="M 0 9 
C 2.386828 9 4.676219 8.051703 6.363961 6.363961 
C 8.051703 4.676219 9 2.386828 9 0 
C 9 -2.386828 8.051703 -4.676219 6.363961 -6.363961 
C 4.676219 -8.051703 2.386828 -9 0 -9 
C -2.386828 -9 -4.676219 -8.051703 -6.363961 -6.363961 
C -8.051703 -4.676219 -9 -2.386828 -9 0 
C -9 2.386828 -8.051703 4.676219 -6.363961 6.363961 
C -4.676219 8.051703 -2.386828 9 0 9 
z
" id="m09f7439360" style="stroke:#000000;"/>
    </defs>
    <g clip-path="url(#p565fa8d35f)">
     <use style="fill:#9e0142;stroke:#000000;" x="1049.876842" xlink:href="#m09f7439360" y="580.623775"/>
    </g>
   </g>
   <g id="line2d_13">
    <g clip-path="url(#p565fa8d35f)">
     <use style="fill:#9e0142;stroke:#000000;" x="903.885763" xlink:href="#m09f7439360" y="1224.940296"/>
    </g>
   </g>
   <g id="line2d_14">
    <g clip-path="url(#p565fa8d35f)">
     <use style="fill:#9e0142;stroke:#000000;" x="1105.197031" xlink:href="#m09f7439360" y="1006.587799"/>
    </g>
   </g>
   <g id="line2d_15">
    <g clip-path="url(#p565fa8d35f)">
     <use style="fill:#9e0142;stroke:#000000;" x="1226.851653" xlink:href="#m09f7439360" y="364.71553"/>
    </g>
   </g>
   <g id="line2d_16">
    <g clip-path="url(#p565fa8d35f)">
     <use style="fill:#9e0142;stroke:#000000;" x="1213.728156" xlink:href="#m09f7439360" y="348.421157"/>
    </g>
   </g>
   <g id="line2d_17">
    <g clip-path="url(#p565fa8d35f)">
     <use style="fill:#9e0142;stroke:#000000;" x="1228.881019" xlink:href="#m09f7439360" y="364.891718"/>
    </g>
   </g>
   <g id="line2d_18">
    <g clip-path="url(#p565fa8d35f)">
     <use style="fill:#9e0142;stroke:#000000;" x="1241.430945" xlink:href="#m09f7439360" y="366.779657"/>
    </g>
   </g>
   <g id="line2d_19">
    <g clip-path="url(#p565fa8d35f)">
     <use style="fill:#9e0142;stroke:#000000;" x="1233.580314" xlink:href="#m09f7439360" y="364.978394"/>
    </g>
   </g>
   <g id="line2d_20">
    <g clip-path="url(#p565fa8d35f)">
     <use style="fill:#9e0142;stroke:#000000;" x="1236.598806" xlink:href="#m09f7439360" y="364.994005"/>
    </g>
   </g>
   <g id="line2d_21">
    <g clip-path="url(#p565fa8d35f)">
     <use style="fill:#9e0142;stroke:#000000;" x="1225.240626" xlink:href="#m09f7439360" y="365.980121"/>
    </g>
   </g>
   <g id="line2d_22">
    <g clip-path="url(#p565fa8d35f)">
     <use style="fill:#9e0142;stroke:#000000;" x="1227.854072" xlink:href="#m09f7439360" y="366.792046"/>
    </g>
   </g>
   <g id="line2d_23">
    <g clip-path="url(#p565fa8d35f)">
     <use style="fill:#9e0142;stroke:#000000;" x="1234.959118" xlink:href="#m09f7439360" y="365.174848"/>
    </g>
   </g>
   <g id="line2d_24">
    <g clip-path="url(#p565fa8d35f)">
     <use style="fill:#9e0142;stroke:#000000;" x="1152.267962" xlink:href="#m09f7439360" y="715.563677"/>
    </g>
   </g>
   <g id="line2d_25">
    <defs>
     <path d="M 0 3 
C 0.795609 3 1.55874 2.683901 2.12132 2.12132 
C 2.683901 1.55874 3 0.795609 3 0 
C 3 -0.795609 2.683901 -1.55874 2.12132 -2.12132 
C 1.55874 -2.683901 0.795609 -3 0 -3 
C -0.795609 -3 -1.55874 -2.683901 -2.12132 -2.12132 
C -2.683901 -1.55874 -3 -0.795609 -3 0 
C -3 0.795609 -2.683901 1.55874 -2.12132 2.12132 
C -1.55874 2.683901 -0.795609 3 0 3 
z
" id="m9f61cc6e80" style="stroke:#000000;"/>
    </defs>
    <g clip-path="url(#p565fa8d35f)">
     <use style="stroke:#000000;" x="644.537751" xlink:href="#m9f61cc6e80" y="562.780081"/>
    </g>
   </g>
   <g id="line2d_26">
    <g clip-path="url(#p565fa8d35f)">
     <use style="fill:#9e0142;stroke:#000000;" x="1042.795883" xlink:href="#m09f7439360" y="578.874022"/>
    </g>
   </g>
   <g id="line2d_27">
    <g clip-path="url(#p565fa8d35f)">
     <use style="fill:#9e0142;stroke:#000000;" x="1227.013903" xlink:href="#m09f7439360" y="365.171014"/>
    </g>
   </g>
   <g id="line2d_28">
    <g clip-path="url(#p565fa8d35f)">
     <use style="fill:#9e0142;stroke:#000000;" x="1089.716358" xlink:href="#m09f7439360" y="1012.845266"/>
    </g>
   </g>
   <g id="line2d_29">
    <g clip-path="url(#p565fa8d35f)">
     <use style="stroke:#000000;" x="521.465611" xlink:href="#m9f61cc6e80" y="1210.375161"/>
    </g>
   </g>
   <g id="line2d_30">
    <g clip-path="url(#p565fa8d35f)">
     <use style="fill:#9e0142;stroke:#000000;" x="1222.673174" xlink:href="#m09f7439360" y="366.417638"/>
    </g>
   </g>
   <g id="line2d_31">
    <g clip-path="url(#p565fa8d35f)">
     <use style="fill:#9e0142;stroke:#000000;" x="1044.513005" xlink:href="#m09f7439360" y="580.206288"/>
    </g>
   </g>
   <g id="line2d_32">
    <g clip-path="url(#p565fa8d35f)">
     <use style="fill:#9e0142;stroke:#000000;" x="1235.017101" xlink:href="#m09f7439360" y="366.027389"/>
    </g>
   </g>
   <g id="line2d_33">
    <g clip-path="url(#p565fa8d35f)">
     <use style="fill:#9e0142;stroke:#000000;" x="1238.850113" xlink:href="#m09f7439360" y="365.345931"/>
    </g>
   </g>
   <g id="line2d_34">
    <g clip-path="url(#p565fa8d35f)">
     <use style="stroke:#000000;" x="775.838996" xlink:href="#m9f61cc6e80" y="534.576632"/>
    </g>
   </g>
   <g id="line2d_35">
    <g clip-path="url(#p565fa8d35f)">
     <use style="fill:#9e0142;stroke:#000000;" x="1107.814273" xlink:href="#m09f7439360" y="1009.037674"/>
    </g>
   </g>
   <g id="line2d_36">
    <g clip-path="url(#p565fa8d35f)">
     <use style="fill:#9e0142;stroke:#000000;" x="1223.672044" xlink:href="#m09f7439360" y="365.788477"/>
    </g>
   </g>
   <g id="line2d_37">
    <g clip-path="url(#p565fa8d35f)">
     <use style="fill:#9e0142;stroke:#000000;" x="909.536195" xlink:href="#m09f7439360" y="1231.2"/>
    </g>
   </g>
   <g id="line2d_38">
    <g clip-path="url(#p565fa8d35f)">
     <use style="fill:#9e0142;stroke:#000000;" x="910.036788" xlink:href="#m09f7439360" y="1230.825457"/>
    </g>
   </g>
   <g id="line2d_39">
    <g clip-path="url(#p565fa8d35f)">
     <use style="fill:#9e0142;stroke:#000000;" x="1234.86412" xlink:href="#m09f7439360" y="366.747098"/>
    </g>
   </g>
   <g id="line2d_40">
    <g clip-path="url(#p565fa8d35f)">
     <use style="stroke:#000000;" x="230.727273" xlink:href="#m9f61cc6e80" y="223.2"/>
    </g>
   </g>
   <g id="line2d_41">
    <g clip-path="url(#p565fa8d35f)">
     <use style="fill:#9e0142;stroke:#000000;" x="1225.765931" xlink:href="#m09f7439360" y="365.14328"/>
    </g>
   </g>
   <g id="line2d_42">
    <g clip-path="url(#p565fa8d35f)">
     <use style="stroke:#000000;" x="1112.284556" xlink:href="#m9f61cc6e80" y="307.463827"/>
    </g>
   </g>
   <g id="line2d_43">
    <g clip-path="url(#p565fa8d35f)">
     <use style="fill:#9e0142;stroke:#000000;" x="1242.624668" xlink:href="#m09f7439360" y="365.497956"/>
    </g>
   </g>
   <g id="line2d_44">
    <g clip-path="url(#p565fa8d35f)">
     <use style="fill:#9e0142;stroke:#000000;" x="913.172615" xlink:href="#m09f7439360" y="1228.488779"/>
    </g>
   </g>
   <g id="line2d_45">
    <g clip-path="url(#p565fa8d35f)">
     <use style="fill:#9e0142;stroke:#000000;" x="1224.635289" xlink:href="#m09f7439360" y="365.215477"/>
    </g>
   </g>
   <g id="line2d_46">
    <g clip-path="url(#p565fa8d35f)">
     <use style="fill:#9e0142;stroke:#000000;" x="1237.508886" xlink:href="#m09f7439360" y="364.978665"/>
    </g>
   </g>
   <g id="line2d_47">
    <g clip-path="url(#p565fa8d35f)">
     <use style="fill:#9e0142;stroke:#000000;" x="1225.114941" xlink:href="#m09f7439360" y="365.02735"/>
    </g>
   </g>
   <g id="line2d_48">
    <g clip-path="url(#p565fa8d35f)">
     <use style="fill:#9e0142;stroke:#000000;" x="1222.087436" xlink:href="#m09f7439360" y="364.830862"/>
    </g>
   </g>
   <g id="line2d_49">
    <g clip-path="url(#p565fa8d35f)">
     <use style="fill:#9e0142;stroke:#000000;" x="1244.790928" xlink:href="#m09f7439360" y="366.853002"/>
    </g>
   </g>
   <g id="line2d_50">
    <g clip-path="url(#p565fa8d35f)">
     <use style="fill:#9e0142;stroke:#000000;" x="1225.239577" xlink:href="#m09f7439360" y="365.094346"/>
    </g>
   </g>
   <g id="line2d_51">
    <g clip-path="url(#p565fa8d35f)">
     <use style="fill:#9e0142;stroke:#000000;" x="1224.869974" xlink:href="#m09f7439360" y="365.601733"/>
    </g>
   </g>
   <g id="line2d_52">
    <g clip-path="url(#p565fa8d35f)">
     <use style="fill:#9e0142;stroke:#000000;" x="1223.729685" xlink:href="#m09f7439360" y="365.844243"/>
    </g>
   </g>
   <g id="line2d_53">
    <g clip-path="url(#p565fa8d35f)">
     <use style="fill:#9e0142;stroke:#000000;" x="1151.866752" xlink:href="#m09f7439360" y="715.22001"/>
    </g>
   </g>
   <g id="line2d_54">
    <g clip-path="url(#p565fa8d35f)">
     <use style="fill:#9e0142;stroke:#000000;" x="1238.92095" xlink:href="#m09f7439360" y="365.951454"/>
    </g>
   </g>
   <g id="line2d_55">
    <g clip-path="url(#p565fa8d35f)">
     <use style="fill:#9e0142;stroke:#000000;" x="1233.774275" xlink:href="#m09f7439360" y="365.679423"/>
    </g>
   </g>
   <g id="line2d_56">
    <g clip-path="url(#p565fa8d35f)">
     <use style="fill:#9e0142;stroke:#000000;" x="1235.933681" xlink:href="#m09f7439360" y="366.779139"/>
    </g>
   </g>
   <g id="line2d_57">
    <g clip-path="url(#p565fa8d35f)">
     <use style="fill:#9e0142;stroke:#000000;" x="1224.011254" xlink:href="#m09f7439360" y="365.926836"/>
    </g>
   </g>
   <g id="line2d_58">
    <g clip-path="url(#p565fa8d35f)">
     <use style="fill:#9e0142;stroke:#000000;" x="1239.792245" xlink:href="#m09f7439360" y="366.715522"/>
    </g>
   </g>
   <g id="line2d_59">
    <g clip-path="url(#p565fa8d35f)">
     <use style="fill:#9e0142;stroke:#000000;" x="1222.27503" xlink:href="#m09f7439360" y="365.465083"/>
    </g>
   </g>
   <g id="line2d_60">
    <g clip-path="url(#p565fa8d35f)">
     <use style="stroke:#000000;" x="1182.498007" xlink:href="#m9f61cc6e80" y="334.288344"/>
    </g>
   </g>
   <g id="line2d_61">
    <g clip-path="url(#p565fa8d35f)">
     <use style="stroke:#000000;" x="546.439042" xlink:href="#m9f61cc6e80" y="268.70236"/>
    </g>
   </g>
   <g id="line2d_62">
    <g clip-path="url(#p565fa8d35f)">
     <use style="fill:#9e0142;stroke:#000000;" x="1221.630835" xlink:href="#m09f7439360" y="366.158827"/>
    </g>
   </g>
   <g id="line2d_63">
    <g clip-path="url(#p565fa8d35f)">
     <use style="fill:#9e0142;stroke:#000000;" x="1225.984248" xlink:href="#m09f7439360" y="365.845322"/>
    </g>
   </g>
   <g id="line2d_64">
    <g clip-path="url(#p565fa8d35f)">
     <use style="stroke:#000000;" x="701.976847" xlink:href="#m9f61cc6e80" y="290.246299"/>
    </g>
   </g>
   <g id="line2d_65">
    <g clip-path="url(#p565fa8d35f)">
     <use style="fill:#9e0142;stroke:#000000;" x="1245.272727" xlink:href="#m09f7439360" y="365.404309"/>
    </g>
   </g>
   <g id="line2d_66">
    <g clip-path="url(#p565fa8d35f)">
     <use style="fill:#9e0142;stroke:#000000;" x="1045.402414" xlink:href="#m09f7439360" y="579.978551"/>
    </g>
   </g>
   <g id="line2d_67">
    <g clip-path="url(#p565fa8d35f)">
     <use style="fill:#9e0142;stroke:#000000;" x="1235.070985" xlink:href="#m09f7439360" y="365.642266"/>
    </g>
   </g>
   <g id="line2d_68">
    <g clip-path="url(#p565fa8d35f)">
     <use style="fill:#9e0142;stroke:#000000;" x="1227.958706" xlink:href="#m09f7439360" y="365.507316"/>
    </g>
   </g>
   <g id="line2d_69">
    <g clip-path="url(#p565fa8d35f)">
     <use style="stroke:#000000;" x="263.411589" xlink:href="#m9f61cc6e80" y="397.976857"/>
    </g>
   </g>
   <g id="line2d_70">
    <g clip-path="url(#p565fa8d35f)">
     <use style="fill:#9e0142;stroke:#000000;" x="1223.459569" xlink:href="#m09f7439360" y="366.295875"/>
    </g>
   </g>
   <g id="line2d_71">
    <g clip-path="url(#p565fa8d35f)">
     <use style="fill:#9e0142;stroke:#000000;" x="1230.23065" xlink:href="#m09f7439360" y="365.401031"/>
    </g>
   </g>
   <g id="line2d_72">
    <g clip-path="url(#p565fa8d35f)">
     <use style="fill:#9e0142;stroke:#000000;" x="1117.701771" xlink:href="#m09f7439360" y="712.913303"/>
    </g>
   </g>
   <g id="line2d_73">
    <g clip-path="url(#p565fa8d35f)">
     <use style="fill:#9e0142;stroke:#000000;" x="1116.879874" xlink:href="#m09f7439360" y="710.718111"/>
    </g>
   </g>
   <g id="line2d_74">
    <g clip-path="url(#p565fa8d35f)">
     <use style="fill:#9e0142;stroke:#000000;" x="1233.617635" xlink:href="#m09f7439360" y="365.59924"/>
    </g>
   </g>
   <g id="line2d_75">
    <g clip-path="url(#p565fa8d35f)">
     <use style="fill:#9e0142;stroke:#000000;" x="1227.679162" xlink:href="#m09f7439360" y="365.361199"/>
    </g>
   </g>
   <g id="line2d_76">
    <g clip-path="url(#p565fa8d35f)">
     <use style="fill:#9e0142;stroke:#000000;" x="1041.196487" xlink:href="#m09f7439360" y="579.027703"/>
    </g>
   </g>
   <g id="line2d_77">
    <g clip-path="url(#p565fa8d35f)">
     <use style="fill:#9e0142;stroke:#000000;" x="1040.65324" xlink:href="#m09f7439360" y="579.41475"/>
    </g>
   </g>
   <g id="line2d_78">
    <g clip-path="url(#p565fa8d35f)">
     <use style="fill:#9e0142;stroke:#000000;" x="1044.199902" xlink:href="#m09f7439360" y="579.93869"/>
    </g>
   </g>
   <g id="line2d_79">
    <g clip-path="url(#p565fa8d35f)">
     <use style="fill:#9e0142;stroke:#000000;" x="1152.953382" xlink:href="#m09f7439360" y="716.978132"/>
    </g>
   </g>
   <g id="line2d_80">
    <g clip-path="url(#p565fa8d35f)">
     <use style="stroke:#000000;" x="527.410719" xlink:href="#m9f61cc6e80" y="460.115561"/>
    </g>
   </g>
   <g id="line2d_81">
    <g clip-path="url(#p565fa8d35f)">
     <use style="fill:#9e0142;stroke:#000000;" x="1230.086548" xlink:href="#m09f7439360" y="365.42158"/>
    </g>
   </g>
   <g id="line2d_82">
    <g clip-path="url(#p565fa8d35f)">
     <use style="fill:#9e0142;stroke:#000000;" x="1040.982966" xlink:href="#m09f7439360" y="579.066339"/>
    </g>
   </g>
   <g id="line2d_83">
    <g clip-path="url(#p565fa8d35f)">
     <use style="fill:#9e0142;stroke:#000000;" x="1096.418415" xlink:href="#m09f7439360" y="1007.674626"/>
    </g>
   </g>
   <g id="line2d_84">
    <g clip-path="url(#p565fa8d35f)">
     <use style="fill:#9e0142;stroke:#000000;" x="1235.895104" xlink:href="#m09f7439360" y="364.825672"/>
    </g>
   </g>
   <g id="line2d_85">
    <g clip-path="url(#p565fa8d35f)">
     <use style="fill:#9e0142;stroke:#000000;" x="1044.681205" xlink:href="#m09f7439360" y="578.896793"/>
    </g>
   </g>
   <g id="line2d_86">
    <g clip-path="url(#p565fa8d35f)">
     <use style="fill:#9e0142;stroke:#000000;" x="1042.628793" xlink:href="#m09f7439360" y="579.82659"/>
    </g>
   </g>
   <g id="line2d_87">
    <g clip-path="url(#p565fa8d35f)">
     <use style="fill:#9e0142;stroke:#000000;" x="1245.09939" xlink:href="#m09f7439360" y="365.976743"/>
    </g>
   </g>
   <g id="line2d_88">
    <g clip-path="url(#p565fa8d35f)">
     <use style="fill:#9e0142;stroke:#000000;" x="1038.79745" xlink:href="#m09f7439360" y="579.784469"/>
    </g>
   </g>
   <g id="line2d_89">
    <g clip-path="url(#p565fa8d35f)">
     <use style="fill:#9e0142;stroke:#000000;" x="1043.742041" xlink:href="#m09f7439360" y="579.319163"/>
    </g>
   </g>
   <g id="line2d_90">
    <g clip-path="url(#p565fa8d35f)">
     <use style="fill:#9e0142;stroke:#000000;" x="1238.070463" xlink:href="#m09f7439360" y="366.772659"/>
    </g>
   </g>
   <g id="line2d_91">
    <g clip-path="url(#p565fa8d35f)">
     <use style="fill:#9e0142;stroke:#000000;" x="1230.387887" xlink:href="#m09f7439360" y="366.486611"/>
    </g>
   </g>
   <g id="line2d_92">
    <g clip-path="url(#p565fa8d35f)">
     <use style="fill:#9e0142;stroke:#000000;" x="1236.970995" xlink:href="#m09f7439360" y="364.984229"/>
    </g>
   </g>
   <g id="line2d_93">
    <g clip-path="url(#p565fa8d35f)">
     <use style="fill:#9e0142;stroke:#000000;" x="1037.909008" xlink:href="#m09f7439360" y="580.095545"/>
    </g>
   </g>
   <g id="line2d_94">
    <g clip-path="url(#p565fa8d35f)">
     <use style="fill:#9e0142;stroke:#000000;" x="1239.11868" xlink:href="#m09f7439360" y="365.59493"/>
    </g>
   </g>
   <g id="line2d_95">
    <g clip-path="url(#p565fa8d35f)">
     <use style="fill:#9e0142;stroke:#000000;" x="1040.381879" xlink:href="#m09f7439360" y="578.826517"/>
    </g>
   </g>
   <g id="line2d_96">
    <g clip-path="url(#p565fa8d35f)">
     <use style="fill:#9e0142;stroke:#000000;" x="1052.687668" xlink:href="#m09f7439360" y="579.134246"/>
    </g>
   </g>
   <g id="line2d_97">
    <g clip-path="url(#p565fa8d35f)">
     <use style="fill:#9e0142;stroke:#000000;" x="1242.344184" xlink:href="#m09f7439360" y="365.945628"/>
    </g>
   </g>
   <g id="line2d_98">
    <g clip-path="url(#p565fa8d35f)">
     <use style="fill:#9e0142;stroke:#000000;" x="1241.971337" xlink:href="#m09f7439360" y="366.72545"/>
    </g>
   </g>
   <g id="line2d_99">
    <g clip-path="url(#p565fa8d35f)">
     <use style="fill:#9e0142;stroke:#000000;" x="1243.169218" xlink:href="#m09f7439360" y="364.76266"/>
    </g>
   </g>
   <g id="patch_3">
    <path d="M 180 1281.6 
L 180 172.8 
" style="fill:none;stroke:#000000;stroke-linecap:square;stroke-linejoin:miter;stroke-width:0.8;"/>
   </g>
   <g id="patch_4">
    <path d="M 1296 1281.6 
L 1296 172.8 
" style="fill:none;stroke:#000000;stroke-linecap:square;stroke-linejoin:miter;stroke-width:0.8;"/>
   </g>
   <g id="patch_5">
    <path d="M 180 1281.6 
L 1296 1281.6 
" style="fill:none;stroke:#000000;stroke-linecap:square;stroke-linejoin:miter;stroke-width:0.8;"/>
   </g>
   <g id="patch_6">
    <path d="M 180 172.8 
L 1296 172.8 
" style="fill:none;stroke:#000000;stroke-linecap:square;stroke-linejoin:miter;stroke-width:0.8;"/>
   </g>
  </g>
 </g>
 <defs>
  <clipPath id="p565fa8d35f">
   <rect height="1108.8" width="1116" x="180" y="172.8"/>
  </clipPath>
 </defs>
</svg>
