<?xml version="1.0" encoding="utf-8" standalone="no"?>
<!DOCTYPE svg PUBLIC "-//W3C//DTD SVG 1.1//EN"
  "http://www.w3.org/Graphics/SVG/1.1/DTD/svg11.dtd">
<!-- Created with matplotlib (https://matplotlib.org/) -->
<svg height="1440pt" version="1.1" viewBox="0 0 1440 1440" width="1440pt" xmlns="http://www.w3.org/2000/svg" xmlns:xlink="http://www.w3.org/1999/xlink">
 <defs>
  <style type="text/css">
*{stroke-linecap:butt;stroke-linejoin:round;}
  </style>
 </defs>
 <g id="figure_1">
  <g id="patch_1">
   <path d="M 0 1440 
L 1440 1440 
L 1440 0 
L 0 0 
z
" style="fill:#ffffff;"/>
  </g>
  <g id="axes_1">
   <g id="patch_2">
    <path d="M 180 1281.6 
L 1296 1281.6 
L 1296 172.8 
L 180 172.8 
z
" style="fill:#ffffff;"/>
   </g>
   <g id="matplotlib.axis_1">
    <g id="xtick_1">
     <g id="line2d_1">
      <defs>
       <path d="M 0 0 
L 0 3.5 
" id="m2ce7a91d3d" style="stroke:#000000;stroke-width:0.8;"/>
      </defs>
      <g>
       <use style="stroke:#000000;stroke-width:0.8;" x="273.070883" xlink:href="#m2ce7a91d3d" y="1281.6"/>
      </g>
     </g>
     <g id="text_1">
      <!-- −0.050 -->
      <defs>
       <path d="M 10.59375 35.5 
L 73.1875 35.5 
L 73.1875 27.203125 
L 10.59375 27.203125 
z
" id="DejaVuSans-8722"/>
       <path d="M 31.78125 66.40625 
Q 24.171875 66.40625 20.328125 58.90625 
Q 16.5 51.421875 16.5 36.375 
Q 16.5 21.390625 20.328125 13.890625 
Q 24.171875 6.390625 31.78125 6.390625 
Q 39.453125 6.390625 43.28125 13.890625 
Q 47.125 21.390625 47.125 36.375 
Q 47.125 51.421875 43.28125 58.90625 
Q 39.453125 66.40625 31.78125 66.40625 
z
M 31.78125 74.21875 
Q 44.046875 74.21875 50.515625 64.515625 
Q 56.984375 54.828125 56.984375 36.375 
Q 56.984375 17.96875 50.515625 8.265625 
Q 44.046875 -1.421875 31.78125 -1.421875 
Q 19.53125 -1.421875 13.0625 8.265625 
Q 6.59375 17.96875 6.59375 36.375 
Q 6.59375 54.828125 13.0625 64.515625 
Q 19.53125 74.21875 31.78125 74.21875 
z
" id="DejaVuSans-48"/>
       <path d="M 10.6875 12.40625 
L 21 12.40625 
L 21 0 
L 10.6875 0 
z
" id="DejaVuSans-46"/>
       <path d="M 10.796875 72.90625 
L 49.515625 72.90625 
L 49.515625 64.59375 
L 19.828125 64.59375 
L 19.828125 46.734375 
Q 21.96875 47.46875 24.109375 47.828125 
Q 26.265625 48.1875 28.421875 48.1875 
Q 40.625 48.1875 47.75 41.5 
Q 54.890625 34.8125 54.890625 23.390625 
Q 54.890625 11.625 47.5625 5.09375 
Q 40.234375 -1.421875 26.90625 -1.421875 
Q 22.3125 -1.421875 17.546875 -0.640625 
Q 12.796875 0.140625 7.71875 1.703125 
L 7.71875 11.625 
Q 12.109375 9.234375 16.796875 8.0625 
Q 21.484375 6.890625 26.703125 6.890625 
Q 35.15625 6.890625 40.078125 11.328125 
Q 45.015625 15.765625 45.015625 23.390625 
Q 45.015625 31 40.078125 35.4375 
Q 35.15625 39.890625 26.703125 39.890625 
Q 22.75 39.890625 18.8125 39.015625 
Q 14.890625 38.140625 10.796875 36.28125 
z
" id="DejaVuSans-53"/>
      </defs>
      <g transform="translate(254.566977 1296.198437)scale(0.1 -0.1)">
       <use xlink:href="#DejaVuSans-8722"/>
       <use x="83.789062" xlink:href="#DejaVuSans-48"/>
       <use x="147.412109" xlink:href="#DejaVuSans-46"/>
       <use x="179.199219" xlink:href="#DejaVuSans-48"/>
       <use x="242.822266" xlink:href="#DejaVuSans-53"/>
       <use x="306.445312" xlink:href="#DejaVuSans-48"/>
      </g>
     </g>
    </g>
    <g id="xtick_2">
     <g id="line2d_2">
      <g>
       <use style="stroke:#000000;stroke-width:0.8;" x="398.428968" xlink:href="#m2ce7a91d3d" y="1281.6"/>
      </g>
     </g>
     <g id="text_2">
      <!-- −0.025 -->
      <defs>
       <path d="M 19.1875 8.296875 
L 53.609375 8.296875 
L 53.609375 0 
L 7.328125 0 
L 7.328125 8.296875 
Q 12.9375 14.109375 22.625 23.890625 
Q 32.328125 33.6875 34.8125 36.53125 
Q 39.546875 41.84375 41.421875 45.53125 
Q 43.3125 49.21875 43.3125 52.78125 
Q 43.3125 58.59375 39.234375 62.25 
Q 35.15625 65.921875 28.609375 65.921875 
Q 23.96875 65.921875 18.8125 64.3125 
Q 13.671875 62.703125 7.8125 59.421875 
L 7.8125 69.390625 
Q 13.765625 71.78125 18.9375 73 
Q 24.125 74.21875 28.421875 74.21875 
Q 39.75 74.21875 46.484375 68.546875 
Q 53.21875 62.890625 53.21875 53.421875 
Q 53.21875 48.921875 51.53125 44.890625 
Q 49.859375 40.875 45.40625 35.40625 
Q 44.1875 33.984375 37.640625 27.21875 
Q 31.109375 20.453125 19.1875 8.296875 
z
" id="DejaVuSans-50"/>
      </defs>
      <g transform="translate(379.925061 1296.198437)scale(0.1 -0.1)">
       <use xlink:href="#DejaVuSans-8722"/>
       <use x="83.789062" xlink:href="#DejaVuSans-48"/>
       <use x="147.412109" xlink:href="#DejaVuSans-46"/>
       <use x="179.199219" xlink:href="#DejaVuSans-48"/>
       <use x="242.822266" xlink:href="#DejaVuSans-50"/>
       <use x="306.445312" xlink:href="#DejaVuSans-53"/>
      </g>
     </g>
    </g>
    <g id="xtick_3">
     <g id="line2d_3">
      <g>
       <use style="stroke:#000000;stroke-width:0.8;" x="523.787052" xlink:href="#m2ce7a91d3d" y="1281.6"/>
      </g>
     </g>
     <g id="text_3">
      <!-- 0.000 -->
      <g transform="translate(509.472989 1296.198437)scale(0.1 -0.1)">
       <use xlink:href="#DejaVuSans-48"/>
       <use x="63.623047" xlink:href="#DejaVuSans-46"/>
       <use x="95.410156" xlink:href="#DejaVuSans-48"/>
       <use x="159.033203" xlink:href="#DejaVuSans-48"/>
       <use x="222.65625" xlink:href="#DejaVuSans-48"/>
      </g>
     </g>
    </g>
    <g id="xtick_4">
     <g id="line2d_4">
      <g>
       <use style="stroke:#000000;stroke-width:0.8;" x="649.145136" xlink:href="#m2ce7a91d3d" y="1281.6"/>
      </g>
     </g>
     <g id="text_4">
      <!-- 0.025 -->
      <g transform="translate(634.831073 1296.198437)scale(0.1 -0.1)">
       <use xlink:href="#DejaVuSans-48"/>
       <use x="63.623047" xlink:href="#DejaVuSans-46"/>
       <use x="95.410156" xlink:href="#DejaVuSans-48"/>
       <use x="159.033203" xlink:href="#DejaVuSans-50"/>
       <use x="222.65625" xlink:href="#DejaVuSans-53"/>
      </g>
     </g>
    </g>
    <g id="xtick_5">
     <g id="line2d_5">
      <g>
       <use style="stroke:#000000;stroke-width:0.8;" x="774.50322" xlink:href="#m2ce7a91d3d" y="1281.6"/>
      </g>
     </g>
     <g id="text_5">
      <!-- 0.050 -->
      <g transform="translate(760.189158 1296.198437)scale(0.1 -0.1)">
       <use xlink:href="#DejaVuSans-48"/>
       <use x="63.623047" xlink:href="#DejaVuSans-46"/>
       <use x="95.410156" xlink:href="#DejaVuSans-48"/>
       <use x="159.033203" xlink:href="#DejaVuSans-53"/>
       <use x="222.65625" xlink:href="#DejaVuSans-48"/>
      </g>
     </g>
    </g>
    <g id="xtick_6">
     <g id="line2d_6">
      <g>
       <use style="stroke:#000000;stroke-width:0.8;" x="899.861304" xlink:href="#m2ce7a91d3d" y="1281.6"/>
      </g>
     </g>
     <g id="text_6">
      <!-- 0.075 -->
      <defs>
       <path d="M 8.203125 72.90625 
L 55.078125 72.90625 
L 55.078125 68.703125 
L 28.609375 0 
L 18.3125 0 
L 43.21875 64.59375 
L 8.203125 64.59375 
z
" id="DejaVuSans-55"/>
      </defs>
      <g transform="translate(885.547242 1296.198437)scale(0.1 -0.1)">
       <use xlink:href="#DejaVuSans-48"/>
       <use x="63.623047" xlink:href="#DejaVuSans-46"/>
       <use x="95.410156" xlink:href="#DejaVuSans-48"/>
       <use x="159.033203" xlink:href="#DejaVuSans-55"/>
       <use x="222.65625" xlink:href="#DejaVuSans-53"/>
      </g>
     </g>
    </g>
    <g id="xtick_7">
     <g id="line2d_7">
      <g>
       <use style="stroke:#000000;stroke-width:0.8;" x="1025.219389" xlink:href="#m2ce7a91d3d" y="1281.6"/>
      </g>
     </g>
     <g id="text_7">
      <!-- 0.100 -->
      <defs>
       <path d="M 12.40625 8.296875 
L 28.515625 8.296875 
L 28.515625 63.921875 
L 10.984375 60.40625 
L 10.984375 69.390625 
L 28.421875 72.90625 
L 38.28125 72.90625 
L 38.28125 8.296875 
L 54.390625 8.296875 
L 54.390625 0 
L 12.40625 0 
z
" id="DejaVuSans-49"/>
      </defs>
      <g transform="translate(1010.905326 1296.198437)scale(0.1 -0.1)">
       <use xlink:href="#DejaVuSans-48"/>
       <use x="63.623047" xlink:href="#DejaVuSans-46"/>
       <use x="95.410156" xlink:href="#DejaVuSans-49"/>
       <use x="159.033203" xlink:href="#DejaVuSans-48"/>
       <use x="222.65625" xlink:href="#DejaVuSans-48"/>
      </g>
     </g>
    </g>
    <g id="xtick_8">
     <g id="line2d_8">
      <g>
       <use style="stroke:#000000;stroke-width:0.8;" x="1150.577473" xlink:href="#m2ce7a91d3d" y="1281.6"/>
      </g>
     </g>
     <g id="text_8">
      <!-- 0.125 -->
      <g transform="translate(1136.26341 1296.198437)scale(0.1 -0.1)">
       <use xlink:href="#DejaVuSans-48"/>
       <use x="63.623047" xlink:href="#DejaVuSans-46"/>
       <use x="95.410156" xlink:href="#DejaVuSans-49"/>
       <use x="159.033203" xlink:href="#DejaVuSans-50"/>
       <use x="222.65625" xlink:href="#DejaVuSans-53"/>
      </g>
     </g>
    </g>
    <g id="xtick_9">
     <g id="line2d_9">
      <g>
       <use style="stroke:#000000;stroke-width:0.8;" x="1275.935557" xlink:href="#m2ce7a91d3d" y="1281.6"/>
      </g>
     </g>
     <g id="text_9">
      <!-- 0.150 -->
      <g transform="translate(1261.621495 1296.198437)scale(0.1 -0.1)">
       <use xlink:href="#DejaVuSans-48"/>
       <use x="63.623047" xlink:href="#DejaVuSans-46"/>
       <use x="95.410156" xlink:href="#DejaVuSans-49"/>
       <use x="159.033203" xlink:href="#DejaVuSans-53"/>
       <use x="222.65625" xlink:href="#DejaVuSans-48"/>
      </g>
     </g>
    </g>
   </g>
   <g id="matplotlib.axis_2">
    <g id="ytick_1">
     <g id="line2d_10">
      <defs>
       <path d="M 0 0 
L -3.5 0 
" id="mfdc028ce23" style="stroke:#000000;stroke-width:0.8;"/>
      </defs>
      <g>
       <use style="stroke:#000000;stroke-width:0.8;" x="180" xlink:href="#mfdc028ce23" y="1108.010528"/>
      </g>
     </g>
     <g id="text_10">
      <!-- −0.1 -->
      <g transform="translate(148.717187 1111.809747)scale(0.1 -0.1)">
       <use xlink:href="#DejaVuSans-8722"/>
       <use x="83.789062" xlink:href="#DejaVuSans-48"/>
       <use x="147.412109" xlink:href="#DejaVuSans-46"/>
       <use x="179.199219" xlink:href="#DejaVuSans-49"/>
      </g>
     </g>
    </g>
    <g id="ytick_2">
     <g id="line2d_11">
      <g>
       <use style="stroke:#000000;stroke-width:0.8;" x="180" xlink:href="#mfdc028ce23" y="896.518547"/>
      </g>
     </g>
     <g id="text_11">
      <!-- 0.0 -->
      <g transform="translate(157.096875 900.317766)scale(0.1 -0.1)">
       <use xlink:href="#DejaVuSans-48"/>
       <use x="63.623047" xlink:href="#DejaVuSans-46"/>
       <use x="95.410156" xlink:href="#DejaVuSans-48"/>
      </g>
     </g>
    </g>
    <g id="ytick_3">
     <g id="line2d_12">
      <g>
       <use style="stroke:#000000;stroke-width:0.8;" x="180" xlink:href="#mfdc028ce23" y="685.026566"/>
      </g>
     </g>
     <g id="text_12">
      <!-- 0.1 -->
      <g transform="translate(157.096875 688.825785)scale(0.1 -0.1)">
       <use xlink:href="#DejaVuSans-48"/>
       <use x="63.623047" xlink:href="#DejaVuSans-46"/>
       <use x="95.410156" xlink:href="#DejaVuSans-49"/>
      </g>
     </g>
    </g>
    <g id="ytick_4">
     <g id="line2d_13">
      <g>
       <use style="stroke:#000000;stroke-width:0.8;" x="180" xlink:href="#mfdc028ce23" y="473.534585"/>
      </g>
     </g>
     <g id="text_13">
      <!-- 0.2 -->
      <g transform="translate(157.096875 477.333804)scale(0.1 -0.1)">
       <use xlink:href="#DejaVuSans-48"/>
       <use x="63.623047" xlink:href="#DejaVuSans-46"/>
       <use x="95.410156" xlink:href="#DejaVuSans-50"/>
      </g>
     </g>
    </g>
    <g id="ytick_5">
     <g id="line2d_14">
      <g>
       <use style="stroke:#000000;stroke-width:0.8;" x="180" xlink:href="#mfdc028ce23" y="262.042604"/>
      </g>
     </g>
     <g id="text_14">
      <!-- 0.3 -->
      <defs>
       <path d="M 40.578125 39.3125 
Q 47.65625 37.796875 51.625 33 
Q 55.609375 28.21875 55.609375 21.1875 
Q 55.609375 10.40625 48.1875 4.484375 
Q 40.765625 -1.421875 27.09375 -1.421875 
Q 22.515625 -1.421875 17.65625 -0.515625 
Q 12.796875 0.390625 7.625 2.203125 
L 7.625 11.71875 
Q 11.71875 9.328125 16.59375 8.109375 
Q 21.484375 6.890625 26.8125 6.890625 
Q 36.078125 6.890625 40.9375 10.546875 
Q 45.796875 14.203125 45.796875 21.1875 
Q 45.796875 27.640625 41.28125 31.265625 
Q 36.765625 34.90625 28.71875 34.90625 
L 20.21875 34.90625 
L 20.21875 43.015625 
L 29.109375 43.015625 
Q 36.375 43.015625 40.234375 45.921875 
Q 44.09375 48.828125 44.09375 54.296875 
Q 44.09375 59.90625 40.109375 62.90625 
Q 36.140625 65.921875 28.71875 65.921875 
Q 24.65625 65.921875 20.015625 65.03125 
Q 15.375 64.15625 9.8125 62.3125 
L 9.8125 71.09375 
Q 15.4375 72.65625 20.34375 73.4375 
Q 25.25 74.21875 29.59375 74.21875 
Q 40.828125 74.21875 47.359375 69.109375 
Q 53.90625 64.015625 53.90625 55.328125 
Q 53.90625 49.265625 50.4375 45.09375 
Q 46.96875 40.921875 40.578125 39.3125 
z
" id="DejaVuSans-51"/>
      </defs>
      <g transform="translate(157.096875 265.841823)scale(0.1 -0.1)">
       <use xlink:href="#DejaVuSans-48"/>
       <use x="63.623047" xlink:href="#DejaVuSans-46"/>
       <use x="95.410156" xlink:href="#DejaVuSans-51"/>
      </g>
     </g>
    </g>
   </g>
   <g id="line2d_15">
    <defs>
     <path d="M 0 9 
C 2.386828 9 4.676219 8.051703 6.363961 6.363961 
C 8.051703 4.676219 9 2.386828 9 0 
C 9 -2.386828 8.051703 -4.676219 6.363961 -6.363961 
C 4.676219 -8.051703 2.386828 -9 0 -9 
C -2.386828 -9 -4.676219 -8.051703 -6.363961 -6.363961 
C -8.051703 -4.676219 -9 -2.386828 -9 0 
C -9 2.386828 -8.051703 4.676219 -6.363961 6.363961 
C -4.676219 8.051703 -2.386828 9 0 9 
z
" id="mf8df52cb79" style="stroke:#000000;"/>
    </defs>
    <g clip-path="url(#pb85ee1dbf2)">
     <use style="fill:#9e0142;stroke:#000000;" x="1239.582974" xlink:href="#mf8df52cb79" y="907.397665"/>
    </g>
   </g>
   <g id="line2d_16">
    <defs>
     <path d="M 0 9 
C 2.386828 9 4.676219 8.051703 6.363961 6.363961 
C 8.051703 4.676219 9 2.386828 9 0 
C 9 -2.386828 8.051703 -4.676219 6.363961 -6.363961 
C 4.676219 -8.051703 2.386828 -9 0 -9 
C -2.386828 -9 -4.676219 -8.051703 -6.363961 -6.363961 
C -8.051703 -4.676219 -9 -2.386828 -9 0 
C -9 2.386828 -8.051703 4.676219 -6.363961 6.363961 
C -4.676219 8.051703 -2.386828 9 0 9 
z
" id="mcc16d7bffc" style="stroke:#000000;"/>
    </defs>
    <g clip-path="url(#pb85ee1dbf2)">
     <use style="fill:#f46d43;stroke:#000000;" x="1104.954724" xlink:href="#mcc16d7bffc" y="1161.20631"/>
    </g>
   </g>
   <g id="line2d_17">
    <defs>
     <path d="M 0 3 
C 0.795609 3 1.55874 2.683901 2.12132 2.12132 
C 2.683901 1.55874 3 0.795609 3 0 
C 3 -0.795609 2.683901 -1.55874 2.12132 -2.12132 
C 1.55874 -2.683901 0.795609 -3 0 -3 
C -0.795609 -3 -1.55874 -2.683901 -2.12132 -2.12132 
C -2.683901 -1.55874 -3 -0.795609 -3 0 
C -3 0.795609 -2.683901 1.55874 -2.12132 2.12132 
C -1.55874 2.683901 -0.795609 3 0 3 
z
" id="m42198b54eb" style="stroke:#000000;"/>
    </defs>
    <g clip-path="url(#pb85ee1dbf2)">
     <use style="stroke:#000000;" x="1045.464301" xlink:href="#m42198b54eb" y="821.659166"/>
    </g>
   </g>
   <g id="line2d_18">
    <g clip-path="url(#pb85ee1dbf2)">
     <use style="fill:#9e0142;stroke:#000000;" x="1240.481972" xlink:href="#mf8df52cb79" y="907.441264"/>
    </g>
   </g>
   <g id="line2d_19">
    <defs>
     <path d="M 0 9 
C 2.386828 9 4.676219 8.051703 6.363961 6.363961 
C 8.051703 4.676219 9 2.386828 9 0 
C 9 -2.386828 8.051703 -4.676219 6.363961 -6.363961 
C 4.676219 -8.051703 2.386828 -9 0 -9 
C -2.386828 -9 -4.676219 -8.051703 -6.363961 -6.363961 
C -8.051703 -4.676219 -9 -2.386828 -9 0 
C -9 2.386828 -8.051703 4.676219 -6.363961 6.363961 
C -4.676219 8.051703 -2.386828 9 0 9 
z
" id="m2bf4b61f64" style="stroke:#000000;"/>
    </defs>
    <g clip-path="url(#pb85ee1dbf2)">
     <use style="fill:#fee08b;stroke:#000000;" x="871.082057" xlink:href="#m2bf4b61f64" y="223.2"/>
    </g>
   </g>
   <g id="line2d_20">
    <defs>
     <path d="M 0 9 
C 2.386828 9 4.676219 8.051703 6.363961 6.363961 
C 8.051703 4.676219 9 2.386828 9 0 
C 9 -2.386828 8.051703 -4.676219 6.363961 -6.363961 
C 4.676219 -8.051703 2.386828 -9 0 -9 
C -2.386828 -9 -4.676219 -8.051703 -6.363961 -6.363961 
C -8.051703 -4.676219 -9 -2.386828 -9 0 
C -9 2.386828 -8.051703 4.676219 -6.363961 6.363961 
C -4.676219 8.051703 -2.386828 9 0 9 
z
" id="mec151afbc9" style="stroke:#000000;"/>
    </defs>
    <g clip-path="url(#pb85ee1dbf2)">
     <use style="fill:#e6f598;stroke:#000000;" x="505.672677" xlink:href="#mec151afbc9" y="431.383293"/>
    </g>
   </g>
   <g id="line2d_21">
    <g clip-path="url(#pb85ee1dbf2)">
     <use style="fill:#9e0142;stroke:#000000;" x="1238.039594" xlink:href="#mf8df52cb79" y="907.407622"/>
    </g>
   </g>
   <g id="line2d_22">
    <g clip-path="url(#pb85ee1dbf2)">
     <use style="fill:#fee08b;stroke:#000000;" x="874.231003" xlink:href="#m2bf4b61f64" y="231.568765"/>
    </g>
   </g>
   <g id="line2d_23">
    <g clip-path="url(#pb85ee1dbf2)">
     <use style="fill:#e6f598;stroke:#000000;" x="740.818996" xlink:href="#mec151afbc9" y="347.572186"/>
    </g>
   </g>
   <g id="line2d_24">
    <g clip-path="url(#pb85ee1dbf2)">
     <use style="fill:#9e0142;stroke:#000000;" x="1240.229327" xlink:href="#mf8df52cb79" y="907.393462"/>
    </g>
   </g>
   <g id="line2d_25">
    <g clip-path="url(#pb85ee1dbf2)">
     <use style="fill:#9e0142;stroke:#000000;" x="1235.698055" xlink:href="#mf8df52cb79" y="907.448852"/>
    </g>
   </g>
   <g id="line2d_26">
    <g clip-path="url(#pb85ee1dbf2)">
     <use style="fill:#fee08b;stroke:#000000;" x="870.552837" xlink:href="#m2bf4b61f64" y="224.005399"/>
    </g>
   </g>
   <g id="line2d_27">
    <g clip-path="url(#pb85ee1dbf2)">
     <use style="fill:#f46d43;stroke:#000000;" x="1101.631262" xlink:href="#mcc16d7bffc" y="1158.991304"/>
    </g>
   </g>
   <g id="line2d_28">
    <g clip-path="url(#pb85ee1dbf2)">
     <use style="fill:#f46d43;stroke:#000000;" x="1100.099667" xlink:href="#mcc16d7bffc" y="1157.119921"/>
    </g>
   </g>
   <g id="line2d_29">
    <g clip-path="url(#pb85ee1dbf2)">
     <use style="fill:#9e0142;stroke:#000000;" x="1233.149909" xlink:href="#mf8df52cb79" y="907.28932"/>
    </g>
   </g>
   <g id="line2d_30">
    <g clip-path="url(#pb85ee1dbf2)">
     <use style="fill:#9e0142;stroke:#000000;" x="1235.540589" xlink:href="#mf8df52cb79" y="907.434972"/>
    </g>
   </g>
   <g id="line2d_31">
    <g clip-path="url(#pb85ee1dbf2)">
     <use style="fill:#9e0142;stroke:#000000;" x="1243.227393" xlink:href="#mf8df52cb79" y="907.352504"/>
    </g>
   </g>
   <g id="line2d_32">
    <g clip-path="url(#pb85ee1dbf2)">
     <use style="fill:#9e0142;stroke:#000000;" x="1241.946997" xlink:href="#mf8df52cb79" y="907.283683"/>
    </g>
   </g>
   <g id="line2d_33">
    <defs>
     <path d="M 0 9 
C 2.386828 9 4.676219 8.051703 6.363961 6.363961 
C 8.051703 4.676219 9 2.386828 9 0 
C 9 -2.386828 8.051703 -4.676219 6.363961 -6.363961 
C 4.676219 -8.051703 2.386828 -9 0 -9 
C -2.386828 -9 -4.676219 -8.051703 -6.363961 -6.363961 
C -8.051703 -4.676219 -9 -2.386828 -9 0 
C -9 2.386828 -8.051703 4.676219 -6.363961 6.363961 
C -4.676219 8.051703 -2.386828 9 0 9 
z
" id="mf6cc01822b" style="stroke:#000000;"/>
    </defs>
    <g clip-path="url(#pb85ee1dbf2)">
     <use style="fill:#66c2a5;stroke:#000000;" x="551.76486" xlink:href="#mf6cc01822b" y="1045.930041"/>
    </g>
   </g>
   <g id="line2d_34">
    <g clip-path="url(#pb85ee1dbf2)">
     <use style="fill:#f46d43;stroke:#000000;" x="1106.283281" xlink:href="#mcc16d7bffc" y="1161.937118"/>
    </g>
   </g>
   <g id="line2d_35">
    <g clip-path="url(#pb85ee1dbf2)">
     <use style="stroke:#000000;" x="709.593792" xlink:href="#m42198b54eb" y="325.176614"/>
    </g>
   </g>
   <g id="line2d_36">
    <g clip-path="url(#pb85ee1dbf2)">
     <use style="fill:#f46d43;stroke:#000000;" x="1102.841691" xlink:href="#mcc16d7bffc" y="1161.492345"/>
    </g>
   </g>
   <g id="line2d_37">
    <g clip-path="url(#pb85ee1dbf2)">
     <use style="fill:#9e0142;stroke:#000000;" x="1244.665476" xlink:href="#mf8df52cb79" y="907.306317"/>
    </g>
   </g>
   <g id="line2d_38">
    <g clip-path="url(#pb85ee1dbf2)">
     <use style="stroke:#000000;" x="538.536435" xlink:href="#m42198b54eb" y="1231.2"/>
    </g>
   </g>
   <g id="line2d_39">
    <g clip-path="url(#pb85ee1dbf2)">
     <use style="stroke:#000000;" x="754.215314" xlink:href="#m42198b54eb" y="1168.093683"/>
    </g>
   </g>
   <g id="line2d_40">
    <g clip-path="url(#pb85ee1dbf2)">
     <use style="fill:#e6f598;stroke:#000000;" x="528.145017" xlink:href="#mec151afbc9" y="564.463895"/>
    </g>
   </g>
   <g id="line2d_41">
    <g clip-path="url(#pb85ee1dbf2)">
     <use style="fill:#9e0142;stroke:#000000;" x="1243.072421" xlink:href="#mf8df52cb79" y="907.371844"/>
    </g>
   </g>
   <g id="line2d_42">
    <g clip-path="url(#pb85ee1dbf2)">
     <use style="fill:#9e0142;stroke:#000000;" x="1233.422988" xlink:href="#mf8df52cb79" y="907.454392"/>
    </g>
   </g>
   <g id="line2d_43">
    <g clip-path="url(#pb85ee1dbf2)">
     <use style="fill:#9e0142;stroke:#000000;" x="1231.739704" xlink:href="#mf8df52cb79" y="907.379881"/>
    </g>
   </g>
   <g id="line2d_44">
    <g clip-path="url(#pb85ee1dbf2)">
     <use style="fill:#9e0142;stroke:#000000;" x="1242.723431" xlink:href="#mf8df52cb79" y="907.325784"/>
    </g>
   </g>
   <g id="line2d_45">
    <g clip-path="url(#pb85ee1dbf2)">
     <use style="fill:#9e0142;stroke:#000000;" x="1233.6545" xlink:href="#mf8df52cb79" y="907.414721"/>
    </g>
   </g>
   <g id="line2d_46">
    <g clip-path="url(#pb85ee1dbf2)">
     <use style="fill:#e6f598;stroke:#000000;" x="650.862273" xlink:href="#mec151afbc9" y="267.746031"/>
    </g>
   </g>
   <g id="line2d_47">
    <g clip-path="url(#pb85ee1dbf2)">
     <use style="fill:#9e0142;stroke:#000000;" x="1240.335466" xlink:href="#mf8df52cb79" y="907.458241"/>
    </g>
   </g>
   <g id="line2d_48">
    <g clip-path="url(#pb85ee1dbf2)">
     <use style="stroke:#000000;" x="230.727273" xlink:href="#m42198b54eb" y="674.92446"/>
    </g>
   </g>
   <g id="line2d_49">
    <g clip-path="url(#pb85ee1dbf2)">
     <use style="fill:#9e0142;stroke:#000000;" x="1237.021718" xlink:href="#mf8df52cb79" y="907.379905"/>
    </g>
   </g>
   <g id="line2d_50">
    <g clip-path="url(#pb85ee1dbf2)">
     <use style="fill:#66c2a5;stroke:#000000;" x="563.186151" xlink:href="#mf6cc01822b" y="1012.965166"/>
    </g>
   </g>
   <g id="line2d_51">
    <g clip-path="url(#pb85ee1dbf2)">
     <use style="stroke:#000000;" x="728.121549" xlink:href="#m42198b54eb" y="838.136442"/>
    </g>
   </g>
   <g id="line2d_52">
    <g clip-path="url(#pb85ee1dbf2)">
     <use style="fill:#9e0142;stroke:#000000;" x="1240.681219" xlink:href="#mf8df52cb79" y="907.416935"/>
    </g>
   </g>
   <g id="line2d_53">
    <g clip-path="url(#pb85ee1dbf2)">
     <use style="fill:#9e0142;stroke:#000000;" x="1235.923622" xlink:href="#mf8df52cb79" y="907.311974"/>
    </g>
   </g>
   <g id="line2d_54">
    <g clip-path="url(#pb85ee1dbf2)">
     <use style="fill:#9e0142;stroke:#000000;" x="1245.272727" xlink:href="#mf8df52cb79" y="907.447001"/>
    </g>
   </g>
   <g id="line2d_55">
    <g clip-path="url(#pb85ee1dbf2)">
     <use style="fill:#9e0142;stroke:#000000;" x="1244.035206" xlink:href="#mf8df52cb79" y="907.396958"/>
    </g>
   </g>
   <g id="line2d_56">
    <g clip-path="url(#pb85ee1dbf2)">
     <use style="fill:#9e0142;stroke:#000000;" x="1232.189567" xlink:href="#mf8df52cb79" y="907.281502"/>
    </g>
   </g>
   <g id="line2d_57">
    <g clip-path="url(#pb85ee1dbf2)">
     <use style="fill:#9e0142;stroke:#000000;" x="1236.501495" xlink:href="#mf8df52cb79" y="907.323156"/>
    </g>
   </g>
   <g id="line2d_58">
    <g clip-path="url(#pb85ee1dbf2)">
     <use style="fill:#66c2a5;stroke:#000000;" x="697.399001" xlink:href="#mf6cc01822b" y="890.341492"/>
    </g>
   </g>
   <g id="line2d_59">
    <g clip-path="url(#pb85ee1dbf2)">
     <use style="fill:#9e0142;stroke:#000000;" x="1242.384651" xlink:href="#mf8df52cb79" y="907.458529"/>
    </g>
   </g>
   <g id="line2d_60">
    <g clip-path="url(#pb85ee1dbf2)">
     <use style="fill:#66c2a5;stroke:#000000;" x="625.528628" xlink:href="#mf6cc01822b" y="1075.530221"/>
    </g>
   </g>
   <g id="line2d_61">
    <g clip-path="url(#pb85ee1dbf2)">
     <use style="fill:#fee08b;stroke:#000000;" x="869.19413" xlink:href="#m2bf4b61f64" y="230.96286"/>
    </g>
   </g>
   <g id="line2d_62">
    <g clip-path="url(#pb85ee1dbf2)">
     <use style="fill:#9e0142;stroke:#000000;" x="1241.61399" xlink:href="#mf8df52cb79" y="907.401983"/>
    </g>
   </g>
   <g id="line2d_63">
    <g clip-path="url(#pb85ee1dbf2)">
     <use style="fill:#9e0142;stroke:#000000;" x="1233.528577" xlink:href="#mf8df52cb79" y="907.303775"/>
    </g>
   </g>
   <g id="line2d_64">
    <g clip-path="url(#pb85ee1dbf2)">
     <use style="fill:#9e0142;stroke:#000000;" x="1239.598363" xlink:href="#mf8df52cb79" y="907.312808"/>
    </g>
   </g>
   <g id="line2d_65">
    <g clip-path="url(#pb85ee1dbf2)">
     <use style="fill:#9e0142;stroke:#000000;" x="1243.751046" xlink:href="#mf8df52cb79" y="907.35076"/>
    </g>
   </g>
   <g id="line2d_66">
    <g clip-path="url(#pb85ee1dbf2)">
     <use style="stroke:#000000;" x="570.42246" xlink:href="#m42198b54eb" y="256.787257"/>
    </g>
   </g>
   <g id="line2d_67">
    <g clip-path="url(#pb85ee1dbf2)">
     <use style="fill:#9e0142;stroke:#000000;" x="1241.773235" xlink:href="#mf8df52cb79" y="907.374095"/>
    </g>
   </g>
   <g id="line2d_68">
    <g clip-path="url(#pb85ee1dbf2)">
     <use style="stroke:#000000;" x="800.958582" xlink:href="#m42198b54eb" y="469.597806"/>
    </g>
   </g>
   <g id="line2d_69">
    <g clip-path="url(#pb85ee1dbf2)">
     <use style="fill:#9e0142;stroke:#000000;" x="1242.17538" xlink:href="#mf8df52cb79" y="907.428784"/>
    </g>
   </g>
   <g id="line2d_70">
    <g clip-path="url(#pb85ee1dbf2)">
     <use style="fill:#9e0142;stroke:#000000;" x="1236.030798" xlink:href="#mf8df52cb79" y="907.388945"/>
    </g>
   </g>
   <g id="line2d_71">
    <g clip-path="url(#pb85ee1dbf2)">
     <use style="fill:#9e0142;stroke:#000000;" x="1244.962032" xlink:href="#mf8df52cb79" y="907.422924"/>
    </g>
   </g>
   <g id="line2d_72">
    <g clip-path="url(#pb85ee1dbf2)">
     <use style="fill:#9e0142;stroke:#000000;" x="1243.322644" xlink:href="#mf8df52cb79" y="907.478505"/>
    </g>
   </g>
   <g id="line2d_73">
    <g clip-path="url(#pb85ee1dbf2)">
     <use style="fill:#9e0142;stroke:#000000;" x="1239.203398" xlink:href="#mf8df52cb79" y="907.286107"/>
    </g>
   </g>
   <g id="line2d_74">
    <g clip-path="url(#pb85ee1dbf2)">
     <use style="fill:#9e0142;stroke:#000000;" x="1237.636913" xlink:href="#mf8df52cb79" y="907.466954"/>
    </g>
   </g>
   <g id="line2d_75">
    <g clip-path="url(#pb85ee1dbf2)">
     <use style="fill:#9e0142;stroke:#000000;" x="1239.818858" xlink:href="#mf8df52cb79" y="907.274462"/>
    </g>
   </g>
   <g id="line2d_76">
    <g clip-path="url(#pb85ee1dbf2)">
     <use style="fill:#9e0142;stroke:#000000;" x="1241.240938" xlink:href="#mf8df52cb79" y="907.353886"/>
    </g>
   </g>
   <g id="line2d_77">
    <g clip-path="url(#pb85ee1dbf2)">
     <use style="fill:#9e0142;stroke:#000000;" x="1243.306448" xlink:href="#mf8df52cb79" y="907.410409"/>
    </g>
   </g>
   <g id="line2d_78">
    <g clip-path="url(#pb85ee1dbf2)">
     <use style="fill:#9e0142;stroke:#000000;" x="1239.370138" xlink:href="#mf8df52cb79" y="907.356083"/>
    </g>
   </g>
   <g id="line2d_79">
    <g clip-path="url(#pb85ee1dbf2)">
     <use style="fill:#9e0142;stroke:#000000;" x="1235.824992" xlink:href="#mf8df52cb79" y="907.391422"/>
    </g>
   </g>
   <g id="line2d_80">
    <g clip-path="url(#pb85ee1dbf2)">
     <use style="fill:#9e0142;stroke:#000000;" x="1243.537288" xlink:href="#mf8df52cb79" y="907.405443"/>
    </g>
   </g>
   <g id="line2d_81">
    <g clip-path="url(#pb85ee1dbf2)">
     <use style="fill:#66c2a5;stroke:#000000;" x="563.435633" xlink:href="#mf6cc01822b" y="1012.653438"/>
    </g>
   </g>
   <g id="line2d_82">
    <g clip-path="url(#pb85ee1dbf2)">
     <use style="fill:#9e0142;stroke:#000000;" x="1242.876946" xlink:href="#mf8df52cb79" y="907.461133"/>
    </g>
   </g>
   <g id="line2d_83">
    <g clip-path="url(#pb85ee1dbf2)">
     <use style="fill:#9e0142;stroke:#000000;" x="1243.395805" xlink:href="#mf8df52cb79" y="907.412621"/>
    </g>
   </g>
   <g id="line2d_84">
    <g clip-path="url(#pb85ee1dbf2)">
     <use style="fill:#f46d43;stroke:#000000;" x="1103.905708" xlink:href="#mcc16d7bffc" y="1160.644485"/>
    </g>
   </g>
   <g id="line2d_85">
    <g clip-path="url(#pb85ee1dbf2)">
     <use style="stroke:#000000;" x="381.791517" xlink:href="#m42198b54eb" y="810.626241"/>
    </g>
   </g>
   <g id="patch_3">
    <path d="M 180 1281.6 
L 180 172.8 
" style="fill:none;stroke:#000000;stroke-linecap:square;stroke-linejoin:miter;stroke-width:0.8;"/>
   </g>
   <g id="patch_4">
    <path d="M 1296 1281.6 
L 1296 172.8 
" style="fill:none;stroke:#000000;stroke-linecap:square;stroke-linejoin:miter;stroke-width:0.8;"/>
   </g>
   <g id="patch_5">
    <path d="M 180 1281.6 
L 1296 1281.6 
" style="fill:none;stroke:#000000;stroke-linecap:square;stroke-linejoin:miter;stroke-width:0.8;"/>
   </g>
   <g id="patch_6">
    <path d="M 180 172.8 
L 1296 172.8 
" style="fill:none;stroke:#000000;stroke-linecap:square;stroke-linejoin:miter;stroke-width:0.8;"/>
   </g>
  </g>
 </g>
 <defs>
  <clipPath id="pb85ee1dbf2">
   <rect height="1108.8" width="1116" x="180" y="172.8"/>
  </clipPath>
 </defs>
</svg>
