<?xml version="1.0" encoding="utf-8" standalone="no"?>
<!DOCTYPE svg PUBLIC "-//W3C//DTD SVG 1.1//EN"
  "http://www.w3.org/Graphics/SVG/1.1/DTD/svg11.dtd">
<!-- Created with matplotlib (https://matplotlib.org/) -->
<svg height="1440pt" version="1.1" viewBox="0 0 1440 1440" width="1440pt" xmlns="http://www.w3.org/2000/svg" xmlns:xlink="http://www.w3.org/1999/xlink">
 <defs>
  <style type="text/css">
*{stroke-linecap:butt;stroke-linejoin:round;}
  </style>
 </defs>
 <g id="figure_1">
  <g id="patch_1">
   <path d="M 0 1440 
L 1440 1440 
L 1440 0 
L 0 0 
z
" style="fill:#ffffff;"/>
  </g>
  <g id="axes_1">
   <g id="patch_2">
    <path d="M 180 1281.6 
L 1296 1281.6 
L 1296 172.8 
L 180 172.8 
z
" style="fill:#ffffff;"/>
   </g>
   <g id="matplotlib.axis_1">
    <g id="xtick_1">
     <g id="line2d_1">
      <defs>
       <path d="M 0 0 
L 0 3.5 
" id="m7b0a729f62" style="stroke:#000000;stroke-width:0.8;"/>
      </defs>
      <g>
       <use style="stroke:#000000;stroke-width:0.8;" x="337.666284" xlink:href="#m7b0a729f62" y="1281.6"/>
      </g>
     </g>
     <g id="text_1">
      <!-- −0.05 -->
      <defs>
       <path d="M 10.59375 35.5 
L 73.1875 35.5 
L 73.1875 27.203125 
L 10.59375 27.203125 
z
" id="DejaVuSans-8722"/>
       <path d="M 31.78125 66.40625 
Q 24.171875 66.40625 20.328125 58.90625 
Q 16.5 51.421875 16.5 36.375 
Q 16.5 21.390625 20.328125 13.890625 
Q 24.171875 6.390625 31.78125 6.390625 
Q 39.453125 6.390625 43.28125 13.890625 
Q 47.125 21.390625 47.125 36.375 
Q 47.125 51.421875 43.28125 58.90625 
Q 39.453125 66.40625 31.78125 66.40625 
z
M 31.78125 74.21875 
Q 44.046875 74.21875 50.515625 64.515625 
Q 56.984375 54.828125 56.984375 36.375 
Q 56.984375 17.96875 50.515625 8.265625 
Q 44.046875 -1.421875 31.78125 -1.421875 
Q 19.53125 -1.421875 13.0625 8.265625 
Q 6.59375 17.96875 6.59375 36.375 
Q 6.59375 54.828125 13.0625 64.515625 
Q 19.53125 74.21875 31.78125 74.21875 
z
" id="DejaVuSans-48"/>
       <path d="M 10.6875 12.40625 
L 21 12.40625 
L 21 0 
L 10.6875 0 
z
" id="DejaVuSans-46"/>
       <path d="M 10.796875 72.90625 
L 49.515625 72.90625 
L 49.515625 64.59375 
L 19.828125 64.59375 
L 19.828125 46.734375 
Q 21.96875 47.46875 24.109375 47.828125 
Q 26.265625 48.1875 28.421875 48.1875 
Q 40.625 48.1875 47.75 41.5 
Q 54.890625 34.8125 54.890625 23.390625 
Q 54.890625 11.625 47.5625 5.09375 
Q 40.234375 -1.421875 26.90625 -1.421875 
Q 22.3125 -1.421875 17.546875 -0.640625 
Q 12.796875 0.140625 7.71875 1.703125 
L 7.71875 11.625 
Q 12.109375 9.234375 16.796875 8.0625 
Q 21.484375 6.890625 26.703125 6.890625 
Q 35.15625 6.890625 40.078125 11.328125 
Q 45.015625 15.765625 45.015625 23.390625 
Q 45.015625 31 40.078125 35.4375 
Q 35.15625 39.890625 26.703125 39.890625 
Q 22.75 39.890625 18.8125 39.015625 
Q 14.890625 38.140625 10.796875 36.28125 
z
" id="DejaVuSans-53"/>
      </defs>
      <g transform="translate(322.343628 1296.198437)scale(0.1 -0.1)">
       <use xlink:href="#DejaVuSans-8722"/>
       <use x="83.789062" xlink:href="#DejaVuSans-48"/>
       <use x="147.412109" xlink:href="#DejaVuSans-46"/>
       <use x="179.199219" xlink:href="#DejaVuSans-48"/>
       <use x="242.822266" xlink:href="#DejaVuSans-53"/>
      </g>
     </g>
    </g>
    <g id="xtick_2">
     <g id="line2d_2">
      <g>
       <use style="stroke:#000000;stroke-width:0.8;" x="563.697243" xlink:href="#m7b0a729f62" y="1281.6"/>
      </g>
     </g>
     <g id="text_2">
      <!-- 0.00 -->
      <g transform="translate(552.56443 1296.198437)scale(0.1 -0.1)">
       <use xlink:href="#DejaVuSans-48"/>
       <use x="63.623047" xlink:href="#DejaVuSans-46"/>
       <use x="95.410156" xlink:href="#DejaVuSans-48"/>
       <use x="159.033203" xlink:href="#DejaVuSans-48"/>
      </g>
     </g>
    </g>
    <g id="xtick_3">
     <g id="line2d_3">
      <g>
       <use style="stroke:#000000;stroke-width:0.8;" x="789.728202" xlink:href="#m7b0a729f62" y="1281.6"/>
      </g>
     </g>
     <g id="text_3">
      <!-- 0.05 -->
      <g transform="translate(778.595389 1296.198437)scale(0.1 -0.1)">
       <use xlink:href="#DejaVuSans-48"/>
       <use x="63.623047" xlink:href="#DejaVuSans-46"/>
       <use x="95.410156" xlink:href="#DejaVuSans-48"/>
       <use x="159.033203" xlink:href="#DejaVuSans-53"/>
      </g>
     </g>
    </g>
    <g id="xtick_4">
     <g id="line2d_4">
      <g>
       <use style="stroke:#000000;stroke-width:0.8;" x="1015.759161" xlink:href="#m7b0a729f62" y="1281.6"/>
      </g>
     </g>
     <g id="text_4">
      <!-- 0.10 -->
      <defs>
       <path d="M 12.40625 8.296875 
L 28.515625 8.296875 
L 28.515625 63.921875 
L 10.984375 60.40625 
L 10.984375 69.390625 
L 28.421875 72.90625 
L 38.28125 72.90625 
L 38.28125 8.296875 
L 54.390625 8.296875 
L 54.390625 0 
L 12.40625 0 
z
" id="DejaVuSans-49"/>
      </defs>
      <g transform="translate(1004.626348 1296.198437)scale(0.1 -0.1)">
       <use xlink:href="#DejaVuSans-48"/>
       <use x="63.623047" xlink:href="#DejaVuSans-46"/>
       <use x="95.410156" xlink:href="#DejaVuSans-49"/>
       <use x="159.033203" xlink:href="#DejaVuSans-48"/>
      </g>
     </g>
    </g>
    <g id="xtick_5">
     <g id="line2d_5">
      <g>
       <use style="stroke:#000000;stroke-width:0.8;" x="1241.790119" xlink:href="#m7b0a729f62" y="1281.6"/>
      </g>
     </g>
     <g id="text_5">
      <!-- 0.15 -->
      <g transform="translate(1230.657307 1296.198437)scale(0.1 -0.1)">
       <use xlink:href="#DejaVuSans-48"/>
       <use x="63.623047" xlink:href="#DejaVuSans-46"/>
       <use x="95.410156" xlink:href="#DejaVuSans-49"/>
       <use x="159.033203" xlink:href="#DejaVuSans-53"/>
      </g>
     </g>
    </g>
   </g>
   <g id="matplotlib.axis_2">
    <g id="ytick_1">
     <g id="line2d_6">
      <defs>
       <path d="M 0 0 
L -3.5 0 
" id="mcb821c4af7" style="stroke:#000000;stroke-width:0.8;"/>
      </defs>
      <g>
       <use style="stroke:#000000;stroke-width:0.8;" x="180" xlink:href="#mcb821c4af7" y="1220.080741"/>
      </g>
     </g>
     <g id="text_6">
      <!-- −0.15 -->
      <g transform="translate(142.354688 1223.87996)scale(0.1 -0.1)">
       <use xlink:href="#DejaVuSans-8722"/>
       <use x="83.789062" xlink:href="#DejaVuSans-48"/>
       <use x="147.412109" xlink:href="#DejaVuSans-46"/>
       <use x="179.199219" xlink:href="#DejaVuSans-49"/>
       <use x="242.822266" xlink:href="#DejaVuSans-53"/>
      </g>
     </g>
    </g>
    <g id="ytick_2">
     <g id="line2d_7">
      <g>
       <use style="stroke:#000000;stroke-width:0.8;" x="180" xlink:href="#mcb821c4af7" y="1078.299976"/>
      </g>
     </g>
     <g id="text_7">
      <!-- −0.10 -->
      <g transform="translate(142.354688 1082.099195)scale(0.1 -0.1)">
       <use xlink:href="#DejaVuSans-8722"/>
       <use x="83.789062" xlink:href="#DejaVuSans-48"/>
       <use x="147.412109" xlink:href="#DejaVuSans-46"/>
       <use x="179.199219" xlink:href="#DejaVuSans-49"/>
       <use x="242.822266" xlink:href="#DejaVuSans-48"/>
      </g>
     </g>
    </g>
    <g id="ytick_3">
     <g id="line2d_8">
      <g>
       <use style="stroke:#000000;stroke-width:0.8;" x="180" xlink:href="#mcb821c4af7" y="936.519212"/>
      </g>
     </g>
     <g id="text_8">
      <!-- −0.05 -->
      <g transform="translate(142.354688 940.31843)scale(0.1 -0.1)">
       <use xlink:href="#DejaVuSans-8722"/>
       <use x="83.789062" xlink:href="#DejaVuSans-48"/>
       <use x="147.412109" xlink:href="#DejaVuSans-46"/>
       <use x="179.199219" xlink:href="#DejaVuSans-48"/>
       <use x="242.822266" xlink:href="#DejaVuSans-53"/>
      </g>
     </g>
    </g>
    <g id="ytick_4">
     <g id="line2d_9">
      <g>
       <use style="stroke:#000000;stroke-width:0.8;" x="180" xlink:href="#mcb821c4af7" y="794.738447"/>
      </g>
     </g>
     <g id="text_9">
      <!-- 0.00 -->
      <g transform="translate(150.734375 798.537666)scale(0.1 -0.1)">
       <use xlink:href="#DejaVuSans-48"/>
       <use x="63.623047" xlink:href="#DejaVuSans-46"/>
       <use x="95.410156" xlink:href="#DejaVuSans-48"/>
       <use x="159.033203" xlink:href="#DejaVuSans-48"/>
      </g>
     </g>
    </g>
    <g id="ytick_5">
     <g id="line2d_10">
      <g>
       <use style="stroke:#000000;stroke-width:0.8;" x="180" xlink:href="#mcb821c4af7" y="652.957682"/>
      </g>
     </g>
     <g id="text_10">
      <!-- 0.05 -->
      <g transform="translate(150.734375 656.756901)scale(0.1 -0.1)">
       <use xlink:href="#DejaVuSans-48"/>
       <use x="63.623047" xlink:href="#DejaVuSans-46"/>
       <use x="95.410156" xlink:href="#DejaVuSans-48"/>
       <use x="159.033203" xlink:href="#DejaVuSans-53"/>
      </g>
     </g>
    </g>
    <g id="ytick_6">
     <g id="line2d_11">
      <g>
       <use style="stroke:#000000;stroke-width:0.8;" x="180" xlink:href="#mcb821c4af7" y="511.176918"/>
      </g>
     </g>
     <g id="text_11">
      <!-- 0.10 -->
      <g transform="translate(150.734375 514.976136)scale(0.1 -0.1)">
       <use xlink:href="#DejaVuSans-48"/>
       <use x="63.623047" xlink:href="#DejaVuSans-46"/>
       <use x="95.410156" xlink:href="#DejaVuSans-49"/>
       <use x="159.033203" xlink:href="#DejaVuSans-48"/>
      </g>
     </g>
    </g>
    <g id="ytick_7">
     <g id="line2d_12">
      <g>
       <use style="stroke:#000000;stroke-width:0.8;" x="180" xlink:href="#mcb821c4af7" y="369.396153"/>
      </g>
     </g>
     <g id="text_12">
      <!-- 0.15 -->
      <g transform="translate(150.734375 373.195372)scale(0.1 -0.1)">
       <use xlink:href="#DejaVuSans-48"/>
       <use x="63.623047" xlink:href="#DejaVuSans-46"/>
       <use x="95.410156" xlink:href="#DejaVuSans-49"/>
       <use x="159.033203" xlink:href="#DejaVuSans-53"/>
      </g>
     </g>
    </g>
    <g id="ytick_8">
     <g id="line2d_13">
      <g>
       <use style="stroke:#000000;stroke-width:0.8;" x="180" xlink:href="#mcb821c4af7" y="227.615388"/>
      </g>
     </g>
     <g id="text_13">
      <!-- 0.20 -->
      <defs>
       <path d="M 19.1875 8.296875 
L 53.609375 8.296875 
L 53.609375 0 
L 7.328125 0 
L 7.328125 8.296875 
Q 12.9375 14.109375 22.625 23.890625 
Q 32.328125 33.6875 34.8125 36.53125 
Q 39.546875 41.84375 41.421875 45.53125 
Q 43.3125 49.21875 43.3125 52.78125 
Q 43.3125 58.59375 39.234375 62.25 
Q 35.15625 65.921875 28.609375 65.921875 
Q 23.96875 65.921875 18.8125 64.3125 
Q 13.671875 62.703125 7.8125 59.421875 
L 7.8125 69.390625 
Q 13.765625 71.78125 18.9375 73 
Q 24.125 74.21875 28.421875 74.21875 
Q 39.75 74.21875 46.484375 68.546875 
Q 53.21875 62.890625 53.21875 53.421875 
Q 53.21875 48.921875 51.53125 44.890625 
Q 49.859375 40.875 45.40625 35.40625 
Q 44.1875 33.984375 37.640625 27.21875 
Q 31.109375 20.453125 19.1875 8.296875 
z
" id="DejaVuSans-50"/>
      </defs>
      <g transform="translate(150.734375 231.414607)scale(0.1 -0.1)">
       <use xlink:href="#DejaVuSans-48"/>
       <use x="63.623047" xlink:href="#DejaVuSans-46"/>
       <use x="95.410156" xlink:href="#DejaVuSans-50"/>
       <use x="159.033203" xlink:href="#DejaVuSans-48"/>
      </g>
     </g>
    </g>
   </g>
   <g id="line2d_14">
    <defs>
     <path d="M 0 3 
C 0.795609 3 1.55874 2.683901 2.12132 2.12132 
C 2.683901 1.55874 3 0.795609 3 0 
C 3 -0.795609 2.683901 -1.55874 2.12132 -2.12132 
C 1.55874 -2.683901 0.795609 -3 0 -3 
C -0.795609 -3 -1.55874 -2.683901 -2.12132 -2.12132 
C -2.683901 -1.55874 -3 -0.795609 -3 0 
C -3 0.795609 -2.683901 1.55874 -2.12132 2.12132 
C -1.55874 2.683901 -0.795609 3 0 3 
z
" id="m42552fa6ae" style="stroke:#000000;"/>
    </defs>
    <g clip-path="url(#p573824f2bd)">
     <use style="stroke:#000000;" x="620.995724" xlink:href="#m42552fa6ae" y="588.960783"/>
    </g>
   </g>
   <g id="line2d_15">
    <g clip-path="url(#p573824f2bd)">
     <use style="stroke:#000000;" x="726.983432" xlink:href="#m42552fa6ae" y="593.678929"/>
    </g>
   </g>
   <g id="line2d_16">
    <defs>
     <path d="M 0 9 
C 2.386828 9 4.676219 8.051703 6.363961 6.363961 
C 8.051703 4.676219 9 2.386828 9 0 
C 9 -2.386828 8.051703 -4.676219 6.363961 -6.363961 
C 4.676219 -8.051703 2.386828 -9 0 -9 
C -2.386828 -9 -4.676219 -8.051703 -6.363961 -6.363961 
C -8.051703 -4.676219 -9 -2.386828 -9 0 
C -9 2.386828 -8.051703 4.676219 -6.363961 6.363961 
C -4.676219 8.051703 -2.386828 9 0 9 
z
" id="ma9a2cb4dc4" style="stroke:#000000;"/>
    </defs>
    <g clip-path="url(#p573824f2bd)">
     <use style="fill:#9e0142;stroke:#000000;" x="1166.937973" xlink:href="#ma9a2cb4dc4" y="781.797798"/>
    </g>
   </g>
   <g id="line2d_17">
    <g clip-path="url(#p573824f2bd)">
     <use style="stroke:#000000;" x="1127.801093" xlink:href="#m42552fa6ae" y="817.66572"/>
    </g>
   </g>
   <g id="line2d_18">
    <g clip-path="url(#p573824f2bd)">
     <use style="stroke:#000000;" x="296.742208" xlink:href="#m42552fa6ae" y="246.188522"/>
    </g>
   </g>
   <g id="line2d_19">
    <defs>
     <path d="M 0 9 
C 2.386828 9 4.676219 8.051703 6.363961 6.363961 
C 8.051703 4.676219 9 2.386828 9 0 
C 9 -2.386828 8.051703 -4.676219 6.363961 -6.363961 
C 4.676219 -8.051703 2.386828 -9 0 -9 
C -2.386828 -9 -4.676219 -8.051703 -6.363961 -6.363961 
C -8.051703 -4.676219 -9 -2.386828 -9 0 
C -9 2.386828 -8.051703 4.676219 -6.363961 6.363961 
C -4.676219 8.051703 -2.386828 9 0 9 
z
" id="mc09b8fc710" style="stroke:#000000;"/>
    </defs>
    <g clip-path="url(#p573824f2bd)">
     <use style="fill:#e2514a;stroke:#000000;" x="290.702895" xlink:href="#mc09b8fc710" y="249.741961"/>
    </g>
   </g>
   <g id="line2d_20">
    <defs>
     <path d="M 0 9 
C 2.386828 9 4.676219 8.051703 6.363961 6.363961 
C 8.051703 4.676219 9 2.386828 9 0 
C 9 -2.386828 8.051703 -4.676219 6.363961 -6.363961 
C 4.676219 -8.051703 2.386828 -9 0 -9 
C -2.386828 -9 -4.676219 -8.051703 -6.363961 -6.363961 
C -8.051703 -4.676219 -9 -2.386828 -9 0 
C -9 2.386828 -8.051703 4.676219 -6.363961 6.363961 
C -4.676219 8.051703 -2.386828 9 0 9 
z
" id="m689fdf4d5c" style="stroke:#000000;"/>
    </defs>
    <g clip-path="url(#p573824f2bd)">
     <use style="fill:#fca55d;stroke:#000000;" x="1220.064887" xlink:href="#m689fdf4d5c" y="867.778331"/>
    </g>
   </g>
   <g id="line2d_21">
    <g clip-path="url(#p573824f2bd)">
     <use style="stroke:#000000;" x="1162.680776" xlink:href="#m42552fa6ae" y="735.430228"/>
    </g>
   </g>
   <g id="line2d_22">
    <g clip-path="url(#p573824f2bd)">
     <use style="fill:#9e0142;stroke:#000000;" x="1184.683145" xlink:href="#ma9a2cb4dc4" y="715.537953"/>
    </g>
   </g>
   <g id="line2d_23">
    <g clip-path="url(#p573824f2bd)">
     <use style="fill:#9e0142;stroke:#000000;" x="1191.186846" xlink:href="#ma9a2cb4dc4" y="715.561016"/>
    </g>
   </g>
   <g id="line2d_24">
    <defs>
     <path d="M 0 9 
C 2.386828 9 4.676219 8.051703 6.363961 6.363961 
C 8.051703 4.676219 9 2.386828 9 0 
C 9 -2.386828 8.051703 -4.676219 6.363961 -6.363961 
C 4.676219 -8.051703 2.386828 -9 0 -9 
C -2.386828 -9 -4.676219 -8.051703 -6.363961 -6.363961 
C -8.051703 -4.676219 -9 -2.386828 -9 0 
C -9 2.386828 -8.051703 4.676219 -6.363961 6.363961 
C -4.676219 8.051703 -2.386828 9 0 9 
z
" id="m44f9c2dde7" style="stroke:#000000;"/>
    </defs>
    <g clip-path="url(#p573824f2bd)">
     <use style="fill:#fee999;stroke:#000000;" x="231.336691" xlink:href="#m44f9c2dde7" y="254.908433"/>
    </g>
   </g>
   <g id="line2d_25">
    <g clip-path="url(#p573824f2bd)">
     <use style="stroke:#000000;" x="326.317342" xlink:href="#m42552fa6ae" y="359.082663"/>
    </g>
   </g>
   <g id="line2d_26">
    <g clip-path="url(#p573824f2bd)">
     <use style="stroke:#000000;" x="988.263396" xlink:href="#m42552fa6ae" y="681.234514"/>
    </g>
   </g>
   <g id="line2d_27">
    <g clip-path="url(#p573824f2bd)">
     <use style="fill:#fca55d;stroke:#000000;" x="1217.849183" xlink:href="#m689fdf4d5c" y="867.475298"/>
    </g>
   </g>
   <g id="line2d_28">
    <g clip-path="url(#p573824f2bd)">
     <use style="fill:#e2514a;stroke:#000000;" x="287.218485" xlink:href="#mc09b8fc710" y="258.578955"/>
    </g>
   </g>
   <g id="line2d_29">
    <g clip-path="url(#p573824f2bd)">
     <use style="stroke:#000000;" x="606.222892" xlink:href="#m42552fa6ae" y="505.500185"/>
    </g>
   </g>
   <g id="line2d_30">
    <g clip-path="url(#p573824f2bd)">
     <use style="fill:#e2514a;stroke:#000000;" x="290.565091" xlink:href="#mc09b8fc710" y="258.177749"/>
    </g>
   </g>
   <g id="line2d_31">
    <g clip-path="url(#p573824f2bd)">
     <use style="fill:#fca55d;stroke:#000000;" x="1237.258353" xlink:href="#m689fdf4d5c" y="801.724443"/>
    </g>
   </g>
   <g id="line2d_32">
    <g clip-path="url(#p573824f2bd)">
     <use style="fill:#fca55d;stroke:#000000;" x="1235.087975" xlink:href="#m689fdf4d5c" y="801.818912"/>
    </g>
   </g>
   <g id="line2d_33">
    <defs>
     <path d="M 0 9 
C 2.386828 9 4.676219 8.051703 6.363961 6.363961 
C 8.051703 4.676219 9 2.386828 9 0 
C 9 -2.386828 8.051703 -4.676219 6.363961 -6.363961 
C 4.676219 -8.051703 2.386828 -9 0 -9 
C -2.386828 -9 -4.676219 -8.051703 -6.363961 -6.363961 
C -8.051703 -4.676219 -9 -2.386828 -9 0 
C -9 2.386828 -8.051703 4.676219 -6.363961 6.363961 
C -4.676219 8.051703 -2.386828 9 0 9 
z
" id="mac0b3abc68" style="stroke:#000000;"/>
    </defs>
    <g clip-path="url(#p573824f2bd)">
     <use style="fill:#a2d9a4;stroke:#000000;" x="792.458645" xlink:href="#mac0b3abc68" y="335.318797"/>
    </g>
   </g>
   <g id="line2d_34">
    <g clip-path="url(#p573824f2bd)">
     <use style="fill:#fca55d;stroke:#000000;" x="1234.830803" xlink:href="#m689fdf4d5c" y="801.786511"/>
    </g>
   </g>
   <g id="line2d_35">
    <g clip-path="url(#p573824f2bd)">
     <use style="fill:#9e0142;stroke:#000000;" x="1192.77837" xlink:href="#ma9a2cb4dc4" y="716.091369"/>
    </g>
   </g>
   <g id="line2d_36">
    <g clip-path="url(#p573824f2bd)">
     <use style="fill:#fca55d;stroke:#000000;" x="1234.489092" xlink:href="#m689fdf4d5c" y="801.742107"/>
    </g>
   </g>
   <g id="line2d_37">
    <defs>
     <path d="M 0 9 
C 2.386828 9 4.676219 8.051703 6.363961 6.363961 
C 8.051703 4.676219 9 2.386828 9 0 
C 9 -2.386828 8.051703 -4.676219 6.363961 -6.363961 
C 4.676219 -8.051703 2.386828 -9 0 -9 
C -2.386828 -9 -4.676219 -8.051703 -6.363961 -6.363961 
C -8.051703 -4.676219 -9 -2.386828 -9 0 
C -9 2.386828 -8.051703 4.676219 -6.363961 6.363961 
C -4.676219 8.051703 -2.386828 9 0 9 
z
" id="m1af6dc3dac" style="stroke:#000000;"/>
    </defs>
    <g clip-path="url(#p573824f2bd)">
     <use style="fill:#edf8a3;stroke:#000000;" x="642.376734" xlink:href="#m1af6dc3dac" y="227.626737"/>
    </g>
   </g>
   <g id="line2d_38">
    <g clip-path="url(#p573824f2bd)">
     <use style="fill:#fca55d;stroke:#000000;" x="1218.552251" xlink:href="#m689fdf4d5c" y="868.208861"/>
    </g>
   </g>
   <g id="line2d_39">
    <g clip-path="url(#p573824f2bd)">
     <use style="stroke:#000000;" x="256.006543" xlink:href="#m42552fa6ae" y="393.972227"/>
    </g>
   </g>
   <g id="line2d_40">
    <g clip-path="url(#p573824f2bd)">
     <use style="fill:#fca55d;stroke:#000000;" x="1235.29189" xlink:href="#m689fdf4d5c" y="801.814661"/>
    </g>
   </g>
   <g id="line2d_41">
    <g clip-path="url(#p573824f2bd)">
     <use style="fill:#a2d9a4;stroke:#000000;" x="786.450662" xlink:href="#mac0b3abc68" y="290.141729"/>
    </g>
   </g>
   <g id="line2d_42">
    <g clip-path="url(#p573824f2bd)">
     <use style="fill:#9e0142;stroke:#000000;" x="1188.847921" xlink:href="#ma9a2cb4dc4" y="715.718203"/>
    </g>
   </g>
   <g id="line2d_43">
    <g clip-path="url(#p573824f2bd)">
     <use style="fill:#9e0142;stroke:#000000;" x="1186.122277" xlink:href="#ma9a2cb4dc4" y="749.536093"/>
    </g>
   </g>
   <g id="line2d_44">
    <g clip-path="url(#p573824f2bd)">
     <use style="stroke:#000000;" x="668.870966" xlink:href="#m42552fa6ae" y="332.688835"/>
    </g>
   </g>
   <g id="line2d_45">
    <g clip-path="url(#p573824f2bd)">
     <use style="fill:#9e0142;stroke:#000000;" x="1194.928481" xlink:href="#ma9a2cb4dc4" y="716.147111"/>
    </g>
   </g>
   <g id="line2d_46">
    <g clip-path="url(#p573824f2bd)">
     <use style="stroke:#000000;" x="866.708322" xlink:href="#m42552fa6ae" y="648.272992"/>
    </g>
   </g>
   <g id="line2d_47">
    <defs>
     <path d="M 0 9 
C 2.386828 9 4.676219 8.051703 6.363961 6.363961 
C 8.051703 4.676219 9 2.386828 9 0 
C 9 -2.386828 8.051703 -4.676219 6.363961 -6.363961 
C 4.676219 -8.051703 2.386828 -9 0 -9 
C -2.386828 -9 -4.676219 -8.051703 -6.363961 -6.363961 
C -8.051703 -4.676219 -9 -2.386828 -9 0 
C -9 2.386828 -8.051703 4.676219 -6.363961 6.363961 
C -4.676219 8.051703 -2.386828 9 0 9 
z
" id="mad7092bf1c" style="stroke:#000000;"/>
    </defs>
    <g clip-path="url(#p573824f2bd)">
     <use style="fill:#47a0b3;stroke:#000000;" x="600.253347" xlink:href="#mad7092bf1c" y="232.117924"/>
    </g>
   </g>
   <g id="line2d_48">
    <g clip-path="url(#p573824f2bd)">
     <use style="fill:#fca55d;stroke:#000000;" x="1219.032697" xlink:href="#m689fdf4d5c" y="867.753046"/>
    </g>
   </g>
   <g id="line2d_49">
    <g clip-path="url(#p573824f2bd)">
     <use style="fill:#9e0142;stroke:#000000;" x="1161.850149" xlink:href="#ma9a2cb4dc4" y="781.561809"/>
    </g>
   </g>
   <g id="line2d_50">
    <g clip-path="url(#p573824f2bd)">
     <use style="stroke:#000000;" x="748.494172" xlink:href="#m42552fa6ae" y="344.826518"/>
    </g>
   </g>
   <g id="line2d_51">
    <g clip-path="url(#p573824f2bd)">
     <use style="fill:#fca55d;stroke:#000000;" x="1241.192424" xlink:href="#m689fdf4d5c" y="801.789068"/>
    </g>
   </g>
   <g id="line2d_52">
    <g clip-path="url(#p573824f2bd)">
     <use style="fill:#9e0142;stroke:#000000;" x="1165.509675" xlink:href="#ma9a2cb4dc4" y="781.749683"/>
    </g>
   </g>
   <g id="line2d_53">
    <g clip-path="url(#p573824f2bd)">
     <use style="fill:#fee999;stroke:#000000;" x="233.81722" xlink:href="#m44f9c2dde7" y="251.157141"/>
    </g>
   </g>
   <g id="line2d_54">
    <g clip-path="url(#p573824f2bd)">
     <use style="fill:#9e0142;stroke:#000000;" x="1189.150978" xlink:href="#ma9a2cb4dc4" y="716.194743"/>
    </g>
   </g>
   <g id="line2d_55">
    <g clip-path="url(#p573824f2bd)">
     <use style="fill:#9e0142;stroke:#000000;" x="1186.278366" xlink:href="#ma9a2cb4dc4" y="716.477871"/>
    </g>
   </g>
   <g id="line2d_56">
    <g clip-path="url(#p573824f2bd)">
     <use style="fill:#a2d9a4;stroke:#000000;" x="747.586172" xlink:href="#mac0b3abc68" y="246.202558"/>
    </g>
   </g>
   <g id="line2d_57">
    <g clip-path="url(#p573824f2bd)">
     <use style="fill:#a2d9a4;stroke:#000000;" x="747.929015" xlink:href="#mac0b3abc68" y="246.296371"/>
    </g>
   </g>
   <g id="line2d_58">
    <g clip-path="url(#p573824f2bd)">
     <use style="fill:#fca55d;stroke:#000000;" x="1241.097121" xlink:href="#m689fdf4d5c" y="801.709919"/>
    </g>
   </g>
   <g id="line2d_59">
    <g clip-path="url(#p573824f2bd)">
     <use style="stroke:#000000;" x="240.526746" xlink:href="#m42552fa6ae" y="305.591657"/>
    </g>
   </g>
   <g id="line2d_60">
    <g clip-path="url(#p573824f2bd)">
     <use style="stroke:#000000;" x="237.774746" xlink:href="#m42552fa6ae" y="309.44338"/>
    </g>
   </g>
   <g id="line2d_61">
    <g clip-path="url(#p573824f2bd)">
     <use style="fill:#fee999;stroke:#000000;" x="230.727273" xlink:href="#m44f9c2dde7" y="255.668154"/>
    </g>
   </g>
   <g id="line2d_62">
    <g clip-path="url(#p573824f2bd)">
     <use style="fill:#47a0b3;stroke:#000000;" x="600.773887" xlink:href="#mad7092bf1c" y="234.023061"/>
    </g>
   </g>
   <g id="line2d_63">
    <g clip-path="url(#p573824f2bd)">
     <use style="fill:#fca55d;stroke:#000000;" x="1243.78322" xlink:href="#m689fdf4d5c" y="801.744018"/>
    </g>
   </g>
   <g id="line2d_64">
    <g clip-path="url(#p573824f2bd)">
     <use style="fill:#47a0b3;stroke:#000000;" x="600.886464" xlink:href="#mad7092bf1c" y="227.527537"/>
    </g>
   </g>
   <g id="line2d_65">
    <g clip-path="url(#p573824f2bd)">
     <use style="fill:#fca55d;stroke:#000000;" x="1237.808481" xlink:href="#m689fdf4d5c" y="801.710998"/>
    </g>
   </g>
   <g id="line2d_66">
    <g clip-path="url(#p573824f2bd)">
     <use style="stroke:#000000;" x="1133.00513" xlink:href="#m42552fa6ae" y="808.746038"/>
    </g>
   </g>
   <g id="line2d_67">
    <g clip-path="url(#p573824f2bd)">
     <use style="fill:#9e0142;stroke:#000000;" x="1188.667751" xlink:href="#ma9a2cb4dc4" y="715.853941"/>
    </g>
   </g>
   <g id="line2d_68">
    <g clip-path="url(#p573824f2bd)">
     <use style="fill:#fca55d;stroke:#000000;" x="1235.162714" xlink:href="#m689fdf4d5c" y="801.779256"/>
    </g>
   </g>
   <g id="line2d_69">
    <g clip-path="url(#p573824f2bd)">
     <use style="fill:#9e0142;stroke:#000000;" x="1157.81536" xlink:href="#ma9a2cb4dc4" y="814.818395"/>
    </g>
   </g>
   <g id="line2d_70">
    <g clip-path="url(#p573824f2bd)">
     <use style="fill:#edf8a3;stroke:#000000;" x="642.455322" xlink:href="#m1af6dc3dac" y="232.707803"/>
    </g>
   </g>
   <g id="line2d_71">
    <g clip-path="url(#p573824f2bd)">
     <use style="stroke:#000000;" x="817.31514" xlink:href="#m42552fa6ae" y="1175.031151"/>
    </g>
   </g>
   <g id="line2d_72">
    <g clip-path="url(#p573824f2bd)">
     <use style="stroke:#000000;" x="1142.141059" xlink:href="#m42552fa6ae" y="709.464875"/>
    </g>
   </g>
   <g id="line2d_73">
    <g clip-path="url(#p573824f2bd)">
     <use style="fill:#9e0142;stroke:#000000;" x="1190.571908" xlink:href="#ma9a2cb4dc4" y="716.046291"/>
    </g>
   </g>
   <g id="line2d_74">
    <g clip-path="url(#p573824f2bd)">
     <use style="fill:#9e0142;stroke:#000000;" x="1161.902856" xlink:href="#ma9a2cb4dc4" y="781.635344"/>
    </g>
   </g>
   <g id="line2d_75">
    <g clip-path="url(#p573824f2bd)">
     <use style="fill:#edf8a3;stroke:#000000;" x="643.096131" xlink:href="#m1af6dc3dac" y="223.2"/>
    </g>
   </g>
   <g id="line2d_76">
    <g clip-path="url(#p573824f2bd)">
     <use style="stroke:#000000;" x="667.719189" xlink:href="#m42552fa6ae" y="328.746533"/>
    </g>
   </g>
   <g id="line2d_77">
    <g clip-path="url(#p573824f2bd)">
     <use style="fill:#fca55d;stroke:#000000;" x="1213.819617" xlink:href="#m689fdf4d5c" y="868.225869"/>
    </g>
   </g>
   <g id="line2d_78">
    <g clip-path="url(#p573824f2bd)">
     <use style="fill:#9e0142;stroke:#000000;" x="1188.0075" xlink:href="#ma9a2cb4dc4" y="715.320897"/>
    </g>
   </g>
   <g id="line2d_79">
    <g clip-path="url(#p573824f2bd)">
     <use style="fill:#9e0142;stroke:#000000;" x="1186.772357" xlink:href="#ma9a2cb4dc4" y="716.52627"/>
    </g>
   </g>
   <g id="line2d_80">
    <g clip-path="url(#p573824f2bd)">
     <use style="fill:#9e0142;stroke:#000000;" x="1193.670266" xlink:href="#ma9a2cb4dc4" y="716.555341"/>
    </g>
   </g>
   <g id="line2d_81">
    <g clip-path="url(#p573824f2bd)">
     <use style="stroke:#000000;" x="799.620055" xlink:href="#m42552fa6ae" y="1231.2"/>
    </g>
   </g>
   <g id="line2d_82">
    <g clip-path="url(#p573824f2bd)">
     <use style="fill:#9e0142;stroke:#000000;" x="1189.178741" xlink:href="#ma9a2cb4dc4" y="716.282769"/>
    </g>
   </g>
   <g id="line2d_83">
    <g clip-path="url(#p573824f2bd)">
     <use style="stroke:#000000;" x="695.278492" xlink:href="#m42552fa6ae" y="448.129244"/>
    </g>
   </g>
   <g id="line2d_84">
    <g clip-path="url(#p573824f2bd)">
     <use style="fill:#9e0142;stroke:#000000;" x="1185.259588" xlink:href="#ma9a2cb4dc4" y="715.442686"/>
    </g>
   </g>
   <g id="line2d_85">
    <g clip-path="url(#p573824f2bd)">
     <use style="fill:#9e0142;stroke:#000000;" x="1188.859717" xlink:href="#ma9a2cb4dc4" y="716.601561"/>
    </g>
   </g>
   <g id="line2d_86">
    <g clip-path="url(#p573824f2bd)">
     <use style="stroke:#000000;" x="733.916268" xlink:href="#m42552fa6ae" y="326.963221"/>
    </g>
   </g>
   <g id="line2d_87">
    <g clip-path="url(#p573824f2bd)">
     <use style="fill:#fca55d;stroke:#000000;" x="1210.061419" xlink:href="#m689fdf4d5c" y="867.621577"/>
    </g>
   </g>
   <g id="line2d_88">
    <g clip-path="url(#p573824f2bd)">
     <use style="fill:#9e0142;stroke:#000000;" x="1183.569963" xlink:href="#ma9a2cb4dc4" y="715.758467"/>
    </g>
   </g>
   <g id="line2d_89">
    <g clip-path="url(#p573824f2bd)">
     <use style="fill:#fca55d;stroke:#000000;" x="1245.272727" xlink:href="#m689fdf4d5c" y="801.80365"/>
    </g>
   </g>
   <g id="line2d_90">
    <g clip-path="url(#p573824f2bd)">
     <use style="fill:#fca55d;stroke:#000000;" x="1244.319168" xlink:href="#m689fdf4d5c" y="801.717907"/>
    </g>
   </g>
   <g id="line2d_91">
    <g clip-path="url(#p573824f2bd)">
     <use style="stroke:#000000;" x="953.952075" xlink:href="#m42552fa6ae" y="769.906917"/>
    </g>
   </g>
   <g id="line2d_92">
    <g clip-path="url(#p573824f2bd)">
     <use style="fill:#9e0142;stroke:#000000;" x="1187.492732" xlink:href="#ma9a2cb4dc4" y="716.293582"/>
    </g>
   </g>
   <g id="line2d_93">
    <g clip-path="url(#p573824f2bd)">
     <use style="stroke:#000000;" x="749.395244" xlink:href="#m42552fa6ae" y="342.061267"/>
    </g>
   </g>
   <g id="line2d_94">
    <g clip-path="url(#p573824f2bd)">
     <use style="stroke:#000000;" x="1123.602437" xlink:href="#m42552fa6ae" y="787.376115"/>
    </g>
   </g>
   <g id="line2d_95">
    <g clip-path="url(#p573824f2bd)">
     <use style="fill:#a2d9a4;stroke:#000000;" x="750.71582" xlink:href="#mac0b3abc68" y="250.281449"/>
    </g>
   </g>
   <g id="patch_3">
    <path d="M 180 1281.6 
L 180 172.8 
" style="fill:none;stroke:#000000;stroke-linecap:square;stroke-linejoin:miter;stroke-width:0.8;"/>
   </g>
   <g id="patch_4">
    <path d="M 1296 1281.6 
L 1296 172.8 
" style="fill:none;stroke:#000000;stroke-linecap:square;stroke-linejoin:miter;stroke-width:0.8;"/>
   </g>
   <g id="patch_5">
    <path d="M 180 1281.6 
L 1296 1281.6 
" style="fill:none;stroke:#000000;stroke-linecap:square;stroke-linejoin:miter;stroke-width:0.8;"/>
   </g>
   <g id="patch_6">
    <path d="M 180 172.8 
L 1296 172.8 
" style="fill:none;stroke:#000000;stroke-linecap:square;stroke-linejoin:miter;stroke-width:0.8;"/>
   </g>
  </g>
 </g>
 <defs>
  <clipPath id="p573824f2bd">
   <rect height="1108.8" width="1116" x="180" y="172.8"/>
  </clipPath>
 </defs>
</svg>
