<?xml version="1.0" encoding="utf-8" standalone="no"?>
<!DOCTYPE svg PUBLIC "-//W3C//DTD SVG 1.1//EN"
  "http://www.w3.org/Graphics/SVG/1.1/DTD/svg11.dtd">
<!-- Created with matplotlib (https://matplotlib.org/) -->
<svg height="1440pt" version="1.1" viewBox="0 0 1440 1440" width="1440pt" xmlns="http://www.w3.org/2000/svg" xmlns:xlink="http://www.w3.org/1999/xlink">
 <defs>
  <style type="text/css">
*{stroke-linecap:butt;stroke-linejoin:round;}
  </style>
 </defs>
 <g id="figure_1">
  <g id="patch_1">
   <path d="M 0 1440 
L 1440 1440 
L 1440 0 
L 0 0 
z
" style="fill:#ffffff;"/>
  </g>
  <g id="axes_1">
   <g id="patch_2">
    <path d="M 180 1281.6 
L 1296 1281.6 
L 1296 172.8 
L 180 172.8 
z
" style="fill:#ffffff;"/>
   </g>
   <g id="matplotlib.axis_1">
    <g id="xtick_1">
     <g id="line2d_1">
      <defs>
       <path d="M 0 0 
L 0 3.5 
" id="ma2c2183f03" style="stroke:#000000;stroke-width:0.8;"/>
      </defs>
      <g>
       <use style="stroke:#000000;stroke-width:0.8;" x="191.642546" xlink:href="#ma2c2183f03" y="1281.6"/>
      </g>
     </g>
     <g id="text_1">
      <!-- −0.15 -->
      <defs>
       <path d="M 10.59375 35.5 
L 73.1875 35.5 
L 73.1875 27.203125 
L 10.59375 27.203125 
z
" id="DejaVuSans-8722"/>
       <path d="M 31.78125 66.40625 
Q 24.171875 66.40625 20.328125 58.90625 
Q 16.5 51.421875 16.5 36.375 
Q 16.5 21.390625 20.328125 13.890625 
Q 24.171875 6.390625 31.78125 6.390625 
Q 39.453125 6.390625 43.28125 13.890625 
Q 47.125 21.390625 47.125 36.375 
Q 47.125 51.421875 43.28125 58.90625 
Q 39.453125 66.40625 31.78125 66.40625 
z
M 31.78125 74.21875 
Q 44.046875 74.21875 50.515625 64.515625 
Q 56.984375 54.828125 56.984375 36.375 
Q 56.984375 17.96875 50.515625 8.265625 
Q 44.046875 -1.421875 31.78125 -1.421875 
Q 19.53125 -1.421875 13.0625 8.265625 
Q 6.59375 17.96875 6.59375 36.375 
Q 6.59375 54.828125 13.0625 64.515625 
Q 19.53125 74.21875 31.78125 74.21875 
z
" id="DejaVuSans-48"/>
       <path d="M 10.6875 12.40625 
L 21 12.40625 
L 21 0 
L 10.6875 0 
z
" id="DejaVuSans-46"/>
       <path d="M 12.40625 8.296875 
L 28.515625 8.296875 
L 28.515625 63.921875 
L 10.984375 60.40625 
L 10.984375 69.390625 
L 28.421875 72.90625 
L 38.28125 72.90625 
L 38.28125 8.296875 
L 54.390625 8.296875 
L 54.390625 0 
L 12.40625 0 
z
" id="DejaVuSans-49"/>
       <path d="M 10.796875 72.90625 
L 49.515625 72.90625 
L 49.515625 64.59375 
L 19.828125 64.59375 
L 19.828125 46.734375 
Q 21.96875 47.46875 24.109375 47.828125 
Q 26.265625 48.1875 28.421875 48.1875 
Q 40.625 48.1875 47.75 41.5 
Q 54.890625 34.8125 54.890625 23.390625 
Q 54.890625 11.625 47.5625 5.09375 
Q 40.234375 -1.421875 26.90625 -1.421875 
Q 22.3125 -1.421875 17.546875 -0.640625 
Q 12.796875 0.140625 7.71875 1.703125 
L 7.71875 11.625 
Q 12.109375 9.234375 16.796875 8.0625 
Q 21.484375 6.890625 26.703125 6.890625 
Q 35.15625 6.890625 40.078125 11.328125 
Q 45.015625 15.765625 45.015625 23.390625 
Q 45.015625 31 40.078125 35.4375 
Q 35.15625 39.890625 26.703125 39.890625 
Q 22.75 39.890625 18.8125 39.015625 
Q 14.890625 38.140625 10.796875 36.28125 
z
" id="DejaVuSans-53"/>
      </defs>
      <g transform="translate(176.31989 1296.198437)scale(0.1 -0.1)">
       <use xlink:href="#DejaVuSans-8722"/>
       <use x="83.789062" xlink:href="#DejaVuSans-48"/>
       <use x="147.412109" xlink:href="#DejaVuSans-46"/>
       <use x="179.199219" xlink:href="#DejaVuSans-49"/>
       <use x="242.822266" xlink:href="#DejaVuSans-53"/>
      </g>
     </g>
    </g>
    <g id="xtick_2">
     <g id="line2d_2">
      <g>
       <use style="stroke:#000000;stroke-width:0.8;" x="341.57896" xlink:href="#ma2c2183f03" y="1281.6"/>
      </g>
     </g>
     <g id="text_2">
      <!-- −0.10 -->
      <g transform="translate(326.256304 1296.198437)scale(0.1 -0.1)">
       <use xlink:href="#DejaVuSans-8722"/>
       <use x="83.789062" xlink:href="#DejaVuSans-48"/>
       <use x="147.412109" xlink:href="#DejaVuSans-46"/>
       <use x="179.199219" xlink:href="#DejaVuSans-49"/>
       <use x="242.822266" xlink:href="#DejaVuSans-48"/>
      </g>
     </g>
    </g>
    <g id="xtick_3">
     <g id="line2d_3">
      <g>
       <use style="stroke:#000000;stroke-width:0.8;" x="491.515374" xlink:href="#ma2c2183f03" y="1281.6"/>
      </g>
     </g>
     <g id="text_3">
      <!-- −0.05 -->
      <g transform="translate(476.192717 1296.198437)scale(0.1 -0.1)">
       <use xlink:href="#DejaVuSans-8722"/>
       <use x="83.789062" xlink:href="#DejaVuSans-48"/>
       <use x="147.412109" xlink:href="#DejaVuSans-46"/>
       <use x="179.199219" xlink:href="#DejaVuSans-48"/>
       <use x="242.822266" xlink:href="#DejaVuSans-53"/>
      </g>
     </g>
    </g>
    <g id="xtick_4">
     <g id="line2d_4">
      <g>
       <use style="stroke:#000000;stroke-width:0.8;" x="641.451787" xlink:href="#ma2c2183f03" y="1281.6"/>
      </g>
     </g>
     <g id="text_4">
      <!-- 0.00 -->
      <g transform="translate(630.318975 1296.198437)scale(0.1 -0.1)">
       <use xlink:href="#DejaVuSans-48"/>
       <use x="63.623047" xlink:href="#DejaVuSans-46"/>
       <use x="95.410156" xlink:href="#DejaVuSans-48"/>
       <use x="159.033203" xlink:href="#DejaVuSans-48"/>
      </g>
     </g>
    </g>
    <g id="xtick_5">
     <g id="line2d_5">
      <g>
       <use style="stroke:#000000;stroke-width:0.8;" x="791.388201" xlink:href="#ma2c2183f03" y="1281.6"/>
      </g>
     </g>
     <g id="text_5">
      <!-- 0.05 -->
      <g transform="translate(780.255389 1296.198437)scale(0.1 -0.1)">
       <use xlink:href="#DejaVuSans-48"/>
       <use x="63.623047" xlink:href="#DejaVuSans-46"/>
       <use x="95.410156" xlink:href="#DejaVuSans-48"/>
       <use x="159.033203" xlink:href="#DejaVuSans-53"/>
      </g>
     </g>
    </g>
    <g id="xtick_6">
     <g id="line2d_6">
      <g>
       <use style="stroke:#000000;stroke-width:0.8;" x="941.324615" xlink:href="#ma2c2183f03" y="1281.6"/>
      </g>
     </g>
     <g id="text_6">
      <!-- 0.10 -->
      <g transform="translate(930.191802 1296.198437)scale(0.1 -0.1)">
       <use xlink:href="#DejaVuSans-48"/>
       <use x="63.623047" xlink:href="#DejaVuSans-46"/>
       <use x="95.410156" xlink:href="#DejaVuSans-49"/>
       <use x="159.033203" xlink:href="#DejaVuSans-48"/>
      </g>
     </g>
    </g>
    <g id="xtick_7">
     <g id="line2d_7">
      <g>
       <use style="stroke:#000000;stroke-width:0.8;" x="1091.261029" xlink:href="#ma2c2183f03" y="1281.6"/>
      </g>
     </g>
     <g id="text_7">
      <!-- 0.15 -->
      <g transform="translate(1080.128216 1296.198437)scale(0.1 -0.1)">
       <use xlink:href="#DejaVuSans-48"/>
       <use x="63.623047" xlink:href="#DejaVuSans-46"/>
       <use x="95.410156" xlink:href="#DejaVuSans-49"/>
       <use x="159.033203" xlink:href="#DejaVuSans-53"/>
      </g>
     </g>
    </g>
    <g id="xtick_8">
     <g id="line2d_8">
      <g>
       <use style="stroke:#000000;stroke-width:0.8;" x="1241.197442" xlink:href="#ma2c2183f03" y="1281.6"/>
      </g>
     </g>
     <g id="text_8">
      <!-- 0.20 -->
      <defs>
       <path d="M 19.1875 8.296875 
L 53.609375 8.296875 
L 53.609375 0 
L 7.328125 0 
L 7.328125 8.296875 
Q 12.9375 14.109375 22.625 23.890625 
Q 32.328125 33.6875 34.8125 36.53125 
Q 39.546875 41.84375 41.421875 45.53125 
Q 43.3125 49.21875 43.3125 52.78125 
Q 43.3125 58.59375 39.234375 62.25 
Q 35.15625 65.921875 28.609375 65.921875 
Q 23.96875 65.921875 18.8125 64.3125 
Q 13.671875 62.703125 7.8125 59.421875 
L 7.8125 69.390625 
Q 13.765625 71.78125 18.9375 73 
Q 24.125 74.21875 28.421875 74.21875 
Q 39.75 74.21875 46.484375 68.546875 
Q 53.21875 62.890625 53.21875 53.421875 
Q 53.21875 48.921875 51.53125 44.890625 
Q 49.859375 40.875 45.40625 35.40625 
Q 44.1875 33.984375 37.640625 27.21875 
Q 31.109375 20.453125 19.1875 8.296875 
z
" id="DejaVuSans-50"/>
      </defs>
      <g transform="translate(1230.06463 1296.198437)scale(0.1 -0.1)">
       <use xlink:href="#DejaVuSans-48"/>
       <use x="63.623047" xlink:href="#DejaVuSans-46"/>
       <use x="95.410156" xlink:href="#DejaVuSans-50"/>
       <use x="159.033203" xlink:href="#DejaVuSans-48"/>
      </g>
     </g>
    </g>
   </g>
   <g id="matplotlib.axis_2">
    <g id="ytick_1">
     <g id="line2d_9">
      <defs>
       <path d="M 0 0 
L -3.5 0 
" id="ma83063c4fe" style="stroke:#000000;stroke-width:0.8;"/>
      </defs>
      <g>
       <use style="stroke:#000000;stroke-width:0.8;" x="180" xlink:href="#ma83063c4fe" y="1276.790527"/>
      </g>
     </g>
     <g id="text_9">
      <!-- −0.10 -->
      <g transform="translate(142.354688 1280.589746)scale(0.1 -0.1)">
       <use xlink:href="#DejaVuSans-8722"/>
       <use x="83.789062" xlink:href="#DejaVuSans-48"/>
       <use x="147.412109" xlink:href="#DejaVuSans-46"/>
       <use x="179.199219" xlink:href="#DejaVuSans-49"/>
       <use x="242.822266" xlink:href="#DejaVuSans-48"/>
      </g>
     </g>
    </g>
    <g id="ytick_2">
     <g id="line2d_10">
      <g>
       <use style="stroke:#000000;stroke-width:0.8;" x="180" xlink:href="#ma83063c4fe" y="1117.910912"/>
      </g>
     </g>
     <g id="text_10">
      <!-- −0.05 -->
      <g transform="translate(142.354688 1121.710131)scale(0.1 -0.1)">
       <use xlink:href="#DejaVuSans-8722"/>
       <use x="83.789062" xlink:href="#DejaVuSans-48"/>
       <use x="147.412109" xlink:href="#DejaVuSans-46"/>
       <use x="179.199219" xlink:href="#DejaVuSans-48"/>
       <use x="242.822266" xlink:href="#DejaVuSans-53"/>
      </g>
     </g>
    </g>
    <g id="ytick_3">
     <g id="line2d_11">
      <g>
       <use style="stroke:#000000;stroke-width:0.8;" x="180" xlink:href="#ma83063c4fe" y="959.031298"/>
      </g>
     </g>
     <g id="text_11">
      <!-- 0.00 -->
      <g transform="translate(150.734375 962.830516)scale(0.1 -0.1)">
       <use xlink:href="#DejaVuSans-48"/>
       <use x="63.623047" xlink:href="#DejaVuSans-46"/>
       <use x="95.410156" xlink:href="#DejaVuSans-48"/>
       <use x="159.033203" xlink:href="#DejaVuSans-48"/>
      </g>
     </g>
    </g>
    <g id="ytick_4">
     <g id="line2d_12">
      <g>
       <use style="stroke:#000000;stroke-width:0.8;" x="180" xlink:href="#ma83063c4fe" y="800.151683"/>
      </g>
     </g>
     <g id="text_12">
      <!-- 0.05 -->
      <g transform="translate(150.734375 803.950902)scale(0.1 -0.1)">
       <use xlink:href="#DejaVuSans-48"/>
       <use x="63.623047" xlink:href="#DejaVuSans-46"/>
       <use x="95.410156" xlink:href="#DejaVuSans-48"/>
       <use x="159.033203" xlink:href="#DejaVuSans-53"/>
      </g>
     </g>
    </g>
    <g id="ytick_5">
     <g id="line2d_13">
      <g>
       <use style="stroke:#000000;stroke-width:0.8;" x="180" xlink:href="#ma83063c4fe" y="641.272068"/>
      </g>
     </g>
     <g id="text_13">
      <!-- 0.10 -->
      <g transform="translate(150.734375 645.071287)scale(0.1 -0.1)">
       <use xlink:href="#DejaVuSans-48"/>
       <use x="63.623047" xlink:href="#DejaVuSans-46"/>
       <use x="95.410156" xlink:href="#DejaVuSans-49"/>
       <use x="159.033203" xlink:href="#DejaVuSans-48"/>
      </g>
     </g>
    </g>
    <g id="ytick_6">
     <g id="line2d_14">
      <g>
       <use style="stroke:#000000;stroke-width:0.8;" x="180" xlink:href="#ma83063c4fe" y="482.392453"/>
      </g>
     </g>
     <g id="text_14">
      <!-- 0.15 -->
      <g transform="translate(150.734375 486.191672)scale(0.1 -0.1)">
       <use xlink:href="#DejaVuSans-48"/>
       <use x="63.623047" xlink:href="#DejaVuSans-46"/>
       <use x="95.410156" xlink:href="#DejaVuSans-49"/>
       <use x="159.033203" xlink:href="#DejaVuSans-53"/>
      </g>
     </g>
    </g>
    <g id="ytick_7">
     <g id="line2d_15">
      <g>
       <use style="stroke:#000000;stroke-width:0.8;" x="180" xlink:href="#ma83063c4fe" y="323.512839"/>
      </g>
     </g>
     <g id="text_15">
      <!-- 0.20 -->
      <g transform="translate(150.734375 327.312057)scale(0.1 -0.1)">
       <use xlink:href="#DejaVuSans-48"/>
       <use x="63.623047" xlink:href="#DejaVuSans-46"/>
       <use x="95.410156" xlink:href="#DejaVuSans-50"/>
       <use x="159.033203" xlink:href="#DejaVuSans-48"/>
      </g>
     </g>
    </g>
   </g>
   <g id="line2d_16">
    <defs>
     <path d="M 0 3 
C 0.795609 3 1.55874 2.683901 2.12132 2.12132 
C 2.683901 1.55874 3 0.795609 3 0 
C 3 -0.795609 2.683901 -1.55874 2.12132 -2.12132 
C 1.55874 -2.683901 0.795609 -3 0 -3 
C -0.795609 -3 -1.55874 -2.683901 -2.12132 -2.12132 
C -2.683901 -1.55874 -3 -0.795609 -3 0 
C -3 0.795609 -2.683901 1.55874 -2.12132 2.12132 
C -1.55874 2.683901 -0.795609 3 0 3 
z
" id="m92dcf23977" style="stroke:#000000;"/>
    </defs>
    <g clip-path="url(#pa439787187)">
     <use style="stroke:#000000;" x="625.025647" xlink:href="#m92dcf23977" y="230.504489"/>
    </g>
   </g>
   <g id="line2d_17">
    <g clip-path="url(#pa439787187)">
     <use style="stroke:#000000;" x="625.029691" xlink:href="#m92dcf23977" y="223.2"/>
    </g>
   </g>
   <g id="line2d_18">
    <g clip-path="url(#pa439787187)">
     <use style="stroke:#000000;" x="742.876065" xlink:href="#m92dcf23977" y="302.616223"/>
    </g>
   </g>
   <g id="line2d_19">
    <g clip-path="url(#pa439787187)">
     <use style="stroke:#000000;" x="801.874604" xlink:href="#m92dcf23977" y="475.424813"/>
    </g>
   </g>
   <g id="line2d_20">
    <g clip-path="url(#pa439787187)">
     <use style="stroke:#000000;" x="1206.288924" xlink:href="#m92dcf23977" y="1009.538527"/>
    </g>
   </g>
   <g id="line2d_21">
    <g clip-path="url(#pa439787187)">
     <use style="stroke:#000000;" x="806.750631" xlink:href="#m92dcf23977" y="463.222122"/>
    </g>
   </g>
   <g id="line2d_22">
    <g clip-path="url(#pa439787187)">
     <use style="stroke:#000000;" x="1245.272727" xlink:href="#m92dcf23977" y="1162.010539"/>
    </g>
   </g>
   <g id="line2d_23">
    <g clip-path="url(#pa439787187)">
     <use style="stroke:#000000;" x="1150.025777" xlink:href="#m92dcf23977" y="991.671335"/>
    </g>
   </g>
   <g id="line2d_24">
    <g clip-path="url(#pa439787187)">
     <use style="stroke:#000000;" x="1167.783329" xlink:href="#m92dcf23977" y="945.427388"/>
    </g>
   </g>
   <g id="line2d_25">
    <g clip-path="url(#pa439787187)">
     <use style="stroke:#000000;" x="623.345132" xlink:href="#m92dcf23977" y="463.877944"/>
    </g>
   </g>
   <g id="line2d_26">
    <g clip-path="url(#pa439787187)">
     <use style="stroke:#000000;" x="625.299835" xlink:href="#m92dcf23977" y="235.699962"/>
    </g>
   </g>
   <g id="line2d_27">
    <g clip-path="url(#pa439787187)">
     <use style="stroke:#000000;" x="1217.838524" xlink:href="#m92dcf23977" y="1014.877003"/>
    </g>
   </g>
   <g id="line2d_28">
    <g clip-path="url(#pa439787187)">
     <use style="stroke:#000000;" x="1183.87702" xlink:href="#m92dcf23977" y="1035.873667"/>
    </g>
   </g>
   <g id="line2d_29">
    <g clip-path="url(#pa439787187)">
     <use style="stroke:#000000;" x="735.942075" xlink:href="#m92dcf23977" y="237.884845"/>
    </g>
   </g>
   <g id="line2d_30">
    <defs>
     <path d="M 0 9 
C 2.386828 9 4.676219 8.051703 6.363961 6.363961 
C 8.051703 4.676219 9 2.386828 9 0 
C 9 -2.386828 8.051703 -4.676219 6.363961 -6.363961 
C 4.676219 -8.051703 2.386828 -9 0 -9 
C -2.386828 -9 -4.676219 -8.051703 -6.363961 -6.363961 
C -8.051703 -4.676219 -9 -2.386828 -9 0 
C -9 2.386828 -8.051703 4.676219 -6.363961 6.363961 
C -4.676219 8.051703 -2.386828 9 0 9 
z
" id="maf439aafd7" style="stroke:#000000;"/>
    </defs>
    <g clip-path="url(#pa439787187)">
     <use style="fill:#9e0142;stroke:#000000;" x="743.276056" xlink:href="#maf439aafd7" y="230.893946"/>
    </g>
   </g>
   <g id="line2d_31">
    <g clip-path="url(#pa439787187)">
     <use style="stroke:#000000;" x="1157.29015" xlink:href="#m92dcf23977" y="1081.387042"/>
    </g>
   </g>
   <g id="line2d_32">
    <g clip-path="url(#pa439787187)">
     <use style="stroke:#000000;" x="760.622601" xlink:href="#m92dcf23977" y="344.178648"/>
    </g>
   </g>
   <g id="line2d_33">
    <g clip-path="url(#pa439787187)">
     <use style="stroke:#000000;" x="659.246488" xlink:href="#m92dcf23977" y="418.674331"/>
    </g>
   </g>
   <g id="line2d_34">
    <defs>
     <path d="M 0 9 
C 2.386828 9 4.676219 8.051703 6.363961 6.363961 
C 8.051703 4.676219 9 2.386828 9 0 
C 9 -2.386828 8.051703 -4.676219 6.363961 -6.363961 
C 4.676219 -8.051703 2.386828 -9 0 -9 
C -2.386828 -9 -4.676219 -8.051703 -6.363961 -6.363961 
C -8.051703 -4.676219 -9 -2.386828 -9 0 
C -9 2.386828 -8.051703 4.676219 -6.363961 6.363961 
C -4.676219 8.051703 -2.386828 9 0 9 
z
" id="m46060c23ce" style="stroke:#000000;"/>
    </defs>
    <g clip-path="url(#pa439787187)">
     <use style="fill:#ffffbe;stroke:#000000;" x="1213.548097" xlink:href="#m46060c23ce" y="965.602562"/>
    </g>
   </g>
   <g id="line2d_35">
    <g clip-path="url(#pa439787187)">
     <use style="stroke:#000000;" x="731.83466" xlink:href="#m92dcf23977" y="282.880416"/>
    </g>
   </g>
   <g id="line2d_36">
    <g clip-path="url(#pa439787187)">
     <use style="stroke:#000000;" x="767.608304" xlink:href="#m92dcf23977" y="294.177642"/>
    </g>
   </g>
   <g id="line2d_37">
    <g clip-path="url(#pa439787187)">
     <use style="stroke:#000000;" x="618.374992" xlink:href="#m92dcf23977" y="523.4567"/>
    </g>
   </g>
   <g id="line2d_38">
    <g clip-path="url(#pa439787187)">
     <use style="stroke:#000000;" x="951.463027" xlink:href="#m92dcf23977" y="663.027881"/>
    </g>
   </g>
   <g id="line2d_39">
    <g clip-path="url(#pa439787187)">
     <use style="fill:#ffffbe;stroke:#000000;" x="1215.818888" xlink:href="#m46060c23ce" y="965.486966"/>
    </g>
   </g>
   <g id="line2d_40">
    <g clip-path="url(#pa439787187)">
     <use style="stroke:#000000;" x="675.142746" xlink:href="#m92dcf23977" y="415.176271"/>
    </g>
   </g>
   <g id="line2d_41">
    <g clip-path="url(#pa439787187)">
     <use style="stroke:#000000;" x="964.868632" xlink:href="#m92dcf23977" y="856.900521"/>
    </g>
   </g>
   <g id="line2d_42">
    <g clip-path="url(#pa439787187)">
     <use style="stroke:#000000;" x="1203.509621" xlink:href="#m92dcf23977" y="1228.75899"/>
    </g>
   </g>
   <g id="line2d_43">
    <g clip-path="url(#pa439787187)">
     <use style="fill:#9e0142;stroke:#000000;" x="742.284889" xlink:href="#maf439aafd7" y="236.1429"/>
    </g>
   </g>
   <g id="line2d_44">
    <g clip-path="url(#pa439787187)">
     <use style="stroke:#000000;" x="230.727273" xlink:href="#m92dcf23977" y="823.038452"/>
    </g>
   </g>
   <g id="line2d_45">
    <g clip-path="url(#pa439787187)">
     <use style="stroke:#000000;" x="837.42002" xlink:href="#m92dcf23977" y="564.080248"/>
    </g>
   </g>
   <g id="line2d_46">
    <g clip-path="url(#pa439787187)">
     <use style="stroke:#000000;" x="1158.334171" xlink:href="#m92dcf23977" y="1039.724444"/>
    </g>
   </g>
   <g id="line2d_47">
    <g clip-path="url(#pa439787187)">
     <use style="fill:#9e0142;stroke:#000000;" x="743.811167" xlink:href="#maf439aafd7" y="225.563113"/>
    </g>
   </g>
   <g id="line2d_48">
    <g clip-path="url(#pa439787187)">
     <use style="fill:#ffffbe;stroke:#000000;" x="1210.141847" xlink:href="#m46060c23ce" y="965.544325"/>
    </g>
   </g>
   <g id="line2d_49">
    <g clip-path="url(#pa439787187)">
     <use style="stroke:#000000;" x="1087.20151" xlink:href="#m92dcf23977" y="833.871703"/>
    </g>
   </g>
   <g id="line2d_50">
    <g clip-path="url(#pa439787187)">
     <use style="stroke:#000000;" x="610.653332" xlink:href="#m92dcf23977" y="341.494894"/>
    </g>
   </g>
   <g id="line2d_51">
    <g clip-path="url(#pa439787187)">
     <use style="stroke:#000000;" x="999.357982" xlink:href="#m92dcf23977" y="866.053668"/>
    </g>
   </g>
   <g id="line2d_52">
    <g clip-path="url(#pa439787187)">
     <use style="stroke:#000000;" x="1211.178765" xlink:href="#m92dcf23977" y="1227.433279"/>
    </g>
   </g>
   <g id="line2d_53">
    <g clip-path="url(#pa439787187)">
     <use style="stroke:#000000;" x="1181.183847" xlink:href="#m92dcf23977" y="1034.97892"/>
    </g>
   </g>
   <g id="line2d_54">
    <g clip-path="url(#pa439787187)">
     <use style="fill:#ffffbe;stroke:#000000;" x="1215.156407" xlink:href="#m46060c23ce" y="965.603788"/>
    </g>
   </g>
   <g id="line2d_55">
    <g clip-path="url(#pa439787187)">
     <use style="fill:#ffffbe;stroke:#000000;" x="1213.038214" xlink:href="#m46060c23ce" y="965.486778"/>
    </g>
   </g>
   <g id="line2d_56">
    <g clip-path="url(#pa439787187)">
     <use style="fill:#ffffbe;stroke:#000000;" x="1207.814766" xlink:href="#m46060c23ce" y="965.513985"/>
    </g>
   </g>
   <g id="line2d_57">
    <g clip-path="url(#pa439787187)">
     <use style="fill:#ffffbe;stroke:#000000;" x="1208.966048" xlink:href="#m46060c23ce" y="965.532411"/>
    </g>
   </g>
   <g id="line2d_58">
    <g clip-path="url(#pa439787187)">
     <use style="stroke:#000000;" x="967.333151" xlink:href="#m92dcf23977" y="792.013926"/>
    </g>
   </g>
   <g id="line2d_59">
    <g clip-path="url(#pa439787187)">
     <use style="stroke:#000000;" x="1183.574539" xlink:href="#m92dcf23977" y="1035.019117"/>
    </g>
   </g>
   <g id="line2d_60">
    <g clip-path="url(#pa439787187)">
     <use style="stroke:#000000;" x="1204.087274" xlink:href="#m92dcf23977" y="1227.715547"/>
    </g>
   </g>
   <g id="line2d_61">
    <g clip-path="url(#pa439787187)">
     <use style="fill:#ffffbe;stroke:#000000;" x="1208.196837" xlink:href="#m46060c23ce" y="965.551576"/>
    </g>
   </g>
   <g id="line2d_62">
    <g clip-path="url(#pa439787187)">
     <use style="fill:#9e0142;stroke:#000000;" x="743.107776" xlink:href="#maf439aafd7" y="230.771702"/>
    </g>
   </g>
   <g id="line2d_63">
    <g clip-path="url(#pa439787187)">
     <use style="stroke:#000000;" x="1239.330852" xlink:href="#m92dcf23977" y="1162.692995"/>
    </g>
   </g>
   <g id="line2d_64">
    <g clip-path="url(#pa439787187)">
     <use style="stroke:#000000;" x="657.10235" xlink:href="#m92dcf23977" y="336.076213"/>
    </g>
   </g>
   <g id="line2d_65">
    <g clip-path="url(#pa439787187)">
     <use style="stroke:#000000;" x="846.25204" xlink:href="#m92dcf23977" y="834.25737"/>
    </g>
   </g>
   <g id="line2d_66">
    <g clip-path="url(#pa439787187)">
     <use style="stroke:#000000;" x="732.636744" xlink:href="#m92dcf23977" y="281.888536"/>
    </g>
   </g>
   <g id="line2d_67">
    <g clip-path="url(#pa439787187)">
     <use style="stroke:#000000;" x="1182.870797" xlink:href="#m92dcf23977" y="1231.2"/>
    </g>
   </g>
   <g id="line2d_68">
    <g clip-path="url(#pa439787187)">
     <use style="stroke:#000000;" x="992.133663" xlink:href="#m92dcf23977" y="847.269168"/>
    </g>
   </g>
   <g id="line2d_69">
    <g clip-path="url(#pa439787187)">
     <use style="stroke:#000000;" x="440.595787" xlink:href="#m92dcf23977" y="632.151987"/>
    </g>
   </g>
   <g id="line2d_70">
    <g clip-path="url(#pa439787187)">
     <use style="fill:#9e0142;stroke:#000000;" x="743.072166" xlink:href="#maf439aafd7" y="229.594673"/>
    </g>
   </g>
   <g id="line2d_71">
    <g clip-path="url(#pa439787187)">
     <use style="stroke:#000000;" x="1166.408774" xlink:href="#m92dcf23977" y="945.504643"/>
    </g>
   </g>
   <g id="line2d_72">
    <g clip-path="url(#pa439787187)">
     <use style="stroke:#000000;" x="1210.406365" xlink:href="#m92dcf23977" y="1009.241435"/>
    </g>
   </g>
   <g id="patch_3">
    <path d="M 180 1281.6 
L 180 172.8 
" style="fill:none;stroke:#000000;stroke-linecap:square;stroke-linejoin:miter;stroke-width:0.8;"/>
   </g>
   <g id="patch_4">
    <path d="M 1296 1281.6 
L 1296 172.8 
" style="fill:none;stroke:#000000;stroke-linecap:square;stroke-linejoin:miter;stroke-width:0.8;"/>
   </g>
   <g id="patch_5">
    <path d="M 180 1281.6 
L 1296 1281.6 
" style="fill:none;stroke:#000000;stroke-linecap:square;stroke-linejoin:miter;stroke-width:0.8;"/>
   </g>
   <g id="patch_6">
    <path d="M 180 172.8 
L 1296 172.8 
" style="fill:none;stroke:#000000;stroke-linecap:square;stroke-linejoin:miter;stroke-width:0.8;"/>
   </g>
  </g>
 </g>
 <defs>
  <clipPath id="pa439787187">
   <rect height="1108.8" width="1116" x="180" y="172.8"/>
  </clipPath>
 </defs>
</svg>
