<?xml version="1.0" encoding="utf-8" standalone="no"?>
<!DOCTYPE svg PUBLIC "-//W3C//DTD SVG 1.1//EN"
  "http://www.w3.org/Graphics/SVG/1.1/DTD/svg11.dtd">
<!-- Created with matplotlib (https://matplotlib.org/) -->
<svg height="1440pt" version="1.1" viewBox="0 0 1440 1440" width="1440pt" xmlns="http://www.w3.org/2000/svg" xmlns:xlink="http://www.w3.org/1999/xlink">
 <defs>
  <style type="text/css">
*{stroke-linecap:butt;stroke-linejoin:round;}
  </style>
 </defs>
 <g id="figure_1">
  <g id="patch_1">
   <path d="M 0 1440 
L 1440 1440 
L 1440 0 
L 0 0 
z
" style="fill:#ffffff;"/>
  </g>
  <g id="axes_1">
   <g id="patch_2">
    <path d="M 180 1281.6 
L 1296 1281.6 
L 1296 172.8 
L 180 172.8 
z
" style="fill:#ffffff;"/>
   </g>
   <g id="matplotlib.axis_1">
    <g id="xtick_1">
     <g id="line2d_1">
      <defs>
       <path d="M 0 0 
L 0 3.5 
" id="m3bb95ba891" style="stroke:#000000;stroke-width:0.8;"/>
      </defs>
      <g>
       <use style="stroke:#000000;stroke-width:0.8;" x="302.877428" xlink:href="#m3bb95ba891" y="1281.6"/>
      </g>
     </g>
     <g id="text_1">
      <!-- 0.00 -->
      <defs>
       <path d="M 31.78125 66.40625 
Q 24.171875 66.40625 20.328125 58.90625 
Q 16.5 51.421875 16.5 36.375 
Q 16.5 21.390625 20.328125 13.890625 
Q 24.171875 6.390625 31.78125 6.390625 
Q 39.453125 6.390625 43.28125 13.890625 
Q 47.125 21.390625 47.125 36.375 
Q 47.125 51.421875 43.28125 58.90625 
Q 39.453125 66.40625 31.78125 66.40625 
z
M 31.78125 74.21875 
Q 44.046875 74.21875 50.515625 64.515625 
Q 56.984375 54.828125 56.984375 36.375 
Q 56.984375 17.96875 50.515625 8.265625 
Q 44.046875 -1.421875 31.78125 -1.421875 
Q 19.53125 -1.421875 13.0625 8.265625 
Q 6.59375 17.96875 6.59375 36.375 
Q 6.59375 54.828125 13.0625 64.515625 
Q 19.53125 74.21875 31.78125 74.21875 
z
" id="DejaVuSans-48"/>
       <path d="M 10.6875 12.40625 
L 21 12.40625 
L 21 0 
L 10.6875 0 
z
" id="DejaVuSans-46"/>
      </defs>
      <g transform="translate(291.744615 1296.198437)scale(0.1 -0.1)">
       <use xlink:href="#DejaVuSans-48"/>
       <use x="63.623047" xlink:href="#DejaVuSans-46"/>
       <use x="95.410156" xlink:href="#DejaVuSans-48"/>
       <use x="159.033203" xlink:href="#DejaVuSans-48"/>
      </g>
     </g>
    </g>
    <g id="xtick_2">
     <g id="line2d_2">
      <g>
       <use style="stroke:#000000;stroke-width:0.8;" x="447.524328" xlink:href="#m3bb95ba891" y="1281.6"/>
      </g>
     </g>
     <g id="text_2">
      <!-- 0.02 -->
      <defs>
       <path d="M 19.1875 8.296875 
L 53.609375 8.296875 
L 53.609375 0 
L 7.328125 0 
L 7.328125 8.296875 
Q 12.9375 14.109375 22.625 23.890625 
Q 32.328125 33.6875 34.8125 36.53125 
Q 39.546875 41.84375 41.421875 45.53125 
Q 43.3125 49.21875 43.3125 52.78125 
Q 43.3125 58.59375 39.234375 62.25 
Q 35.15625 65.921875 28.609375 65.921875 
Q 23.96875 65.921875 18.8125 64.3125 
Q 13.671875 62.703125 7.8125 59.421875 
L 7.8125 69.390625 
Q 13.765625 71.78125 18.9375 73 
Q 24.125 74.21875 28.421875 74.21875 
Q 39.75 74.21875 46.484375 68.546875 
Q 53.21875 62.890625 53.21875 53.421875 
Q 53.21875 48.921875 51.53125 44.890625 
Q 49.859375 40.875 45.40625 35.40625 
Q 44.1875 33.984375 37.640625 27.21875 
Q 31.109375 20.453125 19.1875 8.296875 
z
" id="DejaVuSans-50"/>
      </defs>
      <g transform="translate(436.391516 1296.198437)scale(0.1 -0.1)">
       <use xlink:href="#DejaVuSans-48"/>
       <use x="63.623047" xlink:href="#DejaVuSans-46"/>
       <use x="95.410156" xlink:href="#DejaVuSans-48"/>
       <use x="159.033203" xlink:href="#DejaVuSans-50"/>
      </g>
     </g>
    </g>
    <g id="xtick_3">
     <g id="line2d_3">
      <g>
       <use style="stroke:#000000;stroke-width:0.8;" x="592.171229" xlink:href="#m3bb95ba891" y="1281.6"/>
      </g>
     </g>
     <g id="text_3">
      <!-- 0.04 -->
      <defs>
       <path d="M 37.796875 64.3125 
L 12.890625 25.390625 
L 37.796875 25.390625 
z
M 35.203125 72.90625 
L 47.609375 72.90625 
L 47.609375 25.390625 
L 58.015625 25.390625 
L 58.015625 17.1875 
L 47.609375 17.1875 
L 47.609375 0 
L 37.796875 0 
L 37.796875 17.1875 
L 4.890625 17.1875 
L 4.890625 26.703125 
z
" id="DejaVuSans-52"/>
      </defs>
      <g transform="translate(581.038416 1296.198437)scale(0.1 -0.1)">
       <use xlink:href="#DejaVuSans-48"/>
       <use x="63.623047" xlink:href="#DejaVuSans-46"/>
       <use x="95.410156" xlink:href="#DejaVuSans-48"/>
       <use x="159.033203" xlink:href="#DejaVuSans-52"/>
      </g>
     </g>
    </g>
    <g id="xtick_4">
     <g id="line2d_4">
      <g>
       <use style="stroke:#000000;stroke-width:0.8;" x="736.818129" xlink:href="#m3bb95ba891" y="1281.6"/>
      </g>
     </g>
     <g id="text_4">
      <!-- 0.06 -->
      <defs>
       <path d="M 33.015625 40.375 
Q 26.375 40.375 22.484375 35.828125 
Q 18.609375 31.296875 18.609375 23.390625 
Q 18.609375 15.53125 22.484375 10.953125 
Q 26.375 6.390625 33.015625 6.390625 
Q 39.65625 6.390625 43.53125 10.953125 
Q 47.40625 15.53125 47.40625 23.390625 
Q 47.40625 31.296875 43.53125 35.828125 
Q 39.65625 40.375 33.015625 40.375 
z
M 52.59375 71.296875 
L 52.59375 62.3125 
Q 48.875 64.0625 45.09375 64.984375 
Q 41.3125 65.921875 37.59375 65.921875 
Q 27.828125 65.921875 22.671875 59.328125 
Q 17.53125 52.734375 16.796875 39.40625 
Q 19.671875 43.65625 24.015625 45.921875 
Q 28.375 48.1875 33.59375 48.1875 
Q 44.578125 48.1875 50.953125 41.515625 
Q 57.328125 34.859375 57.328125 23.390625 
Q 57.328125 12.15625 50.6875 5.359375 
Q 44.046875 -1.421875 33.015625 -1.421875 
Q 20.359375 -1.421875 13.671875 8.265625 
Q 6.984375 17.96875 6.984375 36.375 
Q 6.984375 53.65625 15.1875 63.9375 
Q 23.390625 74.21875 37.203125 74.21875 
Q 40.921875 74.21875 44.703125 73.484375 
Q 48.484375 72.75 52.59375 71.296875 
z
" id="DejaVuSans-54"/>
      </defs>
      <g transform="translate(725.685317 1296.198437)scale(0.1 -0.1)">
       <use xlink:href="#DejaVuSans-48"/>
       <use x="63.623047" xlink:href="#DejaVuSans-46"/>
       <use x="95.410156" xlink:href="#DejaVuSans-48"/>
       <use x="159.033203" xlink:href="#DejaVuSans-54"/>
      </g>
     </g>
    </g>
    <g id="xtick_5">
     <g id="line2d_5">
      <g>
       <use style="stroke:#000000;stroke-width:0.8;" x="881.46503" xlink:href="#m3bb95ba891" y="1281.6"/>
      </g>
     </g>
     <g id="text_5">
      <!-- 0.08 -->
      <defs>
       <path d="M 31.78125 34.625 
Q 24.75 34.625 20.71875 30.859375 
Q 16.703125 27.09375 16.703125 20.515625 
Q 16.703125 13.921875 20.71875 10.15625 
Q 24.75 6.390625 31.78125 6.390625 
Q 38.8125 6.390625 42.859375 10.171875 
Q 46.921875 13.96875 46.921875 20.515625 
Q 46.921875 27.09375 42.890625 30.859375 
Q 38.875 34.625 31.78125 34.625 
z
M 21.921875 38.8125 
Q 15.578125 40.375 12.03125 44.71875 
Q 8.5 49.078125 8.5 55.328125 
Q 8.5 64.0625 14.71875 69.140625 
Q 20.953125 74.21875 31.78125 74.21875 
Q 42.671875 74.21875 48.875 69.140625 
Q 55.078125 64.0625 55.078125 55.328125 
Q 55.078125 49.078125 51.53125 44.71875 
Q 48 40.375 41.703125 38.8125 
Q 48.828125 37.15625 52.796875 32.3125 
Q 56.78125 27.484375 56.78125 20.515625 
Q 56.78125 9.90625 50.3125 4.234375 
Q 43.84375 -1.421875 31.78125 -1.421875 
Q 19.734375 -1.421875 13.25 4.234375 
Q 6.78125 9.90625 6.78125 20.515625 
Q 6.78125 27.484375 10.78125 32.3125 
Q 14.796875 37.15625 21.921875 38.8125 
z
M 18.3125 54.390625 
Q 18.3125 48.734375 21.84375 45.5625 
Q 25.390625 42.390625 31.78125 42.390625 
Q 38.140625 42.390625 41.71875 45.5625 
Q 45.3125 48.734375 45.3125 54.390625 
Q 45.3125 60.0625 41.71875 63.234375 
Q 38.140625 66.40625 31.78125 66.40625 
Q 25.390625 66.40625 21.84375 63.234375 
Q 18.3125 60.0625 18.3125 54.390625 
z
" id="DejaVuSans-56"/>
      </defs>
      <g transform="translate(870.332217 1296.198437)scale(0.1 -0.1)">
       <use xlink:href="#DejaVuSans-48"/>
       <use x="63.623047" xlink:href="#DejaVuSans-46"/>
       <use x="95.410156" xlink:href="#DejaVuSans-48"/>
       <use x="159.033203" xlink:href="#DejaVuSans-56"/>
      </g>
     </g>
    </g>
    <g id="xtick_6">
     <g id="line2d_6">
      <g>
       <use style="stroke:#000000;stroke-width:0.8;" x="1026.11193" xlink:href="#m3bb95ba891" y="1281.6"/>
      </g>
     </g>
     <g id="text_6">
      <!-- 0.10 -->
      <defs>
       <path d="M 12.40625 8.296875 
L 28.515625 8.296875 
L 28.515625 63.921875 
L 10.984375 60.40625 
L 10.984375 69.390625 
L 28.421875 72.90625 
L 38.28125 72.90625 
L 38.28125 8.296875 
L 54.390625 8.296875 
L 54.390625 0 
L 12.40625 0 
z
" id="DejaVuSans-49"/>
      </defs>
      <g transform="translate(1014.979118 1296.198437)scale(0.1 -0.1)">
       <use xlink:href="#DejaVuSans-48"/>
       <use x="63.623047" xlink:href="#DejaVuSans-46"/>
       <use x="95.410156" xlink:href="#DejaVuSans-49"/>
       <use x="159.033203" xlink:href="#DejaVuSans-48"/>
      </g>
     </g>
    </g>
    <g id="xtick_7">
     <g id="line2d_7">
      <g>
       <use style="stroke:#000000;stroke-width:0.8;" x="1170.75883" xlink:href="#m3bb95ba891" y="1281.6"/>
      </g>
     </g>
     <g id="text_7">
      <!-- 0.12 -->
      <g transform="translate(1159.626018 1296.198437)scale(0.1 -0.1)">
       <use xlink:href="#DejaVuSans-48"/>
       <use x="63.623047" xlink:href="#DejaVuSans-46"/>
       <use x="95.410156" xlink:href="#DejaVuSans-49"/>
       <use x="159.033203" xlink:href="#DejaVuSans-50"/>
      </g>
     </g>
    </g>
   </g>
   <g id="matplotlib.axis_2">
    <g id="ytick_1">
     <g id="line2d_8">
      <defs>
       <path d="M 0 0 
L -3.5 0 
" id="mc8b6853952" style="stroke:#000000;stroke-width:0.8;"/>
      </defs>
      <g>
       <use style="stroke:#000000;stroke-width:0.8;" x="180" xlink:href="#mc8b6853952" y="1261.575826"/>
      </g>
     </g>
     <g id="text_8">
      <!-- −0.2 -->
      <defs>
       <path d="M 10.59375 35.5 
L 73.1875 35.5 
L 73.1875 27.203125 
L 10.59375 27.203125 
z
" id="DejaVuSans-8722"/>
      </defs>
      <g transform="translate(148.717187 1265.375045)scale(0.1 -0.1)">
       <use xlink:href="#DejaVuSans-8722"/>
       <use x="83.789062" xlink:href="#DejaVuSans-48"/>
       <use x="147.412109" xlink:href="#DejaVuSans-46"/>
       <use x="179.199219" xlink:href="#DejaVuSans-50"/>
      </g>
     </g>
    </g>
    <g id="ytick_2">
     <g id="line2d_9">
      <g>
       <use style="stroke:#000000;stroke-width:0.8;" x="180" xlink:href="#mc8b6853952" y="1039.506794"/>
      </g>
     </g>
     <g id="text_9">
      <!-- −0.1 -->
      <g transform="translate(148.717187 1043.306012)scale(0.1 -0.1)">
       <use xlink:href="#DejaVuSans-8722"/>
       <use x="83.789062" xlink:href="#DejaVuSans-48"/>
       <use x="147.412109" xlink:href="#DejaVuSans-46"/>
       <use x="179.199219" xlink:href="#DejaVuSans-49"/>
      </g>
     </g>
    </g>
    <g id="ytick_3">
     <g id="line2d_10">
      <g>
       <use style="stroke:#000000;stroke-width:0.8;" x="180" xlink:href="#mc8b6853952" y="817.437761"/>
      </g>
     </g>
     <g id="text_10">
      <!-- 0.0 -->
      <g transform="translate(157.096875 821.23698)scale(0.1 -0.1)">
       <use xlink:href="#DejaVuSans-48"/>
       <use x="63.623047" xlink:href="#DejaVuSans-46"/>
       <use x="95.410156" xlink:href="#DejaVuSans-48"/>
      </g>
     </g>
    </g>
    <g id="ytick_4">
     <g id="line2d_11">
      <g>
       <use style="stroke:#000000;stroke-width:0.8;" x="180" xlink:href="#mc8b6853952" y="595.368728"/>
      </g>
     </g>
     <g id="text_11">
      <!-- 0.1 -->
      <g transform="translate(157.096875 599.167947)scale(0.1 -0.1)">
       <use xlink:href="#DejaVuSans-48"/>
       <use x="63.623047" xlink:href="#DejaVuSans-46"/>
       <use x="95.410156" xlink:href="#DejaVuSans-49"/>
      </g>
     </g>
    </g>
    <g id="ytick_5">
     <g id="line2d_12">
      <g>
       <use style="stroke:#000000;stroke-width:0.8;" x="180" xlink:href="#mc8b6853952" y="373.299695"/>
      </g>
     </g>
     <g id="text_12">
      <!-- 0.2 -->
      <g transform="translate(157.096875 377.098914)scale(0.1 -0.1)">
       <use xlink:href="#DejaVuSans-48"/>
       <use x="63.623047" xlink:href="#DejaVuSans-46"/>
       <use x="95.410156" xlink:href="#DejaVuSans-50"/>
      </g>
     </g>
    </g>
   </g>
   <g id="line2d_13">
    <defs>
     <path d="M 0 9 
C 2.386828 9 4.676219 8.051703 6.363961 6.363961 
C 8.051703 4.676219 9 2.386828 9 0 
C 9 -2.386828 8.051703 -4.676219 6.363961 -6.363961 
C 4.676219 -8.051703 2.386828 -9 0 -9 
C -2.386828 -9 -4.676219 -8.051703 -6.363961 -6.363961 
C -8.051703 -4.676219 -9 -2.386828 -9 0 
C -9 2.386828 -8.051703 4.676219 -6.363961 6.363961 
C -4.676219 8.051703 -2.386828 9 0 9 
z
" id="m73181e1e1f" style="stroke:#000000;"/>
    </defs>
    <g clip-path="url(#p629638717d)">
     <use style="fill:#9e0142;stroke:#000000;" x="1241.806053" xlink:href="#m73181e1e1f" y="847.340462"/>
    </g>
   </g>
   <g id="line2d_14">
    <g clip-path="url(#p629638717d)">
     <use style="fill:#9e0142;stroke:#000000;" x="1242.905808" xlink:href="#m73181e1e1f" y="847.302266"/>
    </g>
   </g>
   <g id="line2d_15">
    <g clip-path="url(#p629638717d)">
     <use style="fill:#9e0142;stroke:#000000;" x="1242.6523" xlink:href="#m73181e1e1f" y="842.200581"/>
    </g>
   </g>
   <g id="line2d_16">
    <defs>
     <path d="M 0 9 
C 2.386828 9 4.676219 8.051703 6.363961 6.363961 
C 8.051703 4.676219 9 2.386828 9 0 
C 9 -2.386828 8.051703 -4.676219 6.363961 -6.363961 
C 4.676219 -8.051703 2.386828 -9 0 -9 
C -2.386828 -9 -4.676219 -8.051703 -6.363961 -6.363961 
C -8.051703 -4.676219 -9 -2.386828 -9 0 
C -9 2.386828 -8.051703 4.676219 -6.363961 6.363961 
C -4.676219 8.051703 -2.386828 9 0 9 
z
" id="m3c7cb87690" style="stroke:#000000;"/>
    </defs>
    <g clip-path="url(#p629638717d)">
     <use style="fill:#f98e52;stroke:#000000;" x="1063.930175" xlink:href="#m3c7cb87690" y="752.870302"/>
    </g>
   </g>
   <g id="line2d_17">
    <defs>
     <path d="M 0 3 
C 0.795609 3 1.55874 2.683901 2.12132 2.12132 
C 2.683901 1.55874 3 0.795609 3 0 
C 3 -0.795609 2.683901 -1.55874 2.12132 -2.12132 
C 1.55874 -2.683901 0.795609 -3 0 -3 
C -0.795609 -3 -1.55874 -2.683901 -2.12132 -2.12132 
C -2.683901 -1.55874 -3 -0.795609 -3 0 
C -3 0.795609 -2.683901 1.55874 -2.12132 2.12132 
C -1.55874 2.683901 -0.795609 3 0 3 
z
" id="m8652cea6da" style="stroke:#000000;"/>
    </defs>
    <g clip-path="url(#p629638717d)">
     <use style="stroke:#000000;" x="472.376962" xlink:href="#m8652cea6da" y="398.307831"/>
    </g>
   </g>
   <g id="line2d_18">
    <g clip-path="url(#p629638717d)">
     <use style="fill:#f98e52;stroke:#000000;" x="1074.20149" xlink:href="#m3c7cb87690" y="752.584448"/>
    </g>
   </g>
   <g id="line2d_19">
    <defs>
     <path d="M 0 9 
C 2.386828 9 4.676219 8.051703 6.363961 6.363961 
C 8.051703 4.676219 9 2.386828 9 0 
C 9 -2.386828 8.051703 -4.676219 6.363961 -6.363961 
C 4.676219 -8.051703 2.386828 -9 0 -9 
C -2.386828 -9 -4.676219 -8.051703 -6.363961 -6.363961 
C -8.051703 -4.676219 -9 -2.386828 -9 0 
C -9 2.386828 -8.051703 4.676219 -6.363961 6.363961 
C -4.676219 8.051703 -2.386828 9 0 9 
z
" id="mffb5f4b13b" style="stroke:#000000;"/>
    </defs>
    <g clip-path="url(#p629638717d)">
     <use style="fill:#ffffbe;stroke:#000000;" x="262.760746" xlink:href="#mffb5f4b13b" y="234.11793"/>
    </g>
   </g>
   <g id="line2d_20">
    <g clip-path="url(#p629638717d)">
     <use style="stroke:#000000;" x="474.51707" xlink:href="#m8652cea6da" y="399.202482"/>
    </g>
   </g>
   <g id="line2d_21">
    <g clip-path="url(#p629638717d)">
     <use style="fill:#ffffbe;stroke:#000000;" x="263.291887" xlink:href="#mffb5f4b13b" y="233.382586"/>
    </g>
   </g>
   <g id="line2d_22">
    <g clip-path="url(#p629638717d)">
     <use style="fill:#f98e52;stroke:#000000;" x="1074.141085" xlink:href="#m3c7cb87690" y="753.433423"/>
    </g>
   </g>
   <g id="line2d_23">
    <g clip-path="url(#p629638717d)">
     <use style="fill:#9e0142;stroke:#000000;" x="1239.536653" xlink:href="#m73181e1e1f" y="842.214644"/>
    </g>
   </g>
   <g id="line2d_24">
    <g clip-path="url(#p629638717d)">
     <use style="fill:#f98e52;stroke:#000000;" x="1074.398236" xlink:href="#m3c7cb87690" y="753.275613"/>
    </g>
   </g>
   <g id="line2d_25">
    <g clip-path="url(#p629638717d)">
     <use style="fill:#9e0142;stroke:#000000;" x="1239.633117" xlink:href="#m73181e1e1f" y="841.998485"/>
    </g>
   </g>
   <g id="line2d_26">
    <g clip-path="url(#p629638717d)">
     <use style="stroke:#000000;" x="690.798548" xlink:href="#m8652cea6da" y="1231.2"/>
    </g>
   </g>
   <g id="line2d_27">
    <g clip-path="url(#p629638717d)">
     <use style="fill:#9e0142;stroke:#000000;" x="1234.674188" xlink:href="#m73181e1e1f" y="842.386757"/>
    </g>
   </g>
   <g id="line2d_28">
    <defs>
     <path d="M 0 9 
C 2.386828 9 4.676219 8.051703 6.363961 6.363961 
C 8.051703 4.676219 9 2.386828 9 0 
C 9 -2.386828 8.051703 -4.676219 6.363961 -6.363961 
C 4.676219 -8.051703 2.386828 -9 0 -9 
C -2.386828 -9 -4.676219 -8.051703 -6.363961 -6.363961 
C -8.051703 -4.676219 -9 -2.386828 -9 0 
C -9 2.386828 -8.051703 4.676219 -6.363961 6.363961 
C -4.676219 8.051703 -2.386828 9 0 9 
z
" id="m9044a4b1c4" style="stroke:#000000;"/>
    </defs>
    <g clip-path="url(#p629638717d)">
     <use style="fill:#86cfa5;stroke:#000000;" x="1009.428113" xlink:href="#m9044a4b1c4" y="654.917108"/>
    </g>
   </g>
   <g id="line2d_29">
    <g clip-path="url(#p629638717d)">
     <use style="fill:#86cfa5;stroke:#000000;" x="1004.505767" xlink:href="#m9044a4b1c4" y="656.514016"/>
    </g>
   </g>
   <g id="line2d_30">
    <g clip-path="url(#p629638717d)">
     <use style="stroke:#000000;" x="1151.37225" xlink:href="#m8652cea6da" y="891.628941"/>
    </g>
   </g>
   <g id="line2d_31">
    <g clip-path="url(#p629638717d)">
     <use style="fill:#9e0142;stroke:#000000;" x="1228.688683" xlink:href="#m73181e1e1f" y="842.138335"/>
    </g>
   </g>
   <g id="line2d_32">
    <g clip-path="url(#p629638717d)">
     <use style="stroke:#000000;" x="706.811062" xlink:href="#m8652cea6da" y="1218.251179"/>
    </g>
   </g>
   <g id="line2d_33">
    <g clip-path="url(#p629638717d)">
     <use style="fill:#9e0142;stroke:#000000;" x="1242.017219" xlink:href="#m73181e1e1f" y="842.418621"/>
    </g>
   </g>
   <g id="line2d_34">
    <g clip-path="url(#p629638717d)">
     <use style="fill:#9e0142;stroke:#000000;" x="1239.095956" xlink:href="#m73181e1e1f" y="842.102622"/>
    </g>
   </g>
   <g id="line2d_35">
    <g clip-path="url(#p629638717d)">
     <use style="fill:#86cfa5;stroke:#000000;" x="1003.282658" xlink:href="#m9044a4b1c4" y="654.870629"/>
    </g>
   </g>
   <g id="line2d_36">
    <g clip-path="url(#p629638717d)">
     <use style="fill:#f98e52;stroke:#000000;" x="1065.906309" xlink:href="#m3c7cb87690" y="753.321287"/>
    </g>
   </g>
   <g id="line2d_37">
    <g clip-path="url(#p629638717d)">
     <use style="fill:#86cfa5;stroke:#000000;" x="1006.278105" xlink:href="#m9044a4b1c4" y="653.54384"/>
    </g>
   </g>
   <g id="line2d_38">
    <g clip-path="url(#p629638717d)">
     <use style="fill:#86cfa5;stroke:#000000;" x="1004.532344" xlink:href="#m9044a4b1c4" y="655.988236"/>
    </g>
   </g>
   <g id="line2d_39">
    <g clip-path="url(#p629638717d)">
     <use style="fill:#f98e52;stroke:#000000;" x="1061.930339" xlink:href="#m3c7cb87690" y="752.520044"/>
    </g>
   </g>
   <g id="line2d_40">
    <g clip-path="url(#p629638717d)">
     <use style="fill:#9e0142;stroke:#000000;" x="1234.083819" xlink:href="#m73181e1e1f" y="842.202673"/>
    </g>
   </g>
   <g id="line2d_41">
    <g clip-path="url(#p629638717d)">
     <use style="fill:#9e0142;stroke:#000000;" x="1232.953181" xlink:href="#m73181e1e1f" y="842.307938"/>
    </g>
   </g>
   <g id="line2d_42">
    <g clip-path="url(#p629638717d)">
     <use style="fill:#9e0142;stroke:#000000;" x="1229.451229" xlink:href="#m73181e1e1f" y="842.098675"/>
    </g>
   </g>
   <g id="line2d_43">
    <g clip-path="url(#p629638717d)">
     <use style="fill:#9e0142;stroke:#000000;" x="1228.454869" xlink:href="#m73181e1e1f" y="842.322767"/>
    </g>
   </g>
   <g id="line2d_44">
    <g clip-path="url(#p629638717d)">
     <use style="stroke:#000000;" x="828.285676" xlink:href="#m8652cea6da" y="574.250812"/>
    </g>
   </g>
   <g id="line2d_45">
    <g clip-path="url(#p629638717d)">
     <use style="stroke:#000000;" x="761.743542" xlink:href="#m8652cea6da" y="584.777309"/>
    </g>
   </g>
   <g id="line2d_46">
    <g clip-path="url(#p629638717d)">
     <use style="fill:#9e0142;stroke:#000000;" x="1235.888026" xlink:href="#m73181e1e1f" y="842.259383"/>
    </g>
   </g>
   <g id="line2d_47">
    <g clip-path="url(#p629638717d)">
     <use style="stroke:#000000;" x="1090.282937" xlink:href="#m8652cea6da" y="783.684718"/>
    </g>
   </g>
   <g id="line2d_48">
    <g clip-path="url(#p629638717d)">
     <use style="fill:#f98e52;stroke:#000000;" x="1071.676583" xlink:href="#m3c7cb87690" y="752.877295"/>
    </g>
   </g>
   <g id="line2d_49">
    <g clip-path="url(#p629638717d)">
     <use style="fill:#9e0142;stroke:#000000;" x="1242.118453" xlink:href="#m73181e1e1f" y="842.132569"/>
    </g>
   </g>
   <g id="line2d_50">
    <g clip-path="url(#p629638717d)">
     <use style="fill:#86cfa5;stroke:#000000;" x="1012.609632" xlink:href="#m9044a4b1c4" y="654.649262"/>
    </g>
   </g>
   <g id="line2d_51">
    <g clip-path="url(#p629638717d)">
     <use style="fill:#9e0142;stroke:#000000;" x="1229.542755" xlink:href="#m73181e1e1f" y="842.309691"/>
    </g>
   </g>
   <g id="line2d_52">
    <g clip-path="url(#p629638717d)">
     <use style="stroke:#000000;" x="815.095003" xlink:href="#m8652cea6da" y="1054.998355"/>
    </g>
   </g>
   <g id="line2d_53">
    <g clip-path="url(#p629638717d)">
     <use style="fill:#9e0142;stroke:#000000;" x="1242.341569" xlink:href="#m73181e1e1f" y="842.395778"/>
    </g>
   </g>
   <g id="line2d_54">
    <g clip-path="url(#p629638717d)">
     <use style="fill:#9e0142;stroke:#000000;" x="1236.056254" xlink:href="#m73181e1e1f" y="842.103815"/>
    </g>
   </g>
   <g id="line2d_55">
    <g clip-path="url(#p629638717d)">
     <use style="fill:#9e0142;stroke:#000000;" x="1238.490026" xlink:href="#m73181e1e1f" y="842.293839"/>
    </g>
   </g>
   <g id="line2d_56">
    <g clip-path="url(#p629638717d)">
     <use style="fill:#9e0142;stroke:#000000;" x="1240.860845" xlink:href="#m73181e1e1f" y="842.078664"/>
    </g>
   </g>
   <g id="line2d_57">
    <g clip-path="url(#p629638717d)">
     <use style="stroke:#000000;" x="597.752445" xlink:href="#m8652cea6da" y="486.321029"/>
    </g>
   </g>
   <g id="line2d_58">
    <g clip-path="url(#p629638717d)">
     <use style="fill:#ffffbe;stroke:#000000;" x="263.270298" xlink:href="#mffb5f4b13b" y="231.302393"/>
    </g>
   </g>
   <g id="line2d_59">
    <g clip-path="url(#p629638717d)">
     <use style="fill:#ffffbe;stroke:#000000;" x="262.95243" xlink:href="#mffb5f4b13b" y="229.687838"/>
    </g>
   </g>
   <g id="line2d_60">
    <g clip-path="url(#p629638717d)">
     <use style="fill:#86cfa5;stroke:#000000;" x="1013.721344" xlink:href="#m9044a4b1c4" y="654.205919"/>
    </g>
   </g>
   <g id="line2d_61">
    <g clip-path="url(#p629638717d)">
     <use style="fill:#9e0142;stroke:#000000;" x="1231.232444" xlink:href="#m73181e1e1f" y="842.40711"/>
    </g>
   </g>
   <g id="line2d_62">
    <g clip-path="url(#p629638717d)">
     <use style="fill:#9e0142;stroke:#000000;" x="1239.190749" xlink:href="#m73181e1e1f" y="842.25715"/>
    </g>
   </g>
   <g id="line2d_63">
    <g clip-path="url(#p629638717d)">
     <use style="stroke:#000000;" x="825.794101" xlink:href="#m8652cea6da" y="574.819657"/>
    </g>
   </g>
   <g id="line2d_64">
    <g clip-path="url(#p629638717d)">
     <use style="fill:#86cfa5;stroke:#000000;" x="1001.198435" xlink:href="#m9044a4b1c4" y="655.509852"/>
    </g>
   </g>
   <g id="line2d_65">
    <g clip-path="url(#p629638717d)">
     <use style="fill:#86cfa5;stroke:#000000;" x="1009.007559" xlink:href="#m9044a4b1c4" y="654.884544"/>
    </g>
   </g>
   <g id="line2d_66">
    <g clip-path="url(#p629638717d)">
     <use style="stroke:#000000;" x="1094.274755" xlink:href="#m8652cea6da" y="783.735419"/>
    </g>
   </g>
   <g id="line2d_67">
    <g clip-path="url(#p629638717d)">
     <use style="fill:#ffffbe;stroke:#000000;" x="262.770313" xlink:href="#mffb5f4b13b" y="223.2"/>
    </g>
   </g>
   <g id="line2d_68">
    <g clip-path="url(#p629638717d)">
     <use style="fill:#9e0142;stroke:#000000;" x="1232.396379" xlink:href="#m73181e1e1f" y="842.283229"/>
    </g>
   </g>
   <g id="line2d_69">
    <g clip-path="url(#p629638717d)">
     <use style="fill:#9e0142;stroke:#000000;" x="1241.517079" xlink:href="#m73181e1e1f" y="842.351199"/>
    </g>
   </g>
   <g id="line2d_70">
    <g clip-path="url(#p629638717d)">
     <use style="fill:#9e0142;stroke:#000000;" x="1242.016099" xlink:href="#m73181e1e1f" y="842.011775"/>
    </g>
   </g>
   <g id="line2d_71">
    <g clip-path="url(#p629638717d)">
     <use style="fill:#9e0142;stroke:#000000;" x="1233.406601" xlink:href="#m73181e1e1f" y="842.070314"/>
    </g>
   </g>
   <g id="line2d_72">
    <g clip-path="url(#p629638717d)">
     <use style="stroke:#000000;" x="473.530946" xlink:href="#m8652cea6da" y="399.503496"/>
    </g>
   </g>
   <g id="line2d_73">
    <g clip-path="url(#p629638717d)">
     <use style="fill:#9e0142;stroke:#000000;" x="1211.704538" xlink:href="#m73181e1e1f" y="848.265061"/>
    </g>
   </g>
   <g id="line2d_74">
    <g clip-path="url(#p629638717d)">
     <use style="fill:#9e0142;stroke:#000000;" x="1230.235179" xlink:href="#m73181e1e1f" y="842.460669"/>
    </g>
   </g>
   <g id="line2d_75">
    <g clip-path="url(#p629638717d)">
     <use style="fill:#9e0142;stroke:#000000;" x="1229.560789" xlink:href="#m73181e1e1f" y="842.27261"/>
    </g>
   </g>
   <g id="line2d_76">
    <g clip-path="url(#p629638717d)">
     <use style="fill:#9e0142;stroke:#000000;" x="1244.561279" xlink:href="#m73181e1e1f" y="842.359615"/>
    </g>
   </g>
   <g id="line2d_77">
    <g clip-path="url(#p629638717d)">
     <use style="stroke:#000000;" x="899.151728" xlink:href="#m8652cea6da" y="999.051565"/>
    </g>
   </g>
   <g id="line2d_78">
    <g clip-path="url(#p629638717d)">
     <use style="stroke:#000000;" x="932.769123" xlink:href="#m8652cea6da" y="1051.951825"/>
    </g>
   </g>
   <g id="line2d_79">
    <g clip-path="url(#p629638717d)">
     <use style="fill:#9e0142;stroke:#000000;" x="1244.623868" xlink:href="#m73181e1e1f" y="842.03167"/>
    </g>
   </g>
   <g id="line2d_80">
    <g clip-path="url(#p629638717d)">
     <use style="fill:#9e0142;stroke:#000000;" x="1233.94927" xlink:href="#m73181e1e1f" y="842.121114"/>
    </g>
   </g>
   <g id="line2d_81">
    <g clip-path="url(#p629638717d)">
     <use style="fill:#ffffbe;stroke:#000000;" x="230.727273" xlink:href="#mffb5f4b13b" y="237.029847"/>
    </g>
   </g>
   <g id="line2d_82">
    <g clip-path="url(#p629638717d)">
     <use style="fill:#9e0142;stroke:#000000;" x="1245.272727" xlink:href="#m73181e1e1f" y="842.441492"/>
    </g>
   </g>
   <g id="line2d_83">
    <g clip-path="url(#p629638717d)">
     <use style="stroke:#000000;" x="658.450407" xlink:href="#m8652cea6da" y="770.634845"/>
    </g>
   </g>
   <g id="line2d_84">
    <g clip-path="url(#p629638717d)">
     <use style="fill:#ffffbe;stroke:#000000;" x="263.228158" xlink:href="#mffb5f4b13b" y="228.038906"/>
    </g>
   </g>
   <g id="line2d_85">
    <g clip-path="url(#p629638717d)">
     <use style="fill:#9e0142;stroke:#000000;" x="1244.945801" xlink:href="#m73181e1e1f" y="841.985298"/>
    </g>
   </g>
   <g id="line2d_86">
    <g clip-path="url(#p629638717d)">
     <use style="stroke:#000000;" x="727.306533" xlink:href="#m8652cea6da" y="969.041244"/>
    </g>
   </g>
   <g id="line2d_87">
    <g clip-path="url(#p629638717d)">
     <use style="fill:#9e0142;stroke:#000000;" x="1242.421884" xlink:href="#m73181e1e1f" y="842.01434"/>
    </g>
   </g>
   <g id="line2d_88">
    <g clip-path="url(#p629638717d)">
     <use style="fill:#9e0142;stroke:#000000;" x="1230.979233" xlink:href="#m73181e1e1f" y="841.993558"/>
    </g>
   </g>
   <g id="line2d_89">
    <g clip-path="url(#p629638717d)">
     <use style="fill:#ffffbe;stroke:#000000;" x="262.691811" xlink:href="#mffb5f4b13b" y="223.880949"/>
    </g>
   </g>
   <g id="line2d_90">
    <g clip-path="url(#p629638717d)">
     <use style="stroke:#000000;" x="909.42813" xlink:href="#m8652cea6da" y="1084.091093"/>
    </g>
   </g>
   <g id="line2d_91">
    <g clip-path="url(#p629638717d)">
     <use style="fill:#9e0142;stroke:#000000;" x="1229.717779" xlink:href="#m73181e1e1f" y="841.997261"/>
    </g>
   </g>
   <g id="line2d_92">
    <g clip-path="url(#p629638717d)">
     <use style="fill:#ffffbe;stroke:#000000;" x="262.753957" xlink:href="#mffb5f4b13b" y="226.269938"/>
    </g>
   </g>
   <g id="line2d_93">
    <g clip-path="url(#p629638717d)">
     <use style="fill:#9e0142;stroke:#000000;" x="1236.903229" xlink:href="#m73181e1e1f" y="847.578679"/>
    </g>
   </g>
   <g id="line2d_94">
    <g clip-path="url(#p629638717d)">
     <use style="stroke:#000000;" x="1008.284611" xlink:href="#m8652cea6da" y="1011.987518"/>
    </g>
   </g>
   <g id="line2d_95">
    <g clip-path="url(#p629638717d)">
     <use style="fill:#9e0142;stroke:#000000;" x="1227.633841" xlink:href="#m73181e1e1f" y="842.085312"/>
    </g>
   </g>
   <g id="line2d_96">
    <g clip-path="url(#p629638717d)">
     <use style="fill:#86cfa5;stroke:#000000;" x="1011.811011" xlink:href="#m9044a4b1c4" y="656.069653"/>
    </g>
   </g>
   <g id="line2d_97">
    <g clip-path="url(#p629638717d)">
     <use style="fill:#86cfa5;stroke:#000000;" x="1007.402704" xlink:href="#m9044a4b1c4" y="655.138431"/>
    </g>
   </g>
   <g id="line2d_98">
    <g clip-path="url(#p629638717d)">
     <use style="fill:#9e0142;stroke:#000000;" x="1234.898583" xlink:href="#m73181e1e1f" y="842.04493"/>
    </g>
   </g>
   <g id="line2d_99">
    <g clip-path="url(#p629638717d)">
     <use style="fill:#9e0142;stroke:#000000;" x="1227.989967" xlink:href="#m73181e1e1f" y="842.244481"/>
    </g>
   </g>
   <g id="line2d_100">
    <g clip-path="url(#p629638717d)">
     <use style="stroke:#000000;" x="619.324146" xlink:href="#m8652cea6da" y="998.433951"/>
    </g>
   </g>
   <g id="line2d_101">
    <g clip-path="url(#p629638717d)">
     <use style="fill:#9e0142;stroke:#000000;" x="1229.828618" xlink:href="#m73181e1e1f" y="842.018599"/>
    </g>
   </g>
   <g id="line2d_102">
    <g clip-path="url(#p629638717d)">
     <use style="fill:#f98e52;stroke:#000000;" x="1063.530766" xlink:href="#m3c7cb87690" y="753.413763"/>
    </g>
   </g>
   <g id="patch_3">
    <path d="M 180 1281.6 
L 180 172.8 
" style="fill:none;stroke:#000000;stroke-linecap:square;stroke-linejoin:miter;stroke-width:0.8;"/>
   </g>
   <g id="patch_4">
    <path d="M 1296 1281.6 
L 1296 172.8 
" style="fill:none;stroke:#000000;stroke-linecap:square;stroke-linejoin:miter;stroke-width:0.8;"/>
   </g>
   <g id="patch_5">
    <path d="M 180 1281.6 
L 1296 1281.6 
" style="fill:none;stroke:#000000;stroke-linecap:square;stroke-linejoin:miter;stroke-width:0.8;"/>
   </g>
   <g id="patch_6">
    <path d="M 180 172.8 
L 1296 172.8 
" style="fill:none;stroke:#000000;stroke-linecap:square;stroke-linejoin:miter;stroke-width:0.8;"/>
   </g>
  </g>
 </g>
 <defs>
  <clipPath id="p629638717d">
   <rect height="1108.8" width="1116" x="180" y="172.8"/>
  </clipPath>
 </defs>
</svg>
