<?xml version="1.0" encoding="utf-8" standalone="no"?>
<!DOCTYPE svg PUBLIC "-//W3C//DTD SVG 1.1//EN"
  "http://www.w3.org/Graphics/SVG/1.1/DTD/svg11.dtd">
<!-- Created with matplotlib (https://matplotlib.org/) -->
<svg height="1440pt" version="1.1" viewBox="0 0 1440 1440" width="1440pt" xmlns="http://www.w3.org/2000/svg" xmlns:xlink="http://www.w3.org/1999/xlink">
 <defs>
  <style type="text/css">
*{stroke-linecap:butt;stroke-linejoin:round;}
  </style>
 </defs>
 <g id="figure_1">
  <g id="patch_1">
   <path d="M 0 1440 
L 1440 1440 
L 1440 0 
L 0 0 
z
" style="fill:#ffffff;"/>
  </g>
  <g id="axes_1">
   <g id="patch_2">
    <path d="M 180 1281.6 
L 1296 1281.6 
L 1296 172.8 
L 180 172.8 
z
" style="fill:#ffffff;"/>
   </g>
   <g id="matplotlib.axis_1">
    <g id="xtick_1">
     <g id="line2d_1">
      <defs>
       <path d="M 0 0 
L 0 3.5 
" id="m278b7a4406" style="stroke:#000000;stroke-width:0.8;"/>
      </defs>
      <g>
       <use style="stroke:#000000;stroke-width:0.8;" x="256.105663" xlink:href="#m278b7a4406" y="1281.6"/>
      </g>
     </g>
     <g id="text_1">
      <!-- −0.075 -->
      <defs>
       <path d="M 10.59375 35.5 
L 73.1875 35.5 
L 73.1875 27.203125 
L 10.59375 27.203125 
z
" id="DejaVuSans-8722"/>
       <path d="M 31.78125 66.40625 
Q 24.171875 66.40625 20.328125 58.90625 
Q 16.5 51.421875 16.5 36.375 
Q 16.5 21.390625 20.328125 13.890625 
Q 24.171875 6.390625 31.78125 6.390625 
Q 39.453125 6.390625 43.28125 13.890625 
Q 47.125 21.390625 47.125 36.375 
Q 47.125 51.421875 43.28125 58.90625 
Q 39.453125 66.40625 31.78125 66.40625 
z
M 31.78125 74.21875 
Q 44.046875 74.21875 50.515625 64.515625 
Q 56.984375 54.828125 56.984375 36.375 
Q 56.984375 17.96875 50.515625 8.265625 
Q 44.046875 -1.421875 31.78125 -1.421875 
Q 19.53125 -1.421875 13.0625 8.265625 
Q 6.59375 17.96875 6.59375 36.375 
Q 6.59375 54.828125 13.0625 64.515625 
Q 19.53125 74.21875 31.78125 74.21875 
z
" id="DejaVuSans-48"/>
       <path d="M 10.6875 12.40625 
L 21 12.40625 
L 21 0 
L 10.6875 0 
z
" id="DejaVuSans-46"/>
       <path d="M 8.203125 72.90625 
L 55.078125 72.90625 
L 55.078125 68.703125 
L 28.609375 0 
L 18.3125 0 
L 43.21875 64.59375 
L 8.203125 64.59375 
z
" id="DejaVuSans-55"/>
       <path d="M 10.796875 72.90625 
L 49.515625 72.90625 
L 49.515625 64.59375 
L 19.828125 64.59375 
L 19.828125 46.734375 
Q 21.96875 47.46875 24.109375 47.828125 
Q 26.265625 48.1875 28.421875 48.1875 
Q 40.625 48.1875 47.75 41.5 
Q 54.890625 34.8125 54.890625 23.390625 
Q 54.890625 11.625 47.5625 5.09375 
Q 40.234375 -1.421875 26.90625 -1.421875 
Q 22.3125 -1.421875 17.546875 -0.640625 
Q 12.796875 0.140625 7.71875 1.703125 
L 7.71875 11.625 
Q 12.109375 9.234375 16.796875 8.0625 
Q 21.484375 6.890625 26.703125 6.890625 
Q 35.15625 6.890625 40.078125 11.328125 
Q 45.015625 15.765625 45.015625 23.390625 
Q 45.015625 31 40.078125 35.4375 
Q 35.15625 39.890625 26.703125 39.890625 
Q 22.75 39.890625 18.8125 39.015625 
Q 14.890625 38.140625 10.796875 36.28125 
z
" id="DejaVuSans-53"/>
      </defs>
      <g transform="translate(237.601757 1296.198437)scale(0.1 -0.1)">
       <use xlink:href="#DejaVuSans-8722"/>
       <use x="83.789062" xlink:href="#DejaVuSans-48"/>
       <use x="147.412109" xlink:href="#DejaVuSans-46"/>
       <use x="179.199219" xlink:href="#DejaVuSans-48"/>
       <use x="242.822266" xlink:href="#DejaVuSans-55"/>
       <use x="306.445312" xlink:href="#DejaVuSans-53"/>
      </g>
     </g>
    </g>
    <g id="xtick_2">
     <g id="line2d_2">
      <g>
       <use style="stroke:#000000;stroke-width:0.8;" x="385.482433" xlink:href="#m278b7a4406" y="1281.6"/>
      </g>
     </g>
     <g id="text_2">
      <!-- −0.050 -->
      <g transform="translate(366.978527 1296.198437)scale(0.1 -0.1)">
       <use xlink:href="#DejaVuSans-8722"/>
       <use x="83.789062" xlink:href="#DejaVuSans-48"/>
       <use x="147.412109" xlink:href="#DejaVuSans-46"/>
       <use x="179.199219" xlink:href="#DejaVuSans-48"/>
       <use x="242.822266" xlink:href="#DejaVuSans-53"/>
       <use x="306.445312" xlink:href="#DejaVuSans-48"/>
      </g>
     </g>
    </g>
    <g id="xtick_3">
     <g id="line2d_3">
      <g>
       <use style="stroke:#000000;stroke-width:0.8;" x="514.859204" xlink:href="#m278b7a4406" y="1281.6"/>
      </g>
     </g>
     <g id="text_3">
      <!-- −0.025 -->
      <defs>
       <path d="M 19.1875 8.296875 
L 53.609375 8.296875 
L 53.609375 0 
L 7.328125 0 
L 7.328125 8.296875 
Q 12.9375 14.109375 22.625 23.890625 
Q 32.328125 33.6875 34.8125 36.53125 
Q 39.546875 41.84375 41.421875 45.53125 
Q 43.3125 49.21875 43.3125 52.78125 
Q 43.3125 58.59375 39.234375 62.25 
Q 35.15625 65.921875 28.609375 65.921875 
Q 23.96875 65.921875 18.8125 64.3125 
Q 13.671875 62.703125 7.8125 59.421875 
L 7.8125 69.390625 
Q 13.765625 71.78125 18.9375 73 
Q 24.125 74.21875 28.421875 74.21875 
Q 39.75 74.21875 46.484375 68.546875 
Q 53.21875 62.890625 53.21875 53.421875 
Q 53.21875 48.921875 51.53125 44.890625 
Q 49.859375 40.875 45.40625 35.40625 
Q 44.1875 33.984375 37.640625 27.21875 
Q 31.109375 20.453125 19.1875 8.296875 
z
" id="DejaVuSans-50"/>
      </defs>
      <g transform="translate(496.355297 1296.198437)scale(0.1 -0.1)">
       <use xlink:href="#DejaVuSans-8722"/>
       <use x="83.789062" xlink:href="#DejaVuSans-48"/>
       <use x="147.412109" xlink:href="#DejaVuSans-46"/>
       <use x="179.199219" xlink:href="#DejaVuSans-48"/>
       <use x="242.822266" xlink:href="#DejaVuSans-50"/>
       <use x="306.445312" xlink:href="#DejaVuSans-53"/>
      </g>
     </g>
    </g>
    <g id="xtick_4">
     <g id="line2d_4">
      <g>
       <use style="stroke:#000000;stroke-width:0.8;" x="644.235974" xlink:href="#m278b7a4406" y="1281.6"/>
      </g>
     </g>
     <g id="text_4">
      <!-- 0.000 -->
      <g transform="translate(629.921911 1296.198437)scale(0.1 -0.1)">
       <use xlink:href="#DejaVuSans-48"/>
       <use x="63.623047" xlink:href="#DejaVuSans-46"/>
       <use x="95.410156" xlink:href="#DejaVuSans-48"/>
       <use x="159.033203" xlink:href="#DejaVuSans-48"/>
       <use x="222.65625" xlink:href="#DejaVuSans-48"/>
      </g>
     </g>
    </g>
    <g id="xtick_5">
     <g id="line2d_5">
      <g>
       <use style="stroke:#000000;stroke-width:0.8;" x="773.612744" xlink:href="#m278b7a4406" y="1281.6"/>
      </g>
     </g>
     <g id="text_5">
      <!-- 0.025 -->
      <g transform="translate(759.298682 1296.198437)scale(0.1 -0.1)">
       <use xlink:href="#DejaVuSans-48"/>
       <use x="63.623047" xlink:href="#DejaVuSans-46"/>
       <use x="95.410156" xlink:href="#DejaVuSans-48"/>
       <use x="159.033203" xlink:href="#DejaVuSans-50"/>
       <use x="222.65625" xlink:href="#DejaVuSans-53"/>
      </g>
     </g>
    </g>
    <g id="xtick_6">
     <g id="line2d_6">
      <g>
       <use style="stroke:#000000;stroke-width:0.8;" x="902.989515" xlink:href="#m278b7a4406" y="1281.6"/>
      </g>
     </g>
     <g id="text_6">
      <!-- 0.050 -->
      <g transform="translate(888.675452 1296.198437)scale(0.1 -0.1)">
       <use xlink:href="#DejaVuSans-48"/>
       <use x="63.623047" xlink:href="#DejaVuSans-46"/>
       <use x="95.410156" xlink:href="#DejaVuSans-48"/>
       <use x="159.033203" xlink:href="#DejaVuSans-53"/>
       <use x="222.65625" xlink:href="#DejaVuSans-48"/>
      </g>
     </g>
    </g>
    <g id="xtick_7">
     <g id="line2d_7">
      <g>
       <use style="stroke:#000000;stroke-width:0.8;" x="1032.366285" xlink:href="#m278b7a4406" y="1281.6"/>
      </g>
     </g>
     <g id="text_7">
      <!-- 0.075 -->
      <g transform="translate(1018.052223 1296.198437)scale(0.1 -0.1)">
       <use xlink:href="#DejaVuSans-48"/>
       <use x="63.623047" xlink:href="#DejaVuSans-46"/>
       <use x="95.410156" xlink:href="#DejaVuSans-48"/>
       <use x="159.033203" xlink:href="#DejaVuSans-55"/>
       <use x="222.65625" xlink:href="#DejaVuSans-53"/>
      </g>
     </g>
    </g>
    <g id="xtick_8">
     <g id="line2d_8">
      <g>
       <use style="stroke:#000000;stroke-width:0.8;" x="1161.743055" xlink:href="#m278b7a4406" y="1281.6"/>
      </g>
     </g>
     <g id="text_8">
      <!-- 0.100 -->
      <defs>
       <path d="M 12.40625 8.296875 
L 28.515625 8.296875 
L 28.515625 63.921875 
L 10.984375 60.40625 
L 10.984375 69.390625 
L 28.421875 72.90625 
L 38.28125 72.90625 
L 38.28125 8.296875 
L 54.390625 8.296875 
L 54.390625 0 
L 12.40625 0 
z
" id="DejaVuSans-49"/>
      </defs>
      <g transform="translate(1147.428993 1296.198437)scale(0.1 -0.1)">
       <use xlink:href="#DejaVuSans-48"/>
       <use x="63.623047" xlink:href="#DejaVuSans-46"/>
       <use x="95.410156" xlink:href="#DejaVuSans-49"/>
       <use x="159.033203" xlink:href="#DejaVuSans-48"/>
       <use x="222.65625" xlink:href="#DejaVuSans-48"/>
      </g>
     </g>
    </g>
    <g id="xtick_9">
     <g id="line2d_9">
      <g>
       <use style="stroke:#000000;stroke-width:0.8;" x="1291.119826" xlink:href="#m278b7a4406" y="1281.6"/>
      </g>
     </g>
     <g id="text_9">
      <!-- 0.125 -->
      <g transform="translate(1276.805763 1296.198437)scale(0.1 -0.1)">
       <use xlink:href="#DejaVuSans-48"/>
       <use x="63.623047" xlink:href="#DejaVuSans-46"/>
       <use x="95.410156" xlink:href="#DejaVuSans-49"/>
       <use x="159.033203" xlink:href="#DejaVuSans-50"/>
       <use x="222.65625" xlink:href="#DejaVuSans-53"/>
      </g>
     </g>
    </g>
   </g>
   <g id="matplotlib.axis_2">
    <g id="ytick_1">
     <g id="line2d_10">
      <defs>
       <path d="M 0 0 
L -3.5 0 
" id="ma50719045e" style="stroke:#000000;stroke-width:0.8;"/>
      </defs>
      <g>
       <use style="stroke:#000000;stroke-width:0.8;" x="180" xlink:href="#ma50719045e" y="1093.555037"/>
      </g>
     </g>
     <g id="text_10">
      <!-- −0.05 -->
      <g transform="translate(142.354688 1097.354256)scale(0.1 -0.1)">
       <use xlink:href="#DejaVuSans-8722"/>
       <use x="83.789062" xlink:href="#DejaVuSans-48"/>
       <use x="147.412109" xlink:href="#DejaVuSans-46"/>
       <use x="179.199219" xlink:href="#DejaVuSans-48"/>
       <use x="242.822266" xlink:href="#DejaVuSans-53"/>
      </g>
     </g>
    </g>
    <g id="ytick_2">
     <g id="line2d_11">
      <g>
       <use style="stroke:#000000;stroke-width:0.8;" x="180" xlink:href="#ma50719045e" y="890.932916"/>
      </g>
     </g>
     <g id="text_11">
      <!-- 0.00 -->
      <g transform="translate(150.734375 894.732135)scale(0.1 -0.1)">
       <use xlink:href="#DejaVuSans-48"/>
       <use x="63.623047" xlink:href="#DejaVuSans-46"/>
       <use x="95.410156" xlink:href="#DejaVuSans-48"/>
       <use x="159.033203" xlink:href="#DejaVuSans-48"/>
      </g>
     </g>
    </g>
    <g id="ytick_3">
     <g id="line2d_12">
      <g>
       <use style="stroke:#000000;stroke-width:0.8;" x="180" xlink:href="#ma50719045e" y="688.310795"/>
      </g>
     </g>
     <g id="text_12">
      <!-- 0.05 -->
      <g transform="translate(150.734375 692.110014)scale(0.1 -0.1)">
       <use xlink:href="#DejaVuSans-48"/>
       <use x="63.623047" xlink:href="#DejaVuSans-46"/>
       <use x="95.410156" xlink:href="#DejaVuSans-48"/>
       <use x="159.033203" xlink:href="#DejaVuSans-53"/>
      </g>
     </g>
    </g>
    <g id="ytick_4">
     <g id="line2d_13">
      <g>
       <use style="stroke:#000000;stroke-width:0.8;" x="180" xlink:href="#ma50719045e" y="485.688674"/>
      </g>
     </g>
     <g id="text_13">
      <!-- 0.10 -->
      <g transform="translate(150.734375 489.487893)scale(0.1 -0.1)">
       <use xlink:href="#DejaVuSans-48"/>
       <use x="63.623047" xlink:href="#DejaVuSans-46"/>
       <use x="95.410156" xlink:href="#DejaVuSans-49"/>
       <use x="159.033203" xlink:href="#DejaVuSans-48"/>
      </g>
     </g>
    </g>
    <g id="ytick_5">
     <g id="line2d_14">
      <g>
       <use style="stroke:#000000;stroke-width:0.8;" x="180" xlink:href="#ma50719045e" y="283.066553"/>
      </g>
     </g>
     <g id="text_14">
      <!-- 0.15 -->
      <g transform="translate(150.734375 286.865772)scale(0.1 -0.1)">
       <use xlink:href="#DejaVuSans-48"/>
       <use x="63.623047" xlink:href="#DejaVuSans-46"/>
       <use x="95.410156" xlink:href="#DejaVuSans-49"/>
       <use x="159.033203" xlink:href="#DejaVuSans-53"/>
      </g>
     </g>
    </g>
   </g>
   <g id="line2d_15">
    <defs>
     <path d="M 0 9 
C 2.386828 9 4.676219 8.051703 6.363961 6.363961 
C 8.051703 4.676219 9 2.386828 9 0 
C 9 -2.386828 8.051703 -4.676219 6.363961 -6.363961 
C 4.676219 -8.051703 2.386828 -9 0 -9 
C -2.386828 -9 -4.676219 -8.051703 -6.363961 -6.363961 
C -8.051703 -4.676219 -9 -2.386828 -9 0 
C -9 2.386828 -8.051703 4.676219 -6.363961 6.363961 
C -4.676219 8.051703 -2.386828 9 0 9 
z
" id="m6158aa9042" style="stroke:#000000;"/>
    </defs>
    <g clip-path="url(#p2d06eb625d)">
     <use style="fill:#9e0142;stroke:#000000;" x="1238.30738" xlink:href="#m6158aa9042" y="694.428756"/>
    </g>
   </g>
   <g id="line2d_16">
    <defs>
     <path d="M 0 9 
C 2.386828 9 4.676219 8.051703 6.363961 6.363961 
C 8.051703 4.676219 9 2.386828 9 0 
C 9 -2.386828 8.051703 -4.676219 6.363961 -6.363961 
C 4.676219 -8.051703 2.386828 -9 0 -9 
C -2.386828 -9 -4.676219 -8.051703 -6.363961 -6.363961 
C -8.051703 -4.676219 -9 -2.386828 -9 0 
C -9 2.386828 -8.051703 4.676219 -6.363961 6.363961 
C -4.676219 8.051703 -2.386828 9 0 9 
z
" id="m04b7a5d9ec" style="stroke:#000000;"/>
    </defs>
    <g clip-path="url(#p2d06eb625d)">
     <use style="fill:#fdbf6f;stroke:#000000;" x="744.856039" xlink:href="#m04b7a5d9ec" y="460.240769"/>
    </g>
   </g>
   <g id="line2d_17">
    <g clip-path="url(#p2d06eb625d)">
     <use style="fill:#9e0142;stroke:#000000;" x="1243.638756" xlink:href="#m6158aa9042" y="694.872728"/>
    </g>
   </g>
   <g id="line2d_18">
    <defs>
     <path d="M 0 9 
C 2.386828 9 4.676219 8.051703 6.363961 6.363961 
C 8.051703 4.676219 9 2.386828 9 0 
C 9 -2.386828 8.051703 -4.676219 6.363961 -6.363961 
C 4.676219 -8.051703 2.386828 -9 0 -9 
C -2.386828 -9 -4.676219 -8.051703 -6.363961 -6.363961 
C -8.051703 -4.676219 -9 -2.386828 -9 0 
C -9 2.386828 -8.051703 4.676219 -6.363961 6.363961 
C -4.676219 8.051703 -2.386828 9 0 9 
z
" id="m707b718438" style="stroke:#000000;"/>
    </defs>
    <g clip-path="url(#p2d06eb625d)">
     <use style="fill:#bfe5a0;stroke:#000000;" x="258.151078" xlink:href="#m707b718438" y="228.50299"/>
    </g>
   </g>
   <g id="line2d_19">
    <g clip-path="url(#p2d06eb625d)">
     <use style="fill:#9e0142;stroke:#000000;" x="1244.113733" xlink:href="#m6158aa9042" y="691.098526"/>
    </g>
   </g>
   <g id="line2d_20">
    <g clip-path="url(#p2d06eb625d)">
     <use style="fill:#9e0142;stroke:#000000;" x="1239.492916" xlink:href="#m6158aa9042" y="692.315733"/>
    </g>
   </g>
   <g id="line2d_21">
    <g clip-path="url(#p2d06eb625d)">
     <use style="fill:#9e0142;stroke:#000000;" x="1234.641486" xlink:href="#m6158aa9042" y="694.204519"/>
    </g>
   </g>
   <g id="line2d_22">
    <g clip-path="url(#p2d06eb625d)">
     <use style="fill:#9e0142;stroke:#000000;" x="1233.834376" xlink:href="#m6158aa9042" y="691.124192"/>
    </g>
   </g>
   <g id="line2d_23">
    <g clip-path="url(#p2d06eb625d)">
     <use style="fill:#bfe5a0;stroke:#000000;" x="258.681999" xlink:href="#m707b718438" y="233.165763"/>
    </g>
   </g>
   <g id="line2d_24">
    <g clip-path="url(#p2d06eb625d)">
     <use style="fill:#9e0142;stroke:#000000;" x="1241.061419" xlink:href="#m6158aa9042" y="693.765165"/>
    </g>
   </g>
   <g id="line2d_25">
    <defs>
     <path d="M 0 3 
C 0.795609 3 1.55874 2.683901 2.12132 2.12132 
C 2.683901 1.55874 3 0.795609 3 0 
C 3 -0.795609 2.683901 -1.55874 2.12132 -2.12132 
C 1.55874 -2.683901 0.795609 -3 0 -3 
C -0.795609 -3 -1.55874 -2.683901 -2.12132 -2.12132 
C -2.683901 -1.55874 -3 -0.795609 -3 0 
C -3 0.795609 -2.683901 1.55874 -2.12132 2.12132 
C -1.55874 2.683901 -0.795609 3 0 3 
z
" id="mbd47263612" style="stroke:#000000;"/>
    </defs>
    <g clip-path="url(#p2d06eb625d)">
     <use style="stroke:#000000;" x="685.520002" xlink:href="#mbd47263612" y="809.525937"/>
    </g>
   </g>
   <g id="line2d_26">
    <g clip-path="url(#p2d06eb625d)">
     <use style="fill:#bfe5a0;stroke:#000000;" x="261.073952" xlink:href="#m707b718438" y="228.433353"/>
    </g>
   </g>
   <g id="line2d_27">
    <g clip-path="url(#p2d06eb625d)">
     <use style="fill:#9e0142;stroke:#000000;" x="1242.201166" xlink:href="#m6158aa9042" y="694.862424"/>
    </g>
   </g>
   <g id="line2d_28">
    <g clip-path="url(#p2d06eb625d)">
     <use style="fill:#bfe5a0;stroke:#000000;" x="230.727273" xlink:href="#m707b718438" y="233.759979"/>
    </g>
   </g>
   <g id="line2d_29">
    <g clip-path="url(#p2d06eb625d)">
     <use style="fill:#bfe5a0;stroke:#000000;" x="231.83513" xlink:href="#m707b718438" y="233.766001"/>
    </g>
   </g>
   <g id="line2d_30">
    <g clip-path="url(#p2d06eb625d)">
     <use style="fill:#bfe5a0;stroke:#000000;" x="264.226006" xlink:href="#m707b718438" y="229.130352"/>
    </g>
   </g>
   <g id="line2d_31">
    <g clip-path="url(#p2d06eb625d)">
     <use style="fill:#bfe5a0;stroke:#000000;" x="259.793739" xlink:href="#m707b718438" y="224.895006"/>
    </g>
   </g>
   <g id="line2d_32">
    <g clip-path="url(#p2d06eb625d)">
     <use style="fill:#bfe5a0;stroke:#000000;" x="264.625039" xlink:href="#m707b718438" y="229.679147"/>
    </g>
   </g>
   <g id="line2d_33">
    <g clip-path="url(#p2d06eb625d)">
     <use style="fill:#9e0142;stroke:#000000;" x="1244.096005" xlink:href="#m6158aa9042" y="693.539212"/>
    </g>
   </g>
   <g id="line2d_34">
    <g clip-path="url(#p2d06eb625d)">
     <use style="fill:#9e0142;stroke:#000000;" x="1235.380812" xlink:href="#m6158aa9042" y="693.499475"/>
    </g>
   </g>
   <g id="line2d_35">
    <g clip-path="url(#p2d06eb625d)">
     <use style="fill:#bfe5a0;stroke:#000000;" x="260.262615" xlink:href="#m707b718438" y="234.383802"/>
    </g>
   </g>
   <g id="line2d_36">
    <g clip-path="url(#p2d06eb625d)">
     <use style="fill:#9e0142;stroke:#000000;" x="1239.733353" xlink:href="#m6158aa9042" y="693.016776"/>
    </g>
   </g>
   <g id="line2d_37">
    <g clip-path="url(#p2d06eb625d)">
     <use style="fill:#9e0142;stroke:#000000;" x="1238.654622" xlink:href="#m6158aa9042" y="692.035284"/>
    </g>
   </g>
   <g id="line2d_38">
    <g clip-path="url(#p2d06eb625d)">
     <use style="fill:#9e0142;stroke:#000000;" x="1235.107489" xlink:href="#m6158aa9042" y="691.203383"/>
    </g>
   </g>
   <g id="line2d_39">
    <g clip-path="url(#p2d06eb625d)">
     <use style="fill:#9e0142;stroke:#000000;" x="1244.205048" xlink:href="#m6158aa9042" y="693.533133"/>
    </g>
   </g>
   <g id="line2d_40">
    <g clip-path="url(#p2d06eb625d)">
     <use style="fill:#9e0142;stroke:#000000;" x="1244.481388" xlink:href="#m6158aa9042" y="694.505882"/>
    </g>
   </g>
   <g id="line2d_41">
    <g clip-path="url(#p2d06eb625d)">
     <use style="fill:#9e0142;stroke:#000000;" x="1239.979545" xlink:href="#m6158aa9042" y="691.581081"/>
    </g>
   </g>
   <g id="line2d_42">
    <g clip-path="url(#p2d06eb625d)">
     <use style="fill:#bfe5a0;stroke:#000000;" x="259.369533" xlink:href="#m707b718438" y="228.821791"/>
    </g>
   </g>
   <g id="line2d_43">
    <g clip-path="url(#p2d06eb625d)">
     <use style="fill:#9e0142;stroke:#000000;" x="1245.272727" xlink:href="#m6158aa9042" y="691.26896"/>
    </g>
   </g>
   <g id="line2d_44">
    <g clip-path="url(#p2d06eb625d)">
     <use style="fill:#9e0142;stroke:#000000;" x="1237.318303" xlink:href="#m6158aa9042" y="691.74222"/>
    </g>
   </g>
   <g id="line2d_45">
    <g clip-path="url(#p2d06eb625d)">
     <use style="fill:#9e0142;stroke:#000000;" x="1240.222685" xlink:href="#m6158aa9042" y="694.519222"/>
    </g>
   </g>
   <g id="line2d_46">
    <g clip-path="url(#p2d06eb625d)">
     <use style="fill:#9e0142;stroke:#000000;" x="1241.261864" xlink:href="#m6158aa9042" y="691.601847"/>
    </g>
   </g>
   <g id="line2d_47">
    <g clip-path="url(#p2d06eb625d)">
     <use style="fill:#fdbf6f;stroke:#000000;" x="745.04108" xlink:href="#m04b7a5d9ec" y="458.90301"/>
    </g>
   </g>
   <g id="line2d_48">
    <g clip-path="url(#p2d06eb625d)">
     <use style="fill:#9e0142;stroke:#000000;" x="1235.673602" xlink:href="#m6158aa9042" y="691.880416"/>
    </g>
   </g>
   <g id="line2d_49">
    <g clip-path="url(#p2d06eb625d)">
     <use style="fill:#bfe5a0;stroke:#000000;" x="264.081273" xlink:href="#m707b718438" y="228.606618"/>
    </g>
   </g>
   <g id="line2d_50">
    <g clip-path="url(#p2d06eb625d)">
     <use style="fill:#9e0142;stroke:#000000;" x="1233.441096" xlink:href="#m6158aa9042" y="692.383173"/>
    </g>
   </g>
   <g id="line2d_51">
    <g clip-path="url(#p2d06eb625d)">
     <use style="fill:#9e0142;stroke:#000000;" x="1242.407165" xlink:href="#m6158aa9042" y="693.898915"/>
    </g>
   </g>
   <g id="line2d_52">
    <g clip-path="url(#p2d06eb625d)">
     <use style="fill:#9e0142;stroke:#000000;" x="1235.402742" xlink:href="#m6158aa9042" y="694.133796"/>
    </g>
   </g>
   <g id="line2d_53">
    <g clip-path="url(#p2d06eb625d)">
     <use style="fill:#bfe5a0;stroke:#000000;" x="260.166545" xlink:href="#m707b718438" y="225.185138"/>
    </g>
   </g>
   <g id="line2d_54">
    <g clip-path="url(#p2d06eb625d)">
     <use style="fill:#9e0142;stroke:#000000;" x="1237.033654" xlink:href="#m6158aa9042" y="694.421414"/>
    </g>
   </g>
   <g id="line2d_55">
    <g clip-path="url(#p2d06eb625d)">
     <use style="stroke:#000000;" x="807.180694" xlink:href="#mbd47263612" y="796.783982"/>
    </g>
   </g>
   <g id="line2d_56">
    <g clip-path="url(#p2d06eb625d)">
     <use style="fill:#9e0142;stroke:#000000;" x="1235.002112" xlink:href="#m6158aa9042" y="691.090995"/>
    </g>
   </g>
   <g id="line2d_57">
    <g clip-path="url(#p2d06eb625d)">
     <use style="fill:#bfe5a0;stroke:#000000;" x="264.366478" xlink:href="#m707b718438" y="226.066383"/>
    </g>
   </g>
   <g id="line2d_58">
    <g clip-path="url(#p2d06eb625d)">
     <use style="fill:#9e0142;stroke:#000000;" x="1234.364955" xlink:href="#m6158aa9042" y="694.390152"/>
    </g>
   </g>
   <g id="line2d_59">
    <g clip-path="url(#p2d06eb625d)">
     <use style="stroke:#000000;" x="751.442561" xlink:href="#mbd47263612" y="444.707697"/>
    </g>
   </g>
   <g id="line2d_60">
    <g clip-path="url(#p2d06eb625d)">
     <use style="fill:#9e0142;stroke:#000000;" x="1234.844866" xlink:href="#m6158aa9042" y="694.096164"/>
    </g>
   </g>
   <g id="line2d_61">
    <g clip-path="url(#p2d06eb625d)">
     <use style="fill:#9e0142;stroke:#000000;" x="1242.393798" xlink:href="#m6158aa9042" y="694.725119"/>
    </g>
   </g>
   <g id="line2d_62">
    <g clip-path="url(#p2d06eb625d)">
     <use style="fill:#9e0142;stroke:#000000;" x="1235.026345" xlink:href="#m6158aa9042" y="692.348647"/>
    </g>
   </g>
   <g id="line2d_63">
    <g clip-path="url(#p2d06eb625d)">
     <use style="stroke:#000000;" x="757.602206" xlink:href="#mbd47263612" y="456.788057"/>
    </g>
   </g>
   <g id="line2d_64">
    <g clip-path="url(#p2d06eb625d)">
     <use style="fill:#9e0142;stroke:#000000;" x="1234.860178" xlink:href="#m6158aa9042" y="691.194622"/>
    </g>
   </g>
   <g id="line2d_65">
    <g clip-path="url(#p2d06eb625d)">
     <use style="fill:#9e0142;stroke:#000000;" x="1237.777825" xlink:href="#m6158aa9042" y="694.039098"/>
    </g>
   </g>
   <g id="line2d_66">
    <g clip-path="url(#p2d06eb625d)">
     <use style="fill:#9e0142;stroke:#000000;" x="1235.929465" xlink:href="#m6158aa9042" y="694.773827"/>
    </g>
   </g>
   <g id="line2d_67">
    <g clip-path="url(#p2d06eb625d)">
     <use style="fill:#bfe5a0;stroke:#000000;" x="263.913892" xlink:href="#m707b718438" y="231.816474"/>
    </g>
   </g>
   <g id="line2d_68">
    <g clip-path="url(#p2d06eb625d)">
     <use style="fill:#9e0142;stroke:#000000;" x="1234.604482" xlink:href="#m6158aa9042" y="693.391011"/>
    </g>
   </g>
   <g id="line2d_69">
    <g clip-path="url(#p2d06eb625d)">
     <use style="fill:#9e0142;stroke:#000000;" x="1236.984861" xlink:href="#m6158aa9042" y="691.913176"/>
    </g>
   </g>
   <g id="line2d_70">
    <g clip-path="url(#p2d06eb625d)">
     <use style="fill:#9e0142;stroke:#000000;" x="1244.384801" xlink:href="#m6158aa9042" y="691.415062"/>
    </g>
   </g>
   <g id="line2d_71">
    <g clip-path="url(#p2d06eb625d)">
     <use style="fill:#9e0142;stroke:#000000;" x="1242.358205" xlink:href="#m6158aa9042" y="691.93322"/>
    </g>
   </g>
   <g id="line2d_72">
    <g clip-path="url(#p2d06eb625d)">
     <use style="fill:#9e0142;stroke:#000000;" x="1243.823295" xlink:href="#m6158aa9042" y="693.944543"/>
    </g>
   </g>
   <g id="line2d_73">
    <g clip-path="url(#p2d06eb625d)">
     <use style="fill:#9e0142;stroke:#000000;" x="1237.248127" xlink:href="#m6158aa9042" y="692.168517"/>
    </g>
   </g>
   <g id="line2d_74">
    <g clip-path="url(#p2d06eb625d)">
     <use style="fill:#bfe5a0;stroke:#000000;" x="261.189527" xlink:href="#m707b718438" y="225.998798"/>
    </g>
   </g>
   <g id="line2d_75">
    <g clip-path="url(#p2d06eb625d)">
     <use style="fill:#9e0142;stroke:#000000;" x="1238.361696" xlink:href="#m6158aa9042" y="694.76438"/>
    </g>
   </g>
   <g id="line2d_76">
    <g clip-path="url(#p2d06eb625d)">
     <use style="fill:#9e0142;stroke:#000000;" x="1239.464452" xlink:href="#m6158aa9042" y="693.206935"/>
    </g>
   </g>
   <g id="line2d_77">
    <g clip-path="url(#p2d06eb625d)">
     <use style="fill:#9e0142;stroke:#000000;" x="1235.988309" xlink:href="#m6158aa9042" y="694.388181"/>
    </g>
   </g>
   <g id="line2d_78">
    <g clip-path="url(#p2d06eb625d)">
     <use style="fill:#bfe5a0;stroke:#000000;" x="257.924691" xlink:href="#m707b718438" y="225.493315"/>
    </g>
   </g>
   <g id="line2d_79">
    <g clip-path="url(#p2d06eb625d)">
     <use style="fill:#9e0142;stroke:#000000;" x="1237.942314" xlink:href="#m6158aa9042" y="691.564834"/>
    </g>
   </g>
   <g id="line2d_80">
    <g clip-path="url(#p2d06eb625d)">
     <use style="fill:#9e0142;stroke:#000000;" x="1237.14522" xlink:href="#m6158aa9042" y="692.887018"/>
    </g>
   </g>
   <g id="line2d_81">
    <g clip-path="url(#p2d06eb625d)">
     <use style="fill:#bfe5a0;stroke:#000000;" x="258.85143" xlink:href="#m707b718438" y="235.132539"/>
    </g>
   </g>
   <g id="line2d_82">
    <g clip-path="url(#p2d06eb625d)">
     <use style="fill:#9e0142;stroke:#000000;" x="1237.776986" xlink:href="#m6158aa9042" y="693.15213"/>
    </g>
   </g>
   <g id="line2d_83">
    <g clip-path="url(#p2d06eb625d)">
     <use style="fill:#9e0142;stroke:#000000;" x="1245.081607" xlink:href="#m6158aa9042" y="694.624872"/>
    </g>
   </g>
   <g id="line2d_84">
    <g clip-path="url(#p2d06eb625d)">
     <use style="fill:#9e0142;stroke:#000000;" x="1243.944781" xlink:href="#m6158aa9042" y="693.310378"/>
    </g>
   </g>
   <g id="line2d_85">
    <g clip-path="url(#p2d06eb625d)">
     <use style="fill:#bfe5a0;stroke:#000000;" x="262.376578" xlink:href="#m707b718438" y="223.840826"/>
    </g>
   </g>
   <g id="line2d_86">
    <g clip-path="url(#p2d06eb625d)">
     <use style="fill:#9e0142;stroke:#000000;" x="1235.712826" xlink:href="#m6158aa9042" y="693.129379"/>
    </g>
   </g>
   <g id="line2d_87">
    <g clip-path="url(#p2d06eb625d)">
     <use style="stroke:#000000;" x="331.705207" xlink:href="#mbd47263612" y="304.14013"/>
    </g>
   </g>
   <g id="line2d_88">
    <g clip-path="url(#p2d06eb625d)">
     <use style="fill:#9e0142;stroke:#000000;" x="1242.745647" xlink:href="#m6158aa9042" y="693.79336"/>
    </g>
   </g>
   <g id="line2d_89">
    <g clip-path="url(#p2d06eb625d)">
     <use style="stroke:#000000;" x="1158.535664" xlink:href="#mbd47263612" y="1231.2"/>
    </g>
   </g>
   <g id="line2d_90">
    <g clip-path="url(#p2d06eb625d)">
     <use style="fill:#bfe5a0;stroke:#000000;" x="262.553056" xlink:href="#m707b718438" y="229.554946"/>
    </g>
   </g>
   <g id="line2d_91">
    <g clip-path="url(#p2d06eb625d)">
     <use style="fill:#9e0142;stroke:#000000;" x="1244.239522" xlink:href="#m6158aa9042" y="691.779993"/>
    </g>
   </g>
   <g id="line2d_92">
    <g clip-path="url(#p2d06eb625d)">
     <use style="fill:#bfe5a0;stroke:#000000;" x="259.368767" xlink:href="#m707b718438" y="234.222015"/>
    </g>
   </g>
   <g id="line2d_93">
    <g clip-path="url(#p2d06eb625d)">
     <use style="fill:#9e0142;stroke:#000000;" x="1236.190124" xlink:href="#m6158aa9042" y="691.528574"/>
    </g>
   </g>
   <g id="line2d_94">
    <g clip-path="url(#p2d06eb625d)">
     <use style="fill:#bfe5a0;stroke:#000000;" x="264.479965" xlink:href="#m707b718438" y="226.672735"/>
    </g>
   </g>
   <g id="line2d_95">
    <g clip-path="url(#p2d06eb625d)">
     <use style="fill:#9e0142;stroke:#000000;" x="1238.763671" xlink:href="#m6158aa9042" y="694.981995"/>
    </g>
   </g>
   <g id="line2d_96">
    <g clip-path="url(#p2d06eb625d)">
     <use style="fill:#bfe5a0;stroke:#000000;" x="260.318621" xlink:href="#m707b718438" y="225.42949"/>
    </g>
   </g>
   <g id="line2d_97">
    <g clip-path="url(#p2d06eb625d)">
     <use style="fill:#9e0142;stroke:#000000;" x="1242.103616" xlink:href="#m6158aa9042" y="693.055197"/>
    </g>
   </g>
   <g id="line2d_98">
    <g clip-path="url(#p2d06eb625d)">
     <use style="fill:#9e0142;stroke:#000000;" x="1241.991675" xlink:href="#m6158aa9042" y="691.803848"/>
    </g>
   </g>
   <g id="line2d_99">
    <g clip-path="url(#p2d06eb625d)">
     <use style="fill:#9e0142;stroke:#000000;" x="1238.475154" xlink:href="#m6158aa9042" y="692.265036"/>
    </g>
   </g>
   <g id="line2d_100">
    <g clip-path="url(#p2d06eb625d)">
     <use style="stroke:#000000;" x="1163.372142" xlink:href="#mbd47263612" y="1190.07007"/>
    </g>
   </g>
   <g id="line2d_101">
    <g clip-path="url(#p2d06eb625d)">
     <use style="fill:#9e0142;stroke:#000000;" x="1234.158862" xlink:href="#m6158aa9042" y="692.944676"/>
    </g>
   </g>
   <g id="line2d_102">
    <g clip-path="url(#p2d06eb625d)">
     <use style="fill:#bfe5a0;stroke:#000000;" x="258.928991" xlink:href="#m707b718438" y="230.669151"/>
    </g>
   </g>
   <g id="line2d_103">
    <g clip-path="url(#p2d06eb625d)">
     <use style="fill:#9e0142;stroke:#000000;" x="1238.346717" xlink:href="#m6158aa9042" y="695.017492"/>
    </g>
   </g>
   <g id="line2d_104">
    <g clip-path="url(#p2d06eb625d)">
     <use style="stroke:#000000;" x="751.346298" xlink:href="#mbd47263612" y="446.625598"/>
    </g>
   </g>
   <g id="line2d_105">
    <g clip-path="url(#p2d06eb625d)">
     <use style="fill:#bfe5a0;stroke:#000000;" x="258.296566" xlink:href="#m707b718438" y="226.232149"/>
    </g>
   </g>
   <g id="line2d_106">
    <g clip-path="url(#p2d06eb625d)">
     <use style="fill:#bfe5a0;stroke:#000000;" x="264.673411" xlink:href="#m707b718438" y="229.597297"/>
    </g>
   </g>
   <g id="line2d_107">
    <g clip-path="url(#p2d06eb625d)">
     <use style="fill:#9e0142;stroke:#000000;" x="1239.157391" xlink:href="#m6158aa9042" y="694.088492"/>
    </g>
   </g>
   <g id="line2d_108">
    <g clip-path="url(#p2d06eb625d)">
     <use style="stroke:#000000;" x="336.068282" xlink:href="#mbd47263612" y="299.934808"/>
    </g>
   </g>
   <g id="line2d_109">
    <g clip-path="url(#p2d06eb625d)">
     <use style="fill:#9e0142;stroke:#000000;" x="1244.900657" xlink:href="#m6158aa9042" y="693.64415"/>
    </g>
   </g>
   <g id="line2d_110">
    <g clip-path="url(#p2d06eb625d)">
     <use style="fill:#bfe5a0;stroke:#000000;" x="261.683649" xlink:href="#m707b718438" y="223.2"/>
    </g>
   </g>
   <g id="line2d_111">
    <g clip-path="url(#p2d06eb625d)">
     <use style="stroke:#000000;" x="335.849336" xlink:href="#mbd47263612" y="316.822392"/>
    </g>
   </g>
   <g id="line2d_112">
    <g clip-path="url(#p2d06eb625d)">
     <use style="fill:#fdbf6f;stroke:#000000;" x="744.505692" xlink:href="#m04b7a5d9ec" y="454.757962"/>
    </g>
   </g>
   <g id="line2d_113">
    <g clip-path="url(#p2d06eb625d)">
     <use style="fill:#9e0142;stroke:#000000;" x="1237.368822" xlink:href="#m6158aa9042" y="691.803525"/>
    </g>
   </g>
   <g id="line2d_114">
    <g clip-path="url(#p2d06eb625d)">
     <use style="stroke:#000000;" x="465.312253" xlink:href="#mbd47263612" y="410.817088"/>
    </g>
   </g>
   <g id="line2d_115">
    <g clip-path="url(#p2d06eb625d)">
     <use style="fill:#9e0142;stroke:#000000;" x="1238.141088" xlink:href="#m6158aa9042" y="691.131166"/>
    </g>
   </g>
   <g id="line2d_116">
    <g clip-path="url(#p2d06eb625d)">
     <use style="fill:#9e0142;stroke:#000000;" x="1233.580662" xlink:href="#m6158aa9042" y="691.931744"/>
    </g>
   </g>
   <g id="patch_3">
    <path d="M 180 1281.6 
L 180 172.8 
" style="fill:none;stroke:#000000;stroke-linecap:square;stroke-linejoin:miter;stroke-width:0.8;"/>
   </g>
   <g id="patch_4">
    <path d="M 1296 1281.6 
L 1296 172.8 
" style="fill:none;stroke:#000000;stroke-linecap:square;stroke-linejoin:miter;stroke-width:0.8;"/>
   </g>
   <g id="patch_5">
    <path d="M 180 1281.6 
L 1296 1281.6 
" style="fill:none;stroke:#000000;stroke-linecap:square;stroke-linejoin:miter;stroke-width:0.8;"/>
   </g>
   <g id="patch_6">
    <path d="M 180 172.8 
L 1296 172.8 
" style="fill:none;stroke:#000000;stroke-linecap:square;stroke-linejoin:miter;stroke-width:0.8;"/>
   </g>
  </g>
 </g>
 <defs>
  <clipPath id="p2d06eb625d">
   <rect height="1108.8" width="1116" x="180" y="172.8"/>
  </clipPath>
 </defs>
</svg>
