<?xml version="1.0" encoding="utf-8" standalone="no"?>
<!DOCTYPE svg PUBLIC "-//W3C//DTD SVG 1.1//EN"
  "http://www.w3.org/Graphics/SVG/1.1/DTD/svg11.dtd">
<!-- Created with matplotlib (https://matplotlib.org/) -->
<svg height="1440pt" version="1.1" viewBox="0 0 1440 1440" width="1440pt" xmlns="http://www.w3.org/2000/svg" xmlns:xlink="http://www.w3.org/1999/xlink">
 <defs>
  <style type="text/css">
*{stroke-linecap:butt;stroke-linejoin:round;}
  </style>
 </defs>
 <g id="figure_1">
  <g id="patch_1">
   <path d="M 0 1440 
L 1440 1440 
L 1440 0 
L 0 0 
z
" style="fill:#ffffff;"/>
  </g>
  <g id="axes_1">
   <g id="patch_2">
    <path d="M 180 1281.6 
L 1296 1281.6 
L 1296 172.8 
L 180 172.8 
z
" style="fill:#ffffff;"/>
   </g>
   <g id="matplotlib.axis_1">
    <g id="xtick_1">
     <g id="line2d_1">
      <defs>
       <path d="M 0 0 
L 0 3.5 
" id="m39a2a16966" style="stroke:#000000;stroke-width:0.8;"/>
      </defs>
      <g>
       <use style="stroke:#000000;stroke-width:0.8;" x="322.046291" xlink:href="#m39a2a16966" y="1281.6"/>
      </g>
     </g>
     <g id="text_1">
      <!-- 0.00 -->
      <defs>
       <path d="M 31.78125 66.40625 
Q 24.171875 66.40625 20.328125 58.90625 
Q 16.5 51.421875 16.5 36.375 
Q 16.5 21.390625 20.328125 13.890625 
Q 24.171875 6.390625 31.78125 6.390625 
Q 39.453125 6.390625 43.28125 13.890625 
Q 47.125 21.390625 47.125 36.375 
Q 47.125 51.421875 43.28125 58.90625 
Q 39.453125 66.40625 31.78125 66.40625 
z
M 31.78125 74.21875 
Q 44.046875 74.21875 50.515625 64.515625 
Q 56.984375 54.828125 56.984375 36.375 
Q 56.984375 17.96875 50.515625 8.265625 
Q 44.046875 -1.421875 31.78125 -1.421875 
Q 19.53125 -1.421875 13.0625 8.265625 
Q 6.59375 17.96875 6.59375 36.375 
Q 6.59375 54.828125 13.0625 64.515625 
Q 19.53125 74.21875 31.78125 74.21875 
z
" id="DejaVuSans-48"/>
       <path d="M 10.6875 12.40625 
L 21 12.40625 
L 21 0 
L 10.6875 0 
z
" id="DejaVuSans-46"/>
      </defs>
      <g transform="translate(310.913478 1296.198437)scale(0.1 -0.1)">
       <use xlink:href="#DejaVuSans-48"/>
       <use x="63.623047" xlink:href="#DejaVuSans-46"/>
       <use x="95.410156" xlink:href="#DejaVuSans-48"/>
       <use x="159.033203" xlink:href="#DejaVuSans-48"/>
      </g>
     </g>
    </g>
    <g id="xtick_2">
     <g id="line2d_2">
      <g>
       <use style="stroke:#000000;stroke-width:0.8;" x="506.553626" xlink:href="#m39a2a16966" y="1281.6"/>
      </g>
     </g>
     <g id="text_2">
      <!-- 0.02 -->
      <defs>
       <path d="M 19.1875 8.296875 
L 53.609375 8.296875 
L 53.609375 0 
L 7.328125 0 
L 7.328125 8.296875 
Q 12.9375 14.109375 22.625 23.890625 
Q 32.328125 33.6875 34.8125 36.53125 
Q 39.546875 41.84375 41.421875 45.53125 
Q 43.3125 49.21875 43.3125 52.78125 
Q 43.3125 58.59375 39.234375 62.25 
Q 35.15625 65.921875 28.609375 65.921875 
Q 23.96875 65.921875 18.8125 64.3125 
Q 13.671875 62.703125 7.8125 59.421875 
L 7.8125 69.390625 
Q 13.765625 71.78125 18.9375 73 
Q 24.125 74.21875 28.421875 74.21875 
Q 39.75 74.21875 46.484375 68.546875 
Q 53.21875 62.890625 53.21875 53.421875 
Q 53.21875 48.921875 51.53125 44.890625 
Q 49.859375 40.875 45.40625 35.40625 
Q 44.1875 33.984375 37.640625 27.21875 
Q 31.109375 20.453125 19.1875 8.296875 
z
" id="DejaVuSans-50"/>
      </defs>
      <g transform="translate(495.420814 1296.198437)scale(0.1 -0.1)">
       <use xlink:href="#DejaVuSans-48"/>
       <use x="63.623047" xlink:href="#DejaVuSans-46"/>
       <use x="95.410156" xlink:href="#DejaVuSans-48"/>
       <use x="159.033203" xlink:href="#DejaVuSans-50"/>
      </g>
     </g>
    </g>
    <g id="xtick_3">
     <g id="line2d_3">
      <g>
       <use style="stroke:#000000;stroke-width:0.8;" x="691.060962" xlink:href="#m39a2a16966" y="1281.6"/>
      </g>
     </g>
     <g id="text_3">
      <!-- 0.04 -->
      <defs>
       <path d="M 37.796875 64.3125 
L 12.890625 25.390625 
L 37.796875 25.390625 
z
M 35.203125 72.90625 
L 47.609375 72.90625 
L 47.609375 25.390625 
L 58.015625 25.390625 
L 58.015625 17.1875 
L 47.609375 17.1875 
L 47.609375 0 
L 37.796875 0 
L 37.796875 17.1875 
L 4.890625 17.1875 
L 4.890625 26.703125 
z
" id="DejaVuSans-52"/>
      </defs>
      <g transform="translate(679.92815 1296.198437)scale(0.1 -0.1)">
       <use xlink:href="#DejaVuSans-48"/>
       <use x="63.623047" xlink:href="#DejaVuSans-46"/>
       <use x="95.410156" xlink:href="#DejaVuSans-48"/>
       <use x="159.033203" xlink:href="#DejaVuSans-52"/>
      </g>
     </g>
    </g>
    <g id="xtick_4">
     <g id="line2d_4">
      <g>
       <use style="stroke:#000000;stroke-width:0.8;" x="875.568298" xlink:href="#m39a2a16966" y="1281.6"/>
      </g>
     </g>
     <g id="text_4">
      <!-- 0.06 -->
      <defs>
       <path d="M 33.015625 40.375 
Q 26.375 40.375 22.484375 35.828125 
Q 18.609375 31.296875 18.609375 23.390625 
Q 18.609375 15.53125 22.484375 10.953125 
Q 26.375 6.390625 33.015625 6.390625 
Q 39.65625 6.390625 43.53125 10.953125 
Q 47.40625 15.53125 47.40625 23.390625 
Q 47.40625 31.296875 43.53125 35.828125 
Q 39.65625 40.375 33.015625 40.375 
z
M 52.59375 71.296875 
L 52.59375 62.3125 
Q 48.875 64.0625 45.09375 64.984375 
Q 41.3125 65.921875 37.59375 65.921875 
Q 27.828125 65.921875 22.671875 59.328125 
Q 17.53125 52.734375 16.796875 39.40625 
Q 19.671875 43.65625 24.015625 45.921875 
Q 28.375 48.1875 33.59375 48.1875 
Q 44.578125 48.1875 50.953125 41.515625 
Q 57.328125 34.859375 57.328125 23.390625 
Q 57.328125 12.15625 50.6875 5.359375 
Q 44.046875 -1.421875 33.015625 -1.421875 
Q 20.359375 -1.421875 13.671875 8.265625 
Q 6.984375 17.96875 6.984375 36.375 
Q 6.984375 53.65625 15.1875 63.9375 
Q 23.390625 74.21875 37.203125 74.21875 
Q 40.921875 74.21875 44.703125 73.484375 
Q 48.484375 72.75 52.59375 71.296875 
z
" id="DejaVuSans-54"/>
      </defs>
      <g transform="translate(864.435485 1296.198437)scale(0.1 -0.1)">
       <use xlink:href="#DejaVuSans-48"/>
       <use x="63.623047" xlink:href="#DejaVuSans-46"/>
       <use x="95.410156" xlink:href="#DejaVuSans-48"/>
       <use x="159.033203" xlink:href="#DejaVuSans-54"/>
      </g>
     </g>
    </g>
    <g id="xtick_5">
     <g id="line2d_5">
      <g>
       <use style="stroke:#000000;stroke-width:0.8;" x="1060.075634" xlink:href="#m39a2a16966" y="1281.6"/>
      </g>
     </g>
     <g id="text_5">
      <!-- 0.08 -->
      <defs>
       <path d="M 31.78125 34.625 
Q 24.75 34.625 20.71875 30.859375 
Q 16.703125 27.09375 16.703125 20.515625 
Q 16.703125 13.921875 20.71875 10.15625 
Q 24.75 6.390625 31.78125 6.390625 
Q 38.8125 6.390625 42.859375 10.171875 
Q 46.921875 13.96875 46.921875 20.515625 
Q 46.921875 27.09375 42.890625 30.859375 
Q 38.875 34.625 31.78125 34.625 
z
M 21.921875 38.8125 
Q 15.578125 40.375 12.03125 44.71875 
Q 8.5 49.078125 8.5 55.328125 
Q 8.5 64.0625 14.71875 69.140625 
Q 20.953125 74.21875 31.78125 74.21875 
Q 42.671875 74.21875 48.875 69.140625 
Q 55.078125 64.0625 55.078125 55.328125 
Q 55.078125 49.078125 51.53125 44.71875 
Q 48 40.375 41.703125 38.8125 
Q 48.828125 37.15625 52.796875 32.3125 
Q 56.78125 27.484375 56.78125 20.515625 
Q 56.78125 9.90625 50.3125 4.234375 
Q 43.84375 -1.421875 31.78125 -1.421875 
Q 19.734375 -1.421875 13.25 4.234375 
Q 6.78125 9.90625 6.78125 20.515625 
Q 6.78125 27.484375 10.78125 32.3125 
Q 14.796875 37.15625 21.921875 38.8125 
z
M 18.3125 54.390625 
Q 18.3125 48.734375 21.84375 45.5625 
Q 25.390625 42.390625 31.78125 42.390625 
Q 38.140625 42.390625 41.71875 45.5625 
Q 45.3125 48.734375 45.3125 54.390625 
Q 45.3125 60.0625 41.71875 63.234375 
Q 38.140625 66.40625 31.78125 66.40625 
Q 25.390625 66.40625 21.84375 63.234375 
Q 18.3125 60.0625 18.3125 54.390625 
z
" id="DejaVuSans-56"/>
      </defs>
      <g transform="translate(1048.942821 1296.198437)scale(0.1 -0.1)">
       <use xlink:href="#DejaVuSans-48"/>
       <use x="63.623047" xlink:href="#DejaVuSans-46"/>
       <use x="95.410156" xlink:href="#DejaVuSans-48"/>
       <use x="159.033203" xlink:href="#DejaVuSans-56"/>
      </g>
     </g>
    </g>
    <g id="xtick_6">
     <g id="line2d_6">
      <g>
       <use style="stroke:#000000;stroke-width:0.8;" x="1244.582969" xlink:href="#m39a2a16966" y="1281.6"/>
      </g>
     </g>
     <g id="text_6">
      <!-- 0.10 -->
      <defs>
       <path d="M 12.40625 8.296875 
L 28.515625 8.296875 
L 28.515625 63.921875 
L 10.984375 60.40625 
L 10.984375 69.390625 
L 28.421875 72.90625 
L 38.28125 72.90625 
L 38.28125 8.296875 
L 54.390625 8.296875 
L 54.390625 0 
L 12.40625 0 
z
" id="DejaVuSans-49"/>
      </defs>
      <g transform="translate(1233.450157 1296.198437)scale(0.1 -0.1)">
       <use xlink:href="#DejaVuSans-48"/>
       <use x="63.623047" xlink:href="#DejaVuSans-46"/>
       <use x="95.410156" xlink:href="#DejaVuSans-49"/>
       <use x="159.033203" xlink:href="#DejaVuSans-48"/>
      </g>
     </g>
    </g>
   </g>
   <g id="matplotlib.axis_2">
    <g id="ytick_1">
     <g id="line2d_7">
      <defs>
       <path d="M 0 0 
L -3.5 0 
" id="m3f2f653421" style="stroke:#000000;stroke-width:0.8;"/>
      </defs>
      <g>
       <use style="stroke:#000000;stroke-width:0.8;" x="180" xlink:href="#m3f2f653421" y="1240.236761"/>
      </g>
     </g>
     <g id="text_7">
      <!-- −0.15 -->
      <defs>
       <path d="M 10.59375 35.5 
L 73.1875 35.5 
L 73.1875 27.203125 
L 10.59375 27.203125 
z
" id="DejaVuSans-8722"/>
       <path d="M 10.796875 72.90625 
L 49.515625 72.90625 
L 49.515625 64.59375 
L 19.828125 64.59375 
L 19.828125 46.734375 
Q 21.96875 47.46875 24.109375 47.828125 
Q 26.265625 48.1875 28.421875 48.1875 
Q 40.625 48.1875 47.75 41.5 
Q 54.890625 34.8125 54.890625 23.390625 
Q 54.890625 11.625 47.5625 5.09375 
Q 40.234375 -1.421875 26.90625 -1.421875 
Q 22.3125 -1.421875 17.546875 -0.640625 
Q 12.796875 0.140625 7.71875 1.703125 
L 7.71875 11.625 
Q 12.109375 9.234375 16.796875 8.0625 
Q 21.484375 6.890625 26.703125 6.890625 
Q 35.15625 6.890625 40.078125 11.328125 
Q 45.015625 15.765625 45.015625 23.390625 
Q 45.015625 31 40.078125 35.4375 
Q 35.15625 39.890625 26.703125 39.890625 
Q 22.75 39.890625 18.8125 39.015625 
Q 14.890625 38.140625 10.796875 36.28125 
z
" id="DejaVuSans-53"/>
      </defs>
      <g transform="translate(142.354688 1244.03598)scale(0.1 -0.1)">
       <use xlink:href="#DejaVuSans-8722"/>
       <use x="83.789062" xlink:href="#DejaVuSans-48"/>
       <use x="147.412109" xlink:href="#DejaVuSans-46"/>
       <use x="179.199219" xlink:href="#DejaVuSans-49"/>
       <use x="242.822266" xlink:href="#DejaVuSans-53"/>
      </g>
     </g>
    </g>
    <g id="ytick_2">
     <g id="line2d_8">
      <g>
       <use style="stroke:#000000;stroke-width:0.8;" x="180" xlink:href="#m3f2f653421" y="1070.93011"/>
      </g>
     </g>
     <g id="text_8">
      <!-- −0.10 -->
      <g transform="translate(142.354688 1074.729329)scale(0.1 -0.1)">
       <use xlink:href="#DejaVuSans-8722"/>
       <use x="83.789062" xlink:href="#DejaVuSans-48"/>
       <use x="147.412109" xlink:href="#DejaVuSans-46"/>
       <use x="179.199219" xlink:href="#DejaVuSans-49"/>
       <use x="242.822266" xlink:href="#DejaVuSans-48"/>
      </g>
     </g>
    </g>
    <g id="ytick_3">
     <g id="line2d_9">
      <g>
       <use style="stroke:#000000;stroke-width:0.8;" x="180" xlink:href="#m3f2f653421" y="901.623459"/>
      </g>
     </g>
     <g id="text_9">
      <!-- −0.05 -->
      <g transform="translate(142.354688 905.422678)scale(0.1 -0.1)">
       <use xlink:href="#DejaVuSans-8722"/>
       <use x="83.789062" xlink:href="#DejaVuSans-48"/>
       <use x="147.412109" xlink:href="#DejaVuSans-46"/>
       <use x="179.199219" xlink:href="#DejaVuSans-48"/>
       <use x="242.822266" xlink:href="#DejaVuSans-53"/>
      </g>
     </g>
    </g>
    <g id="ytick_4">
     <g id="line2d_10">
      <g>
       <use style="stroke:#000000;stroke-width:0.8;" x="180" xlink:href="#m3f2f653421" y="732.316808"/>
      </g>
     </g>
     <g id="text_10">
      <!-- 0.00 -->
      <g transform="translate(150.734375 736.116026)scale(0.1 -0.1)">
       <use xlink:href="#DejaVuSans-48"/>
       <use x="63.623047" xlink:href="#DejaVuSans-46"/>
       <use x="95.410156" xlink:href="#DejaVuSans-48"/>
       <use x="159.033203" xlink:href="#DejaVuSans-48"/>
      </g>
     </g>
    </g>
    <g id="ytick_5">
     <g id="line2d_11">
      <g>
       <use style="stroke:#000000;stroke-width:0.8;" x="180" xlink:href="#m3f2f653421" y="563.010157"/>
      </g>
     </g>
     <g id="text_11">
      <!-- 0.05 -->
      <g transform="translate(150.734375 566.809375)scale(0.1 -0.1)">
       <use xlink:href="#DejaVuSans-48"/>
       <use x="63.623047" xlink:href="#DejaVuSans-46"/>
       <use x="95.410156" xlink:href="#DejaVuSans-48"/>
       <use x="159.033203" xlink:href="#DejaVuSans-53"/>
      </g>
     </g>
    </g>
    <g id="ytick_6">
     <g id="line2d_12">
      <g>
       <use style="stroke:#000000;stroke-width:0.8;" x="180" xlink:href="#m3f2f653421" y="393.703506"/>
      </g>
     </g>
     <g id="text_12">
      <!-- 0.10 -->
      <g transform="translate(150.734375 397.502724)scale(0.1 -0.1)">
       <use xlink:href="#DejaVuSans-48"/>
       <use x="63.623047" xlink:href="#DejaVuSans-46"/>
       <use x="95.410156" xlink:href="#DejaVuSans-49"/>
       <use x="159.033203" xlink:href="#DejaVuSans-48"/>
      </g>
     </g>
    </g>
    <g id="ytick_7">
     <g id="line2d_13">
      <g>
       <use style="stroke:#000000;stroke-width:0.8;" x="180" xlink:href="#m3f2f653421" y="224.396854"/>
      </g>
     </g>
     <g id="text_13">
      <!-- 0.15 -->
      <g transform="translate(150.734375 228.196073)scale(0.1 -0.1)">
       <use xlink:href="#DejaVuSans-48"/>
       <use x="63.623047" xlink:href="#DejaVuSans-46"/>
       <use x="95.410156" xlink:href="#DejaVuSans-49"/>
       <use x="159.033203" xlink:href="#DejaVuSans-53"/>
      </g>
     </g>
    </g>
   </g>
   <g id="line2d_14">
    <defs>
     <path d="M 0 9 
C 2.386828 9 4.676219 8.051703 6.363961 6.363961 
C 8.051703 4.676219 9 2.386828 9 0 
C 9 -2.386828 8.051703 -4.676219 6.363961 -6.363961 
C 4.676219 -8.051703 2.386828 -9 0 -9 
C -2.386828 -9 -4.676219 -8.051703 -6.363961 -6.363961 
C -8.051703 -4.676219 -9 -2.386828 -9 0 
C -9 2.386828 -8.051703 4.676219 -6.363961 6.363961 
C -4.676219 8.051703 -2.386828 9 0 9 
z
" id="m01237b53b4" style="stroke:#000000;"/>
    </defs>
    <g clip-path="url(#pab17845446)">
     <use style="fill:#9e0142;stroke:#000000;" x="1229.159672" xlink:href="#m01237b53b4" y="912.449411"/>
    </g>
   </g>
   <g id="line2d_15">
    <g clip-path="url(#pab17845446)">
     <use style="fill:#9e0142;stroke:#000000;" x="1140.259086" xlink:href="#m01237b53b4" y="529.958521"/>
    </g>
   </g>
   <g id="line2d_16">
    <g clip-path="url(#pab17845446)">
     <use style="fill:#9e0142;stroke:#000000;" x="1072.724053" xlink:href="#m01237b53b4" y="232.542053"/>
    </g>
   </g>
   <g id="line2d_17">
    <defs>
     <path d="M 0 3 
C 0.795609 3 1.55874 2.683901 2.12132 2.12132 
C 2.683901 1.55874 3 0.795609 3 0 
C 3 -0.795609 2.683901 -1.55874 2.12132 -2.12132 
C 1.55874 -2.683901 0.795609 -3 0 -3 
C -0.795609 -3 -1.55874 -2.683901 -2.12132 -2.12132 
C -2.683901 -1.55874 -3 -0.795609 -3 0 
C -3 0.795609 -2.683901 1.55874 -2.12132 2.12132 
C -1.55874 2.683901 -0.795609 3 0 3 
z
" id="mcb19fee7f9" style="stroke:#000000;"/>
    </defs>
    <g clip-path="url(#pab17845446)">
     <use style="stroke:#000000;" x="268.942131" xlink:href="#mcb19fee7f9" y="886.191817"/>
    </g>
   </g>
   <g id="line2d_18">
    <g clip-path="url(#pab17845446)">
     <use style="fill:#9e0142;stroke:#000000;" x="1244.887026" xlink:href="#m01237b53b4" y="912.914522"/>
    </g>
   </g>
   <g id="line2d_19">
    <g clip-path="url(#pab17845446)">
     <use style="fill:#9e0142;stroke:#000000;" x="1228.504417" xlink:href="#m01237b53b4" y="911.451383"/>
    </g>
   </g>
   <g id="line2d_20">
    <g clip-path="url(#pab17845446)">
     <use style="fill:#9e0142;stroke:#000000;" x="1238.718117" xlink:href="#m01237b53b4" y="912.374306"/>
    </g>
   </g>
   <g id="line2d_21">
    <g clip-path="url(#pab17845446)">
     <use style="fill:#9e0142;stroke:#000000;" x="1236.232956" xlink:href="#m01237b53b4" y="911.324034"/>
    </g>
   </g>
   <g id="line2d_22">
    <defs>
     <path d="M 0 9 
C 2.386828 9 4.676219 8.051703 6.363961 6.363961 
C 8.051703 4.676219 9 2.386828 9 0 
C 9 -2.386828 8.051703 -4.676219 6.363961 -6.363961 
C 4.676219 -8.051703 2.386828 -9 0 -9 
C -2.386828 -9 -4.676219 -8.051703 -6.363961 -6.363961 
C -8.051703 -4.676219 -9 -2.386828 -9 0 
C -9 2.386828 -8.051703 4.676219 -6.363961 6.363961 
C -4.676219 8.051703 -2.386828 9 0 9 
z
" id="m6f95d4e635" style="stroke:#000000;"/>
    </defs>
    <g clip-path="url(#pab17845446)">
     <use style="fill:#ffffbe;stroke:#000000;" x="740.63663" xlink:href="#m6f95d4e635" y="1220.283906"/>
    </g>
   </g>
   <g id="line2d_23">
    <g clip-path="url(#pab17845446)">
     <use style="fill:#9e0142;stroke:#000000;" x="1236.726118" xlink:href="#m01237b53b4" y="912.792555"/>
    </g>
   </g>
   <g id="line2d_24">
    <g clip-path="url(#pab17845446)">
     <use style="fill:#9e0142;stroke:#000000;" x="1065.967266" xlink:href="#m01237b53b4" y="226.009912"/>
    </g>
   </g>
   <g id="line2d_25">
    <g clip-path="url(#pab17845446)">
     <use style="fill:#9e0142;stroke:#000000;" x="1070.659372" xlink:href="#m01237b53b4" y="231.029763"/>
    </g>
   </g>
   <g id="line2d_26">
    <g clip-path="url(#pab17845446)">
     <use style="fill:#9e0142;stroke:#000000;" x="1227.652242" xlink:href="#m01237b53b4" y="911.953105"/>
    </g>
   </g>
   <g id="line2d_27">
    <g clip-path="url(#pab17845446)">
     <use style="fill:#9e0142;stroke:#000000;" x="1238.003741" xlink:href="#m01237b53b4" y="911.672614"/>
    </g>
   </g>
   <g id="line2d_28">
    <g clip-path="url(#pab17845446)">
     <use style="stroke:#000000;" x="675.843276" xlink:href="#mcb19fee7f9" y="631.978004"/>
    </g>
   </g>
   <g id="line2d_29">
    <g clip-path="url(#pab17845446)">
     <use style="fill:#9e0142;stroke:#000000;" x="1134.952837" xlink:href="#m01237b53b4" y="529.470584"/>
    </g>
   </g>
   <g id="line2d_30">
    <g clip-path="url(#pab17845446)">
     <use style="fill:#9e0142;stroke:#000000;" x="1237.126678" xlink:href="#m01237b53b4" y="910.806323"/>
    </g>
   </g>
   <g id="line2d_31">
    <g clip-path="url(#pab17845446)">
     <use style="fill:#9e0142;stroke:#000000;" x="1075.31071" xlink:href="#m01237b53b4" y="229.571126"/>
    </g>
   </g>
   <g id="line2d_32">
    <g clip-path="url(#pab17845446)">
     <use style="fill:#9e0142;stroke:#000000;" x="1229.782588" xlink:href="#m01237b53b4" y="911.385488"/>
    </g>
   </g>
   <g id="line2d_33">
    <g clip-path="url(#pab17845446)">
     <use style="fill:#9e0142;stroke:#000000;" x="1075.736883" xlink:href="#m01237b53b4" y="228.414414"/>
    </g>
   </g>
   <g id="line2d_34">
    <g clip-path="url(#pab17845446)">
     <use style="fill:#9e0142;stroke:#000000;" x="1068.648472" xlink:href="#m01237b53b4" y="378.420323"/>
    </g>
   </g>
   <g id="line2d_35">
    <g clip-path="url(#pab17845446)">
     <use style="stroke:#000000;" x="683.510677" xlink:href="#mcb19fee7f9" y="471.782023"/>
    </g>
   </g>
   <g id="line2d_36">
    <g clip-path="url(#pab17845446)">
     <use style="fill:#9e0142;stroke:#000000;" x="1064.732062" xlink:href="#m01237b53b4" y="223.634231"/>
    </g>
   </g>
   <g id="line2d_37">
    <g clip-path="url(#pab17845446)">
     <use style="fill:#9e0142;stroke:#000000;" x="1241.710311" xlink:href="#m01237b53b4" y="910.31797"/>
    </g>
   </g>
   <g id="line2d_38">
    <g clip-path="url(#pab17845446)">
     <use style="fill:#9e0142;stroke:#000000;" x="1244.99958" xlink:href="#m01237b53b4" y="913.559505"/>
    </g>
   </g>
   <g id="line2d_39">
    <g clip-path="url(#pab17845446)">
     <use style="fill:#9e0142;stroke:#000000;" x="1236.934156" xlink:href="#m01237b53b4" y="911.130063"/>
    </g>
   </g>
   <g id="line2d_40">
    <g clip-path="url(#pab17845446)">
     <use style="fill:#9e0142;stroke:#000000;" x="1072.159032" xlink:href="#m01237b53b4" y="223.355188"/>
    </g>
   </g>
   <g id="line2d_41">
    <g clip-path="url(#pab17845446)">
     <use style="fill:#9e0142;stroke:#000000;" x="1237.159694" xlink:href="#m01237b53b4" y="911.160289"/>
    </g>
   </g>
   <g id="line2d_42">
    <g clip-path="url(#pab17845446)">
     <use style="stroke:#000000;" x="1010.686161" xlink:href="#mcb19fee7f9" y="1089.908382"/>
    </g>
   </g>
   <g id="line2d_43">
    <g clip-path="url(#pab17845446)">
     <use style="fill:#9e0142;stroke:#000000;" x="1075.7605" xlink:href="#m01237b53b4" y="230.729188"/>
    </g>
   </g>
   <g id="line2d_44">
    <g clip-path="url(#pab17845446)">
     <use style="fill:#ffffbe;stroke:#000000;" x="741.595105" xlink:href="#m6f95d4e635" y="1216.252781"/>
    </g>
   </g>
   <g id="line2d_45">
    <g clip-path="url(#pab17845446)">
     <use style="fill:#9e0142;stroke:#000000;" x="1240.52595" xlink:href="#m01237b53b4" y="910.086193"/>
    </g>
   </g>
   <g id="line2d_46">
    <g clip-path="url(#pab17845446)">
     <use style="fill:#ffffbe;stroke:#000000;" x="743.219931" xlink:href="#m6f95d4e635" y="1227.748619"/>
    </g>
   </g>
   <g id="line2d_47">
    <g clip-path="url(#pab17845446)">
     <use style="fill:#9e0142;stroke:#000000;" x="1233.29531" xlink:href="#m01237b53b4" y="910.085581"/>
    </g>
   </g>
   <g id="line2d_48">
    <g clip-path="url(#pab17845446)">
     <use style="stroke:#000000;" x="1073.235621" xlink:href="#mcb19fee7f9" y="1053.35023"/>
    </g>
   </g>
   <g id="line2d_49">
    <g clip-path="url(#pab17845446)">
     <use style="fill:#9e0142;stroke:#000000;" x="1235.150497" xlink:href="#m01237b53b4" y="911.327812"/>
    </g>
   </g>
   <g id="line2d_50">
    <g clip-path="url(#pab17845446)">
     <use style="fill:#9e0142;stroke:#000000;" x="1064.243677" xlink:href="#m01237b53b4" y="229.891156"/>
    </g>
   </g>
   <g id="line2d_51">
    <g clip-path="url(#pab17845446)">
     <use style="fill:#9e0142;stroke:#000000;" x="1244.70458" xlink:href="#m01237b53b4" y="910.445219"/>
    </g>
   </g>
   <g id="line2d_52">
    <g clip-path="url(#pab17845446)">
     <use style="fill:#9e0142;stroke:#000000;" x="1243.911819" xlink:href="#m01237b53b4" y="912.179748"/>
    </g>
   </g>
   <g id="line2d_53">
    <g clip-path="url(#pab17845446)">
     <use style="fill:#9e0142;stroke:#000000;" x="1233.802956" xlink:href="#m01237b53b4" y="911.800159"/>
    </g>
   </g>
   <g id="line2d_54">
    <g clip-path="url(#pab17845446)">
     <use style="fill:#9e0142;stroke:#000000;" x="1067.556846" xlink:href="#m01237b53b4" y="228.338035"/>
    </g>
   </g>
   <g id="line2d_55">
    <g clip-path="url(#pab17845446)">
     <use style="fill:#9e0142;stroke:#000000;" x="1238.954334" xlink:href="#m01237b53b4" y="912.387126"/>
    </g>
   </g>
   <g id="line2d_56">
    <g clip-path="url(#pab17845446)">
     <use style="stroke:#000000;" x="960.018841" xlink:href="#mcb19fee7f9" y="505.557104"/>
    </g>
   </g>
   <g id="line2d_57">
    <g clip-path="url(#pab17845446)">
     <use style="fill:#9e0142;stroke:#000000;" x="1125.907288" xlink:href="#m01237b53b4" y="530.119011"/>
    </g>
   </g>
   <g id="line2d_58">
    <g clip-path="url(#pab17845446)">
     <use style="fill:#9e0142;stroke:#000000;" x="1125.414094" xlink:href="#m01237b53b4" y="529.996822"/>
    </g>
   </g>
   <g id="line2d_59">
    <g clip-path="url(#pab17845446)">
     <use style="fill:#9e0142;stroke:#000000;" x="1241.538005" xlink:href="#m01237b53b4" y="912.80285"/>
    </g>
   </g>
   <g id="line2d_60">
    <g clip-path="url(#pab17845446)">
     <use style="stroke:#000000;" x="230.727273" xlink:href="#mcb19fee7f9" y="680.150913"/>
    </g>
   </g>
   <g id="line2d_61">
    <g clip-path="url(#pab17845446)">
     <use style="fill:#9e0142;stroke:#000000;" x="1240.484577" xlink:href="#m01237b53b4" y="913.06766"/>
    </g>
   </g>
   <g id="line2d_62">
    <g clip-path="url(#pab17845446)">
     <use style="fill:#9e0142;stroke:#000000;" x="1228.619943" xlink:href="#m01237b53b4" y="912.489583"/>
    </g>
   </g>
   <g id="line2d_63">
    <g clip-path="url(#pab17845446)">
     <use style="stroke:#000000;" x="477.736218" xlink:href="#mcb19fee7f9" y="413.010601"/>
    </g>
   </g>
   <g id="line2d_64">
    <g clip-path="url(#pab17845446)">
     <use style="stroke:#000000;" x="886.49351" xlink:href="#mcb19fee7f9" y="732.751207"/>
    </g>
   </g>
   <g id="line2d_65">
    <g clip-path="url(#pab17845446)">
     <use style="fill:#9e0142;stroke:#000000;" x="1235.231644" xlink:href="#m01237b53b4" y="911.969093"/>
    </g>
   </g>
   <g id="line2d_66">
    <g clip-path="url(#pab17845446)">
     <use style="fill:#9e0142;stroke:#000000;" x="1237.57854" xlink:href="#m01237b53b4" y="911.285534"/>
    </g>
   </g>
   <g id="line2d_67">
    <g clip-path="url(#pab17845446)">
     <use style="fill:#9e0142;stroke:#000000;" x="1069.444699" xlink:href="#m01237b53b4" y="231.294418"/>
    </g>
   </g>
   <g id="line2d_68">
    <g clip-path="url(#pab17845446)">
     <use style="fill:#9e0142;stroke:#000000;" x="1129.792101" xlink:href="#m01237b53b4" y="529.233521"/>
    </g>
   </g>
   <g id="line2d_69">
    <g clip-path="url(#pab17845446)">
     <use style="fill:#9e0142;stroke:#000000;" x="1238.209492" xlink:href="#m01237b53b4" y="913.040984"/>
    </g>
   </g>
   <g id="line2d_70">
    <g clip-path="url(#pab17845446)">
     <use style="fill:#9e0142;stroke:#000000;" x="1243.649991" xlink:href="#m01237b53b4" y="911.216734"/>
    </g>
   </g>
   <g id="line2d_71">
    <g clip-path="url(#pab17845446)">
     <use style="fill:#9e0142;stroke:#000000;" x="1077.952948" xlink:href="#m01237b53b4" y="228.194775"/>
    </g>
   </g>
   <g id="line2d_72">
    <g clip-path="url(#pab17845446)">
     <use style="fill:#9e0142;stroke:#000000;" x="1231.422715" xlink:href="#m01237b53b4" y="913.24767"/>
    </g>
   </g>
   <g id="line2d_73">
    <g clip-path="url(#pab17845446)">
     <use style="fill:#9e0142;stroke:#000000;" x="1243.923486" xlink:href="#m01237b53b4" y="912.534004"/>
    </g>
   </g>
   <g id="line2d_74">
    <g clip-path="url(#pab17845446)">
     <use style="fill:#9e0142;stroke:#000000;" x="1239.951156" xlink:href="#m01237b53b4" y="913.318656"/>
    </g>
   </g>
   <g id="line2d_75">
    <g clip-path="url(#pab17845446)">
     <use style="fill:#9e0142;stroke:#000000;" x="1240.224559" xlink:href="#m01237b53b4" y="912.406528"/>
    </g>
   </g>
   <g id="line2d_76">
    <g clip-path="url(#pab17845446)">
     <use style="fill:#9e0142;stroke:#000000;" x="1245.272727" xlink:href="#m01237b53b4" y="913.338599"/>
    </g>
   </g>
   <g id="line2d_77">
    <g clip-path="url(#pab17845446)">
     <use style="fill:#9e0142;stroke:#000000;" x="1137.230603" xlink:href="#m01237b53b4" y="528.177192"/>
    </g>
   </g>
   <g id="line2d_78">
    <g clip-path="url(#pab17845446)">
     <use style="fill:#9e0142;stroke:#000000;" x="1233.601401" xlink:href="#m01237b53b4" y="911.871953"/>
    </g>
   </g>
   <g id="line2d_79">
    <g clip-path="url(#pab17845446)">
     <use style="fill:#9e0142;stroke:#000000;" x="1132.442359" xlink:href="#m01237b53b4" y="527.918806"/>
    </g>
   </g>
   <g id="line2d_80">
    <g clip-path="url(#pab17845446)">
     <use style="fill:#9e0142;stroke:#000000;" x="1137.351045" xlink:href="#m01237b53b4" y="530.262458"/>
    </g>
   </g>
   <g id="line2d_81">
    <g clip-path="url(#pab17845446)">
     <use style="fill:#9e0142;stroke:#000000;" x="1234.56101" xlink:href="#m01237b53b4" y="913.007116"/>
    </g>
   </g>
   <g id="line2d_82">
    <g clip-path="url(#pab17845446)">
     <use style="fill:#9e0142;stroke:#000000;" x="1239.300289" xlink:href="#m01237b53b4" y="911.351378"/>
    </g>
   </g>
   <g id="line2d_83">
    <g clip-path="url(#pab17845446)">
     <use style="fill:#9e0142;stroke:#000000;" x="1234.917727" xlink:href="#m01237b53b4" y="911.496532"/>
    </g>
   </g>
   <g id="line2d_84">
    <g clip-path="url(#pab17845446)">
     <use style="fill:#9e0142;stroke:#000000;" x="1236.711553" xlink:href="#m01237b53b4" y="911.337554"/>
    </g>
   </g>
   <g id="line2d_85">
    <g clip-path="url(#pab17845446)">
     <use style="fill:#9e0142;stroke:#000000;" x="1237.197191" xlink:href="#m01237b53b4" y="910.040731"/>
    </g>
   </g>
   <g id="line2d_86">
    <g clip-path="url(#pab17845446)">
     <use style="fill:#9e0142;stroke:#000000;" x="1077.177044" xlink:href="#m01237b53b4" y="223.2"/>
    </g>
   </g>
   <g id="line2d_87">
    <g clip-path="url(#pab17845446)">
     <use style="fill:#9e0142;stroke:#000000;" x="1237.933337" xlink:href="#m01237b53b4" y="911.050963"/>
    </g>
   </g>
   <g id="line2d_88">
    <g clip-path="url(#pab17845446)">
     <use style="fill:#9e0142;stroke:#000000;" x="1075.720467" xlink:href="#m01237b53b4" y="230.807226"/>
    </g>
   </g>
   <g id="line2d_89">
    <g clip-path="url(#pab17845446)">
     <use style="fill:#9e0142;stroke:#000000;" x="1131.489151" xlink:href="#m01237b53b4" y="527.428111"/>
    </g>
   </g>
   <g id="line2d_90">
    <g clip-path="url(#pab17845446)">
     <use style="fill:#9e0142;stroke:#000000;" x="1234.021536" xlink:href="#m01237b53b4" y="913.114277"/>
    </g>
   </g>
   <g id="line2d_91">
    <g clip-path="url(#pab17845446)">
     <use style="fill:#9e0142;stroke:#000000;" x="1243.570956" xlink:href="#m01237b53b4" y="913.476685"/>
    </g>
   </g>
   <g id="line2d_92">
    <g clip-path="url(#pab17845446)">
     <use style="fill:#9e0142;stroke:#000000;" x="1066.597841" xlink:href="#m01237b53b4" y="230.180877"/>
    </g>
   </g>
   <g id="line2d_93">
    <g clip-path="url(#pab17845446)">
     <use style="fill:#ffffbe;stroke:#000000;" x="747.494368" xlink:href="#m6f95d4e635" y="1227.497785"/>
    </g>
   </g>
   <g id="line2d_94">
    <g clip-path="url(#pab17845446)">
     <use style="fill:#9e0142;stroke:#000000;" x="1242.074416" xlink:href="#m01237b53b4" y="910.773912"/>
    </g>
   </g>
   <g id="line2d_95">
    <g clip-path="url(#pab17845446)">
     <use style="fill:#9e0142;stroke:#000000;" x="1066.633132" xlink:href="#m01237b53b4" y="231.706487"/>
    </g>
   </g>
   <g id="line2d_96">
    <g clip-path="url(#pab17845446)">
     <use style="fill:#ffffbe;stroke:#000000;" x="745.030575" xlink:href="#m6f95d4e635" y="1231.2"/>
    </g>
   </g>
   <g id="line2d_97">
    <g clip-path="url(#pab17845446)">
     <use style="fill:#9e0142;stroke:#000000;" x="1239.145082" xlink:href="#m01237b53b4" y="913.131279"/>
    </g>
   </g>
   <g id="line2d_98">
    <g clip-path="url(#pab17845446)">
     <use style="fill:#9e0142;stroke:#000000;" x="1076.406518" xlink:href="#m01237b53b4" y="228.607283"/>
    </g>
   </g>
   <g id="line2d_99">
    <g clip-path="url(#pab17845446)">
     <use style="fill:#9e0142;stroke:#000000;" x="1076.422073" xlink:href="#m01237b53b4" y="224.050852"/>
    </g>
   </g>
   <g id="line2d_100">
    <g clip-path="url(#pab17845446)">
     <use style="fill:#9e0142;stroke:#000000;" x="1241.473398" xlink:href="#m01237b53b4" y="913.013651"/>
    </g>
   </g>
   <g id="line2d_101">
    <g clip-path="url(#pab17845446)">
     <use style="fill:#9e0142;stroke:#000000;" x="1232.071039" xlink:href="#m01237b53b4" y="911.41995"/>
    </g>
   </g>
   <g id="line2d_102">
    <g clip-path="url(#pab17845446)">
     <use style="fill:#9e0142;stroke:#000000;" x="1231.505855" xlink:href="#m01237b53b4" y="910.310655"/>
    </g>
   </g>
   <g id="line2d_103">
    <g clip-path="url(#pab17845446)">
     <use style="fill:#9e0142;stroke:#000000;" x="1232.790152" xlink:href="#m01237b53b4" y="912.08412"/>
    </g>
   </g>
   <g id="line2d_104">
    <g clip-path="url(#pab17845446)">
     <use style="stroke:#000000;" x="1118.476378" xlink:href="#mcb19fee7f9" y="921.461508"/>
    </g>
   </g>
   <g id="line2d_105">
    <g clip-path="url(#pab17845446)">
     <use style="fill:#ffffbe;stroke:#000000;" x="750.828662" xlink:href="#m6f95d4e635" y="1226.534463"/>
    </g>
   </g>
   <g id="line2d_106">
    <g clip-path="url(#pab17845446)">
     <use style="fill:#9e0142;stroke:#000000;" x="1077.303566" xlink:href="#m01237b53b4" y="226.762873"/>
    </g>
   </g>
   <g id="line2d_107">
    <g clip-path="url(#pab17845446)">
     <use style="fill:#9e0142;stroke:#000000;" x="1230.454484" xlink:href="#m01237b53b4" y="912.409382"/>
    </g>
   </g>
   <g id="line2d_108">
    <g clip-path="url(#pab17845446)">
     <use style="stroke:#000000;" x="1058.672338" xlink:href="#mcb19fee7f9" y="929.032406"/>
    </g>
   </g>
   <g id="line2d_109">
    <g clip-path="url(#pab17845446)">
     <use style="fill:#9e0142;stroke:#000000;" x="1073.303843" xlink:href="#m01237b53b4" y="224.789541"/>
    </g>
   </g>
   <g id="line2d_110">
    <g clip-path="url(#pab17845446)">
     <use style="fill:#9e0142;stroke:#000000;" x="1128.567171" xlink:href="#m01237b53b4" y="527.505652"/>
    </g>
   </g>
   <g id="line2d_111">
    <g clip-path="url(#pab17845446)">
     <use style="fill:#9e0142;stroke:#000000;" x="1067.157895" xlink:href="#m01237b53b4" y="231.995119"/>
    </g>
   </g>
   <g id="line2d_112">
    <g clip-path="url(#pab17845446)">
     <use style="stroke:#000000;" x="809.28891" xlink:href="#mcb19fee7f9" y="496.001125"/>
    </g>
   </g>
   <g id="line2d_113">
    <g clip-path="url(#pab17845446)">
     <use style="fill:#9e0142;stroke:#000000;" x="1242.578285" xlink:href="#m01237b53b4" y="912.634641"/>
    </g>
   </g>
   <g id="line2d_114">
    <g clip-path="url(#pab17845446)">
     <use style="stroke:#000000;" x="234.683144" xlink:href="#mcb19fee7f9" y="670.230507"/>
    </g>
   </g>
   <g id="line2d_115">
    <g clip-path="url(#pab17845446)">
     <use style="fill:#9e0142;stroke:#000000;" x="1242.179911" xlink:href="#m01237b53b4" y="913.07011"/>
    </g>
   </g>
   <g id="line2d_116">
    <g clip-path="url(#pab17845446)">
     <use style="fill:#9e0142;stroke:#000000;" x="1239.817938" xlink:href="#m01237b53b4" y="910.683965"/>
    </g>
   </g>
   <g id="line2d_117">
    <g clip-path="url(#pab17845446)">
     <use style="fill:#9e0142;stroke:#000000;" x="1244.03838" xlink:href="#m01237b53b4" y="911.175741"/>
    </g>
   </g>
   <g id="line2d_118">
    <g clip-path="url(#pab17845446)">
     <use style="fill:#9e0142;stroke:#000000;" x="1242.780791" xlink:href="#m01237b53b4" y="911.445206"/>
    </g>
   </g>
   <g id="line2d_119">
    <g clip-path="url(#pab17845446)">
     <use style="fill:#9e0142;stroke:#000000;" x="1244.137046" xlink:href="#m01237b53b4" y="913.601073"/>
    </g>
   </g>
   <g id="line2d_120">
    <g clip-path="url(#pab17845446)">
     <use style="fill:#9e0142;stroke:#000000;" x="1228.861902" xlink:href="#m01237b53b4" y="913.400679"/>
    </g>
   </g>
   <g id="line2d_121">
    <g clip-path="url(#pab17845446)">
     <use style="fill:#9e0142;stroke:#000000;" x="1227.391511" xlink:href="#m01237b53b4" y="913.285275"/>
    </g>
   </g>
   <g id="line2d_122">
    <g clip-path="url(#pab17845446)">
     <use style="stroke:#000000;" x="961.234811" xlink:href="#mcb19fee7f9" y="356.631419"/>
    </g>
   </g>
   <g id="line2d_123">
    <g clip-path="url(#pab17845446)">
     <use style="fill:#9e0142;stroke:#000000;" x="1127.953081" xlink:href="#m01237b53b4" y="530.628823"/>
    </g>
   </g>
   <g id="line2d_124">
    <g clip-path="url(#pab17845446)">
     <use style="fill:#9e0142;stroke:#000000;" x="1243.015235" xlink:href="#m01237b53b4" y="912.823571"/>
    </g>
   </g>
   <g id="line2d_125">
    <g clip-path="url(#pab17845446)">
     <use style="fill:#9e0142;stroke:#000000;" x="1127.938761" xlink:href="#m01237b53b4" y="526.915287"/>
    </g>
   </g>
   <g id="line2d_126">
    <g clip-path="url(#pab17845446)">
     <use style="fill:#9e0142;stroke:#000000;" x="1131.55448" xlink:href="#m01237b53b4" y="530.179981"/>
    </g>
   </g>
   <g id="line2d_127">
    <g clip-path="url(#pab17845446)">
     <use style="fill:#9e0142;stroke:#000000;" x="1241.321446" xlink:href="#m01237b53b4" y="910.796683"/>
    </g>
   </g>
   <g id="line2d_128">
    <g clip-path="url(#pab17845446)">
     <use style="fill:#9e0142;stroke:#000000;" x="1130.25351" xlink:href="#m01237b53b4" y="529.544399"/>
    </g>
   </g>
   <g id="line2d_129">
    <g clip-path="url(#pab17845446)">
     <use style="fill:#9e0142;stroke:#000000;" x="1229.155512" xlink:href="#m01237b53b4" y="911.495381"/>
    </g>
   </g>
   <g id="line2d_130">
    <g clip-path="url(#pab17845446)">
     <use style="fill:#9e0142;stroke:#000000;" x="1245.105085" xlink:href="#m01237b53b4" y="912.927515"/>
    </g>
   </g>
   <g id="line2d_131">
    <g clip-path="url(#pab17845446)">
     <use style="fill:#9e0142;stroke:#000000;" x="1072.3139" xlink:href="#m01237b53b4" y="223.578376"/>
    </g>
   </g>
   <g id="line2d_132">
    <g clip-path="url(#pab17845446)">
     <use style="fill:#9e0142;stroke:#000000;" x="1241.461466" xlink:href="#m01237b53b4" y="912.674842"/>
    </g>
   </g>
   <g id="line2d_133">
    <g clip-path="url(#pab17845446)">
     <use style="fill:#9e0142;stroke:#000000;" x="1232.11607" xlink:href="#m01237b53b4" y="910.365576"/>
    </g>
   </g>
   <g id="line2d_134">
    <g clip-path="url(#pab17845446)">
     <use style="fill:#9e0142;stroke:#000000;" x="1242.704326" xlink:href="#m01237b53b4" y="911.501294"/>
    </g>
   </g>
   <g id="line2d_135">
    <g clip-path="url(#pab17845446)">
     <use style="fill:#9e0142;stroke:#000000;" x="1229.093612" xlink:href="#m01237b53b4" y="912.408459"/>
    </g>
   </g>
   <g id="line2d_136">
    <g clip-path="url(#pab17845446)">
     <use style="fill:#9e0142;stroke:#000000;" x="1071.684269" xlink:href="#m01237b53b4" y="230.404559"/>
    </g>
   </g>
   <g id="line2d_137">
    <g clip-path="url(#pab17845446)">
     <use style="stroke:#000000;" x="1067.8409" xlink:href="#mcb19fee7f9" y="724.476089"/>
    </g>
   </g>
   <g id="line2d_138">
    <g clip-path="url(#pab17845446)">
     <use style="stroke:#000000;" x="1093.640595" xlink:href="#mcb19fee7f9" y="513.562955"/>
    </g>
   </g>
   <g id="line2d_139">
    <g clip-path="url(#pab17845446)">
     <use style="fill:#9e0142;stroke:#000000;" x="1235.000318" xlink:href="#m01237b53b4" y="912.241961"/>
    </g>
   </g>
   <g id="line2d_140">
    <g clip-path="url(#pab17845446)">
     <use style="fill:#9e0142;stroke:#000000;" x="1065.517962" xlink:href="#m01237b53b4" y="224.596607"/>
    </g>
   </g>
   <g id="line2d_141">
    <g clip-path="url(#pab17845446)">
     <use style="fill:#9e0142;stroke:#000000;" x="1066.155678" xlink:href="#m01237b53b4" y="230.936984"/>
    </g>
   </g>
   <g id="patch_3">
    <path d="M 180 1281.6 
L 180 172.8 
" style="fill:none;stroke:#000000;stroke-linecap:square;stroke-linejoin:miter;stroke-width:0.8;"/>
   </g>
   <g id="patch_4">
    <path d="M 1296 1281.6 
L 1296 172.8 
" style="fill:none;stroke:#000000;stroke-linecap:square;stroke-linejoin:miter;stroke-width:0.8;"/>
   </g>
   <g id="patch_5">
    <path d="M 180 1281.6 
L 1296 1281.6 
" style="fill:none;stroke:#000000;stroke-linecap:square;stroke-linejoin:miter;stroke-width:0.8;"/>
   </g>
   <g id="patch_6">
    <path d="M 180 172.8 
L 1296 172.8 
" style="fill:none;stroke:#000000;stroke-linecap:square;stroke-linejoin:miter;stroke-width:0.8;"/>
   </g>
  </g>
 </g>
 <defs>
  <clipPath id="pab17845446">
   <rect height="1108.8" width="1116" x="180" y="172.8"/>
  </clipPath>
 </defs>
</svg>
