<?xml version="1.0" encoding="utf-8" standalone="no"?>
<!DOCTYPE svg PUBLIC "-//W3C//DTD SVG 1.1//EN"
  "http://www.w3.org/Graphics/SVG/1.1/DTD/svg11.dtd">
<!-- Created with matplotlib (https://matplotlib.org/) -->
<svg height="1440pt" version="1.1" viewBox="0 0 1440 1440" width="1440pt" xmlns="http://www.w3.org/2000/svg" xmlns:xlink="http://www.w3.org/1999/xlink">
 <defs>
  <style type="text/css">
*{stroke-linecap:butt;stroke-linejoin:round;}
  </style>
 </defs>
 <g id="figure_1">
  <g id="patch_1">
   <path d="M 0 1440 
L 1440 1440 
L 1440 0 
L 0 0 
z
" style="fill:#ffffff;"/>
  </g>
  <g id="axes_1">
   <g id="patch_2">
    <path d="M 180 1281.6 
L 1296 1281.6 
L 1296 172.8 
L 180 172.8 
z
" style="fill:#ffffff;"/>
   </g>
   <g id="matplotlib.axis_1">
    <g id="xtick_1">
     <g id="line2d_1">
      <defs>
       <path d="M 0 0 
L 0 3.5 
" id="maf40d33bdd" style="stroke:#000000;stroke-width:0.8;"/>
      </defs>
      <g>
       <use style="stroke:#000000;stroke-width:0.8;" x="261.615755" xlink:href="#maf40d33bdd" y="1281.6"/>
      </g>
     </g>
     <g id="text_1">
      <!-- −0.10 -->
      <defs>
       <path d="M 10.59375 35.5 
L 73.1875 35.5 
L 73.1875 27.203125 
L 10.59375 27.203125 
z
" id="DejaVuSans-8722"/>
       <path d="M 31.78125 66.40625 
Q 24.171875 66.40625 20.328125 58.90625 
Q 16.5 51.421875 16.5 36.375 
Q 16.5 21.390625 20.328125 13.890625 
Q 24.171875 6.390625 31.78125 6.390625 
Q 39.453125 6.390625 43.28125 13.890625 
Q 47.125 21.390625 47.125 36.375 
Q 47.125 51.421875 43.28125 58.90625 
Q 39.453125 66.40625 31.78125 66.40625 
z
M 31.78125 74.21875 
Q 44.046875 74.21875 50.515625 64.515625 
Q 56.984375 54.828125 56.984375 36.375 
Q 56.984375 17.96875 50.515625 8.265625 
Q 44.046875 -1.421875 31.78125 -1.421875 
Q 19.53125 -1.421875 13.0625 8.265625 
Q 6.59375 17.96875 6.59375 36.375 
Q 6.59375 54.828125 13.0625 64.515625 
Q 19.53125 74.21875 31.78125 74.21875 
z
" id="DejaVuSans-48"/>
       <path d="M 10.6875 12.40625 
L 21 12.40625 
L 21 0 
L 10.6875 0 
z
" id="DejaVuSans-46"/>
       <path d="M 12.40625 8.296875 
L 28.515625 8.296875 
L 28.515625 63.921875 
L 10.984375 60.40625 
L 10.984375 69.390625 
L 28.421875 72.90625 
L 38.28125 72.90625 
L 38.28125 8.296875 
L 54.390625 8.296875 
L 54.390625 0 
L 12.40625 0 
z
" id="DejaVuSans-49"/>
      </defs>
      <g transform="translate(246.293098 1296.198437)scale(0.1 -0.1)">
       <use xlink:href="#DejaVuSans-8722"/>
       <use x="83.789062" xlink:href="#DejaVuSans-48"/>
       <use x="147.412109" xlink:href="#DejaVuSans-46"/>
       <use x="179.199219" xlink:href="#DejaVuSans-49"/>
       <use x="242.822266" xlink:href="#DejaVuSans-48"/>
      </g>
     </g>
    </g>
    <g id="xtick_2">
     <g id="line2d_2">
      <g>
       <use style="stroke:#000000;stroke-width:0.8;" x="450.473356" xlink:href="#maf40d33bdd" y="1281.6"/>
      </g>
     </g>
     <g id="text_2">
      <!-- −0.05 -->
      <defs>
       <path d="M 10.796875 72.90625 
L 49.515625 72.90625 
L 49.515625 64.59375 
L 19.828125 64.59375 
L 19.828125 46.734375 
Q 21.96875 47.46875 24.109375 47.828125 
Q 26.265625 48.1875 28.421875 48.1875 
Q 40.625 48.1875 47.75 41.5 
Q 54.890625 34.8125 54.890625 23.390625 
Q 54.890625 11.625 47.5625 5.09375 
Q 40.234375 -1.421875 26.90625 -1.421875 
Q 22.3125 -1.421875 17.546875 -0.640625 
Q 12.796875 0.140625 7.71875 1.703125 
L 7.71875 11.625 
Q 12.109375 9.234375 16.796875 8.0625 
Q 21.484375 6.890625 26.703125 6.890625 
Q 35.15625 6.890625 40.078125 11.328125 
Q 45.015625 15.765625 45.015625 23.390625 
Q 45.015625 31 40.078125 35.4375 
Q 35.15625 39.890625 26.703125 39.890625 
Q 22.75 39.890625 18.8125 39.015625 
Q 14.890625 38.140625 10.796875 36.28125 
z
" id="DejaVuSans-53"/>
      </defs>
      <g transform="translate(435.1507 1296.198437)scale(0.1 -0.1)">
       <use xlink:href="#DejaVuSans-8722"/>
       <use x="83.789062" xlink:href="#DejaVuSans-48"/>
       <use x="147.412109" xlink:href="#DejaVuSans-46"/>
       <use x="179.199219" xlink:href="#DejaVuSans-48"/>
       <use x="242.822266" xlink:href="#DejaVuSans-53"/>
      </g>
     </g>
    </g>
    <g id="xtick_3">
     <g id="line2d_3">
      <g>
       <use style="stroke:#000000;stroke-width:0.8;" x="639.330958" xlink:href="#maf40d33bdd" y="1281.6"/>
      </g>
     </g>
     <g id="text_3">
      <!-- 0.00 -->
      <g transform="translate(628.198145 1296.198437)scale(0.1 -0.1)">
       <use xlink:href="#DejaVuSans-48"/>
       <use x="63.623047" xlink:href="#DejaVuSans-46"/>
       <use x="95.410156" xlink:href="#DejaVuSans-48"/>
       <use x="159.033203" xlink:href="#DejaVuSans-48"/>
      </g>
     </g>
    </g>
    <g id="xtick_4">
     <g id="line2d_4">
      <g>
       <use style="stroke:#000000;stroke-width:0.8;" x="828.188559" xlink:href="#maf40d33bdd" y="1281.6"/>
      </g>
     </g>
     <g id="text_4">
      <!-- 0.05 -->
      <g transform="translate(817.055747 1296.198437)scale(0.1 -0.1)">
       <use xlink:href="#DejaVuSans-48"/>
       <use x="63.623047" xlink:href="#DejaVuSans-46"/>
       <use x="95.410156" xlink:href="#DejaVuSans-48"/>
       <use x="159.033203" xlink:href="#DejaVuSans-53"/>
      </g>
     </g>
    </g>
    <g id="xtick_5">
     <g id="line2d_5">
      <g>
       <use style="stroke:#000000;stroke-width:0.8;" x="1017.046161" xlink:href="#maf40d33bdd" y="1281.6"/>
      </g>
     </g>
     <g id="text_5">
      <!-- 0.10 -->
      <g transform="translate(1005.913348 1296.198437)scale(0.1 -0.1)">
       <use xlink:href="#DejaVuSans-48"/>
       <use x="63.623047" xlink:href="#DejaVuSans-46"/>
       <use x="95.410156" xlink:href="#DejaVuSans-49"/>
       <use x="159.033203" xlink:href="#DejaVuSans-48"/>
      </g>
     </g>
    </g>
    <g id="xtick_6">
     <g id="line2d_6">
      <g>
       <use style="stroke:#000000;stroke-width:0.8;" x="1205.903762" xlink:href="#maf40d33bdd" y="1281.6"/>
      </g>
     </g>
     <g id="text_6">
      <!-- 0.15 -->
      <g transform="translate(1194.77095 1296.198437)scale(0.1 -0.1)">
       <use xlink:href="#DejaVuSans-48"/>
       <use x="63.623047" xlink:href="#DejaVuSans-46"/>
       <use x="95.410156" xlink:href="#DejaVuSans-49"/>
       <use x="159.033203" xlink:href="#DejaVuSans-53"/>
      </g>
     </g>
    </g>
   </g>
   <g id="matplotlib.axis_2">
    <g id="ytick_1">
     <g id="line2d_7">
      <defs>
       <path d="M 0 0 
L -3.5 0 
" id="mf81924e087" style="stroke:#000000;stroke-width:0.8;"/>
      </defs>
      <g>
       <use style="stroke:#000000;stroke-width:0.8;" x="180" xlink:href="#mf81924e087" y="1233.932337"/>
      </g>
     </g>
     <g id="text_7">
      <!-- −0.20 -->
      <defs>
       <path d="M 19.1875 8.296875 
L 53.609375 8.296875 
L 53.609375 0 
L 7.328125 0 
L 7.328125 8.296875 
Q 12.9375 14.109375 22.625 23.890625 
Q 32.328125 33.6875 34.8125 36.53125 
Q 39.546875 41.84375 41.421875 45.53125 
Q 43.3125 49.21875 43.3125 52.78125 
Q 43.3125 58.59375 39.234375 62.25 
Q 35.15625 65.921875 28.609375 65.921875 
Q 23.96875 65.921875 18.8125 64.3125 
Q 13.671875 62.703125 7.8125 59.421875 
L 7.8125 69.390625 
Q 13.765625 71.78125 18.9375 73 
Q 24.125 74.21875 28.421875 74.21875 
Q 39.75 74.21875 46.484375 68.546875 
Q 53.21875 62.890625 53.21875 53.421875 
Q 53.21875 48.921875 51.53125 44.890625 
Q 49.859375 40.875 45.40625 35.40625 
Q 44.1875 33.984375 37.640625 27.21875 
Q 31.109375 20.453125 19.1875 8.296875 
z
" id="DejaVuSans-50"/>
      </defs>
      <g transform="translate(142.354688 1237.731556)scale(0.1 -0.1)">
       <use xlink:href="#DejaVuSans-8722"/>
       <use x="83.789062" xlink:href="#DejaVuSans-48"/>
       <use x="147.412109" xlink:href="#DejaVuSans-46"/>
       <use x="179.199219" xlink:href="#DejaVuSans-50"/>
       <use x="242.822266" xlink:href="#DejaVuSans-48"/>
      </g>
     </g>
    </g>
    <g id="ytick_2">
     <g id="line2d_8">
      <g>
       <use style="stroke:#000000;stroke-width:0.8;" x="180" xlink:href="#mf81924e087" y="1102.284309"/>
      </g>
     </g>
     <g id="text_8">
      <!-- −0.15 -->
      <g transform="translate(142.354688 1106.083527)scale(0.1 -0.1)">
       <use xlink:href="#DejaVuSans-8722"/>
       <use x="83.789062" xlink:href="#DejaVuSans-48"/>
       <use x="147.412109" xlink:href="#DejaVuSans-46"/>
       <use x="179.199219" xlink:href="#DejaVuSans-49"/>
       <use x="242.822266" xlink:href="#DejaVuSans-53"/>
      </g>
     </g>
    </g>
    <g id="ytick_3">
     <g id="line2d_9">
      <g>
       <use style="stroke:#000000;stroke-width:0.8;" x="180" xlink:href="#mf81924e087" y="970.636281"/>
      </g>
     </g>
     <g id="text_9">
      <!-- −0.10 -->
      <g transform="translate(142.354688 974.435499)scale(0.1 -0.1)">
       <use xlink:href="#DejaVuSans-8722"/>
       <use x="83.789062" xlink:href="#DejaVuSans-48"/>
       <use x="147.412109" xlink:href="#DejaVuSans-46"/>
       <use x="179.199219" xlink:href="#DejaVuSans-49"/>
       <use x="242.822266" xlink:href="#DejaVuSans-48"/>
      </g>
     </g>
    </g>
    <g id="ytick_4">
     <g id="line2d_10">
      <g>
       <use style="stroke:#000000;stroke-width:0.8;" x="180" xlink:href="#mf81924e087" y="838.988253"/>
      </g>
     </g>
     <g id="text_10">
      <!-- −0.05 -->
      <g transform="translate(142.354688 842.787471)scale(0.1 -0.1)">
       <use xlink:href="#DejaVuSans-8722"/>
       <use x="83.789062" xlink:href="#DejaVuSans-48"/>
       <use x="147.412109" xlink:href="#DejaVuSans-46"/>
       <use x="179.199219" xlink:href="#DejaVuSans-48"/>
       <use x="242.822266" xlink:href="#DejaVuSans-53"/>
      </g>
     </g>
    </g>
    <g id="ytick_5">
     <g id="line2d_11">
      <g>
       <use style="stroke:#000000;stroke-width:0.8;" x="180" xlink:href="#mf81924e087" y="707.340224"/>
      </g>
     </g>
     <g id="text_11">
      <!-- 0.00 -->
      <g transform="translate(150.734375 711.139443)scale(0.1 -0.1)">
       <use xlink:href="#DejaVuSans-48"/>
       <use x="63.623047" xlink:href="#DejaVuSans-46"/>
       <use x="95.410156" xlink:href="#DejaVuSans-48"/>
       <use x="159.033203" xlink:href="#DejaVuSans-48"/>
      </g>
     </g>
    </g>
    <g id="ytick_6">
     <g id="line2d_12">
      <g>
       <use style="stroke:#000000;stroke-width:0.8;" x="180" xlink:href="#mf81924e087" y="575.692196"/>
      </g>
     </g>
     <g id="text_12">
      <!-- 0.05 -->
      <g transform="translate(150.734375 579.491415)scale(0.1 -0.1)">
       <use xlink:href="#DejaVuSans-48"/>
       <use x="63.623047" xlink:href="#DejaVuSans-46"/>
       <use x="95.410156" xlink:href="#DejaVuSans-48"/>
       <use x="159.033203" xlink:href="#DejaVuSans-53"/>
      </g>
     </g>
    </g>
    <g id="ytick_7">
     <g id="line2d_13">
      <g>
       <use style="stroke:#000000;stroke-width:0.8;" x="180" xlink:href="#mf81924e087" y="444.044168"/>
      </g>
     </g>
     <g id="text_13">
      <!-- 0.10 -->
      <g transform="translate(150.734375 447.843387)scale(0.1 -0.1)">
       <use xlink:href="#DejaVuSans-48"/>
       <use x="63.623047" xlink:href="#DejaVuSans-46"/>
       <use x="95.410156" xlink:href="#DejaVuSans-49"/>
       <use x="159.033203" xlink:href="#DejaVuSans-48"/>
      </g>
     </g>
    </g>
    <g id="ytick_8">
     <g id="line2d_14">
      <g>
       <use style="stroke:#000000;stroke-width:0.8;" x="180" xlink:href="#mf81924e087" y="312.39614"/>
      </g>
     </g>
     <g id="text_14">
      <!-- 0.15 -->
      <g transform="translate(150.734375 316.195359)scale(0.1 -0.1)">
       <use xlink:href="#DejaVuSans-48"/>
       <use x="63.623047" xlink:href="#DejaVuSans-46"/>
       <use x="95.410156" xlink:href="#DejaVuSans-49"/>
       <use x="159.033203" xlink:href="#DejaVuSans-53"/>
      </g>
     </g>
    </g>
    <g id="ytick_9">
     <g id="line2d_15">
      <g>
       <use style="stroke:#000000;stroke-width:0.8;" x="180" xlink:href="#mf81924e087" y="180.748112"/>
      </g>
     </g>
     <g id="text_15">
      <!-- 0.20 -->
      <g transform="translate(150.734375 184.547331)scale(0.1 -0.1)">
       <use xlink:href="#DejaVuSans-48"/>
       <use x="63.623047" xlink:href="#DejaVuSans-46"/>
       <use x="95.410156" xlink:href="#DejaVuSans-50"/>
       <use x="159.033203" xlink:href="#DejaVuSans-48"/>
      </g>
     </g>
    </g>
   </g>
   <g id="line2d_16">
    <defs>
     <path d="M 0 3 
C 0.795609 3 1.55874 2.683901 2.12132 2.12132 
C 2.683901 1.55874 3 0.795609 3 0 
C 3 -0.795609 2.683901 -1.55874 2.12132 -2.12132 
C 1.55874 -2.683901 0.795609 -3 0 -3 
C -0.795609 -3 -1.55874 -2.683901 -2.12132 -2.12132 
C -2.683901 -1.55874 -3 -0.795609 -3 0 
C -3 0.795609 -2.683901 1.55874 -2.12132 2.12132 
C -1.55874 2.683901 -0.795609 3 0 3 
z
" id="m78230c17f2" style="stroke:#000000;"/>
    </defs>
    <g clip-path="url(#p6b17b40fe8)">
     <use style="stroke:#000000;" x="972.736877" xlink:href="#m78230c17f2" y="1231.2"/>
    </g>
   </g>
   <g id="line2d_17">
    <g clip-path="url(#p6b17b40fe8)">
     <use style="stroke:#000000;" x="311.316752" xlink:href="#m78230c17f2" y="583.657875"/>
    </g>
   </g>
   <g id="line2d_18">
    <g clip-path="url(#p6b17b40fe8)">
     <use style="stroke:#000000;" x="1184.171712" xlink:href="#m78230c17f2" y="479.832377"/>
    </g>
   </g>
   <g id="line2d_19">
    <g clip-path="url(#p6b17b40fe8)">
     <use style="stroke:#000000;" x="1179.189935" xlink:href="#m78230c17f2" y="480.748032"/>
    </g>
   </g>
   <g id="line2d_20">
    <g clip-path="url(#p6b17b40fe8)">
     <use style="stroke:#000000;" x="996.404955" xlink:href="#m78230c17f2" y="235.028923"/>
    </g>
   </g>
   <g id="line2d_21">
    <defs>
     <path d="M 0 9 
C 2.386828 9 4.676219 8.051703 6.363961 6.363961 
C 8.051703 4.676219 9 2.386828 9 0 
C 9 -2.386828 8.051703 -4.676219 6.363961 -6.363961 
C 4.676219 -8.051703 2.386828 -9 0 -9 
C -2.386828 -9 -4.676219 -8.051703 -6.363961 -6.363961 
C -8.051703 -4.676219 -9 -2.386828 -9 0 
C -9 2.386828 -8.051703 4.676219 -6.363961 6.363961 
C -4.676219 8.051703 -2.386828 9 0 9 
z
" id="mae2201fc1e" style="stroke:#000000;"/>
    </defs>
    <g clip-path="url(#p6b17b40fe8)">
     <use style="fill:#9e0142;stroke:#000000;" x="1241.998311" xlink:href="#mae2201fc1e" y="548.247653"/>
    </g>
   </g>
   <g id="line2d_22">
    <g clip-path="url(#p6b17b40fe8)">
     <use style="stroke:#000000;" x="975.201676" xlink:href="#m78230c17f2" y="242.915817"/>
    </g>
   </g>
   <g id="line2d_23">
    <g clip-path="url(#p6b17b40fe8)">
     <use style="fill:#9e0142;stroke:#000000;" x="1233.836878" xlink:href="#mae2201fc1e" y="550.207823"/>
    </g>
   </g>
   <g id="line2d_24">
    <g clip-path="url(#p6b17b40fe8)">
     <use style="fill:#9e0142;stroke:#000000;" x="1237.860672" xlink:href="#mae2201fc1e" y="549.397163"/>
    </g>
   </g>
   <g id="line2d_25">
    <g clip-path="url(#p6b17b40fe8)">
     <use style="stroke:#000000;" x="1001.135071" xlink:href="#m78230c17f2" y="535.022567"/>
    </g>
   </g>
   <g id="line2d_26">
    <g clip-path="url(#p6b17b40fe8)">
     <use style="stroke:#000000;" x="1226.770672" xlink:href="#m78230c17f2" y="526.40986"/>
    </g>
   </g>
   <g id="line2d_27">
    <defs>
     <path d="M 0 9 
C 2.386828 9 4.676219 8.051703 6.363961 6.363961 
C 8.051703 4.676219 9 2.386828 9 0 
C 9 -2.386828 8.051703 -4.676219 6.363961 -6.363961 
C 4.676219 -8.051703 2.386828 -9 0 -9 
C -2.386828 -9 -4.676219 -8.051703 -6.363961 -6.363961 
C -8.051703 -4.676219 -9 -2.386828 -9 0 
C -9 2.386828 -8.051703 4.676219 -6.363961 6.363961 
C -4.676219 8.051703 -2.386828 9 0 9 
z
" id="mac50a7a027" style="stroke:#000000;"/>
    </defs>
    <g clip-path="url(#p6b17b40fe8)">
     <use style="fill:#f98e52;stroke:#000000;" x="1109.999795" xlink:href="#mac50a7a027" y="1167.952475"/>
    </g>
   </g>
   <g id="line2d_28">
    <g clip-path="url(#p6b17b40fe8)">
     <use style="stroke:#000000;" x="1025.227883" xlink:href="#m78230c17f2" y="1174.296476"/>
    </g>
   </g>
   <g id="line2d_29">
    <g clip-path="url(#p6b17b40fe8)">
     <use style="stroke:#000000;" x="230.727273" xlink:href="#m78230c17f2" y="516.806627"/>
    </g>
   </g>
   <g id="line2d_30">
    <g clip-path="url(#p6b17b40fe8)">
     <use style="stroke:#000000;" x="1078.515846" xlink:href="#m78230c17f2" y="1208.534396"/>
    </g>
   </g>
   <g id="line2d_31">
    <g clip-path="url(#p6b17b40fe8)">
     <use style="fill:#9e0142;stroke:#000000;" x="1240.332028" xlink:href="#mae2201fc1e" y="548.305673"/>
    </g>
   </g>
   <g id="line2d_32">
    <g clip-path="url(#p6b17b40fe8)">
     <use style="stroke:#000000;" x="1189.032421" xlink:href="#m78230c17f2" y="479.830035"/>
    </g>
   </g>
   <g id="line2d_33">
    <g clip-path="url(#p6b17b40fe8)">
     <use style="stroke:#000000;" x="1026.135944" xlink:href="#m78230c17f2" y="1171.919405"/>
    </g>
   </g>
   <g id="line2d_34">
    <g clip-path="url(#p6b17b40fe8)">
     <use style="stroke:#000000;" x="686.378727" xlink:href="#m78230c17f2" y="936.442775"/>
    </g>
   </g>
   <g id="line2d_35">
    <defs>
     <path d="M 0 9 
C 2.386828 9 4.676219 8.051703 6.363961 6.363961 
C 8.051703 4.676219 9 2.386828 9 0 
C 9 -2.386828 8.051703 -4.676219 6.363961 -6.363961 
C 4.676219 -8.051703 2.386828 -9 0 -9 
C -2.386828 -9 -4.676219 -8.051703 -6.363961 -6.363961 
C -8.051703 -4.676219 -9 -2.386828 -9 0 
C -9 2.386828 -8.051703 4.676219 -6.363961 6.363961 
C -4.676219 8.051703 -2.386828 9 0 9 
z
" id="mf39ff019fe" style="stroke:#000000;"/>
    </defs>
    <g clip-path="url(#p6b17b40fe8)">
     <use style="fill:#ffffbe;stroke:#000000;" x="1239.997779" xlink:href="#mf39ff019fe" y="554.061551"/>
    </g>
   </g>
   <g id="line2d_36">
    <g clip-path="url(#p6b17b40fe8)">
     <use style="stroke:#000000;" x="1117.059093" xlink:href="#m78230c17f2" y="1170.897561"/>
    </g>
   </g>
   <g id="line2d_37">
    <g clip-path="url(#p6b17b40fe8)">
     <use style="stroke:#000000;" x="859.104847" xlink:href="#m78230c17f2" y="1172.631109"/>
    </g>
   </g>
   <g id="line2d_38">
    <g clip-path="url(#p6b17b40fe8)">
     <use style="stroke:#000000;" x="996.835375" xlink:href="#m78230c17f2" y="557.886687"/>
    </g>
   </g>
   <g id="line2d_39">
    <g clip-path="url(#p6b17b40fe8)">
     <use style="stroke:#000000;" x="298.136507" xlink:href="#m78230c17f2" y="530.04384"/>
    </g>
   </g>
   <g id="line2d_40">
    <g clip-path="url(#p6b17b40fe8)">
     <use style="stroke:#000000;" x="481.467796" xlink:href="#m78230c17f2" y="620.929679"/>
    </g>
   </g>
   <g id="line2d_41">
    <g clip-path="url(#p6b17b40fe8)">
     <use style="fill:#f98e52;stroke:#000000;" x="1108.363734" xlink:href="#mac50a7a027" y="1173.047439"/>
    </g>
   </g>
   <g id="line2d_42">
    <g clip-path="url(#p6b17b40fe8)">
     <use style="stroke:#000000;" x="1027.25791" xlink:href="#m78230c17f2" y="1172.845596"/>
    </g>
   </g>
   <g id="line2d_43">
    <defs>
     <path d="M 0 9 
C 2.386828 9 4.676219 8.051703 6.363961 6.363961 
C 8.051703 4.676219 9 2.386828 9 0 
C 9 -2.386828 8.051703 -4.676219 6.363961 -6.363961 
C 4.676219 -8.051703 2.386828 -9 0 -9 
C -2.386828 -9 -4.676219 -8.051703 -6.363961 -6.363961 
C -8.051703 -4.676219 -9 -2.386828 -9 0 
C -9 2.386828 -8.051703 4.676219 -6.363961 6.363961 
C -4.676219 8.051703 -2.386828 9 0 9 
z
" id="m95d412ad06" style="stroke:#000000;"/>
    </defs>
    <g clip-path="url(#p6b17b40fe8)">
     <use style="fill:#86cfa5;stroke:#000000;" x="997.093078" xlink:href="#m95d412ad06" y="223.2"/>
    </g>
   </g>
   <g id="line2d_44">
    <g clip-path="url(#p6b17b40fe8)">
     <use style="fill:#9e0142;stroke:#000000;" x="1239.384607" xlink:href="#mae2201fc1e" y="548.269749"/>
    </g>
   </g>
   <g id="line2d_45">
    <g clip-path="url(#p6b17b40fe8)">
     <use style="stroke:#000000;" x="1100.06323" xlink:href="#m78230c17f2" y="1173.523159"/>
    </g>
   </g>
   <g id="line2d_46">
    <g clip-path="url(#p6b17b40fe8)">
     <use style="stroke:#000000;" x="364.444964" xlink:href="#m78230c17f2" y="430.292827"/>
    </g>
   </g>
   <g id="line2d_47">
    <g clip-path="url(#p6b17b40fe8)">
     <use style="fill:#86cfa5;stroke:#000000;" x="996.579389" xlink:href="#m95d412ad06" y="229.283514"/>
    </g>
   </g>
   <g id="line2d_48">
    <g clip-path="url(#p6b17b40fe8)">
     <use style="fill:#9e0142;stroke:#000000;" x="1238.916434" xlink:href="#mae2201fc1e" y="550.337405"/>
    </g>
   </g>
   <g id="line2d_49">
    <g clip-path="url(#p6b17b40fe8)">
     <use style="fill:#9e0142;stroke:#000000;" x="1241.6909" xlink:href="#mae2201fc1e" y="548.92248"/>
    </g>
   </g>
   <g id="line2d_50">
    <g clip-path="url(#p6b17b40fe8)">
     <use style="fill:#ffffbe;stroke:#000000;" x="1244.944923" xlink:href="#mf39ff019fe" y="556.005365"/>
    </g>
   </g>
   <g id="line2d_51">
    <g clip-path="url(#p6b17b40fe8)">
     <use style="fill:#86cfa5;stroke:#000000;" x="992.20941" xlink:href="#m95d412ad06" y="231.427934"/>
    </g>
   </g>
   <g id="line2d_52">
    <g clip-path="url(#p6b17b40fe8)">
     <use style="stroke:#000000;" x="276.635715" xlink:href="#m78230c17f2" y="577.602865"/>
    </g>
   </g>
   <g id="line2d_53">
    <g clip-path="url(#p6b17b40fe8)">
     <use style="stroke:#000000;" x="1111.698624" xlink:href="#m78230c17f2" y="1171.004272"/>
    </g>
   </g>
   <g id="line2d_54">
    <g clip-path="url(#p6b17b40fe8)">
     <use style="fill:#86cfa5;stroke:#000000;" x="996.754938" xlink:href="#m95d412ad06" y="231.318305"/>
    </g>
   </g>
   <g id="line2d_55">
    <g clip-path="url(#p6b17b40fe8)">
     <use style="stroke:#000000;" x="1228.910091" xlink:href="#m78230c17f2" y="554.488043"/>
    </g>
   </g>
   <g id="line2d_56">
    <g clip-path="url(#p6b17b40fe8)">
     <use style="fill:#ffffbe;stroke:#000000;" x="1245.272727" xlink:href="#mf39ff019fe" y="554.190644"/>
    </g>
   </g>
   <g id="line2d_57">
    <g clip-path="url(#p6b17b40fe8)">
     <use style="fill:#ffffbe;stroke:#000000;" x="1234.827857" xlink:href="#mf39ff019fe" y="555.075185"/>
    </g>
   </g>
   <g id="line2d_58">
    <g clip-path="url(#p6b17b40fe8)">
     <use style="fill:#9e0142;stroke:#000000;" x="1233.921581" xlink:href="#mae2201fc1e" y="548.572654"/>
    </g>
   </g>
   <g id="line2d_59">
    <g clip-path="url(#p6b17b40fe8)">
     <use style="fill:#9e0142;stroke:#000000;" x="1239.749998" xlink:href="#mae2201fc1e" y="550.047443"/>
    </g>
   </g>
   <g id="line2d_60">
    <g clip-path="url(#p6b17b40fe8)">
     <use style="stroke:#000000;" x="275.032956" xlink:href="#m78230c17f2" y="578.515131"/>
    </g>
   </g>
   <g id="line2d_61">
    <g clip-path="url(#p6b17b40fe8)">
     <use style="fill:#9e0142;stroke:#000000;" x="1233.778209" xlink:href="#mae2201fc1e" y="550.85245"/>
    </g>
   </g>
   <g id="line2d_62">
    <g clip-path="url(#p6b17b40fe8)">
     <use style="stroke:#000000;" x="320.639995" xlink:href="#m78230c17f2" y="326.603509"/>
    </g>
   </g>
   <g id="line2d_63">
    <g clip-path="url(#p6b17b40fe8)">
     <use style="fill:#9e0142;stroke:#000000;" x="1240.672033" xlink:href="#mae2201fc1e" y="550.803848"/>
    </g>
   </g>
   <g id="line2d_64">
    <g clip-path="url(#p6b17b40fe8)">
     <use style="fill:#f98e52;stroke:#000000;" x="1112.136072" xlink:href="#mac50a7a027" y="1165.890425"/>
    </g>
   </g>
   <g id="line2d_65">
    <g clip-path="url(#p6b17b40fe8)">
     <use style="fill:#ffffbe;stroke:#000000;" x="1234.738691" xlink:href="#mf39ff019fe" y="554.531975"/>
    </g>
   </g>
   <g id="line2d_66">
    <g clip-path="url(#p6b17b40fe8)">
     <use style="fill:#86cfa5;stroke:#000000;" x="996.5749" xlink:href="#m95d412ad06" y="228.037641"/>
    </g>
   </g>
   <g id="line2d_67">
    <g clip-path="url(#p6b17b40fe8)">
     <use style="fill:#f98e52;stroke:#000000;" x="1106.596638" xlink:href="#mac50a7a027" y="1174.12781"/>
    </g>
   </g>
   <g id="line2d_68">
    <g clip-path="url(#p6b17b40fe8)">
     <use style="stroke:#000000;" x="279.857815" xlink:href="#m78230c17f2" y="413.451955"/>
    </g>
   </g>
   <g id="line2d_69">
    <g clip-path="url(#p6b17b40fe8)">
     <use style="stroke:#000000;" x="1174.939506" xlink:href="#m78230c17f2" y="453.287519"/>
    </g>
   </g>
   <g id="line2d_70">
    <g clip-path="url(#p6b17b40fe8)">
     <use style="fill:#9e0142;stroke:#000000;" x="1236.719206" xlink:href="#mae2201fc1e" y="549.510412"/>
    </g>
   </g>
   <g id="line2d_71">
    <g clip-path="url(#p6b17b40fe8)">
     <use style="stroke:#000000;" x="987.098627" xlink:href="#m78230c17f2" y="231.695903"/>
    </g>
   </g>
   <g id="line2d_72">
    <g clip-path="url(#p6b17b40fe8)">
     <use style="fill:#f98e52;stroke:#000000;" x="1112.950404" xlink:href="#mac50a7a027" y="1166.756496"/>
    </g>
   </g>
   <g id="line2d_73">
    <g clip-path="url(#p6b17b40fe8)">
     <use style="stroke:#000000;" x="1052.15322" xlink:href="#m78230c17f2" y="520.83493"/>
    </g>
   </g>
   <g id="line2d_74">
    <g clip-path="url(#p6b17b40fe8)">
     <use style="fill:#f98e52;stroke:#000000;" x="1110.003652" xlink:href="#mac50a7a027" y="1171.06991"/>
    </g>
   </g>
   <g id="line2d_75">
    <g clip-path="url(#p6b17b40fe8)">
     <use style="stroke:#000000;" x="1114.268935" xlink:href="#m78230c17f2" y="1175.452132"/>
    </g>
   </g>
   <g id="line2d_76">
    <g clip-path="url(#p6b17b40fe8)">
     <use style="fill:#9e0142;stroke:#000000;" x="1237.43554" xlink:href="#mae2201fc1e" y="549.987354"/>
    </g>
   </g>
   <g id="line2d_77">
    <g clip-path="url(#p6b17b40fe8)">
     <use style="stroke:#000000;" x="1100.373416" xlink:href="#m78230c17f2" y="1174.420029"/>
    </g>
   </g>
   <g id="line2d_78">
    <g clip-path="url(#p6b17b40fe8)">
     <use style="stroke:#000000;" x="1180.835787" xlink:href="#m78230c17f2" y="482.502713"/>
    </g>
   </g>
   <g id="patch_3">
    <path d="M 180 1281.6 
L 180 172.8 
" style="fill:none;stroke:#000000;stroke-linecap:square;stroke-linejoin:miter;stroke-width:0.8;"/>
   </g>
   <g id="patch_4">
    <path d="M 1296 1281.6 
L 1296 172.8 
" style="fill:none;stroke:#000000;stroke-linecap:square;stroke-linejoin:miter;stroke-width:0.8;"/>
   </g>
   <g id="patch_5">
    <path d="M 180 1281.6 
L 1296 1281.6 
" style="fill:none;stroke:#000000;stroke-linecap:square;stroke-linejoin:miter;stroke-width:0.8;"/>
   </g>
   <g id="patch_6">
    <path d="M 180 172.8 
L 1296 172.8 
" style="fill:none;stroke:#000000;stroke-linecap:square;stroke-linejoin:miter;stroke-width:0.8;"/>
   </g>
  </g>
 </g>
 <defs>
  <clipPath id="p6b17b40fe8">
   <rect height="1108.8" width="1116" x="180" y="172.8"/>
  </clipPath>
 </defs>
</svg>
