<?xml version="1.0" encoding="utf-8" standalone="no"?>
<!DOCTYPE svg PUBLIC "-//W3C//DTD SVG 1.1//EN"
  "http://www.w3.org/Graphics/SVG/1.1/DTD/svg11.dtd">
<!-- Created with matplotlib (https://matplotlib.org/) -->
<svg height="1440pt" version="1.1" viewBox="0 0 1440 1440" width="1440pt" xmlns="http://www.w3.org/2000/svg" xmlns:xlink="http://www.w3.org/1999/xlink">
 <defs>
  <style type="text/css">
*{stroke-linecap:butt;stroke-linejoin:round;}
  </style>
 </defs>
 <g id="figure_1">
  <g id="patch_1">
   <path d="M 0 1440 
L 1440 1440 
L 1440 0 
L 0 0 
z
" style="fill:#ffffff;"/>
  </g>
  <g id="axes_1">
   <g id="patch_2">
    <path d="M 180 1281.6 
L 1296 1281.6 
L 1296 172.8 
L 180 172.8 
z
" style="fill:#ffffff;"/>
   </g>
   <g id="matplotlib.axis_1">
    <g id="xtick_1">
     <g id="line2d_1">
      <defs>
       <path d="M 0 0 
L 0 3.5 
" id="mffa9381217" style="stroke:#000000;stroke-width:0.8;"/>
      </defs>
      <g>
       <use style="stroke:#000000;stroke-width:0.8;" x="231.464265" xlink:href="#mffa9381217" y="1281.6"/>
      </g>
     </g>
     <g id="text_1">
      <!-- −0.02 -->
      <defs>
       <path d="M 10.59375 35.5 
L 73.1875 35.5 
L 73.1875 27.203125 
L 10.59375 27.203125 
z
" id="DejaVuSans-8722"/>
       <path d="M 31.78125 66.40625 
Q 24.171875 66.40625 20.328125 58.90625 
Q 16.5 51.421875 16.5 36.375 
Q 16.5 21.390625 20.328125 13.890625 
Q 24.171875 6.390625 31.78125 6.390625 
Q 39.453125 6.390625 43.28125 13.890625 
Q 47.125 21.390625 47.125 36.375 
Q 47.125 51.421875 43.28125 58.90625 
Q 39.453125 66.40625 31.78125 66.40625 
z
M 31.78125 74.21875 
Q 44.046875 74.21875 50.515625 64.515625 
Q 56.984375 54.828125 56.984375 36.375 
Q 56.984375 17.96875 50.515625 8.265625 
Q 44.046875 -1.421875 31.78125 -1.421875 
Q 19.53125 -1.421875 13.0625 8.265625 
Q 6.59375 17.96875 6.59375 36.375 
Q 6.59375 54.828125 13.0625 64.515625 
Q 19.53125 74.21875 31.78125 74.21875 
z
" id="DejaVuSans-48"/>
       <path d="M 10.6875 12.40625 
L 21 12.40625 
L 21 0 
L 10.6875 0 
z
" id="DejaVuSans-46"/>
       <path d="M 19.1875 8.296875 
L 53.609375 8.296875 
L 53.609375 0 
L 7.328125 0 
L 7.328125 8.296875 
Q 12.9375 14.109375 22.625 23.890625 
Q 32.328125 33.6875 34.8125 36.53125 
Q 39.546875 41.84375 41.421875 45.53125 
Q 43.3125 49.21875 43.3125 52.78125 
Q 43.3125 58.59375 39.234375 62.25 
Q 35.15625 65.921875 28.609375 65.921875 
Q 23.96875 65.921875 18.8125 64.3125 
Q 13.671875 62.703125 7.8125 59.421875 
L 7.8125 69.390625 
Q 13.765625 71.78125 18.9375 73 
Q 24.125 74.21875 28.421875 74.21875 
Q 39.75 74.21875 46.484375 68.546875 
Q 53.21875 62.890625 53.21875 53.421875 
Q 53.21875 48.921875 51.53125 44.890625 
Q 49.859375 40.875 45.40625 35.40625 
Q 44.1875 33.984375 37.640625 27.21875 
Q 31.109375 20.453125 19.1875 8.296875 
z
" id="DejaVuSans-50"/>
      </defs>
      <g transform="translate(216.141609 1296.198437)scale(0.1 -0.1)">
       <use xlink:href="#DejaVuSans-8722"/>
       <use x="83.789062" xlink:href="#DejaVuSans-48"/>
       <use x="147.412109" xlink:href="#DejaVuSans-46"/>
       <use x="179.199219" xlink:href="#DejaVuSans-48"/>
       <use x="242.822266" xlink:href="#DejaVuSans-50"/>
      </g>
     </g>
    </g>
    <g id="xtick_2">
     <g id="line2d_2">
      <g>
       <use style="stroke:#000000;stroke-width:0.8;" x="371.320726" xlink:href="#mffa9381217" y="1281.6"/>
      </g>
     </g>
     <g id="text_2">
      <!-- 0.00 -->
      <g transform="translate(360.187914 1296.198437)scale(0.1 -0.1)">
       <use xlink:href="#DejaVuSans-48"/>
       <use x="63.623047" xlink:href="#DejaVuSans-46"/>
       <use x="95.410156" xlink:href="#DejaVuSans-48"/>
       <use x="159.033203" xlink:href="#DejaVuSans-48"/>
      </g>
     </g>
    </g>
    <g id="xtick_3">
     <g id="line2d_3">
      <g>
       <use style="stroke:#000000;stroke-width:0.8;" x="511.177187" xlink:href="#mffa9381217" y="1281.6"/>
      </g>
     </g>
     <g id="text_3">
      <!-- 0.02 -->
      <g transform="translate(500.044375 1296.198437)scale(0.1 -0.1)">
       <use xlink:href="#DejaVuSans-48"/>
       <use x="63.623047" xlink:href="#DejaVuSans-46"/>
       <use x="95.410156" xlink:href="#DejaVuSans-48"/>
       <use x="159.033203" xlink:href="#DejaVuSans-50"/>
      </g>
     </g>
    </g>
    <g id="xtick_4">
     <g id="line2d_4">
      <g>
       <use style="stroke:#000000;stroke-width:0.8;" x="651.033649" xlink:href="#mffa9381217" y="1281.6"/>
      </g>
     </g>
     <g id="text_4">
      <!-- 0.04 -->
      <defs>
       <path d="M 37.796875 64.3125 
L 12.890625 25.390625 
L 37.796875 25.390625 
z
M 35.203125 72.90625 
L 47.609375 72.90625 
L 47.609375 25.390625 
L 58.015625 25.390625 
L 58.015625 17.1875 
L 47.609375 17.1875 
L 47.609375 0 
L 37.796875 0 
L 37.796875 17.1875 
L 4.890625 17.1875 
L 4.890625 26.703125 
z
" id="DejaVuSans-52"/>
      </defs>
      <g transform="translate(639.900836 1296.198437)scale(0.1 -0.1)">
       <use xlink:href="#DejaVuSans-48"/>
       <use x="63.623047" xlink:href="#DejaVuSans-46"/>
       <use x="95.410156" xlink:href="#DejaVuSans-48"/>
       <use x="159.033203" xlink:href="#DejaVuSans-52"/>
      </g>
     </g>
    </g>
    <g id="xtick_5">
     <g id="line2d_5">
      <g>
       <use style="stroke:#000000;stroke-width:0.8;" x="790.89011" xlink:href="#mffa9381217" y="1281.6"/>
      </g>
     </g>
     <g id="text_5">
      <!-- 0.06 -->
      <defs>
       <path d="M 33.015625 40.375 
Q 26.375 40.375 22.484375 35.828125 
Q 18.609375 31.296875 18.609375 23.390625 
Q 18.609375 15.53125 22.484375 10.953125 
Q 26.375 6.390625 33.015625 6.390625 
Q 39.65625 6.390625 43.53125 10.953125 
Q 47.40625 15.53125 47.40625 23.390625 
Q 47.40625 31.296875 43.53125 35.828125 
Q 39.65625 40.375 33.015625 40.375 
z
M 52.59375 71.296875 
L 52.59375 62.3125 
Q 48.875 64.0625 45.09375 64.984375 
Q 41.3125 65.921875 37.59375 65.921875 
Q 27.828125 65.921875 22.671875 59.328125 
Q 17.53125 52.734375 16.796875 39.40625 
Q 19.671875 43.65625 24.015625 45.921875 
Q 28.375 48.1875 33.59375 48.1875 
Q 44.578125 48.1875 50.953125 41.515625 
Q 57.328125 34.859375 57.328125 23.390625 
Q 57.328125 12.15625 50.6875 5.359375 
Q 44.046875 -1.421875 33.015625 -1.421875 
Q 20.359375 -1.421875 13.671875 8.265625 
Q 6.984375 17.96875 6.984375 36.375 
Q 6.984375 53.65625 15.1875 63.9375 
Q 23.390625 74.21875 37.203125 74.21875 
Q 40.921875 74.21875 44.703125 73.484375 
Q 48.484375 72.75 52.59375 71.296875 
z
" id="DejaVuSans-54"/>
      </defs>
      <g transform="translate(779.757297 1296.198437)scale(0.1 -0.1)">
       <use xlink:href="#DejaVuSans-48"/>
       <use x="63.623047" xlink:href="#DejaVuSans-46"/>
       <use x="95.410156" xlink:href="#DejaVuSans-48"/>
       <use x="159.033203" xlink:href="#DejaVuSans-54"/>
      </g>
     </g>
    </g>
    <g id="xtick_6">
     <g id="line2d_6">
      <g>
       <use style="stroke:#000000;stroke-width:0.8;" x="930.746571" xlink:href="#mffa9381217" y="1281.6"/>
      </g>
     </g>
     <g id="text_6">
      <!-- 0.08 -->
      <defs>
       <path d="M 31.78125 34.625 
Q 24.75 34.625 20.71875 30.859375 
Q 16.703125 27.09375 16.703125 20.515625 
Q 16.703125 13.921875 20.71875 10.15625 
Q 24.75 6.390625 31.78125 6.390625 
Q 38.8125 6.390625 42.859375 10.171875 
Q 46.921875 13.96875 46.921875 20.515625 
Q 46.921875 27.09375 42.890625 30.859375 
Q 38.875 34.625 31.78125 34.625 
z
M 21.921875 38.8125 
Q 15.578125 40.375 12.03125 44.71875 
Q 8.5 49.078125 8.5 55.328125 
Q 8.5 64.0625 14.71875 69.140625 
Q 20.953125 74.21875 31.78125 74.21875 
Q 42.671875 74.21875 48.875 69.140625 
Q 55.078125 64.0625 55.078125 55.328125 
Q 55.078125 49.078125 51.53125 44.71875 
Q 48 40.375 41.703125 38.8125 
Q 48.828125 37.15625 52.796875 32.3125 
Q 56.78125 27.484375 56.78125 20.515625 
Q 56.78125 9.90625 50.3125 4.234375 
Q 43.84375 -1.421875 31.78125 -1.421875 
Q 19.734375 -1.421875 13.25 4.234375 
Q 6.78125 9.90625 6.78125 20.515625 
Q 6.78125 27.484375 10.78125 32.3125 
Q 14.796875 37.15625 21.921875 38.8125 
z
M 18.3125 54.390625 
Q 18.3125 48.734375 21.84375 45.5625 
Q 25.390625 42.390625 31.78125 42.390625 
Q 38.140625 42.390625 41.71875 45.5625 
Q 45.3125 48.734375 45.3125 54.390625 
Q 45.3125 60.0625 41.71875 63.234375 
Q 38.140625 66.40625 31.78125 66.40625 
Q 25.390625 66.40625 21.84375 63.234375 
Q 18.3125 60.0625 18.3125 54.390625 
z
" id="DejaVuSans-56"/>
      </defs>
      <g transform="translate(919.613758 1296.198437)scale(0.1 -0.1)">
       <use xlink:href="#DejaVuSans-48"/>
       <use x="63.623047" xlink:href="#DejaVuSans-46"/>
       <use x="95.410156" xlink:href="#DejaVuSans-48"/>
       <use x="159.033203" xlink:href="#DejaVuSans-56"/>
      </g>
     </g>
    </g>
    <g id="xtick_7">
     <g id="line2d_7">
      <g>
       <use style="stroke:#000000;stroke-width:0.8;" x="1070.603032" xlink:href="#mffa9381217" y="1281.6"/>
      </g>
     </g>
     <g id="text_7">
      <!-- 0.10 -->
      <defs>
       <path d="M 12.40625 8.296875 
L 28.515625 8.296875 
L 28.515625 63.921875 
L 10.984375 60.40625 
L 10.984375 69.390625 
L 28.421875 72.90625 
L 38.28125 72.90625 
L 38.28125 8.296875 
L 54.390625 8.296875 
L 54.390625 0 
L 12.40625 0 
z
" id="DejaVuSans-49"/>
      </defs>
      <g transform="translate(1059.47022 1296.198437)scale(0.1 -0.1)">
       <use xlink:href="#DejaVuSans-48"/>
       <use x="63.623047" xlink:href="#DejaVuSans-46"/>
       <use x="95.410156" xlink:href="#DejaVuSans-49"/>
       <use x="159.033203" xlink:href="#DejaVuSans-48"/>
      </g>
     </g>
    </g>
    <g id="xtick_8">
     <g id="line2d_8">
      <g>
       <use style="stroke:#000000;stroke-width:0.8;" x="1210.459493" xlink:href="#mffa9381217" y="1281.6"/>
      </g>
     </g>
     <g id="text_8">
      <!-- 0.12 -->
      <g transform="translate(1199.326681 1296.198437)scale(0.1 -0.1)">
       <use xlink:href="#DejaVuSans-48"/>
       <use x="63.623047" xlink:href="#DejaVuSans-46"/>
       <use x="95.410156" xlink:href="#DejaVuSans-49"/>
       <use x="159.033203" xlink:href="#DejaVuSans-50"/>
      </g>
     </g>
    </g>
   </g>
   <g id="matplotlib.axis_2">
    <g id="ytick_1">
     <g id="line2d_9">
      <defs>
       <path d="M 0 0 
L -3.5 0 
" id="m4497202f96" style="stroke:#000000;stroke-width:0.8;"/>
      </defs>
      <g>
       <use style="stroke:#000000;stroke-width:0.8;" x="180" xlink:href="#m4497202f96" y="1198.646346"/>
      </g>
     </g>
     <g id="text_9">
      <!-- −0.20 -->
      <g transform="translate(142.354688 1202.445565)scale(0.1 -0.1)">
       <use xlink:href="#DejaVuSans-8722"/>
       <use x="83.789062" xlink:href="#DejaVuSans-48"/>
       <use x="147.412109" xlink:href="#DejaVuSans-46"/>
       <use x="179.199219" xlink:href="#DejaVuSans-50"/>
       <use x="242.822266" xlink:href="#DejaVuSans-48"/>
      </g>
     </g>
    </g>
    <g id="ytick_2">
     <g id="line2d_10">
      <g>
       <use style="stroke:#000000;stroke-width:0.8;" x="180" xlink:href="#m4497202f96" y="1069.247153"/>
      </g>
     </g>
     <g id="text_10">
      <!-- −0.15 -->
      <defs>
       <path d="M 10.796875 72.90625 
L 49.515625 72.90625 
L 49.515625 64.59375 
L 19.828125 64.59375 
L 19.828125 46.734375 
Q 21.96875 47.46875 24.109375 47.828125 
Q 26.265625 48.1875 28.421875 48.1875 
Q 40.625 48.1875 47.75 41.5 
Q 54.890625 34.8125 54.890625 23.390625 
Q 54.890625 11.625 47.5625 5.09375 
Q 40.234375 -1.421875 26.90625 -1.421875 
Q 22.3125 -1.421875 17.546875 -0.640625 
Q 12.796875 0.140625 7.71875 1.703125 
L 7.71875 11.625 
Q 12.109375 9.234375 16.796875 8.0625 
Q 21.484375 6.890625 26.703125 6.890625 
Q 35.15625 6.890625 40.078125 11.328125 
Q 45.015625 15.765625 45.015625 23.390625 
Q 45.015625 31 40.078125 35.4375 
Q 35.15625 39.890625 26.703125 39.890625 
Q 22.75 39.890625 18.8125 39.015625 
Q 14.890625 38.140625 10.796875 36.28125 
z
" id="DejaVuSans-53"/>
      </defs>
      <g transform="translate(142.354688 1073.046372)scale(0.1 -0.1)">
       <use xlink:href="#DejaVuSans-8722"/>
       <use x="83.789062" xlink:href="#DejaVuSans-48"/>
       <use x="147.412109" xlink:href="#DejaVuSans-46"/>
       <use x="179.199219" xlink:href="#DejaVuSans-49"/>
       <use x="242.822266" xlink:href="#DejaVuSans-53"/>
      </g>
     </g>
    </g>
    <g id="ytick_3">
     <g id="line2d_11">
      <g>
       <use style="stroke:#000000;stroke-width:0.8;" x="180" xlink:href="#m4497202f96" y="939.847961"/>
      </g>
     </g>
     <g id="text_11">
      <!-- −0.10 -->
      <g transform="translate(142.354688 943.647179)scale(0.1 -0.1)">
       <use xlink:href="#DejaVuSans-8722"/>
       <use x="83.789062" xlink:href="#DejaVuSans-48"/>
       <use x="147.412109" xlink:href="#DejaVuSans-46"/>
       <use x="179.199219" xlink:href="#DejaVuSans-49"/>
       <use x="242.822266" xlink:href="#DejaVuSans-48"/>
      </g>
     </g>
    </g>
    <g id="ytick_4">
     <g id="line2d_12">
      <g>
       <use style="stroke:#000000;stroke-width:0.8;" x="180" xlink:href="#m4497202f96" y="810.448768"/>
      </g>
     </g>
     <g id="text_12">
      <!-- −0.05 -->
      <g transform="translate(142.354688 814.247987)scale(0.1 -0.1)">
       <use xlink:href="#DejaVuSans-8722"/>
       <use x="83.789062" xlink:href="#DejaVuSans-48"/>
       <use x="147.412109" xlink:href="#DejaVuSans-46"/>
       <use x="179.199219" xlink:href="#DejaVuSans-48"/>
       <use x="242.822266" xlink:href="#DejaVuSans-53"/>
      </g>
     </g>
    </g>
    <g id="ytick_5">
     <g id="line2d_13">
      <g>
       <use style="stroke:#000000;stroke-width:0.8;" x="180" xlink:href="#m4497202f96" y="681.049575"/>
      </g>
     </g>
     <g id="text_13">
      <!-- 0.00 -->
      <g transform="translate(150.734375 684.848794)scale(0.1 -0.1)">
       <use xlink:href="#DejaVuSans-48"/>
       <use x="63.623047" xlink:href="#DejaVuSans-46"/>
       <use x="95.410156" xlink:href="#DejaVuSans-48"/>
       <use x="159.033203" xlink:href="#DejaVuSans-48"/>
      </g>
     </g>
    </g>
    <g id="ytick_6">
     <g id="line2d_14">
      <g>
       <use style="stroke:#000000;stroke-width:0.8;" x="180" xlink:href="#m4497202f96" y="551.650382"/>
      </g>
     </g>
     <g id="text_14">
      <!-- 0.05 -->
      <g transform="translate(150.734375 555.449601)scale(0.1 -0.1)">
       <use xlink:href="#DejaVuSans-48"/>
       <use x="63.623047" xlink:href="#DejaVuSans-46"/>
       <use x="95.410156" xlink:href="#DejaVuSans-48"/>
       <use x="159.033203" xlink:href="#DejaVuSans-53"/>
      </g>
     </g>
    </g>
    <g id="ytick_7">
     <g id="line2d_15">
      <g>
       <use style="stroke:#000000;stroke-width:0.8;" x="180" xlink:href="#m4497202f96" y="422.251189"/>
      </g>
     </g>
     <g id="text_15">
      <!-- 0.10 -->
      <g transform="translate(150.734375 426.050408)scale(0.1 -0.1)">
       <use xlink:href="#DejaVuSans-48"/>
       <use x="63.623047" xlink:href="#DejaVuSans-46"/>
       <use x="95.410156" xlink:href="#DejaVuSans-49"/>
       <use x="159.033203" xlink:href="#DejaVuSans-48"/>
      </g>
     </g>
    </g>
    <g id="ytick_8">
     <g id="line2d_16">
      <g>
       <use style="stroke:#000000;stroke-width:0.8;" x="180" xlink:href="#m4497202f96" y="292.851996"/>
      </g>
     </g>
     <g id="text_16">
      <!-- 0.15 -->
      <g transform="translate(150.734375 296.651215)scale(0.1 -0.1)">
       <use xlink:href="#DejaVuSans-48"/>
       <use x="63.623047" xlink:href="#DejaVuSans-46"/>
       <use x="95.410156" xlink:href="#DejaVuSans-49"/>
       <use x="159.033203" xlink:href="#DejaVuSans-53"/>
      </g>
     </g>
    </g>
   </g>
   <g id="line2d_17">
    <defs>
     <path d="M 0 9 
C 2.386828 9 4.676219 8.051703 6.363961 6.363961 
C 8.051703 4.676219 9 2.386828 9 0 
C 9 -2.386828 8.051703 -4.676219 6.363961 -6.363961 
C 4.676219 -8.051703 2.386828 -9 0 -9 
C -2.386828 -9 -4.676219 -8.051703 -6.363961 -6.363961 
C -8.051703 -4.676219 -9 -2.386828 -9 0 
C -9 2.386828 -8.051703 4.676219 -6.363961 6.363961 
C -4.676219 8.051703 -2.386828 9 0 9 
z
" id="mc2809eff62" style="stroke:#000000;"/>
    </defs>
    <g clip-path="url(#p53a452e359)">
     <use style="fill:#9e0142;stroke:#000000;" x="1234.143075" xlink:href="#mc2809eff62" y="566.767101"/>
    </g>
   </g>
   <g id="line2d_18">
    <g clip-path="url(#p53a452e359)">
     <use style="fill:#9e0142;stroke:#000000;" x="1244.465487" xlink:href="#mc2809eff62" y="566.789482"/>
    </g>
   </g>
   <g id="line2d_19">
    <g clip-path="url(#p53a452e359)">
     <use style="fill:#9e0142;stroke:#000000;" x="1245.272727" xlink:href="#mc2809eff62" y="566.446551"/>
    </g>
   </g>
   <g id="line2d_20">
    <defs>
     <path d="M 0 9 
C 2.386828 9 4.676219 8.051703 6.363961 6.363961 
C 8.051703 4.676219 9 2.386828 9 0 
C 9 -2.386828 8.051703 -4.676219 6.363961 -6.363961 
C 4.676219 -8.051703 2.386828 -9 0 -9 
C -2.386828 -9 -4.676219 -8.051703 -6.363961 -6.363961 
C -8.051703 -4.676219 -9 -2.386828 -9 0 
C -9 2.386828 -8.051703 4.676219 -6.363961 6.363961 
C -4.676219 8.051703 -2.386828 9 0 9 
z
" id="m24f549abb1" style="stroke:#000000;"/>
    </defs>
    <g clip-path="url(#p53a452e359)">
     <use style="fill:#fdbf6f;stroke:#000000;" x="1128.262624" xlink:href="#m24f549abb1" y="683.417261"/>
    </g>
   </g>
   <g id="line2d_21">
    <defs>
     <path d="M 0 9 
C 2.386828 9 4.676219 8.051703 6.363961 6.363961 
C 8.051703 4.676219 9 2.386828 9 0 
C 9 -2.386828 8.051703 -4.676219 6.363961 -6.363961 
C 4.676219 -8.051703 2.386828 -9 0 -9 
C -2.386828 -9 -4.676219 -8.051703 -6.363961 -6.363961 
C -8.051703 -4.676219 -9 -2.386828 -9 0 
C -9 2.386828 -8.051703 4.676219 -6.363961 6.363961 
C -4.676219 8.051703 -2.386828 9 0 9 
z
" id="mc1d7d81bc7" style="stroke:#000000;"/>
    </defs>
    <g clip-path="url(#p53a452e359)">
     <use style="fill:#bfe5a0;stroke:#000000;" x="1025.51337" xlink:href="#mc1d7d81bc7" y="1225.083007"/>
    </g>
   </g>
   <g id="line2d_22">
    <g clip-path="url(#p53a452e359)">
     <use style="fill:#bfe5a0;stroke:#000000;" x="1024.116859" xlink:href="#mc1d7d81bc7" y="1225.13654"/>
    </g>
   </g>
   <g id="line2d_23">
    <g clip-path="url(#p53a452e359)">
     <use style="fill:#fdbf6f;stroke:#000000;" x="1132.515223" xlink:href="#m24f549abb1" y="683.395488"/>
    </g>
   </g>
   <g id="line2d_24">
    <defs>
     <path d="M 0 3 
C 0.795609 3 1.55874 2.683901 2.12132 2.12132 
C 2.683901 1.55874 3 0.795609 3 0 
C 3 -0.795609 2.683901 -1.55874 2.12132 -2.12132 
C 1.55874 -2.683901 0.795609 -3 0 -3 
C -0.795609 -3 -1.55874 -2.683901 -2.12132 -2.12132 
C -2.683901 -1.55874 -3 -0.795609 -3 0 
C -3 0.795609 -2.683901 1.55874 -2.12132 2.12132 
C -1.55874 2.683901 -0.795609 3 0 3 
z
" id="m307199a5c1" style="stroke:#000000;"/>
    </defs>
    <g clip-path="url(#p53a452e359)">
     <use style="stroke:#000000;" x="444.728099" xlink:href="#m307199a5c1" y="252.926649"/>
    </g>
   </g>
   <g id="line2d_25">
    <g clip-path="url(#p53a452e359)">
     <use style="fill:#bfe5a0;stroke:#000000;" x="1027.957133" xlink:href="#mc1d7d81bc7" y="1228.04522"/>
    </g>
   </g>
   <g id="line2d_26">
    <g clip-path="url(#p53a452e359)">
     <use style="fill:#bfe5a0;stroke:#000000;" x="1029.020699" xlink:href="#mc1d7d81bc7" y="1223.737669"/>
    </g>
   </g>
   <g id="line2d_27">
    <g clip-path="url(#p53a452e359)">
     <use style="stroke:#000000;" x="625.820677" xlink:href="#m307199a5c1" y="788.400022"/>
    </g>
   </g>
   <g id="line2d_28">
    <g clip-path="url(#p53a452e359)">
     <use style="fill:#9e0142;stroke:#000000;" x="1236.466213" xlink:href="#mc2809eff62" y="566.185814"/>
    </g>
   </g>
   <g id="line2d_29">
    <g clip-path="url(#p53a452e359)">
     <use style="fill:#bfe5a0;stroke:#000000;" x="1032.956178" xlink:href="#mc1d7d81bc7" y="1228.269313"/>
    </g>
   </g>
   <g id="line2d_30">
    <g clip-path="url(#p53a452e359)">
     <use style="fill:#fdbf6f;stroke:#000000;" x="1134.058257" xlink:href="#m24f549abb1" y="683.399174"/>
    </g>
   </g>
   <g id="line2d_31">
    <g clip-path="url(#p53a452e359)">
     <use style="stroke:#000000;" x="555.184452" xlink:href="#m307199a5c1" y="433.733525"/>
    </g>
   </g>
   <g id="line2d_32">
    <g clip-path="url(#p53a452e359)">
     <use style="stroke:#000000;" x="554.063954" xlink:href="#m307199a5c1" y="433.920098"/>
    </g>
   </g>
   <g id="line2d_33">
    <g clip-path="url(#p53a452e359)">
     <use style="fill:#9e0142;stroke:#000000;" x="1232.987622" xlink:href="#mc2809eff62" y="565.564991"/>
    </g>
   </g>
   <g id="line2d_34">
    <g clip-path="url(#p53a452e359)">
     <use style="fill:#fdbf6f;stroke:#000000;" x="1133.810139" xlink:href="#m24f549abb1" y="683.387478"/>
    </g>
   </g>
   <g id="line2d_35">
    <g clip-path="url(#p53a452e359)">
     <use style="fill:#9e0142;stroke:#000000;" x="1242.898536" xlink:href="#mc2809eff62" y="567.480509"/>
    </g>
   </g>
   <g id="line2d_36">
    <g clip-path="url(#p53a452e359)">
     <use style="stroke:#000000;" x="342.323674" xlink:href="#m307199a5c1" y="223.2"/>
    </g>
   </g>
   <g id="line2d_37">
    <g clip-path="url(#p53a452e359)">
     <use style="fill:#9e0142;stroke:#000000;" x="1230.326478" xlink:href="#mc2809eff62" y="566.263415"/>
    </g>
   </g>
   <g id="line2d_38">
    <g clip-path="url(#p53a452e359)">
     <use style="fill:#9e0142;stroke:#000000;" x="1242.930499" xlink:href="#mc2809eff62" y="566.14141"/>
    </g>
   </g>
   <g id="line2d_39">
    <g clip-path="url(#p53a452e359)">
     <use style="fill:#9e0142;stroke:#000000;" x="1231.129745" xlink:href="#mc2809eff62" y="567.292973"/>
    </g>
   </g>
   <g id="line2d_40">
    <g clip-path="url(#p53a452e359)">
     <use style="stroke:#000000;" x="971.415458" xlink:href="#m307199a5c1" y="486.225864"/>
    </g>
   </g>
   <g id="line2d_41">
    <g clip-path="url(#p53a452e359)">
     <use style="fill:#9e0142;stroke:#000000;" x="1228.425297" xlink:href="#mc2809eff62" y="565.915194"/>
    </g>
   </g>
   <g id="line2d_42">
    <g clip-path="url(#p53a452e359)">
     <use style="stroke:#000000;" x="375.400026" xlink:href="#m307199a5c1" y="402.209152"/>
    </g>
   </g>
   <g id="line2d_43">
    <g clip-path="url(#p53a452e359)">
     <use style="stroke:#000000;" x="232.884262" xlink:href="#m307199a5c1" y="278.452107"/>
    </g>
   </g>
   <g id="line2d_44">
    <g clip-path="url(#p53a452e359)">
     <use style="stroke:#000000;" x="230.727273" xlink:href="#m307199a5c1" y="276.383729"/>
    </g>
   </g>
   <g id="line2d_45">
    <g clip-path="url(#p53a452e359)">
     <use style="fill:#9e0142;stroke:#000000;" x="1234.965145" xlink:href="#mc2809eff62" y="566.138933"/>
    </g>
   </g>
   <g id="line2d_46">
    <g clip-path="url(#p53a452e359)">
     <use style="fill:#9e0142;stroke:#000000;" x="1228.96264" xlink:href="#mc2809eff62" y="566.858286"/>
    </g>
   </g>
   <g id="line2d_47">
    <g clip-path="url(#p53a452e359)">
     <use style="fill:#9e0142;stroke:#000000;" x="1241.480848" xlink:href="#mc2809eff62" y="567.020491"/>
    </g>
   </g>
   <g id="line2d_48">
    <g clip-path="url(#p53a452e359)">
     <use style="stroke:#000000;" x="1058.114015" xlink:href="#m307199a5c1" y="522.927562"/>
    </g>
   </g>
   <g id="line2d_49">
    <g clip-path="url(#p53a452e359)">
     <use style="fill:#fdbf6f;stroke:#000000;" x="1137.274551" xlink:href="#m24f549abb1" y="683.399896"/>
    </g>
   </g>
   <g id="line2d_50">
    <g clip-path="url(#p53a452e359)">
     <use style="fill:#9e0142;stroke:#000000;" x="1241.320919" xlink:href="#mc2809eff62" y="566.24059"/>
    </g>
   </g>
   <g id="line2d_51">
    <g clip-path="url(#p53a452e359)">
     <use style="fill:#9e0142;stroke:#000000;" x="1241.945365" xlink:href="#mc2809eff62" y="565.463166"/>
    </g>
   </g>
   <g id="line2d_52">
    <g clip-path="url(#p53a452e359)">
     <use style="stroke:#000000;" x="1135.351646" xlink:href="#m307199a5c1" y="540.244573"/>
    </g>
   </g>
   <g id="line2d_53">
    <g clip-path="url(#p53a452e359)">
     <use style="fill:#9e0142;stroke:#000000;" x="1236.050749" xlink:href="#mc2809eff62" y="567.422934"/>
    </g>
   </g>
   <g id="line2d_54">
    <g clip-path="url(#p53a452e359)">
     <use style="stroke:#000000;" x="444.504735" xlink:href="#m307199a5c1" y="245.606502"/>
    </g>
   </g>
   <g id="line2d_55">
    <g clip-path="url(#p53a452e359)">
     <use style="fill:#9e0142;stroke:#000000;" x="1244.24486" xlink:href="#mc2809eff62" y="567.146981"/>
    </g>
   </g>
   <g id="line2d_56">
    <g clip-path="url(#p53a452e359)">
     <use style="fill:#bfe5a0;stroke:#000000;" x="1023.349639" xlink:href="#mc1d7d81bc7" y="1231.2"/>
    </g>
   </g>
   <g id="line2d_57">
    <g clip-path="url(#p53a452e359)">
     <use style="stroke:#000000;" x="660.072617" xlink:href="#m307199a5c1" y="966.586152"/>
    </g>
   </g>
   <g id="line2d_58">
    <g clip-path="url(#p53a452e359)">
     <use style="fill:#9e0142;stroke:#000000;" x="1238.076893" xlink:href="#mc2809eff62" y="565.455257"/>
    </g>
   </g>
   <g id="line2d_59">
    <g clip-path="url(#p53a452e359)">
     <use style="fill:#9e0142;stroke:#000000;" x="1231.152523" xlink:href="#mc2809eff62" y="566.593342"/>
    </g>
   </g>
   <g id="line2d_60">
    <g clip-path="url(#p53a452e359)">
     <use style="fill:#9e0142;stroke:#000000;" x="1241.880616" xlink:href="#mc2809eff62" y="566.576875"/>
    </g>
   </g>
   <g id="line2d_61">
    <g clip-path="url(#p53a452e359)">
     <use style="fill:#9e0142;stroke:#000000;" x="1231.918173" xlink:href="#mc2809eff62" y="567.41001"/>
    </g>
   </g>
   <g id="line2d_62">
    <g clip-path="url(#p53a452e359)">
     <use style="fill:#9e0142;stroke:#000000;" x="1241.214068" xlink:href="#mc2809eff62" y="566.546393"/>
    </g>
   </g>
   <g id="line2d_63">
    <g clip-path="url(#p53a452e359)">
     <use style="fill:#9e0142;stroke:#000000;" x="1228.514521" xlink:href="#mc2809eff62" y="567.578498"/>
    </g>
   </g>
   <g id="line2d_64">
    <g clip-path="url(#p53a452e359)">
     <use style="fill:#9e0142;stroke:#000000;" x="1235.752058" xlink:href="#mc2809eff62" y="565.753088"/>
    </g>
   </g>
   <g id="line2d_65">
    <g clip-path="url(#p53a452e359)">
     <use style="fill:#9e0142;stroke:#000000;" x="1229.226018" xlink:href="#mc2809eff62" y="566.926218"/>
    </g>
   </g>
   <g id="line2d_66">
    <g clip-path="url(#p53a452e359)">
     <use style="fill:#9e0142;stroke:#000000;" x="1243.216966" xlink:href="#mc2809eff62" y="565.566074"/>
    </g>
   </g>
   <g id="line2d_67">
    <g clip-path="url(#p53a452e359)">
     <use style="stroke:#000000;" x="1021.924074" xlink:href="#m307199a5c1" y="1091.594091"/>
    </g>
   </g>
   <g id="line2d_68">
    <g clip-path="url(#p53a452e359)">
     <use style="fill:#bfe5a0;stroke:#000000;" x="1034.331422" xlink:href="#mc1d7d81bc7" y="1227.402951"/>
    </g>
   </g>
   <g id="line2d_69">
    <g clip-path="url(#p53a452e359)">
     <use style="fill:#bfe5a0;stroke:#000000;" x="1034.309622" xlink:href="#mc1d7d81bc7" y="1230.600053"/>
    </g>
   </g>
   <g id="line2d_70">
    <g clip-path="url(#p53a452e359)">
     <use style="fill:#9e0142;stroke:#000000;" x="1228.693445" xlink:href="#mc2809eff62" y="566.440862"/>
    </g>
   </g>
   <g id="line2d_71">
    <g clip-path="url(#p53a452e359)">
     <use style="fill:#9e0142;stroke:#000000;" x="1233.987387" xlink:href="#mc2809eff62" y="566.334613"/>
    </g>
   </g>
   <g id="line2d_72">
    <g clip-path="url(#p53a452e359)">
     <use style="stroke:#000000;" x="834.350427" xlink:href="#m307199a5c1" y="450.293069"/>
    </g>
   </g>
   <g id="line2d_73">
    <g clip-path="url(#p53a452e359)">
     <use style="fill:#9e0142;stroke:#000000;" x="1241.787167" xlink:href="#mc2809eff62" y="566.918766"/>
    </g>
   </g>
   <g id="line2d_74">
    <g clip-path="url(#p53a452e359)">
     <use style="fill:#9e0142;stroke:#000000;" x="1242.993976" xlink:href="#mc2809eff62" y="566.392089"/>
    </g>
   </g>
   <g id="line2d_75">
    <g clip-path="url(#p53a452e359)">
     <use style="fill:#9e0142;stroke:#000000;" x="1244.310388" xlink:href="#mc2809eff62" y="565.485606"/>
    </g>
   </g>
   <g id="line2d_76">
    <g clip-path="url(#p53a452e359)">
     <use style="fill:#bfe5a0;stroke:#000000;" x="1022.856252" xlink:href="#mc1d7d81bc7" y="1221.659543"/>
    </g>
   </g>
   <g id="line2d_77">
    <g clip-path="url(#p53a452e359)">
     <use style="fill:#9e0142;stroke:#000000;" x="1240.548983" xlink:href="#mc2809eff62" y="567.210228"/>
    </g>
   </g>
   <g id="line2d_78">
    <g clip-path="url(#p53a452e359)">
     <use style="fill:#bfe5a0;stroke:#000000;" x="1032.168539" xlink:href="#mc1d7d81bc7" y="1227.698694"/>
    </g>
   </g>
   <g id="line2d_79">
    <g clip-path="url(#p53a452e359)">
     <use style="fill:#9e0142;stroke:#000000;" x="1234.108064" xlink:href="#mc2809eff62" y="567.225835"/>
    </g>
   </g>
   <g id="line2d_80">
    <g clip-path="url(#p53a452e359)">
     <use style="fill:#9e0142;stroke:#000000;" x="1230.151926" xlink:href="#mc2809eff62" y="567.222537"/>
    </g>
   </g>
   <g id="line2d_81">
    <g clip-path="url(#p53a452e359)">
     <use style="fill:#bfe5a0;stroke:#000000;" x="1023.394817" xlink:href="#mc1d7d81bc7" y="1227.246918"/>
    </g>
   </g>
   <g id="line2d_82">
    <g clip-path="url(#p53a452e359)">
     <use style="fill:#9e0142;stroke:#000000;" x="1239.123521" xlink:href="#mc2809eff62" y="566.988363"/>
    </g>
   </g>
   <g id="line2d_83">
    <g clip-path="url(#p53a452e359)">
     <use style="fill:#9e0142;stroke:#000000;" x="1241.615074" xlink:href="#mc2809eff62" y="566.100337"/>
    </g>
   </g>
   <g id="line2d_84">
    <g clip-path="url(#p53a452e359)">
     <use style="fill:#9e0142;stroke:#000000;" x="1229.658216" xlink:href="#mc2809eff62" y="566.293729"/>
    </g>
   </g>
   <g id="line2d_85">
    <g clip-path="url(#p53a452e359)">
     <use style="fill:#9e0142;stroke:#000000;" x="1238.91743" xlink:href="#mc2809eff62" y="566.211565"/>
    </g>
   </g>
   <g id="line2d_86">
    <g clip-path="url(#p53a452e359)">
     <use style="fill:#9e0142;stroke:#000000;" x="1229.580741" xlink:href="#mc2809eff62" y="566.111195"/>
    </g>
   </g>
   <g id="line2d_87">
    <g clip-path="url(#p53a452e359)">
     <use style="fill:#9e0142;stroke:#000000;" x="1231.769861" xlink:href="#mc2809eff62" y="566.151075"/>
    </g>
   </g>
   <g id="line2d_88">
    <g clip-path="url(#p53a452e359)">
     <use style="fill:#9e0142;stroke:#000000;" x="1231.070805" xlink:href="#mc2809eff62" y="566.257635"/>
    </g>
   </g>
   <g id="line2d_89">
    <g clip-path="url(#p53a452e359)">
     <use style="fill:#9e0142;stroke:#000000;" x="1241.946499" xlink:href="#mc2809eff62" y="567.462289"/>
    </g>
   </g>
   <g id="line2d_90">
    <g clip-path="url(#p53a452e359)">
     <use style="fill:#9e0142;stroke:#000000;" x="1241.520344" xlink:href="#mc2809eff62" y="565.493155"/>
    </g>
   </g>
   <g id="line2d_91">
    <g clip-path="url(#p53a452e359)">
     <use style="fill:#bfe5a0;stroke:#000000;" x="1026.255121" xlink:href="#mc1d7d81bc7" y="1230.960452"/>
    </g>
   </g>
   <g id="line2d_92">
    <g clip-path="url(#p53a452e359)">
     <use style="fill:#9e0142;stroke:#000000;" x="1236.445539" xlink:href="#mc2809eff62" y="566.259084"/>
    </g>
   </g>
   <g id="line2d_93">
    <g clip-path="url(#p53a452e359)">
     <use style="fill:#9e0142;stroke:#000000;" x="1238.759552" xlink:href="#mc2809eff62" y="567.022075"/>
    </g>
   </g>
   <g id="line2d_94">
    <g clip-path="url(#p53a452e359)">
     <use style="fill:#9e0142;stroke:#000000;" x="1235.342741" xlink:href="#mc2809eff62" y="566.242102"/>
    </g>
   </g>
   <g id="line2d_95">
    <g clip-path="url(#p53a452e359)">
     <use style="fill:#bfe5a0;stroke:#000000;" x="1034.326666" xlink:href="#mc1d7d81bc7" y="1228.095071"/>
    </g>
   </g>
   <g id="line2d_96">
    <g clip-path="url(#p53a452e359)">
     <use style="fill:#9e0142;stroke:#000000;" x="1229.817748" xlink:href="#mc2809eff62" y="565.691572"/>
    </g>
   </g>
   <g id="line2d_97">
    <g clip-path="url(#p53a452e359)">
     <use style="fill:#bfe5a0;stroke:#000000;" x="1029.086644" xlink:href="#mc1d7d81bc7" y="1227.803676"/>
    </g>
   </g>
   <g id="line2d_98">
    <g clip-path="url(#p53a452e359)">
     <use style="stroke:#000000;" x="231.564497" xlink:href="#m307199a5c1" y="274.513096"/>
    </g>
   </g>
   <g id="line2d_99">
    <g clip-path="url(#p53a452e359)">
     <use style="stroke:#000000;" x="938.770807" xlink:href="#m307199a5c1" y="496.819493"/>
    </g>
   </g>
   <g id="line2d_100">
    <g clip-path="url(#p53a452e359)">
     <use style="fill:#9e0142;stroke:#000000;" x="1245.141264" xlink:href="#mc2809eff62" y="566.860323"/>
    </g>
   </g>
   <g id="line2d_101">
    <g clip-path="url(#p53a452e359)">
     <use style="stroke:#000000;" x="444.890354" xlink:href="#m307199a5c1" y="245.714613"/>
    </g>
   </g>
   <g id="line2d_102">
    <g clip-path="url(#p53a452e359)">
     <use style="fill:#9e0142;stroke:#000000;" x="1238.724446" xlink:href="#mc2809eff62" y="566.335549"/>
    </g>
   </g>
   <g id="line2d_103">
    <g clip-path="url(#p53a452e359)">
     <use style="fill:#fdbf6f;stroke:#000000;" x="1124.645387" xlink:href="#m24f549abb1" y="683.426164"/>
    </g>
   </g>
   <g id="patch_3">
    <path d="M 180 1281.6 
L 180 172.8 
" style="fill:none;stroke:#000000;stroke-linecap:square;stroke-linejoin:miter;stroke-width:0.8;"/>
   </g>
   <g id="patch_4">
    <path d="M 1296 1281.6 
L 1296 172.8 
" style="fill:none;stroke:#000000;stroke-linecap:square;stroke-linejoin:miter;stroke-width:0.8;"/>
   </g>
   <g id="patch_5">
    <path d="M 180 1281.6 
L 1296 1281.6 
" style="fill:none;stroke:#000000;stroke-linecap:square;stroke-linejoin:miter;stroke-width:0.8;"/>
   </g>
   <g id="patch_6">
    <path d="M 180 172.8 
L 1296 172.8 
" style="fill:none;stroke:#000000;stroke-linecap:square;stroke-linejoin:miter;stroke-width:0.8;"/>
   </g>
  </g>
 </g>
 <defs>
  <clipPath id="p53a452e359">
   <rect height="1108.8" width="1116" x="180" y="172.8"/>
  </clipPath>
 </defs>
</svg>
