<?xml version="1.0" encoding="utf-8" standalone="no"?>
<!DOCTYPE svg PUBLIC "-//W3C//DTD SVG 1.1//EN"
  "http://www.w3.org/Graphics/SVG/1.1/DTD/svg11.dtd">
<!-- Created with matplotlib (https://matplotlib.org/) -->
<svg height="1440pt" version="1.1" viewBox="0 0 1440 1440" width="1440pt" xmlns="http://www.w3.org/2000/svg" xmlns:xlink="http://www.w3.org/1999/xlink">
 <defs>
  <style type="text/css">
*{stroke-linecap:butt;stroke-linejoin:round;}
  </style>
 </defs>
 <g id="figure_1">
  <g id="patch_1">
   <path d="M 0 1440 
L 1440 1440 
L 1440 0 
L 0 0 
z
" style="fill:#ffffff;"/>
  </g>
  <g id="axes_1">
   <g id="patch_2">
    <path d="M 180 1281.6 
L 1296 1281.6 
L 1296 172.8 
L 180 172.8 
z
" style="fill:#ffffff;"/>
   </g>
   <g id="matplotlib.axis_1">
    <g id="xtick_1">
     <g id="line2d_1">
      <defs>
       <path d="M 0 0 
L 0 3.5 
" id="mb72d91b353" style="stroke:#000000;stroke-width:0.8;"/>
      </defs>
      <g>
       <use style="stroke:#000000;stroke-width:0.8;" x="314.749869" xlink:href="#mb72d91b353" y="1281.6"/>
      </g>
     </g>
     <g id="text_1">
      <!-- −0.04 -->
      <defs>
       <path d="M 10.59375 35.5 
L 73.1875 35.5 
L 73.1875 27.203125 
L 10.59375 27.203125 
z
" id="DejaVuSans-8722"/>
       <path d="M 31.78125 66.40625 
Q 24.171875 66.40625 20.328125 58.90625 
Q 16.5 51.421875 16.5 36.375 
Q 16.5 21.390625 20.328125 13.890625 
Q 24.171875 6.390625 31.78125 6.390625 
Q 39.453125 6.390625 43.28125 13.890625 
Q 47.125 21.390625 47.125 36.375 
Q 47.125 51.421875 43.28125 58.90625 
Q 39.453125 66.40625 31.78125 66.40625 
z
M 31.78125 74.21875 
Q 44.046875 74.21875 50.515625 64.515625 
Q 56.984375 54.828125 56.984375 36.375 
Q 56.984375 17.96875 50.515625 8.265625 
Q 44.046875 -1.421875 31.78125 -1.421875 
Q 19.53125 -1.421875 13.0625 8.265625 
Q 6.59375 17.96875 6.59375 36.375 
Q 6.59375 54.828125 13.0625 64.515625 
Q 19.53125 74.21875 31.78125 74.21875 
z
" id="DejaVuSans-48"/>
       <path d="M 10.6875 12.40625 
L 21 12.40625 
L 21 0 
L 10.6875 0 
z
" id="DejaVuSans-46"/>
       <path d="M 37.796875 64.3125 
L 12.890625 25.390625 
L 37.796875 25.390625 
z
M 35.203125 72.90625 
L 47.609375 72.90625 
L 47.609375 25.390625 
L 58.015625 25.390625 
L 58.015625 17.1875 
L 47.609375 17.1875 
L 47.609375 0 
L 37.796875 0 
L 37.796875 17.1875 
L 4.890625 17.1875 
L 4.890625 26.703125 
z
" id="DejaVuSans-52"/>
      </defs>
      <g transform="translate(299.427213 1296.198437)scale(0.1 -0.1)">
       <use xlink:href="#DejaVuSans-8722"/>
       <use x="83.789062" xlink:href="#DejaVuSans-48"/>
       <use x="147.412109" xlink:href="#DejaVuSans-46"/>
       <use x="179.199219" xlink:href="#DejaVuSans-48"/>
       <use x="242.822266" xlink:href="#DejaVuSans-52"/>
      </g>
     </g>
    </g>
    <g id="xtick_2">
     <g id="line2d_2">
      <g>
       <use style="stroke:#000000;stroke-width:0.8;" x="451.821112" xlink:href="#mb72d91b353" y="1281.6"/>
      </g>
     </g>
     <g id="text_2">
      <!-- −0.02 -->
      <defs>
       <path d="M 19.1875 8.296875 
L 53.609375 8.296875 
L 53.609375 0 
L 7.328125 0 
L 7.328125 8.296875 
Q 12.9375 14.109375 22.625 23.890625 
Q 32.328125 33.6875 34.8125 36.53125 
Q 39.546875 41.84375 41.421875 45.53125 
Q 43.3125 49.21875 43.3125 52.78125 
Q 43.3125 58.59375 39.234375 62.25 
Q 35.15625 65.921875 28.609375 65.921875 
Q 23.96875 65.921875 18.8125 64.3125 
Q 13.671875 62.703125 7.8125 59.421875 
L 7.8125 69.390625 
Q 13.765625 71.78125 18.9375 73 
Q 24.125 74.21875 28.421875 74.21875 
Q 39.75 74.21875 46.484375 68.546875 
Q 53.21875 62.890625 53.21875 53.421875 
Q 53.21875 48.921875 51.53125 44.890625 
Q 49.859375 40.875 45.40625 35.40625 
Q 44.1875 33.984375 37.640625 27.21875 
Q 31.109375 20.453125 19.1875 8.296875 
z
" id="DejaVuSans-50"/>
      </defs>
      <g transform="translate(436.498456 1296.198437)scale(0.1 -0.1)">
       <use xlink:href="#DejaVuSans-8722"/>
       <use x="83.789062" xlink:href="#DejaVuSans-48"/>
       <use x="147.412109" xlink:href="#DejaVuSans-46"/>
       <use x="179.199219" xlink:href="#DejaVuSans-48"/>
       <use x="242.822266" xlink:href="#DejaVuSans-50"/>
      </g>
     </g>
    </g>
    <g id="xtick_3">
     <g id="line2d_3">
      <g>
       <use style="stroke:#000000;stroke-width:0.8;" x="588.892355" xlink:href="#mb72d91b353" y="1281.6"/>
      </g>
     </g>
     <g id="text_3">
      <!-- 0.00 -->
      <g transform="translate(577.759542 1296.198437)scale(0.1 -0.1)">
       <use xlink:href="#DejaVuSans-48"/>
       <use x="63.623047" xlink:href="#DejaVuSans-46"/>
       <use x="95.410156" xlink:href="#DejaVuSans-48"/>
       <use x="159.033203" xlink:href="#DejaVuSans-48"/>
      </g>
     </g>
    </g>
    <g id="xtick_4">
     <g id="line2d_4">
      <g>
       <use style="stroke:#000000;stroke-width:0.8;" x="725.963598" xlink:href="#mb72d91b353" y="1281.6"/>
      </g>
     </g>
     <g id="text_4">
      <!-- 0.02 -->
      <g transform="translate(714.830785 1296.198437)scale(0.1 -0.1)">
       <use xlink:href="#DejaVuSans-48"/>
       <use x="63.623047" xlink:href="#DejaVuSans-46"/>
       <use x="95.410156" xlink:href="#DejaVuSans-48"/>
       <use x="159.033203" xlink:href="#DejaVuSans-50"/>
      </g>
     </g>
    </g>
    <g id="xtick_5">
     <g id="line2d_5">
      <g>
       <use style="stroke:#000000;stroke-width:0.8;" x="863.034841" xlink:href="#mb72d91b353" y="1281.6"/>
      </g>
     </g>
     <g id="text_5">
      <!-- 0.04 -->
      <g transform="translate(851.902028 1296.198437)scale(0.1 -0.1)">
       <use xlink:href="#DejaVuSans-48"/>
       <use x="63.623047" xlink:href="#DejaVuSans-46"/>
       <use x="95.410156" xlink:href="#DejaVuSans-48"/>
       <use x="159.033203" xlink:href="#DejaVuSans-52"/>
      </g>
     </g>
    </g>
    <g id="xtick_6">
     <g id="line2d_6">
      <g>
       <use style="stroke:#000000;stroke-width:0.8;" x="1000.106084" xlink:href="#mb72d91b353" y="1281.6"/>
      </g>
     </g>
     <g id="text_6">
      <!-- 0.06 -->
      <defs>
       <path d="M 33.015625 40.375 
Q 26.375 40.375 22.484375 35.828125 
Q 18.609375 31.296875 18.609375 23.390625 
Q 18.609375 15.53125 22.484375 10.953125 
Q 26.375 6.390625 33.015625 6.390625 
Q 39.65625 6.390625 43.53125 10.953125 
Q 47.40625 15.53125 47.40625 23.390625 
Q 47.40625 31.296875 43.53125 35.828125 
Q 39.65625 40.375 33.015625 40.375 
z
M 52.59375 71.296875 
L 52.59375 62.3125 
Q 48.875 64.0625 45.09375 64.984375 
Q 41.3125 65.921875 37.59375 65.921875 
Q 27.828125 65.921875 22.671875 59.328125 
Q 17.53125 52.734375 16.796875 39.40625 
Q 19.671875 43.65625 24.015625 45.921875 
Q 28.375 48.1875 33.59375 48.1875 
Q 44.578125 48.1875 50.953125 41.515625 
Q 57.328125 34.859375 57.328125 23.390625 
Q 57.328125 12.15625 50.6875 5.359375 
Q 44.046875 -1.421875 33.015625 -1.421875 
Q 20.359375 -1.421875 13.671875 8.265625 
Q 6.984375 17.96875 6.984375 36.375 
Q 6.984375 53.65625 15.1875 63.9375 
Q 23.390625 74.21875 37.203125 74.21875 
Q 40.921875 74.21875 44.703125 73.484375 
Q 48.484375 72.75 52.59375 71.296875 
z
" id="DejaVuSans-54"/>
      </defs>
      <g transform="translate(988.973271 1296.198437)scale(0.1 -0.1)">
       <use xlink:href="#DejaVuSans-48"/>
       <use x="63.623047" xlink:href="#DejaVuSans-46"/>
       <use x="95.410156" xlink:href="#DejaVuSans-48"/>
       <use x="159.033203" xlink:href="#DejaVuSans-54"/>
      </g>
     </g>
    </g>
    <g id="xtick_7">
     <g id="line2d_7">
      <g>
       <use style="stroke:#000000;stroke-width:0.8;" x="1137.177327" xlink:href="#mb72d91b353" y="1281.6"/>
      </g>
     </g>
     <g id="text_7">
      <!-- 0.08 -->
      <defs>
       <path d="M 31.78125 34.625 
Q 24.75 34.625 20.71875 30.859375 
Q 16.703125 27.09375 16.703125 20.515625 
Q 16.703125 13.921875 20.71875 10.15625 
Q 24.75 6.390625 31.78125 6.390625 
Q 38.8125 6.390625 42.859375 10.171875 
Q 46.921875 13.96875 46.921875 20.515625 
Q 46.921875 27.09375 42.890625 30.859375 
Q 38.875 34.625 31.78125 34.625 
z
M 21.921875 38.8125 
Q 15.578125 40.375 12.03125 44.71875 
Q 8.5 49.078125 8.5 55.328125 
Q 8.5 64.0625 14.71875 69.140625 
Q 20.953125 74.21875 31.78125 74.21875 
Q 42.671875 74.21875 48.875 69.140625 
Q 55.078125 64.0625 55.078125 55.328125 
Q 55.078125 49.078125 51.53125 44.71875 
Q 48 40.375 41.703125 38.8125 
Q 48.828125 37.15625 52.796875 32.3125 
Q 56.78125 27.484375 56.78125 20.515625 
Q 56.78125 9.90625 50.3125 4.234375 
Q 43.84375 -1.421875 31.78125 -1.421875 
Q 19.734375 -1.421875 13.25 4.234375 
Q 6.78125 9.90625 6.78125 20.515625 
Q 6.78125 27.484375 10.78125 32.3125 
Q 14.796875 37.15625 21.921875 38.8125 
z
M 18.3125 54.390625 
Q 18.3125 48.734375 21.84375 45.5625 
Q 25.390625 42.390625 31.78125 42.390625 
Q 38.140625 42.390625 41.71875 45.5625 
Q 45.3125 48.734375 45.3125 54.390625 
Q 45.3125 60.0625 41.71875 63.234375 
Q 38.140625 66.40625 31.78125 66.40625 
Q 25.390625 66.40625 21.84375 63.234375 
Q 18.3125 60.0625 18.3125 54.390625 
z
" id="DejaVuSans-56"/>
      </defs>
      <g transform="translate(1126.044514 1296.198437)scale(0.1 -0.1)">
       <use xlink:href="#DejaVuSans-48"/>
       <use x="63.623047" xlink:href="#DejaVuSans-46"/>
       <use x="95.410156" xlink:href="#DejaVuSans-48"/>
       <use x="159.033203" xlink:href="#DejaVuSans-56"/>
      </g>
     </g>
    </g>
    <g id="xtick_8">
     <g id="line2d_8">
      <g>
       <use style="stroke:#000000;stroke-width:0.8;" x="1274.248569" xlink:href="#mb72d91b353" y="1281.6"/>
      </g>
     </g>
     <g id="text_8">
      <!-- 0.10 -->
      <defs>
       <path d="M 12.40625 8.296875 
L 28.515625 8.296875 
L 28.515625 63.921875 
L 10.984375 60.40625 
L 10.984375 69.390625 
L 28.421875 72.90625 
L 38.28125 72.90625 
L 38.28125 8.296875 
L 54.390625 8.296875 
L 54.390625 0 
L 12.40625 0 
z
" id="DejaVuSans-49"/>
      </defs>
      <g transform="translate(1263.115757 1296.198437)scale(0.1 -0.1)">
       <use xlink:href="#DejaVuSans-48"/>
       <use x="63.623047" xlink:href="#DejaVuSans-46"/>
       <use x="95.410156" xlink:href="#DejaVuSans-49"/>
       <use x="159.033203" xlink:href="#DejaVuSans-48"/>
      </g>
     </g>
    </g>
   </g>
   <g id="matplotlib.axis_2">
    <g id="ytick_1">
     <g id="line2d_9">
      <defs>
       <path d="M 0 0 
L -3.5 0 
" id="m1a30913291" style="stroke:#000000;stroke-width:0.8;"/>
      </defs>
      <g>
       <use style="stroke:#000000;stroke-width:0.8;" x="180" xlink:href="#m1a30913291" y="1092.85212"/>
      </g>
     </g>
     <g id="text_9">
      <!-- −0.1 -->
      <g transform="translate(148.717187 1096.651339)scale(0.1 -0.1)">
       <use xlink:href="#DejaVuSans-8722"/>
       <use x="83.789062" xlink:href="#DejaVuSans-48"/>
       <use x="147.412109" xlink:href="#DejaVuSans-46"/>
       <use x="179.199219" xlink:href="#DejaVuSans-49"/>
      </g>
     </g>
    </g>
    <g id="ytick_2">
     <g id="line2d_10">
      <g>
       <use style="stroke:#000000;stroke-width:0.8;" x="180" xlink:href="#m1a30913291" y="883.414185"/>
      </g>
     </g>
     <g id="text_10">
      <!-- 0.0 -->
      <g transform="translate(157.096875 887.213404)scale(0.1 -0.1)">
       <use xlink:href="#DejaVuSans-48"/>
       <use x="63.623047" xlink:href="#DejaVuSans-46"/>
       <use x="95.410156" xlink:href="#DejaVuSans-48"/>
      </g>
     </g>
    </g>
    <g id="ytick_3">
     <g id="line2d_11">
      <g>
       <use style="stroke:#000000;stroke-width:0.8;" x="180" xlink:href="#m1a30913291" y="673.976251"/>
      </g>
     </g>
     <g id="text_11">
      <!-- 0.1 -->
      <g transform="translate(157.096875 677.775469)scale(0.1 -0.1)">
       <use xlink:href="#DejaVuSans-48"/>
       <use x="63.623047" xlink:href="#DejaVuSans-46"/>
       <use x="95.410156" xlink:href="#DejaVuSans-49"/>
      </g>
     </g>
    </g>
    <g id="ytick_4">
     <g id="line2d_12">
      <g>
       <use style="stroke:#000000;stroke-width:0.8;" x="180" xlink:href="#m1a30913291" y="464.538316"/>
      </g>
     </g>
     <g id="text_12">
      <!-- 0.2 -->
      <g transform="translate(157.096875 468.337535)scale(0.1 -0.1)">
       <use xlink:href="#DejaVuSans-48"/>
       <use x="63.623047" xlink:href="#DejaVuSans-46"/>
       <use x="95.410156" xlink:href="#DejaVuSans-50"/>
      </g>
     </g>
    </g>
    <g id="ytick_5">
     <g id="line2d_13">
      <g>
       <use style="stroke:#000000;stroke-width:0.8;" x="180" xlink:href="#m1a30913291" y="255.100381"/>
      </g>
     </g>
     <g id="text_13">
      <!-- 0.3 -->
      <defs>
       <path d="M 40.578125 39.3125 
Q 47.65625 37.796875 51.625 33 
Q 55.609375 28.21875 55.609375 21.1875 
Q 55.609375 10.40625 48.1875 4.484375 
Q 40.765625 -1.421875 27.09375 -1.421875 
Q 22.515625 -1.421875 17.65625 -0.515625 
Q 12.796875 0.390625 7.625 2.203125 
L 7.625 11.71875 
Q 11.71875 9.328125 16.59375 8.109375 
Q 21.484375 6.890625 26.8125 6.890625 
Q 36.078125 6.890625 40.9375 10.546875 
Q 45.796875 14.203125 45.796875 21.1875 
Q 45.796875 27.640625 41.28125 31.265625 
Q 36.765625 34.90625 28.71875 34.90625 
L 20.21875 34.90625 
L 20.21875 43.015625 
L 29.109375 43.015625 
Q 36.375 43.015625 40.234375 45.921875 
Q 44.09375 48.828125 44.09375 54.296875 
Q 44.09375 59.90625 40.109375 62.90625 
Q 36.140625 65.921875 28.71875 65.921875 
Q 24.65625 65.921875 20.015625 65.03125 
Q 15.375 64.15625 9.8125 62.3125 
L 9.8125 71.09375 
Q 15.4375 72.65625 20.34375 73.4375 
Q 25.25 74.21875 29.59375 74.21875 
Q 40.828125 74.21875 47.359375 69.109375 
Q 53.90625 64.015625 53.90625 55.328125 
Q 53.90625 49.265625 50.4375 45.09375 
Q 46.96875 40.921875 40.578125 39.3125 
z
" id="DejaVuSans-51"/>
      </defs>
      <g transform="translate(157.096875 258.8996)scale(0.1 -0.1)">
       <use xlink:href="#DejaVuSans-48"/>
       <use x="63.623047" xlink:href="#DejaVuSans-46"/>
       <use x="95.410156" xlink:href="#DejaVuSans-51"/>
      </g>
     </g>
    </g>
   </g>
   <g id="line2d_14">
    <defs>
     <path d="M 0 9 
C 2.386828 9 4.676219 8.051703 6.363961 6.363961 
C 8.051703 4.676219 9 2.386828 9 0 
C 9 -2.386828 8.051703 -4.676219 6.363961 -6.363961 
C 4.676219 -8.051703 2.386828 -9 0 -9 
C -2.386828 -9 -4.676219 -8.051703 -6.363961 -6.363961 
C -8.051703 -4.676219 -9 -2.386828 -9 0 
C -9 2.386828 -8.051703 4.676219 -6.363961 6.363961 
C -4.676219 8.051703 -2.386828 9 0 9 
z
" id="m503e1451c7" style="stroke:#000000;"/>
    </defs>
    <g clip-path="url(#p527d4d3667)">
     <use style="fill:#9e0142;stroke:#000000;" x="1240.628967" xlink:href="#m503e1451c7" y="886.875398"/>
    </g>
   </g>
   <g id="line2d_15">
    <g clip-path="url(#p527d4d3667)">
     <use style="fill:#9e0142;stroke:#000000;" x="1235.784349" xlink:href="#m503e1451c7" y="886.902343"/>
    </g>
   </g>
   <g id="line2d_16">
    <g clip-path="url(#p527d4d3667)">
     <use style="fill:#9e0142;stroke:#000000;" x="1234.310477" xlink:href="#m503e1451c7" y="886.854288"/>
    </g>
   </g>
   <g id="line2d_17">
    <g clip-path="url(#p527d4d3667)">
     <use style="fill:#9e0142;stroke:#000000;" x="1240.97628" xlink:href="#m503e1451c7" y="886.855961"/>
    </g>
   </g>
   <g id="line2d_18">
    <g clip-path="url(#p527d4d3667)">
     <use style="fill:#9e0142;stroke:#000000;" x="1243.634766" xlink:href="#m503e1451c7" y="886.912722"/>
    </g>
   </g>
   <g id="line2d_19">
    <g clip-path="url(#p527d4d3667)">
     <use style="fill:#9e0142;stroke:#000000;" x="1232.726267" xlink:href="#m503e1451c7" y="886.901634"/>
    </g>
   </g>
   <g id="line2d_20">
    <g clip-path="url(#p527d4d3667)">
     <use style="fill:#9e0142;stroke:#000000;" x="1245.077979" xlink:href="#m503e1451c7" y="886.888702"/>
    </g>
   </g>
   <g id="line2d_21">
    <g clip-path="url(#p527d4d3667)">
     <use style="fill:#9e0142;stroke:#000000;" x="1235.997192" xlink:href="#m503e1451c7" y="886.882448"/>
    </g>
   </g>
   <g id="line2d_22">
    <g clip-path="url(#p527d4d3667)">
     <use style="fill:#9e0142;stroke:#000000;" x="1241.943644" xlink:href="#m503e1451c7" y="886.871352"/>
    </g>
   </g>
   <g id="line2d_23">
    <g clip-path="url(#p527d4d3667)">
     <use style="fill:#9e0142;stroke:#000000;" x="1232.35989" xlink:href="#m503e1451c7" y="886.872186"/>
    </g>
   </g>
   <g id="line2d_24">
    <g clip-path="url(#p527d4d3667)">
     <use style="fill:#9e0142;stroke:#000000;" x="1244.937113" xlink:href="#m503e1451c7" y="886.859346"/>
    </g>
   </g>
   <g id="line2d_25">
    <g clip-path="url(#p527d4d3667)">
     <use style="fill:#9e0142;stroke:#000000;" x="1238.84063" xlink:href="#m503e1451c7" y="886.908656"/>
    </g>
   </g>
   <g id="line2d_26">
    <g clip-path="url(#p527d4d3667)">
     <use style="fill:#9e0142;stroke:#000000;" x="1233.170269" xlink:href="#m503e1451c7" y="886.886597"/>
    </g>
   </g>
   <g id="line2d_27">
    <g clip-path="url(#p527d4d3667)">
     <use style="fill:#9e0142;stroke:#000000;" x="1237.315353" xlink:href="#m503e1451c7" y="886.868126"/>
    </g>
   </g>
   <g id="line2d_28">
    <g clip-path="url(#p527d4d3667)">
     <use style="fill:#9e0142;stroke:#000000;" x="1243.854609" xlink:href="#m503e1451c7" y="886.898293"/>
    </g>
   </g>
   <g id="line2d_29">
    <g clip-path="url(#p527d4d3667)">
     <use style="fill:#9e0142;stroke:#000000;" x="1240.512416" xlink:href="#m503e1451c7" y="886.872516"/>
    </g>
   </g>
   <g id="line2d_30">
    <g clip-path="url(#p527d4d3667)">
     <use style="fill:#9e0142;stroke:#000000;" x="1243.257385" xlink:href="#m503e1451c7" y="886.909844"/>
    </g>
   </g>
   <g id="line2d_31">
    <g clip-path="url(#p527d4d3667)">
     <use style="fill:#9e0142;stroke:#000000;" x="1235.544552" xlink:href="#m503e1451c7" y="886.855278"/>
    </g>
   </g>
   <g id="line2d_32">
    <g clip-path="url(#p527d4d3667)">
     <use style="fill:#9e0142;stroke:#000000;" x="1234.924768" xlink:href="#m503e1451c7" y="886.851595"/>
    </g>
   </g>
   <g id="line2d_33">
    <g clip-path="url(#p527d4d3667)">
     <use style="fill:#9e0142;stroke:#000000;" x="1244.569703" xlink:href="#m503e1451c7" y="886.853029"/>
    </g>
   </g>
   <g id="line2d_34">
    <defs>
     <path d="M 0 9 
C 2.386828 9 4.676219 8.051703 6.363961 6.363961 
C 8.051703 4.676219 9 2.386828 9 0 
C 9 -2.386828 8.051703 -4.676219 6.363961 -6.363961 
C 4.676219 -8.051703 2.386828 -9 0 -9 
C -2.386828 -9 -4.676219 -8.051703 -6.363961 -6.363961 
C -8.051703 -4.676219 -9 -2.386828 -9 0 
C -9 2.386828 -8.051703 4.676219 -6.363961 6.363961 
C -4.676219 8.051703 -2.386828 9 0 9 
z
" id="m248e5512c5" style="stroke:#000000;"/>
    </defs>
    <g clip-path="url(#p527d4d3667)">
     <use style="fill:#ffffbe;stroke:#000000;" x="610.633808" xlink:href="#m248e5512c5" y="228.230216"/>
    </g>
   </g>
   <g id="line2d_35">
    <g clip-path="url(#p527d4d3667)">
     <use style="fill:#9e0142;stroke:#000000;" x="1233.379615" xlink:href="#m503e1451c7" y="886.856264"/>
    </g>
   </g>
   <g id="line2d_36">
    <defs>
     <path d="M 0 3 
C 0.795609 3 1.55874 2.683901 2.12132 2.12132 
C 2.683901 1.55874 3 0.795609 3 0 
C 3 -0.795609 2.683901 -1.55874 2.12132 -2.12132 
C 1.55874 -2.683901 0.795609 -3 0 -3 
C -0.795609 -3 -1.55874 -2.683901 -2.12132 -2.12132 
C -2.683901 -1.55874 -3 -0.795609 -3 0 
C -3 0.795609 -2.683901 1.55874 -2.12132 2.12132 
C -1.55874 2.683901 -0.795609 3 0 3 
z
" id="m3c14001940" style="stroke:#000000;"/>
    </defs>
    <g clip-path="url(#p527d4d3667)">
     <use style="stroke:#000000;" x="661.533664" xlink:href="#m3c14001940" y="345.47538"/>
    </g>
   </g>
   <g id="line2d_37">
    <g clip-path="url(#p527d4d3667)">
     <use style="fill:#9e0142;stroke:#000000;" x="1233.804605" xlink:href="#m503e1451c7" y="886.898303"/>
    </g>
   </g>
   <g id="line2d_38">
    <g clip-path="url(#p527d4d3667)">
     <use style="fill:#9e0142;stroke:#000000;" x="1232.852912" xlink:href="#m503e1451c7" y="886.859961"/>
    </g>
   </g>
   <g id="line2d_39">
    <g clip-path="url(#p527d4d3667)">
     <use style="fill:#9e0142;stroke:#000000;" x="1243.747378" xlink:href="#m503e1451c7" y="886.882375"/>
    </g>
   </g>
   <g id="line2d_40">
    <g clip-path="url(#p527d4d3667)">
     <use style="fill:#9e0142;stroke:#000000;" x="1235.543896" xlink:href="#m503e1451c7" y="886.866878"/>
    </g>
   </g>
   <g id="line2d_41">
    <g clip-path="url(#p527d4d3667)">
     <use style="stroke:#000000;" x="1030.055492" xlink:href="#m3c14001940" y="648.267162"/>
    </g>
   </g>
   <g id="line2d_42">
    <g clip-path="url(#p527d4d3667)">
     <use style="fill:#ffffbe;stroke:#000000;" x="610.706135" xlink:href="#m248e5512c5" y="223.2492"/>
    </g>
   </g>
   <g id="line2d_43">
    <g clip-path="url(#p527d4d3667)">
     <use style="fill:#9e0142;stroke:#000000;" x="1241.127559" xlink:href="#m503e1451c7" y="886.886834"/>
    </g>
   </g>
   <g id="line2d_44">
    <g clip-path="url(#p527d4d3667)">
     <use style="fill:#9e0142;stroke:#000000;" x="1242.89977" xlink:href="#m503e1451c7" y="886.86573"/>
    </g>
   </g>
   <g id="line2d_45">
    <g clip-path="url(#p527d4d3667)">
     <use style="fill:#9e0142;stroke:#000000;" x="1242.552755" xlink:href="#m503e1451c7" y="886.873695"/>
    </g>
   </g>
   <g id="line2d_46">
    <g clip-path="url(#p527d4d3667)">
     <use style="fill:#9e0142;stroke:#000000;" x="1233.044963" xlink:href="#m503e1451c7" y="886.859041"/>
    </g>
   </g>
   <g id="line2d_47">
    <g clip-path="url(#p527d4d3667)">
     <use style="fill:#9e0142;stroke:#000000;" x="1221.485459" xlink:href="#m503e1451c7" y="903.712449"/>
    </g>
   </g>
   <g id="line2d_48">
    <g clip-path="url(#p527d4d3667)">
     <use style="fill:#9e0142;stroke:#000000;" x="1241.39325" xlink:href="#m503e1451c7" y="886.891483"/>
    </g>
   </g>
   <g id="line2d_49">
    <g clip-path="url(#p527d4d3667)">
     <use style="fill:#ffffbe;stroke:#000000;" x="610.736913" xlink:href="#m248e5512c5" y="224.953792"/>
    </g>
   </g>
   <g id="line2d_50">
    <g clip-path="url(#p527d4d3667)">
     <use style="fill:#9e0142;stroke:#000000;" x="1235.935153" xlink:href="#m503e1451c7" y="886.862926"/>
    </g>
   </g>
   <g id="line2d_51">
    <g clip-path="url(#p527d4d3667)">
     <use style="fill:#9e0142;stroke:#000000;" x="1233.998047" xlink:href="#m503e1451c7" y="886.889991"/>
    </g>
   </g>
   <g id="line2d_52">
    <g clip-path="url(#p527d4d3667)">
     <use style="fill:#9e0142;stroke:#000000;" x="1241.700519" xlink:href="#m503e1451c7" y="886.877666"/>
    </g>
   </g>
   <g id="line2d_53">
    <g clip-path="url(#p527d4d3667)">
     <use style="fill:#9e0142;stroke:#000000;" x="1233.084045" xlink:href="#m503e1451c7" y="886.901282"/>
    </g>
   </g>
   <g id="line2d_54">
    <g clip-path="url(#p527d4d3667)">
     <use style="fill:#9e0142;stroke:#000000;" x="1241.17407" xlink:href="#m503e1451c7" y="886.872275"/>
    </g>
   </g>
   <g id="line2d_55">
    <g clip-path="url(#p527d4d3667)">
     <use style="fill:#9e0142;stroke:#000000;" x="1240.447764" xlink:href="#m503e1451c7" y="886.906308"/>
    </g>
   </g>
   <g id="line2d_56">
    <g clip-path="url(#p527d4d3667)">
     <use style="fill:#9e0142;stroke:#000000;" x="1237.690901" xlink:href="#m503e1451c7" y="886.852519"/>
    </g>
   </g>
   <g id="line2d_57">
    <g clip-path="url(#p527d4d3667)">
     <use style="fill:#9e0142;stroke:#000000;" x="1233.950574" xlink:href="#m503e1451c7" y="886.901233"/>
    </g>
   </g>
   <g id="line2d_58">
    <g clip-path="url(#p527d4d3667)">
     <use style="fill:#9e0142;stroke:#000000;" x="1243.665425" xlink:href="#m503e1451c7" y="886.887901"/>
    </g>
   </g>
   <g id="line2d_59">
    <g clip-path="url(#p527d4d3667)">
     <use style="fill:#9e0142;stroke:#000000;" x="1235.043172" xlink:href="#m503e1451c7" y="886.896163"/>
    </g>
   </g>
   <g id="line2d_60">
    <g clip-path="url(#p527d4d3667)">
     <use style="fill:#9e0142;stroke:#000000;" x="1238.938476" xlink:href="#m503e1451c7" y="886.877477"/>
    </g>
   </g>
   <g id="line2d_61">
    <g clip-path="url(#p527d4d3667)">
     <use style="fill:#9e0142;stroke:#000000;" x="1241.418014" xlink:href="#m503e1451c7" y="886.893713"/>
    </g>
   </g>
   <g id="line2d_62">
    <g clip-path="url(#p527d4d3667)">
     <use style="fill:#9e0142;stroke:#000000;" x="1242.089892" xlink:href="#m503e1451c7" y="886.881611"/>
    </g>
   </g>
   <g id="line2d_63">
    <g clip-path="url(#p527d4d3667)">
     <use style="fill:#9e0142;stroke:#000000;" x="1239.016731" xlink:href="#m503e1451c7" y="886.854827"/>
    </g>
   </g>
   <g id="line2d_64">
    <g clip-path="url(#p527d4d3667)">
     <use style="fill:#9e0142;stroke:#000000;" x="1239.933996" xlink:href="#m503e1451c7" y="886.914985"/>
    </g>
   </g>
   <g id="line2d_65">
    <g clip-path="url(#p527d4d3667)">
     <use style="fill:#9e0142;stroke:#000000;" x="1240.105039" xlink:href="#m503e1451c7" y="886.899063"/>
    </g>
   </g>
   <g id="line2d_66">
    <g clip-path="url(#p527d4d3667)">
     <use style="fill:#9e0142;stroke:#000000;" x="1239.977933" xlink:href="#m503e1451c7" y="886.894477"/>
    </g>
   </g>
   <g id="line2d_67">
    <g clip-path="url(#p527d4d3667)">
     <use style="fill:#9e0142;stroke:#000000;" x="1238.481852" xlink:href="#m503e1451c7" y="886.855289"/>
    </g>
   </g>
   <g id="line2d_68">
    <g clip-path="url(#p527d4d3667)">
     <use style="fill:#9e0142;stroke:#000000;" x="1239.813434" xlink:href="#m503e1451c7" y="886.875707"/>
    </g>
   </g>
   <g id="line2d_69">
    <g clip-path="url(#p527d4d3667)">
     <use style="stroke:#000000;" x="643.038081" xlink:href="#m3c14001940" y="358.222341"/>
    </g>
   </g>
   <g id="line2d_70">
    <g clip-path="url(#p527d4d3667)">
     <use style="fill:#9e0142;stroke:#000000;" x="1238.177429" xlink:href="#m503e1451c7" y="886.86054"/>
    </g>
   </g>
   <g id="line2d_71">
    <g clip-path="url(#p527d4d3667)">
     <use style="fill:#ffffbe;stroke:#000000;" x="610.952973" xlink:href="#m248e5512c5" y="223.854354"/>
    </g>
   </g>
   <g id="line2d_72">
    <g clip-path="url(#p527d4d3667)">
     <use style="fill:#9e0142;stroke:#000000;" x="1238.059962" xlink:href="#m503e1451c7" y="886.91446"/>
    </g>
   </g>
   <g id="line2d_73">
    <g clip-path="url(#p527d4d3667)">
     <use style="fill:#9e0142;stroke:#000000;" x="1235.143506" xlink:href="#m503e1451c7" y="886.882106"/>
    </g>
   </g>
   <g id="line2d_74">
    <g clip-path="url(#p527d4d3667)">
     <use style="fill:#9e0142;stroke:#000000;" x="1233.049857" xlink:href="#m503e1451c7" y="886.903977"/>
    </g>
   </g>
   <g id="line2d_75">
    <g clip-path="url(#p527d4d3667)">
     <use style="fill:#9e0142;stroke:#000000;" x="1237.667937" xlink:href="#m503e1451c7" y="886.866267"/>
    </g>
   </g>
   <g id="line2d_76">
    <g clip-path="url(#p527d4d3667)">
     <use style="fill:#9e0142;stroke:#000000;" x="1243.263332" xlink:href="#m503e1451c7" y="886.913417"/>
    </g>
   </g>
   <g id="line2d_77">
    <g clip-path="url(#p527d4d3667)">
     <use style="fill:#9e0142;stroke:#000000;" x="1234.970435" xlink:href="#m503e1451c7" y="886.913801"/>
    </g>
   </g>
   <g id="line2d_78">
    <g clip-path="url(#p527d4d3667)">
     <use style="fill:#9e0142;stroke:#000000;" x="1238.797739" xlink:href="#m503e1451c7" y="886.854504"/>
    </g>
   </g>
   <g id="line2d_79">
    <g clip-path="url(#p527d4d3667)">
     <use style="fill:#9e0142;stroke:#000000;" x="1238.788191" xlink:href="#m503e1451c7" y="886.864591"/>
    </g>
   </g>
   <g id="line2d_80">
    <g clip-path="url(#p527d4d3667)">
     <use style="fill:#9e0142;stroke:#000000;" x="1239.375978" xlink:href="#m503e1451c7" y="886.863944"/>
    </g>
   </g>
   <g id="line2d_81">
    <g clip-path="url(#p527d4d3667)">
     <use style="fill:#9e0142;stroke:#000000;" x="1234.233339" xlink:href="#m503e1451c7" y="886.873698"/>
    </g>
   </g>
   <g id="line2d_82">
    <g clip-path="url(#p527d4d3667)">
     <use style="fill:#9e0142;stroke:#000000;" x="1242.779988" xlink:href="#m503e1451c7" y="886.890404"/>
    </g>
   </g>
   <g id="line2d_83">
    <g clip-path="url(#p527d4d3667)">
     <use style="fill:#9e0142;stroke:#000000;" x="1240.128854" xlink:href="#m503e1451c7" y="886.857514"/>
    </g>
   </g>
   <g id="line2d_84">
    <g clip-path="url(#p527d4d3667)">
     <use style="fill:#9e0142;stroke:#000000;" x="1243.312593" xlink:href="#m503e1451c7" y="886.906073"/>
    </g>
   </g>
   <g id="line2d_85">
    <g clip-path="url(#p527d4d3667)">
     <use style="fill:#9e0142;stroke:#000000;" x="1237.09031" xlink:href="#m503e1451c7" y="886.90803"/>
    </g>
   </g>
   <g id="line2d_86">
    <g clip-path="url(#p527d4d3667)">
     <use style="fill:#9e0142;stroke:#000000;" x="1240.105917" xlink:href="#m503e1451c7" y="886.876707"/>
    </g>
   </g>
   <g id="line2d_87">
    <g clip-path="url(#p527d4d3667)">
     <use style="fill:#9e0142;stroke:#000000;" x="1242.681149" xlink:href="#m503e1451c7" y="886.911989"/>
    </g>
   </g>
   <g id="line2d_88">
    <g clip-path="url(#p527d4d3667)">
     <use style="fill:#9e0142;stroke:#000000;" x="1237.454048" xlink:href="#m503e1451c7" y="886.853525"/>
    </g>
   </g>
   <g id="line2d_89">
    <g clip-path="url(#p527d4d3667)">
     <use style="fill:#9e0142;stroke:#000000;" x="1244.491519" xlink:href="#m503e1451c7" y="886.86382"/>
    </g>
   </g>
   <g id="line2d_90">
    <g clip-path="url(#p527d4d3667)">
     <use style="stroke:#000000;" x="754.337938" xlink:href="#m3c14001940" y="463.146783"/>
    </g>
   </g>
   <g id="line2d_91">
    <g clip-path="url(#p527d4d3667)">
     <use style="fill:#9e0142;stroke:#000000;" x="1240.092008" xlink:href="#m503e1451c7" y="886.857329"/>
    </g>
   </g>
   <g id="line2d_92">
    <g clip-path="url(#p527d4d3667)">
     <use style="fill:#9e0142;stroke:#000000;" x="1245.272727" xlink:href="#m503e1451c7" y="886.852221"/>
    </g>
   </g>
   <g id="line2d_93">
    <g clip-path="url(#p527d4d3667)">
     <use style="fill:#9e0142;stroke:#000000;" x="1244.016631" xlink:href="#m503e1451c7" y="886.850301"/>
    </g>
   </g>
   <g id="line2d_94">
    <g clip-path="url(#p527d4d3667)">
     <use style="stroke:#000000;" x="987.465288" xlink:href="#m3c14001940" y="1231.2"/>
    </g>
   </g>
   <g id="line2d_95">
    <g clip-path="url(#p527d4d3667)">
     <use style="fill:#9e0142;stroke:#000000;" x="1234.245318" xlink:href="#m503e1451c7" y="886.904419"/>
    </g>
   </g>
   <g id="line2d_96">
    <g clip-path="url(#p527d4d3667)">
     <use style="fill:#9e0142;stroke:#000000;" x="1237.225359" xlink:href="#m503e1451c7" y="886.916366"/>
    </g>
   </g>
   <g id="line2d_97">
    <g clip-path="url(#p527d4d3667)">
     <use style="fill:#ffffbe;stroke:#000000;" x="610.88418" xlink:href="#m248e5512c5" y="223.2"/>
    </g>
   </g>
   <g id="line2d_98">
    <g clip-path="url(#p527d4d3667)">
     <use style="fill:#9e0142;stroke:#000000;" x="1233.994102" xlink:href="#m503e1451c7" y="886.900485"/>
    </g>
   </g>
   <g id="line2d_99">
    <g clip-path="url(#p527d4d3667)">
     <use style="fill:#9e0142;stroke:#000000;" x="1242.299576" xlink:href="#m503e1451c7" y="886.889227"/>
    </g>
   </g>
   <g id="line2d_100">
    <g clip-path="url(#p527d4d3667)">
     <use style="fill:#9e0142;stroke:#000000;" x="1238.345724" xlink:href="#m503e1451c7" y="886.868467"/>
    </g>
   </g>
   <g id="line2d_101">
    <g clip-path="url(#p527d4d3667)">
     <use style="fill:#9e0142;stroke:#000000;" x="1237.370593" xlink:href="#m503e1451c7" y="886.88104"/>
    </g>
   </g>
   <g id="line2d_102">
    <g clip-path="url(#p527d4d3667)">
     <use style="fill:#9e0142;stroke:#000000;" x="1241.500624" xlink:href="#m503e1451c7" y="886.910874"/>
    </g>
   </g>
   <g id="line2d_103">
    <g clip-path="url(#p527d4d3667)">
     <use style="fill:#9e0142;stroke:#000000;" x="1244.488659" xlink:href="#m503e1451c7" y="886.913376"/>
    </g>
   </g>
   <g id="line2d_104">
    <g clip-path="url(#p527d4d3667)">
     <use style="fill:#9e0142;stroke:#000000;" x="1235.115552" xlink:href="#m503e1451c7" y="886.868951"/>
    </g>
   </g>
   <g id="line2d_105">
    <g clip-path="url(#p527d4d3667)">
     <use style="fill:#9e0142;stroke:#000000;" x="1236.386285" xlink:href="#m503e1451c7" y="886.857666"/>
    </g>
   </g>
   <g id="line2d_106">
    <g clip-path="url(#p527d4d3667)">
     <use style="stroke:#000000;" x="230.727273" xlink:href="#m3c14001940" y="990.032482"/>
    </g>
   </g>
   <g id="line2d_107">
    <g clip-path="url(#p527d4d3667)">
     <use style="fill:#9e0142;stroke:#000000;" x="1244.361" xlink:href="#m503e1451c7" y="886.8713"/>
    </g>
   </g>
   <g id="line2d_108">
    <g clip-path="url(#p527d4d3667)">
     <use style="fill:#9e0142;stroke:#000000;" x="1243.107439" xlink:href="#m503e1451c7" y="886.911921"/>
    </g>
   </g>
   <g id="line2d_109">
    <g clip-path="url(#p527d4d3667)">
     <use style="fill:#9e0142;stroke:#000000;" x="1232.824223" xlink:href="#m503e1451c7" y="886.905308"/>
    </g>
   </g>
   <g id="line2d_110">
    <g clip-path="url(#p527d4d3667)">
     <use style="fill:#9e0142;stroke:#000000;" x="1237.538381" xlink:href="#m503e1451c7" y="886.905795"/>
    </g>
   </g>
   <g id="line2d_111">
    <g clip-path="url(#p527d4d3667)">
     <use style="fill:#9e0142;stroke:#000000;" x="1233.769241" xlink:href="#m503e1451c7" y="886.877312"/>
    </g>
   </g>
   <g id="line2d_112">
    <g clip-path="url(#p527d4d3667)">
     <use style="fill:#9e0142;stroke:#000000;" x="1234.719478" xlink:href="#m503e1451c7" y="886.916056"/>
    </g>
   </g>
   <g id="line2d_113">
    <g clip-path="url(#p527d4d3667)">
     <use style="fill:#9e0142;stroke:#000000;" x="1238.655424" xlink:href="#m503e1451c7" y="886.904598"/>
    </g>
   </g>
   <g id="line2d_114">
    <g clip-path="url(#p527d4d3667)">
     <use style="fill:#9e0142;stroke:#000000;" x="1233.88264" xlink:href="#m503e1451c7" y="886.847549"/>
    </g>
   </g>
   <g id="line2d_115">
    <g clip-path="url(#p527d4d3667)">
     <use style="fill:#9e0142;stroke:#000000;" x="1243.891325" xlink:href="#m503e1451c7" y="886.868378"/>
    </g>
   </g>
   <g id="line2d_116">
    <g clip-path="url(#p527d4d3667)">
     <use style="fill:#ffffbe;stroke:#000000;" x="610.768552" xlink:href="#m248e5512c5" y="224.761234"/>
    </g>
   </g>
   <g id="line2d_117">
    <g clip-path="url(#p527d4d3667)">
     <use style="fill:#9e0142;stroke:#000000;" x="1243.841798" xlink:href="#m503e1451c7" y="886.904743"/>
    </g>
   </g>
   <g id="line2d_118">
    <g clip-path="url(#p527d4d3667)">
     <use style="fill:#9e0142;stroke:#000000;" x="1236.290656" xlink:href="#m503e1451c7" y="886.872089"/>
    </g>
   </g>
   <g id="line2d_119">
    <g clip-path="url(#p527d4d3667)">
     <use style="fill:#9e0142;stroke:#000000;" x="1244.834101" xlink:href="#m503e1451c7" y="886.863055"/>
    </g>
   </g>
   <g id="line2d_120">
    <g clip-path="url(#p527d4d3667)">
     <use style="fill:#9e0142;stroke:#000000;" x="1238.968153" xlink:href="#m503e1451c7" y="886.870821"/>
    </g>
   </g>
   <g id="line2d_121">
    <g clip-path="url(#p527d4d3667)">
     <use style="fill:#9e0142;stroke:#000000;" x="1240.120119" xlink:href="#m503e1451c7" y="886.894853"/>
    </g>
   </g>
   <g id="line2d_122">
    <g clip-path="url(#p527d4d3667)">
     <use style="fill:#9e0142;stroke:#000000;" x="1240.997385" xlink:href="#m503e1451c7" y="886.857422"/>
    </g>
   </g>
   <g id="line2d_123">
    <g clip-path="url(#p527d4d3667)">
     <use style="fill:#ffffbe;stroke:#000000;" x="610.575256" xlink:href="#m248e5512c5" y="223.689465"/>
    </g>
   </g>
   <g id="line2d_124">
    <g clip-path="url(#p527d4d3667)">
     <use style="fill:#9e0142;stroke:#000000;" x="1242.25881" xlink:href="#m503e1451c7" y="886.860536"/>
    </g>
   </g>
   <g id="line2d_125">
    <g clip-path="url(#p527d4d3667)">
     <use style="fill:#9e0142;stroke:#000000;" x="1236.361833" xlink:href="#m503e1451c7" y="886.869302"/>
    </g>
   </g>
   <g id="line2d_126">
    <g clip-path="url(#p527d4d3667)">
     <use style="fill:#9e0142;stroke:#000000;" x="1238.146985" xlink:href="#m503e1451c7" y="886.871692"/>
    </g>
   </g>
   <g id="line2d_127">
    <g clip-path="url(#p527d4d3667)">
     <use style="fill:#9e0142;stroke:#000000;" x="1241.696828" xlink:href="#m503e1451c7" y="886.872555"/>
    </g>
   </g>
   <g id="line2d_128">
    <g clip-path="url(#p527d4d3667)">
     <use style="fill:#9e0142;stroke:#000000;" x="1242.424531" xlink:href="#m503e1451c7" y="886.891388"/>
    </g>
   </g>
   <g id="line2d_129">
    <g clip-path="url(#p527d4d3667)">
     <use style="fill:#9e0142;stroke:#000000;" x="1236.815747" xlink:href="#m503e1451c7" y="886.852638"/>
    </g>
   </g>
   <g id="line2d_130">
    <g clip-path="url(#p527d4d3667)">
     <use style="fill:#9e0142;stroke:#000000;" x="1241.149879" xlink:href="#m503e1451c7" y="886.8725"/>
    </g>
   </g>
   <g id="line2d_131">
    <g clip-path="url(#p527d4d3667)">
     <use style="fill:#9e0142;stroke:#000000;" x="1240.587551" xlink:href="#m503e1451c7" y="886.861429"/>
    </g>
   </g>
   <g id="line2d_132">
    <g clip-path="url(#p527d4d3667)">
     <use style="fill:#9e0142;stroke:#000000;" x="1240.849193" xlink:href="#m503e1451c7" y="886.883298"/>
    </g>
   </g>
   <g id="line2d_133">
    <g clip-path="url(#p527d4d3667)">
     <use style="fill:#ffffbe;stroke:#000000;" x="610.706347" xlink:href="#m248e5512c5" y="230.797058"/>
    </g>
   </g>
   <g id="line2d_134">
    <g clip-path="url(#p527d4d3667)">
     <use style="fill:#9e0142;stroke:#000000;" x="1236.409488" xlink:href="#m503e1451c7" y="886.878944"/>
    </g>
   </g>
   <g id="line2d_135">
    <g clip-path="url(#p527d4d3667)">
     <use style="fill:#9e0142;stroke:#000000;" x="1237.428869" xlink:href="#m503e1451c7" y="886.891929"/>
    </g>
   </g>
   <g id="line2d_136">
    <g clip-path="url(#p527d4d3667)">
     <use style="fill:#9e0142;stroke:#000000;" x="1237.948097" xlink:href="#m503e1451c7" y="886.896185"/>
    </g>
   </g>
   <g id="line2d_137">
    <g clip-path="url(#p527d4d3667)">
     <use style="fill:#9e0142;stroke:#000000;" x="1232.487211" xlink:href="#m503e1451c7" y="886.863519"/>
    </g>
   </g>
   <g id="patch_3">
    <path d="M 180 1281.6 
L 180 172.8 
" style="fill:none;stroke:#000000;stroke-linecap:square;stroke-linejoin:miter;stroke-width:0.8;"/>
   </g>
   <g id="patch_4">
    <path d="M 1296 1281.6 
L 1296 172.8 
" style="fill:none;stroke:#000000;stroke-linecap:square;stroke-linejoin:miter;stroke-width:0.8;"/>
   </g>
   <g id="patch_5">
    <path d="M 180 1281.6 
L 1296 1281.6 
" style="fill:none;stroke:#000000;stroke-linecap:square;stroke-linejoin:miter;stroke-width:0.8;"/>
   </g>
   <g id="patch_6">
    <path d="M 180 172.8 
L 1296 172.8 
" style="fill:none;stroke:#000000;stroke-linecap:square;stroke-linejoin:miter;stroke-width:0.8;"/>
   </g>
  </g>
 </g>
 <defs>
  <clipPath id="p527d4d3667">
   <rect height="1108.8" width="1116" x="180" y="172.8"/>
  </clipPath>
 </defs>
</svg>
