<?xml version="1.0" encoding="utf-8" standalone="no"?>
<!DOCTYPE svg PUBLIC "-//W3C//DTD SVG 1.1//EN"
  "http://www.w3.org/Graphics/SVG/1.1/DTD/svg11.dtd">
<!-- Created with matplotlib (https://matplotlib.org/) -->
<svg height="1440pt" version="1.1" viewBox="0 0 1440 1440" width="1440pt" xmlns="http://www.w3.org/2000/svg" xmlns:xlink="http://www.w3.org/1999/xlink">
 <defs>
  <style type="text/css">
*{stroke-linecap:butt;stroke-linejoin:round;}
  </style>
 </defs>
 <g id="figure_1">
  <g id="patch_1">
   <path d="M 0 1440 
L 1440 1440 
L 1440 0 
L 0 0 
z
" style="fill:#ffffff;"/>
  </g>
  <g id="axes_1">
   <g id="patch_2">
    <path d="M 180 1281.6 
L 1296 1281.6 
L 1296 172.8 
L 180 172.8 
z
" style="fill:#ffffff;"/>
   </g>
   <g id="matplotlib.axis_1">
    <g id="xtick_1">
     <g id="line2d_1">
      <defs>
       <path d="M 0 0 
L 0 3.5 
" id="me86cf217a0" style="stroke:#000000;stroke-width:0.8;"/>
      </defs>
      <g>
       <use style="stroke:#000000;stroke-width:0.8;" x="275.107625" xlink:href="#me86cf217a0" y="1281.6"/>
      </g>
     </g>
     <g id="text_1">
      <!-- −0.06 -->
      <defs>
       <path d="M 10.59375 35.5 
L 73.1875 35.5 
L 73.1875 27.203125 
L 10.59375 27.203125 
z
" id="DejaVuSans-8722"/>
       <path d="M 31.78125 66.40625 
Q 24.171875 66.40625 20.328125 58.90625 
Q 16.5 51.421875 16.5 36.375 
Q 16.5 21.390625 20.328125 13.890625 
Q 24.171875 6.390625 31.78125 6.390625 
Q 39.453125 6.390625 43.28125 13.890625 
Q 47.125 21.390625 47.125 36.375 
Q 47.125 51.421875 43.28125 58.90625 
Q 39.453125 66.40625 31.78125 66.40625 
z
M 31.78125 74.21875 
Q 44.046875 74.21875 50.515625 64.515625 
Q 56.984375 54.828125 56.984375 36.375 
Q 56.984375 17.96875 50.515625 8.265625 
Q 44.046875 -1.421875 31.78125 -1.421875 
Q 19.53125 -1.421875 13.0625 8.265625 
Q 6.59375 17.96875 6.59375 36.375 
Q 6.59375 54.828125 13.0625 64.515625 
Q 19.53125 74.21875 31.78125 74.21875 
z
" id="DejaVuSans-48"/>
       <path d="M 10.6875 12.40625 
L 21 12.40625 
L 21 0 
L 10.6875 0 
z
" id="DejaVuSans-46"/>
       <path d="M 33.015625 40.375 
Q 26.375 40.375 22.484375 35.828125 
Q 18.609375 31.296875 18.609375 23.390625 
Q 18.609375 15.53125 22.484375 10.953125 
Q 26.375 6.390625 33.015625 6.390625 
Q 39.65625 6.390625 43.53125 10.953125 
Q 47.40625 15.53125 47.40625 23.390625 
Q 47.40625 31.296875 43.53125 35.828125 
Q 39.65625 40.375 33.015625 40.375 
z
M 52.59375 71.296875 
L 52.59375 62.3125 
Q 48.875 64.0625 45.09375 64.984375 
Q 41.3125 65.921875 37.59375 65.921875 
Q 27.828125 65.921875 22.671875 59.328125 
Q 17.53125 52.734375 16.796875 39.40625 
Q 19.671875 43.65625 24.015625 45.921875 
Q 28.375 48.1875 33.59375 48.1875 
Q 44.578125 48.1875 50.953125 41.515625 
Q 57.328125 34.859375 57.328125 23.390625 
Q 57.328125 12.15625 50.6875 5.359375 
Q 44.046875 -1.421875 33.015625 -1.421875 
Q 20.359375 -1.421875 13.671875 8.265625 
Q 6.984375 17.96875 6.984375 36.375 
Q 6.984375 53.65625 15.1875 63.9375 
Q 23.390625 74.21875 37.203125 74.21875 
Q 40.921875 74.21875 44.703125 73.484375 
Q 48.484375 72.75 52.59375 71.296875 
z
" id="DejaVuSans-54"/>
      </defs>
      <g transform="translate(259.784969 1296.198437)scale(0.1 -0.1)">
       <use xlink:href="#DejaVuSans-8722"/>
       <use x="83.789062" xlink:href="#DejaVuSans-48"/>
       <use x="147.412109" xlink:href="#DejaVuSans-46"/>
       <use x="179.199219" xlink:href="#DejaVuSans-48"/>
       <use x="242.822266" xlink:href="#DejaVuSans-54"/>
      </g>
     </g>
    </g>
    <g id="xtick_2">
     <g id="line2d_2">
      <g>
       <use style="stroke:#000000;stroke-width:0.8;" x="402.152773" xlink:href="#me86cf217a0" y="1281.6"/>
      </g>
     </g>
     <g id="text_2">
      <!-- −0.04 -->
      <defs>
       <path d="M 37.796875 64.3125 
L 12.890625 25.390625 
L 37.796875 25.390625 
z
M 35.203125 72.90625 
L 47.609375 72.90625 
L 47.609375 25.390625 
L 58.015625 25.390625 
L 58.015625 17.1875 
L 47.609375 17.1875 
L 47.609375 0 
L 37.796875 0 
L 37.796875 17.1875 
L 4.890625 17.1875 
L 4.890625 26.703125 
z
" id="DejaVuSans-52"/>
      </defs>
      <g transform="translate(386.830116 1296.198437)scale(0.1 -0.1)">
       <use xlink:href="#DejaVuSans-8722"/>
       <use x="83.789062" xlink:href="#DejaVuSans-48"/>
       <use x="147.412109" xlink:href="#DejaVuSans-46"/>
       <use x="179.199219" xlink:href="#DejaVuSans-48"/>
       <use x="242.822266" xlink:href="#DejaVuSans-52"/>
      </g>
     </g>
    </g>
    <g id="xtick_3">
     <g id="line2d_3">
      <g>
       <use style="stroke:#000000;stroke-width:0.8;" x="529.19792" xlink:href="#me86cf217a0" y="1281.6"/>
      </g>
     </g>
     <g id="text_3">
      <!-- −0.02 -->
      <defs>
       <path d="M 19.1875 8.296875 
L 53.609375 8.296875 
L 53.609375 0 
L 7.328125 0 
L 7.328125 8.296875 
Q 12.9375 14.109375 22.625 23.890625 
Q 32.328125 33.6875 34.8125 36.53125 
Q 39.546875 41.84375 41.421875 45.53125 
Q 43.3125 49.21875 43.3125 52.78125 
Q 43.3125 58.59375 39.234375 62.25 
Q 35.15625 65.921875 28.609375 65.921875 
Q 23.96875 65.921875 18.8125 64.3125 
Q 13.671875 62.703125 7.8125 59.421875 
L 7.8125 69.390625 
Q 13.765625 71.78125 18.9375 73 
Q 24.125 74.21875 28.421875 74.21875 
Q 39.75 74.21875 46.484375 68.546875 
Q 53.21875 62.890625 53.21875 53.421875 
Q 53.21875 48.921875 51.53125 44.890625 
Q 49.859375 40.875 45.40625 35.40625 
Q 44.1875 33.984375 37.640625 27.21875 
Q 31.109375 20.453125 19.1875 8.296875 
z
" id="DejaVuSans-50"/>
      </defs>
      <g transform="translate(513.875264 1296.198437)scale(0.1 -0.1)">
       <use xlink:href="#DejaVuSans-8722"/>
       <use x="83.789062" xlink:href="#DejaVuSans-48"/>
       <use x="147.412109" xlink:href="#DejaVuSans-46"/>
       <use x="179.199219" xlink:href="#DejaVuSans-48"/>
       <use x="242.822266" xlink:href="#DejaVuSans-50"/>
      </g>
     </g>
    </g>
    <g id="xtick_4">
     <g id="line2d_4">
      <g>
       <use style="stroke:#000000;stroke-width:0.8;" x="656.243067" xlink:href="#me86cf217a0" y="1281.6"/>
      </g>
     </g>
     <g id="text_4">
      <!-- 0.00 -->
      <g transform="translate(645.110255 1296.198437)scale(0.1 -0.1)">
       <use xlink:href="#DejaVuSans-48"/>
       <use x="63.623047" xlink:href="#DejaVuSans-46"/>
       <use x="95.410156" xlink:href="#DejaVuSans-48"/>
       <use x="159.033203" xlink:href="#DejaVuSans-48"/>
      </g>
     </g>
    </g>
    <g id="xtick_5">
     <g id="line2d_5">
      <g>
       <use style="stroke:#000000;stroke-width:0.8;" x="783.288215" xlink:href="#me86cf217a0" y="1281.6"/>
      </g>
     </g>
     <g id="text_5">
      <!-- 0.02 -->
      <g transform="translate(772.155402 1296.198437)scale(0.1 -0.1)">
       <use xlink:href="#DejaVuSans-48"/>
       <use x="63.623047" xlink:href="#DejaVuSans-46"/>
       <use x="95.410156" xlink:href="#DejaVuSans-48"/>
       <use x="159.033203" xlink:href="#DejaVuSans-50"/>
      </g>
     </g>
    </g>
    <g id="xtick_6">
     <g id="line2d_6">
      <g>
       <use style="stroke:#000000;stroke-width:0.8;" x="910.333362" xlink:href="#me86cf217a0" y="1281.6"/>
      </g>
     </g>
     <g id="text_6">
      <!-- 0.04 -->
      <g transform="translate(899.200549 1296.198437)scale(0.1 -0.1)">
       <use xlink:href="#DejaVuSans-48"/>
       <use x="63.623047" xlink:href="#DejaVuSans-46"/>
       <use x="95.410156" xlink:href="#DejaVuSans-48"/>
       <use x="159.033203" xlink:href="#DejaVuSans-52"/>
      </g>
     </g>
    </g>
    <g id="xtick_7">
     <g id="line2d_7">
      <g>
       <use style="stroke:#000000;stroke-width:0.8;" x="1037.378509" xlink:href="#me86cf217a0" y="1281.6"/>
      </g>
     </g>
     <g id="text_7">
      <!-- 0.06 -->
      <g transform="translate(1026.245697 1296.198437)scale(0.1 -0.1)">
       <use xlink:href="#DejaVuSans-48"/>
       <use x="63.623047" xlink:href="#DejaVuSans-46"/>
       <use x="95.410156" xlink:href="#DejaVuSans-48"/>
       <use x="159.033203" xlink:href="#DejaVuSans-54"/>
      </g>
     </g>
    </g>
    <g id="xtick_8">
     <g id="line2d_8">
      <g>
       <use style="stroke:#000000;stroke-width:0.8;" x="1164.423656" xlink:href="#me86cf217a0" y="1281.6"/>
      </g>
     </g>
     <g id="text_8">
      <!-- 0.08 -->
      <defs>
       <path d="M 31.78125 34.625 
Q 24.75 34.625 20.71875 30.859375 
Q 16.703125 27.09375 16.703125 20.515625 
Q 16.703125 13.921875 20.71875 10.15625 
Q 24.75 6.390625 31.78125 6.390625 
Q 38.8125 6.390625 42.859375 10.171875 
Q 46.921875 13.96875 46.921875 20.515625 
Q 46.921875 27.09375 42.890625 30.859375 
Q 38.875 34.625 31.78125 34.625 
z
M 21.921875 38.8125 
Q 15.578125 40.375 12.03125 44.71875 
Q 8.5 49.078125 8.5 55.328125 
Q 8.5 64.0625 14.71875 69.140625 
Q 20.953125 74.21875 31.78125 74.21875 
Q 42.671875 74.21875 48.875 69.140625 
Q 55.078125 64.0625 55.078125 55.328125 
Q 55.078125 49.078125 51.53125 44.71875 
Q 48 40.375 41.703125 38.8125 
Q 48.828125 37.15625 52.796875 32.3125 
Q 56.78125 27.484375 56.78125 20.515625 
Q 56.78125 9.90625 50.3125 4.234375 
Q 43.84375 -1.421875 31.78125 -1.421875 
Q 19.734375 -1.421875 13.25 4.234375 
Q 6.78125 9.90625 6.78125 20.515625 
Q 6.78125 27.484375 10.78125 32.3125 
Q 14.796875 37.15625 21.921875 38.8125 
z
M 18.3125 54.390625 
Q 18.3125 48.734375 21.84375 45.5625 
Q 25.390625 42.390625 31.78125 42.390625 
Q 38.140625 42.390625 41.71875 45.5625 
Q 45.3125 48.734375 45.3125 54.390625 
Q 45.3125 60.0625 41.71875 63.234375 
Q 38.140625 66.40625 31.78125 66.40625 
Q 25.390625 66.40625 21.84375 63.234375 
Q 18.3125 60.0625 18.3125 54.390625 
z
" id="DejaVuSans-56"/>
      </defs>
      <g transform="translate(1153.290844 1296.198437)scale(0.1 -0.1)">
       <use xlink:href="#DejaVuSans-48"/>
       <use x="63.623047" xlink:href="#DejaVuSans-46"/>
       <use x="95.410156" xlink:href="#DejaVuSans-48"/>
       <use x="159.033203" xlink:href="#DejaVuSans-56"/>
      </g>
     </g>
    </g>
    <g id="xtick_9">
     <g id="line2d_9">
      <g>
       <use style="stroke:#000000;stroke-width:0.8;" x="1291.468804" xlink:href="#me86cf217a0" y="1281.6"/>
      </g>
     </g>
     <g id="text_9">
      <!-- 0.10 -->
      <defs>
       <path d="M 12.40625 8.296875 
L 28.515625 8.296875 
L 28.515625 63.921875 
L 10.984375 60.40625 
L 10.984375 69.390625 
L 28.421875 72.90625 
L 38.28125 72.90625 
L 38.28125 8.296875 
L 54.390625 8.296875 
L 54.390625 0 
L 12.40625 0 
z
" id="DejaVuSans-49"/>
      </defs>
      <g transform="translate(1280.335991 1296.198437)scale(0.1 -0.1)">
       <use xlink:href="#DejaVuSans-48"/>
       <use x="63.623047" xlink:href="#DejaVuSans-46"/>
       <use x="95.410156" xlink:href="#DejaVuSans-49"/>
       <use x="159.033203" xlink:href="#DejaVuSans-48"/>
      </g>
     </g>
    </g>
   </g>
   <g id="matplotlib.axis_2">
    <g id="ytick_1">
     <g id="line2d_10">
      <defs>
       <path d="M 0 0 
L -3.5 0 
" id="mfdcc2ef481" style="stroke:#000000;stroke-width:0.8;"/>
      </defs>
      <g>
       <use style="stroke:#000000;stroke-width:0.8;" x="180" xlink:href="#mfdcc2ef481" y="1096.319257"/>
      </g>
     </g>
     <g id="text_10">
      <!-- 0.00 -->
      <g transform="translate(150.734375 1100.118475)scale(0.1 -0.1)">
       <use xlink:href="#DejaVuSans-48"/>
       <use x="63.623047" xlink:href="#DejaVuSans-46"/>
       <use x="95.410156" xlink:href="#DejaVuSans-48"/>
       <use x="159.033203" xlink:href="#DejaVuSans-48"/>
      </g>
     </g>
    </g>
    <g id="ytick_2">
     <g id="line2d_11">
      <g>
       <use style="stroke:#000000;stroke-width:0.8;" x="180" xlink:href="#mfdcc2ef481" y="882.292431"/>
      </g>
     </g>
     <g id="text_11">
      <!-- 0.05 -->
      <defs>
       <path d="M 10.796875 72.90625 
L 49.515625 72.90625 
L 49.515625 64.59375 
L 19.828125 64.59375 
L 19.828125 46.734375 
Q 21.96875 47.46875 24.109375 47.828125 
Q 26.265625 48.1875 28.421875 48.1875 
Q 40.625 48.1875 47.75 41.5 
Q 54.890625 34.8125 54.890625 23.390625 
Q 54.890625 11.625 47.5625 5.09375 
Q 40.234375 -1.421875 26.90625 -1.421875 
Q 22.3125 -1.421875 17.546875 -0.640625 
Q 12.796875 0.140625 7.71875 1.703125 
L 7.71875 11.625 
Q 12.109375 9.234375 16.796875 8.0625 
Q 21.484375 6.890625 26.703125 6.890625 
Q 35.15625 6.890625 40.078125 11.328125 
Q 45.015625 15.765625 45.015625 23.390625 
Q 45.015625 31 40.078125 35.4375 
Q 35.15625 39.890625 26.703125 39.890625 
Q 22.75 39.890625 18.8125 39.015625 
Q 14.890625 38.140625 10.796875 36.28125 
z
" id="DejaVuSans-53"/>
      </defs>
      <g transform="translate(150.734375 886.091649)scale(0.1 -0.1)">
       <use xlink:href="#DejaVuSans-48"/>
       <use x="63.623047" xlink:href="#DejaVuSans-46"/>
       <use x="95.410156" xlink:href="#DejaVuSans-48"/>
       <use x="159.033203" xlink:href="#DejaVuSans-53"/>
      </g>
     </g>
    </g>
    <g id="ytick_3">
     <g id="line2d_12">
      <g>
       <use style="stroke:#000000;stroke-width:0.8;" x="180" xlink:href="#mfdcc2ef481" y="668.265604"/>
      </g>
     </g>
     <g id="text_12">
      <!-- 0.10 -->
      <g transform="translate(150.734375 672.064823)scale(0.1 -0.1)">
       <use xlink:href="#DejaVuSans-48"/>
       <use x="63.623047" xlink:href="#DejaVuSans-46"/>
       <use x="95.410156" xlink:href="#DejaVuSans-49"/>
       <use x="159.033203" xlink:href="#DejaVuSans-48"/>
      </g>
     </g>
    </g>
    <g id="ytick_4">
     <g id="line2d_13">
      <g>
       <use style="stroke:#000000;stroke-width:0.8;" x="180" xlink:href="#mfdcc2ef481" y="454.238778"/>
      </g>
     </g>
     <g id="text_13">
      <!-- 0.15 -->
      <g transform="translate(150.734375 458.037997)scale(0.1 -0.1)">
       <use xlink:href="#DejaVuSans-48"/>
       <use x="63.623047" xlink:href="#DejaVuSans-46"/>
       <use x="95.410156" xlink:href="#DejaVuSans-49"/>
       <use x="159.033203" xlink:href="#DejaVuSans-53"/>
      </g>
     </g>
    </g>
    <g id="ytick_5">
     <g id="line2d_14">
      <g>
       <use style="stroke:#000000;stroke-width:0.8;" x="180" xlink:href="#mfdcc2ef481" y="240.211952"/>
      </g>
     </g>
     <g id="text_14">
      <!-- 0.20 -->
      <g transform="translate(150.734375 244.011171)scale(0.1 -0.1)">
       <use xlink:href="#DejaVuSans-48"/>
       <use x="63.623047" xlink:href="#DejaVuSans-46"/>
       <use x="95.410156" xlink:href="#DejaVuSans-50"/>
       <use x="159.033203" xlink:href="#DejaVuSans-48"/>
      </g>
     </g>
    </g>
   </g>
   <g id="line2d_15">
    <defs>
     <path d="M 0 9 
C 2.386828 9 4.676219 8.051703 6.363961 6.363961 
C 8.051703 4.676219 9 2.386828 9 0 
C 9 -2.386828 8.051703 -4.676219 6.363961 -6.363961 
C 4.676219 -8.051703 2.386828 -9 0 -9 
C -2.386828 -9 -4.676219 -8.051703 -6.363961 -6.363961 
C -8.051703 -4.676219 -9 -2.386828 -9 0 
C -9 2.386828 -8.051703 4.676219 -6.363961 6.363961 
C -4.676219 8.051703 -2.386828 9 0 9 
z
" id="mf9f0172ac2" style="stroke:#000000;"/>
    </defs>
    <g clip-path="url(#p70940794bb)">
     <use style="fill:#9e0142;stroke:#000000;" x="1234.927413" xlink:href="#mf9f0172ac2" y="969.769678"/>
    </g>
   </g>
   <g id="line2d_16">
    <g clip-path="url(#p70940794bb)">
     <use style="fill:#9e0142;stroke:#000000;" x="1244.602609" xlink:href="#mf9f0172ac2" y="969.228346"/>
    </g>
   </g>
   <g id="line2d_17">
    <g clip-path="url(#p70940794bb)">
     <use style="fill:#9e0142;stroke:#000000;" x="1244.027802" xlink:href="#mf9f0172ac2" y="969.719005"/>
    </g>
   </g>
   <g id="line2d_18">
    <g clip-path="url(#p70940794bb)">
     <use style="fill:#9e0142;stroke:#000000;" x="1238.539996" xlink:href="#mf9f0172ac2" y="968.245707"/>
    </g>
   </g>
   <g id="line2d_19">
    <g clip-path="url(#p70940794bb)">
     <use style="fill:#9e0142;stroke:#000000;" x="1245.272727" xlink:href="#mf9f0172ac2" y="969.724599"/>
    </g>
   </g>
   <g id="line2d_20">
    <g clip-path="url(#p70940794bb)">
     <use style="fill:#9e0142;stroke:#000000;" x="1239.970084" xlink:href="#mf9f0172ac2" y="968.703429"/>
    </g>
   </g>
   <g id="line2d_21">
    <g clip-path="url(#p70940794bb)">
     <use style="fill:#9e0142;stroke:#000000;" x="1236.442623" xlink:href="#mf9f0172ac2" y="969.861212"/>
    </g>
   </g>
   <g id="line2d_22">
    <g clip-path="url(#p70940794bb)">
     <use style="fill:#9e0142;stroke:#000000;" x="1242.505796" xlink:href="#mf9f0172ac2" y="970.081836"/>
    </g>
   </g>
   <g id="line2d_23">
    <defs>
     <path d="M 0 3 
C 0.795609 3 1.55874 2.683901 2.12132 2.12132 
C 2.683901 1.55874 3 0.795609 3 0 
C 3 -0.795609 2.683901 -1.55874 2.12132 -2.12132 
C 1.55874 -2.683901 0.795609 -3 0 -3 
C -0.795609 -3 -1.55874 -2.683901 -2.12132 -2.12132 
C -2.683901 -1.55874 -3 -0.795609 -3 0 
C -3 0.795609 -2.683901 1.55874 -2.12132 2.12132 
C -1.55874 2.683901 -0.795609 3 0 3 
z
" id="maf354f3ef7" style="stroke:#000000;"/>
    </defs>
    <g clip-path="url(#p70940794bb)">
     <use style="stroke:#000000;" x="447.332824" xlink:href="#maf354f3ef7" y="388.225061"/>
    </g>
   </g>
   <g id="line2d_24">
    <g clip-path="url(#p70940794bb)">
     <use style="fill:#9e0142;stroke:#000000;" x="1240.314664" xlink:href="#mf9f0172ac2" y="967.884428"/>
    </g>
   </g>
   <g id="line2d_25">
    <g clip-path="url(#p70940794bb)">
     <use style="fill:#9e0142;stroke:#000000;" x="1245.035815" xlink:href="#mf9f0172ac2" y="969.221745"/>
    </g>
   </g>
   <g id="line2d_26">
    <g clip-path="url(#p70940794bb)">
     <use style="fill:#9e0142;stroke:#000000;" x="1241.344114" xlink:href="#mf9f0172ac2" y="969.47622"/>
    </g>
   </g>
   <g id="line2d_27">
    <g clip-path="url(#p70940794bb)">
     <use style="fill:#9e0142;stroke:#000000;" x="1243.586324" xlink:href="#mf9f0172ac2" y="970.242794"/>
    </g>
   </g>
   <g id="line2d_28">
    <g clip-path="url(#p70940794bb)">
     <use style="fill:#9e0142;stroke:#000000;" x="1235.783822" xlink:href="#mf9f0172ac2" y="968.275148"/>
    </g>
   </g>
   <g id="line2d_29">
    <g clip-path="url(#p70940794bb)">
     <use style="fill:#9e0142;stroke:#000000;" x="1237.356135" xlink:href="#mf9f0172ac2" y="970.027043"/>
    </g>
   </g>
   <g id="line2d_30">
    <g clip-path="url(#p70940794bb)">
     <use style="fill:#9e0142;stroke:#000000;" x="1240.815718" xlink:href="#mf9f0172ac2" y="968.347753"/>
    </g>
   </g>
   <g id="line2d_31">
    <g clip-path="url(#p70940794bb)">
     <use style="fill:#9e0142;stroke:#000000;" x="1236.50024" xlink:href="#mf9f0172ac2" y="968.393746"/>
    </g>
   </g>
   <g id="line2d_32">
    <defs>
     <path d="M 0 9 
C 2.386828 9 4.676219 8.051703 6.363961 6.363961 
C 8.051703 4.676219 9 2.386828 9 0 
C 9 -2.386828 8.051703 -4.676219 6.363961 -6.363961 
C 4.676219 -8.051703 2.386828 -9 0 -9 
C -2.386828 -9 -4.676219 -8.051703 -6.363961 -6.363961 
C -8.051703 -4.676219 -9 -2.386828 -9 0 
C -9 2.386828 -8.051703 4.676219 -6.363961 6.363961 
C -4.676219 8.051703 -2.386828 9 0 9 
z
" id="m127b9a3cfc" style="stroke:#000000;"/>
    </defs>
    <g clip-path="url(#p70940794bb)">
     <use style="fill:#fdbf6f;stroke:#000000;" x="259.057163" xlink:href="#m127b9a3cfc" y="238.601273"/>
    </g>
   </g>
   <g id="line2d_33">
    <g clip-path="url(#p70940794bb)">
     <use style="fill:#9e0142;stroke:#000000;" x="1241.683578" xlink:href="#mf9f0172ac2" y="969.817127"/>
    </g>
   </g>
   <g id="line2d_34">
    <g clip-path="url(#p70940794bb)">
     <use style="fill:#9e0142;stroke:#000000;" x="1238.565021" xlink:href="#mf9f0172ac2" y="968.575303"/>
    </g>
   </g>
   <g id="line2d_35">
    <g clip-path="url(#p70940794bb)">
     <use style="fill:#9e0142;stroke:#000000;" x="1236.007953" xlink:href="#mf9f0172ac2" y="968.708483"/>
    </g>
   </g>
   <g id="line2d_36">
    <g clip-path="url(#p70940794bb)">
     <use style="fill:#9e0142;stroke:#000000;" x="1239.999222" xlink:href="#mf9f0172ac2" y="968.200586"/>
    </g>
   </g>
   <g id="line2d_37">
    <g clip-path="url(#p70940794bb)">
     <use style="fill:#9e0142;stroke:#000000;" x="1237.513205" xlink:href="#mf9f0172ac2" y="968.981107"/>
    </g>
   </g>
   <g id="line2d_38">
    <g clip-path="url(#p70940794bb)">
     <use style="fill:#9e0142;stroke:#000000;" x="1235.147093" xlink:href="#mf9f0172ac2" y="968.915399"/>
    </g>
   </g>
   <g id="line2d_39">
    <g clip-path="url(#p70940794bb)">
     <use style="fill:#9e0142;stroke:#000000;" x="1236.644652" xlink:href="#mf9f0172ac2" y="968.634364"/>
    </g>
   </g>
   <g id="line2d_40">
    <g clip-path="url(#p70940794bb)">
     <use style="fill:#fdbf6f;stroke:#000000;" x="258.50797" xlink:href="#m127b9a3cfc" y="233.31763"/>
    </g>
   </g>
   <g id="line2d_41">
    <g clip-path="url(#p70940794bb)">
     <use style="fill:#9e0142;stroke:#000000;" x="1241.389481" xlink:href="#mf9f0172ac2" y="969.534843"/>
    </g>
   </g>
   <g id="line2d_42">
    <g clip-path="url(#p70940794bb)">
     <use style="fill:#9e0142;stroke:#000000;" x="1242.281099" xlink:href="#mf9f0172ac2" y="970.260217"/>
    </g>
   </g>
   <g id="line2d_43">
    <g clip-path="url(#p70940794bb)">
     <use style="fill:#9e0142;stroke:#000000;" x="1235.146417" xlink:href="#mf9f0172ac2" y="968.435297"/>
    </g>
   </g>
   <g id="line2d_44">
    <g clip-path="url(#p70940794bb)">
     <use style="fill:#9e0142;stroke:#000000;" x="1235.334048" xlink:href="#mf9f0172ac2" y="969.212498"/>
    </g>
   </g>
   <g id="line2d_45">
    <defs>
     <path d="M 0 9 
C 2.386828 9 4.676219 8.051703 6.363961 6.363961 
C 8.051703 4.676219 9 2.386828 9 0 
C 9 -2.386828 8.051703 -4.676219 6.363961 -6.363961 
C 4.676219 -8.051703 2.386828 -9 0 -9 
C -2.386828 -9 -4.676219 -8.051703 -6.363961 -6.363961 
C -8.051703 -4.676219 -9 -2.386828 -9 0 
C -9 2.386828 -8.051703 4.676219 -6.363961 6.363961 
C -4.676219 8.051703 -2.386828 9 0 9 
z
" id="m90a653b217" style="stroke:#000000;"/>
    </defs>
    <g clip-path="url(#p70940794bb)">
     <use style="fill:#bfe5a0;stroke:#000000;" x="291.213085" xlink:href="#m90a653b217" y="1023.806644"/>
    </g>
   </g>
   <g id="line2d_46">
    <g clip-path="url(#p70940794bb)">
     <use style="fill:#9e0142;stroke:#000000;" x="1235.165253" xlink:href="#mf9f0172ac2" y="969.654513"/>
    </g>
   </g>
   <g id="line2d_47">
    <g clip-path="url(#p70940794bb)">
     <use style="fill:#9e0142;stroke:#000000;" x="1236.158641" xlink:href="#mf9f0172ac2" y="968.654567"/>
    </g>
   </g>
   <g id="line2d_48">
    <g clip-path="url(#p70940794bb)">
     <use style="fill:#9e0142;stroke:#000000;" x="1233.798795" xlink:href="#mf9f0172ac2" y="970.312253"/>
    </g>
   </g>
   <g id="line2d_49">
    <g clip-path="url(#p70940794bb)">
     <use style="fill:#fdbf6f;stroke:#000000;" x="257.316626" xlink:href="#m127b9a3cfc" y="229.611085"/>
    </g>
   </g>
   <g id="line2d_50">
    <g clip-path="url(#p70940794bb)">
     <use style="fill:#9e0142;stroke:#000000;" x="1242.781658" xlink:href="#mf9f0172ac2" y="970.34855"/>
    </g>
   </g>
   <g id="line2d_51">
    <g clip-path="url(#p70940794bb)">
     <use style="fill:#9e0142;stroke:#000000;" x="1239.895399" xlink:href="#mf9f0172ac2" y="967.981845"/>
    </g>
   </g>
   <g id="line2d_52">
    <g clip-path="url(#p70940794bb)">
     <use style="fill:#9e0142;stroke:#000000;" x="1241.107185" xlink:href="#mf9f0172ac2" y="968.644885"/>
    </g>
   </g>
   <g id="line2d_53">
    <g clip-path="url(#p70940794bb)">
     <use style="fill:#9e0142;stroke:#000000;" x="1244.459259" xlink:href="#mf9f0172ac2" y="969.154597"/>
    </g>
   </g>
   <g id="line2d_54">
    <g clip-path="url(#p70940794bb)">
     <use style="fill:#9e0142;stroke:#000000;" x="1235.322032" xlink:href="#mf9f0172ac2" y="969.378375"/>
    </g>
   </g>
   <g id="line2d_55">
    <g clip-path="url(#p70940794bb)">
     <use style="fill:#9e0142;stroke:#000000;" x="1237.201824" xlink:href="#mf9f0172ac2" y="968.232822"/>
    </g>
   </g>
   <g id="line2d_56">
    <g clip-path="url(#p70940794bb)">
     <use style="fill:#fdbf6f;stroke:#000000;" x="258.550089" xlink:href="#m127b9a3cfc" y="231.025159"/>
    </g>
   </g>
   <g id="line2d_57">
    <g clip-path="url(#p70940794bb)">
     <use style="fill:#9e0142;stroke:#000000;" x="1239.198891" xlink:href="#mf9f0172ac2" y="967.953215"/>
    </g>
   </g>
   <g id="line2d_58">
    <g clip-path="url(#p70940794bb)">
     <use style="fill:#9e0142;stroke:#000000;" x="1242.288875" xlink:href="#mf9f0172ac2" y="969.526463"/>
    </g>
   </g>
   <g id="line2d_59">
    <g clip-path="url(#p70940794bb)">
     <use style="fill:#9e0142;stroke:#000000;" x="1239.858836" xlink:href="#mf9f0172ac2" y="969.016148"/>
    </g>
   </g>
   <g id="line2d_60">
    <g clip-path="url(#p70940794bb)">
     <use style="fill:#bfe5a0;stroke:#000000;" x="285.401654" xlink:href="#m90a653b217" y="1024.163805"/>
    </g>
   </g>
   <g id="line2d_61">
    <g clip-path="url(#p70940794bb)">
     <use style="fill:#9e0142;stroke:#000000;" x="1244.094589" xlink:href="#mf9f0172ac2" y="967.884046"/>
    </g>
   </g>
   <g id="line2d_62">
    <g clip-path="url(#p70940794bb)">
     <use style="stroke:#000000;" x="446.451496" xlink:href="#maf354f3ef7" y="387.426483"/>
    </g>
   </g>
   <g id="line2d_63">
    <g clip-path="url(#p70940794bb)">
     <use style="fill:#fdbf6f;stroke:#000000;" x="259.444497" xlink:href="#m127b9a3cfc" y="238.423568"/>
    </g>
   </g>
   <g id="line2d_64">
    <g clip-path="url(#p70940794bb)">
     <use style="fill:#9e0142;stroke:#000000;" x="1242.03437" xlink:href="#mf9f0172ac2" y="969.989346"/>
    </g>
   </g>
   <g id="line2d_65">
    <g clip-path="url(#p70940794bb)">
     <use style="fill:#fdbf6f;stroke:#000000;" x="258.558025" xlink:href="#m127b9a3cfc" y="224.049553"/>
    </g>
   </g>
   <g id="line2d_66">
    <g clip-path="url(#p70940794bb)">
     <use style="fill:#9e0142;stroke:#000000;" x="1235.090393" xlink:href="#mf9f0172ac2" y="970.087726"/>
    </g>
   </g>
   <g id="line2d_67">
    <g clip-path="url(#p70940794bb)">
     <use style="stroke:#000000;" x="963.888537" xlink:href="#maf354f3ef7" y="1161.308869"/>
    </g>
   </g>
   <g id="line2d_68">
    <g clip-path="url(#p70940794bb)">
     <use style="fill:#9e0142;stroke:#000000;" x="1235.106359" xlink:href="#mf9f0172ac2" y="967.972911"/>
    </g>
   </g>
   <g id="line2d_69">
    <g clip-path="url(#p70940794bb)">
     <use style="fill:#9e0142;stroke:#000000;" x="1242.617471" xlink:href="#mf9f0172ac2" y="968.977812"/>
    </g>
   </g>
   <g id="line2d_70">
    <g clip-path="url(#p70940794bb)">
     <use style="fill:#9e0142;stroke:#000000;" x="1237.510732" xlink:href="#mf9f0172ac2" y="968.488693"/>
    </g>
   </g>
   <g id="line2d_71">
    <g clip-path="url(#p70940794bb)">
     <use style="fill:#9e0142;stroke:#000000;" x="1238.578432" xlink:href="#mf9f0172ac2" y="968.691768"/>
    </g>
   </g>
   <g id="line2d_72">
    <g clip-path="url(#p70940794bb)">
     <use style="fill:#bfe5a0;stroke:#000000;" x="292.069321" xlink:href="#m90a653b217" y="1024.415648"/>
    </g>
   </g>
   <g id="line2d_73">
    <g clip-path="url(#p70940794bb)">
     <use style="fill:#9e0142;stroke:#000000;" x="1238.692638" xlink:href="#mf9f0172ac2" y="970.101502"/>
    </g>
   </g>
   <g id="line2d_74">
    <g clip-path="url(#p70940794bb)">
     <use style="fill:#9e0142;stroke:#000000;" x="1243.950212" xlink:href="#mf9f0172ac2" y="969.394257"/>
    </g>
   </g>
   <g id="line2d_75">
    <g clip-path="url(#p70940794bb)">
     <use style="fill:#9e0142;stroke:#000000;" x="1235.569753" xlink:href="#mf9f0172ac2" y="969.232463"/>
    </g>
   </g>
   <g id="line2d_76">
    <g clip-path="url(#p70940794bb)">
     <use style="stroke:#000000;" x="1224.610493" xlink:href="#maf354f3ef7" y="1099.370887"/>
    </g>
   </g>
   <g id="line2d_77">
    <g clip-path="url(#p70940794bb)">
     <use style="fill:#fdbf6f;stroke:#000000;" x="255.611391" xlink:href="#m127b9a3cfc" y="226.993866"/>
    </g>
   </g>
   <g id="line2d_78">
    <g clip-path="url(#p70940794bb)">
     <use style="fill:#9e0142;stroke:#000000;" x="1238.667461" xlink:href="#mf9f0172ac2" y="968.712519"/>
    </g>
   </g>
   <g id="line2d_79">
    <g clip-path="url(#p70940794bb)">
     <use style="fill:#9e0142;stroke:#000000;" x="1236.839015" xlink:href="#mf9f0172ac2" y="969.85067"/>
    </g>
   </g>
   <g id="line2d_80">
    <g clip-path="url(#p70940794bb)">
     <use style="fill:#9e0142;stroke:#000000;" x="1239.982463" xlink:href="#mf9f0172ac2" y="969.199424"/>
    </g>
   </g>
   <g id="line2d_81">
    <g clip-path="url(#p70940794bb)">
     <use style="fill:#9e0142;stroke:#000000;" x="1237.933152" xlink:href="#mf9f0172ac2" y="969.05554"/>
    </g>
   </g>
   <g id="line2d_82">
    <g clip-path="url(#p70940794bb)">
     <use style="fill:#fdbf6f;stroke:#000000;" x="260.886542" xlink:href="#m127b9a3cfc" y="223.2"/>
    </g>
   </g>
   <g id="line2d_83">
    <g clip-path="url(#p70940794bb)">
     <use style="fill:#fdbf6f;stroke:#000000;" x="260.80175" xlink:href="#m127b9a3cfc" y="231.969745"/>
    </g>
   </g>
   <g id="line2d_84">
    <g clip-path="url(#p70940794bb)">
     <use style="fill:#9e0142;stroke:#000000;" x="1245.074386" xlink:href="#mf9f0172ac2" y="968.87491"/>
    </g>
   </g>
   <g id="line2d_85">
    <g clip-path="url(#p70940794bb)">
     <use style="fill:#bfe5a0;stroke:#000000;" x="289.955049" xlink:href="#m90a653b217" y="1023.204715"/>
    </g>
   </g>
   <g id="line2d_86">
    <g clip-path="url(#p70940794bb)">
     <use style="stroke:#000000;" x="230.727273" xlink:href="#maf354f3ef7" y="353.161681"/>
    </g>
   </g>
   <g id="line2d_87">
    <g clip-path="url(#p70940794bb)">
     <use style="fill:#fdbf6f;stroke:#000000;" x="261.4001" xlink:href="#m127b9a3cfc" y="234.070375"/>
    </g>
   </g>
   <g id="line2d_88">
    <g clip-path="url(#p70940794bb)">
     <use style="fill:#9e0142;stroke:#000000;" x="1234.672213" xlink:href="#mf9f0172ac2" y="970.002837"/>
    </g>
   </g>
   <g id="line2d_89">
    <g clip-path="url(#p70940794bb)">
     <use style="fill:#9e0142;stroke:#000000;" x="1240.625444" xlink:href="#mf9f0172ac2" y="968.574366"/>
    </g>
   </g>
   <g id="line2d_90">
    <g clip-path="url(#p70940794bb)">
     <use style="fill:#9e0142;stroke:#000000;" x="1240.724461" xlink:href="#mf9f0172ac2" y="968.094077"/>
    </g>
   </g>
   <g id="line2d_91">
    <g clip-path="url(#p70940794bb)">
     <use style="fill:#fdbf6f;stroke:#000000;" x="260.584945" xlink:href="#m127b9a3cfc" y="229.036911"/>
    </g>
   </g>
   <g id="line2d_92">
    <g clip-path="url(#p70940794bb)">
     <use style="fill:#9e0142;stroke:#000000;" x="1234.702804" xlink:href="#mf9f0172ac2" y="969.653768"/>
    </g>
   </g>
   <g id="line2d_93">
    <g clip-path="url(#p70940794bb)">
     <use style="fill:#9e0142;stroke:#000000;" x="1240.225232" xlink:href="#mf9f0172ac2" y="968.495633"/>
    </g>
   </g>
   <g id="line2d_94">
    <g clip-path="url(#p70940794bb)">
     <use style="fill:#9e0142;stroke:#000000;" x="1241.17067" xlink:href="#mf9f0172ac2" y="969.592278"/>
    </g>
   </g>
   <g id="line2d_95">
    <g clip-path="url(#p70940794bb)">
     <use style="fill:#9e0142;stroke:#000000;" x="1237.636325" xlink:href="#mf9f0172ac2" y="969.223252"/>
    </g>
   </g>
   <g id="line2d_96">
    <g clip-path="url(#p70940794bb)">
     <use style="fill:#9e0142;stroke:#000000;" x="1239.617747" xlink:href="#mf9f0172ac2" y="969.364608"/>
    </g>
   </g>
   <g id="line2d_97">
    <g clip-path="url(#p70940794bb)">
     <use style="fill:#9e0142;stroke:#000000;" x="1239.68178" xlink:href="#mf9f0172ac2" y="968.930147"/>
    </g>
   </g>
   <g id="line2d_98">
    <g clip-path="url(#p70940794bb)">
     <use style="fill:#9e0142;stroke:#000000;" x="1236.398692" xlink:href="#mf9f0172ac2" y="968.834809"/>
    </g>
   </g>
   <g id="line2d_99">
    <g clip-path="url(#p70940794bb)">
     <use style="fill:#9e0142;stroke:#000000;" x="1244.861385" xlink:href="#mf9f0172ac2" y="968.426076"/>
    </g>
   </g>
   <g id="line2d_100">
    <g clip-path="url(#p70940794bb)">
     <use style="fill:#9e0142;stroke:#000000;" x="1237.951481" xlink:href="#mf9f0172ac2" y="969.661641"/>
    </g>
   </g>
   <g id="line2d_101">
    <g clip-path="url(#p70940794bb)">
     <use style="fill:#9e0142;stroke:#000000;" x="1242.85716" xlink:href="#mf9f0172ac2" y="967.919523"/>
    </g>
   </g>
   <g id="line2d_102">
    <g clip-path="url(#p70940794bb)">
     <use style="fill:#fdbf6f;stroke:#000000;" x="262.736649" xlink:href="#m127b9a3cfc" y="231.718034"/>
    </g>
   </g>
   <g id="line2d_103">
    <g clip-path="url(#p70940794bb)">
     <use style="fill:#9e0142;stroke:#000000;" x="1243.761402" xlink:href="#mf9f0172ac2" y="968.301661"/>
    </g>
   </g>
   <g id="line2d_104">
    <g clip-path="url(#p70940794bb)">
     <use style="fill:#9e0142;stroke:#000000;" x="1236.041547" xlink:href="#mf9f0172ac2" y="968.290497"/>
    </g>
   </g>
   <g id="line2d_105">
    <g clip-path="url(#p70940794bb)">
     <use style="stroke:#000000;" x="788.933908" xlink:href="#maf354f3ef7" y="1231.2"/>
    </g>
   </g>
   <g id="line2d_106">
    <g clip-path="url(#p70940794bb)">
     <use style="fill:#9e0142;stroke:#000000;" x="1239.812162" xlink:href="#mf9f0172ac2" y="969.828945"/>
    </g>
   </g>
   <g id="line2d_107">
    <g clip-path="url(#p70940794bb)">
     <use style="fill:#9e0142;stroke:#000000;" x="1241.459686" xlink:href="#mf9f0172ac2" y="970.256943"/>
    </g>
   </g>
   <g id="line2d_108">
    <g clip-path="url(#p70940794bb)">
     <use style="fill:#fdbf6f;stroke:#000000;" x="261.024474" xlink:href="#m127b9a3cfc" y="223.399442"/>
    </g>
   </g>
   <g id="line2d_109">
    <g clip-path="url(#p70940794bb)">
     <use style="fill:#9e0142;stroke:#000000;" x="1238.24045" xlink:href="#mf9f0172ac2" y="969.440847"/>
    </g>
   </g>
   <g id="line2d_110">
    <g clip-path="url(#p70940794bb)">
     <use style="fill:#fdbf6f;stroke:#000000;" x="261.436072" xlink:href="#m127b9a3cfc" y="230.28366"/>
    </g>
   </g>
   <g id="line2d_111">
    <g clip-path="url(#p70940794bb)">
     <use style="fill:#9e0142;stroke:#000000;" x="1234.62323" xlink:href="#mf9f0172ac2" y="969.91334"/>
    </g>
   </g>
   <g id="line2d_112">
    <g clip-path="url(#p70940794bb)">
     <use style="fill:#9e0142;stroke:#000000;" x="1245.230523" xlink:href="#mf9f0172ac2" y="969.380434"/>
    </g>
   </g>
   <g id="line2d_113">
    <g clip-path="url(#p70940794bb)">
     <use style="fill:#9e0142;stroke:#000000;" x="1234.811883" xlink:href="#mf9f0172ac2" y="968.54819"/>
    </g>
   </g>
   <g id="line2d_114">
    <g clip-path="url(#p70940794bb)">
     <use style="fill:#9e0142;stroke:#000000;" x="1239.191389" xlink:href="#mf9f0172ac2" y="968.434169"/>
    </g>
   </g>
   <g id="line2d_115">
    <g clip-path="url(#p70940794bb)">
     <use style="fill:#9e0142;stroke:#000000;" x="1237.718477" xlink:href="#mf9f0172ac2" y="969.856017"/>
    </g>
   </g>
   <g id="line2d_116">
    <g clip-path="url(#p70940794bb)">
     <use style="fill:#9e0142;stroke:#000000;" x="1238.502743" xlink:href="#mf9f0172ac2" y="969.825412"/>
    </g>
   </g>
   <g id="line2d_117">
    <g clip-path="url(#p70940794bb)">
     <use style="fill:#9e0142;stroke:#000000;" x="1239.422689" xlink:href="#mf9f0172ac2" y="968.748881"/>
    </g>
   </g>
   <g id="line2d_118">
    <g clip-path="url(#p70940794bb)">
     <use style="stroke:#000000;" x="809.302128" xlink:href="#maf354f3ef7" y="935.788165"/>
    </g>
   </g>
   <g id="line2d_119">
    <g clip-path="url(#p70940794bb)">
     <use style="fill:#fdbf6f;stroke:#000000;" x="256.072758" xlink:href="#m127b9a3cfc" y="226.324364"/>
    </g>
   </g>
   <g id="line2d_120">
    <g clip-path="url(#p70940794bb)">
     <use style="fill:#9e0142;stroke:#000000;" x="1242.685629" xlink:href="#mf9f0172ac2" y="969.88046"/>
    </g>
   </g>
   <g id="line2d_121">
    <g clip-path="url(#p70940794bb)">
     <use style="fill:#9e0142;stroke:#000000;" x="1240.896359" xlink:href="#mf9f0172ac2" y="969.613598"/>
    </g>
   </g>
   <g id="line2d_122">
    <g clip-path="url(#p70940794bb)">
     <use style="fill:#9e0142;stroke:#000000;" x="1235.274466" xlink:href="#mf9f0172ac2" y="969.88907"/>
    </g>
   </g>
   <g id="line2d_123">
    <g clip-path="url(#p70940794bb)">
     <use style="fill:#9e0142;stroke:#000000;" x="1235.604007" xlink:href="#mf9f0172ac2" y="970.220581"/>
    </g>
   </g>
   <g id="line2d_124">
    <g clip-path="url(#p70940794bb)">
     <use style="fill:#9e0142;stroke:#000000;" x="1238.809715" xlink:href="#mf9f0172ac2" y="969.300666"/>
    </g>
   </g>
   <g id="line2d_125">
    <g clip-path="url(#p70940794bb)">
     <use style="fill:#9e0142;stroke:#000000;" x="1237.77418" xlink:href="#mf9f0172ac2" y="969.715163"/>
    </g>
   </g>
   <g id="line2d_126">
    <g clip-path="url(#p70940794bb)">
     <use style="fill:#fdbf6f;stroke:#000000;" x="257.246519" xlink:href="#m127b9a3cfc" y="224.146716"/>
    </g>
   </g>
   <g id="line2d_127">
    <g clip-path="url(#p70940794bb)">
     <use style="fill:#fdbf6f;stroke:#000000;" x="255.970553" xlink:href="#m127b9a3cfc" y="236.940907"/>
    </g>
   </g>
   <g id="line2d_128">
    <g clip-path="url(#p70940794bb)">
     <use style="fill:#bfe5a0;stroke:#000000;" x="290.303911" xlink:href="#m90a653b217" y="1024.382105"/>
    </g>
   </g>
   <g id="line2d_129">
    <g clip-path="url(#p70940794bb)">
     <use style="fill:#fdbf6f;stroke:#000000;" x="257.868161" xlink:href="#m127b9a3cfc" y="233.119868"/>
    </g>
   </g>
   <g id="line2d_130">
    <g clip-path="url(#p70940794bb)">
     <use style="fill:#fdbf6f;stroke:#000000;" x="260.800571" xlink:href="#m127b9a3cfc" y="233.177997"/>
    </g>
   </g>
   <g id="line2d_131">
    <g clip-path="url(#p70940794bb)">
     <use style="fill:#9e0142;stroke:#000000;" x="1241.190013" xlink:href="#mf9f0172ac2" y="969.604753"/>
    </g>
   </g>
   <g id="line2d_132">
    <g clip-path="url(#p70940794bb)">
     <use style="fill:#9e0142;stroke:#000000;" x="1243.862134" xlink:href="#mf9f0172ac2" y="970.082886"/>
    </g>
   </g>
   <g id="line2d_133">
    <g clip-path="url(#p70940794bb)">
     <use style="fill:#9e0142;stroke:#000000;" x="1242.98007" xlink:href="#mf9f0172ac2" y="969.046821"/>
    </g>
   </g>
   <g id="line2d_134">
    <g clip-path="url(#p70940794bb)">
     <use style="fill:#9e0142;stroke:#000000;" x="1240.570039" xlink:href="#mf9f0172ac2" y="968.5473"/>
    </g>
   </g>
   <g id="line2d_135">
    <g clip-path="url(#p70940794bb)">
     <use style="fill:#9e0142;stroke:#000000;" x="1243.712023" xlink:href="#mf9f0172ac2" y="970.313715"/>
    </g>
   </g>
   <g id="line2d_136">
    <g clip-path="url(#p70940794bb)">
     <use style="fill:#9e0142;stroke:#000000;" x="1242.871061" xlink:href="#mf9f0172ac2" y="968.896944"/>
    </g>
   </g>
   <g id="line2d_137">
    <g clip-path="url(#p70940794bb)">
     <use style="fill:#9e0142;stroke:#000000;" x="1238.268701" xlink:href="#mf9f0172ac2" y="968.331237"/>
    </g>
   </g>
   <g id="line2d_138">
    <g clip-path="url(#p70940794bb)">
     <use style="fill:#9e0142;stroke:#000000;" x="1237.149451" xlink:href="#mf9f0172ac2" y="969.082405"/>
    </g>
   </g>
   <g id="line2d_139">
    <g clip-path="url(#p70940794bb)">
     <use style="fill:#9e0142;stroke:#000000;" x="1234.852856" xlink:href="#mf9f0172ac2" y="969.826847"/>
    </g>
   </g>
   <g id="line2d_140">
    <g clip-path="url(#p70940794bb)">
     <use style="fill:#9e0142;stroke:#000000;" x="1243.442997" xlink:href="#mf9f0172ac2" y="968.272404"/>
    </g>
   </g>
   <g id="line2d_141">
    <g clip-path="url(#p70940794bb)">
     <use style="fill:#9e0142;stroke:#000000;" x="1242.527176" xlink:href="#mf9f0172ac2" y="968.927768"/>
    </g>
   </g>
   <g id="line2d_142">
    <g clip-path="url(#p70940794bb)">
     <use style="fill:#fdbf6f;stroke:#000000;" x="260.772324" xlink:href="#m127b9a3cfc" y="225.12624"/>
    </g>
   </g>
   <g id="line2d_143">
    <g clip-path="url(#p70940794bb)">
     <use style="fill:#9e0142;stroke:#000000;" x="1236.613443" xlink:href="#mf9f0172ac2" y="968.716586"/>
    </g>
   </g>
   <g id="line2d_144">
    <g clip-path="url(#p70940794bb)">
     <use style="fill:#9e0142;stroke:#000000;" x="1242.241841" xlink:href="#mf9f0172ac2" y="967.949944"/>
    </g>
   </g>
   <g id="line2d_145">
    <g clip-path="url(#p70940794bb)">
     <use style="fill:#9e0142;stroke:#000000;" x="1240.936301" xlink:href="#mf9f0172ac2" y="968.910128"/>
    </g>
   </g>
   <g id="line2d_146">
    <g clip-path="url(#p70940794bb)">
     <use style="fill:#9e0142;stroke:#000000;" x="1236.906087" xlink:href="#mf9f0172ac2" y="970.017627"/>
    </g>
   </g>
   <g id="line2d_147">
    <g clip-path="url(#p70940794bb)">
     <use style="fill:#9e0142;stroke:#000000;" x="1245.178529" xlink:href="#mf9f0172ac2" y="969.243531"/>
    </g>
   </g>
   <g id="line2d_148">
    <g clip-path="url(#p70940794bb)">
     <use style="fill:#9e0142;stroke:#000000;" x="1237.051718" xlink:href="#mf9f0172ac2" y="968.68491"/>
    </g>
   </g>
   <g id="line2d_149">
    <g clip-path="url(#p70940794bb)">
     <use style="fill:#bfe5a0;stroke:#000000;" x="289.637861" xlink:href="#m90a653b217" y="1024.442537"/>
    </g>
   </g>
   <g id="line2d_150">
    <g clip-path="url(#p70940794bb)">
     <use style="fill:#9e0142;stroke:#000000;" x="1235.713856" xlink:href="#mf9f0172ac2" y="968.28566"/>
    </g>
   </g>
   <g id="line2d_151">
    <g clip-path="url(#p70940794bb)">
     <use style="fill:#9e0142;stroke:#000000;" x="1237.059185" xlink:href="#mf9f0172ac2" y="967.953411"/>
    </g>
   </g>
   <g id="line2d_152">
    <g clip-path="url(#p70940794bb)">
     <use style="fill:#bfe5a0;stroke:#000000;" x="292.385936" xlink:href="#m90a653b217" y="1023.984505"/>
    </g>
   </g>
   <g id="line2d_153">
    <g clip-path="url(#p70940794bb)">
     <use style="fill:#bfe5a0;stroke:#000000;" x="289.578636" xlink:href="#m90a653b217" y="1023.45009"/>
    </g>
   </g>
   <g id="patch_3">
    <path d="M 180 1281.6 
L 180 172.8 
" style="fill:none;stroke:#000000;stroke-linecap:square;stroke-linejoin:miter;stroke-width:0.8;"/>
   </g>
   <g id="patch_4">
    <path d="M 1296 1281.6 
L 1296 172.8 
" style="fill:none;stroke:#000000;stroke-linecap:square;stroke-linejoin:miter;stroke-width:0.8;"/>
   </g>
   <g id="patch_5">
    <path d="M 180 1281.6 
L 1296 1281.6 
" style="fill:none;stroke:#000000;stroke-linecap:square;stroke-linejoin:miter;stroke-width:0.8;"/>
   </g>
   <g id="patch_6">
    <path d="M 180 172.8 
L 1296 172.8 
" style="fill:none;stroke:#000000;stroke-linecap:square;stroke-linejoin:miter;stroke-width:0.8;"/>
   </g>
  </g>
 </g>
 <defs>
  <clipPath id="p70940794bb">
   <rect height="1108.8" width="1116" x="180" y="172.8"/>
  </clipPath>
 </defs>
</svg>
