<?xml version="1.0" encoding="utf-8" standalone="no"?>
<!DOCTYPE svg PUBLIC "-//W3C//DTD SVG 1.1//EN"
  "http://www.w3.org/Graphics/SVG/1.1/DTD/svg11.dtd">
<!-- Created with matplotlib (http://matplotlib.org/) -->
<svg height="1440pt" version="1.1" viewBox="0 0 1440 1440" width="1440pt" xmlns="http://www.w3.org/2000/svg" xmlns:xlink="http://www.w3.org/1999/xlink">
 <defs>
  <style type="text/css">
*{stroke-linecap:butt;stroke-linejoin:round;}
  </style>
 </defs>
 <g id="figure_1">
  <g id="patch_1">
   <path d="M 0 1440 
L 1440 1440 
L 1440 0 
L 0 0 
z
" style="fill:#ffffff;"/>
  </g>
  <g id="axes_1">
   <g id="patch_2">
    <path d="M 180 1281.6 
L 1296 1281.6 
L 1296 172.8 
L 180 172.8 
z
" style="fill:#ffffff;"/>
   </g>
   <g id="matplotlib.axis_1">
    <g id="xtick_1">
     <g id="line2d_1">
      <defs>
       <path d="M 0 0 
L 0 3.5 
" id="m03da530f81" style="stroke:#000000;stroke-width:0.8;"/>
      </defs>
      <g>
       <use style="stroke:#000000;stroke-width:0.8;" x="192.073507" xlink:href="#m03da530f81" y="1281.6"/>
      </g>
     </g>
     <g id="text_1">
      <!-- −0.10 -->
      <defs>
       <path d="M 10.59375 35.5 
L 73.1875 35.5 
L 73.1875 27.203125 
L 10.59375 27.203125 
z
" id="DejaVuSans-2212"/>
       <path d="M 31.78125 66.40625 
Q 24.171875 66.40625 20.328125 58.90625 
Q 16.5 51.421875 16.5 36.375 
Q 16.5 21.390625 20.328125 13.890625 
Q 24.171875 6.390625 31.78125 6.390625 
Q 39.453125 6.390625 43.28125 13.890625 
Q 47.125 21.390625 47.125 36.375 
Q 47.125 51.421875 43.28125 58.90625 
Q 39.453125 66.40625 31.78125 66.40625 
z
M 31.78125 74.21875 
Q 44.046875 74.21875 50.515625 64.515625 
Q 56.984375 54.828125 56.984375 36.375 
Q 56.984375 17.96875 50.515625 8.265625 
Q 44.046875 -1.421875 31.78125 -1.421875 
Q 19.53125 -1.421875 13.0625 8.265625 
Q 6.59375 17.96875 6.59375 36.375 
Q 6.59375 54.828125 13.0625 64.515625 
Q 19.53125 74.21875 31.78125 74.21875 
z
" id="DejaVuSans-30"/>
       <path d="M 10.6875 12.40625 
L 21 12.40625 
L 21 0 
L 10.6875 0 
z
" id="DejaVuSans-2e"/>
       <path d="M 12.40625 8.296875 
L 28.515625 8.296875 
L 28.515625 63.921875 
L 10.984375 60.40625 
L 10.984375 69.390625 
L 28.421875 72.90625 
L 38.28125 72.90625 
L 38.28125 8.296875 
L 54.390625 8.296875 
L 54.390625 0 
L 12.40625 0 
z
" id="DejaVuSans-31"/>
      </defs>
      <g transform="translate(176.750851 1296.198437)scale(0.1 -0.1)">
       <use xlink:href="#DejaVuSans-2212"/>
       <use x="83.789062" xlink:href="#DejaVuSans-30"/>
       <use x="147.412109" xlink:href="#DejaVuSans-2e"/>
       <use x="179.199219" xlink:href="#DejaVuSans-31"/>
       <use x="242.822266" xlink:href="#DejaVuSans-30"/>
      </g>
     </g>
    </g>
    <g id="xtick_2">
     <g id="line2d_2">
      <g>
       <use style="stroke:#000000;stroke-width:0.8;" x="432.427661" xlink:href="#m03da530f81" y="1281.6"/>
      </g>
     </g>
     <g id="text_2">
      <!-- −0.05 -->
      <defs>
       <path d="M 10.796875 72.90625 
L 49.515625 72.90625 
L 49.515625 64.59375 
L 19.828125 64.59375 
L 19.828125 46.734375 
Q 21.96875 47.46875 24.109375 47.828125 
Q 26.265625 48.1875 28.421875 48.1875 
Q 40.625 48.1875 47.75 41.5 
Q 54.890625 34.8125 54.890625 23.390625 
Q 54.890625 11.625 47.5625 5.09375 
Q 40.234375 -1.421875 26.90625 -1.421875 
Q 22.3125 -1.421875 17.546875 -0.640625 
Q 12.796875 0.140625 7.71875 1.703125 
L 7.71875 11.625 
Q 12.109375 9.234375 16.796875 8.0625 
Q 21.484375 6.890625 26.703125 6.890625 
Q 35.15625 6.890625 40.078125 11.328125 
Q 45.015625 15.765625 45.015625 23.390625 
Q 45.015625 31 40.078125 35.4375 
Q 35.15625 39.890625 26.703125 39.890625 
Q 22.75 39.890625 18.8125 39.015625 
Q 14.890625 38.140625 10.796875 36.28125 
z
" id="DejaVuSans-35"/>
      </defs>
      <g transform="translate(417.105005 1296.198437)scale(0.1 -0.1)">
       <use xlink:href="#DejaVuSans-2212"/>
       <use x="83.789062" xlink:href="#DejaVuSans-30"/>
       <use x="147.412109" xlink:href="#DejaVuSans-2e"/>
       <use x="179.199219" xlink:href="#DejaVuSans-30"/>
       <use x="242.822266" xlink:href="#DejaVuSans-35"/>
      </g>
     </g>
    </g>
    <g id="xtick_3">
     <g id="line2d_3">
      <g>
       <use style="stroke:#000000;stroke-width:0.8;" x="672.781815" xlink:href="#m03da530f81" y="1281.6"/>
      </g>
     </g>
     <g id="text_3">
      <!-- 0.00 -->
      <g transform="translate(661.649003 1296.198437)scale(0.1 -0.1)">
       <use xlink:href="#DejaVuSans-30"/>
       <use x="63.623047" xlink:href="#DejaVuSans-2e"/>
       <use x="95.410156" xlink:href="#DejaVuSans-30"/>
       <use x="159.033203" xlink:href="#DejaVuSans-30"/>
      </g>
     </g>
    </g>
    <g id="xtick_4">
     <g id="line2d_4">
      <g>
       <use style="stroke:#000000;stroke-width:0.8;" x="913.135969" xlink:href="#m03da530f81" y="1281.6"/>
      </g>
     </g>
     <g id="text_4">
      <!-- 0.05 -->
      <g transform="translate(902.003157 1296.198437)scale(0.1 -0.1)">
       <use xlink:href="#DejaVuSans-30"/>
       <use x="63.623047" xlink:href="#DejaVuSans-2e"/>
       <use x="95.410156" xlink:href="#DejaVuSans-30"/>
       <use x="159.033203" xlink:href="#DejaVuSans-35"/>
      </g>
     </g>
    </g>
    <g id="xtick_5">
     <g id="line2d_5">
      <g>
       <use style="stroke:#000000;stroke-width:0.8;" x="1153.490123" xlink:href="#m03da530f81" y="1281.6"/>
      </g>
     </g>
     <g id="text_5">
      <!-- 0.10 -->
      <g transform="translate(1142.357311 1296.198437)scale(0.1 -0.1)">
       <use xlink:href="#DejaVuSans-30"/>
       <use x="63.623047" xlink:href="#DejaVuSans-2e"/>
       <use x="95.410156" xlink:href="#DejaVuSans-31"/>
       <use x="159.033203" xlink:href="#DejaVuSans-30"/>
      </g>
     </g>
    </g>
   </g>
   <g id="matplotlib.axis_2">
    <g id="ytick_1">
     <g id="line2d_6">
      <defs>
       <path d="M 0 0 
L -3.5 0 
" id="mc9f0c07718" style="stroke:#000000;stroke-width:0.8;"/>
      </defs>
      <g>
       <use style="stroke:#000000;stroke-width:0.8;" x="180" xlink:href="#mc9f0c07718" y="1123.342813"/>
      </g>
     </g>
     <g id="text_6">
      <!-- 0.00 -->
      <g transform="translate(150.734375 1127.142031)scale(0.1 -0.1)">
       <use xlink:href="#DejaVuSans-30"/>
       <use x="63.623047" xlink:href="#DejaVuSans-2e"/>
       <use x="95.410156" xlink:href="#DejaVuSans-30"/>
       <use x="159.033203" xlink:href="#DejaVuSans-30"/>
      </g>
     </g>
    </g>
    <g id="ytick_2">
     <g id="line2d_7">
      <g>
       <use style="stroke:#000000;stroke-width:0.8;" x="180" xlink:href="#mc9f0c07718" y="956.909933"/>
      </g>
     </g>
     <g id="text_7">
      <!-- 0.05 -->
      <g transform="translate(150.734375 960.709152)scale(0.1 -0.1)">
       <use xlink:href="#DejaVuSans-30"/>
       <use x="63.623047" xlink:href="#DejaVuSans-2e"/>
       <use x="95.410156" xlink:href="#DejaVuSans-30"/>
       <use x="159.033203" xlink:href="#DejaVuSans-35"/>
      </g>
     </g>
    </g>
    <g id="ytick_3">
     <g id="line2d_8">
      <g>
       <use style="stroke:#000000;stroke-width:0.8;" x="180" xlink:href="#mc9f0c07718" y="790.477054"/>
      </g>
     </g>
     <g id="text_8">
      <!-- 0.10 -->
      <g transform="translate(150.734375 794.276273)scale(0.1 -0.1)">
       <use xlink:href="#DejaVuSans-30"/>
       <use x="63.623047" xlink:href="#DejaVuSans-2e"/>
       <use x="95.410156" xlink:href="#DejaVuSans-31"/>
       <use x="159.033203" xlink:href="#DejaVuSans-30"/>
      </g>
     </g>
    </g>
    <g id="ytick_4">
     <g id="line2d_9">
      <g>
       <use style="stroke:#000000;stroke-width:0.8;" x="180" xlink:href="#mc9f0c07718" y="624.044175"/>
      </g>
     </g>
     <g id="text_9">
      <!-- 0.15 -->
      <g transform="translate(150.734375 627.843393)scale(0.1 -0.1)">
       <use xlink:href="#DejaVuSans-30"/>
       <use x="63.623047" xlink:href="#DejaVuSans-2e"/>
       <use x="95.410156" xlink:href="#DejaVuSans-31"/>
       <use x="159.033203" xlink:href="#DejaVuSans-35"/>
      </g>
     </g>
    </g>
    <g id="ytick_5">
     <g id="line2d_10">
      <g>
       <use style="stroke:#000000;stroke-width:0.8;" x="180" xlink:href="#mc9f0c07718" y="457.611295"/>
      </g>
     </g>
     <g id="text_10">
      <!-- 0.20 -->
      <defs>
       <path d="M 19.1875 8.296875 
L 53.609375 8.296875 
L 53.609375 0 
L 7.328125 0 
L 7.328125 8.296875 
Q 12.9375 14.109375 22.625 23.890625 
Q 32.328125 33.6875 34.8125 36.53125 
Q 39.546875 41.84375 41.421875 45.53125 
Q 43.3125 49.21875 43.3125 52.78125 
Q 43.3125 58.59375 39.234375 62.25 
Q 35.15625 65.921875 28.609375 65.921875 
Q 23.96875 65.921875 18.8125 64.3125 
Q 13.671875 62.703125 7.8125 59.421875 
L 7.8125 69.390625 
Q 13.765625 71.78125 18.9375 73 
Q 24.125 74.21875 28.421875 74.21875 
Q 39.75 74.21875 46.484375 68.546875 
Q 53.21875 62.890625 53.21875 53.421875 
Q 53.21875 48.921875 51.53125 44.890625 
Q 49.859375 40.875 45.40625 35.40625 
Q 44.1875 33.984375 37.640625 27.21875 
Q 31.109375 20.453125 19.1875 8.296875 
z
" id="DejaVuSans-32"/>
      </defs>
      <g transform="translate(150.734375 461.410514)scale(0.1 -0.1)">
       <use xlink:href="#DejaVuSans-30"/>
       <use x="63.623047" xlink:href="#DejaVuSans-2e"/>
       <use x="95.410156" xlink:href="#DejaVuSans-32"/>
       <use x="159.033203" xlink:href="#DejaVuSans-30"/>
      </g>
     </g>
    </g>
    <g id="ytick_6">
     <g id="line2d_11">
      <g>
       <use style="stroke:#000000;stroke-width:0.8;" x="180" xlink:href="#mc9f0c07718" y="291.178416"/>
      </g>
     </g>
     <g id="text_11">
      <!-- 0.25 -->
      <g transform="translate(150.734375 294.977635)scale(0.1 -0.1)">
       <use xlink:href="#DejaVuSans-30"/>
       <use x="63.623047" xlink:href="#DejaVuSans-2e"/>
       <use x="95.410156" xlink:href="#DejaVuSans-32"/>
       <use x="159.033203" xlink:href="#DejaVuSans-35"/>
      </g>
     </g>
    </g>
   </g>
   <g id="line2d_12">
    <defs>
     <path d="M 0 9 
C 2.386828 9 4.676219 8.051703 6.363961 6.363961 
C 8.051703 4.676219 9 2.386828 9 0 
C 9 -2.386828 8.051703 -4.676219 6.363961 -6.363961 
C 4.676219 -8.051703 2.386828 -9 0 -9 
C -2.386828 -9 -4.676219 -8.051703 -6.363961 -6.363961 
C -8.051703 -4.676219 -9 -2.386828 -9 0 
C -9 2.386828 -8.051703 4.676219 -6.363961 6.363961 
C -4.676219 8.051703 -2.386828 9 0 9 
z
" id="m054dc331dd" style="stroke:#000000;"/>
    </defs>
    <g clip-path="url(#pecc4bef9b4)">
     <use style="fill:#9e0142;stroke:#000000;" x="1241.215415" xlink:href="#m054dc331dd" y="999.416863"/>
    </g>
   </g>
   <g id="line2d_13">
    <g clip-path="url(#pecc4bef9b4)">
     <use style="fill:#9e0142;stroke:#000000;" x="1242.600441" xlink:href="#m054dc331dd" y="997.4355"/>
    </g>
   </g>
   <g id="line2d_14">
    <g clip-path="url(#pecc4bef9b4)">
     <use style="fill:#9e0142;stroke:#000000;" x="1240.378276" xlink:href="#m054dc331dd" y="999.554393"/>
    </g>
   </g>
   <g id="line2d_15">
    <g clip-path="url(#pecc4bef9b4)">
     <use style="fill:#9e0142;stroke:#000000;" x="1235.477582" xlink:href="#m054dc331dd" y="997.376606"/>
    </g>
   </g>
   <g id="line2d_16">
    <g clip-path="url(#pecc4bef9b4)">
     <use style="fill:#9e0142;stroke:#000000;" x="1237.735153" xlink:href="#m054dc331dd" y="997.750112"/>
    </g>
   </g>
   <g id="line2d_17">
    <g clip-path="url(#pecc4bef9b4)">
     <use style="fill:#9e0142;stroke:#000000;" x="1243.98494" xlink:href="#m054dc331dd" y="998.250865"/>
    </g>
   </g>
   <g id="line2d_18">
    <g clip-path="url(#pecc4bef9b4)">
     <use style="fill:#9e0142;stroke:#000000;" x="1243.653493" xlink:href="#m054dc331dd" y="998.781372"/>
    </g>
   </g>
   <g id="line2d_19">
    <g clip-path="url(#pecc4bef9b4)">
     <use style="fill:#9e0142;stroke:#000000;" x="1244.270837" xlink:href="#m054dc331dd" y="997.933608"/>
    </g>
   </g>
   <g id="line2d_20">
    <defs>
     <path d="M 0 3 
C 0.795609 3 1.55874 2.683901 2.12132 2.12132 
C 2.683901 1.55874 3 0.795609 3 0 
C 3 -0.795609 2.683901 -1.55874 2.12132 -2.12132 
C 1.55874 -2.683901 0.795609 -3 0 -3 
C -0.795609 -3 -1.55874 -2.683901 -2.12132 -2.12132 
C -2.683901 -1.55874 -3 -0.795609 -3 0 
C -3 0.795609 -2.683901 1.55874 -2.12132 2.12132 
C -1.55874 2.683901 -0.795609 3 0 3 
z
" id="m8d76cbbe1c" style="stroke:#000000;"/>
    </defs>
    <g clip-path="url(#pecc4bef9b4)">
     <use style="stroke:#000000;" x="446.554172" xlink:href="#m8d76cbbe1c" y="436.458409"/>
    </g>
   </g>
   <g id="line2d_21">
    <g clip-path="url(#pecc4bef9b4)">
     <use style="fill:#9e0142;stroke:#000000;" x="1244.54815" xlink:href="#m054dc331dd" y="998.200942"/>
    </g>
   </g>
   <g id="line2d_22">
    <g clip-path="url(#pecc4bef9b4)">
     <use style="fill:#9e0142;stroke:#000000;" x="1241.399709" xlink:href="#m054dc331dd" y="997.896212"/>
    </g>
   </g>
   <g id="line2d_23">
    <g clip-path="url(#pecc4bef9b4)">
     <use style="fill:#9e0142;stroke:#000000;" x="1238.083438" xlink:href="#m054dc331dd" y="999.392094"/>
    </g>
   </g>
   <g id="line2d_24">
    <g clip-path="url(#pecc4bef9b4)">
     <use style="fill:#9e0142;stroke:#000000;" x="1238.038739" xlink:href="#m054dc331dd" y="997.884207"/>
    </g>
   </g>
   <g id="line2d_25">
    <g clip-path="url(#pecc4bef9b4)">
     <use style="fill:#9e0142;stroke:#000000;" x="1234.177185" xlink:href="#m054dc331dd" y="998.794712"/>
    </g>
   </g>
   <g id="line2d_26">
    <g clip-path="url(#pecc4bef9b4)">
     <use style="fill:#9e0142;stroke:#000000;" x="1234.957079" xlink:href="#m054dc331dd" y="998.828357"/>
    </g>
   </g>
   <g id="line2d_27">
    <g clip-path="url(#pecc4bef9b4)">
     <use style="fill:#9e0142;stroke:#000000;" x="1235.321386" xlink:href="#m054dc331dd" y="998.691004"/>
    </g>
   </g>
   <g id="line2d_28">
    <g clip-path="url(#pecc4bef9b4)">
     <use style="fill:#9e0142;stroke:#000000;" x="1238.641824" xlink:href="#m054dc331dd" y="998.752223"/>
    </g>
   </g>
   <g id="line2d_29">
    <defs>
     <path d="M 0 9 
C 2.386828 9 4.676219 8.051703 6.363961 6.363961 
C 8.051703 4.676219 9 2.386828 9 0 
C 9 -2.386828 8.051703 -4.676219 6.363961 -6.363961 
C 4.676219 -8.051703 2.386828 -9 0 -9 
C -2.386828 -9 -4.676219 -8.051703 -6.363961 -6.363961 
C -8.051703 -4.676219 -9 -2.386828 -9 0 
C -9 2.386828 -8.051703 4.676219 -6.363961 6.363961 
C -4.676219 8.051703 -2.386828 9 0 9 
z
" id="m4a2786a224" style="stroke:#000000;"/>
    </defs>
    <g clip-path="url(#pecc4bef9b4)">
     <use style="fill:#ffffbe;stroke:#000000;" x="278.750842" xlink:href="#m4a2786a224" y="231.411372"/>
    </g>
   </g>
   <g id="line2d_30">
    <g clip-path="url(#pecc4bef9b4)">
     <use style="fill:#9e0142;stroke:#000000;" x="1243.226918" xlink:href="#m054dc331dd" y="998.753754"/>
    </g>
   </g>
   <g id="line2d_31">
    <g clip-path="url(#pecc4bef9b4)">
     <use style="fill:#9e0142;stroke:#000000;" x="1242.682111" xlink:href="#m054dc331dd" y="999.544916"/>
    </g>
   </g>
   <g id="line2d_32">
    <g clip-path="url(#pecc4bef9b4)">
     <use style="fill:#9e0142;stroke:#000000;" x="1234.763011" xlink:href="#m054dc331dd" y="998.656772"/>
    </g>
   </g>
   <g id="line2d_33">
    <g clip-path="url(#pecc4bef9b4)">
     <use style="fill:#9e0142;stroke:#000000;" x="1234.763777" xlink:href="#m054dc331dd" y="998.817478"/>
    </g>
   </g>
   <g id="line2d_34">
    <g clip-path="url(#pecc4bef9b4)">
     <use style="fill:#9e0142;stroke:#000000;" x="1243.990825" xlink:href="#m054dc331dd" y="999.248355"/>
    </g>
   </g>
   <g id="line2d_35">
    <g clip-path="url(#pecc4bef9b4)">
     <use style="fill:#9e0142;stroke:#000000;" x="1236.195468" xlink:href="#m054dc331dd" y="999.69264"/>
    </g>
   </g>
   <g id="line2d_36">
    <g clip-path="url(#pecc4bef9b4)">
     <use style="fill:#9e0142;stroke:#000000;" x="1239.286421" xlink:href="#m054dc331dd" y="998.319186"/>
    </g>
   </g>
   <g id="line2d_37">
    <g clip-path="url(#pecc4bef9b4)">
     <use style="fill:#ffffbe;stroke:#000000;" x="279.875206" xlink:href="#m4a2786a224" y="223.415677"/>
    </g>
   </g>
   <g id="line2d_38">
    <g clip-path="url(#pecc4bef9b4)">
     <use style="fill:#9e0142;stroke:#000000;" x="1237.607152" xlink:href="#m054dc331dd" y="999.523303"/>
    </g>
   </g>
   <g id="line2d_39">
    <g clip-path="url(#pecc4bef9b4)">
     <use style="fill:#9e0142;stroke:#000000;" x="1240.026759" xlink:href="#m054dc331dd" y="998.288864"/>
    </g>
   </g>
   <g id="line2d_40">
    <g clip-path="url(#pecc4bef9b4)">
     <use style="fill:#9e0142;stroke:#000000;" x="1234.102273" xlink:href="#m054dc331dd" y="998.523111"/>
    </g>
   </g>
   <g id="line2d_41">
    <g clip-path="url(#pecc4bef9b4)">
     <use style="fill:#9e0142;stroke:#000000;" x="1243.213226" xlink:href="#m054dc331dd" y="998.497314"/>
    </g>
   </g>
   <g id="line2d_42">
    <g clip-path="url(#pecc4bef9b4)">
     <use style="stroke:#000000;" x="336.739216" xlink:href="#m8d76cbbe1c" y="1164.231797"/>
    </g>
   </g>
   <g id="line2d_43">
    <g clip-path="url(#pecc4bef9b4)">
     <use style="fill:#9e0142;stroke:#000000;" x="1238.636523" xlink:href="#m054dc331dd" y="998.433517"/>
    </g>
   </g>
   <g id="line2d_44">
    <g clip-path="url(#pecc4bef9b4)">
     <use style="fill:#9e0142;stroke:#000000;" x="1237.138277" xlink:href="#m054dc331dd" y="997.594437"/>
    </g>
   </g>
   <g id="line2d_45">
    <g clip-path="url(#pecc4bef9b4)">
     <use style="fill:#9e0142;stroke:#000000;" x="1236.050759" xlink:href="#m054dc331dd" y="997.372673"/>
    </g>
   </g>
   <g id="line2d_46">
    <g clip-path="url(#pecc4bef9b4)">
     <use style="fill:#ffffbe;stroke:#000000;" x="281.486385" xlink:href="#m4a2786a224" y="234.061996"/>
    </g>
   </g>
   <g id="line2d_47">
    <g clip-path="url(#pecc4bef9b4)">
     <use style="fill:#9e0142;stroke:#000000;" x="1234.790254" xlink:href="#m054dc331dd" y="998.584706"/>
    </g>
   </g>
   <g id="line2d_48">
    <g clip-path="url(#pecc4bef9b4)">
     <use style="fill:#9e0142;stroke:#000000;" x="1239.968749" xlink:href="#m054dc331dd" y="997.353554"/>
    </g>
   </g>
   <g id="line2d_49">
    <g clip-path="url(#pecc4bef9b4)">
     <use style="fill:#9e0142;stroke:#000000;" x="1238.160651" xlink:href="#m054dc331dd" y="999.353637"/>
    </g>
   </g>
   <g id="line2d_50">
    <g clip-path="url(#pecc4bef9b4)">
     <use style="fill:#9e0142;stroke:#000000;" x="1236.913316" xlink:href="#m054dc331dd" y="998.716559"/>
    </g>
   </g>
   <g id="line2d_51">
    <g clip-path="url(#pecc4bef9b4)">
     <use style="fill:#9e0142;stroke:#000000;" x="1243.53775" xlink:href="#m054dc331dd" y="999.283533"/>
    </g>
   </g>
   <g id="line2d_52">
    <g clip-path="url(#pecc4bef9b4)">
     <use style="fill:#9e0142;stroke:#000000;" x="1239.038181" xlink:href="#m054dc331dd" y="999.733458"/>
    </g>
   </g>
   <g id="line2d_53">
    <g clip-path="url(#pecc4bef9b4)">
     <use style="fill:#ffffbe;stroke:#000000;" x="278.068671" xlink:href="#m4a2786a224" y="223.2"/>
    </g>
   </g>
   <g id="line2d_54">
    <g clip-path="url(#pecc4bef9b4)">
     <use style="fill:#9e0142;stroke:#000000;" x="1240.254532" xlink:href="#m054dc331dd" y="998.516164"/>
    </g>
   </g>
   <g id="line2d_55">
    <g clip-path="url(#pecc4bef9b4)">
     <use style="fill:#9e0142;stroke:#000000;" x="1243.077639" xlink:href="#m054dc331dd" y="998.611211"/>
    </g>
   </g>
   <g id="line2d_56">
    <g clip-path="url(#pecc4bef9b4)">
     <use style="fill:#9e0142;stroke:#000000;" x="1241.600643" xlink:href="#m054dc331dd" y="998.5192"/>
    </g>
   </g>
   <g id="line2d_57">
    <g clip-path="url(#pecc4bef9b4)">
     <use style="stroke:#000000;" x="335.327392" xlink:href="#m8d76cbbe1c" y="1164.243002"/>
    </g>
   </g>
   <g id="line2d_58">
    <g clip-path="url(#pecc4bef9b4)">
     <use style="fill:#9e0142;stroke:#000000;" x="1238.318264" xlink:href="#m054dc331dd" y="997.755861"/>
    </g>
   </g>
   <g id="line2d_59">
    <g clip-path="url(#pecc4bef9b4)">
     <use style="stroke:#000000;" x="446.109363" xlink:href="#m8d76cbbe1c" y="440.772025"/>
    </g>
   </g>
   <g id="line2d_60">
    <g clip-path="url(#pecc4bef9b4)">
     <use style="fill:#ffffbe;stroke:#000000;" x="280.239271" xlink:href="#m4a2786a224" y="235.348739"/>
    </g>
   </g>
   <g id="line2d_61">
    <g clip-path="url(#pecc4bef9b4)">
     <use style="fill:#9e0142;stroke:#000000;" x="1243.074499" xlink:href="#m054dc331dd" y="999.366651"/>
    </g>
   </g>
   <g id="line2d_62">
    <g clip-path="url(#pecc4bef9b4)">
     <use style="fill:#ffffbe;stroke:#000000;" x="282.293312" xlink:href="#m4a2786a224" y="227.774696"/>
    </g>
   </g>
   <g id="line2d_63">
    <g clip-path="url(#pecc4bef9b4)">
     <use style="fill:#9e0142;stroke:#000000;" x="1240.270708" xlink:href="#m054dc331dd" y="997.515014"/>
    </g>
   </g>
   <g id="line2d_64">
    <g clip-path="url(#pecc4bef9b4)">
     <use style="stroke:#000000;" x="981.697913" xlink:href="#m8d76cbbe1c" y="1231.2"/>
    </g>
   </g>
   <g id="line2d_65">
    <g clip-path="url(#pecc4bef9b4)">
     <use style="fill:#9e0142;stroke:#000000;" x="1236.468615" xlink:href="#m054dc331dd" y="999.393597"/>
    </g>
   </g>
   <g id="line2d_66">
    <g clip-path="url(#pecc4bef9b4)">
     <use style="fill:#9e0142;stroke:#000000;" x="1237.480246" xlink:href="#m054dc331dd" y="997.902505"/>
    </g>
   </g>
   <g id="line2d_67">
    <g clip-path="url(#pecc4bef9b4)">
     <use style="fill:#9e0142;stroke:#000000;" x="1240.040621" xlink:href="#m054dc331dd" y="999.601065"/>
    </g>
   </g>
   <g id="line2d_68">
    <g clip-path="url(#pecc4bef9b4)">
     <use style="fill:#9e0142;stroke:#000000;" x="1245.233987" xlink:href="#m054dc331dd" y="998.180454"/>
    </g>
   </g>
   <g id="line2d_69">
    <g clip-path="url(#pecc4bef9b4)">
     <use style="stroke:#000000;" x="330.822569" xlink:href="#m8d76cbbe1c" y="1163.890123"/>
    </g>
   </g>
   <g id="line2d_70">
    <g clip-path="url(#pecc4bef9b4)">
     <use style="fill:#9e0142;stroke:#000000;" x="1235.865264" xlink:href="#m054dc331dd" y="997.531069"/>
    </g>
   </g>
   <g id="line2d_71">
    <g clip-path="url(#pecc4bef9b4)">
     <use style="fill:#9e0142;stroke:#000000;" x="1237.329255" xlink:href="#m054dc331dd" y="999.418416"/>
    </g>
   </g>
   <g id="line2d_72">
    <g clip-path="url(#pecc4bef9b4)">
     <use style="fill:#9e0142;stroke:#000000;" x="1239.514909" xlink:href="#m054dc331dd" y="998.726814"/>
    </g>
   </g>
   <g id="line2d_73">
    <g clip-path="url(#pecc4bef9b4)">
     <use style="stroke:#000000;" x="1221.891054" xlink:href="#m8d76cbbe1c" y="1179.493605"/>
    </g>
   </g>
   <g id="line2d_74">
    <g clip-path="url(#pecc4bef9b4)">
     <use style="fill:#ffffbe;stroke:#000000;" x="279.845894" xlink:href="#m4a2786a224" y="238.812516"/>
    </g>
   </g>
   <g id="line2d_75">
    <g clip-path="url(#pecc4bef9b4)">
     <use style="fill:#9e0142;stroke:#000000;" x="1236.492427" xlink:href="#m054dc331dd" y="998.62958"/>
    </g>
   </g>
   <g id="line2d_76">
    <g clip-path="url(#pecc4bef9b4)">
     <use style="fill:#9e0142;stroke:#000000;" x="1234.30992" xlink:href="#m054dc331dd" y="999.676384"/>
    </g>
   </g>
   <g id="line2d_77">
    <g clip-path="url(#pecc4bef9b4)">
     <use style="fill:#9e0142;stroke:#000000;" x="1244.971783" xlink:href="#m054dc331dd" y="999.056809"/>
    </g>
   </g>
   <g id="line2d_78">
    <g clip-path="url(#pecc4bef9b4)">
     <use style="fill:#9e0142;stroke:#000000;" x="1241.677351" xlink:href="#m054dc331dd" y="997.774081"/>
    </g>
   </g>
   <g id="line2d_79">
    <g clip-path="url(#pecc4bef9b4)">
     <use style="fill:#ffffbe;stroke:#000000;" x="278.47363" xlink:href="#m4a2786a224" y="223.357908"/>
    </g>
   </g>
   <g id="line2d_80">
    <g clip-path="url(#pecc4bef9b4)">
     <use style="fill:#ffffbe;stroke:#000000;" x="282.918725" xlink:href="#m4a2786a224" y="228.279382"/>
    </g>
   </g>
   <g id="line2d_81">
    <g clip-path="url(#pecc4bef9b4)">
     <use style="fill:#9e0142;stroke:#000000;" x="1238.594064" xlink:href="#m054dc331dd" y="997.741673"/>
    </g>
   </g>
   <g id="line2d_82">
    <g clip-path="url(#pecc4bef9b4)">
     <use style="stroke:#000000;" x="336.929057" xlink:href="#m8d76cbbe1c" y="1164.268301"/>
    </g>
   </g>
   <g id="line2d_83">
    <g clip-path="url(#pecc4bef9b4)">
     <use style="stroke:#000000;" x="230.727273" xlink:href="#m8d76cbbe1c" y="508.852474"/>
    </g>
   </g>
   <g id="line2d_84">
    <g clip-path="url(#pecc4bef9b4)">
     <use style="fill:#ffffbe;stroke:#000000;" x="279.596019" xlink:href="#m4a2786a224" y="239.106242"/>
    </g>
   </g>
   <g id="line2d_85">
    <g clip-path="url(#pecc4bef9b4)">
     <use style="fill:#9e0142;stroke:#000000;" x="1243.850946" xlink:href="#m054dc331dd" y="997.553821"/>
    </g>
   </g>
   <g id="line2d_86">
    <g clip-path="url(#pecc4bef9b4)">
     <use style="fill:#9e0142;stroke:#000000;" x="1234.197595" xlink:href="#m054dc331dd" y="998.122114"/>
    </g>
   </g>
   <g id="line2d_87">
    <g clip-path="url(#pecc4bef9b4)">
     <use style="fill:#9e0142;stroke:#000000;" x="1244.269011" xlink:href="#m054dc331dd" y="998.012757"/>
    </g>
   </g>
   <g id="line2d_88">
    <g clip-path="url(#pecc4bef9b4)">
     <use style="fill:#ffffbe;stroke:#000000;" x="277.484106" xlink:href="#m4a2786a224" y="233.442636"/>
    </g>
   </g>
   <g id="line2d_89">
    <g clip-path="url(#pecc4bef9b4)">
     <use style="fill:#9e0142;stroke:#000000;" x="1244.903267" xlink:href="#m054dc331dd" y="998.1933"/>
    </g>
   </g>
   <g id="line2d_90">
    <g clip-path="url(#pecc4bef9b4)">
     <use style="fill:#9e0142;stroke:#000000;" x="1235.655503" xlink:href="#m054dc331dd" y="999.395413"/>
    </g>
   </g>
   <g id="line2d_91">
    <g clip-path="url(#pecc4bef9b4)">
     <use style="fill:#9e0142;stroke:#000000;" x="1237.072828" xlink:href="#m054dc331dd" y="998.217777"/>
    </g>
   </g>
   <g id="line2d_92">
    <g clip-path="url(#pecc4bef9b4)">
     <use style="fill:#9e0142;stroke:#000000;" x="1239.439169" xlink:href="#m054dc331dd" y="999.264366"/>
    </g>
   </g>
   <g id="line2d_93">
    <g clip-path="url(#pecc4bef9b4)">
     <use style="fill:#9e0142;stroke:#000000;" x="1245.272727" xlink:href="#m054dc331dd" y="998.935213"/>
    </g>
   </g>
   <g id="line2d_94">
    <g clip-path="url(#pecc4bef9b4)">
     <use style="fill:#9e0142;stroke:#000000;" x="1236.971888" xlink:href="#m054dc331dd" y="998.489863"/>
    </g>
   </g>
   <g id="patch_3">
    <path d="M 180 1281.6 
L 180 172.8 
" style="fill:none;stroke:#000000;stroke-linecap:square;stroke-linejoin:miter;stroke-width:0.8;"/>
   </g>
   <g id="patch_4">
    <path d="M 1296 1281.6 
L 1296 172.8 
" style="fill:none;stroke:#000000;stroke-linecap:square;stroke-linejoin:miter;stroke-width:0.8;"/>
   </g>
   <g id="patch_5">
    <path d="M 180 1281.6 
L 1296 1281.6 
" style="fill:none;stroke:#000000;stroke-linecap:square;stroke-linejoin:miter;stroke-width:0.8;"/>
   </g>
   <g id="patch_6">
    <path d="M 180 172.8 
L 1296 172.8 
" style="fill:none;stroke:#000000;stroke-linecap:square;stroke-linejoin:miter;stroke-width:0.8;"/>
   </g>
  </g>
 </g>
 <defs>
  <clipPath id="pecc4bef9b4">
   <rect height="1108.8" width="1116" x="180" y="172.8"/>
  </clipPath>
 </defs>
</svg>
