<?xml version="1.0" encoding="utf-8" standalone="no"?>
<!DOCTYPE svg PUBLIC "-//W3C//DTD SVG 1.1//EN"
  "http://www.w3.org/Graphics/SVG/1.1/DTD/svg11.dtd">
<!-- Created with matplotlib (https://matplotlib.org/) -->
<svg height="1440pt" version="1.1" viewBox="0 0 1440 1440" width="1440pt" xmlns="http://www.w3.org/2000/svg" xmlns:xlink="http://www.w3.org/1999/xlink">
 <defs>
  <style type="text/css">
*{stroke-linecap:butt;stroke-linejoin:round;}
  </style>
 </defs>
 <g id="figure_1">
  <g id="patch_1">
   <path d="M 0 1440 
L 1440 1440 
L 1440 0 
L 0 0 
z
" style="fill:#ffffff;"/>
  </g>
  <g id="axes_1">
   <g id="patch_2">
    <path d="M 180 1281.6 
L 1296 1281.6 
L 1296 172.8 
L 180 172.8 
z
" style="fill:#ffffff;"/>
   </g>
   <g id="matplotlib.axis_1">
    <g id="xtick_1">
     <g id="line2d_1">
      <defs>
       <path d="M 0 0 
L 0 3.5 
" id="m2eff1ffc54" style="stroke:#000000;stroke-width:0.8;"/>
      </defs>
      <g>
       <use style="stroke:#000000;stroke-width:0.8;" x="283.297684" xlink:href="#m2eff1ffc54" y="1281.6"/>
      </g>
     </g>
     <g id="text_1">
      <!-- −0.04 -->
      <defs>
       <path d="M 10.59375 35.5 
L 73.1875 35.5 
L 73.1875 27.203125 
L 10.59375 27.203125 
z
" id="DejaVuSans-8722"/>
       <path d="M 31.78125 66.40625 
Q 24.171875 66.40625 20.328125 58.90625 
Q 16.5 51.421875 16.5 36.375 
Q 16.5 21.390625 20.328125 13.890625 
Q 24.171875 6.390625 31.78125 6.390625 
Q 39.453125 6.390625 43.28125 13.890625 
Q 47.125 21.390625 47.125 36.375 
Q 47.125 51.421875 43.28125 58.90625 
Q 39.453125 66.40625 31.78125 66.40625 
z
M 31.78125 74.21875 
Q 44.046875 74.21875 50.515625 64.515625 
Q 56.984375 54.828125 56.984375 36.375 
Q 56.984375 17.96875 50.515625 8.265625 
Q 44.046875 -1.421875 31.78125 -1.421875 
Q 19.53125 -1.421875 13.0625 8.265625 
Q 6.59375 17.96875 6.59375 36.375 
Q 6.59375 54.828125 13.0625 64.515625 
Q 19.53125 74.21875 31.78125 74.21875 
z
" id="DejaVuSans-48"/>
       <path d="M 10.6875 12.40625 
L 21 12.40625 
L 21 0 
L 10.6875 0 
z
" id="DejaVuSans-46"/>
       <path d="M 37.796875 64.3125 
L 12.890625 25.390625 
L 37.796875 25.390625 
z
M 35.203125 72.90625 
L 47.609375 72.90625 
L 47.609375 25.390625 
L 58.015625 25.390625 
L 58.015625 17.1875 
L 47.609375 17.1875 
L 47.609375 0 
L 37.796875 0 
L 37.796875 17.1875 
L 4.890625 17.1875 
L 4.890625 26.703125 
z
" id="DejaVuSans-52"/>
      </defs>
      <g transform="translate(267.975028 1296.198437)scale(0.1 -0.1)">
       <use xlink:href="#DejaVuSans-8722"/>
       <use x="83.789062" xlink:href="#DejaVuSans-48"/>
       <use x="147.412109" xlink:href="#DejaVuSans-46"/>
       <use x="179.199219" xlink:href="#DejaVuSans-48"/>
       <use x="242.822266" xlink:href="#DejaVuSans-52"/>
      </g>
     </g>
    </g>
    <g id="xtick_2">
     <g id="line2d_2">
      <g>
       <use style="stroke:#000000;stroke-width:0.8;" x="426.379078" xlink:href="#m2eff1ffc54" y="1281.6"/>
      </g>
     </g>
     <g id="text_2">
      <!-- −0.02 -->
      <defs>
       <path d="M 19.1875 8.296875 
L 53.609375 8.296875 
L 53.609375 0 
L 7.328125 0 
L 7.328125 8.296875 
Q 12.9375 14.109375 22.625 23.890625 
Q 32.328125 33.6875 34.8125 36.53125 
Q 39.546875 41.84375 41.421875 45.53125 
Q 43.3125 49.21875 43.3125 52.78125 
Q 43.3125 58.59375 39.234375 62.25 
Q 35.15625 65.921875 28.609375 65.921875 
Q 23.96875 65.921875 18.8125 64.3125 
Q 13.671875 62.703125 7.8125 59.421875 
L 7.8125 69.390625 
Q 13.765625 71.78125 18.9375 73 
Q 24.125 74.21875 28.421875 74.21875 
Q 39.75 74.21875 46.484375 68.546875 
Q 53.21875 62.890625 53.21875 53.421875 
Q 53.21875 48.921875 51.53125 44.890625 
Q 49.859375 40.875 45.40625 35.40625 
Q 44.1875 33.984375 37.640625 27.21875 
Q 31.109375 20.453125 19.1875 8.296875 
z
" id="DejaVuSans-50"/>
      </defs>
      <g transform="translate(411.056422 1296.198437)scale(0.1 -0.1)">
       <use xlink:href="#DejaVuSans-8722"/>
       <use x="83.789062" xlink:href="#DejaVuSans-48"/>
       <use x="147.412109" xlink:href="#DejaVuSans-46"/>
       <use x="179.199219" xlink:href="#DejaVuSans-48"/>
       <use x="242.822266" xlink:href="#DejaVuSans-50"/>
      </g>
     </g>
    </g>
    <g id="xtick_3">
     <g id="line2d_3">
      <g>
       <use style="stroke:#000000;stroke-width:0.8;" x="569.460472" xlink:href="#m2eff1ffc54" y="1281.6"/>
      </g>
     </g>
     <g id="text_3">
      <!-- 0.00 -->
      <g transform="translate(558.32766 1296.198437)scale(0.1 -0.1)">
       <use xlink:href="#DejaVuSans-48"/>
       <use x="63.623047" xlink:href="#DejaVuSans-46"/>
       <use x="95.410156" xlink:href="#DejaVuSans-48"/>
       <use x="159.033203" xlink:href="#DejaVuSans-48"/>
      </g>
     </g>
    </g>
    <g id="xtick_4">
     <g id="line2d_4">
      <g>
       <use style="stroke:#000000;stroke-width:0.8;" x="712.541866" xlink:href="#m2eff1ffc54" y="1281.6"/>
      </g>
     </g>
     <g id="text_4">
      <!-- 0.02 -->
      <g transform="translate(701.409054 1296.198437)scale(0.1 -0.1)">
       <use xlink:href="#DejaVuSans-48"/>
       <use x="63.623047" xlink:href="#DejaVuSans-46"/>
       <use x="95.410156" xlink:href="#DejaVuSans-48"/>
       <use x="159.033203" xlink:href="#DejaVuSans-50"/>
      </g>
     </g>
    </g>
    <g id="xtick_5">
     <g id="line2d_5">
      <g>
       <use style="stroke:#000000;stroke-width:0.8;" x="855.62326" xlink:href="#m2eff1ffc54" y="1281.6"/>
      </g>
     </g>
     <g id="text_5">
      <!-- 0.04 -->
      <g transform="translate(844.490448 1296.198437)scale(0.1 -0.1)">
       <use xlink:href="#DejaVuSans-48"/>
       <use x="63.623047" xlink:href="#DejaVuSans-46"/>
       <use x="95.410156" xlink:href="#DejaVuSans-48"/>
       <use x="159.033203" xlink:href="#DejaVuSans-52"/>
      </g>
     </g>
    </g>
    <g id="xtick_6">
     <g id="line2d_6">
      <g>
       <use style="stroke:#000000;stroke-width:0.8;" x="998.704654" xlink:href="#m2eff1ffc54" y="1281.6"/>
      </g>
     </g>
     <g id="text_6">
      <!-- 0.06 -->
      <defs>
       <path d="M 33.015625 40.375 
Q 26.375 40.375 22.484375 35.828125 
Q 18.609375 31.296875 18.609375 23.390625 
Q 18.609375 15.53125 22.484375 10.953125 
Q 26.375 6.390625 33.015625 6.390625 
Q 39.65625 6.390625 43.53125 10.953125 
Q 47.40625 15.53125 47.40625 23.390625 
Q 47.40625 31.296875 43.53125 35.828125 
Q 39.65625 40.375 33.015625 40.375 
z
M 52.59375 71.296875 
L 52.59375 62.3125 
Q 48.875 64.0625 45.09375 64.984375 
Q 41.3125 65.921875 37.59375 65.921875 
Q 27.828125 65.921875 22.671875 59.328125 
Q 17.53125 52.734375 16.796875 39.40625 
Q 19.671875 43.65625 24.015625 45.921875 
Q 28.375 48.1875 33.59375 48.1875 
Q 44.578125 48.1875 50.953125 41.515625 
Q 57.328125 34.859375 57.328125 23.390625 
Q 57.328125 12.15625 50.6875 5.359375 
Q 44.046875 -1.421875 33.015625 -1.421875 
Q 20.359375 -1.421875 13.671875 8.265625 
Q 6.984375 17.96875 6.984375 36.375 
Q 6.984375 53.65625 15.1875 63.9375 
Q 23.390625 74.21875 37.203125 74.21875 
Q 40.921875 74.21875 44.703125 73.484375 
Q 48.484375 72.75 52.59375 71.296875 
z
" id="DejaVuSans-54"/>
      </defs>
      <g transform="translate(987.571842 1296.198437)scale(0.1 -0.1)">
       <use xlink:href="#DejaVuSans-48"/>
       <use x="63.623047" xlink:href="#DejaVuSans-46"/>
       <use x="95.410156" xlink:href="#DejaVuSans-48"/>
       <use x="159.033203" xlink:href="#DejaVuSans-54"/>
      </g>
     </g>
    </g>
    <g id="xtick_7">
     <g id="line2d_7">
      <g>
       <use style="stroke:#000000;stroke-width:0.8;" x="1141.786048" xlink:href="#m2eff1ffc54" y="1281.6"/>
      </g>
     </g>
     <g id="text_7">
      <!-- 0.08 -->
      <defs>
       <path d="M 31.78125 34.625 
Q 24.75 34.625 20.71875 30.859375 
Q 16.703125 27.09375 16.703125 20.515625 
Q 16.703125 13.921875 20.71875 10.15625 
Q 24.75 6.390625 31.78125 6.390625 
Q 38.8125 6.390625 42.859375 10.171875 
Q 46.921875 13.96875 46.921875 20.515625 
Q 46.921875 27.09375 42.890625 30.859375 
Q 38.875 34.625 31.78125 34.625 
z
M 21.921875 38.8125 
Q 15.578125 40.375 12.03125 44.71875 
Q 8.5 49.078125 8.5 55.328125 
Q 8.5 64.0625 14.71875 69.140625 
Q 20.953125 74.21875 31.78125 74.21875 
Q 42.671875 74.21875 48.875 69.140625 
Q 55.078125 64.0625 55.078125 55.328125 
Q 55.078125 49.078125 51.53125 44.71875 
Q 48 40.375 41.703125 38.8125 
Q 48.828125 37.15625 52.796875 32.3125 
Q 56.78125 27.484375 56.78125 20.515625 
Q 56.78125 9.90625 50.3125 4.234375 
Q 43.84375 -1.421875 31.78125 -1.421875 
Q 19.734375 -1.421875 13.25 4.234375 
Q 6.78125 9.90625 6.78125 20.515625 
Q 6.78125 27.484375 10.78125 32.3125 
Q 14.796875 37.15625 21.921875 38.8125 
z
M 18.3125 54.390625 
Q 18.3125 48.734375 21.84375 45.5625 
Q 25.390625 42.390625 31.78125 42.390625 
Q 38.140625 42.390625 41.71875 45.5625 
Q 45.3125 48.734375 45.3125 54.390625 
Q 45.3125 60.0625 41.71875 63.234375 
Q 38.140625 66.40625 31.78125 66.40625 
Q 25.390625 66.40625 21.84375 63.234375 
Q 18.3125 60.0625 18.3125 54.390625 
z
" id="DejaVuSans-56"/>
      </defs>
      <g transform="translate(1130.653236 1296.198437)scale(0.1 -0.1)">
       <use xlink:href="#DejaVuSans-48"/>
       <use x="63.623047" xlink:href="#DejaVuSans-46"/>
       <use x="95.410156" xlink:href="#DejaVuSans-48"/>
       <use x="159.033203" xlink:href="#DejaVuSans-56"/>
      </g>
     </g>
    </g>
    <g id="xtick_8">
     <g id="line2d_8">
      <g>
       <use style="stroke:#000000;stroke-width:0.8;" x="1284.867442" xlink:href="#m2eff1ffc54" y="1281.6"/>
      </g>
     </g>
     <g id="text_8">
      <!-- 0.10 -->
      <defs>
       <path d="M 12.40625 8.296875 
L 28.515625 8.296875 
L 28.515625 63.921875 
L 10.984375 60.40625 
L 10.984375 69.390625 
L 28.421875 72.90625 
L 38.28125 72.90625 
L 38.28125 8.296875 
L 54.390625 8.296875 
L 54.390625 0 
L 12.40625 0 
z
" id="DejaVuSans-49"/>
      </defs>
      <g transform="translate(1273.73463 1296.198437)scale(0.1 -0.1)">
       <use xlink:href="#DejaVuSans-48"/>
       <use x="63.623047" xlink:href="#DejaVuSans-46"/>
       <use x="95.410156" xlink:href="#DejaVuSans-49"/>
       <use x="159.033203" xlink:href="#DejaVuSans-48"/>
      </g>
     </g>
    </g>
   </g>
   <g id="matplotlib.axis_2">
    <g id="ytick_1">
     <g id="line2d_9">
      <defs>
       <path d="M 0 0 
L -3.5 0 
" id="me1c6c6687a" style="stroke:#000000;stroke-width:0.8;"/>
      </defs>
      <g>
       <use style="stroke:#000000;stroke-width:0.8;" x="180" xlink:href="#me1c6c6687a" y="1172.443392"/>
      </g>
     </g>
     <g id="text_9">
      <!-- −0.050 -->
      <defs>
       <path d="M 10.796875 72.90625 
L 49.515625 72.90625 
L 49.515625 64.59375 
L 19.828125 64.59375 
L 19.828125 46.734375 
Q 21.96875 47.46875 24.109375 47.828125 
Q 26.265625 48.1875 28.421875 48.1875 
Q 40.625 48.1875 47.75 41.5 
Q 54.890625 34.8125 54.890625 23.390625 
Q 54.890625 11.625 47.5625 5.09375 
Q 40.234375 -1.421875 26.90625 -1.421875 
Q 22.3125 -1.421875 17.546875 -0.640625 
Q 12.796875 0.140625 7.71875 1.703125 
L 7.71875 11.625 
Q 12.109375 9.234375 16.796875 8.0625 
Q 21.484375 6.890625 26.703125 6.890625 
Q 35.15625 6.890625 40.078125 11.328125 
Q 45.015625 15.765625 45.015625 23.390625 
Q 45.015625 31 40.078125 35.4375 
Q 35.15625 39.890625 26.703125 39.890625 
Q 22.75 39.890625 18.8125 39.015625 
Q 14.890625 38.140625 10.796875 36.28125 
z
" id="DejaVuSans-53"/>
      </defs>
      <g transform="translate(135.992188 1176.24261)scale(0.1 -0.1)">
       <use xlink:href="#DejaVuSans-8722"/>
       <use x="83.789062" xlink:href="#DejaVuSans-48"/>
       <use x="147.412109" xlink:href="#DejaVuSans-46"/>
       <use x="179.199219" xlink:href="#DejaVuSans-48"/>
       <use x="242.822266" xlink:href="#DejaVuSans-53"/>
       <use x="306.445312" xlink:href="#DejaVuSans-48"/>
      </g>
     </g>
    </g>
    <g id="ytick_2">
     <g id="line2d_10">
      <g>
       <use style="stroke:#000000;stroke-width:0.8;" x="180" xlink:href="#me1c6c6687a" y="1045.807951"/>
      </g>
     </g>
     <g id="text_10">
      <!-- −0.025 -->
      <g transform="translate(135.992188 1049.60717)scale(0.1 -0.1)">
       <use xlink:href="#DejaVuSans-8722"/>
       <use x="83.789062" xlink:href="#DejaVuSans-48"/>
       <use x="147.412109" xlink:href="#DejaVuSans-46"/>
       <use x="179.199219" xlink:href="#DejaVuSans-48"/>
       <use x="242.822266" xlink:href="#DejaVuSans-50"/>
       <use x="306.445312" xlink:href="#DejaVuSans-53"/>
      </g>
     </g>
    </g>
    <g id="ytick_3">
     <g id="line2d_11">
      <g>
       <use style="stroke:#000000;stroke-width:0.8;" x="180" xlink:href="#me1c6c6687a" y="919.17251"/>
      </g>
     </g>
     <g id="text_11">
      <!-- 0.000 -->
      <g transform="translate(144.371875 922.971729)scale(0.1 -0.1)">
       <use xlink:href="#DejaVuSans-48"/>
       <use x="63.623047" xlink:href="#DejaVuSans-46"/>
       <use x="95.410156" xlink:href="#DejaVuSans-48"/>
       <use x="159.033203" xlink:href="#DejaVuSans-48"/>
       <use x="222.65625" xlink:href="#DejaVuSans-48"/>
      </g>
     </g>
    </g>
    <g id="ytick_4">
     <g id="line2d_12">
      <g>
       <use style="stroke:#000000;stroke-width:0.8;" x="180" xlink:href="#me1c6c6687a" y="792.537069"/>
      </g>
     </g>
     <g id="text_12">
      <!-- 0.025 -->
      <g transform="translate(144.371875 796.336288)scale(0.1 -0.1)">
       <use xlink:href="#DejaVuSans-48"/>
       <use x="63.623047" xlink:href="#DejaVuSans-46"/>
       <use x="95.410156" xlink:href="#DejaVuSans-48"/>
       <use x="159.033203" xlink:href="#DejaVuSans-50"/>
       <use x="222.65625" xlink:href="#DejaVuSans-53"/>
      </g>
     </g>
    </g>
    <g id="ytick_5">
     <g id="line2d_13">
      <g>
       <use style="stroke:#000000;stroke-width:0.8;" x="180" xlink:href="#me1c6c6687a" y="665.901628"/>
      </g>
     </g>
     <g id="text_13">
      <!-- 0.050 -->
      <g transform="translate(144.371875 669.700847)scale(0.1 -0.1)">
       <use xlink:href="#DejaVuSans-48"/>
       <use x="63.623047" xlink:href="#DejaVuSans-46"/>
       <use x="95.410156" xlink:href="#DejaVuSans-48"/>
       <use x="159.033203" xlink:href="#DejaVuSans-53"/>
       <use x="222.65625" xlink:href="#DejaVuSans-48"/>
      </g>
     </g>
    </g>
    <g id="ytick_6">
     <g id="line2d_14">
      <g>
       <use style="stroke:#000000;stroke-width:0.8;" x="180" xlink:href="#me1c6c6687a" y="539.266188"/>
      </g>
     </g>
     <g id="text_14">
      <!-- 0.075 -->
      <defs>
       <path d="M 8.203125 72.90625 
L 55.078125 72.90625 
L 55.078125 68.703125 
L 28.609375 0 
L 18.3125 0 
L 43.21875 64.59375 
L 8.203125 64.59375 
z
" id="DejaVuSans-55"/>
      </defs>
      <g transform="translate(144.371875 543.065406)scale(0.1 -0.1)">
       <use xlink:href="#DejaVuSans-48"/>
       <use x="63.623047" xlink:href="#DejaVuSans-46"/>
       <use x="95.410156" xlink:href="#DejaVuSans-48"/>
       <use x="159.033203" xlink:href="#DejaVuSans-55"/>
       <use x="222.65625" xlink:href="#DejaVuSans-53"/>
      </g>
     </g>
    </g>
    <g id="ytick_7">
     <g id="line2d_15">
      <g>
       <use style="stroke:#000000;stroke-width:0.8;" x="180" xlink:href="#me1c6c6687a" y="412.630747"/>
      </g>
     </g>
     <g id="text_15">
      <!-- 0.100 -->
      <g transform="translate(144.371875 416.429965)scale(0.1 -0.1)">
       <use xlink:href="#DejaVuSans-48"/>
       <use x="63.623047" xlink:href="#DejaVuSans-46"/>
       <use x="95.410156" xlink:href="#DejaVuSans-49"/>
       <use x="159.033203" xlink:href="#DejaVuSans-48"/>
       <use x="222.65625" xlink:href="#DejaVuSans-48"/>
      </g>
     </g>
    </g>
    <g id="ytick_8">
     <g id="line2d_16">
      <g>
       <use style="stroke:#000000;stroke-width:0.8;" x="180" xlink:href="#me1c6c6687a" y="285.995306"/>
      </g>
     </g>
     <g id="text_16">
      <!-- 0.125 -->
      <g transform="translate(144.371875 289.794525)scale(0.1 -0.1)">
       <use xlink:href="#DejaVuSans-48"/>
       <use x="63.623047" xlink:href="#DejaVuSans-46"/>
       <use x="95.410156" xlink:href="#DejaVuSans-49"/>
       <use x="159.033203" xlink:href="#DejaVuSans-50"/>
       <use x="222.65625" xlink:href="#DejaVuSans-53"/>
      </g>
     </g>
    </g>
   </g>
   <g id="line2d_17">
    <defs>
     <path d="M 0 9 
C 2.386828 9 4.676219 8.051703 6.363961 6.363961 
C 8.051703 4.676219 9 2.386828 9 0 
C 9 -2.386828 8.051703 -4.676219 6.363961 -6.363961 
C 4.676219 -8.051703 2.386828 -9 0 -9 
C -2.386828 -9 -4.676219 -8.051703 -6.363961 -6.363961 
C -8.051703 -4.676219 -9 -2.386828 -9 0 
C -9 2.386828 -8.051703 4.676219 -6.363961 6.363961 
C -4.676219 8.051703 -2.386828 9 0 9 
z
" id="mf8f0aad412" style="stroke:#000000;"/>
    </defs>
    <g clip-path="url(#pc8d24d7266)">
     <use style="fill:#9e0142;stroke:#000000;" x="231.313141" xlink:href="#mf8f0aad412" y="235.593456"/>
    </g>
   </g>
   <g id="line2d_18">
    <defs>
     <path d="M 0 9 
C 2.386828 9 4.676219 8.051703 6.363961 6.363961 
C 8.051703 4.676219 9 2.386828 9 0 
C 9 -2.386828 8.051703 -4.676219 6.363961 -6.363961 
C 4.676219 -8.051703 2.386828 -9 0 -9 
C -2.386828 -9 -4.676219 -8.051703 -6.363961 -6.363961 
C -8.051703 -4.676219 -9 -2.386828 -9 0 
C -9 2.386828 -8.051703 4.676219 -6.363961 6.363961 
C -4.676219 8.051703 -2.386828 9 0 9 
z
" id="m873d729d40" style="stroke:#000000;"/>
    </defs>
    <g clip-path="url(#pc8d24d7266)">
     <use style="fill:#ffffbe;stroke:#000000;" x="1238.308594" xlink:href="#m873d729d40" y="759.641357"/>
    </g>
   </g>
   <g id="line2d_19">
    <g clip-path="url(#pc8d24d7266)">
     <use style="fill:#9e0142;stroke:#000000;" x="236.585168" xlink:href="#mf8f0aad412" y="236.768958"/>
    </g>
   </g>
   <g id="line2d_20">
    <g clip-path="url(#pc8d24d7266)">
     <use style="fill:#9e0142;stroke:#000000;" x="231.409241" xlink:href="#mf8f0aad412" y="225.175354"/>
    </g>
   </g>
   <g id="line2d_21">
    <g clip-path="url(#pc8d24d7266)">
     <use style="fill:#ffffbe;stroke:#000000;" x="1243.016555" xlink:href="#m873d729d40" y="760.474165"/>
    </g>
   </g>
   <g id="line2d_22">
    <g clip-path="url(#pc8d24d7266)">
     <use style="fill:#9e0142;stroke:#000000;" x="236.378354" xlink:href="#mf8f0aad412" y="228.171361"/>
    </g>
   </g>
   <g id="line2d_23">
    <g clip-path="url(#pc8d24d7266)">
     <use style="fill:#ffffbe;stroke:#000000;" x="1233.208934" xlink:href="#m873d729d40" y="762.05669"/>
    </g>
   </g>
   <g id="line2d_24">
    <g clip-path="url(#pc8d24d7266)">
     <use style="fill:#9e0142;stroke:#000000;" x="232.635056" xlink:href="#mf8f0aad412" y="236.318836"/>
    </g>
   </g>
   <g id="line2d_25">
    <g clip-path="url(#pc8d24d7266)">
     <use style="fill:#ffffbe;stroke:#000000;" x="1240.378352" xlink:href="#m873d729d40" y="760.16608"/>
    </g>
   </g>
   <g id="line2d_26">
    <g clip-path="url(#pc8d24d7266)">
     <use style="fill:#9e0142;stroke:#000000;" x="231.028451" xlink:href="#mf8f0aad412" y="236.100261"/>
    </g>
   </g>
   <g id="line2d_27">
    <g clip-path="url(#pc8d24d7266)">
     <use style="fill:#9e0142;stroke:#000000;" x="233.342321" xlink:href="#mf8f0aad412" y="230.067606"/>
    </g>
   </g>
   <g id="line2d_28">
    <g clip-path="url(#pc8d24d7266)">
     <use style="fill:#9e0142;stroke:#000000;" x="236.864256" xlink:href="#mf8f0aad412" y="223.968233"/>
    </g>
   </g>
   <g id="line2d_29">
    <g clip-path="url(#pc8d24d7266)">
     <use style="fill:#9e0142;stroke:#000000;" x="233.37925" xlink:href="#mf8f0aad412" y="227.78578"/>
    </g>
   </g>
   <g id="line2d_30">
    <g clip-path="url(#pc8d24d7266)">
     <use style="fill:#9e0142;stroke:#000000;" x="232.541848" xlink:href="#mf8f0aad412" y="226.217303"/>
    </g>
   </g>
   <g id="line2d_31">
    <g clip-path="url(#pc8d24d7266)">
     <use style="fill:#ffffbe;stroke:#000000;" x="1245.264001" xlink:href="#m873d729d40" y="759.167404"/>
    </g>
   </g>
   <g id="line2d_32">
    <g clip-path="url(#pc8d24d7266)">
     <use style="fill:#ffffbe;stroke:#000000;" x="1238.222921" xlink:href="#m873d729d40" y="760.115899"/>
    </g>
   </g>
   <g id="line2d_33">
    <g clip-path="url(#pc8d24d7266)">
     <use style="fill:#9e0142;stroke:#000000;" x="232.608485" xlink:href="#mf8f0aad412" y="235.801115"/>
    </g>
   </g>
   <g id="line2d_34">
    <g clip-path="url(#pc8d24d7266)">
     <use style="fill:#9e0142;stroke:#000000;" x="236.094839" xlink:href="#mf8f0aad412" y="228.09576"/>
    </g>
   </g>
   <g id="line2d_35">
    <defs>
     <path d="M 0 3 
C 0.795609 3 1.55874 2.683901 2.12132 2.12132 
C 2.683901 1.55874 3 0.795609 3 0 
C 3 -0.795609 2.683901 -1.55874 2.12132 -2.12132 
C 1.55874 -2.683901 0.795609 -3 0 -3 
C -0.795609 -3 -1.55874 -2.683901 -2.12132 -2.12132 
C -2.683901 -1.55874 -3 -0.795609 -3 0 
C -3 0.795609 -2.683901 1.55874 -2.12132 2.12132 
C -1.55874 2.683901 -0.795609 3 0 3 
z
" id="m26ad04f24c" style="stroke:#000000;"/>
    </defs>
    <g clip-path="url(#pc8d24d7266)">
     <use style="stroke:#000000;" x="726.998537" xlink:href="#m26ad04f24c" y="518.127555"/>
    </g>
   </g>
   <g id="line2d_36">
    <g clip-path="url(#pc8d24d7266)">
     <use style="fill:#ffffbe;stroke:#000000;" x="1242.150883" xlink:href="#m873d729d40" y="760.584425"/>
    </g>
   </g>
   <g id="line2d_37">
    <g clip-path="url(#pc8d24d7266)">
     <use style="fill:#ffffbe;stroke:#000000;" x="1237.981328" xlink:href="#m873d729d40" y="761.960489"/>
    </g>
   </g>
   <g id="line2d_38">
    <g clip-path="url(#pc8d24d7266)">
     <use style="fill:#ffffbe;stroke:#000000;" x="1244.850561" xlink:href="#m873d729d40" y="759.156251"/>
    </g>
   </g>
   <g id="line2d_39">
    <g clip-path="url(#pc8d24d7266)">
     <use style="fill:#ffffbe;stroke:#000000;" x="1238.607414" xlink:href="#m873d729d40" y="759.333938"/>
    </g>
   </g>
   <g id="line2d_40">
    <g clip-path="url(#pc8d24d7266)">
     <use style="fill:#ffffbe;stroke:#000000;" x="1241.628376" xlink:href="#m873d729d40" y="759.201464"/>
    </g>
   </g>
   <g id="line2d_41">
    <g clip-path="url(#pc8d24d7266)">
     <use style="fill:#ffffbe;stroke:#000000;" x="1243.329407" xlink:href="#m873d729d40" y="761.185243"/>
    </g>
   </g>
   <g id="line2d_42">
    <g clip-path="url(#pc8d24d7266)">
     <use style="fill:#ffffbe;stroke:#000000;" x="1233.987541" xlink:href="#m873d729d40" y="760.471244"/>
    </g>
   </g>
   <g id="line2d_43">
    <g clip-path="url(#pc8d24d7266)">
     <use style="fill:#ffffbe;stroke:#000000;" x="1244.479599" xlink:href="#m873d729d40" y="761.852467"/>
    </g>
   </g>
   <g id="line2d_44">
    <g clip-path="url(#pc8d24d7266)">
     <use style="fill:#ffffbe;stroke:#000000;" x="1239.049488" xlink:href="#m873d729d40" y="759.818477"/>
    </g>
   </g>
   <g id="line2d_45">
    <g clip-path="url(#pc8d24d7266)">
     <use style="fill:#ffffbe;stroke:#000000;" x="1237.298256" xlink:href="#m873d729d40" y="762.145542"/>
    </g>
   </g>
   <g id="line2d_46">
    <g clip-path="url(#pc8d24d7266)">
     <use style="fill:#9e0142;stroke:#000000;" x="231.097406" xlink:href="#mf8f0aad412" y="231.92933"/>
    </g>
   </g>
   <g id="line2d_47">
    <g clip-path="url(#pc8d24d7266)">
     <use style="fill:#ffffbe;stroke:#000000;" x="1234.960192" xlink:href="#m873d729d40" y="759.440901"/>
    </g>
   </g>
   <g id="line2d_48">
    <g clip-path="url(#pc8d24d7266)">
     <use style="fill:#9e0142;stroke:#000000;" x="234.274716" xlink:href="#mf8f0aad412" y="230.265486"/>
    </g>
   </g>
   <g id="line2d_49">
    <g clip-path="url(#pc8d24d7266)">
     <use style="fill:#9e0142;stroke:#000000;" x="233.103261" xlink:href="#mf8f0aad412" y="225.868351"/>
    </g>
   </g>
   <g id="line2d_50">
    <g clip-path="url(#pc8d24d7266)">
     <use style="fill:#9e0142;stroke:#000000;" x="235.995509" xlink:href="#mf8f0aad412" y="231.265781"/>
    </g>
   </g>
   <g id="line2d_51">
    <g clip-path="url(#pc8d24d7266)">
     <use style="fill:#9e0142;stroke:#000000;" x="234.35978" xlink:href="#mf8f0aad412" y="232.992967"/>
    </g>
   </g>
   <g id="line2d_52">
    <g clip-path="url(#pc8d24d7266)">
     <use style="fill:#9e0142;stroke:#000000;" x="236.260232" xlink:href="#mf8f0aad412" y="235.254703"/>
    </g>
   </g>
   <g id="line2d_53">
    <g clip-path="url(#pc8d24d7266)">
     <use style="fill:#ffffbe;stroke:#000000;" x="1243.139205" xlink:href="#m873d729d40" y="761.066357"/>
    </g>
   </g>
   <g id="line2d_54">
    <g clip-path="url(#pc8d24d7266)">
     <use style="fill:#9e0142;stroke:#000000;" x="235.484116" xlink:href="#mf8f0aad412" y="223.751332"/>
    </g>
   </g>
   <g id="line2d_55">
    <g clip-path="url(#pc8d24d7266)">
     <use style="fill:#ffffbe;stroke:#000000;" x="1244.789908" xlink:href="#m873d729d40" y="761.376012"/>
    </g>
   </g>
   <g id="line2d_56">
    <g clip-path="url(#pc8d24d7266)">
     <use style="fill:#9e0142;stroke:#000000;" x="235.043378" xlink:href="#mf8f0aad412" y="230.192931"/>
    </g>
   </g>
   <g id="line2d_57">
    <g clip-path="url(#pc8d24d7266)">
     <use style="fill:#9e0142;stroke:#000000;" x="232.233166" xlink:href="#mf8f0aad412" y="224.102365"/>
    </g>
   </g>
   <g id="line2d_58">
    <g clip-path="url(#pc8d24d7266)">
     <use style="fill:#ffffbe;stroke:#000000;" x="1237.710398" xlink:href="#m873d729d40" y="759.773869"/>
    </g>
   </g>
   <g id="line2d_59">
    <g clip-path="url(#pc8d24d7266)">
     <use style="fill:#9e0142;stroke:#000000;" x="236.273071" xlink:href="#mf8f0aad412" y="235.288176"/>
    </g>
   </g>
   <g id="line2d_60">
    <g clip-path="url(#pc8d24d7266)">
     <use style="fill:#ffffbe;stroke:#000000;" x="1241.309548" xlink:href="#m873d729d40" y="761.605601"/>
    </g>
   </g>
   <g id="line2d_61">
    <g clip-path="url(#pc8d24d7266)">
     <use style="fill:#9e0142;stroke:#000000;" x="234.156808" xlink:href="#mf8f0aad412" y="223.2"/>
    </g>
   </g>
   <g id="line2d_62">
    <g clip-path="url(#pc8d24d7266)">
     <use style="fill:#ffffbe;stroke:#000000;" x="1241.145557" xlink:href="#m873d729d40" y="761.574058"/>
    </g>
   </g>
   <g id="line2d_63">
    <g clip-path="url(#pc8d24d7266)">
     <use style="fill:#9e0142;stroke:#000000;" x="231.642498" xlink:href="#mf8f0aad412" y="227.849149"/>
    </g>
   </g>
   <g id="line2d_64">
    <g clip-path="url(#pc8d24d7266)">
     <use style="fill:#ffffbe;stroke:#000000;" x="1238.761374" xlink:href="#m873d729d40" y="761.88279"/>
    </g>
   </g>
   <g id="line2d_65">
    <g clip-path="url(#pc8d24d7266)">
     <use style="fill:#9e0142;stroke:#000000;" x="237.348322" xlink:href="#mf8f0aad412" y="224.613498"/>
    </g>
   </g>
   <g id="line2d_66">
    <g clip-path="url(#pc8d24d7266)">
     <use style="fill:#ffffbe;stroke:#000000;" x="1237.109908" xlink:href="#m873d729d40" y="761.116772"/>
    </g>
   </g>
   <g id="line2d_67">
    <g clip-path="url(#pc8d24d7266)">
     <use style="stroke:#000000;" x="691.299615" xlink:href="#m26ad04f24c" y="1127.27321"/>
    </g>
   </g>
   <g id="line2d_68">
    <g clip-path="url(#pc8d24d7266)">
     <use style="fill:#ffffbe;stroke:#000000;" x="1237.206294" xlink:href="#m873d729d40" y="760.497997"/>
    </g>
   </g>
   <g id="line2d_69">
    <g clip-path="url(#pc8d24d7266)">
     <use style="fill:#ffffbe;stroke:#000000;" x="1238.731342" xlink:href="#m873d729d40" y="761.117689"/>
    </g>
   </g>
   <g id="line2d_70">
    <g clip-path="url(#pc8d24d7266)">
     <use style="fill:#9e0142;stroke:#000000;" x="233.542506" xlink:href="#mf8f0aad412" y="228.384458"/>
    </g>
   </g>
   <g id="line2d_71">
    <g clip-path="url(#pc8d24d7266)">
     <use style="fill:#ffffbe;stroke:#000000;" x="1234.625043" xlink:href="#m873d729d40" y="761.285667"/>
    </g>
   </g>
   <g id="line2d_72">
    <g clip-path="url(#pc8d24d7266)">
     <use style="fill:#9e0142;stroke:#000000;" x="230.727273" xlink:href="#mf8f0aad412" y="232.725006"/>
    </g>
   </g>
   <g id="line2d_73">
    <g clip-path="url(#pc8d24d7266)">
     <use style="fill:#ffffbe;stroke:#000000;" x="1233.281169" xlink:href="#m873d729d40" y="759.641808"/>
    </g>
   </g>
   <g id="line2d_74">
    <g clip-path="url(#pc8d24d7266)">
     <use style="stroke:#000000;" x="806.663144" xlink:href="#m26ad04f24c" y="1100.218534"/>
    </g>
   </g>
   <g id="line2d_75">
    <g clip-path="url(#pc8d24d7266)">
     <use style="fill:#ffffbe;stroke:#000000;" x="1233.940974" xlink:href="#m873d729d40" y="760.111354"/>
    </g>
   </g>
   <g id="line2d_76">
    <g clip-path="url(#pc8d24d7266)">
     <use style="stroke:#000000;" x="955.578386" xlink:href="#m26ad04f24c" y="724.076553"/>
    </g>
   </g>
   <g id="line2d_77">
    <g clip-path="url(#pc8d24d7266)">
     <use style="fill:#ffffbe;stroke:#000000;" x="1236.72219" xlink:href="#m873d729d40" y="759.273462"/>
    </g>
   </g>
   <g id="line2d_78">
    <g clip-path="url(#pc8d24d7266)">
     <use style="fill:#ffffbe;stroke:#000000;" x="1244.070568" xlink:href="#m873d729d40" y="762.091986"/>
    </g>
   </g>
   <g id="line2d_79">
    <g clip-path="url(#pc8d24d7266)">
     <use style="fill:#ffffbe;stroke:#000000;" x="1235.537168" xlink:href="#m873d729d40" y="761.361065"/>
    </g>
   </g>
   <g id="line2d_80">
    <g clip-path="url(#pc8d24d7266)">
     <use style="fill:#ffffbe;stroke:#000000;" x="1239.96101" xlink:href="#m873d729d40" y="759.09991"/>
    </g>
   </g>
   <g id="line2d_81">
    <g clip-path="url(#pc8d24d7266)">
     <use style="fill:#ffffbe;stroke:#000000;" x="1234.472756" xlink:href="#m873d729d40" y="762.152917"/>
    </g>
   </g>
   <g id="line2d_82">
    <g clip-path="url(#pc8d24d7266)">
     <use style="fill:#ffffbe;stroke:#000000;" x="1232.857712" xlink:href="#m873d729d40" y="760.750151"/>
    </g>
   </g>
   <g id="line2d_83">
    <g clip-path="url(#pc8d24d7266)">
     <use style="fill:#ffffbe;stroke:#000000;" x="1244.128464" xlink:href="#m873d729d40" y="760.952047"/>
    </g>
   </g>
   <g id="line2d_84">
    <g clip-path="url(#pc8d24d7266)">
     <use style="fill:#ffffbe;stroke:#000000;" x="1234.187466" xlink:href="#m873d729d40" y="759.059508"/>
    </g>
   </g>
   <g id="line2d_85">
    <g clip-path="url(#pc8d24d7266)">
     <use style="fill:#ffffbe;stroke:#000000;" x="1237.526935" xlink:href="#m873d729d40" y="761.215408"/>
    </g>
   </g>
   <g id="line2d_86">
    <g clip-path="url(#pc8d24d7266)">
     <use style="fill:#ffffbe;stroke:#000000;" x="1236.731404" xlink:href="#m873d729d40" y="759.465749"/>
    </g>
   </g>
   <g id="line2d_87">
    <g clip-path="url(#pc8d24d7266)">
     <use style="fill:#ffffbe;stroke:#000000;" x="1239.035589" xlink:href="#m873d729d40" y="760.737006"/>
    </g>
   </g>
   <g id="line2d_88">
    <g clip-path="url(#pc8d24d7266)">
     <use style="fill:#ffffbe;stroke:#000000;" x="1236.708111" xlink:href="#m873d729d40" y="759.183703"/>
    </g>
   </g>
   <g id="line2d_89">
    <g clip-path="url(#pc8d24d7266)">
     <use style="fill:#9e0142;stroke:#000000;" x="231.812043" xlink:href="#mf8f0aad412" y="231.218153"/>
    </g>
   </g>
   <g id="line2d_90">
    <g clip-path="url(#pc8d24d7266)">
     <use style="fill:#ffffbe;stroke:#000000;" x="1243.63447" xlink:href="#m873d729d40" y="760.138668"/>
    </g>
   </g>
   <g id="line2d_91">
    <g clip-path="url(#pc8d24d7266)">
     <use style="fill:#ffffbe;stroke:#000000;" x="1239.695334" xlink:href="#m873d729d40" y="760.382203"/>
    </g>
   </g>
   <g id="line2d_92">
    <g clip-path="url(#pc8d24d7266)">
     <use style="fill:#9e0142;stroke:#000000;" x="236.715211" xlink:href="#mf8f0aad412" y="225.039898"/>
    </g>
   </g>
   <g id="line2d_93">
    <g clip-path="url(#pc8d24d7266)">
     <use style="fill:#ffffbe;stroke:#000000;" x="1236.979294" xlink:href="#m873d729d40" y="761.614841"/>
    </g>
   </g>
   <g id="line2d_94">
    <g clip-path="url(#pc8d24d7266)">
     <use style="fill:#9e0142;stroke:#000000;" x="234.333135" xlink:href="#mf8f0aad412" y="224.474204"/>
    </g>
   </g>
   <g id="line2d_95">
    <g clip-path="url(#pc8d24d7266)">
     <use style="fill:#9e0142;stroke:#000000;" x="234.422899" xlink:href="#mf8f0aad412" y="230.677352"/>
    </g>
   </g>
   <g id="line2d_96">
    <g clip-path="url(#pc8d24d7266)">
     <use style="fill:#ffffbe;stroke:#000000;" x="1233.560289" xlink:href="#m873d729d40" y="762.121039"/>
    </g>
   </g>
   <g id="line2d_97">
    <g clip-path="url(#pc8d24d7266)">
     <use style="fill:#ffffbe;stroke:#000000;" x="1237.345258" xlink:href="#m873d729d40" y="759.689417"/>
    </g>
   </g>
   <g id="line2d_98">
    <g clip-path="url(#pc8d24d7266)">
     <use style="stroke:#000000;" x="774.053947" xlink:href="#m26ad04f24c" y="1181.672531"/>
    </g>
   </g>
   <g id="line2d_99">
    <g clip-path="url(#pc8d24d7266)">
     <use style="fill:#ffffbe;stroke:#000000;" x="1239.450803" xlink:href="#m873d729d40" y="762.095222"/>
    </g>
   </g>
   <g id="line2d_100">
    <g clip-path="url(#pc8d24d7266)">
     <use style="fill:#ffffbe;stroke:#000000;" x="1233.121916" xlink:href="#m873d729d40" y="759.482338"/>
    </g>
   </g>
   <g id="line2d_101">
    <g clip-path="url(#pc8d24d7266)">
     <use style="stroke:#000000;" x="775.522912" xlink:href="#m26ad04f24c" y="1181.578909"/>
    </g>
   </g>
   <g id="line2d_102">
    <g clip-path="url(#pc8d24d7266)">
     <use style="fill:#ffffbe;stroke:#000000;" x="1233.442584" xlink:href="#m873d729d40" y="760.263249"/>
    </g>
   </g>
   <g id="line2d_103">
    <g clip-path="url(#pc8d24d7266)">
     <use style="stroke:#000000;" x="1233.86039" xlink:href="#m26ad04f24c" y="776.390809"/>
    </g>
   </g>
   <g id="line2d_104">
    <g clip-path="url(#pc8d24d7266)">
     <use style="fill:#ffffbe;stroke:#000000;" x="1235.583668" xlink:href="#m873d729d40" y="759.665218"/>
    </g>
   </g>
   <g id="line2d_105">
    <g clip-path="url(#pc8d24d7266)">
     <use style="fill:#ffffbe;stroke:#000000;" x="1244.32859" xlink:href="#m873d729d40" y="761.376659"/>
    </g>
   </g>
   <g id="line2d_106">
    <g clip-path="url(#pc8d24d7266)">
     <use style="fill:#ffffbe;stroke:#000000;" x="1238.944255" xlink:href="#m873d729d40" y="761.039367"/>
    </g>
   </g>
   <g id="line2d_107">
    <g clip-path="url(#pc8d24d7266)">
     <use style="fill:#ffffbe;stroke:#000000;" x="1237.50682" xlink:href="#m873d729d40" y="759.339743"/>
    </g>
   </g>
   <g id="line2d_108">
    <g clip-path="url(#pc8d24d7266)">
     <use style="fill:#ffffbe;stroke:#000000;" x="1236.011589" xlink:href="#m873d729d40" y="759.098612"/>
    </g>
   </g>
   <g id="line2d_109">
    <g clip-path="url(#pc8d24d7266)">
     <use style="fill:#ffffbe;stroke:#000000;" x="1238.642592" xlink:href="#m873d729d40" y="759.045126"/>
    </g>
   </g>
   <g id="line2d_110">
    <g clip-path="url(#pc8d24d7266)">
     <use style="fill:#ffffbe;stroke:#000000;" x="1234.62612" xlink:href="#m873d729d40" y="759.527584"/>
    </g>
   </g>
   <g id="line2d_111">
    <g clip-path="url(#pc8d24d7266)">
     <use style="stroke:#000000;" x="670.81888" xlink:href="#m26ad04f24c" y="1152.939609"/>
    </g>
   </g>
   <g id="line2d_112">
    <g clip-path="url(#pc8d24d7266)">
     <use style="fill:#ffffbe;stroke:#000000;" x="1232.292446" xlink:href="#m873d729d40" y="761.573138"/>
    </g>
   </g>
   <g id="line2d_113">
    <g clip-path="url(#pc8d24d7266)">
     <use style="fill:#ffffbe;stroke:#000000;" x="1236.719366" xlink:href="#m873d729d40" y="761.65809"/>
    </g>
   </g>
   <g id="line2d_114">
    <g clip-path="url(#pc8d24d7266)">
     <use style="fill:#ffffbe;stroke:#000000;" x="1239.552461" xlink:href="#m873d729d40" y="760.736983"/>
    </g>
   </g>
   <g id="line2d_115">
    <g clip-path="url(#pc8d24d7266)">
     <use style="fill:#ffffbe;stroke:#000000;" x="1234.685508" xlink:href="#m873d729d40" y="759.546831"/>
    </g>
   </g>
   <g id="line2d_116">
    <g clip-path="url(#pc8d24d7266)">
     <use style="fill:#ffffbe;stroke:#000000;" x="1237.025741" xlink:href="#m873d729d40" y="762.150724"/>
    </g>
   </g>
   <g id="line2d_117">
    <g clip-path="url(#pc8d24d7266)">
     <use style="fill:#ffffbe;stroke:#000000;" x="1235.945483" xlink:href="#m873d729d40" y="759.636092"/>
    </g>
   </g>
   <g id="line2d_118">
    <g clip-path="url(#pc8d24d7266)">
     <use style="fill:#ffffbe;stroke:#000000;" x="1245.199896" xlink:href="#m873d729d40" y="761.232133"/>
    </g>
   </g>
   <g id="line2d_119">
    <g clip-path="url(#pc8d24d7266)">
     <use style="fill:#9e0142;stroke:#000000;" x="236.188553" xlink:href="#mf8f0aad412" y="234.329444"/>
    </g>
   </g>
   <g id="line2d_120">
    <g clip-path="url(#pc8d24d7266)">
     <use style="fill:#ffffbe;stroke:#000000;" x="1244.522894" xlink:href="#m873d729d40" y="759.651811"/>
    </g>
   </g>
   <g id="line2d_121">
    <g clip-path="url(#pc8d24d7266)">
     <use style="fill:#ffffbe;stroke:#000000;" x="1237.063368" xlink:href="#m873d729d40" y="761.124436"/>
    </g>
   </g>
   <g id="line2d_122">
    <g clip-path="url(#pc8d24d7266)">
     <use style="stroke:#000000;" x="752.895684" xlink:href="#m26ad04f24c" y="1231.2"/>
    </g>
   </g>
   <g id="line2d_123">
    <g clip-path="url(#pc8d24d7266)">
     <use style="fill:#9e0142;stroke:#000000;" x="235.65287" xlink:href="#mf8f0aad412" y="229.230408"/>
    </g>
   </g>
   <g id="line2d_124">
    <g clip-path="url(#pc8d24d7266)">
     <use style="fill:#9e0142;stroke:#000000;" x="231.533864" xlink:href="#mf8f0aad412" y="225.932119"/>
    </g>
   </g>
   <g id="line2d_125">
    <g clip-path="url(#pc8d24d7266)">
     <use style="fill:#ffffbe;stroke:#000000;" x="1235.674607" xlink:href="#m873d729d40" y="759.964998"/>
    </g>
   </g>
   <g id="line2d_126">
    <g clip-path="url(#pc8d24d7266)">
     <use style="fill:#ffffbe;stroke:#000000;" x="1238.350992" xlink:href="#m873d729d40" y="760.802208"/>
    </g>
   </g>
   <g id="line2d_127">
    <g clip-path="url(#pc8d24d7266)">
     <use style="stroke:#000000;" x="949.640886" xlink:href="#m26ad04f24c" y="723.299364"/>
    </g>
   </g>
   <g id="line2d_128">
    <g clip-path="url(#pc8d24d7266)">
     <use style="fill:#ffffbe;stroke:#000000;" x="1235.655703" xlink:href="#m873d729d40" y="759.432465"/>
    </g>
   </g>
   <g id="line2d_129">
    <g clip-path="url(#pc8d24d7266)">
     <use style="fill:#ffffbe;stroke:#000000;" x="1240.968236" xlink:href="#m873d729d40" y="759.852574"/>
    </g>
   </g>
   <g id="line2d_130">
    <g clip-path="url(#pc8d24d7266)">
     <use style="fill:#9e0142;stroke:#000000;" x="234.273237" xlink:href="#mf8f0aad412" y="226.483493"/>
    </g>
   </g>
   <g id="line2d_131">
    <g clip-path="url(#pc8d24d7266)">
     <use style="fill:#ffffbe;stroke:#000000;" x="1244.368358" xlink:href="#m873d729d40" y="759.785156"/>
    </g>
   </g>
   <g id="line2d_132">
    <g clip-path="url(#pc8d24d7266)">
     <use style="fill:#ffffbe;stroke:#000000;" x="1234.87176" xlink:href="#m873d729d40" y="760.740772"/>
    </g>
   </g>
   <g id="line2d_133">
    <g clip-path="url(#pc8d24d7266)">
     <use style="fill:#ffffbe;stroke:#000000;" x="1242.399194" xlink:href="#m873d729d40" y="762.032635"/>
    </g>
   </g>
   <g id="line2d_134">
    <g clip-path="url(#pc8d24d7266)">
     <use style="fill:#ffffbe;stroke:#000000;" x="1233.73935" xlink:href="#m873d729d40" y="759.908721"/>
    </g>
   </g>
   <g id="line2d_135">
    <g clip-path="url(#pc8d24d7266)">
     <use style="fill:#9e0142;stroke:#000000;" x="235.673964" xlink:href="#mf8f0aad412" y="236.457221"/>
    </g>
   </g>
   <g id="line2d_136">
    <g clip-path="url(#pc8d24d7266)">
     <use style="fill:#9e0142;stroke:#000000;" x="236.067338" xlink:href="#mf8f0aad412" y="227.719076"/>
    </g>
   </g>
   <g id="line2d_137">
    <g clip-path="url(#pc8d24d7266)">
     <use style="fill:#ffffbe;stroke:#000000;" x="1232.565817" xlink:href="#m873d729d40" y="760.308099"/>
    </g>
   </g>
   <g id="line2d_138">
    <g clip-path="url(#pc8d24d7266)">
     <use style="fill:#ffffbe;stroke:#000000;" x="1245.041332" xlink:href="#m873d729d40" y="759.896837"/>
    </g>
   </g>
   <g id="line2d_139">
    <g clip-path="url(#pc8d24d7266)">
     <use style="fill:#9e0142;stroke:#000000;" x="232.105625" xlink:href="#mf8f0aad412" y="234.088815"/>
    </g>
   </g>
   <g id="line2d_140">
    <g clip-path="url(#pc8d24d7266)">
     <use style="fill:#ffffbe;stroke:#000000;" x="1237.609456" xlink:href="#m873d729d40" y="761.777791"/>
    </g>
   </g>
   <g id="line2d_141">
    <g clip-path="url(#pc8d24d7266)">
     <use style="fill:#ffffbe;stroke:#000000;" x="1239.250389" xlink:href="#m873d729d40" y="759.739806"/>
    </g>
   </g>
   <g id="line2d_142">
    <g clip-path="url(#pc8d24d7266)">
     <use style="fill:#ffffbe;stroke:#000000;" x="1233.167205" xlink:href="#m873d729d40" y="761.510854"/>
    </g>
   </g>
   <g id="line2d_143">
    <g clip-path="url(#pc8d24d7266)">
     <use style="fill:#ffffbe;stroke:#000000;" x="1239.437687" xlink:href="#m873d729d40" y="762.002951"/>
    </g>
   </g>
   <g id="line2d_144">
    <g clip-path="url(#pc8d24d7266)">
     <use style="fill:#ffffbe;stroke:#000000;" x="1232.14596" xlink:href="#m873d729d40" y="759.507483"/>
    </g>
   </g>
   <g id="line2d_145">
    <g clip-path="url(#pc8d24d7266)">
     <use style="fill:#9e0142;stroke:#000000;" x="231.006777" xlink:href="#mf8f0aad412" y="231.407977"/>
    </g>
   </g>
   <g id="line2d_146">
    <g clip-path="url(#pc8d24d7266)">
     <use style="fill:#ffffbe;stroke:#000000;" x="1240.423868" xlink:href="#m873d729d40" y="760.98833"/>
    </g>
   </g>
   <g id="line2d_147">
    <g clip-path="url(#pc8d24d7266)">
     <use style="fill:#ffffbe;stroke:#000000;" x="1242.408804" xlink:href="#m873d729d40" y="759.936018"/>
    </g>
   </g>
   <g id="line2d_148">
    <g clip-path="url(#pc8d24d7266)">
     <use style="fill:#ffffbe;stroke:#000000;" x="1067.934401" xlink:href="#m873d729d40" y="687.692137"/>
    </g>
   </g>
   <g id="line2d_149">
    <g clip-path="url(#pc8d24d7266)">
     <use style="fill:#ffffbe;stroke:#000000;" x="1233.230554" xlink:href="#m873d729d40" y="761.406328"/>
    </g>
   </g>
   <g id="line2d_150">
    <g clip-path="url(#pc8d24d7266)">
     <use style="fill:#ffffbe;stroke:#000000;" x="1240.094876" xlink:href="#m873d729d40" y="761.034449"/>
    </g>
   </g>
   <g id="line2d_151">
    <g clip-path="url(#pc8d24d7266)">
     <use style="fill:#ffffbe;stroke:#000000;" x="1065.008309" xlink:href="#m873d729d40" y="691.263132"/>
    </g>
   </g>
   <g id="line2d_152">
    <g clip-path="url(#pc8d24d7266)">
     <use style="fill:#ffffbe;stroke:#000000;" x="1239.873029" xlink:href="#m873d729d40" y="760.471006"/>
    </g>
   </g>
   <g id="line2d_153">
    <g clip-path="url(#pc8d24d7266)">
     <use style="fill:#9e0142;stroke:#000000;" x="232.393746" xlink:href="#mf8f0aad412" y="225.483025"/>
    </g>
   </g>
   <g id="line2d_154">
    <g clip-path="url(#pc8d24d7266)">
     <use style="fill:#ffffbe;stroke:#000000;" x="1244.227868" xlink:href="#m873d729d40" y="761.927504"/>
    </g>
   </g>
   <g id="line2d_155">
    <g clip-path="url(#pc8d24d7266)">
     <use style="fill:#ffffbe;stroke:#000000;" x="1232.69257" xlink:href="#m873d729d40" y="759.687819"/>
    </g>
   </g>
   <g id="line2d_156">
    <g clip-path="url(#pc8d24d7266)">
     <use style="fill:#ffffbe;stroke:#000000;" x="1244.502999" xlink:href="#m873d729d40" y="759.66229"/>
    </g>
   </g>
   <g id="line2d_157">
    <g clip-path="url(#pc8d24d7266)">
     <use style="fill:#ffffbe;stroke:#000000;" x="1237.976396" xlink:href="#m873d729d40" y="760.617328"/>
    </g>
   </g>
   <g id="line2d_158">
    <g clip-path="url(#pc8d24d7266)">
     <use style="fill:#ffffbe;stroke:#000000;" x="1233.371178" xlink:href="#m873d729d40" y="760.430971"/>
    </g>
   </g>
   <g id="line2d_159">
    <g clip-path="url(#pc8d24d7266)">
     <use style="fill:#9e0142;stroke:#000000;" x="232.932525" xlink:href="#mf8f0aad412" y="225.236827"/>
    </g>
   </g>
   <g id="line2d_160">
    <g clip-path="url(#pc8d24d7266)">
     <use style="fill:#9e0142;stroke:#000000;" x="233.749819" xlink:href="#mf8f0aad412" y="228.743148"/>
    </g>
   </g>
   <g id="line2d_161">
    <g clip-path="url(#pc8d24d7266)">
     <use style="fill:#ffffbe;stroke:#000000;" x="1070.556714" xlink:href="#m873d729d40" y="691.655863"/>
    </g>
   </g>
   <g id="line2d_162">
    <g clip-path="url(#pc8d24d7266)">
     <use style="fill:#ffffbe;stroke:#000000;" x="1232.840554" xlink:href="#m873d729d40" y="761.08328"/>
    </g>
   </g>
   <g id="line2d_163">
    <g clip-path="url(#pc8d24d7266)">
     <use style="fill:#9e0142;stroke:#000000;" x="232.053095" xlink:href="#mf8f0aad412" y="229.628435"/>
    </g>
   </g>
   <g id="line2d_164">
    <g clip-path="url(#pc8d24d7266)">
     <use style="fill:#ffffbe;stroke:#000000;" x="1065.86008" xlink:href="#m873d729d40" y="690.587779"/>
    </g>
   </g>
   <g id="line2d_165">
    <g clip-path="url(#pc8d24d7266)">
     <use style="fill:#9e0142;stroke:#000000;" x="231.24414" xlink:href="#mf8f0aad412" y="225.366797"/>
    </g>
   </g>
   <g id="line2d_166">
    <g clip-path="url(#pc8d24d7266)">
     <use style="fill:#9e0142;stroke:#000000;" x="236.036799" xlink:href="#mf8f0aad412" y="229.930262"/>
    </g>
   </g>
   <g id="line2d_167">
    <g clip-path="url(#pc8d24d7266)">
     <use style="stroke:#000000;" x="804.694379" xlink:href="#m26ad04f24c" y="1102.256628"/>
    </g>
   </g>
   <g id="line2d_168">
    <g clip-path="url(#pc8d24d7266)">
     <use style="fill:#ffffbe;stroke:#000000;" x="1245.272727" xlink:href="#m873d729d40" y="760.820301"/>
    </g>
   </g>
   <g id="line2d_169">
    <g clip-path="url(#pc8d24d7266)">
     <use style="fill:#ffffbe;stroke:#000000;" x="1240.76617" xlink:href="#m873d729d40" y="759.195002"/>
    </g>
   </g>
   <g id="line2d_170">
    <g clip-path="url(#pc8d24d7266)">
     <use style="fill:#ffffbe;stroke:#000000;" x="1241.553698" xlink:href="#m873d729d40" y="759.392358"/>
    </g>
   </g>
   <g id="line2d_171">
    <g clip-path="url(#pc8d24d7266)">
     <use style="fill:#ffffbe;stroke:#000000;" x="1236.021265" xlink:href="#m873d729d40" y="760.160186"/>
    </g>
   </g>
   <g id="line2d_172">
    <g clip-path="url(#pc8d24d7266)">
     <use style="fill:#ffffbe;stroke:#000000;" x="1233.344077" xlink:href="#m873d729d40" y="761.955552"/>
    </g>
   </g>
   <g id="line2d_173">
    <g clip-path="url(#pc8d24d7266)">
     <use style="fill:#ffffbe;stroke:#000000;" x="1236.958571" xlink:href="#m873d729d40" y="759.501863"/>
    </g>
   </g>
   <g id="line2d_174">
    <g clip-path="url(#pc8d24d7266)">
     <use style="fill:#9e0142;stroke:#000000;" x="233.737141" xlink:href="#mf8f0aad412" y="224.914408"/>
    </g>
   </g>
   <g id="line2d_175">
    <g clip-path="url(#pc8d24d7266)">
     <use style="fill:#9e0142;stroke:#000000;" x="232.526959" xlink:href="#mf8f0aad412" y="236.207929"/>
    </g>
   </g>
   <g id="line2d_176">
    <g clip-path="url(#pc8d24d7266)">
     <use style="fill:#ffffbe;stroke:#000000;" x="1244.757454" xlink:href="#m873d729d40" y="761.103743"/>
    </g>
   </g>
   <g id="patch_3">
    <path d="M 180 1281.6 
L 180 172.8 
" style="fill:none;stroke:#000000;stroke-linecap:square;stroke-linejoin:miter;stroke-width:0.8;"/>
   </g>
   <g id="patch_4">
    <path d="M 1296 1281.6 
L 1296 172.8 
" style="fill:none;stroke:#000000;stroke-linecap:square;stroke-linejoin:miter;stroke-width:0.8;"/>
   </g>
   <g id="patch_5">
    <path d="M 180 1281.6 
L 1296 1281.6 
" style="fill:none;stroke:#000000;stroke-linecap:square;stroke-linejoin:miter;stroke-width:0.8;"/>
   </g>
   <g id="patch_6">
    <path d="M 180 172.8 
L 1296 172.8 
" style="fill:none;stroke:#000000;stroke-linecap:square;stroke-linejoin:miter;stroke-width:0.8;"/>
   </g>
  </g>
 </g>
 <defs>
  <clipPath id="pc8d24d7266">
   <rect height="1108.8" width="1116" x="180" y="172.8"/>
  </clipPath>
 </defs>
</svg>
