<?xml version="1.0" encoding="utf-8" standalone="no"?>
<!DOCTYPE svg PUBLIC "-//W3C//DTD SVG 1.1//EN"
  "http://www.w3.org/Graphics/SVG/1.1/DTD/svg11.dtd">
<!-- Created with matplotlib (https://matplotlib.org/) -->
<svg height="1440pt" version="1.1" viewBox="0 0 1440 1440" width="1440pt" xmlns="http://www.w3.org/2000/svg" xmlns:xlink="http://www.w3.org/1999/xlink">
 <defs>
  <style type="text/css">
*{stroke-linecap:butt;stroke-linejoin:round;}
  </style>
 </defs>
 <g id="figure_1">
  <g id="patch_1">
   <path d="M 0 1440 
L 1440 1440 
L 1440 0 
L 0 0 
z
" style="fill:#ffffff;"/>
  </g>
  <g id="axes_1">
   <g id="patch_2">
    <path d="M 180 1281.6 
L 1296 1281.6 
L 1296 172.8 
L 180 172.8 
z
" style="fill:#ffffff;"/>
   </g>
   <g id="matplotlib.axis_1">
    <g id="xtick_1">
     <g id="line2d_1">
      <defs>
       <path d="M 0 0 
L 0 3.5 
" id="mcda264dbdb" style="stroke:#000000;stroke-width:0.8;"/>
      </defs>
      <g>
       <use style="stroke:#000000;stroke-width:0.8;" x="197.693279" xlink:href="#mcda264dbdb" y="1281.6"/>
      </g>
     </g>
     <g id="text_1">
      <!-- −0.075 -->
      <defs>
       <path d="M 10.59375 35.5 
L 73.1875 35.5 
L 73.1875 27.203125 
L 10.59375 27.203125 
z
" id="DejaVuSans-8722"/>
       <path d="M 31.78125 66.40625 
Q 24.171875 66.40625 20.328125 58.90625 
Q 16.5 51.421875 16.5 36.375 
Q 16.5 21.390625 20.328125 13.890625 
Q 24.171875 6.390625 31.78125 6.390625 
Q 39.453125 6.390625 43.28125 13.890625 
Q 47.125 21.390625 47.125 36.375 
Q 47.125 51.421875 43.28125 58.90625 
Q 39.453125 66.40625 31.78125 66.40625 
z
M 31.78125 74.21875 
Q 44.046875 74.21875 50.515625 64.515625 
Q 56.984375 54.828125 56.984375 36.375 
Q 56.984375 17.96875 50.515625 8.265625 
Q 44.046875 -1.421875 31.78125 -1.421875 
Q 19.53125 -1.421875 13.0625 8.265625 
Q 6.59375 17.96875 6.59375 36.375 
Q 6.59375 54.828125 13.0625 64.515625 
Q 19.53125 74.21875 31.78125 74.21875 
z
" id="DejaVuSans-48"/>
       <path d="M 10.6875 12.40625 
L 21 12.40625 
L 21 0 
L 10.6875 0 
z
" id="DejaVuSans-46"/>
       <path d="M 8.203125 72.90625 
L 55.078125 72.90625 
L 55.078125 68.703125 
L 28.609375 0 
L 18.3125 0 
L 43.21875 64.59375 
L 8.203125 64.59375 
z
" id="DejaVuSans-55"/>
       <path d="M 10.796875 72.90625 
L 49.515625 72.90625 
L 49.515625 64.59375 
L 19.828125 64.59375 
L 19.828125 46.734375 
Q 21.96875 47.46875 24.109375 47.828125 
Q 26.265625 48.1875 28.421875 48.1875 
Q 40.625 48.1875 47.75 41.5 
Q 54.890625 34.8125 54.890625 23.390625 
Q 54.890625 11.625 47.5625 5.09375 
Q 40.234375 -1.421875 26.90625 -1.421875 
Q 22.3125 -1.421875 17.546875 -0.640625 
Q 12.796875 0.140625 7.71875 1.703125 
L 7.71875 11.625 
Q 12.109375 9.234375 16.796875 8.0625 
Q 21.484375 6.890625 26.703125 6.890625 
Q 35.15625 6.890625 40.078125 11.328125 
Q 45.015625 15.765625 45.015625 23.390625 
Q 45.015625 31 40.078125 35.4375 
Q 35.15625 39.890625 26.703125 39.890625 
Q 22.75 39.890625 18.8125 39.015625 
Q 14.890625 38.140625 10.796875 36.28125 
z
" id="DejaVuSans-53"/>
      </defs>
      <g transform="translate(179.189373 1296.198437)scale(0.1 -0.1)">
       <use xlink:href="#DejaVuSans-8722"/>
       <use x="83.789062" xlink:href="#DejaVuSans-48"/>
       <use x="147.412109" xlink:href="#DejaVuSans-46"/>
       <use x="179.199219" xlink:href="#DejaVuSans-48"/>
       <use x="242.822266" xlink:href="#DejaVuSans-55"/>
       <use x="306.445312" xlink:href="#DejaVuSans-53"/>
      </g>
     </g>
    </g>
    <g id="xtick_2">
     <g id="line2d_2">
      <g>
       <use style="stroke:#000000;stroke-width:0.8;" x="328.470149" xlink:href="#mcda264dbdb" y="1281.6"/>
      </g>
     </g>
     <g id="text_2">
      <!-- −0.050 -->
      <g transform="translate(309.966243 1296.198437)scale(0.1 -0.1)">
       <use xlink:href="#DejaVuSans-8722"/>
       <use x="83.789062" xlink:href="#DejaVuSans-48"/>
       <use x="147.412109" xlink:href="#DejaVuSans-46"/>
       <use x="179.199219" xlink:href="#DejaVuSans-48"/>
       <use x="242.822266" xlink:href="#DejaVuSans-53"/>
       <use x="306.445312" xlink:href="#DejaVuSans-48"/>
      </g>
     </g>
    </g>
    <g id="xtick_3">
     <g id="line2d_3">
      <g>
       <use style="stroke:#000000;stroke-width:0.8;" x="459.24702" xlink:href="#mcda264dbdb" y="1281.6"/>
      </g>
     </g>
     <g id="text_3">
      <!-- −0.025 -->
      <defs>
       <path d="M 19.1875 8.296875 
L 53.609375 8.296875 
L 53.609375 0 
L 7.328125 0 
L 7.328125 8.296875 
Q 12.9375 14.109375 22.625 23.890625 
Q 32.328125 33.6875 34.8125 36.53125 
Q 39.546875 41.84375 41.421875 45.53125 
Q 43.3125 49.21875 43.3125 52.78125 
Q 43.3125 58.59375 39.234375 62.25 
Q 35.15625 65.921875 28.609375 65.921875 
Q 23.96875 65.921875 18.8125 64.3125 
Q 13.671875 62.703125 7.8125 59.421875 
L 7.8125 69.390625 
Q 13.765625 71.78125 18.9375 73 
Q 24.125 74.21875 28.421875 74.21875 
Q 39.75 74.21875 46.484375 68.546875 
Q 53.21875 62.890625 53.21875 53.421875 
Q 53.21875 48.921875 51.53125 44.890625 
Q 49.859375 40.875 45.40625 35.40625 
Q 44.1875 33.984375 37.640625 27.21875 
Q 31.109375 20.453125 19.1875 8.296875 
z
" id="DejaVuSans-50"/>
      </defs>
      <g transform="translate(440.743113 1296.198437)scale(0.1 -0.1)">
       <use xlink:href="#DejaVuSans-8722"/>
       <use x="83.789062" xlink:href="#DejaVuSans-48"/>
       <use x="147.412109" xlink:href="#DejaVuSans-46"/>
       <use x="179.199219" xlink:href="#DejaVuSans-48"/>
       <use x="242.822266" xlink:href="#DejaVuSans-50"/>
       <use x="306.445312" xlink:href="#DejaVuSans-53"/>
      </g>
     </g>
    </g>
    <g id="xtick_4">
     <g id="line2d_4">
      <g>
       <use style="stroke:#000000;stroke-width:0.8;" x="590.02389" xlink:href="#mcda264dbdb" y="1281.6"/>
      </g>
     </g>
     <g id="text_4">
      <!-- 0.000 -->
      <g transform="translate(575.709828 1296.198437)scale(0.1 -0.1)">
       <use xlink:href="#DejaVuSans-48"/>
       <use x="63.623047" xlink:href="#DejaVuSans-46"/>
       <use x="95.410156" xlink:href="#DejaVuSans-48"/>
       <use x="159.033203" xlink:href="#DejaVuSans-48"/>
       <use x="222.65625" xlink:href="#DejaVuSans-48"/>
      </g>
     </g>
    </g>
    <g id="xtick_5">
     <g id="line2d_5">
      <g>
       <use style="stroke:#000000;stroke-width:0.8;" x="720.80076" xlink:href="#mcda264dbdb" y="1281.6"/>
      </g>
     </g>
     <g id="text_5">
      <!-- 0.025 -->
      <g transform="translate(706.486698 1296.198437)scale(0.1 -0.1)">
       <use xlink:href="#DejaVuSans-48"/>
       <use x="63.623047" xlink:href="#DejaVuSans-46"/>
       <use x="95.410156" xlink:href="#DejaVuSans-48"/>
       <use x="159.033203" xlink:href="#DejaVuSans-50"/>
       <use x="222.65625" xlink:href="#DejaVuSans-53"/>
      </g>
     </g>
    </g>
    <g id="xtick_6">
     <g id="line2d_6">
      <g>
       <use style="stroke:#000000;stroke-width:0.8;" x="851.577631" xlink:href="#mcda264dbdb" y="1281.6"/>
      </g>
     </g>
     <g id="text_6">
      <!-- 0.050 -->
      <g transform="translate(837.263568 1296.198437)scale(0.1 -0.1)">
       <use xlink:href="#DejaVuSans-48"/>
       <use x="63.623047" xlink:href="#DejaVuSans-46"/>
       <use x="95.410156" xlink:href="#DejaVuSans-48"/>
       <use x="159.033203" xlink:href="#DejaVuSans-53"/>
       <use x="222.65625" xlink:href="#DejaVuSans-48"/>
      </g>
     </g>
    </g>
    <g id="xtick_7">
     <g id="line2d_7">
      <g>
       <use style="stroke:#000000;stroke-width:0.8;" x="982.354501" xlink:href="#mcda264dbdb" y="1281.6"/>
      </g>
     </g>
     <g id="text_7">
      <!-- 0.075 -->
      <g transform="translate(968.040439 1296.198437)scale(0.1 -0.1)">
       <use xlink:href="#DejaVuSans-48"/>
       <use x="63.623047" xlink:href="#DejaVuSans-46"/>
       <use x="95.410156" xlink:href="#DejaVuSans-48"/>
       <use x="159.033203" xlink:href="#DejaVuSans-55"/>
       <use x="222.65625" xlink:href="#DejaVuSans-53"/>
      </g>
     </g>
    </g>
    <g id="xtick_8">
     <g id="line2d_8">
      <g>
       <use style="stroke:#000000;stroke-width:0.8;" x="1113.131371" xlink:href="#mcda264dbdb" y="1281.6"/>
      </g>
     </g>
     <g id="text_8">
      <!-- 0.100 -->
      <defs>
       <path d="M 12.40625 8.296875 
L 28.515625 8.296875 
L 28.515625 63.921875 
L 10.984375 60.40625 
L 10.984375 69.390625 
L 28.421875 72.90625 
L 38.28125 72.90625 
L 38.28125 8.296875 
L 54.390625 8.296875 
L 54.390625 0 
L 12.40625 0 
z
" id="DejaVuSans-49"/>
      </defs>
      <g transform="translate(1098.817309 1296.198437)scale(0.1 -0.1)">
       <use xlink:href="#DejaVuSans-48"/>
       <use x="63.623047" xlink:href="#DejaVuSans-46"/>
       <use x="95.410156" xlink:href="#DejaVuSans-49"/>
       <use x="159.033203" xlink:href="#DejaVuSans-48"/>
       <use x="222.65625" xlink:href="#DejaVuSans-48"/>
      </g>
     </g>
    </g>
    <g id="xtick_9">
     <g id="line2d_9">
      <g>
       <use style="stroke:#000000;stroke-width:0.8;" x="1243.908242" xlink:href="#mcda264dbdb" y="1281.6"/>
      </g>
     </g>
     <g id="text_9">
      <!-- 0.125 -->
      <g transform="translate(1229.594179 1296.198437)scale(0.1 -0.1)">
       <use xlink:href="#DejaVuSans-48"/>
       <use x="63.623047" xlink:href="#DejaVuSans-46"/>
       <use x="95.410156" xlink:href="#DejaVuSans-49"/>
       <use x="159.033203" xlink:href="#DejaVuSans-50"/>
       <use x="222.65625" xlink:href="#DejaVuSans-53"/>
      </g>
     </g>
    </g>
   </g>
   <g id="matplotlib.axis_2">
    <g id="ytick_1">
     <g id="line2d_10">
      <defs>
       <path d="M 0 0 
L -3.5 0 
" id="mc585354ae9" style="stroke:#000000;stroke-width:0.8;"/>
      </defs>
      <g>
       <use style="stroke:#000000;stroke-width:0.8;" x="180" xlink:href="#mc585354ae9" y="1144.694061"/>
      </g>
     </g>
     <g id="text_10">
      <!-- −0.2 -->
      <g transform="translate(148.717187 1148.49328)scale(0.1 -0.1)">
       <use xlink:href="#DejaVuSans-8722"/>
       <use x="83.789062" xlink:href="#DejaVuSans-48"/>
       <use x="147.412109" xlink:href="#DejaVuSans-46"/>
       <use x="179.199219" xlink:href="#DejaVuSans-50"/>
      </g>
     </g>
    </g>
    <g id="ytick_2">
     <g id="line2d_11">
      <g>
       <use style="stroke:#000000;stroke-width:0.8;" x="180" xlink:href="#mc585354ae9" y="985.55926"/>
      </g>
     </g>
     <g id="text_11">
      <!-- −0.1 -->
      <g transform="translate(148.717187 989.358479)scale(0.1 -0.1)">
       <use xlink:href="#DejaVuSans-8722"/>
       <use x="83.789062" xlink:href="#DejaVuSans-48"/>
       <use x="147.412109" xlink:href="#DejaVuSans-46"/>
       <use x="179.199219" xlink:href="#DejaVuSans-49"/>
      </g>
     </g>
    </g>
    <g id="ytick_3">
     <g id="line2d_12">
      <g>
       <use style="stroke:#000000;stroke-width:0.8;" x="180" xlink:href="#mc585354ae9" y="826.424459"/>
      </g>
     </g>
     <g id="text_12">
      <!-- 0.0 -->
      <g transform="translate(157.096875 830.223677)scale(0.1 -0.1)">
       <use xlink:href="#DejaVuSans-48"/>
       <use x="63.623047" xlink:href="#DejaVuSans-46"/>
       <use x="95.410156" xlink:href="#DejaVuSans-48"/>
      </g>
     </g>
    </g>
    <g id="ytick_4">
     <g id="line2d_13">
      <g>
       <use style="stroke:#000000;stroke-width:0.8;" x="180" xlink:href="#mc585354ae9" y="667.289657"/>
      </g>
     </g>
     <g id="text_13">
      <!-- 0.1 -->
      <g transform="translate(157.096875 671.088876)scale(0.1 -0.1)">
       <use xlink:href="#DejaVuSans-48"/>
       <use x="63.623047" xlink:href="#DejaVuSans-46"/>
       <use x="95.410156" xlink:href="#DejaVuSans-49"/>
      </g>
     </g>
    </g>
    <g id="ytick_5">
     <g id="line2d_14">
      <g>
       <use style="stroke:#000000;stroke-width:0.8;" x="180" xlink:href="#mc585354ae9" y="508.154856"/>
      </g>
     </g>
     <g id="text_14">
      <!-- 0.2 -->
      <g transform="translate(157.096875 511.954075)scale(0.1 -0.1)">
       <use xlink:href="#DejaVuSans-48"/>
       <use x="63.623047" xlink:href="#DejaVuSans-46"/>
       <use x="95.410156" xlink:href="#DejaVuSans-50"/>
      </g>
     </g>
    </g>
    <g id="ytick_6">
     <g id="line2d_15">
      <g>
       <use style="stroke:#000000;stroke-width:0.8;" x="180" xlink:href="#mc585354ae9" y="349.020055"/>
      </g>
     </g>
     <g id="text_15">
      <!-- 0.3 -->
      <defs>
       <path d="M 40.578125 39.3125 
Q 47.65625 37.796875 51.625 33 
Q 55.609375 28.21875 55.609375 21.1875 
Q 55.609375 10.40625 48.1875 4.484375 
Q 40.765625 -1.421875 27.09375 -1.421875 
Q 22.515625 -1.421875 17.65625 -0.515625 
Q 12.796875 0.390625 7.625 2.203125 
L 7.625 11.71875 
Q 11.71875 9.328125 16.59375 8.109375 
Q 21.484375 6.890625 26.8125 6.890625 
Q 36.078125 6.890625 40.9375 10.546875 
Q 45.796875 14.203125 45.796875 21.1875 
Q 45.796875 27.640625 41.28125 31.265625 
Q 36.765625 34.90625 28.71875 34.90625 
L 20.21875 34.90625 
L 20.21875 43.015625 
L 29.109375 43.015625 
Q 36.375 43.015625 40.234375 45.921875 
Q 44.09375 48.828125 44.09375 54.296875 
Q 44.09375 59.90625 40.109375 62.90625 
Q 36.140625 65.921875 28.71875 65.921875 
Q 24.65625 65.921875 20.015625 65.03125 
Q 15.375 64.15625 9.8125 62.3125 
L 9.8125 71.09375 
Q 15.4375 72.65625 20.34375 73.4375 
Q 25.25 74.21875 29.59375 74.21875 
Q 40.828125 74.21875 47.359375 69.109375 
Q 53.90625 64.015625 53.90625 55.328125 
Q 53.90625 49.265625 50.4375 45.09375 
Q 46.96875 40.921875 40.578125 39.3125 
z
" id="DejaVuSans-51"/>
      </defs>
      <g transform="translate(157.096875 352.819274)scale(0.1 -0.1)">
       <use xlink:href="#DejaVuSans-48"/>
       <use x="63.623047" xlink:href="#DejaVuSans-46"/>
       <use x="95.410156" xlink:href="#DejaVuSans-51"/>
      </g>
     </g>
    </g>
    <g id="ytick_7">
     <g id="line2d_16">
      <g>
       <use style="stroke:#000000;stroke-width:0.8;" x="180" xlink:href="#mc585354ae9" y="189.885254"/>
      </g>
     </g>
     <g id="text_16">
      <!-- 0.4 -->
      <defs>
       <path d="M 37.796875 64.3125 
L 12.890625 25.390625 
L 37.796875 25.390625 
z
M 35.203125 72.90625 
L 47.609375 72.90625 
L 47.609375 25.390625 
L 58.015625 25.390625 
L 58.015625 17.1875 
L 47.609375 17.1875 
L 47.609375 0 
L 37.796875 0 
L 37.796875 17.1875 
L 4.890625 17.1875 
L 4.890625 26.703125 
z
" id="DejaVuSans-52"/>
      </defs>
      <g transform="translate(157.096875 193.684472)scale(0.1 -0.1)">
       <use xlink:href="#DejaVuSans-48"/>
       <use x="63.623047" xlink:href="#DejaVuSans-46"/>
       <use x="95.410156" xlink:href="#DejaVuSans-52"/>
      </g>
     </g>
    </g>
   </g>
   <g id="line2d_17">
    <defs>
     <path d="M 0 9 
C 2.386828 9 4.676219 8.051703 6.363961 6.363961 
C 8.051703 4.676219 9 2.386828 9 0 
C 9 -2.386828 8.051703 -4.676219 6.363961 -6.363961 
C 4.676219 -8.051703 2.386828 -9 0 -9 
C -2.386828 -9 -4.676219 -8.051703 -6.363961 -6.363961 
C -8.051703 -4.676219 -9 -2.386828 -9 0 
C -9 2.386828 -8.051703 4.676219 -6.363961 6.363961 
C -4.676219 8.051703 -2.386828 9 0 9 
z
" id="m1e3920362c" style="stroke:#000000;"/>
    </defs>
    <g clip-path="url(#p0678049fc8)">
     <use style="fill:#9e0142;stroke:#000000;" x="1217.996583" xlink:href="#m1e3920362c" y="859.915908"/>
    </g>
   </g>
   <g id="line2d_18">
    <g clip-path="url(#p0678049fc8)">
     <use style="fill:#9e0142;stroke:#000000;" x="1236.96228" xlink:href="#m1e3920362c" y="793.070322"/>
    </g>
   </g>
   <g id="line2d_19">
    <g clip-path="url(#p0678049fc8)">
     <use style="fill:#9e0142;stroke:#000000;" x="1244.174258" xlink:href="#m1e3920362c" y="793.169881"/>
    </g>
   </g>
   <g id="line2d_20">
    <g clip-path="url(#p0678049fc8)">
     <use style="fill:#9e0142;stroke:#000000;" x="1239.365488" xlink:href="#m1e3920362c" y="792.914873"/>
    </g>
   </g>
   <g id="line2d_21">
    <g clip-path="url(#p0678049fc8)">
     <use style="fill:#9e0142;stroke:#000000;" x="1239.305662" xlink:href="#m1e3920362c" y="792.611444"/>
    </g>
   </g>
   <g id="line2d_22">
    <g clip-path="url(#p0678049fc8)">
     <use style="fill:#9e0142;stroke:#000000;" x="1235.802919" xlink:href="#m1e3920362c" y="792.719722"/>
    </g>
   </g>
   <g id="line2d_23">
    <g clip-path="url(#p0678049fc8)">
     <use style="fill:#9e0142;stroke:#000000;" x="1234.11681" xlink:href="#m1e3920362c" y="793.046268"/>
    </g>
   </g>
   <g id="line2d_24">
    <g clip-path="url(#p0678049fc8)">
     <use style="fill:#9e0142;stroke:#000000;" x="1232.700399" xlink:href="#m1e3920362c" y="792.596444"/>
    </g>
   </g>
   <g id="line2d_25">
    <defs>
     <path d="M 0 9 
C 2.386828 9 4.676219 8.051703 6.363961 6.363961 
C 8.051703 4.676219 9 2.386828 9 0 
C 9 -2.386828 8.051703 -4.676219 6.363961 -6.363961 
C 4.676219 -8.051703 2.386828 -9 0 -9 
C -2.386828 -9 -4.676219 -8.051703 -6.363961 -6.363961 
C -8.051703 -4.676219 -9 -2.386828 -9 0 
C -9 2.386828 -8.051703 4.676219 -6.363961 6.363961 
C -4.676219 8.051703 -2.386828 9 0 9 
z
" id="m5037075ea6" style="stroke:#000000;"/>
    </defs>
    <g clip-path="url(#p0678049fc8)">
     <use style="fill:#ffffbe;stroke:#000000;" x="419.00107" xlink:href="#m5037075ea6" y="223.2"/>
    </g>
   </g>
   <g id="line2d_26">
    <g clip-path="url(#p0678049fc8)">
     <use style="fill:#ffffbe;stroke:#000000;" x="418.709583" xlink:href="#m5037075ea6" y="225.086257"/>
    </g>
   </g>
   <g id="line2d_27">
    <g clip-path="url(#p0678049fc8)">
     <use style="fill:#ffffbe;stroke:#000000;" x="418.006887" xlink:href="#m5037075ea6" y="223.414895"/>
    </g>
   </g>
   <g id="line2d_28">
    <g clip-path="url(#p0678049fc8)">
     <use style="fill:#ffffbe;stroke:#000000;" x="417.758811" xlink:href="#m5037075ea6" y="225.808004"/>
    </g>
   </g>
   <g id="line2d_29">
    <g clip-path="url(#p0678049fc8)">
     <use style="fill:#ffffbe;stroke:#000000;" x="418.361811" xlink:href="#m5037075ea6" y="227.025756"/>
    </g>
   </g>
   <g id="line2d_30">
    <defs>
     <path d="M 0 3 
C 0.795609 3 1.55874 2.683901 2.12132 2.12132 
C 2.683901 1.55874 3 0.795609 3 0 
C 3 -0.795609 2.683901 -1.55874 2.12132 -2.12132 
C 1.55874 -2.683901 0.795609 -3 0 -3 
C -0.795609 -3 -1.55874 -2.683901 -2.12132 -2.12132 
C -2.683901 -1.55874 -3 -0.795609 -3 0 
C -3 0.795609 -2.683901 1.55874 -2.12132 2.12132 
C -1.55874 2.683901 -0.795609 3 0 3 
z
" id="m63664c4066" style="stroke:#000000;"/>
    </defs>
    <g clip-path="url(#p0678049fc8)">
     <use style="stroke:#000000;" x="230.727273" xlink:href="#m63664c4066" y="593.359253"/>
    </g>
   </g>
   <g id="line2d_31">
    <g clip-path="url(#p0678049fc8)">
     <use style="fill:#9e0142;stroke:#000000;" x="1240.432565" xlink:href="#m1e3920362c" y="793.16405"/>
    </g>
   </g>
   <g id="line2d_32">
    <g clip-path="url(#p0678049fc8)">
     <use style="fill:#9e0142;stroke:#000000;" x="1241.994832" xlink:href="#m1e3920362c" y="792.761716"/>
    </g>
   </g>
   <g id="line2d_33">
    <g clip-path="url(#p0678049fc8)">
     <use style="fill:#9e0142;stroke:#000000;" x="1219.206464" xlink:href="#m1e3920362c" y="860.015078"/>
    </g>
   </g>
   <g id="line2d_34">
    <g clip-path="url(#p0678049fc8)">
     <use style="fill:#9e0142;stroke:#000000;" x="1241.854207" xlink:href="#m1e3920362c" y="792.521831"/>
    </g>
   </g>
   <g id="line2d_35">
    <g clip-path="url(#p0678049fc8)">
     <use style="fill:#9e0142;stroke:#000000;" x="1242.036251" xlink:href="#m1e3920362c" y="813.575169"/>
    </g>
   </g>
   <g id="line2d_36">
    <g clip-path="url(#p0678049fc8)">
     <use style="fill:#9e0142;stroke:#000000;" x="1242.465834" xlink:href="#m1e3920362c" y="813.607977"/>
    </g>
   </g>
   <g id="line2d_37">
    <g clip-path="url(#p0678049fc8)">
     <use style="fill:#9e0142;stroke:#000000;" x="1237.77134" xlink:href="#m1e3920362c" y="792.957152"/>
    </g>
   </g>
   <g id="line2d_38">
    <g clip-path="url(#p0678049fc8)">
     <use style="fill:#9e0142;stroke:#000000;" x="1238.850079" xlink:href="#m1e3920362c" y="792.667642"/>
    </g>
   </g>
   <g id="line2d_39">
    <g clip-path="url(#p0678049fc8)">
     <use style="fill:#9e0142;stroke:#000000;" x="1241.32486" xlink:href="#m1e3920362c" y="792.999789"/>
    </g>
   </g>
   <g id="line2d_40">
    <g clip-path="url(#p0678049fc8)">
     <use style="fill:#9e0142;stroke:#000000;" x="1240.2551" xlink:href="#m1e3920362c" y="792.679182"/>
    </g>
   </g>
   <g id="line2d_41">
    <g clip-path="url(#p0678049fc8)">
     <use style="fill:#9e0142;stroke:#000000;" x="1235.84947" xlink:href="#m1e3920362c" y="792.994673"/>
    </g>
   </g>
   <g id="line2d_42">
    <g clip-path="url(#p0678049fc8)">
     <use style="stroke:#000000;" x="784.996967" xlink:href="#m63664c4066" y="838.683434"/>
    </g>
   </g>
   <g id="line2d_43">
    <g clip-path="url(#p0678049fc8)">
     <use style="fill:#9e0142;stroke:#000000;" x="1242.155604" xlink:href="#m1e3920362c" y="792.93484"/>
    </g>
   </g>
   <g id="line2d_44">
    <g clip-path="url(#p0678049fc8)">
     <use style="fill:#9e0142;stroke:#000000;" x="1242.309615" xlink:href="#m1e3920362c" y="792.65608"/>
    </g>
   </g>
   <g id="line2d_45">
    <g clip-path="url(#p0678049fc8)">
     <use style="fill:#9e0142;stroke:#000000;" x="1239.00208" xlink:href="#m1e3920362c" y="793.135154"/>
    </g>
   </g>
   <g id="line2d_46">
    <g clip-path="url(#p0678049fc8)">
     <use style="fill:#9e0142;stroke:#000000;" x="1235.087473" xlink:href="#m1e3920362c" y="793.084757"/>
    </g>
   </g>
   <g id="line2d_47">
    <g clip-path="url(#p0678049fc8)">
     <use style="stroke:#000000;" x="1066.635393" xlink:href="#m63664c4066" y="746.533905"/>
    </g>
   </g>
   <g id="line2d_48">
    <g clip-path="url(#p0678049fc8)">
     <use style="fill:#9e0142;stroke:#000000;" x="1245.272727" xlink:href="#m1e3920362c" y="813.530614"/>
    </g>
   </g>
   <g id="line2d_49">
    <g clip-path="url(#p0678049fc8)">
     <use style="fill:#9e0142;stroke:#000000;" x="1242.910717" xlink:href="#m1e3920362c" y="792.902987"/>
    </g>
   </g>
   <g id="line2d_50">
    <g clip-path="url(#p0678049fc8)">
     <use style="fill:#9e0142;stroke:#000000;" x="1240.859868" xlink:href="#m1e3920362c" y="813.535412"/>
    </g>
   </g>
   <g id="line2d_51">
    <g clip-path="url(#p0678049fc8)">
     <use style="fill:#9e0142;stroke:#000000;" x="1236.887375" xlink:href="#m1e3920362c" y="813.676661"/>
    </g>
   </g>
   <g id="line2d_52">
    <g clip-path="url(#p0678049fc8)">
     <use style="fill:#9e0142;stroke:#000000;" x="1214.807904" xlink:href="#m1e3920362c" y="860.133948"/>
    </g>
   </g>
   <g id="line2d_53">
    <g clip-path="url(#p0678049fc8)">
     <use style="fill:#9e0142;stroke:#000000;" x="1237.575349" xlink:href="#m1e3920362c" y="792.779304"/>
    </g>
   </g>
   <g id="line2d_54">
    <g clip-path="url(#p0678049fc8)">
     <use style="fill:#9e0142;stroke:#000000;" x="1239.465397" xlink:href="#m1e3920362c" y="792.67869"/>
    </g>
   </g>
   <g id="line2d_55">
    <g clip-path="url(#p0678049fc8)">
     <use style="fill:#9e0142;stroke:#000000;" x="1211.897638" xlink:href="#m1e3920362c" y="860.150836"/>
    </g>
   </g>
   <g id="line2d_56">
    <g clip-path="url(#p0678049fc8)">
     <use style="fill:#9e0142;stroke:#000000;" x="1243.992904" xlink:href="#m1e3920362c" y="792.554417"/>
    </g>
   </g>
   <g id="line2d_57">
    <g clip-path="url(#p0678049fc8)">
     <use style="stroke:#000000;" x="494.013032" xlink:href="#m63664c4066" y="628.548753"/>
    </g>
   </g>
   <g id="line2d_58">
    <g clip-path="url(#p0678049fc8)">
     <use style="fill:#9e0142;stroke:#000000;" x="1244.000164" xlink:href="#m1e3920362c" y="792.977931"/>
    </g>
   </g>
   <g id="line2d_59">
    <g clip-path="url(#p0678049fc8)">
     <use style="fill:#9e0142;stroke:#000000;" x="1221.481985" xlink:href="#m1e3920362c" y="859.840249"/>
    </g>
   </g>
   <g id="line2d_60">
    <g clip-path="url(#p0678049fc8)">
     <use style="fill:#9e0142;stroke:#000000;" x="1243.628309" xlink:href="#m1e3920362c" y="792.715881"/>
    </g>
   </g>
   <g id="line2d_61">
    <g clip-path="url(#p0678049fc8)">
     <use style="fill:#9e0142;stroke:#000000;" x="1233.575335" xlink:href="#m1e3920362c" y="792.833283"/>
    </g>
   </g>
   <g id="line2d_62">
    <g clip-path="url(#p0678049fc8)">
     <use style="fill:#9e0142;stroke:#000000;" x="1216.807952" xlink:href="#m1e3920362c" y="860.285951"/>
    </g>
   </g>
   <g id="line2d_63">
    <g clip-path="url(#p0678049fc8)">
     <use style="fill:#9e0142;stroke:#000000;" x="1244.366808" xlink:href="#m1e3920362c" y="792.882339"/>
    </g>
   </g>
   <g id="line2d_64">
    <g clip-path="url(#p0678049fc8)">
     <use style="fill:#9e0142;stroke:#000000;" x="1235.621896" xlink:href="#m1e3920362c" y="792.539043"/>
    </g>
   </g>
   <g id="line2d_65">
    <g clip-path="url(#p0678049fc8)">
     <use style="fill:#9e0142;stroke:#000000;" x="1239.852382" xlink:href="#m1e3920362c" y="793.074664"/>
    </g>
   </g>
   <g id="line2d_66">
    <g clip-path="url(#p0678049fc8)">
     <use style="fill:#9e0142;stroke:#000000;" x="1237.959909" xlink:href="#m1e3920362c" y="793.02712"/>
    </g>
   </g>
   <g id="line2d_67">
    <g clip-path="url(#p0678049fc8)">
     <use style="fill:#9e0142;stroke:#000000;" x="1235.097806" xlink:href="#m1e3920362c" y="792.61073"/>
    </g>
   </g>
   <g id="line2d_68">
    <g clip-path="url(#p0678049fc8)">
     <use style="fill:#9e0142;stroke:#000000;" x="1236.268978" xlink:href="#m1e3920362c" y="792.548111"/>
    </g>
   </g>
   <g id="line2d_69">
    <g clip-path="url(#p0678049fc8)">
     <use style="stroke:#000000;" x="1035.06421" xlink:href="#m63664c4066" y="1231.2"/>
    </g>
   </g>
   <g id="line2d_70">
    <g clip-path="url(#p0678049fc8)">
     <use style="fill:#9e0142;stroke:#000000;" x="1241.614388" xlink:href="#m1e3920362c" y="792.68912"/>
    </g>
   </g>
   <g id="line2d_71">
    <g clip-path="url(#p0678049fc8)">
     <use style="fill:#9e0142;stroke:#000000;" x="1242.439498" xlink:href="#m1e3920362c" y="792.527717"/>
    </g>
   </g>
   <g id="line2d_72">
    <g clip-path="url(#p0678049fc8)">
     <use style="fill:#9e0142;stroke:#000000;" x="1239.164732" xlink:href="#m1e3920362c" y="792.976756"/>
    </g>
   </g>
   <g id="line2d_73">
    <g clip-path="url(#p0678049fc8)">
     <use style="stroke:#000000;" x="1006.057414" xlink:href="#m63664c4066" y="1179.796141"/>
    </g>
   </g>
   <g id="line2d_74">
    <g clip-path="url(#p0678049fc8)">
     <use style="fill:#9e0142;stroke:#000000;" x="1239.543245" xlink:href="#m1e3920362c" y="792.623721"/>
    </g>
   </g>
   <g id="line2d_75">
    <g clip-path="url(#p0678049fc8)">
     <use style="fill:#9e0142;stroke:#000000;" x="1242.191388" xlink:href="#m1e3920362c" y="792.820721"/>
    </g>
   </g>
   <g id="line2d_76">
    <g clip-path="url(#p0678049fc8)">
     <use style="fill:#9e0142;stroke:#000000;" x="1239.675196" xlink:href="#m1e3920362c" y="792.750977"/>
    </g>
   </g>
   <g id="line2d_77">
    <g clip-path="url(#p0678049fc8)">
     <use style="fill:#9e0142;stroke:#000000;" x="1231.862375" xlink:href="#m1e3920362c" y="792.869447"/>
    </g>
   </g>
   <g id="line2d_78">
    <g clip-path="url(#p0678049fc8)">
     <use style="stroke:#000000;" x="721.191515" xlink:href="#m63664c4066" y="437.866692"/>
    </g>
   </g>
   <g id="line2d_79">
    <g clip-path="url(#p0678049fc8)">
     <use style="fill:#9e0142;stroke:#000000;" x="1237.338323" xlink:href="#m1e3920362c" y="793.077813"/>
    </g>
   </g>
   <g id="line2d_80">
    <g clip-path="url(#p0678049fc8)">
     <use style="fill:#9e0142;stroke:#000000;" x="1241.122535" xlink:href="#m1e3920362c" y="792.777889"/>
    </g>
   </g>
   <g id="line2d_81">
    <g clip-path="url(#p0678049fc8)">
     <use style="fill:#9e0142;stroke:#000000;" x="1193.006239" xlink:href="#m1e3920362c" y="819.202517"/>
    </g>
   </g>
   <g id="line2d_82">
    <g clip-path="url(#p0678049fc8)">
     <use style="fill:#9e0142;stroke:#000000;" x="1240.218273" xlink:href="#m1e3920362c" y="793.00545"/>
    </g>
   </g>
   <g id="line2d_83">
    <g clip-path="url(#p0678049fc8)">
     <use style="fill:#9e0142;stroke:#000000;" x="1233.045413" xlink:href="#m1e3920362c" y="829.748748"/>
    </g>
   </g>
   <g id="line2d_84">
    <g clip-path="url(#p0678049fc8)">
     <use style="fill:#9e0142;stroke:#000000;" x="1237.335049" xlink:href="#m1e3920362c" y="792.877179"/>
    </g>
   </g>
   <g id="line2d_85">
    <g clip-path="url(#p0678049fc8)">
     <use style="fill:#9e0142;stroke:#000000;" x="1232.148396" xlink:href="#m1e3920362c" y="793.155182"/>
    </g>
   </g>
   <g id="line2d_86">
    <g clip-path="url(#p0678049fc8)">
     <use style="fill:#9e0142;stroke:#000000;" x="1236.56915" xlink:href="#m1e3920362c" y="792.831333"/>
    </g>
   </g>
   <g id="line2d_87">
    <g clip-path="url(#p0678049fc8)">
     <use style="fill:#9e0142;stroke:#000000;" x="1243.928462" xlink:href="#m1e3920362c" y="792.967302"/>
    </g>
   </g>
   <g id="line2d_88">
    <g clip-path="url(#p0678049fc8)">
     <use style="stroke:#000000;" x="1010.481003" xlink:href="#m63664c4066" y="1182.969459"/>
    </g>
   </g>
   <g id="line2d_89">
    <g clip-path="url(#p0678049fc8)">
     <use style="fill:#9e0142;stroke:#000000;" x="1233.417421" xlink:href="#m1e3920362c" y="793.089525"/>
    </g>
   </g>
   <g id="line2d_90">
    <g clip-path="url(#p0678049fc8)">
     <use style="fill:#9e0142;stroke:#000000;" x="1240.646552" xlink:href="#m1e3920362c" y="792.772501"/>
    </g>
   </g>
   <g id="line2d_91">
    <g clip-path="url(#p0678049fc8)">
     <use style="fill:#9e0142;stroke:#000000;" x="1241.416198" xlink:href="#m1e3920362c" y="792.930434"/>
    </g>
   </g>
   <g id="line2d_92">
    <g clip-path="url(#p0678049fc8)">
     <use style="fill:#9e0142;stroke:#000000;" x="1241.365311" xlink:href="#m1e3920362c" y="792.910805"/>
    </g>
   </g>
   <g id="patch_3">
    <path d="M 180 1281.6 
L 180 172.8 
" style="fill:none;stroke:#000000;stroke-linecap:square;stroke-linejoin:miter;stroke-width:0.8;"/>
   </g>
   <g id="patch_4">
    <path d="M 1296 1281.6 
L 1296 172.8 
" style="fill:none;stroke:#000000;stroke-linecap:square;stroke-linejoin:miter;stroke-width:0.8;"/>
   </g>
   <g id="patch_5">
    <path d="M 180 1281.6 
L 1296 1281.6 
" style="fill:none;stroke:#000000;stroke-linecap:square;stroke-linejoin:miter;stroke-width:0.8;"/>
   </g>
   <g id="patch_6">
    <path d="M 180 172.8 
L 1296 172.8 
" style="fill:none;stroke:#000000;stroke-linecap:square;stroke-linejoin:miter;stroke-width:0.8;"/>
   </g>
  </g>
 </g>
 <defs>
  <clipPath id="p0678049fc8">
   <rect height="1108.8" width="1116" x="180" y="172.8"/>
  </clipPath>
 </defs>
</svg>
