<?xml version="1.0" encoding="utf-8" standalone="no"?>
<!DOCTYPE svg PUBLIC "-//W3C//DTD SVG 1.1//EN"
  "http://www.w3.org/Graphics/SVG/1.1/DTD/svg11.dtd">
<!-- Created with matplotlib (https://matplotlib.org/) -->
<svg height="1440pt" version="1.1" viewBox="0 0 1440 1440" width="1440pt" xmlns="http://www.w3.org/2000/svg" xmlns:xlink="http://www.w3.org/1999/xlink">
 <defs>
  <style type="text/css">
*{stroke-linecap:butt;stroke-linejoin:round;}
  </style>
 </defs>
 <g id="figure_1">
  <g id="patch_1">
   <path d="M 0 1440 
L 1440 1440 
L 1440 0 
L 0 0 
z
" style="fill:#ffffff;"/>
  </g>
  <g id="axes_1">
   <g id="patch_2">
    <path d="M 180 1281.6 
L 1296 1281.6 
L 1296 172.8 
L 180 172.8 
z
" style="fill:#ffffff;"/>
   </g>
   <g id="matplotlib.axis_1">
    <g id="xtick_1">
     <g id="line2d_1">
      <defs>
       <path d="M 0 0 
L 0 3.5 
" id="mde60646b2d" style="stroke:#000000;stroke-width:0.8;"/>
      </defs>
      <g>
       <use style="stroke:#000000;stroke-width:0.8;" x="328.369586" xlink:href="#mde60646b2d" y="1281.6"/>
      </g>
     </g>
     <g id="text_1">
      <!-- −0.10 -->
      <defs>
       <path d="M 10.59375 35.5 
L 73.1875 35.5 
L 73.1875 27.203125 
L 10.59375 27.203125 
z
" id="DejaVuSans-8722"/>
       <path d="M 31.78125 66.40625 
Q 24.171875 66.40625 20.328125 58.90625 
Q 16.5 51.421875 16.5 36.375 
Q 16.5 21.390625 20.328125 13.890625 
Q 24.171875 6.390625 31.78125 6.390625 
Q 39.453125 6.390625 43.28125 13.890625 
Q 47.125 21.390625 47.125 36.375 
Q 47.125 51.421875 43.28125 58.90625 
Q 39.453125 66.40625 31.78125 66.40625 
z
M 31.78125 74.21875 
Q 44.046875 74.21875 50.515625 64.515625 
Q 56.984375 54.828125 56.984375 36.375 
Q 56.984375 17.96875 50.515625 8.265625 
Q 44.046875 -1.421875 31.78125 -1.421875 
Q 19.53125 -1.421875 13.0625 8.265625 
Q 6.59375 17.96875 6.59375 36.375 
Q 6.59375 54.828125 13.0625 64.515625 
Q 19.53125 74.21875 31.78125 74.21875 
z
" id="DejaVuSans-48"/>
       <path d="M 10.6875 12.40625 
L 21 12.40625 
L 21 0 
L 10.6875 0 
z
" id="DejaVuSans-46"/>
       <path d="M 12.40625 8.296875 
L 28.515625 8.296875 
L 28.515625 63.921875 
L 10.984375 60.40625 
L 10.984375 69.390625 
L 28.421875 72.90625 
L 38.28125 72.90625 
L 38.28125 8.296875 
L 54.390625 8.296875 
L 54.390625 0 
L 12.40625 0 
z
" id="DejaVuSans-49"/>
      </defs>
      <g transform="translate(313.046929 1296.198437)scale(0.1 -0.1)">
       <use xlink:href="#DejaVuSans-8722"/>
       <use x="83.789062" xlink:href="#DejaVuSans-48"/>
       <use x="147.412109" xlink:href="#DejaVuSans-46"/>
       <use x="179.199219" xlink:href="#DejaVuSans-49"/>
       <use x="242.822266" xlink:href="#DejaVuSans-48"/>
      </g>
     </g>
    </g>
    <g id="xtick_2">
     <g id="line2d_2">
      <g>
       <use style="stroke:#000000;stroke-width:0.8;" x="514.706787" xlink:href="#mde60646b2d" y="1281.6"/>
      </g>
     </g>
     <g id="text_2">
      <!-- −0.05 -->
      <defs>
       <path d="M 10.796875 72.90625 
L 49.515625 72.90625 
L 49.515625 64.59375 
L 19.828125 64.59375 
L 19.828125 46.734375 
Q 21.96875 47.46875 24.109375 47.828125 
Q 26.265625 48.1875 28.421875 48.1875 
Q 40.625 48.1875 47.75 41.5 
Q 54.890625 34.8125 54.890625 23.390625 
Q 54.890625 11.625 47.5625 5.09375 
Q 40.234375 -1.421875 26.90625 -1.421875 
Q 22.3125 -1.421875 17.546875 -0.640625 
Q 12.796875 0.140625 7.71875 1.703125 
L 7.71875 11.625 
Q 12.109375 9.234375 16.796875 8.0625 
Q 21.484375 6.890625 26.703125 6.890625 
Q 35.15625 6.890625 40.078125 11.328125 
Q 45.015625 15.765625 45.015625 23.390625 
Q 45.015625 31 40.078125 35.4375 
Q 35.15625 39.890625 26.703125 39.890625 
Q 22.75 39.890625 18.8125 39.015625 
Q 14.890625 38.140625 10.796875 36.28125 
z
" id="DejaVuSans-53"/>
      </defs>
      <g transform="translate(499.384131 1296.198437)scale(0.1 -0.1)">
       <use xlink:href="#DejaVuSans-8722"/>
       <use x="83.789062" xlink:href="#DejaVuSans-48"/>
       <use x="147.412109" xlink:href="#DejaVuSans-46"/>
       <use x="179.199219" xlink:href="#DejaVuSans-48"/>
       <use x="242.822266" xlink:href="#DejaVuSans-53"/>
      </g>
     </g>
    </g>
    <g id="xtick_3">
     <g id="line2d_3">
      <g>
       <use style="stroke:#000000;stroke-width:0.8;" x="701.043989" xlink:href="#mde60646b2d" y="1281.6"/>
      </g>
     </g>
     <g id="text_3">
      <!-- 0.00 -->
      <g transform="translate(689.911177 1296.198437)scale(0.1 -0.1)">
       <use xlink:href="#DejaVuSans-48"/>
       <use x="63.623047" xlink:href="#DejaVuSans-46"/>
       <use x="95.410156" xlink:href="#DejaVuSans-48"/>
       <use x="159.033203" xlink:href="#DejaVuSans-48"/>
      </g>
     </g>
    </g>
    <g id="xtick_4">
     <g id="line2d_4">
      <g>
       <use style="stroke:#000000;stroke-width:0.8;" x="887.381191" xlink:href="#mde60646b2d" y="1281.6"/>
      </g>
     </g>
     <g id="text_4">
      <!-- 0.05 -->
      <g transform="translate(876.248378 1296.198437)scale(0.1 -0.1)">
       <use xlink:href="#DejaVuSans-48"/>
       <use x="63.623047" xlink:href="#DejaVuSans-46"/>
       <use x="95.410156" xlink:href="#DejaVuSans-48"/>
       <use x="159.033203" xlink:href="#DejaVuSans-53"/>
      </g>
     </g>
    </g>
    <g id="xtick_5">
     <g id="line2d_5">
      <g>
       <use style="stroke:#000000;stroke-width:0.8;" x="1073.718393" xlink:href="#mde60646b2d" y="1281.6"/>
      </g>
     </g>
     <g id="text_5">
      <!-- 0.10 -->
      <g transform="translate(1062.58558 1296.198437)scale(0.1 -0.1)">
       <use xlink:href="#DejaVuSans-48"/>
       <use x="63.623047" xlink:href="#DejaVuSans-46"/>
       <use x="95.410156" xlink:href="#DejaVuSans-49"/>
       <use x="159.033203" xlink:href="#DejaVuSans-48"/>
      </g>
     </g>
    </g>
    <g id="xtick_6">
     <g id="line2d_6">
      <g>
       <use style="stroke:#000000;stroke-width:0.8;" x="1260.055594" xlink:href="#mde60646b2d" y="1281.6"/>
      </g>
     </g>
     <g id="text_6">
      <!-- 0.15 -->
      <g transform="translate(1248.922782 1296.198437)scale(0.1 -0.1)">
       <use xlink:href="#DejaVuSans-48"/>
       <use x="63.623047" xlink:href="#DejaVuSans-46"/>
       <use x="95.410156" xlink:href="#DejaVuSans-49"/>
       <use x="159.033203" xlink:href="#DejaVuSans-53"/>
      </g>
     </g>
    </g>
   </g>
   <g id="matplotlib.axis_2">
    <g id="ytick_1">
     <g id="line2d_7">
      <defs>
       <path d="M 0 0 
L -3.5 0 
" id="mfb5404f2a7" style="stroke:#000000;stroke-width:0.8;"/>
      </defs>
      <g>
       <use style="stroke:#000000;stroke-width:0.8;" x="180" xlink:href="#mfb5404f2a7" y="1202.850227"/>
      </g>
     </g>
     <g id="text_7">
      <!-- −0.05 -->
      <g transform="translate(142.354688 1206.649446)scale(0.1 -0.1)">
       <use xlink:href="#DejaVuSans-8722"/>
       <use x="83.789062" xlink:href="#DejaVuSans-48"/>
       <use x="147.412109" xlink:href="#DejaVuSans-46"/>
       <use x="179.199219" xlink:href="#DejaVuSans-48"/>
       <use x="242.822266" xlink:href="#DejaVuSans-53"/>
      </g>
     </g>
    </g>
    <g id="ytick_2">
     <g id="line2d_8">
      <g>
       <use style="stroke:#000000;stroke-width:0.8;" x="180" xlink:href="#mfb5404f2a7" y="997.686137"/>
      </g>
     </g>
     <g id="text_8">
      <!-- 0.00 -->
      <g transform="translate(150.734375 1001.485355)scale(0.1 -0.1)">
       <use xlink:href="#DejaVuSans-48"/>
       <use x="63.623047" xlink:href="#DejaVuSans-46"/>
       <use x="95.410156" xlink:href="#DejaVuSans-48"/>
       <use x="159.033203" xlink:href="#DejaVuSans-48"/>
      </g>
     </g>
    </g>
    <g id="ytick_3">
     <g id="line2d_9">
      <g>
       <use style="stroke:#000000;stroke-width:0.8;" x="180" xlink:href="#mfb5404f2a7" y="792.522046"/>
      </g>
     </g>
     <g id="text_9">
      <!-- 0.05 -->
      <g transform="translate(150.734375 796.321265)scale(0.1 -0.1)">
       <use xlink:href="#DejaVuSans-48"/>
       <use x="63.623047" xlink:href="#DejaVuSans-46"/>
       <use x="95.410156" xlink:href="#DejaVuSans-48"/>
       <use x="159.033203" xlink:href="#DejaVuSans-53"/>
      </g>
     </g>
    </g>
    <g id="ytick_4">
     <g id="line2d_10">
      <g>
       <use style="stroke:#000000;stroke-width:0.8;" x="180" xlink:href="#mfb5404f2a7" y="587.357956"/>
      </g>
     </g>
     <g id="text_10">
      <!-- 0.10 -->
      <g transform="translate(150.734375 591.157174)scale(0.1 -0.1)">
       <use xlink:href="#DejaVuSans-48"/>
       <use x="63.623047" xlink:href="#DejaVuSans-46"/>
       <use x="95.410156" xlink:href="#DejaVuSans-49"/>
       <use x="159.033203" xlink:href="#DejaVuSans-48"/>
      </g>
     </g>
    </g>
    <g id="ytick_5">
     <g id="line2d_11">
      <g>
       <use style="stroke:#000000;stroke-width:0.8;" x="180" xlink:href="#mfb5404f2a7" y="382.193865"/>
      </g>
     </g>
     <g id="text_11">
      <!-- 0.15 -->
      <g transform="translate(150.734375 385.993084)scale(0.1 -0.1)">
       <use xlink:href="#DejaVuSans-48"/>
       <use x="63.623047" xlink:href="#DejaVuSans-46"/>
       <use x="95.410156" xlink:href="#DejaVuSans-49"/>
       <use x="159.033203" xlink:href="#DejaVuSans-53"/>
      </g>
     </g>
    </g>
    <g id="ytick_6">
     <g id="line2d_12">
      <g>
       <use style="stroke:#000000;stroke-width:0.8;" x="180" xlink:href="#mfb5404f2a7" y="177.029775"/>
      </g>
     </g>
     <g id="text_12">
      <!-- 0.20 -->
      <defs>
       <path d="M 19.1875 8.296875 
L 53.609375 8.296875 
L 53.609375 0 
L 7.328125 0 
L 7.328125 8.296875 
Q 12.9375 14.109375 22.625 23.890625 
Q 32.328125 33.6875 34.8125 36.53125 
Q 39.546875 41.84375 41.421875 45.53125 
Q 43.3125 49.21875 43.3125 52.78125 
Q 43.3125 58.59375 39.234375 62.25 
Q 35.15625 65.921875 28.609375 65.921875 
Q 23.96875 65.921875 18.8125 64.3125 
Q 13.671875 62.703125 7.8125 59.421875 
L 7.8125 69.390625 
Q 13.765625 71.78125 18.9375 73 
Q 24.125 74.21875 28.421875 74.21875 
Q 39.75 74.21875 46.484375 68.546875 
Q 53.21875 62.890625 53.21875 53.421875 
Q 53.21875 48.921875 51.53125 44.890625 
Q 49.859375 40.875 45.40625 35.40625 
Q 44.1875 33.984375 37.640625 27.21875 
Q 31.109375 20.453125 19.1875 8.296875 
z
" id="DejaVuSans-50"/>
      </defs>
      <g transform="translate(150.734375 180.828994)scale(0.1 -0.1)">
       <use xlink:href="#DejaVuSans-48"/>
       <use x="63.623047" xlink:href="#DejaVuSans-46"/>
       <use x="95.410156" xlink:href="#DejaVuSans-50"/>
       <use x="159.033203" xlink:href="#DejaVuSans-48"/>
      </g>
     </g>
    </g>
   </g>
   <g id="line2d_13">
    <defs>
     <path d="M 0 3 
C 0.795609 3 1.55874 2.683901 2.12132 2.12132 
C 2.683901 1.55874 3 0.795609 3 0 
C 3 -0.795609 2.683901 -1.55874 2.12132 -2.12132 
C 1.55874 -2.683901 0.795609 -3 0 -3 
C -0.795609 -3 -1.55874 -2.683901 -2.12132 -2.12132 
C -2.683901 -1.55874 -3 -0.795609 -3 0 
C -3 0.795609 -2.683901 1.55874 -2.12132 2.12132 
C -1.55874 2.683901 -0.795609 3 0 3 
z
" id="mcac2934fc7" style="stroke:#000000;"/>
    </defs>
    <g clip-path="url(#p5d899d828a)">
     <use style="stroke:#000000;" x="422.311424" xlink:href="#mcac2934fc7" y="336.942291"/>
    </g>
   </g>
   <g id="line2d_14">
    <defs>
     <path d="M 0 9 
C 2.386828 9 4.676219 8.051703 6.363961 6.363961 
C 8.051703 4.676219 9 2.386828 9 0 
C 9 -2.386828 8.051703 -4.676219 6.363961 -6.363961 
C 4.676219 -8.051703 2.386828 -9 0 -9 
C -2.386828 -9 -4.676219 -8.051703 -6.363961 -6.363961 
C -8.051703 -4.676219 -9 -2.386828 -9 0 
C -9 2.386828 -8.051703 4.676219 -6.363961 6.363961 
C -4.676219 8.051703 -2.386828 9 0 9 
z
" id="mcc26f4bb74" style="stroke:#000000;"/>
    </defs>
    <g clip-path="url(#p5d899d828a)">
     <use style="fill:#9e0142;stroke:#000000;" x="1242.359987" xlink:href="#mcc26f4bb74" y="948.459045"/>
    </g>
   </g>
   <g id="line2d_15">
    <defs>
     <path d="M 0 9 
C 2.386828 9 4.676219 8.051703 6.363961 6.363961 
C 8.051703 4.676219 9 2.386828 9 0 
C 9 -2.386828 8.051703 -4.676219 6.363961 -6.363961 
C 4.676219 -8.051703 2.386828 -9 0 -9 
C -2.386828 -9 -4.676219 -8.051703 -6.363961 -6.363961 
C -8.051703 -4.676219 -9 -2.386828 -9 0 
C -9 2.386828 -8.051703 4.676219 -6.363961 6.363961 
C -4.676219 8.051703 -2.386828 9 0 9 
z
" id="mba303686de" style="stroke:#000000;"/>
    </defs>
    <g clip-path="url(#p5d899d828a)">
     <use style="fill:#f46d43;stroke:#000000;" x="1024.691154" xlink:href="#mba303686de" y="511.190073"/>
    </g>
   </g>
   <g id="line2d_16">
    <defs>
     <path d="M 0 9 
C 2.386828 9 4.676219 8.051703 6.363961 6.363961 
C 8.051703 4.676219 9 2.386828 9 0 
C 9 -2.386828 8.051703 -4.676219 6.363961 -6.363961 
C 4.676219 -8.051703 2.386828 -9 0 -9 
C -2.386828 -9 -4.676219 -8.051703 -6.363961 -6.363961 
C -8.051703 -4.676219 -9 -2.386828 -9 0 
C -9 2.386828 -8.051703 4.676219 -6.363961 6.363961 
C -4.676219 8.051703 -2.386828 9 0 9 
z
" id="me014bc0237" style="stroke:#000000;"/>
    </defs>
    <g clip-path="url(#p5d899d828a)">
     <use style="fill:#fee08b;stroke:#000000;" x="230.727273" xlink:href="#me014bc0237" y="234.692588"/>
    </g>
   </g>
   <g id="line2d_17">
    <g clip-path="url(#p5d899d828a)">
     <use style="fill:#fee08b;stroke:#000000;" x="237.379459" xlink:href="#me014bc0237" y="223.2"/>
    </g>
   </g>
   <g id="line2d_18">
    <g clip-path="url(#p5d899d828a)">
     <use style="fill:#fee08b;stroke:#000000;" x="239.756242" xlink:href="#me014bc0237" y="227.263018"/>
    </g>
   </g>
   <g id="line2d_19">
    <g clip-path="url(#p5d899d828a)">
     <use style="fill:#fee08b;stroke:#000000;" x="235.349065" xlink:href="#me014bc0237" y="223.783591"/>
    </g>
   </g>
   <g id="line2d_20">
    <g clip-path="url(#p5d899d828a)">
     <use style="fill:#fee08b;stroke:#000000;" x="239.048556" xlink:href="#me014bc0237" y="224.660054"/>
    </g>
   </g>
   <g id="line2d_21">
    <g clip-path="url(#p5d899d828a)">
     <use style="fill:#fee08b;stroke:#000000;" x="235.54568" xlink:href="#me014bc0237" y="234.339249"/>
    </g>
   </g>
   <g id="line2d_22">
    <g clip-path="url(#p5d899d828a)">
     <use style="fill:#fee08b;stroke:#000000;" x="237.498671" xlink:href="#me014bc0237" y="227.169751"/>
    </g>
   </g>
   <g id="line2d_23">
    <g clip-path="url(#p5d899d828a)">
     <use style="fill:#fee08b;stroke:#000000;" x="237.44505" xlink:href="#me014bc0237" y="226.689646"/>
    </g>
   </g>
   <g id="line2d_24">
    <g clip-path="url(#p5d899d828a)">
     <use style="fill:#fee08b;stroke:#000000;" x="231.376718" xlink:href="#me014bc0237" y="224.207247"/>
    </g>
   </g>
   <g id="line2d_25">
    <g clip-path="url(#p5d899d828a)">
     <use style="fill:#fee08b;stroke:#000000;" x="239.740169" xlink:href="#me014bc0237" y="231.563042"/>
    </g>
   </g>
   <g id="line2d_26">
    <g clip-path="url(#p5d899d828a)">
     <use style="fill:#fee08b;stroke:#000000;" x="234.525236" xlink:href="#me014bc0237" y="224.489585"/>
    </g>
   </g>
   <g id="line2d_27">
    <defs>
     <path d="M 0 9 
C 2.386828 9 4.676219 8.051703 6.363961 6.363961 
C 8.051703 4.676219 9 2.386828 9 0 
C 9 -2.386828 8.051703 -4.676219 6.363961 -6.363961 
C 4.676219 -8.051703 2.386828 -9 0 -9 
C -2.386828 -9 -4.676219 -8.051703 -6.363961 -6.363961 
C -8.051703 -4.676219 -9 -2.386828 -9 0 
C -9 2.386828 -8.051703 4.676219 -6.363961 6.363961 
C -4.676219 8.051703 -2.386828 9 0 9 
z
" id="ma0ba82e197" style="stroke:#000000;"/>
    </defs>
    <g clip-path="url(#p5d899d828a)">
     <use style="fill:#e6f598;stroke:#000000;" x="1169.18979" xlink:href="#ma0ba82e197" y="597.09191"/>
    </g>
   </g>
   <g id="line2d_28">
    <g clip-path="url(#p5d899d828a)">
     <use style="stroke:#000000;" x="457.376159" xlink:href="#mcac2934fc7" y="705.237897"/>
    </g>
   </g>
   <g id="line2d_29">
    <g clip-path="url(#p5d899d828a)">
     <use style="fill:#e6f598;stroke:#000000;" x="1193.156887" xlink:href="#ma0ba82e197" y="597.890236"/>
    </g>
   </g>
   <g id="line2d_30">
    <g clip-path="url(#p5d899d828a)">
     <use style="fill:#e6f598;stroke:#000000;" x="1191.099626" xlink:href="#ma0ba82e197" y="599.514885"/>
    </g>
   </g>
   <g id="line2d_31">
    <g clip-path="url(#p5d899d828a)">
     <use style="fill:#e6f598;stroke:#000000;" x="1169.097108" xlink:href="#ma0ba82e197" y="594.513668"/>
    </g>
   </g>
   <g id="line2d_32">
    <g clip-path="url(#p5d899d828a)">
     <use style="stroke:#000000;" x="887.984063" xlink:href="#mcac2934fc7" y="544.523134"/>
    </g>
   </g>
   <g id="line2d_33">
    <g clip-path="url(#p5d899d828a)">
     <use style="stroke:#000000;" x="947.869186" xlink:href="#mcac2934fc7" y="1211.903588"/>
    </g>
   </g>
   <g id="line2d_34">
    <g clip-path="url(#p5d899d828a)">
     <use style="stroke:#000000;" x="716.305214" xlink:href="#mcac2934fc7" y="387.506105"/>
    </g>
   </g>
   <g id="line2d_35">
    <g clip-path="url(#p5d899d828a)">
     <use style="stroke:#000000;" x="949.78733" xlink:href="#mcac2934fc7" y="1209.846198"/>
    </g>
   </g>
   <g id="line2d_36">
    <g clip-path="url(#p5d899d828a)">
     <use style="stroke:#000000;" x="267.79764" xlink:href="#mcac2934fc7" y="349.492273"/>
    </g>
   </g>
   <g id="line2d_37">
    <defs>
     <path d="M 0 9 
C 2.386828 9 4.676219 8.051703 6.363961 6.363961 
C 8.051703 4.676219 9 2.386828 9 0 
C 9 -2.386828 8.051703 -4.676219 6.363961 -6.363961 
C 4.676219 -8.051703 2.386828 -9 0 -9 
C -2.386828 -9 -4.676219 -8.051703 -6.363961 -6.363961 
C -8.051703 -4.676219 -9 -2.386828 -9 0 
C -9 2.386828 -8.051703 4.676219 -6.363961 6.363961 
C -4.676219 8.051703 -2.386828 9 0 9 
z
" id="ma5b10ca130" style="stroke:#000000;"/>
    </defs>
    <g clip-path="url(#p5d899d828a)">
     <use style="fill:#66c2a5;stroke:#000000;" x="573.086925" xlink:href="#ma5b10ca130" y="357.99005"/>
    </g>
   </g>
   <g id="line2d_38">
    <g clip-path="url(#p5d899d828a)">
     <use style="fill:#e6f598;stroke:#000000;" x="1192.944319" xlink:href="#ma0ba82e197" y="598.321862"/>
    </g>
   </g>
   <g id="line2d_39">
    <g clip-path="url(#p5d899d828a)">
     <use style="fill:#e6f598;stroke:#000000;" x="1188.28541" xlink:href="#ma0ba82e197" y="604.565035"/>
    </g>
   </g>
   <g id="line2d_40">
    <g clip-path="url(#p5d899d828a)">
     <use style="fill:#f46d43;stroke:#000000;" x="1028.459312" xlink:href="#mba303686de" y="514.893016"/>
    </g>
   </g>
   <g id="line2d_41">
    <g clip-path="url(#p5d899d828a)">
     <use style="stroke:#000000;" x="944.985879" xlink:href="#mcac2934fc7" y="924.191049"/>
    </g>
   </g>
   <g id="line2d_42">
    <g clip-path="url(#p5d899d828a)">
     <use style="stroke:#000000;" x="1053.323683" xlink:href="#mcac2934fc7" y="1231.2"/>
    </g>
   </g>
   <g id="line2d_43">
    <g clip-path="url(#p5d899d828a)">
     <use style="fill:#9e0142;stroke:#000000;" x="1244.399977" xlink:href="#mcc26f4bb74" y="948.537293"/>
    </g>
   </g>
   <g id="line2d_44">
    <g clip-path="url(#p5d899d828a)">
     <use style="fill:#9e0142;stroke:#000000;" x="1237.849931" xlink:href="#mcc26f4bb74" y="948.149355"/>
    </g>
   </g>
   <g id="line2d_45">
    <g clip-path="url(#p5d899d828a)">
     <use style="stroke:#000000;" x="946.912268" xlink:href="#mcac2934fc7" y="924.209523"/>
    </g>
   </g>
   <g id="line2d_46">
    <g clip-path="url(#p5d899d828a)">
     <use style="fill:#e6f598;stroke:#000000;" x="1188.794906" xlink:href="#ma0ba82e197" y="602.548548"/>
    </g>
   </g>
   <g id="line2d_47">
    <g clip-path="url(#p5d899d828a)">
     <use style="stroke:#000000;" x="428.214083" xlink:href="#mcac2934fc7" y="899.623534"/>
    </g>
   </g>
   <g id="line2d_48">
    <g clip-path="url(#p5d899d828a)">
     <use style="fill:#e6f598;stroke:#000000;" x="1165.19081" xlink:href="#ma0ba82e197" y="597.094685"/>
    </g>
   </g>
   <g id="line2d_49">
    <g clip-path="url(#p5d899d828a)">
     <use style="fill:#e6f598;stroke:#000000;" x="1191.99075" xlink:href="#ma0ba82e197" y="597.778225"/>
    </g>
   </g>
   <g id="line2d_50">
    <g clip-path="url(#p5d899d828a)">
     <use style="fill:#9e0142;stroke:#000000;" x="1238.311239" xlink:href="#mcc26f4bb74" y="947.761569"/>
    </g>
   </g>
   <g id="line2d_51">
    <g clip-path="url(#p5d899d828a)">
     <use style="fill:#66c2a5;stroke:#000000;" x="573.165947" xlink:href="#ma5b10ca130" y="355.320405"/>
    </g>
   </g>
   <g id="line2d_52">
    <g clip-path="url(#p5d899d828a)">
     <use style="stroke:#000000;" x="457.240049" xlink:href="#mcac2934fc7" y="719.70174"/>
    </g>
   </g>
   <g id="line2d_53">
    <g clip-path="url(#p5d899d828a)">
     <use style="fill:#9e0142;stroke:#000000;" x="1242.934971" xlink:href="#mcc26f4bb74" y="947.799312"/>
    </g>
   </g>
   <g id="line2d_54">
    <g clip-path="url(#p5d899d828a)">
     <use style="fill:#e6f598;stroke:#000000;" x="1164.244914" xlink:href="#ma0ba82e197" y="595.827249"/>
    </g>
   </g>
   <g id="line2d_55">
    <g clip-path="url(#p5d899d828a)">
     <use style="stroke:#000000;" x="748.816557" xlink:href="#mcac2934fc7" y="423.514407"/>
    </g>
   </g>
   <g id="line2d_56">
    <g clip-path="url(#p5d899d828a)">
     <use style="fill:#e6f598;stroke:#000000;" x="1168.23199" xlink:href="#ma0ba82e197" y="601.072433"/>
    </g>
   </g>
   <g id="line2d_57">
    <g clip-path="url(#p5d899d828a)">
     <use style="fill:#9e0142;stroke:#000000;" x="1243.276096" xlink:href="#mcc26f4bb74" y="948.068261"/>
    </g>
   </g>
   <g id="line2d_58">
    <g clip-path="url(#p5d899d828a)">
     <use style="fill:#9e0142;stroke:#000000;" x="1238.332718" xlink:href="#mcc26f4bb74" y="947.836947"/>
    </g>
   </g>
   <g id="line2d_59">
    <g clip-path="url(#p5d899d828a)">
     <use style="fill:#e6f598;stroke:#000000;" x="1183.99467" xlink:href="#ma0ba82e197" y="599.264162"/>
    </g>
   </g>
   <g id="line2d_60">
    <g clip-path="url(#p5d899d828a)">
     <use style="fill:#9e0142;stroke:#000000;" x="1242.212181" xlink:href="#mcc26f4bb74" y="948.097617"/>
    </g>
   </g>
   <g id="line2d_61">
    <g clip-path="url(#p5d899d828a)">
     <use style="fill:#e6f598;stroke:#000000;" x="1165.103331" xlink:href="#ma0ba82e197" y="600.347681"/>
    </g>
   </g>
   <g id="line2d_62">
    <g clip-path="url(#p5d899d828a)">
     <use style="stroke:#000000;" x="716.140063" xlink:href="#mcac2934fc7" y="471.303778"/>
    </g>
   </g>
   <g id="line2d_63">
    <g clip-path="url(#p5d899d828a)">
     <use style="fill:#9e0142;stroke:#000000;" x="1236.36783" xlink:href="#mcc26f4bb74" y="948.40842"/>
    </g>
   </g>
   <g id="line2d_64">
    <g clip-path="url(#p5d899d828a)">
     <use style="fill:#e6f598;stroke:#000000;" x="1065.626267" xlink:href="#ma0ba82e197" y="554.044299"/>
    </g>
   </g>
   <g id="line2d_65">
    <g clip-path="url(#p5d899d828a)">
     <use style="stroke:#000000;" x="266.713189" xlink:href="#mcac2934fc7" y="349.661481"/>
    </g>
   </g>
   <g id="line2d_66">
    <g clip-path="url(#p5d899d828a)">
     <use style="fill:#e6f598;stroke:#000000;" x="1192.708604" xlink:href="#ma0ba82e197" y="600.452225"/>
    </g>
   </g>
   <g id="line2d_67">
    <g clip-path="url(#p5d899d828a)">
     <use style="fill:#f46d43;stroke:#000000;" x="1028.714249" xlink:href="#mba303686de" y="581.624587"/>
    </g>
   </g>
   <g id="line2d_68">
    <g clip-path="url(#p5d899d828a)">
     <use style="fill:#66c2a5;stroke:#000000;" x="588.135333" xlink:href="#ma5b10ca130" y="458.225436"/>
    </g>
   </g>
   <g id="line2d_69">
    <g clip-path="url(#p5d899d828a)">
     <use style="fill:#66c2a5;stroke:#000000;" x="589.330765" xlink:href="#ma5b10ca130" y="448.844274"/>
    </g>
   </g>
   <g id="line2d_70">
    <g clip-path="url(#p5d899d828a)">
     <use style="fill:#e6f598;stroke:#000000;" x="1163.767578" xlink:href="#ma0ba82e197" y="601.012737"/>
    </g>
   </g>
   <g id="line2d_71">
    <g clip-path="url(#p5d899d828a)">
     <use style="fill:#f46d43;stroke:#000000;" x="1023.438187" xlink:href="#mba303686de" y="513.752336"/>
    </g>
   </g>
   <g id="line2d_72">
    <g clip-path="url(#p5d899d828a)">
     <use style="fill:#e6f598;stroke:#000000;" x="1183.871718" xlink:href="#ma0ba82e197" y="602.00083"/>
    </g>
   </g>
   <g id="line2d_73">
    <g clip-path="url(#p5d899d828a)">
     <use style="fill:#fee08b;stroke:#000000;" x="231.111154" xlink:href="#me014bc0237" y="233.637489"/>
    </g>
   </g>
   <g id="line2d_74">
    <g clip-path="url(#p5d899d828a)">
     <use style="fill:#9e0142;stroke:#000000;" x="1235.773792" xlink:href="#mcc26f4bb74" y="947.759506"/>
    </g>
   </g>
   <g id="line2d_75">
    <g clip-path="url(#p5d899d828a)">
     <use style="fill:#f46d43;stroke:#000000;" x="1029.430366" xlink:href="#mba303686de" y="517.824529"/>
    </g>
   </g>
   <g id="line2d_76">
    <g clip-path="url(#p5d899d828a)">
     <use style="stroke:#000000;" x="474.74235" xlink:href="#mcac2934fc7" y="753.460571"/>
    </g>
   </g>
   <g id="line2d_77">
    <g clip-path="url(#p5d899d828a)">
     <use style="stroke:#000000;" x="944.650583" xlink:href="#mcac2934fc7" y="923.186083"/>
    </g>
   </g>
   <g id="line2d_78">
    <g clip-path="url(#p5d899d828a)">
     <use style="fill:#66c2a5;stroke:#000000;" x="588.587713" xlink:href="#ma5b10ca130" y="368.374738"/>
    </g>
   </g>
   <g id="line2d_79">
    <g clip-path="url(#p5d899d828a)">
     <use style="fill:#9e0142;stroke:#000000;" x="1228.95984" xlink:href="#mcc26f4bb74" y="933.365278"/>
    </g>
   </g>
   <g id="line2d_80">
    <g clip-path="url(#p5d899d828a)">
     <use style="fill:#9e0142;stroke:#000000;" x="1224.581416" xlink:href="#mcc26f4bb74" y="933.014105"/>
    </g>
   </g>
   <g id="line2d_81">
    <g clip-path="url(#p5d899d828a)">
     <use style="fill:#9e0142;stroke:#000000;" x="1243.839686" xlink:href="#mcc26f4bb74" y="947.728778"/>
    </g>
   </g>
   <g id="line2d_82">
    <g clip-path="url(#p5d899d828a)">
     <use style="fill:#e6f598;stroke:#000000;" x="1184.005405" xlink:href="#ma0ba82e197" y="603.194118"/>
    </g>
   </g>
   <g id="line2d_83">
    <g clip-path="url(#p5d899d828a)">
     <use style="stroke:#000000;" x="947.094243" xlink:href="#mcac2934fc7" y="934.060031"/>
    </g>
   </g>
   <g id="line2d_84">
    <g clip-path="url(#p5d899d828a)">
     <use style="fill:#e6f598;stroke:#000000;" x="1164.627925" xlink:href="#ma0ba82e197" y="598.658705"/>
    </g>
   </g>
   <g id="line2d_85">
    <g clip-path="url(#p5d899d828a)">
     <use style="fill:#e6f598;stroke:#000000;" x="1168.7772" xlink:href="#ma0ba82e197" y="596.499223"/>
    </g>
   </g>
   <g id="line2d_86">
    <g clip-path="url(#p5d899d828a)">
     <use style="fill:#e6f598;stroke:#000000;" x="1162.981172" xlink:href="#ma0ba82e197" y="599.082324"/>
    </g>
   </g>
   <g id="line2d_87">
    <g clip-path="url(#p5d899d828a)">
     <use style="fill:#f46d43;stroke:#000000;" x="1024.692894" xlink:href="#mba303686de" y="519.194747"/>
    </g>
   </g>
   <g id="line2d_88">
    <g clip-path="url(#p5d899d828a)">
     <use style="fill:#e6f598;stroke:#000000;" x="1189.362124" xlink:href="#ma0ba82e197" y="684.424747"/>
    </g>
   </g>
   <g id="line2d_89">
    <g clip-path="url(#p5d899d828a)">
     <use style="fill:#9e0142;stroke:#000000;" x="1239.831768" xlink:href="#mcc26f4bb74" y="947.77997"/>
    </g>
   </g>
   <g id="line2d_90">
    <g clip-path="url(#p5d899d828a)">
     <use style="fill:#f46d43;stroke:#000000;" x="1025.012574" xlink:href="#mba303686de" y="512.856973"/>
    </g>
   </g>
   <g id="line2d_91">
    <g clip-path="url(#p5d899d828a)">
     <use style="fill:#9e0142;stroke:#000000;" x="1245.272727" xlink:href="#mcc26f4bb74" y="948.358429"/>
    </g>
   </g>
   <g id="patch_3">
    <path d="M 180 1281.6 
L 180 172.8 
" style="fill:none;stroke:#000000;stroke-linecap:square;stroke-linejoin:miter;stroke-width:0.8;"/>
   </g>
   <g id="patch_4">
    <path d="M 1296 1281.6 
L 1296 172.8 
" style="fill:none;stroke:#000000;stroke-linecap:square;stroke-linejoin:miter;stroke-width:0.8;"/>
   </g>
   <g id="patch_5">
    <path d="M 180 1281.6 
L 1296 1281.6 
" style="fill:none;stroke:#000000;stroke-linecap:square;stroke-linejoin:miter;stroke-width:0.8;"/>
   </g>
   <g id="patch_6">
    <path d="M 180 172.8 
L 1296 172.8 
" style="fill:none;stroke:#000000;stroke-linecap:square;stroke-linejoin:miter;stroke-width:0.8;"/>
   </g>
  </g>
 </g>
 <defs>
  <clipPath id="p5d899d828a">
   <rect height="1108.8" width="1116" x="180" y="172.8"/>
  </clipPath>
 </defs>
</svg>
