<?xml version="1.0" encoding="utf-8" standalone="no"?>
<!DOCTYPE svg PUBLIC "-//W3C//DTD SVG 1.1//EN"
  "http://www.w3.org/Graphics/SVG/1.1/DTD/svg11.dtd">
<!-- Created with matplotlib (https://matplotlib.org/) -->
<svg height="1440pt" version="1.1" viewBox="0 0 1440 1440" width="1440pt" xmlns="http://www.w3.org/2000/svg" xmlns:xlink="http://www.w3.org/1999/xlink">
 <defs>
  <style type="text/css">
*{stroke-linecap:butt;stroke-linejoin:round;}
  </style>
 </defs>
 <g id="figure_1">
  <g id="patch_1">
   <path d="M 0 1440 
L 1440 1440 
L 1440 0 
L 0 0 
z
" style="fill:#ffffff;"/>
  </g>
  <g id="axes_1">
   <g id="patch_2">
    <path d="M 180 1281.6 
L 1296 1281.6 
L 1296 172.8 
L 180 172.8 
z
" style="fill:#ffffff;"/>
   </g>
   <g id="matplotlib.axis_1">
    <g id="xtick_1">
     <g id="line2d_1">
      <defs>
       <path d="M 0 0 
L 0 3.5 
" id="mb32671228e" style="stroke:#000000;stroke-width:0.8;"/>
      </defs>
      <g>
       <use style="stroke:#000000;stroke-width:0.8;" x="263.767829" xlink:href="#mb32671228e" y="1281.6"/>
      </g>
     </g>
     <g id="text_1">
      <!-- −0.10 -->
      <defs>
       <path d="M 10.59375 35.5 
L 73.1875 35.5 
L 73.1875 27.203125 
L 10.59375 27.203125 
z
" id="DejaVuSans-8722"/>
       <path d="M 31.78125 66.40625 
Q 24.171875 66.40625 20.328125 58.90625 
Q 16.5 51.421875 16.5 36.375 
Q 16.5 21.390625 20.328125 13.890625 
Q 24.171875 6.390625 31.78125 6.390625 
Q 39.453125 6.390625 43.28125 13.890625 
Q 47.125 21.390625 47.125 36.375 
Q 47.125 51.421875 43.28125 58.90625 
Q 39.453125 66.40625 31.78125 66.40625 
z
M 31.78125 74.21875 
Q 44.046875 74.21875 50.515625 64.515625 
Q 56.984375 54.828125 56.984375 36.375 
Q 56.984375 17.96875 50.515625 8.265625 
Q 44.046875 -1.421875 31.78125 -1.421875 
Q 19.53125 -1.421875 13.0625 8.265625 
Q 6.59375 17.96875 6.59375 36.375 
Q 6.59375 54.828125 13.0625 64.515625 
Q 19.53125 74.21875 31.78125 74.21875 
z
" id="DejaVuSans-48"/>
       <path d="M 10.6875 12.40625 
L 21 12.40625 
L 21 0 
L 10.6875 0 
z
" id="DejaVuSans-46"/>
       <path d="M 12.40625 8.296875 
L 28.515625 8.296875 
L 28.515625 63.921875 
L 10.984375 60.40625 
L 10.984375 69.390625 
L 28.421875 72.90625 
L 38.28125 72.90625 
L 38.28125 8.296875 
L 54.390625 8.296875 
L 54.390625 0 
L 12.40625 0 
z
" id="DejaVuSans-49"/>
      </defs>
      <g transform="translate(248.445173 1296.198437)scale(0.1 -0.1)">
       <use xlink:href="#DejaVuSans-8722"/>
       <use x="83.789062" xlink:href="#DejaVuSans-48"/>
       <use x="147.412109" xlink:href="#DejaVuSans-46"/>
       <use x="179.199219" xlink:href="#DejaVuSans-49"/>
       <use x="242.822266" xlink:href="#DejaVuSans-48"/>
      </g>
     </g>
    </g>
    <g id="xtick_2">
     <g id="line2d_2">
      <g>
       <use style="stroke:#000000;stroke-width:0.8;" x="461.147663" xlink:href="#mb32671228e" y="1281.6"/>
      </g>
     </g>
     <g id="text_2">
      <!-- −0.05 -->
      <defs>
       <path d="M 10.796875 72.90625 
L 49.515625 72.90625 
L 49.515625 64.59375 
L 19.828125 64.59375 
L 19.828125 46.734375 
Q 21.96875 47.46875 24.109375 47.828125 
Q 26.265625 48.1875 28.421875 48.1875 
Q 40.625 48.1875 47.75 41.5 
Q 54.890625 34.8125 54.890625 23.390625 
Q 54.890625 11.625 47.5625 5.09375 
Q 40.234375 -1.421875 26.90625 -1.421875 
Q 22.3125 -1.421875 17.546875 -0.640625 
Q 12.796875 0.140625 7.71875 1.703125 
L 7.71875 11.625 
Q 12.109375 9.234375 16.796875 8.0625 
Q 21.484375 6.890625 26.703125 6.890625 
Q 35.15625 6.890625 40.078125 11.328125 
Q 45.015625 15.765625 45.015625 23.390625 
Q 45.015625 31 40.078125 35.4375 
Q 35.15625 39.890625 26.703125 39.890625 
Q 22.75 39.890625 18.8125 39.015625 
Q 14.890625 38.140625 10.796875 36.28125 
z
" id="DejaVuSans-53"/>
      </defs>
      <g transform="translate(445.825007 1296.198437)scale(0.1 -0.1)">
       <use xlink:href="#DejaVuSans-8722"/>
       <use x="83.789062" xlink:href="#DejaVuSans-48"/>
       <use x="147.412109" xlink:href="#DejaVuSans-46"/>
       <use x="179.199219" xlink:href="#DejaVuSans-48"/>
       <use x="242.822266" xlink:href="#DejaVuSans-53"/>
      </g>
     </g>
    </g>
    <g id="xtick_3">
     <g id="line2d_3">
      <g>
       <use style="stroke:#000000;stroke-width:0.8;" x="658.527497" xlink:href="#mb32671228e" y="1281.6"/>
      </g>
     </g>
     <g id="text_3">
      <!-- 0.00 -->
      <g transform="translate(647.394685 1296.198437)scale(0.1 -0.1)">
       <use xlink:href="#DejaVuSans-48"/>
       <use x="63.623047" xlink:href="#DejaVuSans-46"/>
       <use x="95.410156" xlink:href="#DejaVuSans-48"/>
       <use x="159.033203" xlink:href="#DejaVuSans-48"/>
      </g>
     </g>
    </g>
    <g id="xtick_4">
     <g id="line2d_4">
      <g>
       <use style="stroke:#000000;stroke-width:0.8;" x="855.907331" xlink:href="#mb32671228e" y="1281.6"/>
      </g>
     </g>
     <g id="text_4">
      <!-- 0.05 -->
      <g transform="translate(844.774519 1296.198437)scale(0.1 -0.1)">
       <use xlink:href="#DejaVuSans-48"/>
       <use x="63.623047" xlink:href="#DejaVuSans-46"/>
       <use x="95.410156" xlink:href="#DejaVuSans-48"/>
       <use x="159.033203" xlink:href="#DejaVuSans-53"/>
      </g>
     </g>
    </g>
    <g id="xtick_5">
     <g id="line2d_5">
      <g>
       <use style="stroke:#000000;stroke-width:0.8;" x="1053.287166" xlink:href="#mb32671228e" y="1281.6"/>
      </g>
     </g>
     <g id="text_5">
      <!-- 0.10 -->
      <g transform="translate(1042.154353 1296.198437)scale(0.1 -0.1)">
       <use xlink:href="#DejaVuSans-48"/>
       <use x="63.623047" xlink:href="#DejaVuSans-46"/>
       <use x="95.410156" xlink:href="#DejaVuSans-49"/>
       <use x="159.033203" xlink:href="#DejaVuSans-48"/>
      </g>
     </g>
    </g>
    <g id="xtick_6">
     <g id="line2d_6">
      <g>
       <use style="stroke:#000000;stroke-width:0.8;" x="1250.667" xlink:href="#mb32671228e" y="1281.6"/>
      </g>
     </g>
     <g id="text_6">
      <!-- 0.15 -->
      <g transform="translate(1239.534187 1296.198437)scale(0.1 -0.1)">
       <use xlink:href="#DejaVuSans-48"/>
       <use x="63.623047" xlink:href="#DejaVuSans-46"/>
       <use x="95.410156" xlink:href="#DejaVuSans-49"/>
       <use x="159.033203" xlink:href="#DejaVuSans-53"/>
      </g>
     </g>
    </g>
   </g>
   <g id="matplotlib.axis_2">
    <g id="ytick_1">
     <g id="line2d_7">
      <defs>
       <path d="M 0 0 
L -3.5 0 
" id="m9236e464c8" style="stroke:#000000;stroke-width:0.8;"/>
      </defs>
      <g>
       <use style="stroke:#000000;stroke-width:0.8;" x="180" xlink:href="#m9236e464c8" y="1103.696164"/>
      </g>
     </g>
     <g id="text_7">
      <!-- −0.4 -->
      <defs>
       <path d="M 37.796875 64.3125 
L 12.890625 25.390625 
L 37.796875 25.390625 
z
M 35.203125 72.90625 
L 47.609375 72.90625 
L 47.609375 25.390625 
L 58.015625 25.390625 
L 58.015625 17.1875 
L 47.609375 17.1875 
L 47.609375 0 
L 37.796875 0 
L 37.796875 17.1875 
L 4.890625 17.1875 
L 4.890625 26.703125 
z
" id="DejaVuSans-52"/>
      </defs>
      <g transform="translate(148.717187 1107.495382)scale(0.1 -0.1)">
       <use xlink:href="#DejaVuSans-8722"/>
       <use x="83.789062" xlink:href="#DejaVuSans-48"/>
       <use x="147.412109" xlink:href="#DejaVuSans-46"/>
       <use x="179.199219" xlink:href="#DejaVuSans-52"/>
      </g>
     </g>
    </g>
    <g id="ytick_2">
     <g id="line2d_8">
      <g>
       <use style="stroke:#000000;stroke-width:0.8;" x="180" xlink:href="#m9236e464c8" y="881.167805"/>
      </g>
     </g>
     <g id="text_8">
      <!-- −0.2 -->
      <defs>
       <path d="M 19.1875 8.296875 
L 53.609375 8.296875 
L 53.609375 0 
L 7.328125 0 
L 7.328125 8.296875 
Q 12.9375 14.109375 22.625 23.890625 
Q 32.328125 33.6875 34.8125 36.53125 
Q 39.546875 41.84375 41.421875 45.53125 
Q 43.3125 49.21875 43.3125 52.78125 
Q 43.3125 58.59375 39.234375 62.25 
Q 35.15625 65.921875 28.609375 65.921875 
Q 23.96875 65.921875 18.8125 64.3125 
Q 13.671875 62.703125 7.8125 59.421875 
L 7.8125 69.390625 
Q 13.765625 71.78125 18.9375 73 
Q 24.125 74.21875 28.421875 74.21875 
Q 39.75 74.21875 46.484375 68.546875 
Q 53.21875 62.890625 53.21875 53.421875 
Q 53.21875 48.921875 51.53125 44.890625 
Q 49.859375 40.875 45.40625 35.40625 
Q 44.1875 33.984375 37.640625 27.21875 
Q 31.109375 20.453125 19.1875 8.296875 
z
" id="DejaVuSans-50"/>
      </defs>
      <g transform="translate(148.717187 884.967024)scale(0.1 -0.1)">
       <use xlink:href="#DejaVuSans-8722"/>
       <use x="83.789062" xlink:href="#DejaVuSans-48"/>
       <use x="147.412109" xlink:href="#DejaVuSans-46"/>
       <use x="179.199219" xlink:href="#DejaVuSans-50"/>
      </g>
     </g>
    </g>
    <g id="ytick_3">
     <g id="line2d_9">
      <g>
       <use style="stroke:#000000;stroke-width:0.8;" x="180" xlink:href="#m9236e464c8" y="658.639446"/>
      </g>
     </g>
     <g id="text_9">
      <!-- 0.0 -->
      <g transform="translate(157.096875 662.438665)scale(0.1 -0.1)">
       <use xlink:href="#DejaVuSans-48"/>
       <use x="63.623047" xlink:href="#DejaVuSans-46"/>
       <use x="95.410156" xlink:href="#DejaVuSans-48"/>
      </g>
     </g>
    </g>
    <g id="ytick_4">
     <g id="line2d_10">
      <g>
       <use style="stroke:#000000;stroke-width:0.8;" x="180" xlink:href="#m9236e464c8" y="436.111088"/>
      </g>
     </g>
     <g id="text_10">
      <!-- 0.2 -->
      <g transform="translate(157.096875 439.910307)scale(0.1 -0.1)">
       <use xlink:href="#DejaVuSans-48"/>
       <use x="63.623047" xlink:href="#DejaVuSans-46"/>
       <use x="95.410156" xlink:href="#DejaVuSans-50"/>
      </g>
     </g>
    </g>
    <g id="ytick_5">
     <g id="line2d_11">
      <g>
       <use style="stroke:#000000;stroke-width:0.8;" x="180" xlink:href="#m9236e464c8" y="213.582729"/>
      </g>
     </g>
     <g id="text_11">
      <!-- 0.4 -->
      <g transform="translate(157.096875 217.381948)scale(0.1 -0.1)">
       <use xlink:href="#DejaVuSans-48"/>
       <use x="63.623047" xlink:href="#DejaVuSans-46"/>
       <use x="95.410156" xlink:href="#DejaVuSans-52"/>
      </g>
     </g>
    </g>
   </g>
   <g id="line2d_12">
    <defs>
     <path d="M 0 9 
C 2.386828 9 4.676219 8.051703 6.363961 6.363961 
C 8.051703 4.676219 9 2.386828 9 0 
C 9 -2.386828 8.051703 -4.676219 6.363961 -6.363961 
C 4.676219 -8.051703 2.386828 -9 0 -9 
C -2.386828 -9 -4.676219 -8.051703 -6.363961 -6.363961 
C -8.051703 -4.676219 -9 -2.386828 -9 0 
C -9 2.386828 -8.051703 4.676219 -6.363961 6.363961 
C -4.676219 8.051703 -2.386828 9 0 9 
z
" id="m6838849f00" style="stroke:#000000;"/>
    </defs>
    <g clip-path="url(#p839170933b)">
     <use style="fill:#9e0142;stroke:#000000;" x="1235.394985" xlink:href="#m6838849f00" y="629.89052"/>
    </g>
   </g>
   <g id="line2d_13">
    <g clip-path="url(#p839170933b)">
     <use style="fill:#9e0142;stroke:#000000;" x="1241.309616" xlink:href="#m6838849f00" y="629.928612"/>
    </g>
   </g>
   <g id="line2d_14">
    <g clip-path="url(#p839170933b)">
     <use style="fill:#9e0142;stroke:#000000;" x="1243.632569" xlink:href="#m6838849f00" y="629.792789"/>
    </g>
   </g>
   <g id="line2d_15">
    <g clip-path="url(#p839170933b)">
     <use style="fill:#9e0142;stroke:#000000;" x="1241.097842" xlink:href="#m6838849f00" y="629.804271"/>
    </g>
   </g>
   <g id="line2d_16">
    <g clip-path="url(#p839170933b)">
     <use style="fill:#9e0142;stroke:#000000;" x="1237.136202" xlink:href="#m6838849f00" y="630.15771"/>
    </g>
   </g>
   <g id="line2d_17">
    <g clip-path="url(#p839170933b)">
     <use style="fill:#9e0142;stroke:#000000;" x="1234.816372" xlink:href="#m6838849f00" y="629.889801"/>
    </g>
   </g>
   <g id="line2d_18">
    <g clip-path="url(#p839170933b)">
     <use style="fill:#9e0142;stroke:#000000;" x="1243.398335" xlink:href="#m6838849f00" y="630.166744"/>
    </g>
   </g>
   <g id="line2d_19">
    <defs>
     <path d="M 0 3 
C 0.795609 3 1.55874 2.683901 2.12132 2.12132 
C 2.683901 1.55874 3 0.795609 3 0 
C 3 -0.795609 2.683901 -1.55874 2.12132 -2.12132 
C 1.55874 -2.683901 0.795609 -3 0 -3 
C -0.795609 -3 -1.55874 -2.683901 -2.12132 -2.12132 
C -2.683901 -1.55874 -3 -0.795609 -3 0 
C -3 0.795609 -2.683901 1.55874 -2.12132 2.12132 
C -1.55874 2.683901 -0.795609 3 0 3 
z
" id="m7645957941" style="stroke:#000000;"/>
    </defs>
    <g clip-path="url(#p839170933b)">
     <use style="stroke:#000000;" x="1060.998918" xlink:href="#m7645957941" y="1222.503568"/>
    </g>
   </g>
   <g id="line2d_20">
    <g clip-path="url(#p839170933b)">
     <use style="fill:#9e0142;stroke:#000000;" x="1234.623685" xlink:href="#m6838849f00" y="630.009162"/>
    </g>
   </g>
   <g id="line2d_21">
    <g clip-path="url(#p839170933b)">
     <use style="fill:#9e0142;stroke:#000000;" x="1234.366503" xlink:href="#m6838849f00" y="629.856152"/>
    </g>
   </g>
   <g id="line2d_22">
    <g clip-path="url(#p839170933b)">
     <use style="fill:#9e0142;stroke:#000000;" x="1237.046434" xlink:href="#m6838849f00" y="629.786615"/>
    </g>
   </g>
   <g id="line2d_23">
    <g clip-path="url(#p839170933b)">
     <use style="fill:#9e0142;stroke:#000000;" x="1238.167811" xlink:href="#m6838849f00" y="630.218901"/>
    </g>
   </g>
   <g id="line2d_24">
    <g clip-path="url(#p839170933b)">
     <use style="fill:#9e0142;stroke:#000000;" x="1241.868712" xlink:href="#m6838849f00" y="630.291232"/>
    </g>
   </g>
   <g id="line2d_25">
    <g clip-path="url(#p839170933b)">
     <use style="fill:#9e0142;stroke:#000000;" x="1244.800708" xlink:href="#m6838849f00" y="629.796209"/>
    </g>
   </g>
   <g id="line2d_26">
    <g clip-path="url(#p839170933b)">
     <use style="stroke:#000000;" x="230.727273" xlink:href="#m7645957941" y="223.2"/>
    </g>
   </g>
   <g id="line2d_27">
    <g clip-path="url(#p839170933b)">
     <use style="fill:#9e0142;stroke:#000000;" x="1236.246163" xlink:href="#m6838849f00" y="630.255"/>
    </g>
   </g>
   <g id="line2d_28">
    <g clip-path="url(#p839170933b)">
     <use style="fill:#9e0142;stroke:#000000;" x="1235.729434" xlink:href="#m6838849f00" y="630.264186"/>
    </g>
   </g>
   <g id="line2d_29">
    <g clip-path="url(#p839170933b)">
     <use style="fill:#9e0142;stroke:#000000;" x="1244.632713" xlink:href="#m6838849f00" y="630.249172"/>
    </g>
   </g>
   <g id="line2d_30">
    <g clip-path="url(#p839170933b)">
     <use style="fill:#9e0142;stroke:#000000;" x="1243.26698" xlink:href="#m6838849f00" y="630.266626"/>
    </g>
   </g>
   <g id="line2d_31">
    <g clip-path="url(#p839170933b)">
     <use style="fill:#9e0142;stroke:#000000;" x="1245.272727" xlink:href="#m6838849f00" y="630.243768"/>
    </g>
   </g>
   <g id="line2d_32">
    <g clip-path="url(#p839170933b)">
     <use style="stroke:#000000;" x="1064.393366" xlink:href="#m7645957941" y="1227.917202"/>
    </g>
   </g>
   <g id="line2d_33">
    <g clip-path="url(#p839170933b)">
     <use style="fill:#9e0142;stroke:#000000;" x="1236.315716" xlink:href="#m6838849f00" y="630.043297"/>
    </g>
   </g>
   <g id="line2d_34">
    <g clip-path="url(#p839170933b)">
     <use style="fill:#9e0142;stroke:#000000;" x="1241.238267" xlink:href="#m6838849f00" y="630.305976"/>
    </g>
   </g>
   <g id="line2d_35">
    <g clip-path="url(#p839170933b)">
     <use style="fill:#9e0142;stroke:#000000;" x="1243.291451" xlink:href="#m6838849f00" y="630.288134"/>
    </g>
   </g>
   <g id="line2d_36">
    <g clip-path="url(#p839170933b)">
     <use style="fill:#9e0142;stroke:#000000;" x="1235.121675" xlink:href="#m6838849f00" y="629.931951"/>
    </g>
   </g>
   <g id="line2d_37">
    <g clip-path="url(#p839170933b)">
     <use style="fill:#9e0142;stroke:#000000;" x="1237.342412" xlink:href="#m6838849f00" y="630.072202"/>
    </g>
   </g>
   <g id="line2d_38">
    <g clip-path="url(#p839170933b)">
     <use style="fill:#9e0142;stroke:#000000;" x="1234.806366" xlink:href="#m6838849f00" y="630.023007"/>
    </g>
   </g>
   <g id="line2d_39">
    <g clip-path="url(#p839170933b)">
     <use style="fill:#9e0142;stroke:#000000;" x="1241.209854" xlink:href="#m6838849f00" y="630.127706"/>
    </g>
   </g>
   <g id="line2d_40">
    <g clip-path="url(#p839170933b)">
     <use style="fill:#9e0142;stroke:#000000;" x="1244.064338" xlink:href="#m6838849f00" y="630.214362"/>
    </g>
   </g>
   <g id="line2d_41">
    <g clip-path="url(#p839170933b)">
     <use style="fill:#9e0142;stroke:#000000;" x="1243.317166" xlink:href="#m6838849f00" y="630.058288"/>
    </g>
   </g>
   <g id="line2d_42">
    <g clip-path="url(#p839170933b)">
     <use style="fill:#9e0142;stroke:#000000;" x="1235.213786" xlink:href="#m6838849f00" y="630.064587"/>
    </g>
   </g>
   <g id="line2d_43">
    <g clip-path="url(#p839170933b)">
     <use style="fill:#9e0142;stroke:#000000;" x="1240.814748" xlink:href="#m6838849f00" y="630.161235"/>
    </g>
   </g>
   <g id="line2d_44">
    <g clip-path="url(#p839170933b)">
     <use style="fill:#9e0142;stroke:#000000;" x="1241.955648" xlink:href="#m6838849f00" y="630.293368"/>
    </g>
   </g>
   <g id="line2d_45">
    <g clip-path="url(#p839170933b)">
     <use style="fill:#9e0142;stroke:#000000;" x="1236.866695" xlink:href="#m6838849f00" y="630.055482"/>
    </g>
   </g>
   <g id="line2d_46">
    <g clip-path="url(#p839170933b)">
     <use style="fill:#9e0142;stroke:#000000;" x="1236.728258" xlink:href="#m6838849f00" y="630.043831"/>
    </g>
   </g>
   <g id="line2d_47">
    <g clip-path="url(#p839170933b)">
     <use style="fill:#9e0142;stroke:#000000;" x="1243.693499" xlink:href="#m6838849f00" y="630.179015"/>
    </g>
   </g>
   <g id="line2d_48">
    <g clip-path="url(#p839170933b)">
     <use style="fill:#9e0142;stroke:#000000;" x="1236.415356" xlink:href="#m6838849f00" y="629.842287"/>
    </g>
   </g>
   <g id="line2d_49">
    <g clip-path="url(#p839170933b)">
     <use style="fill:#9e0142;stroke:#000000;" x="1238.91021" xlink:href="#m6838849f00" y="629.796829"/>
    </g>
   </g>
   <g id="line2d_50">
    <g clip-path="url(#p839170933b)">
     <use style="fill:#9e0142;stroke:#000000;" x="1240.556287" xlink:href="#m6838849f00" y="630.193572"/>
    </g>
   </g>
   <g id="line2d_51">
    <g clip-path="url(#p839170933b)">
     <use style="fill:#9e0142;stroke:#000000;" x="1239.145548" xlink:href="#m6838849f00" y="630.258036"/>
    </g>
   </g>
   <g id="line2d_52">
    <g clip-path="url(#p839170933b)">
     <use style="stroke:#000000;" x="1151.221137" xlink:href="#m7645957941" y="538.120094"/>
    </g>
   </g>
   <g id="line2d_53">
    <g clip-path="url(#p839170933b)">
     <use style="stroke:#000000;" x="1147.812129" xlink:href="#m7645957941" y="539.635447"/>
    </g>
   </g>
   <g id="line2d_54">
    <g clip-path="url(#p839170933b)">
     <use style="stroke:#000000;" x="1148.460901" xlink:href="#m7645957941" y="539.175884"/>
    </g>
   </g>
   <g id="line2d_55">
    <g clip-path="url(#p839170933b)">
     <use style="fill:#9e0142;stroke:#000000;" x="1235.081384" xlink:href="#m6838849f00" y="630.172111"/>
    </g>
   </g>
   <g id="line2d_56">
    <g clip-path="url(#p839170933b)">
     <use style="fill:#9e0142;stroke:#000000;" x="1238.600133" xlink:href="#m6838849f00" y="629.756532"/>
    </g>
   </g>
   <g id="line2d_57">
    <g clip-path="url(#p839170933b)">
     <use style="stroke:#000000;" x="1061.338154" xlink:href="#m7645957941" y="1231.2"/>
    </g>
   </g>
   <g id="line2d_58">
    <g clip-path="url(#p839170933b)">
     <use style="fill:#9e0142;stroke:#000000;" x="1239.727028" xlink:href="#m6838849f00" y="630.11712"/>
    </g>
   </g>
   <g id="line2d_59">
    <g clip-path="url(#p839170933b)">
     <use style="fill:#9e0142;stroke:#000000;" x="1244.368688" xlink:href="#m6838849f00" y="630.248637"/>
    </g>
   </g>
   <g id="line2d_60">
    <g clip-path="url(#p839170933b)">
     <use style="fill:#9e0142;stroke:#000000;" x="1236.214192" xlink:href="#m6838849f00" y="630.12171"/>
    </g>
   </g>
   <g id="patch_3">
    <path d="M 180 1281.6 
L 180 172.8 
" style="fill:none;stroke:#000000;stroke-linecap:square;stroke-linejoin:miter;stroke-width:0.8;"/>
   </g>
   <g id="patch_4">
    <path d="M 1296 1281.6 
L 1296 172.8 
" style="fill:none;stroke:#000000;stroke-linecap:square;stroke-linejoin:miter;stroke-width:0.8;"/>
   </g>
   <g id="patch_5">
    <path d="M 180 1281.6 
L 1296 1281.6 
" style="fill:none;stroke:#000000;stroke-linecap:square;stroke-linejoin:miter;stroke-width:0.8;"/>
   </g>
   <g id="patch_6">
    <path d="M 180 172.8 
L 1296 172.8 
" style="fill:none;stroke:#000000;stroke-linecap:square;stroke-linejoin:miter;stroke-width:0.8;"/>
   </g>
  </g>
 </g>
 <defs>
  <clipPath id="p839170933b">
   <rect height="1108.8" width="1116" x="180" y="172.8"/>
  </clipPath>
 </defs>
</svg>
