<?xml version="1.0" encoding="utf-8" standalone="no"?>
<!DOCTYPE svg PUBLIC "-//W3C//DTD SVG 1.1//EN"
  "http://www.w3.org/Graphics/SVG/1.1/DTD/svg11.dtd">
<!-- Created with matplotlib (https://matplotlib.org/) -->
<svg height="1440pt" version="1.1" viewBox="0 0 1440 1440" width="1440pt" xmlns="http://www.w3.org/2000/svg" xmlns:xlink="http://www.w3.org/1999/xlink">
 <defs>
  <style type="text/css">
*{stroke-linecap:butt;stroke-linejoin:round;}
  </style>
 </defs>
 <g id="figure_1">
  <g id="patch_1">
   <path d="M 0 1440 
L 1440 1440 
L 1440 0 
L 0 0 
z
" style="fill:#ffffff;"/>
  </g>
  <g id="axes_1">
   <g id="patch_2">
    <path d="M 180 1281.6 
L 1296 1281.6 
L 1296 172.8 
L 180 172.8 
z
" style="fill:#ffffff;"/>
   </g>
   <g id="matplotlib.axis_1">
    <g id="xtick_1">
     <g id="line2d_1">
      <defs>
       <path d="M 0 0 
L 0 3.5 
" id="mae5fbf57e5" style="stroke:#000000;stroke-width:0.8;"/>
      </defs>
      <g>
       <use style="stroke:#000000;stroke-width:0.8;" x="210.993116" xlink:href="#mae5fbf57e5" y="1281.6"/>
      </g>
     </g>
     <g id="text_1">
      <!-- −0.05 -->
      <defs>
       <path d="M 10.59375 35.5 
L 73.1875 35.5 
L 73.1875 27.203125 
L 10.59375 27.203125 
z
" id="DejaVuSans-8722"/>
       <path d="M 31.78125 66.40625 
Q 24.171875 66.40625 20.328125 58.90625 
Q 16.5 51.421875 16.5 36.375 
Q 16.5 21.390625 20.328125 13.890625 
Q 24.171875 6.390625 31.78125 6.390625 
Q 39.453125 6.390625 43.28125 13.890625 
Q 47.125 21.390625 47.125 36.375 
Q 47.125 51.421875 43.28125 58.90625 
Q 39.453125 66.40625 31.78125 66.40625 
z
M 31.78125 74.21875 
Q 44.046875 74.21875 50.515625 64.515625 
Q 56.984375 54.828125 56.984375 36.375 
Q 56.984375 17.96875 50.515625 8.265625 
Q 44.046875 -1.421875 31.78125 -1.421875 
Q 19.53125 -1.421875 13.0625 8.265625 
Q 6.59375 17.96875 6.59375 36.375 
Q 6.59375 54.828125 13.0625 64.515625 
Q 19.53125 74.21875 31.78125 74.21875 
z
" id="DejaVuSans-48"/>
       <path d="M 10.6875 12.40625 
L 21 12.40625 
L 21 0 
L 10.6875 0 
z
" id="DejaVuSans-46"/>
       <path d="M 10.796875 72.90625 
L 49.515625 72.90625 
L 49.515625 64.59375 
L 19.828125 64.59375 
L 19.828125 46.734375 
Q 21.96875 47.46875 24.109375 47.828125 
Q 26.265625 48.1875 28.421875 48.1875 
Q 40.625 48.1875 47.75 41.5 
Q 54.890625 34.8125 54.890625 23.390625 
Q 54.890625 11.625 47.5625 5.09375 
Q 40.234375 -1.421875 26.90625 -1.421875 
Q 22.3125 -1.421875 17.546875 -0.640625 
Q 12.796875 0.140625 7.71875 1.703125 
L 7.71875 11.625 
Q 12.109375 9.234375 16.796875 8.0625 
Q 21.484375 6.890625 26.703125 6.890625 
Q 35.15625 6.890625 40.078125 11.328125 
Q 45.015625 15.765625 45.015625 23.390625 
Q 45.015625 31 40.078125 35.4375 
Q 35.15625 39.890625 26.703125 39.890625 
Q 22.75 39.890625 18.8125 39.015625 
Q 14.890625 38.140625 10.796875 36.28125 
z
" id="DejaVuSans-53"/>
      </defs>
      <g transform="translate(195.67046 1296.198437)scale(0.1 -0.1)">
       <use xlink:href="#DejaVuSans-8722"/>
       <use x="83.789062" xlink:href="#DejaVuSans-48"/>
       <use x="147.412109" xlink:href="#DejaVuSans-46"/>
       <use x="179.199219" xlink:href="#DejaVuSans-48"/>
       <use x="242.822266" xlink:href="#DejaVuSans-53"/>
      </g>
     </g>
    </g>
    <g id="xtick_2">
     <g id="line2d_2">
      <g>
       <use style="stroke:#000000;stroke-width:0.8;" x="455.1175" xlink:href="#mae5fbf57e5" y="1281.6"/>
      </g>
     </g>
     <g id="text_2">
      <!-- 0.00 -->
      <g transform="translate(443.984688 1296.198437)scale(0.1 -0.1)">
       <use xlink:href="#DejaVuSans-48"/>
       <use x="63.623047" xlink:href="#DejaVuSans-46"/>
       <use x="95.410156" xlink:href="#DejaVuSans-48"/>
       <use x="159.033203" xlink:href="#DejaVuSans-48"/>
      </g>
     </g>
    </g>
    <g id="xtick_3">
     <g id="line2d_3">
      <g>
       <use style="stroke:#000000;stroke-width:0.8;" x="699.241885" xlink:href="#mae5fbf57e5" y="1281.6"/>
      </g>
     </g>
     <g id="text_3">
      <!-- 0.05 -->
      <g transform="translate(688.109073 1296.198437)scale(0.1 -0.1)">
       <use xlink:href="#DejaVuSans-48"/>
       <use x="63.623047" xlink:href="#DejaVuSans-46"/>
       <use x="95.410156" xlink:href="#DejaVuSans-48"/>
       <use x="159.033203" xlink:href="#DejaVuSans-53"/>
      </g>
     </g>
    </g>
    <g id="xtick_4">
     <g id="line2d_4">
      <g>
       <use style="stroke:#000000;stroke-width:0.8;" x="943.36627" xlink:href="#mae5fbf57e5" y="1281.6"/>
      </g>
     </g>
     <g id="text_4">
      <!-- 0.10 -->
      <defs>
       <path d="M 12.40625 8.296875 
L 28.515625 8.296875 
L 28.515625 63.921875 
L 10.984375 60.40625 
L 10.984375 69.390625 
L 28.421875 72.90625 
L 38.28125 72.90625 
L 38.28125 8.296875 
L 54.390625 8.296875 
L 54.390625 0 
L 12.40625 0 
z
" id="DejaVuSans-49"/>
      </defs>
      <g transform="translate(932.233457 1296.198437)scale(0.1 -0.1)">
       <use xlink:href="#DejaVuSans-48"/>
       <use x="63.623047" xlink:href="#DejaVuSans-46"/>
       <use x="95.410156" xlink:href="#DejaVuSans-49"/>
       <use x="159.033203" xlink:href="#DejaVuSans-48"/>
      </g>
     </g>
    </g>
    <g id="xtick_5">
     <g id="line2d_5">
      <g>
       <use style="stroke:#000000;stroke-width:0.8;" x="1187.490654" xlink:href="#mae5fbf57e5" y="1281.6"/>
      </g>
     </g>
     <g id="text_5">
      <!-- 0.15 -->
      <g transform="translate(1176.357842 1296.198437)scale(0.1 -0.1)">
       <use xlink:href="#DejaVuSans-48"/>
       <use x="63.623047" xlink:href="#DejaVuSans-46"/>
       <use x="95.410156" xlink:href="#DejaVuSans-49"/>
       <use x="159.033203" xlink:href="#DejaVuSans-53"/>
      </g>
     </g>
    </g>
   </g>
   <g id="matplotlib.axis_2">
    <g id="ytick_1">
     <g id="line2d_6">
      <defs>
       <path d="M 0 0 
L -3.5 0 
" id="m1729f05e86" style="stroke:#000000;stroke-width:0.8;"/>
      </defs>
      <g>
       <use style="stroke:#000000;stroke-width:0.8;" x="180" xlink:href="#m1729f05e86" y="1201.711446"/>
      </g>
     </g>
     <g id="text_6">
      <!-- −0.3 -->
      <defs>
       <path d="M 40.578125 39.3125 
Q 47.65625 37.796875 51.625 33 
Q 55.609375 28.21875 55.609375 21.1875 
Q 55.609375 10.40625 48.1875 4.484375 
Q 40.765625 -1.421875 27.09375 -1.421875 
Q 22.515625 -1.421875 17.65625 -0.515625 
Q 12.796875 0.390625 7.625 2.203125 
L 7.625 11.71875 
Q 11.71875 9.328125 16.59375 8.109375 
Q 21.484375 6.890625 26.8125 6.890625 
Q 36.078125 6.890625 40.9375 10.546875 
Q 45.796875 14.203125 45.796875 21.1875 
Q 45.796875 27.640625 41.28125 31.265625 
Q 36.765625 34.90625 28.71875 34.90625 
L 20.21875 34.90625 
L 20.21875 43.015625 
L 29.109375 43.015625 
Q 36.375 43.015625 40.234375 45.921875 
Q 44.09375 48.828125 44.09375 54.296875 
Q 44.09375 59.90625 40.109375 62.90625 
Q 36.140625 65.921875 28.71875 65.921875 
Q 24.65625 65.921875 20.015625 65.03125 
Q 15.375 64.15625 9.8125 62.3125 
L 9.8125 71.09375 
Q 15.4375 72.65625 20.34375 73.4375 
Q 25.25 74.21875 29.59375 74.21875 
Q 40.828125 74.21875 47.359375 69.109375 
Q 53.90625 64.015625 53.90625 55.328125 
Q 53.90625 49.265625 50.4375 45.09375 
Q 46.96875 40.921875 40.578125 39.3125 
z
" id="DejaVuSans-51"/>
      </defs>
      <g transform="translate(148.717187 1205.510665)scale(0.1 -0.1)">
       <use xlink:href="#DejaVuSans-8722"/>
       <use x="83.789062" xlink:href="#DejaVuSans-48"/>
       <use x="147.412109" xlink:href="#DejaVuSans-46"/>
       <use x="179.199219" xlink:href="#DejaVuSans-51"/>
      </g>
     </g>
    </g>
    <g id="ytick_2">
     <g id="line2d_7">
      <g>
       <use style="stroke:#000000;stroke-width:0.8;" x="180" xlink:href="#m1729f05e86" y="1037.266371"/>
      </g>
     </g>
     <g id="text_7">
      <!-- −0.2 -->
      <defs>
       <path d="M 19.1875 8.296875 
L 53.609375 8.296875 
L 53.609375 0 
L 7.328125 0 
L 7.328125 8.296875 
Q 12.9375 14.109375 22.625 23.890625 
Q 32.328125 33.6875 34.8125 36.53125 
Q 39.546875 41.84375 41.421875 45.53125 
Q 43.3125 49.21875 43.3125 52.78125 
Q 43.3125 58.59375 39.234375 62.25 
Q 35.15625 65.921875 28.609375 65.921875 
Q 23.96875 65.921875 18.8125 64.3125 
Q 13.671875 62.703125 7.8125 59.421875 
L 7.8125 69.390625 
Q 13.765625 71.78125 18.9375 73 
Q 24.125 74.21875 28.421875 74.21875 
Q 39.75 74.21875 46.484375 68.546875 
Q 53.21875 62.890625 53.21875 53.421875 
Q 53.21875 48.921875 51.53125 44.890625 
Q 49.859375 40.875 45.40625 35.40625 
Q 44.1875 33.984375 37.640625 27.21875 
Q 31.109375 20.453125 19.1875 8.296875 
z
" id="DejaVuSans-50"/>
      </defs>
      <g transform="translate(148.717187 1041.065589)scale(0.1 -0.1)">
       <use xlink:href="#DejaVuSans-8722"/>
       <use x="83.789062" xlink:href="#DejaVuSans-48"/>
       <use x="147.412109" xlink:href="#DejaVuSans-46"/>
       <use x="179.199219" xlink:href="#DejaVuSans-50"/>
      </g>
     </g>
    </g>
    <g id="ytick_3">
     <g id="line2d_8">
      <g>
       <use style="stroke:#000000;stroke-width:0.8;" x="180" xlink:href="#m1729f05e86" y="872.821295"/>
      </g>
     </g>
     <g id="text_8">
      <!-- −0.1 -->
      <g transform="translate(148.717187 876.620514)scale(0.1 -0.1)">
       <use xlink:href="#DejaVuSans-8722"/>
       <use x="83.789062" xlink:href="#DejaVuSans-48"/>
       <use x="147.412109" xlink:href="#DejaVuSans-46"/>
       <use x="179.199219" xlink:href="#DejaVuSans-49"/>
      </g>
     </g>
    </g>
    <g id="ytick_4">
     <g id="line2d_9">
      <g>
       <use style="stroke:#000000;stroke-width:0.8;" x="180" xlink:href="#m1729f05e86" y="708.37622"/>
      </g>
     </g>
     <g id="text_9">
      <!-- 0.0 -->
      <g transform="translate(157.096875 712.175439)scale(0.1 -0.1)">
       <use xlink:href="#DejaVuSans-48"/>
       <use x="63.623047" xlink:href="#DejaVuSans-46"/>
       <use x="95.410156" xlink:href="#DejaVuSans-48"/>
      </g>
     </g>
    </g>
    <g id="ytick_5">
     <g id="line2d_10">
      <g>
       <use style="stroke:#000000;stroke-width:0.8;" x="180" xlink:href="#m1729f05e86" y="543.931145"/>
      </g>
     </g>
     <g id="text_10">
      <!-- 0.1 -->
      <g transform="translate(157.096875 547.730363)scale(0.1 -0.1)">
       <use xlink:href="#DejaVuSans-48"/>
       <use x="63.623047" xlink:href="#DejaVuSans-46"/>
       <use x="95.410156" xlink:href="#DejaVuSans-49"/>
      </g>
     </g>
    </g>
    <g id="ytick_6">
     <g id="line2d_11">
      <g>
       <use style="stroke:#000000;stroke-width:0.8;" x="180" xlink:href="#m1729f05e86" y="379.486069"/>
      </g>
     </g>
     <g id="text_11">
      <!-- 0.2 -->
      <g transform="translate(157.096875 383.285288)scale(0.1 -0.1)">
       <use xlink:href="#DejaVuSans-48"/>
       <use x="63.623047" xlink:href="#DejaVuSans-46"/>
       <use x="95.410156" xlink:href="#DejaVuSans-50"/>
      </g>
     </g>
    </g>
    <g id="ytick_7">
     <g id="line2d_12">
      <g>
       <use style="stroke:#000000;stroke-width:0.8;" x="180" xlink:href="#m1729f05e86" y="215.040994"/>
      </g>
     </g>
     <g id="text_12">
      <!-- 0.3 -->
      <g transform="translate(157.096875 218.840213)scale(0.1 -0.1)">
       <use xlink:href="#DejaVuSans-48"/>
       <use x="63.623047" xlink:href="#DejaVuSans-46"/>
       <use x="95.410156" xlink:href="#DejaVuSans-51"/>
      </g>
     </g>
    </g>
   </g>
   <g id="line2d_13">
    <defs>
     <path d="M 0 3 
C 0.795609 3 1.55874 2.683901 2.12132 2.12132 
C 2.683901 1.55874 3 0.795609 3 0 
C 3 -0.795609 2.683901 -1.55874 2.12132 -2.12132 
C 1.55874 -2.683901 0.795609 -3 0 -3 
C -0.795609 -3 -1.55874 -2.683901 -2.12132 -2.12132 
C -2.683901 -1.55874 -3 -0.795609 -3 0 
C -3 0.795609 -2.683901 1.55874 -2.12132 2.12132 
C -1.55874 2.683901 -0.795609 3 0 3 
z
" id="m8c962f65d9" style="stroke:#000000;"/>
    </defs>
    <g clip-path="url(#p44e1095f71)">
     <use style="stroke:#000000;" x="820.748621" xlink:href="#m8c962f65d9" y="603.406419"/>
    </g>
   </g>
   <g id="line2d_14">
    <g clip-path="url(#p44e1095f71)">
     <use style="stroke:#000000;" x="736.052145" xlink:href="#m8c962f65d9" y="264.222478"/>
    </g>
   </g>
   <g id="line2d_15">
    <defs>
     <path d="M 0 9 
C 2.386828 9 4.676219 8.051703 6.363961 6.363961 
C 8.051703 4.676219 9 2.386828 9 0 
C 9 -2.386828 8.051703 -4.676219 6.363961 -6.363961 
C 4.676219 -8.051703 2.386828 -9 0 -9 
C -2.386828 -9 -4.676219 -8.051703 -6.363961 -6.363961 
C -8.051703 -4.676219 -9 -2.386828 -9 0 
C -9 2.386828 -8.051703 4.676219 -6.363961 6.363961 
C -4.676219 8.051703 -2.386828 9 0 9 
z
" id="m328661e280" style="stroke:#000000;"/>
    </defs>
    <g clip-path="url(#p44e1095f71)">
     <use style="fill:#9e0142;stroke:#000000;" x="1236.161454" xlink:href="#m328661e280" y="960.232356"/>
    </g>
   </g>
   <g id="line2d_16">
    <g clip-path="url(#p44e1095f71)">
     <use style="fill:#9e0142;stroke:#000000;" x="1238.423545" xlink:href="#m328661e280" y="962.676862"/>
    </g>
   </g>
   <g id="line2d_17">
    <g clip-path="url(#p44e1095f71)">
     <use style="fill:#9e0142;stroke:#000000;" x="1240.154667" xlink:href="#m328661e280" y="961.464664"/>
    </g>
   </g>
   <g id="line2d_18">
    <g clip-path="url(#p44e1095f71)">
     <use style="fill:#9e0142;stroke:#000000;" x="1233.169477" xlink:href="#m328661e280" y="960.462798"/>
    </g>
   </g>
   <g id="line2d_19">
    <g clip-path="url(#p44e1095f71)">
     <use style="fill:#9e0142;stroke:#000000;" x="1244.663104" xlink:href="#m328661e280" y="961.116204"/>
    </g>
   </g>
   <g id="line2d_20">
    <g clip-path="url(#p44e1095f71)">
     <use style="fill:#9e0142;stroke:#000000;" x="1232.706379" xlink:href="#m328661e280" y="960.50892"/>
    </g>
   </g>
   <g id="line2d_21">
    <g clip-path="url(#p44e1095f71)">
     <use style="fill:#9e0142;stroke:#000000;" x="1233.32893" xlink:href="#m328661e280" y="961.636448"/>
    </g>
   </g>
   <g id="line2d_22">
    <g clip-path="url(#p44e1095f71)">
     <use style="fill:#9e0142;stroke:#000000;" x="1239.778244" xlink:href="#m328661e280" y="960.47943"/>
    </g>
   </g>
   <g id="line2d_23">
    <g clip-path="url(#p44e1095f71)">
     <use style="stroke:#000000;" x="1230.466227" xlink:href="#m8c962f65d9" y="991.867745"/>
    </g>
   </g>
   <g id="line2d_24">
    <g clip-path="url(#p44e1095f71)">
     <use style="fill:#9e0142;stroke:#000000;" x="1245.272727" xlink:href="#m328661e280" y="959.057143"/>
    </g>
   </g>
   <g id="line2d_25">
    <defs>
     <path d="M 0 9 
C 2.386828 9 4.676219 8.051703 6.363961 6.363961 
C 8.051703 4.676219 9 2.386828 9 0 
C 9 -2.386828 8.051703 -4.676219 6.363961 -6.363961 
C 4.676219 -8.051703 2.386828 -9 0 -9 
C -2.386828 -9 -4.676219 -8.051703 -6.363961 -6.363961 
C -8.051703 -4.676219 -9 -2.386828 -9 0 
C -9 2.386828 -8.051703 4.676219 -6.363961 6.363961 
C -4.676219 8.051703 -2.386828 9 0 9 
z
" id="mcb08bcbb1f" style="stroke:#000000;"/>
    </defs>
    <g clip-path="url(#p44e1095f71)">
     <use style="fill:#ffffbe;stroke:#000000;" x="1182.704404" xlink:href="#mcb08bcbb1f" y="539.597915"/>
    </g>
   </g>
   <g id="line2d_26">
    <g clip-path="url(#p44e1095f71)">
     <use style="stroke:#000000;" x="1222.984682" xlink:href="#m8c962f65d9" y="770.8954"/>
    </g>
   </g>
   <g id="line2d_27">
    <g clip-path="url(#p44e1095f71)">
     <use style="fill:#ffffbe;stroke:#000000;" x="1184.608002" xlink:href="#mcb08bcbb1f" y="541.072636"/>
    </g>
   </g>
   <g id="line2d_28">
    <g clip-path="url(#p44e1095f71)">
     <use style="fill:#9e0142;stroke:#000000;" x="1241.134273" xlink:href="#m328661e280" y="961.552653"/>
    </g>
   </g>
   <g id="line2d_29">
    <g clip-path="url(#p44e1095f71)">
     <use style="stroke:#000000;" x="230.727273" xlink:href="#m8c962f65d9" y="407.709263"/>
    </g>
   </g>
   <g id="line2d_30">
    <g clip-path="url(#p44e1095f71)">
     <use style="stroke:#000000;" x="611.660572" xlink:href="#m8c962f65d9" y="223.2"/>
    </g>
   </g>
   <g id="line2d_31">
    <g clip-path="url(#p44e1095f71)">
     <use style="fill:#9e0142;stroke:#000000;" x="1234.068989" xlink:href="#m328661e280" y="963.326379"/>
    </g>
   </g>
   <g id="line2d_32">
    <g clip-path="url(#p44e1095f71)">
     <use style="fill:#ffffbe;stroke:#000000;" x="1182.686665" xlink:href="#mcb08bcbb1f" y="542.172122"/>
    </g>
   </g>
   <g id="line2d_33">
    <g clip-path="url(#p44e1095f71)">
     <use style="fill:#9e0142;stroke:#000000;" x="1236.687039" xlink:href="#m328661e280" y="959.16461"/>
    </g>
   </g>
   <g id="line2d_34">
    <g clip-path="url(#p44e1095f71)">
     <use style="fill:#ffffbe;stroke:#000000;" x="1191.920636" xlink:href="#mcb08bcbb1f" y="539.412182"/>
    </g>
   </g>
   <g id="line2d_35">
    <g clip-path="url(#p44e1095f71)">
     <use style="fill:#ffffbe;stroke:#000000;" x="1187.806274" xlink:href="#mcb08bcbb1f" y="541.22625"/>
    </g>
   </g>
   <g id="line2d_36">
    <g clip-path="url(#p44e1095f71)">
     <use style="fill:#ffffbe;stroke:#000000;" x="1194.555617" xlink:href="#mcb08bcbb1f" y="540.339144"/>
    </g>
   </g>
   <g id="line2d_37">
    <g clip-path="url(#p44e1095f71)">
     <use style="stroke:#000000;" x="1224.825733" xlink:href="#m8c962f65d9" y="770.873601"/>
    </g>
   </g>
   <g id="line2d_38">
    <g clip-path="url(#p44e1095f71)">
     <use style="fill:#ffffbe;stroke:#000000;" x="1194.648617" xlink:href="#mcb08bcbb1f" y="539.02378"/>
    </g>
   </g>
   <g id="line2d_39">
    <g clip-path="url(#p44e1095f71)">
     <use style="fill:#ffffbe;stroke:#000000;" x="1187.533957" xlink:href="#mcb08bcbb1f" y="541.593255"/>
    </g>
   </g>
   <g id="line2d_40">
    <g clip-path="url(#p44e1095f71)">
     <use style="stroke:#000000;" x="954.04025" xlink:href="#m8c962f65d9" y="601.608698"/>
    </g>
   </g>
   <g id="line2d_41">
    <g clip-path="url(#p44e1095f71)">
     <use style="stroke:#000000;" x="838.223607" xlink:href="#m8c962f65d9" y="355.451452"/>
    </g>
   </g>
   <g id="line2d_42">
    <g clip-path="url(#p44e1095f71)">
     <use style="fill:#ffffbe;stroke:#000000;" x="1192.684101" xlink:href="#mcb08bcbb1f" y="541.908806"/>
    </g>
   </g>
   <g id="line2d_43">
    <g clip-path="url(#p44e1095f71)">
     <use style="stroke:#000000;" x="1152.332631" xlink:href="#m8c962f65d9" y="1231.2"/>
    </g>
   </g>
   <g id="line2d_44">
    <g clip-path="url(#p44e1095f71)">
     <use style="fill:#ffffbe;stroke:#000000;" x="1187.354961" xlink:href="#mcb08bcbb1f" y="541.76582"/>
    </g>
   </g>
   <g id="line2d_45">
    <g clip-path="url(#p44e1095f71)">
     <use style="fill:#ffffbe;stroke:#000000;" x="1185.993834" xlink:href="#mcb08bcbb1f" y="540.40437"/>
    </g>
   </g>
   <g id="line2d_46">
    <g clip-path="url(#p44e1095f71)">
     <use style="fill:#ffffbe;stroke:#000000;" x="1185.686853" xlink:href="#mcb08bcbb1f" y="540.511862"/>
    </g>
   </g>
   <g id="line2d_47">
    <g clip-path="url(#p44e1095f71)">
     <use style="stroke:#000000;" x="1166.64255" xlink:href="#m8c962f65d9" y="968.881637"/>
    </g>
   </g>
   <g id="line2d_48">
    <g clip-path="url(#p44e1095f71)">
     <use style="fill:#ffffbe;stroke:#000000;" x="1182.244276" xlink:href="#mcb08bcbb1f" y="541.444355"/>
    </g>
   </g>
   <g id="line2d_49">
    <g clip-path="url(#p44e1095f71)">
     <use style="fill:#ffffbe;stroke:#000000;" x="1181.916146" xlink:href="#mcb08bcbb1f" y="541.777197"/>
    </g>
   </g>
   <g id="line2d_50">
    <g clip-path="url(#p44e1095f71)">
     <use style="fill:#ffffbe;stroke:#000000;" x="1192.675001" xlink:href="#mcb08bcbb1f" y="538.8459"/>
    </g>
   </g>
   <g id="line2d_51">
    <g clip-path="url(#p44e1095f71)">
     <use style="fill:#ffffbe;stroke:#000000;" x="1195.092861" xlink:href="#mcb08bcbb1f" y="541.530995"/>
    </g>
   </g>
   <g id="line2d_52">
    <g clip-path="url(#p44e1095f71)">
     <use style="stroke:#000000;" x="493.469633" xlink:href="#m8c962f65d9" y="391.16291"/>
    </g>
   </g>
   <g id="line2d_53">
    <g clip-path="url(#p44e1095f71)">
     <use style="fill:#ffffbe;stroke:#000000;" x="1194.06711" xlink:href="#mcb08bcbb1f" y="540.145468"/>
    </g>
   </g>
   <g id="line2d_54">
    <g clip-path="url(#p44e1095f71)">
     <use style="fill:#ffffbe;stroke:#000000;" x="1187.044555" xlink:href="#mcb08bcbb1f" y="541.846058"/>
    </g>
   </g>
   <g id="line2d_55">
    <g clip-path="url(#p44e1095f71)">
     <use style="stroke:#000000;" x="1191.136371" xlink:href="#m8c962f65d9" y="547.72815"/>
    </g>
   </g>
   <g id="line2d_56">
    <g clip-path="url(#p44e1095f71)">
     <use style="fill:#ffffbe;stroke:#000000;" x="1187.149808" xlink:href="#mcb08bcbb1f" y="539.981576"/>
    </g>
   </g>
   <g id="line2d_57">
    <g clip-path="url(#p44e1095f71)">
     <use style="fill:#ffffbe;stroke:#000000;" x="1187.534763" xlink:href="#mcb08bcbb1f" y="540.006544"/>
    </g>
   </g>
   <g id="line2d_58">
    <g clip-path="url(#p44e1095f71)">
     <use style="stroke:#000000;" x="773.790303" xlink:href="#m8c962f65d9" y="420.133602"/>
    </g>
   </g>
   <g id="line2d_59">
    <g clip-path="url(#p44e1095f71)">
     <use style="fill:#ffffbe;stroke:#000000;" x="1188.523811" xlink:href="#mcb08bcbb1f" y="539.906736"/>
    </g>
   </g>
   <g id="line2d_60">
    <g clip-path="url(#p44e1095f71)">
     <use style="stroke:#000000;" x="1212.884857" xlink:href="#m8c962f65d9" y="770.879555"/>
    </g>
   </g>
   <g id="line2d_61">
    <g clip-path="url(#p44e1095f71)">
     <use style="fill:#ffffbe;stroke:#000000;" x="1186.16373" xlink:href="#mcb08bcbb1f" y="542.154407"/>
    </g>
   </g>
   <g id="patch_3">
    <path d="M 180 1281.6 
L 180 172.8 
" style="fill:none;stroke:#000000;stroke-linecap:square;stroke-linejoin:miter;stroke-width:0.8;"/>
   </g>
   <g id="patch_4">
    <path d="M 1296 1281.6 
L 1296 172.8 
" style="fill:none;stroke:#000000;stroke-linecap:square;stroke-linejoin:miter;stroke-width:0.8;"/>
   </g>
   <g id="patch_5">
    <path d="M 180 1281.6 
L 1296 1281.6 
" style="fill:none;stroke:#000000;stroke-linecap:square;stroke-linejoin:miter;stroke-width:0.8;"/>
   </g>
   <g id="patch_6">
    <path d="M 180 172.8 
L 1296 172.8 
" style="fill:none;stroke:#000000;stroke-linecap:square;stroke-linejoin:miter;stroke-width:0.8;"/>
   </g>
  </g>
 </g>
 <defs>
  <clipPath id="p44e1095f71">
   <rect height="1108.8" width="1116" x="180" y="172.8"/>
  </clipPath>
 </defs>
</svg>
