<?xml version="1.0" encoding="utf-8" standalone="no"?>
<!DOCTYPE svg PUBLIC "-//W3C//DTD SVG 1.1//EN"
  "http://www.w3.org/Graphics/SVG/1.1/DTD/svg11.dtd">
<!-- Created with matplotlib (https://matplotlib.org/) -->
<svg height="1440pt" version="1.1" viewBox="0 0 1440 1440" width="1440pt" xmlns="http://www.w3.org/2000/svg" xmlns:xlink="http://www.w3.org/1999/xlink">
 <defs>
  <style type="text/css">
*{stroke-linecap:butt;stroke-linejoin:round;}
  </style>
 </defs>
 <g id="figure_1">
  <g id="patch_1">
   <path d="M 0 1440 
L 1440 1440 
L 1440 0 
L 0 0 
z
" style="fill:#ffffff;"/>
  </g>
  <g id="axes_1">
   <g id="patch_2">
    <path d="M 180 1281.6 
L 1296 1281.6 
L 1296 172.8 
L 180 172.8 
z
" style="fill:#ffffff;"/>
   </g>
   <g id="matplotlib.axis_1">
    <g id="xtick_1">
     <g id="line2d_1">
      <defs>
       <path d="M 0 0 
L 0 3.5 
" id="ma5ae4e6a97" style="stroke:#000000;stroke-width:0.8;"/>
      </defs>
      <g>
       <use style="stroke:#000000;stroke-width:0.8;" x="298.471893" xlink:href="#ma5ae4e6a97" y="1281.6"/>
      </g>
     </g>
     <g id="text_1">
      <!-- −0.050 -->
      <defs>
       <path d="M 10.59375 35.5 
L 73.1875 35.5 
L 73.1875 27.203125 
L 10.59375 27.203125 
z
" id="DejaVuSans-8722"/>
       <path d="M 31.78125 66.40625 
Q 24.171875 66.40625 20.328125 58.90625 
Q 16.5 51.421875 16.5 36.375 
Q 16.5 21.390625 20.328125 13.890625 
Q 24.171875 6.390625 31.78125 6.390625 
Q 39.453125 6.390625 43.28125 13.890625 
Q 47.125 21.390625 47.125 36.375 
Q 47.125 51.421875 43.28125 58.90625 
Q 39.453125 66.40625 31.78125 66.40625 
z
M 31.78125 74.21875 
Q 44.046875 74.21875 50.515625 64.515625 
Q 56.984375 54.828125 56.984375 36.375 
Q 56.984375 17.96875 50.515625 8.265625 
Q 44.046875 -1.421875 31.78125 -1.421875 
Q 19.53125 -1.421875 13.0625 8.265625 
Q 6.59375 17.96875 6.59375 36.375 
Q 6.59375 54.828125 13.0625 64.515625 
Q 19.53125 74.21875 31.78125 74.21875 
z
" id="DejaVuSans-48"/>
       <path d="M 10.6875 12.40625 
L 21 12.40625 
L 21 0 
L 10.6875 0 
z
" id="DejaVuSans-46"/>
       <path d="M 10.796875 72.90625 
L 49.515625 72.90625 
L 49.515625 64.59375 
L 19.828125 64.59375 
L 19.828125 46.734375 
Q 21.96875 47.46875 24.109375 47.828125 
Q 26.265625 48.1875 28.421875 48.1875 
Q 40.625 48.1875 47.75 41.5 
Q 54.890625 34.8125 54.890625 23.390625 
Q 54.890625 11.625 47.5625 5.09375 
Q 40.234375 -1.421875 26.90625 -1.421875 
Q 22.3125 -1.421875 17.546875 -0.640625 
Q 12.796875 0.140625 7.71875 1.703125 
L 7.71875 11.625 
Q 12.109375 9.234375 16.796875 8.0625 
Q 21.484375 6.890625 26.703125 6.890625 
Q 35.15625 6.890625 40.078125 11.328125 
Q 45.015625 15.765625 45.015625 23.390625 
Q 45.015625 31 40.078125 35.4375 
Q 35.15625 39.890625 26.703125 39.890625 
Q 22.75 39.890625 18.8125 39.015625 
Q 14.890625 38.140625 10.796875 36.28125 
z
" id="DejaVuSans-53"/>
      </defs>
      <g transform="translate(279.967987 1296.198437)scale(0.1 -0.1)">
       <use xlink:href="#DejaVuSans-8722"/>
       <use x="83.789062" xlink:href="#DejaVuSans-48"/>
       <use x="147.412109" xlink:href="#DejaVuSans-46"/>
       <use x="179.199219" xlink:href="#DejaVuSans-48"/>
       <use x="242.822266" xlink:href="#DejaVuSans-53"/>
       <use x="306.445312" xlink:href="#DejaVuSans-48"/>
      </g>
     </g>
    </g>
    <g id="xtick_2">
     <g id="line2d_2">
      <g>
       <use style="stroke:#000000;stroke-width:0.8;" x="444.863855" xlink:href="#ma5ae4e6a97" y="1281.6"/>
      </g>
     </g>
     <g id="text_2">
      <!-- −0.025 -->
      <defs>
       <path d="M 19.1875 8.296875 
L 53.609375 8.296875 
L 53.609375 0 
L 7.328125 0 
L 7.328125 8.296875 
Q 12.9375 14.109375 22.625 23.890625 
Q 32.328125 33.6875 34.8125 36.53125 
Q 39.546875 41.84375 41.421875 45.53125 
Q 43.3125 49.21875 43.3125 52.78125 
Q 43.3125 58.59375 39.234375 62.25 
Q 35.15625 65.921875 28.609375 65.921875 
Q 23.96875 65.921875 18.8125 64.3125 
Q 13.671875 62.703125 7.8125 59.421875 
L 7.8125 69.390625 
Q 13.765625 71.78125 18.9375 73 
Q 24.125 74.21875 28.421875 74.21875 
Q 39.75 74.21875 46.484375 68.546875 
Q 53.21875 62.890625 53.21875 53.421875 
Q 53.21875 48.921875 51.53125 44.890625 
Q 49.859375 40.875 45.40625 35.40625 
Q 44.1875 33.984375 37.640625 27.21875 
Q 31.109375 20.453125 19.1875 8.296875 
z
" id="DejaVuSans-50"/>
      </defs>
      <g transform="translate(426.359948 1296.198437)scale(0.1 -0.1)">
       <use xlink:href="#DejaVuSans-8722"/>
       <use x="83.789062" xlink:href="#DejaVuSans-48"/>
       <use x="147.412109" xlink:href="#DejaVuSans-46"/>
       <use x="179.199219" xlink:href="#DejaVuSans-48"/>
       <use x="242.822266" xlink:href="#DejaVuSans-50"/>
       <use x="306.445312" xlink:href="#DejaVuSans-53"/>
      </g>
     </g>
    </g>
    <g id="xtick_3">
     <g id="line2d_3">
      <g>
       <use style="stroke:#000000;stroke-width:0.8;" x="591.255816" xlink:href="#ma5ae4e6a97" y="1281.6"/>
      </g>
     </g>
     <g id="text_3">
      <!-- 0.000 -->
      <g transform="translate(576.941754 1296.198437)scale(0.1 -0.1)">
       <use xlink:href="#DejaVuSans-48"/>
       <use x="63.623047" xlink:href="#DejaVuSans-46"/>
       <use x="95.410156" xlink:href="#DejaVuSans-48"/>
       <use x="159.033203" xlink:href="#DejaVuSans-48"/>
       <use x="222.65625" xlink:href="#DejaVuSans-48"/>
      </g>
     </g>
    </g>
    <g id="xtick_4">
     <g id="line2d_4">
      <g>
       <use style="stroke:#000000;stroke-width:0.8;" x="737.647778" xlink:href="#ma5ae4e6a97" y="1281.6"/>
      </g>
     </g>
     <g id="text_4">
      <!-- 0.025 -->
      <g transform="translate(723.333715 1296.198437)scale(0.1 -0.1)">
       <use xlink:href="#DejaVuSans-48"/>
       <use x="63.623047" xlink:href="#DejaVuSans-46"/>
       <use x="95.410156" xlink:href="#DejaVuSans-48"/>
       <use x="159.033203" xlink:href="#DejaVuSans-50"/>
       <use x="222.65625" xlink:href="#DejaVuSans-53"/>
      </g>
     </g>
    </g>
    <g id="xtick_5">
     <g id="line2d_5">
      <g>
       <use style="stroke:#000000;stroke-width:0.8;" x="884.039739" xlink:href="#ma5ae4e6a97" y="1281.6"/>
      </g>
     </g>
     <g id="text_5">
      <!-- 0.050 -->
      <g transform="translate(869.725677 1296.198437)scale(0.1 -0.1)">
       <use xlink:href="#DejaVuSans-48"/>
       <use x="63.623047" xlink:href="#DejaVuSans-46"/>
       <use x="95.410156" xlink:href="#DejaVuSans-48"/>
       <use x="159.033203" xlink:href="#DejaVuSans-53"/>
       <use x="222.65625" xlink:href="#DejaVuSans-48"/>
      </g>
     </g>
    </g>
    <g id="xtick_6">
     <g id="line2d_6">
      <g>
       <use style="stroke:#000000;stroke-width:0.8;" x="1030.431701" xlink:href="#ma5ae4e6a97" y="1281.6"/>
      </g>
     </g>
     <g id="text_6">
      <!-- 0.075 -->
      <defs>
       <path d="M 8.203125 72.90625 
L 55.078125 72.90625 
L 55.078125 68.703125 
L 28.609375 0 
L 18.3125 0 
L 43.21875 64.59375 
L 8.203125 64.59375 
z
" id="DejaVuSans-55"/>
      </defs>
      <g transform="translate(1016.117638 1296.198437)scale(0.1 -0.1)">
       <use xlink:href="#DejaVuSans-48"/>
       <use x="63.623047" xlink:href="#DejaVuSans-46"/>
       <use x="95.410156" xlink:href="#DejaVuSans-48"/>
       <use x="159.033203" xlink:href="#DejaVuSans-55"/>
       <use x="222.65625" xlink:href="#DejaVuSans-53"/>
      </g>
     </g>
    </g>
    <g id="xtick_7">
     <g id="line2d_7">
      <g>
       <use style="stroke:#000000;stroke-width:0.8;" x="1176.823662" xlink:href="#ma5ae4e6a97" y="1281.6"/>
      </g>
     </g>
     <g id="text_7">
      <!-- 0.100 -->
      <defs>
       <path d="M 12.40625 8.296875 
L 28.515625 8.296875 
L 28.515625 63.921875 
L 10.984375 60.40625 
L 10.984375 69.390625 
L 28.421875 72.90625 
L 38.28125 72.90625 
L 38.28125 8.296875 
L 54.390625 8.296875 
L 54.390625 0 
L 12.40625 0 
z
" id="DejaVuSans-49"/>
      </defs>
      <g transform="translate(1162.5096 1296.198437)scale(0.1 -0.1)">
       <use xlink:href="#DejaVuSans-48"/>
       <use x="63.623047" xlink:href="#DejaVuSans-46"/>
       <use x="95.410156" xlink:href="#DejaVuSans-49"/>
       <use x="159.033203" xlink:href="#DejaVuSans-48"/>
       <use x="222.65625" xlink:href="#DejaVuSans-48"/>
      </g>
     </g>
    </g>
   </g>
   <g id="matplotlib.axis_2">
    <g id="ytick_1">
     <g id="line2d_8">
      <defs>
       <path d="M 0 0 
L -3.5 0 
" id="mb110282114" style="stroke:#000000;stroke-width:0.8;"/>
      </defs>
      <g>
       <use style="stroke:#000000;stroke-width:0.8;" x="180" xlink:href="#mb110282114" y="1124.167417"/>
      </g>
     </g>
     <g id="text_8">
      <!-- −0.1 -->
      <g transform="translate(148.717187 1127.966636)scale(0.1 -0.1)">
       <use xlink:href="#DejaVuSans-8722"/>
       <use x="83.789062" xlink:href="#DejaVuSans-48"/>
       <use x="147.412109" xlink:href="#DejaVuSans-46"/>
       <use x="179.199219" xlink:href="#DejaVuSans-49"/>
      </g>
     </g>
    </g>
    <g id="ytick_2">
     <g id="line2d_9">
      <g>
       <use style="stroke:#000000;stroke-width:0.8;" x="180" xlink:href="#mb110282114" y="885.873465"/>
      </g>
     </g>
     <g id="text_9">
      <!-- 0.0 -->
      <g transform="translate(157.096875 889.672684)scale(0.1 -0.1)">
       <use xlink:href="#DejaVuSans-48"/>
       <use x="63.623047" xlink:href="#DejaVuSans-46"/>
       <use x="95.410156" xlink:href="#DejaVuSans-48"/>
      </g>
     </g>
    </g>
    <g id="ytick_3">
     <g id="line2d_10">
      <g>
       <use style="stroke:#000000;stroke-width:0.8;" x="180" xlink:href="#mb110282114" y="647.579513"/>
      </g>
     </g>
     <g id="text_10">
      <!-- 0.1 -->
      <g transform="translate(157.096875 651.378732)scale(0.1 -0.1)">
       <use xlink:href="#DejaVuSans-48"/>
       <use x="63.623047" xlink:href="#DejaVuSans-46"/>
       <use x="95.410156" xlink:href="#DejaVuSans-49"/>
      </g>
     </g>
    </g>
    <g id="ytick_4">
     <g id="line2d_11">
      <g>
       <use style="stroke:#000000;stroke-width:0.8;" x="180" xlink:href="#mb110282114" y="409.285562"/>
      </g>
     </g>
     <g id="text_11">
      <!-- 0.2 -->
      <g transform="translate(157.096875 413.08478)scale(0.1 -0.1)">
       <use xlink:href="#DejaVuSans-48"/>
       <use x="63.623047" xlink:href="#DejaVuSans-46"/>
       <use x="95.410156" xlink:href="#DejaVuSans-50"/>
      </g>
     </g>
    </g>
   </g>
   <g id="line2d_12">
    <defs>
     <path d="M 0 9 
C 2.386828 9 4.676219 8.051703 6.363961 6.363961 
C 8.051703 4.676219 9 2.386828 9 0 
C 9 -2.386828 8.051703 -4.676219 6.363961 -6.363961 
C 4.676219 -8.051703 2.386828 -9 0 -9 
C -2.386828 -9 -4.676219 -8.051703 -6.363961 -6.363961 
C -8.051703 -4.676219 -9 -2.386828 -9 0 
C -9 2.386828 -8.051703 4.676219 -6.363961 6.363961 
C -4.676219 8.051703 -2.386828 9 0 9 
z
" id="m96da73b86b" style="stroke:#000000;"/>
    </defs>
    <g clip-path="url(#p39ee922981)">
     <use style="fill:#9e0142;stroke:#000000;" x="1245.228676" xlink:href="#m96da73b86b" y="902.020882"/>
    </g>
   </g>
   <g id="line2d_13">
    <defs>
     <path d="M 0 3 
C 0.795609 3 1.55874 2.683901 2.12132 2.12132 
C 2.683901 1.55874 3 0.795609 3 0 
C 3 -0.795609 2.683901 -1.55874 2.12132 -2.12132 
C 1.55874 -2.683901 0.795609 -3 0 -3 
C -0.795609 -3 -1.55874 -2.683901 -2.12132 -2.12132 
C -2.683901 -1.55874 -3 -0.795609 -3 0 
C -3 0.795609 -2.683901 1.55874 -2.12132 2.12132 
C -1.55874 2.683901 -0.795609 3 0 3 
z
" id="mf800975375" style="stroke:#000000;"/>
    </defs>
    <g clip-path="url(#p39ee922981)">
     <use style="stroke:#000000;" x="1073.107031" xlink:href="#mf800975375" y="1226.735094"/>
    </g>
   </g>
   <g id="line2d_14">
    <defs>
     <path d="M 0 9 
C 2.386828 9 4.676219 8.051703 6.363961 6.363961 
C 8.051703 4.676219 9 2.386828 9 0 
C 9 -2.386828 8.051703 -4.676219 6.363961 -6.363961 
C 4.676219 -8.051703 2.386828 -9 0 -9 
C -2.386828 -9 -4.676219 -8.051703 -6.363961 -6.363961 
C -8.051703 -4.676219 -9 -2.386828 -9 0 
C -9 2.386828 -8.051703 4.676219 -6.363961 6.363961 
C -4.676219 8.051703 -2.386828 9 0 9 
z
" id="m55632bc2de" style="stroke:#000000;"/>
    </defs>
    <g clip-path="url(#p39ee922981)">
     <use style="fill:#ffffbe;stroke:#000000;" x="258.069509" xlink:href="#m55632bc2de" y="308.912716"/>
    </g>
   </g>
   <g id="line2d_15">
    <g clip-path="url(#p39ee922981)">
     <use style="fill:#ffffbe;stroke:#000000;" x="259.554632" xlink:href="#m55632bc2de" y="260.156216"/>
    </g>
   </g>
   <g id="line2d_16">
    <g clip-path="url(#p39ee922981)">
     <use style="stroke:#000000;" x="1076.276843" xlink:href="#mf800975375" y="1230.84628"/>
    </g>
   </g>
   <g id="line2d_17">
    <g clip-path="url(#p39ee922981)">
     <use style="fill:#9e0142;stroke:#000000;" x="1215.567431" xlink:href="#m96da73b86b" y="713.805646"/>
    </g>
   </g>
   <g id="line2d_18">
    <g clip-path="url(#p39ee922981)">
     <use style="fill:#9e0142;stroke:#000000;" x="1245.272727" xlink:href="#m96da73b86b" y="902.107352"/>
    </g>
   </g>
   <g id="line2d_19">
    <g clip-path="url(#p39ee922981)">
     <use style="stroke:#000000;" x="1075.540239" xlink:href="#mf800975375" y="1231.2"/>
    </g>
   </g>
   <g id="line2d_20">
    <g clip-path="url(#p39ee922981)">
     <use style="fill:#9e0142;stroke:#000000;" x="1235.149834" xlink:href="#m96da73b86b" y="902.016734"/>
    </g>
   </g>
   <g id="line2d_21">
    <g clip-path="url(#p39ee922981)">
     <use style="fill:#9e0142;stroke:#000000;" x="1241.196876" xlink:href="#m96da73b86b" y="902.284129"/>
    </g>
   </g>
   <g id="line2d_22">
    <g clip-path="url(#p39ee922981)">
     <use style="stroke:#000000;" x="1080.069553" xlink:href="#mf800975375" y="1230.01018"/>
    </g>
   </g>
   <g id="line2d_23">
    <g clip-path="url(#p39ee922981)">
     <use style="fill:#9e0142;stroke:#000000;" x="1233.503234" xlink:href="#m96da73b86b" y="902.03847"/>
    </g>
   </g>
   <g id="line2d_24">
    <g clip-path="url(#p39ee922981)">
     <use style="fill:#9e0142;stroke:#000000;" x="1233.854825" xlink:href="#m96da73b86b" y="902.133587"/>
    </g>
   </g>
   <g id="line2d_25">
    <g clip-path="url(#p39ee922981)">
     <use style="fill:#9e0142;stroke:#000000;" x="1243.908854" xlink:href="#m96da73b86b" y="902.173873"/>
    </g>
   </g>
   <g id="line2d_26">
    <g clip-path="url(#p39ee922981)">
     <use style="fill:#9e0142;stroke:#000000;" x="1239.460883" xlink:href="#m96da73b86b" y="902.179128"/>
    </g>
   </g>
   <g id="line2d_27">
    <g clip-path="url(#p39ee922981)">
     <use style="fill:#9e0142;stroke:#000000;" x="1218.570919" xlink:href="#m96da73b86b" y="713.94321"/>
    </g>
   </g>
   <g id="line2d_28">
    <g clip-path="url(#p39ee922981)">
     <use style="fill:#9e0142;stroke:#000000;" x="1235.279003" xlink:href="#m96da73b86b" y="902.035372"/>
    </g>
   </g>
   <g id="line2d_29">
    <g clip-path="url(#p39ee922981)">
     <use style="fill:#9e0142;stroke:#000000;" x="1240.841651" xlink:href="#m96da73b86b" y="902.281684"/>
    </g>
   </g>
   <g id="line2d_30">
    <g clip-path="url(#p39ee922981)">
     <use style="fill:#9e0142;stroke:#000000;" x="1211.903945" xlink:href="#m96da73b86b" y="712.793628"/>
    </g>
   </g>
   <g id="line2d_31">
    <g clip-path="url(#p39ee922981)">
     <use style="fill:#9e0142;stroke:#000000;" x="1236.575445" xlink:href="#m96da73b86b" y="902.290587"/>
    </g>
   </g>
   <g id="line2d_32">
    <g clip-path="url(#p39ee922981)">
     <use style="fill:#9e0142;stroke:#000000;" x="1209.722895" xlink:href="#m96da73b86b" y="711.785891"/>
    </g>
   </g>
   <g id="line2d_33">
    <g clip-path="url(#p39ee922981)">
     <use style="fill:#ffffbe;stroke:#000000;" x="233.180786" xlink:href="#m55632bc2de" y="228.967192"/>
    </g>
   </g>
   <g id="line2d_34">
    <g clip-path="url(#p39ee922981)">
     <use style="fill:#9e0142;stroke:#000000;" x="1217.894911" xlink:href="#m96da73b86b" y="714.918189"/>
    </g>
   </g>
   <g id="line2d_35">
    <g clip-path="url(#p39ee922981)">
     <use style="fill:#ffffbe;stroke:#000000;" x="234.167323" xlink:href="#m55632bc2de" y="227.52243"/>
    </g>
   </g>
   <g id="line2d_36">
    <g clip-path="url(#p39ee922981)">
     <use style="fill:#ffffbe;stroke:#000000;" x="257.81179" xlink:href="#m55632bc2de" y="262.269616"/>
    </g>
   </g>
   <g id="line2d_37">
    <g clip-path="url(#p39ee922981)">
     <use style="fill:#9e0142;stroke:#000000;" x="1219.334979" xlink:href="#m96da73b86b" y="712.369261"/>
    </g>
   </g>
   <g id="line2d_38">
    <g clip-path="url(#p39ee922981)">
     <use style="fill:#9e0142;stroke:#000000;" x="1215.527639" xlink:href="#m96da73b86b" y="711.793939"/>
    </g>
   </g>
   <g id="line2d_39">
    <g clip-path="url(#p39ee922981)">
     <use style="fill:#9e0142;stroke:#000000;" x="1236.981284" xlink:href="#m96da73b86b" y="902.124268"/>
    </g>
   </g>
   <g id="line2d_40">
    <g clip-path="url(#p39ee922981)">
     <use style="fill:#9e0142;stroke:#000000;" x="1216.093702" xlink:href="#m96da73b86b" y="713.935341"/>
    </g>
   </g>
   <g id="line2d_41">
    <g clip-path="url(#p39ee922981)">
     <use style="fill:#9e0142;stroke:#000000;" x="1213.305505" xlink:href="#m96da73b86b" y="712.852821"/>
    </g>
   </g>
   <g id="line2d_42">
    <g clip-path="url(#p39ee922981)">
     <use style="fill:#9e0142;stroke:#000000;" x="1213.284604" xlink:href="#m96da73b86b" y="713.015636"/>
    </g>
   </g>
   <g id="line2d_43">
    <g clip-path="url(#p39ee922981)">
     <use style="fill:#9e0142;stroke:#000000;" x="1212.515884" xlink:href="#m96da73b86b" y="712.153577"/>
    </g>
   </g>
   <g id="line2d_44">
    <g clip-path="url(#p39ee922981)">
     <use style="fill:#9e0142;stroke:#000000;" x="1233.845017" xlink:href="#m96da73b86b" y="902.276983"/>
    </g>
   </g>
   <g id="line2d_45">
    <g clip-path="url(#p39ee922981)">
     <use style="fill:#9e0142;stroke:#000000;" x="1211.408776" xlink:href="#m96da73b86b" y="712.365327"/>
    </g>
   </g>
   <g id="line2d_46">
    <g clip-path="url(#p39ee922981)">
     <use style="fill:#9e0142;stroke:#000000;" x="1216.247439" xlink:href="#m96da73b86b" y="712.863942"/>
    </g>
   </g>
   <g id="line2d_47">
    <g clip-path="url(#p39ee922981)">
     <use style="fill:#9e0142;stroke:#000000;" x="1244.196577" xlink:href="#m96da73b86b" y="902.022236"/>
    </g>
   </g>
   <g id="line2d_48">
    <g clip-path="url(#p39ee922981)">
     <use style="fill:#9e0142;stroke:#000000;" x="1220.73196" xlink:href="#m96da73b86b" y="713.52809"/>
    </g>
   </g>
   <g id="line2d_49">
    <g clip-path="url(#p39ee922981)">
     <use style="fill:#9e0142;stroke:#000000;" x="1235.38338" xlink:href="#m96da73b86b" y="902.301114"/>
    </g>
   </g>
   <g id="line2d_50">
    <g clip-path="url(#p39ee922981)">
     <use style="fill:#9e0142;stroke:#000000;" x="1240.843154" xlink:href="#m96da73b86b" y="902.252213"/>
    </g>
   </g>
   <g id="line2d_51">
    <g clip-path="url(#p39ee922981)">
     <use style="fill:#9e0142;stroke:#000000;" x="1219.060654" xlink:href="#m96da73b86b" y="712.145242"/>
    </g>
   </g>
   <g id="line2d_52">
    <g clip-path="url(#p39ee922981)">
     <use style="fill:#9e0142;stroke:#000000;" x="1212.86648" xlink:href="#m96da73b86b" y="1032.214479"/>
    </g>
   </g>
   <g id="line2d_53">
    <g clip-path="url(#p39ee922981)">
     <use style="fill:#ffffbe;stroke:#000000;" x="257.115634" xlink:href="#m55632bc2de" y="257.206756"/>
    </g>
   </g>
   <g id="line2d_54">
    <g clip-path="url(#p39ee922981)">
     <use style="fill:#9e0142;stroke:#000000;" x="1237.734367" xlink:href="#m96da73b86b" y="902.216678"/>
    </g>
   </g>
   <g id="line2d_55">
    <g clip-path="url(#p39ee922981)">
     <use style="stroke:#000000;" x="527.523149" xlink:href="#mf800975375" y="500.954045"/>
    </g>
   </g>
   <g id="line2d_56">
    <g clip-path="url(#p39ee922981)">
     <use style="fill:#9e0142;stroke:#000000;" x="1241.263906" xlink:href="#m96da73b86b" y="902.190628"/>
    </g>
   </g>
   <g id="line2d_57">
    <g clip-path="url(#p39ee922981)">
     <use style="fill:#9e0142;stroke:#000000;" x="1240.490714" xlink:href="#m96da73b86b" y="902.202407"/>
    </g>
   </g>
   <g id="line2d_58">
    <g clip-path="url(#p39ee922981)">
     <use style="fill:#9e0142;stroke:#000000;" x="1244.17102" xlink:href="#m96da73b86b" y="902.105107"/>
    </g>
   </g>
   <g id="line2d_59">
    <g clip-path="url(#p39ee922981)">
     <use style="fill:#9e0142;stroke:#000000;" x="1218.430266" xlink:href="#m96da73b86b" y="712.76769"/>
    </g>
   </g>
   <g id="line2d_60">
    <g clip-path="url(#p39ee922981)">
     <use style="fill:#ffffbe;stroke:#000000;" x="235.083707" xlink:href="#m55632bc2de" y="223.2"/>
    </g>
   </g>
   <g id="line2d_61">
    <g clip-path="url(#p39ee922981)">
     <use style="fill:#9e0142;stroke:#000000;" x="1213.94635" xlink:href="#m96da73b86b" y="712.860422"/>
    </g>
   </g>
   <g id="line2d_62">
    <g clip-path="url(#p39ee922981)">
     <use style="fill:#9e0142;stroke:#000000;" x="1232.796949" xlink:href="#m96da73b86b" y="902.072564"/>
    </g>
   </g>
   <g id="line2d_63">
    <g clip-path="url(#p39ee922981)">
     <use style="fill:#9e0142;stroke:#000000;" x="1209.608502" xlink:href="#m96da73b86b" y="714.076533"/>
    </g>
   </g>
   <g id="line2d_64">
    <g clip-path="url(#p39ee922981)">
     <use style="fill:#9e0142;stroke:#000000;" x="1238.534424" xlink:href="#m96da73b86b" y="902.098188"/>
    </g>
   </g>
   <g id="line2d_65">
    <g clip-path="url(#p39ee922981)">
     <use style="fill:#9e0142;stroke:#000000;" x="1218.939941" xlink:href="#m96da73b86b" y="714.217441"/>
    </g>
   </g>
   <g id="line2d_66">
    <g clip-path="url(#p39ee922981)">
     <use style="fill:#9e0142;stroke:#000000;" x="1238.519278" xlink:href="#m96da73b86b" y="902.029428"/>
    </g>
   </g>
   <g id="line2d_67">
    <g clip-path="url(#p39ee922981)">
     <use style="fill:#9e0142;stroke:#000000;" x="1240.051474" xlink:href="#m96da73b86b" y="902.274531"/>
    </g>
   </g>
   <g id="line2d_68">
    <g clip-path="url(#p39ee922981)">
     <use style="fill:#9e0142;stroke:#000000;" x="1235.934032" xlink:href="#m96da73b86b" y="902.169609"/>
    </g>
   </g>
   <g id="line2d_69">
    <g clip-path="url(#p39ee922981)">
     <use style="fill:#9e0142;stroke:#000000;" x="1234.892488" xlink:href="#m96da73b86b" y="902.217267"/>
    </g>
   </g>
   <g id="line2d_70">
    <g clip-path="url(#p39ee922981)">
     <use style="fill:#9e0142;stroke:#000000;" x="1239.105917" xlink:href="#m96da73b86b" y="902.024031"/>
    </g>
   </g>
   <g id="line2d_71">
    <g clip-path="url(#p39ee922981)">
     <use style="fill:#9e0142;stroke:#000000;" x="1239.513013" xlink:href="#m96da73b86b" y="902.135861"/>
    </g>
   </g>
   <g id="line2d_72">
    <g clip-path="url(#p39ee922981)">
     <use style="stroke:#000000;" x="557.540794" xlink:href="#mf800975375" y="1104.358311"/>
    </g>
   </g>
   <g id="line2d_73">
    <g clip-path="url(#p39ee922981)">
     <use style="fill:#9e0142;stroke:#000000;" x="1242.810587" xlink:href="#m96da73b86b" y="902.289503"/>
    </g>
   </g>
   <g id="line2d_74">
    <g clip-path="url(#p39ee922981)">
     <use style="fill:#9e0142;stroke:#000000;" x="1234.991844" xlink:href="#m96da73b86b" y="902.212448"/>
    </g>
   </g>
   <g id="line2d_75">
    <g clip-path="url(#p39ee922981)">
     <use style="fill:#9e0142;stroke:#000000;" x="1234.377381" xlink:href="#m96da73b86b" y="902.27853"/>
    </g>
   </g>
   <g id="line2d_76">
    <g clip-path="url(#p39ee922981)">
     <use style="fill:#9e0142;stroke:#000000;" x="1214.783831" xlink:href="#m96da73b86b" y="712.119378"/>
    </g>
   </g>
   <g id="line2d_77">
    <g clip-path="url(#p39ee922981)">
     <use style="fill:#9e0142;stroke:#000000;" x="1239.858372" xlink:href="#m96da73b86b" y="902.032398"/>
    </g>
   </g>
   <g id="line2d_78">
    <g clip-path="url(#p39ee922981)">
     <use style="fill:#9e0142;stroke:#000000;" x="1219.511775" xlink:href="#m96da73b86b" y="714.121773"/>
    </g>
   </g>
   <g id="line2d_79">
    <g clip-path="url(#p39ee922981)">
     <use style="fill:#9e0142;stroke:#000000;" x="1216.869578" xlink:href="#m96da73b86b" y="714.148748"/>
    </g>
   </g>
   <g id="line2d_80">
    <g clip-path="url(#p39ee922981)">
     <use style="fill:#9e0142;stroke:#000000;" x="1209.389299" xlink:href="#m96da73b86b" y="713.066943"/>
    </g>
   </g>
   <g id="line2d_81">
    <g clip-path="url(#p39ee922981)">
     <use style="fill:#9e0142;stroke:#000000;" x="1243.965785" xlink:href="#m96da73b86b" y="902.27523"/>
    </g>
   </g>
   <g id="line2d_82">
    <g clip-path="url(#p39ee922981)">
     <use style="fill:#9e0142;stroke:#000000;" x="1218.145721" xlink:href="#m96da73b86b" y="714.278738"/>
    </g>
   </g>
   <g id="line2d_83">
    <g clip-path="url(#p39ee922981)">
     <use style="fill:#9e0142;stroke:#000000;" x="1212.643185" xlink:href="#m96da73b86b" y="712.966803"/>
    </g>
   </g>
   <g id="line2d_84">
    <g clip-path="url(#p39ee922981)">
     <use style="fill:#9e0142;stroke:#000000;" x="1237.671282" xlink:href="#m96da73b86b" y="902.23494"/>
    </g>
   </g>
   <g id="line2d_85">
    <g clip-path="url(#p39ee922981)">
     <use style="fill:#9e0142;stroke:#000000;" x="1236.852141" xlink:href="#m96da73b86b" y="902.149934"/>
    </g>
   </g>
   <g id="line2d_86">
    <g clip-path="url(#p39ee922981)">
     <use style="fill:#9e0142;stroke:#000000;" x="1236.476639" xlink:href="#m96da73b86b" y="902.003842"/>
    </g>
   </g>
   <g id="line2d_87">
    <g clip-path="url(#p39ee922981)">
     <use style="fill:#9e0142;stroke:#000000;" x="1244.046108" xlink:href="#m96da73b86b" y="902.274266"/>
    </g>
   </g>
   <g id="line2d_88">
    <g clip-path="url(#p39ee922981)">
     <use style="fill:#9e0142;stroke:#000000;" x="1219.946937" xlink:href="#m96da73b86b" y="713.052207"/>
    </g>
   </g>
   <g id="line2d_89">
    <g clip-path="url(#p39ee922981)">
     <use style="fill:#ffffbe;stroke:#000000;" x="264.062944" xlink:href="#m55632bc2de" y="300.242437"/>
    </g>
   </g>
   <g id="line2d_90">
    <g clip-path="url(#p39ee922981)">
     <use style="fill:#9e0142;stroke:#000000;" x="1243.974763" xlink:href="#m96da73b86b" y="902.222933"/>
    </g>
   </g>
   <g id="line2d_91">
    <g clip-path="url(#p39ee922981)">
     <use style="fill:#9e0142;stroke:#000000;" x="1210.420166" xlink:href="#m96da73b86b" y="714.840247"/>
    </g>
   </g>
   <g id="line2d_92">
    <g clip-path="url(#p39ee922981)">
     <use style="fill:#9e0142;stroke:#000000;" x="1233.087554" xlink:href="#m96da73b86b" y="902.042293"/>
    </g>
   </g>
   <g id="line2d_93">
    <g clip-path="url(#p39ee922981)">
     <use style="fill:#ffffbe;stroke:#000000;" x="230.727273" xlink:href="#m55632bc2de" y="226.194632"/>
    </g>
   </g>
   <g id="line2d_94">
    <g clip-path="url(#p39ee922981)">
     <use style="fill:#9e0142;stroke:#000000;" x="1217.314847" xlink:href="#m96da73b86b" y="713.299663"/>
    </g>
   </g>
   <g id="line2d_95">
    <g clip-path="url(#p39ee922981)">
     <use style="fill:#9e0142;stroke:#000000;" x="1240.498048" xlink:href="#m96da73b86b" y="902.299753"/>
    </g>
   </g>
   <g id="line2d_96">
    <g clip-path="url(#p39ee922981)">
     <use style="fill:#9e0142;stroke:#000000;" x="1216.931588" xlink:href="#m96da73b86b" y="714.496607"/>
    </g>
   </g>
   <g id="line2d_97">
    <g clip-path="url(#p39ee922981)">
     <use style="fill:#9e0142;stroke:#000000;" x="1243.905771" xlink:href="#m96da73b86b" y="902.062109"/>
    </g>
   </g>
   <g id="line2d_98">
    <g clip-path="url(#p39ee922981)">
     <use style="fill:#9e0142;stroke:#000000;" x="1220.873967" xlink:href="#m96da73b86b" y="712.847654"/>
    </g>
   </g>
   <g id="line2d_99">
    <g clip-path="url(#p39ee922981)">
     <use style="fill:#9e0142;stroke:#000000;" x="1240.261348" xlink:href="#m96da73b86b" y="902.202564"/>
    </g>
   </g>
   <g id="line2d_100">
    <g clip-path="url(#p39ee922981)">
     <use style="fill:#9e0142;stroke:#000000;" x="1244.358389" xlink:href="#m96da73b86b" y="901.993863"/>
    </g>
   </g>
   <g id="line2d_101">
    <g clip-path="url(#p39ee922981)">
     <use style="fill:#9e0142;stroke:#000000;" x="1213.528795" xlink:href="#m96da73b86b" y="713.124921"/>
    </g>
   </g>
   <g id="line2d_102">
    <g clip-path="url(#p39ee922981)">
     <use style="fill:#ffffbe;stroke:#000000;" x="233.480048" xlink:href="#m55632bc2de" y="223.726009"/>
    </g>
   </g>
   <g id="line2d_103">
    <g clip-path="url(#p39ee922981)">
     <use style="fill:#9e0142;stroke:#000000;" x="1240.62596" xlink:href="#m96da73b86b" y="902.210899"/>
    </g>
   </g>
   <g id="line2d_104">
    <g clip-path="url(#p39ee922981)">
     <use style="fill:#9e0142;stroke:#000000;" x="1237.249436" xlink:href="#m96da73b86b" y="902.017786"/>
    </g>
   </g>
   <g id="line2d_105">
    <g clip-path="url(#p39ee922981)">
     <use style="fill:#9e0142;stroke:#000000;" x="1242.476785" xlink:href="#m96da73b86b" y="902.230978"/>
    </g>
   </g>
   <g id="line2d_106">
    <g clip-path="url(#p39ee922981)">
     <use style="fill:#9e0142;stroke:#000000;" x="1220.668939" xlink:href="#m96da73b86b" y="714.605863"/>
    </g>
   </g>
   <g id="patch_3">
    <path d="M 180 1281.6 
L 180 172.8 
" style="fill:none;stroke:#000000;stroke-linecap:square;stroke-linejoin:miter;stroke-width:0.8;"/>
   </g>
   <g id="patch_4">
    <path d="M 1296 1281.6 
L 1296 172.8 
" style="fill:none;stroke:#000000;stroke-linecap:square;stroke-linejoin:miter;stroke-width:0.8;"/>
   </g>
   <g id="patch_5">
    <path d="M 180 1281.6 
L 1296 1281.6 
" style="fill:none;stroke:#000000;stroke-linecap:square;stroke-linejoin:miter;stroke-width:0.8;"/>
   </g>
   <g id="patch_6">
    <path d="M 180 172.8 
L 1296 172.8 
" style="fill:none;stroke:#000000;stroke-linecap:square;stroke-linejoin:miter;stroke-width:0.8;"/>
   </g>
  </g>
 </g>
 <defs>
  <clipPath id="p39ee922981">
   <rect height="1108.8" width="1116" x="180" y="172.8"/>
  </clipPath>
 </defs>
</svg>
