<?xml version="1.0" encoding="utf-8" standalone="no"?>
<!DOCTYPE svg PUBLIC "-//W3C//DTD SVG 1.1//EN"
  "http://www.w3.org/Graphics/SVG/1.1/DTD/svg11.dtd">
<!-- Created with matplotlib (https://matplotlib.org/) -->
<svg height="1440pt" version="1.1" viewBox="0 0 1440 1440" width="1440pt" xmlns="http://www.w3.org/2000/svg" xmlns:xlink="http://www.w3.org/1999/xlink">
 <defs>
  <style type="text/css">
*{stroke-linecap:butt;stroke-linejoin:round;}
  </style>
 </defs>
 <g id="figure_1">
  <g id="patch_1">
   <path d="M 0 1440 
L 1440 1440 
L 1440 0 
L 0 0 
z
" style="fill:#ffffff;"/>
  </g>
  <g id="axes_1">
   <g id="patch_2">
    <path d="M 180 1281.6 
L 1296 1281.6 
L 1296 172.8 
L 180 172.8 
z
" style="fill:#ffffff;"/>
   </g>
   <g id="matplotlib.axis_1">
    <g id="xtick_1">
     <g id="line2d_1">
      <defs>
       <path d="M 0 0 
L 0 3.5 
" id="m6e07909c4f" style="stroke:#000000;stroke-width:0.8;"/>
      </defs>
      <g>
       <use style="stroke:#000000;stroke-width:0.8;" x="285.792934" xlink:href="#m6e07909c4f" y="1281.6"/>
      </g>
     </g>
     <g id="text_1">
      <!-- −0.2 -->
      <defs>
       <path d="M 10.59375 35.5 
L 73.1875 35.5 
L 73.1875 27.203125 
L 10.59375 27.203125 
z
" id="DejaVuSans-8722"/>
       <path d="M 31.78125 66.40625 
Q 24.171875 66.40625 20.328125 58.90625 
Q 16.5 51.421875 16.5 36.375 
Q 16.5 21.390625 20.328125 13.890625 
Q 24.171875 6.390625 31.78125 6.390625 
Q 39.453125 6.390625 43.28125 13.890625 
Q 47.125 21.390625 47.125 36.375 
Q 47.125 51.421875 43.28125 58.90625 
Q 39.453125 66.40625 31.78125 66.40625 
z
M 31.78125 74.21875 
Q 44.046875 74.21875 50.515625 64.515625 
Q 56.984375 54.828125 56.984375 36.375 
Q 56.984375 17.96875 50.515625 8.265625 
Q 44.046875 -1.421875 31.78125 -1.421875 
Q 19.53125 -1.421875 13.0625 8.265625 
Q 6.59375 17.96875 6.59375 36.375 
Q 6.59375 54.828125 13.0625 64.515625 
Q 19.53125 74.21875 31.78125 74.21875 
z
" id="DejaVuSans-48"/>
       <path d="M 10.6875 12.40625 
L 21 12.40625 
L 21 0 
L 10.6875 0 
z
" id="DejaVuSans-46"/>
       <path d="M 19.1875 8.296875 
L 53.609375 8.296875 
L 53.609375 0 
L 7.328125 0 
L 7.328125 8.296875 
Q 12.9375 14.109375 22.625 23.890625 
Q 32.328125 33.6875 34.8125 36.53125 
Q 39.546875 41.84375 41.421875 45.53125 
Q 43.3125 49.21875 43.3125 52.78125 
Q 43.3125 58.59375 39.234375 62.25 
Q 35.15625 65.921875 28.609375 65.921875 
Q 23.96875 65.921875 18.8125 64.3125 
Q 13.671875 62.703125 7.8125 59.421875 
L 7.8125 69.390625 
Q 13.765625 71.78125 18.9375 73 
Q 24.125 74.21875 28.421875 74.21875 
Q 39.75 74.21875 46.484375 68.546875 
Q 53.21875 62.890625 53.21875 53.421875 
Q 53.21875 48.921875 51.53125 44.890625 
Q 49.859375 40.875 45.40625 35.40625 
Q 44.1875 33.984375 37.640625 27.21875 
Q 31.109375 20.453125 19.1875 8.296875 
z
" id="DejaVuSans-50"/>
      </defs>
      <g transform="translate(273.651528 1296.198437)scale(0.1 -0.1)">
       <use xlink:href="#DejaVuSans-8722"/>
       <use x="83.789062" xlink:href="#DejaVuSans-48"/>
       <use x="147.412109" xlink:href="#DejaVuSans-46"/>
       <use x="179.199219" xlink:href="#DejaVuSans-50"/>
      </g>
     </g>
    </g>
    <g id="xtick_2">
     <g id="line2d_2">
      <g>
       <use style="stroke:#000000;stroke-width:0.8;" x="513.532074" xlink:href="#m6e07909c4f" y="1281.6"/>
      </g>
     </g>
     <g id="text_2">
      <!-- −0.1 -->
      <defs>
       <path d="M 12.40625 8.296875 
L 28.515625 8.296875 
L 28.515625 63.921875 
L 10.984375 60.40625 
L 10.984375 69.390625 
L 28.421875 72.90625 
L 38.28125 72.90625 
L 38.28125 8.296875 
L 54.390625 8.296875 
L 54.390625 0 
L 12.40625 0 
z
" id="DejaVuSans-49"/>
      </defs>
      <g transform="translate(501.390668 1296.198437)scale(0.1 -0.1)">
       <use xlink:href="#DejaVuSans-8722"/>
       <use x="83.789062" xlink:href="#DejaVuSans-48"/>
       <use x="147.412109" xlink:href="#DejaVuSans-46"/>
       <use x="179.199219" xlink:href="#DejaVuSans-49"/>
      </g>
     </g>
    </g>
    <g id="xtick_3">
     <g id="line2d_3">
      <g>
       <use style="stroke:#000000;stroke-width:0.8;" x="741.271214" xlink:href="#m6e07909c4f" y="1281.6"/>
      </g>
     </g>
     <g id="text_3">
      <!-- 0.0 -->
      <g transform="translate(733.319652 1296.198437)scale(0.1 -0.1)">
       <use xlink:href="#DejaVuSans-48"/>
       <use x="63.623047" xlink:href="#DejaVuSans-46"/>
       <use x="95.410156" xlink:href="#DejaVuSans-48"/>
      </g>
     </g>
    </g>
    <g id="xtick_4">
     <g id="line2d_4">
      <g>
       <use style="stroke:#000000;stroke-width:0.8;" x="969.010354" xlink:href="#m6e07909c4f" y="1281.6"/>
      </g>
     </g>
     <g id="text_4">
      <!-- 0.1 -->
      <g transform="translate(961.058792 1296.198437)scale(0.1 -0.1)">
       <use xlink:href="#DejaVuSans-48"/>
       <use x="63.623047" xlink:href="#DejaVuSans-46"/>
       <use x="95.410156" xlink:href="#DejaVuSans-49"/>
      </g>
     </g>
    </g>
    <g id="xtick_5">
     <g id="line2d_5">
      <g>
       <use style="stroke:#000000;stroke-width:0.8;" x="1196.749494" xlink:href="#m6e07909c4f" y="1281.6"/>
      </g>
     </g>
     <g id="text_5">
      <!-- 0.2 -->
      <g transform="translate(1188.797932 1296.198437)scale(0.1 -0.1)">
       <use xlink:href="#DejaVuSans-48"/>
       <use x="63.623047" xlink:href="#DejaVuSans-46"/>
       <use x="95.410156" xlink:href="#DejaVuSans-50"/>
      </g>
     </g>
    </g>
   </g>
   <g id="matplotlib.axis_2">
    <g id="ytick_1">
     <g id="line2d_6">
      <defs>
       <path d="M 0 0 
L -3.5 0 
" id="m93c13b6aff" style="stroke:#000000;stroke-width:0.8;"/>
      </defs>
      <g>
       <use style="stroke:#000000;stroke-width:0.8;" x="180" xlink:href="#m93c13b6aff" y="1232.688311"/>
      </g>
     </g>
     <g id="text_6">
      <!-- −0.2 -->
      <g transform="translate(148.717187 1236.487529)scale(0.1 -0.1)">
       <use xlink:href="#DejaVuSans-8722"/>
       <use x="83.789062" xlink:href="#DejaVuSans-48"/>
       <use x="147.412109" xlink:href="#DejaVuSans-46"/>
       <use x="179.199219" xlink:href="#DejaVuSans-50"/>
      </g>
     </g>
    </g>
    <g id="ytick_2">
     <g id="line2d_7">
      <g>
       <use style="stroke:#000000;stroke-width:0.8;" x="180" xlink:href="#m93c13b6aff" y="1013.717882"/>
      </g>
     </g>
     <g id="text_7">
      <!-- −0.1 -->
      <g transform="translate(148.717187 1017.5171)scale(0.1 -0.1)">
       <use xlink:href="#DejaVuSans-8722"/>
       <use x="83.789062" xlink:href="#DejaVuSans-48"/>
       <use x="147.412109" xlink:href="#DejaVuSans-46"/>
       <use x="179.199219" xlink:href="#DejaVuSans-49"/>
      </g>
     </g>
    </g>
    <g id="ytick_3">
     <g id="line2d_8">
      <g>
       <use style="stroke:#000000;stroke-width:0.8;" x="180" xlink:href="#m93c13b6aff" y="794.747453"/>
      </g>
     </g>
     <g id="text_8">
      <!-- 0.0 -->
      <g transform="translate(157.096875 798.546671)scale(0.1 -0.1)">
       <use xlink:href="#DejaVuSans-48"/>
       <use x="63.623047" xlink:href="#DejaVuSans-46"/>
       <use x="95.410156" xlink:href="#DejaVuSans-48"/>
      </g>
     </g>
    </g>
    <g id="ytick_4">
     <g id="line2d_9">
      <g>
       <use style="stroke:#000000;stroke-width:0.8;" x="180" xlink:href="#m93c13b6aff" y="575.777024"/>
      </g>
     </g>
     <g id="text_9">
      <!-- 0.1 -->
      <g transform="translate(157.096875 579.576243)scale(0.1 -0.1)">
       <use xlink:href="#DejaVuSans-48"/>
       <use x="63.623047" xlink:href="#DejaVuSans-46"/>
       <use x="95.410156" xlink:href="#DejaVuSans-49"/>
      </g>
     </g>
    </g>
    <g id="ytick_5">
     <g id="line2d_10">
      <g>
       <use style="stroke:#000000;stroke-width:0.8;" x="180" xlink:href="#m93c13b6aff" y="356.806595"/>
      </g>
     </g>
     <g id="text_10">
      <!-- 0.2 -->
      <g transform="translate(157.096875 360.605814)scale(0.1 -0.1)">
       <use xlink:href="#DejaVuSans-48"/>
       <use x="63.623047" xlink:href="#DejaVuSans-46"/>
       <use x="95.410156" xlink:href="#DejaVuSans-50"/>
      </g>
     </g>
    </g>
   </g>
   <g id="line2d_11">
    <defs>
     <path d="M 0 3 
C 0.795609 3 1.55874 2.683901 2.12132 2.12132 
C 2.683901 1.55874 3 0.795609 3 0 
C 3 -0.795609 2.683901 -1.55874 2.12132 -2.12132 
C 1.55874 -2.683901 0.795609 -3 0 -3 
C -0.795609 -3 -1.55874 -2.683901 -2.12132 -2.12132 
C -2.683901 -1.55874 -3 -0.795609 -3 0 
C -3 0.795609 -2.683901 1.55874 -2.12132 2.12132 
C -1.55874 2.683901 -0.795609 3 0 3 
z
" id="m43beb7a347" style="stroke:#000000;"/>
    </defs>
    <g clip-path="url(#p6b33671b39)">
     <use style="stroke:#000000;" x="1011.094141" xlink:href="#m43beb7a347" y="290.6855"/>
    </g>
   </g>
   <g id="line2d_12">
    <g clip-path="url(#p6b33671b39)">
     <use style="stroke:#000000;" x="1157.006589" xlink:href="#m43beb7a347" y="1147.964542"/>
    </g>
   </g>
   <g id="line2d_13">
    <g clip-path="url(#p6b33671b39)">
     <use style="stroke:#000000;" x="1110.396829" xlink:href="#m43beb7a347" y="944.181979"/>
    </g>
   </g>
   <g id="line2d_14">
    <g clip-path="url(#p6b33671b39)">
     <use style="stroke:#000000;" x="1011.103084" xlink:href="#m43beb7a347" y="290.354312"/>
    </g>
   </g>
   <g id="line2d_15">
    <g clip-path="url(#p6b33671b39)">
     <use style="stroke:#000000;" x="1072.415594" xlink:href="#m43beb7a347" y="866.696115"/>
    </g>
   </g>
   <g id="line2d_16">
    <g clip-path="url(#p6b33671b39)">
     <use style="stroke:#000000;" x="1193.997604" xlink:href="#m43beb7a347" y="1048.940386"/>
    </g>
   </g>
   <g id="line2d_17">
    <g clip-path="url(#p6b33671b39)">
     <use style="stroke:#000000;" x="1098.135975" xlink:href="#m43beb7a347" y="556.099755"/>
    </g>
   </g>
   <g id="line2d_18">
    <g clip-path="url(#p6b33671b39)">
     <use style="stroke:#000000;" x="1133.220044" xlink:href="#m43beb7a347" y="383.893904"/>
    </g>
   </g>
   <g id="line2d_19">
    <g clip-path="url(#p6b33671b39)">
     <use style="stroke:#000000;" x="1136.656438" xlink:href="#m43beb7a347" y="382.454177"/>
    </g>
   </g>
   <g id="line2d_20">
    <g clip-path="url(#p6b33671b39)">
     <use style="stroke:#000000;" x="1180.880469" xlink:href="#m43beb7a347" y="1208.129506"/>
    </g>
   </g>
   <g id="line2d_21">
    <g clip-path="url(#p6b33671b39)">
     <use style="stroke:#000000;" x="1202.457946" xlink:href="#m43beb7a347" y="781.300537"/>
    </g>
   </g>
   <g id="line2d_22">
    <g clip-path="url(#p6b33671b39)">
     <use style="stroke:#000000;" x="1124.311509" xlink:href="#m43beb7a347" y="415.986687"/>
    </g>
   </g>
   <g id="line2d_23">
    <g clip-path="url(#p6b33671b39)">
     <use style="stroke:#000000;" x="1129.346932" xlink:href="#m43beb7a347" y="380.388701"/>
    </g>
   </g>
   <g id="line2d_24">
    <g clip-path="url(#p6b33671b39)">
     <use style="stroke:#000000;" x="1109.438267" xlink:href="#m43beb7a347" y="689.779919"/>
    </g>
   </g>
   <g id="line2d_25">
    <g clip-path="url(#p6b33671b39)">
     <use style="stroke:#000000;" x="1205.099465" xlink:href="#m43beb7a347" y="1034.251124"/>
    </g>
   </g>
   <g id="line2d_26">
    <g clip-path="url(#p6b33671b39)">
     <use style="stroke:#000000;" x="1135.303379" xlink:href="#m43beb7a347" y="377.373841"/>
    </g>
   </g>
   <g id="line2d_27">
    <g clip-path="url(#p6b33671b39)">
     <use style="stroke:#000000;" x="1002.347237" xlink:href="#m43beb7a347" y="287.493695"/>
    </g>
   </g>
   <g id="line2d_28">
    <g clip-path="url(#p6b33671b39)">
     <use style="stroke:#000000;" x="996.056131" xlink:href="#m43beb7a347" y="300.073851"/>
    </g>
   </g>
   <g id="line2d_29">
    <g clip-path="url(#p6b33671b39)">
     <use style="stroke:#000000;" x="1127.897968" xlink:href="#m43beb7a347" y="374.775725"/>
    </g>
   </g>
   <g id="line2d_30">
    <g clip-path="url(#p6b33671b39)">
     <use style="stroke:#000000;" x="1118.623751" xlink:href="#m43beb7a347" y="409.561476"/>
    </g>
   </g>
   <g id="line2d_31">
    <g clip-path="url(#p6b33671b39)">
     <use style="stroke:#000000;" x="994.881491" xlink:href="#m43beb7a347" y="302.921835"/>
    </g>
   </g>
   <g id="line2d_32">
    <g clip-path="url(#p6b33671b39)">
     <use style="stroke:#000000;" x="1058.08414" xlink:href="#m43beb7a347" y="426.25754"/>
    </g>
   </g>
   <g id="line2d_33">
    <g clip-path="url(#p6b33671b39)">
     <use style="stroke:#000000;" x="1245.272727" xlink:href="#m43beb7a347" y="1219.572342"/>
    </g>
   </g>
   <g id="line2d_34">
    <g clip-path="url(#p6b33671b39)">
     <use style="stroke:#000000;" x="1127.424475" xlink:href="#m43beb7a347" y="363.779319"/>
    </g>
   </g>
   <g id="line2d_35">
    <g clip-path="url(#p6b33671b39)">
     <use style="stroke:#000000;" x="1227.633182" xlink:href="#m43beb7a347" y="1175.603753"/>
    </g>
   </g>
   <g id="line2d_36">
    <g clip-path="url(#p6b33671b39)">
     <use style="stroke:#000000;" x="1202.895164" xlink:href="#m43beb7a347" y="1072.126417"/>
    </g>
   </g>
   <g id="line2d_37">
    <g clip-path="url(#p6b33671b39)">
     <use style="stroke:#000000;" x="1235.388111" xlink:href="#m43beb7a347" y="1231.2"/>
    </g>
   </g>
   <g id="line2d_38">
    <g clip-path="url(#p6b33671b39)">
     <use style="stroke:#000000;" x="1236.316955" xlink:href="#m43beb7a347" y="1170.587653"/>
    </g>
   </g>
   <g id="line2d_39">
    <g clip-path="url(#p6b33671b39)">
     <use style="stroke:#000000;" x="1244.984277" xlink:href="#m43beb7a347" y="1218.978123"/>
    </g>
   </g>
   <g id="line2d_40">
    <g clip-path="url(#p6b33671b39)">
     <use style="stroke:#000000;" x="1037.597302" xlink:href="#m43beb7a347" y="416.052001"/>
    </g>
   </g>
   <g id="line2d_41">
    <g clip-path="url(#p6b33671b39)">
     <use style="stroke:#000000;" x="230.727273" xlink:href="#m43beb7a347" y="223.2"/>
    </g>
   </g>
   <g id="line2d_42">
    <g clip-path="url(#p6b33671b39)">
     <use style="stroke:#000000;" x="1244.990371" xlink:href="#m43beb7a347" y="1221.65351"/>
    </g>
   </g>
   <g id="patch_3">
    <path d="M 180 1281.6 
L 180 172.8 
" style="fill:none;stroke:#000000;stroke-linecap:square;stroke-linejoin:miter;stroke-width:0.8;"/>
   </g>
   <g id="patch_4">
    <path d="M 1296 1281.6 
L 1296 172.8 
" style="fill:none;stroke:#000000;stroke-linecap:square;stroke-linejoin:miter;stroke-width:0.8;"/>
   </g>
   <g id="patch_5">
    <path d="M 180 1281.6 
L 1296 1281.6 
" style="fill:none;stroke:#000000;stroke-linecap:square;stroke-linejoin:miter;stroke-width:0.8;"/>
   </g>
   <g id="patch_6">
    <path d="M 180 172.8 
L 1296 172.8 
" style="fill:none;stroke:#000000;stroke-linecap:square;stroke-linejoin:miter;stroke-width:0.8;"/>
   </g>
  </g>
 </g>
 <defs>
  <clipPath id="p6b33671b39">
   <rect height="1108.8" width="1116" x="180" y="172.8"/>
  </clipPath>
 </defs>
</svg>
