<?xml version="1.0" encoding="utf-8" standalone="no"?>
<!DOCTYPE svg PUBLIC "-//W3C//DTD SVG 1.1//EN"
  "http://www.w3.org/Graphics/SVG/1.1/DTD/svg11.dtd">
<!-- Created with matplotlib (https://matplotlib.org/) -->
<svg height="1440pt" version="1.1" viewBox="0 0 1440 1440" width="1440pt" xmlns="http://www.w3.org/2000/svg" xmlns:xlink="http://www.w3.org/1999/xlink">
 <defs>
  <style type="text/css">
*{stroke-linecap:butt;stroke-linejoin:round;}
  </style>
 </defs>
 <g id="figure_1">
  <g id="patch_1">
   <path d="M 0 1440 
L 1440 1440 
L 1440 0 
L 0 0 
z
" style="fill:#ffffff;"/>
  </g>
  <g id="axes_1">
   <g id="patch_2">
    <path d="M 180 1281.6 
L 1296 1281.6 
L 1296 172.8 
L 180 172.8 
z
" style="fill:#ffffff;"/>
   </g>
   <g id="matplotlib.axis_1">
    <g id="xtick_1">
     <g id="line2d_1">
      <defs>
       <path d="M 0 0 
L 0 3.5 
" id="mb359c58112" style="stroke:#000000;stroke-width:0.8;"/>
      </defs>
      <g>
       <use style="stroke:#000000;stroke-width:0.8;" x="353.23911" xlink:href="#mb359c58112" y="1281.6"/>
      </g>
     </g>
     <g id="text_1">
      <!-- −0.2 -->
      <defs>
       <path d="M 10.59375 35.5 
L 73.1875 35.5 
L 73.1875 27.203125 
L 10.59375 27.203125 
z
" id="DejaVuSans-8722"/>
       <path d="M 31.78125 66.40625 
Q 24.171875 66.40625 20.328125 58.90625 
Q 16.5 51.421875 16.5 36.375 
Q 16.5 21.390625 20.328125 13.890625 
Q 24.171875 6.390625 31.78125 6.390625 
Q 39.453125 6.390625 43.28125 13.890625 
Q 47.125 21.390625 47.125 36.375 
Q 47.125 51.421875 43.28125 58.90625 
Q 39.453125 66.40625 31.78125 66.40625 
z
M 31.78125 74.21875 
Q 44.046875 74.21875 50.515625 64.515625 
Q 56.984375 54.828125 56.984375 36.375 
Q 56.984375 17.96875 50.515625 8.265625 
Q 44.046875 -1.421875 31.78125 -1.421875 
Q 19.53125 -1.421875 13.0625 8.265625 
Q 6.59375 17.96875 6.59375 36.375 
Q 6.59375 54.828125 13.0625 64.515625 
Q 19.53125 74.21875 31.78125 74.21875 
z
" id="DejaVuSans-48"/>
       <path d="M 10.6875 12.40625 
L 21 12.40625 
L 21 0 
L 10.6875 0 
z
" id="DejaVuSans-46"/>
       <path d="M 19.1875 8.296875 
L 53.609375 8.296875 
L 53.609375 0 
L 7.328125 0 
L 7.328125 8.296875 
Q 12.9375 14.109375 22.625 23.890625 
Q 32.328125 33.6875 34.8125 36.53125 
Q 39.546875 41.84375 41.421875 45.53125 
Q 43.3125 49.21875 43.3125 52.78125 
Q 43.3125 58.59375 39.234375 62.25 
Q 35.15625 65.921875 28.609375 65.921875 
Q 23.96875 65.921875 18.8125 64.3125 
Q 13.671875 62.703125 7.8125 59.421875 
L 7.8125 69.390625 
Q 13.765625 71.78125 18.9375 73 
Q 24.125 74.21875 28.421875 74.21875 
Q 39.75 74.21875 46.484375 68.546875 
Q 53.21875 62.890625 53.21875 53.421875 
Q 53.21875 48.921875 51.53125 44.890625 
Q 49.859375 40.875 45.40625 35.40625 
Q 44.1875 33.984375 37.640625 27.21875 
Q 31.109375 20.453125 19.1875 8.296875 
z
" id="DejaVuSans-50"/>
      </defs>
      <g transform="translate(341.097704 1296.198437)scale(0.1 -0.1)">
       <use xlink:href="#DejaVuSans-8722"/>
       <use x="83.789062" xlink:href="#DejaVuSans-48"/>
       <use x="147.412109" xlink:href="#DejaVuSans-46"/>
       <use x="179.199219" xlink:href="#DejaVuSans-50"/>
      </g>
     </g>
    </g>
    <g id="xtick_2">
     <g id="line2d_2">
      <g>
       <use style="stroke:#000000;stroke-width:0.8;" x="547.190995" xlink:href="#mb359c58112" y="1281.6"/>
      </g>
     </g>
     <g id="text_2">
      <!-- −0.1 -->
      <defs>
       <path d="M 12.40625 8.296875 
L 28.515625 8.296875 
L 28.515625 63.921875 
L 10.984375 60.40625 
L 10.984375 69.390625 
L 28.421875 72.90625 
L 38.28125 72.90625 
L 38.28125 8.296875 
L 54.390625 8.296875 
L 54.390625 0 
L 12.40625 0 
z
" id="DejaVuSans-49"/>
      </defs>
      <g transform="translate(535.049588 1296.198437)scale(0.1 -0.1)">
       <use xlink:href="#DejaVuSans-8722"/>
       <use x="83.789062" xlink:href="#DejaVuSans-48"/>
       <use x="147.412109" xlink:href="#DejaVuSans-46"/>
       <use x="179.199219" xlink:href="#DejaVuSans-49"/>
      </g>
     </g>
    </g>
    <g id="xtick_3">
     <g id="line2d_3">
      <g>
       <use style="stroke:#000000;stroke-width:0.8;" x="741.142879" xlink:href="#mb359c58112" y="1281.6"/>
      </g>
     </g>
     <g id="text_3">
      <!-- 0.0 -->
      <g transform="translate(733.191317 1296.198437)scale(0.1 -0.1)">
       <use xlink:href="#DejaVuSans-48"/>
       <use x="63.623047" xlink:href="#DejaVuSans-46"/>
       <use x="95.410156" xlink:href="#DejaVuSans-48"/>
      </g>
     </g>
    </g>
    <g id="xtick_4">
     <g id="line2d_4">
      <g>
       <use style="stroke:#000000;stroke-width:0.8;" x="935.094764" xlink:href="#mb359c58112" y="1281.6"/>
      </g>
     </g>
     <g id="text_4">
      <!-- 0.1 -->
      <g transform="translate(927.143201 1296.198437)scale(0.1 -0.1)">
       <use xlink:href="#DejaVuSans-48"/>
       <use x="63.623047" xlink:href="#DejaVuSans-46"/>
       <use x="95.410156" xlink:href="#DejaVuSans-49"/>
      </g>
     </g>
    </g>
    <g id="xtick_5">
     <g id="line2d_5">
      <g>
       <use style="stroke:#000000;stroke-width:0.8;" x="1129.046649" xlink:href="#mb359c58112" y="1281.6"/>
      </g>
     </g>
     <g id="text_5">
      <!-- 0.2 -->
      <g transform="translate(1121.095086 1296.198437)scale(0.1 -0.1)">
       <use xlink:href="#DejaVuSans-48"/>
       <use x="63.623047" xlink:href="#DejaVuSans-46"/>
       <use x="95.410156" xlink:href="#DejaVuSans-50"/>
      </g>
     </g>
    </g>
   </g>
   <g id="matplotlib.axis_2">
    <g id="ytick_1">
     <g id="line2d_6">
      <defs>
       <path d="M 0 0 
L -3.5 0 
" id="me257e88853" style="stroke:#000000;stroke-width:0.8;"/>
      </defs>
      <g>
       <use style="stroke:#000000;stroke-width:0.8;" x="180" xlink:href="#me257e88853" y="1214.839959"/>
      </g>
     </g>
     <g id="text_6">
      <!-- −0.2 -->
      <g transform="translate(148.717187 1218.639178)scale(0.1 -0.1)">
       <use xlink:href="#DejaVuSans-8722"/>
       <use x="83.789062" xlink:href="#DejaVuSans-48"/>
       <use x="147.412109" xlink:href="#DejaVuSans-46"/>
       <use x="179.199219" xlink:href="#DejaVuSans-50"/>
      </g>
     </g>
    </g>
    <g id="ytick_2">
     <g id="line2d_7">
      <g>
       <use style="stroke:#000000;stroke-width:0.8;" x="180" xlink:href="#me257e88853" y="983.564224"/>
      </g>
     </g>
     <g id="text_7">
      <!-- −0.1 -->
      <g transform="translate(148.717187 987.363443)scale(0.1 -0.1)">
       <use xlink:href="#DejaVuSans-8722"/>
       <use x="83.789062" xlink:href="#DejaVuSans-48"/>
       <use x="147.412109" xlink:href="#DejaVuSans-46"/>
       <use x="179.199219" xlink:href="#DejaVuSans-49"/>
      </g>
     </g>
    </g>
    <g id="ytick_3">
     <g id="line2d_8">
      <g>
       <use style="stroke:#000000;stroke-width:0.8;" x="180" xlink:href="#me257e88853" y="752.28849"/>
      </g>
     </g>
     <g id="text_8">
      <!-- 0.0 -->
      <g transform="translate(157.096875 756.087709)scale(0.1 -0.1)">
       <use xlink:href="#DejaVuSans-48"/>
       <use x="63.623047" xlink:href="#DejaVuSans-46"/>
       <use x="95.410156" xlink:href="#DejaVuSans-48"/>
      </g>
     </g>
    </g>
    <g id="ytick_4">
     <g id="line2d_9">
      <g>
       <use style="stroke:#000000;stroke-width:0.8;" x="180" xlink:href="#me257e88853" y="521.012756"/>
      </g>
     </g>
     <g id="text_9">
      <!-- 0.1 -->
      <g transform="translate(157.096875 524.811974)scale(0.1 -0.1)">
       <use xlink:href="#DejaVuSans-48"/>
       <use x="63.623047" xlink:href="#DejaVuSans-46"/>
       <use x="95.410156" xlink:href="#DejaVuSans-49"/>
      </g>
     </g>
    </g>
    <g id="ytick_5">
     <g id="line2d_10">
      <g>
       <use style="stroke:#000000;stroke-width:0.8;" x="180" xlink:href="#me257e88853" y="289.737021"/>
      </g>
     </g>
     <g id="text_10">
      <!-- 0.2 -->
      <g transform="translate(157.096875 293.53624)scale(0.1 -0.1)">
       <use xlink:href="#DejaVuSans-48"/>
       <use x="63.623047" xlink:href="#DejaVuSans-46"/>
       <use x="95.410156" xlink:href="#DejaVuSans-50"/>
      </g>
     </g>
    </g>
   </g>
   <g id="line2d_11">
    <defs>
     <path d="M 0 9 
C 2.386828 9 4.676219 8.051703 6.363961 6.363961 
C 8.051703 4.676219 9 2.386828 9 0 
C 9 -2.386828 8.051703 -4.676219 6.363961 -6.363961 
C 4.676219 -8.051703 2.386828 -9 0 -9 
C -2.386828 -9 -4.676219 -8.051703 -6.363961 -6.363961 
C -8.051703 -4.676219 -9 -2.386828 -9 0 
C -9 2.386828 -8.051703 4.676219 -6.363961 6.363961 
C -4.676219 8.051703 -2.386828 9 0 9 
z
" id="mbf5a2ef3fb" style="stroke:#000000;"/>
    </defs>
    <g clip-path="url(#paf8fef5aa3)">
     <use style="fill:#9e0142;stroke:#000000;" x="232.955227" xlink:href="#mbf5a2ef3fb" y="274.214167"/>
    </g>
   </g>
   <g id="line2d_12">
    <g clip-path="url(#paf8fef5aa3)">
     <use style="fill:#9e0142;stroke:#000000;" x="1085.708289" xlink:href="#mbf5a2ef3fb" y="230.961545"/>
    </g>
   </g>
   <g id="line2d_13">
    <g clip-path="url(#paf8fef5aa3)">
     <use style="fill:#9e0142;stroke:#000000;" x="1089.495393" xlink:href="#mbf5a2ef3fb" y="225.847056"/>
    </g>
   </g>
   <g id="line2d_14">
    <g clip-path="url(#paf8fef5aa3)">
     <use style="fill:#9e0142;stroke:#000000;" x="1090.093068" xlink:href="#mbf5a2ef3fb" y="229.558219"/>
    </g>
   </g>
   <g id="line2d_15">
    <g clip-path="url(#paf8fef5aa3)">
     <use style="fill:#9e0142;stroke:#000000;" x="233.478229" xlink:href="#mbf5a2ef3fb" y="277.992096"/>
    </g>
   </g>
   <g id="line2d_16">
    <g clip-path="url(#paf8fef5aa3)">
     <use style="fill:#9e0142;stroke:#000000;" x="235.491082" xlink:href="#mbf5a2ef3fb" y="271.190247"/>
    </g>
   </g>
   <g id="line2d_17">
    <g clip-path="url(#paf8fef5aa3)">
     <use style="fill:#9e0142;stroke:#000000;" x="1087.56294" xlink:href="#mbf5a2ef3fb" y="223.88001"/>
    </g>
   </g>
   <g id="line2d_18">
    <defs>
     <path d="M 0 3 
C 0.795609 3 1.55874 2.683901 2.12132 2.12132 
C 2.683901 1.55874 3 0.795609 3 0 
C 3 -0.795609 2.683901 -1.55874 2.12132 -2.12132 
C 1.55874 -2.683901 0.795609 -3 0 -3 
C -0.795609 -3 -1.55874 -2.683901 -2.12132 -2.12132 
C -2.683901 -1.55874 -3 -0.795609 -3 0 
C -3 0.795609 -2.683901 1.55874 -2.12132 2.12132 
C -1.55874 2.683901 -0.795609 3 0 3 
z
" id="ma0cd872d0a" style="stroke:#000000;"/>
    </defs>
    <g clip-path="url(#paf8fef5aa3)">
     <use style="stroke:#000000;" x="1245.272727" xlink:href="#ma0cd872d0a" y="1231.2"/>
    </g>
   </g>
   <g id="line2d_19">
    <g clip-path="url(#paf8fef5aa3)">
     <use style="fill:#9e0142;stroke:#000000;" x="1087.857029" xlink:href="#mbf5a2ef3fb" y="232.383534"/>
    </g>
   </g>
   <g id="line2d_20">
    <g clip-path="url(#paf8fef5aa3)">
     <use style="fill:#9e0142;stroke:#000000;" x="232.738745" xlink:href="#mbf5a2ef3fb" y="270.79698"/>
    </g>
   </g>
   <g id="line2d_21">
    <g clip-path="url(#paf8fef5aa3)">
     <use style="fill:#9e0142;stroke:#000000;" x="1090.83323" xlink:href="#mbf5a2ef3fb" y="224.359863"/>
    </g>
   </g>
   <g id="line2d_22">
    <g clip-path="url(#paf8fef5aa3)">
     <use style="fill:#9e0142;stroke:#000000;" x="1087.683357" xlink:href="#mbf5a2ef3fb" y="229.826004"/>
    </g>
   </g>
   <g id="line2d_23">
    <g clip-path="url(#paf8fef5aa3)">
     <use style="fill:#9e0142;stroke:#000000;" x="1089.648394" xlink:href="#mbf5a2ef3fb" y="223.2"/>
    </g>
   </g>
   <g id="line2d_24">
    <g clip-path="url(#paf8fef5aa3)">
     <use style="fill:#9e0142;stroke:#000000;" x="230.727273" xlink:href="#mbf5a2ef3fb" y="275.246783"/>
    </g>
   </g>
   <g id="line2d_25">
    <g clip-path="url(#paf8fef5aa3)">
     <use style="fill:#9e0142;stroke:#000000;" x="231.232995" xlink:href="#mbf5a2ef3fb" y="273.314285"/>
    </g>
   </g>
   <g id="line2d_26">
    <g clip-path="url(#paf8fef5aa3)">
     <use style="fill:#9e0142;stroke:#000000;" x="1089.072422" xlink:href="#mbf5a2ef3fb" y="224.121937"/>
    </g>
   </g>
   <g id="line2d_27">
    <g clip-path="url(#paf8fef5aa3)">
     <use style="fill:#9e0142;stroke:#000000;" x="232.484355" xlink:href="#mbf5a2ef3fb" y="278.194887"/>
    </g>
   </g>
   <g id="line2d_28">
    <g clip-path="url(#paf8fef5aa3)">
     <use style="fill:#9e0142;stroke:#000000;" x="232.218088" xlink:href="#mbf5a2ef3fb" y="275.548741"/>
    </g>
   </g>
   <g id="line2d_29">
    <g clip-path="url(#paf8fef5aa3)">
     <use style="fill:#9e0142;stroke:#000000;" x="1089.27589" xlink:href="#mbf5a2ef3fb" y="228.923999"/>
    </g>
   </g>
   <g id="line2d_30">
    <g clip-path="url(#paf8fef5aa3)">
     <use style="fill:#9e0142;stroke:#000000;" x="1085.347277" xlink:href="#mbf5a2ef3fb" y="229.830461"/>
    </g>
   </g>
   <g id="line2d_31">
    <g clip-path="url(#paf8fef5aa3)">
     <use style="fill:#9e0142;stroke:#000000;" x="1086.885585" xlink:href="#mbf5a2ef3fb" y="229.313204"/>
    </g>
   </g>
   <g id="patch_3">
    <path d="M 180 1281.6 
L 180 172.8 
" style="fill:none;stroke:#000000;stroke-linecap:square;stroke-linejoin:miter;stroke-width:0.8;"/>
   </g>
   <g id="patch_4">
    <path d="M 1296 1281.6 
L 1296 172.8 
" style="fill:none;stroke:#000000;stroke-linecap:square;stroke-linejoin:miter;stroke-width:0.8;"/>
   </g>
   <g id="patch_5">
    <path d="M 180 1281.6 
L 1296 1281.6 
" style="fill:none;stroke:#000000;stroke-linecap:square;stroke-linejoin:miter;stroke-width:0.8;"/>
   </g>
   <g id="patch_6">
    <path d="M 180 172.8 
L 1296 172.8 
" style="fill:none;stroke:#000000;stroke-linecap:square;stroke-linejoin:miter;stroke-width:0.8;"/>
   </g>
  </g>
 </g>
 <defs>
  <clipPath id="paf8fef5aa3">
   <rect height="1108.8" width="1116" x="180" y="172.8"/>
  </clipPath>
 </defs>
</svg>
