<?xml version="1.0" encoding="utf-8" standalone="no"?>
<!DOCTYPE svg PUBLIC "-//W3C//DTD SVG 1.1//EN"
  "http://www.w3.org/Graphics/SVG/1.1/DTD/svg11.dtd">
<!-- Created with matplotlib (https://matplotlib.org/) -->
<svg height="1440pt" version="1.1" viewBox="0 0 1440 1440" width="1440pt" xmlns="http://www.w3.org/2000/svg" xmlns:xlink="http://www.w3.org/1999/xlink">
 <defs>
  <style type="text/css">
*{stroke-linecap:butt;stroke-linejoin:round;}
  </style>
 </defs>
 <g id="figure_1">
  <g id="patch_1">
   <path d="M 0 1440 
L 1440 1440 
L 1440 0 
L 0 0 
z
" style="fill:#ffffff;"/>
  </g>
  <g id="axes_1">
   <g id="patch_2">
    <path d="M 180 1281.6 
L 1296 1281.6 
L 1296 172.8 
L 180 172.8 
z
" style="fill:#ffffff;"/>
   </g>
   <g id="matplotlib.axis_1">
    <g id="xtick_1">
     <g id="line2d_1">
      <defs>
       <path d="M 0 0 
L 0 3.5 
" id="m71cfcec465" style="stroke:#000000;stroke-width:0.8;"/>
      </defs>
      <g>
       <use style="stroke:#000000;stroke-width:0.8;" x="301.980653" xlink:href="#m71cfcec465" y="1281.6"/>
      </g>
     </g>
     <g id="text_1">
      <!-- −0.10 -->
      <defs>
       <path d="M 10.59375 35.5 
L 73.1875 35.5 
L 73.1875 27.203125 
L 10.59375 27.203125 
z
" id="DejaVuSans-8722"/>
       <path d="M 31.78125 66.40625 
Q 24.171875 66.40625 20.328125 58.90625 
Q 16.5 51.421875 16.5 36.375 
Q 16.5 21.390625 20.328125 13.890625 
Q 24.171875 6.390625 31.78125 6.390625 
Q 39.453125 6.390625 43.28125 13.890625 
Q 47.125 21.390625 47.125 36.375 
Q 47.125 51.421875 43.28125 58.90625 
Q 39.453125 66.40625 31.78125 66.40625 
z
M 31.78125 74.21875 
Q 44.046875 74.21875 50.515625 64.515625 
Q 56.984375 54.828125 56.984375 36.375 
Q 56.984375 17.96875 50.515625 8.265625 
Q 44.046875 -1.421875 31.78125 -1.421875 
Q 19.53125 -1.421875 13.0625 8.265625 
Q 6.59375 17.96875 6.59375 36.375 
Q 6.59375 54.828125 13.0625 64.515625 
Q 19.53125 74.21875 31.78125 74.21875 
z
" id="DejaVuSans-48"/>
       <path d="M 10.6875 12.40625 
L 21 12.40625 
L 21 0 
L 10.6875 0 
z
" id="DejaVuSans-46"/>
       <path d="M 12.40625 8.296875 
L 28.515625 8.296875 
L 28.515625 63.921875 
L 10.984375 60.40625 
L 10.984375 69.390625 
L 28.421875 72.90625 
L 38.28125 72.90625 
L 38.28125 8.296875 
L 54.390625 8.296875 
L 54.390625 0 
L 12.40625 0 
z
" id="DejaVuSans-49"/>
      </defs>
      <g transform="translate(286.657997 1296.198437)scale(0.1 -0.1)">
       <use xlink:href="#DejaVuSans-8722"/>
       <use x="83.789062" xlink:href="#DejaVuSans-48"/>
       <use x="147.412109" xlink:href="#DejaVuSans-46"/>
       <use x="179.199219" xlink:href="#DejaVuSans-49"/>
       <use x="242.822266" xlink:href="#DejaVuSans-48"/>
      </g>
     </g>
    </g>
    <g id="xtick_2">
     <g id="line2d_2">
      <g>
       <use style="stroke:#000000;stroke-width:0.8;" x="472.27176" xlink:href="#m71cfcec465" y="1281.6"/>
      </g>
     </g>
     <g id="text_2">
      <!-- −0.05 -->
      <defs>
       <path d="M 10.796875 72.90625 
L 49.515625 72.90625 
L 49.515625 64.59375 
L 19.828125 64.59375 
L 19.828125 46.734375 
Q 21.96875 47.46875 24.109375 47.828125 
Q 26.265625 48.1875 28.421875 48.1875 
Q 40.625 48.1875 47.75 41.5 
Q 54.890625 34.8125 54.890625 23.390625 
Q 54.890625 11.625 47.5625 5.09375 
Q 40.234375 -1.421875 26.90625 -1.421875 
Q 22.3125 -1.421875 17.546875 -0.640625 
Q 12.796875 0.140625 7.71875 1.703125 
L 7.71875 11.625 
Q 12.109375 9.234375 16.796875 8.0625 
Q 21.484375 6.890625 26.703125 6.890625 
Q 35.15625 6.890625 40.078125 11.328125 
Q 45.015625 15.765625 45.015625 23.390625 
Q 45.015625 31 40.078125 35.4375 
Q 35.15625 39.890625 26.703125 39.890625 
Q 22.75 39.890625 18.8125 39.015625 
Q 14.890625 38.140625 10.796875 36.28125 
z
" id="DejaVuSans-53"/>
      </defs>
      <g transform="translate(456.949103 1296.198437)scale(0.1 -0.1)">
       <use xlink:href="#DejaVuSans-8722"/>
       <use x="83.789062" xlink:href="#DejaVuSans-48"/>
       <use x="147.412109" xlink:href="#DejaVuSans-46"/>
       <use x="179.199219" xlink:href="#DejaVuSans-48"/>
       <use x="242.822266" xlink:href="#DejaVuSans-53"/>
      </g>
     </g>
    </g>
    <g id="xtick_3">
     <g id="line2d_3">
      <g>
       <use style="stroke:#000000;stroke-width:0.8;" x="642.562866" xlink:href="#m71cfcec465" y="1281.6"/>
      </g>
     </g>
     <g id="text_3">
      <!-- 0.00 -->
      <g transform="translate(631.430053 1296.198437)scale(0.1 -0.1)">
       <use xlink:href="#DejaVuSans-48"/>
       <use x="63.623047" xlink:href="#DejaVuSans-46"/>
       <use x="95.410156" xlink:href="#DejaVuSans-48"/>
       <use x="159.033203" xlink:href="#DejaVuSans-48"/>
      </g>
     </g>
    </g>
    <g id="xtick_4">
     <g id="line2d_4">
      <g>
       <use style="stroke:#000000;stroke-width:0.8;" x="812.853972" xlink:href="#m71cfcec465" y="1281.6"/>
      </g>
     </g>
     <g id="text_4">
      <!-- 0.05 -->
      <g transform="translate(801.72116 1296.198437)scale(0.1 -0.1)">
       <use xlink:href="#DejaVuSans-48"/>
       <use x="63.623047" xlink:href="#DejaVuSans-46"/>
       <use x="95.410156" xlink:href="#DejaVuSans-48"/>
       <use x="159.033203" xlink:href="#DejaVuSans-53"/>
      </g>
     </g>
    </g>
    <g id="xtick_5">
     <g id="line2d_5">
      <g>
       <use style="stroke:#000000;stroke-width:0.8;" x="983.145078" xlink:href="#m71cfcec465" y="1281.6"/>
      </g>
     </g>
     <g id="text_5">
      <!-- 0.10 -->
      <g transform="translate(972.012266 1296.198437)scale(0.1 -0.1)">
       <use xlink:href="#DejaVuSans-48"/>
       <use x="63.623047" xlink:href="#DejaVuSans-46"/>
       <use x="95.410156" xlink:href="#DejaVuSans-49"/>
       <use x="159.033203" xlink:href="#DejaVuSans-48"/>
      </g>
     </g>
    </g>
    <g id="xtick_6">
     <g id="line2d_6">
      <g>
       <use style="stroke:#000000;stroke-width:0.8;" x="1153.436184" xlink:href="#m71cfcec465" y="1281.6"/>
      </g>
     </g>
     <g id="text_6">
      <!-- 0.15 -->
      <g transform="translate(1142.303372 1296.198437)scale(0.1 -0.1)">
       <use xlink:href="#DejaVuSans-48"/>
       <use x="63.623047" xlink:href="#DejaVuSans-46"/>
       <use x="95.410156" xlink:href="#DejaVuSans-49"/>
       <use x="159.033203" xlink:href="#DejaVuSans-53"/>
      </g>
     </g>
    </g>
   </g>
   <g id="matplotlib.axis_2">
    <g id="ytick_1">
     <g id="line2d_7">
      <defs>
       <path d="M 0 0 
L -3.5 0 
" id="mca3f80497b" style="stroke:#000000;stroke-width:0.8;"/>
      </defs>
      <g>
       <use style="stroke:#000000;stroke-width:0.8;" x="180" xlink:href="#mca3f80497b" y="1222.519447"/>
      </g>
     </g>
     <g id="text_7">
      <!-- −0.10 -->
      <g transform="translate(142.354688 1226.318666)scale(0.1 -0.1)">
       <use xlink:href="#DejaVuSans-8722"/>
       <use x="83.789062" xlink:href="#DejaVuSans-48"/>
       <use x="147.412109" xlink:href="#DejaVuSans-46"/>
       <use x="179.199219" xlink:href="#DejaVuSans-49"/>
       <use x="242.822266" xlink:href="#DejaVuSans-48"/>
      </g>
     </g>
    </g>
    <g id="ytick_2">
     <g id="line2d_8">
      <g>
       <use style="stroke:#000000;stroke-width:0.8;" x="180" xlink:href="#mca3f80497b" y="1071.585349"/>
      </g>
     </g>
     <g id="text_8">
      <!-- −0.05 -->
      <g transform="translate(142.354688 1075.384567)scale(0.1 -0.1)">
       <use xlink:href="#DejaVuSans-8722"/>
       <use x="83.789062" xlink:href="#DejaVuSans-48"/>
       <use x="147.412109" xlink:href="#DejaVuSans-46"/>
       <use x="179.199219" xlink:href="#DejaVuSans-48"/>
       <use x="242.822266" xlink:href="#DejaVuSans-53"/>
      </g>
     </g>
    </g>
    <g id="ytick_3">
     <g id="line2d_9">
      <g>
       <use style="stroke:#000000;stroke-width:0.8;" x="180" xlink:href="#mca3f80497b" y="920.65125"/>
      </g>
     </g>
     <g id="text_9">
      <!-- 0.00 -->
      <g transform="translate(150.734375 924.450469)scale(0.1 -0.1)">
       <use xlink:href="#DejaVuSans-48"/>
       <use x="63.623047" xlink:href="#DejaVuSans-46"/>
       <use x="95.410156" xlink:href="#DejaVuSans-48"/>
       <use x="159.033203" xlink:href="#DejaVuSans-48"/>
      </g>
     </g>
    </g>
    <g id="ytick_4">
     <g id="line2d_10">
      <g>
       <use style="stroke:#000000;stroke-width:0.8;" x="180" xlink:href="#mca3f80497b" y="769.717152"/>
      </g>
     </g>
     <g id="text_10">
      <!-- 0.05 -->
      <g transform="translate(150.734375 773.516371)scale(0.1 -0.1)">
       <use xlink:href="#DejaVuSans-48"/>
       <use x="63.623047" xlink:href="#DejaVuSans-46"/>
       <use x="95.410156" xlink:href="#DejaVuSans-48"/>
       <use x="159.033203" xlink:href="#DejaVuSans-53"/>
      </g>
     </g>
    </g>
    <g id="ytick_5">
     <g id="line2d_11">
      <g>
       <use style="stroke:#000000;stroke-width:0.8;" x="180" xlink:href="#mca3f80497b" y="618.783054"/>
      </g>
     </g>
     <g id="text_11">
      <!-- 0.10 -->
      <g transform="translate(150.734375 622.582273)scale(0.1 -0.1)">
       <use xlink:href="#DejaVuSans-48"/>
       <use x="63.623047" xlink:href="#DejaVuSans-46"/>
       <use x="95.410156" xlink:href="#DejaVuSans-49"/>
       <use x="159.033203" xlink:href="#DejaVuSans-48"/>
      </g>
     </g>
    </g>
    <g id="ytick_6">
     <g id="line2d_12">
      <g>
       <use style="stroke:#000000;stroke-width:0.8;" x="180" xlink:href="#mca3f80497b" y="467.848956"/>
      </g>
     </g>
     <g id="text_12">
      <!-- 0.15 -->
      <g transform="translate(150.734375 471.648174)scale(0.1 -0.1)">
       <use xlink:href="#DejaVuSans-48"/>
       <use x="63.623047" xlink:href="#DejaVuSans-46"/>
       <use x="95.410156" xlink:href="#DejaVuSans-49"/>
       <use x="159.033203" xlink:href="#DejaVuSans-53"/>
      </g>
     </g>
    </g>
    <g id="ytick_7">
     <g id="line2d_13">
      <g>
       <use style="stroke:#000000;stroke-width:0.8;" x="180" xlink:href="#mca3f80497b" y="316.914857"/>
      </g>
     </g>
     <g id="text_13">
      <!-- 0.20 -->
      <defs>
       <path d="M 19.1875 8.296875 
L 53.609375 8.296875 
L 53.609375 0 
L 7.328125 0 
L 7.328125 8.296875 
Q 12.9375 14.109375 22.625 23.890625 
Q 32.328125 33.6875 34.8125 36.53125 
Q 39.546875 41.84375 41.421875 45.53125 
Q 43.3125 49.21875 43.3125 52.78125 
Q 43.3125 58.59375 39.234375 62.25 
Q 35.15625 65.921875 28.609375 65.921875 
Q 23.96875 65.921875 18.8125 64.3125 
Q 13.671875 62.703125 7.8125 59.421875 
L 7.8125 69.390625 
Q 13.765625 71.78125 18.9375 73 
Q 24.125 74.21875 28.421875 74.21875 
Q 39.75 74.21875 46.484375 68.546875 
Q 53.21875 62.890625 53.21875 53.421875 
Q 53.21875 48.921875 51.53125 44.890625 
Q 49.859375 40.875 45.40625 35.40625 
Q 44.1875 33.984375 37.640625 27.21875 
Q 31.109375 20.453125 19.1875 8.296875 
z
" id="DejaVuSans-50"/>
      </defs>
      <g transform="translate(150.734375 320.714076)scale(0.1 -0.1)">
       <use xlink:href="#DejaVuSans-48"/>
       <use x="63.623047" xlink:href="#DejaVuSans-46"/>
       <use x="95.410156" xlink:href="#DejaVuSans-50"/>
       <use x="159.033203" xlink:href="#DejaVuSans-48"/>
      </g>
     </g>
    </g>
   </g>
   <g id="line2d_14">
    <defs>
     <path d="M 0 3 
C 0.795609 3 1.55874 2.683901 2.12132 2.12132 
C 2.683901 1.55874 3 0.795609 3 0 
C 3 -0.795609 2.683901 -1.55874 2.12132 -2.12132 
C 1.55874 -2.683901 0.795609 -3 0 -3 
C -0.795609 -3 -1.55874 -2.683901 -2.12132 -2.12132 
C -2.683901 -1.55874 -3 -0.795609 -3 0 
C -3 0.795609 -2.683901 1.55874 -2.12132 2.12132 
C -1.55874 2.683901 -0.795609 3 0 3 
z
" id="m93655e55ad" style="stroke:#000000;"/>
    </defs>
    <g clip-path="url(#p10ea30b4c8)">
     <use style="stroke:#000000;" x="1096.335701" xlink:href="#m93655e55ad" y="1030.590117"/>
    </g>
   </g>
   <g id="line2d_15">
    <g clip-path="url(#p10ea30b4c8)">
     <use style="stroke:#000000;" x="1225.526138" xlink:href="#m93655e55ad" y="1199.489642"/>
    </g>
   </g>
   <g id="line2d_16">
    <g clip-path="url(#p10ea30b4c8)">
     <use style="stroke:#000000;" x="1224.781767" xlink:href="#m93655e55ad" y="1195.81035"/>
    </g>
   </g>
   <g id="line2d_17">
    <g clip-path="url(#p10ea30b4c8)">
     <use style="stroke:#000000;" x="840.461424" xlink:href="#m93655e55ad" y="232.088459"/>
    </g>
   </g>
   <g id="line2d_18">
    <g clip-path="url(#p10ea30b4c8)">
     <use style="stroke:#000000;" x="870.469056" xlink:href="#m93655e55ad" y="312.950867"/>
    </g>
   </g>
   <g id="line2d_19">
    <defs>
     <path d="M 0 9 
C 2.386828 9 4.676219 8.051703 6.363961 6.363961 
C 8.051703 4.676219 9 2.386828 9 0 
C 9 -2.386828 8.051703 -4.676219 6.363961 -6.363961 
C 4.676219 -8.051703 2.386828 -9 0 -9 
C -2.386828 -9 -4.676219 -8.051703 -6.363961 -6.363961 
C -8.051703 -4.676219 -9 -2.386828 -9 0 
C -9 2.386828 -8.051703 4.676219 -6.363961 6.363961 
C -4.676219 8.051703 -2.386828 9 0 9 
z
" id="m8455829c3d" style="stroke:#000000;"/>
    </defs>
    <g clip-path="url(#p10ea30b4c8)">
     <use style="fill:#9e0142;stroke:#000000;" x="1245.272727" xlink:href="#m8455829c3d" y="1193.062479"/>
    </g>
   </g>
   <g id="line2d_20">
    <g clip-path="url(#p10ea30b4c8)">
     <use style="stroke:#000000;" x="793.025995" xlink:href="#m93655e55ad" y="575.083882"/>
    </g>
   </g>
   <g id="line2d_21">
    <g clip-path="url(#p10ea30b4c8)">
     <use style="stroke:#000000;" x="908.135855" xlink:href="#m93655e55ad" y="903.155794"/>
    </g>
   </g>
   <g id="line2d_22">
    <g clip-path="url(#p10ea30b4c8)">
     <use style="stroke:#000000;" x="1211.130664" xlink:href="#m93655e55ad" y="1211.79028"/>
    </g>
   </g>
   <g id="line2d_23">
    <g clip-path="url(#p10ea30b4c8)">
     <use style="stroke:#000000;" x="929.018288" xlink:href="#m93655e55ad" y="349.691551"/>
    </g>
   </g>
   <g id="line2d_24">
    <g clip-path="url(#p10ea30b4c8)">
     <use style="stroke:#000000;" x="915.58623" xlink:href="#m93655e55ad" y="311.189714"/>
    </g>
   </g>
   <g id="line2d_25">
    <g clip-path="url(#p10ea30b4c8)">
     <use style="stroke:#000000;" x="917.600631" xlink:href="#m93655e55ad" y="306.341927"/>
    </g>
   </g>
   <g id="line2d_26">
    <g clip-path="url(#p10ea30b4c8)">
     <use style="stroke:#000000;" x="816.292404" xlink:href="#m93655e55ad" y="410.465924"/>
    </g>
   </g>
   <g id="line2d_27">
    <g clip-path="url(#p10ea30b4c8)">
     <use style="stroke:#000000;" x="829.66236" xlink:href="#m93655e55ad" y="230.729912"/>
    </g>
   </g>
   <g id="line2d_28">
    <g clip-path="url(#p10ea30b4c8)">
     <use style="stroke:#000000;" x="737.637336" xlink:href="#m93655e55ad" y="521.658369"/>
    </g>
   </g>
   <g id="line2d_29">
    <g clip-path="url(#p10ea30b4c8)">
     <use style="stroke:#000000;" x="819.3442" xlink:href="#m93655e55ad" y="491.049107"/>
    </g>
   </g>
   <g id="line2d_30">
    <g clip-path="url(#p10ea30b4c8)">
     <use style="stroke:#000000;" x="1229.806334" xlink:href="#m93655e55ad" y="1196.734644"/>
    </g>
   </g>
   <g id="line2d_31">
    <g clip-path="url(#p10ea30b4c8)">
     <use style="stroke:#000000;" x="1030.874427" xlink:href="#m93655e55ad" y="624.542238"/>
    </g>
   </g>
   <g id="line2d_32">
    <g clip-path="url(#p10ea30b4c8)">
     <use style="stroke:#000000;" x="1151.027796" xlink:href="#m93655e55ad" y="1089.742932"/>
    </g>
   </g>
   <g id="line2d_33">
    <g clip-path="url(#p10ea30b4c8)">
     <use style="stroke:#000000;" x="1217.71199" xlink:href="#m93655e55ad" y="1217.875588"/>
    </g>
   </g>
   <g id="line2d_34">
    <g clip-path="url(#p10ea30b4c8)">
     <use style="stroke:#000000;" x="980.362732" xlink:href="#m93655e55ad" y="400.299971"/>
    </g>
   </g>
   <g id="line2d_35">
    <g clip-path="url(#p10ea30b4c8)">
     <use style="stroke:#000000;" x="910.69503" xlink:href="#m93655e55ad" y="300.173491"/>
    </g>
   </g>
   <g id="line2d_36">
    <g clip-path="url(#p10ea30b4c8)">
     <use style="stroke:#000000;" x="1205.14582" xlink:href="#m93655e55ad" y="1209.270218"/>
    </g>
   </g>
   <g id="line2d_37">
    <g clip-path="url(#p10ea30b4c8)">
     <use style="stroke:#000000;" x="1225.385621" xlink:href="#m93655e55ad" y="1197.019856"/>
    </g>
   </g>
   <g id="line2d_38">
    <g clip-path="url(#p10ea30b4c8)">
     <use style="stroke:#000000;" x="1202.492129" xlink:href="#m93655e55ad" y="1209.315708"/>
    </g>
   </g>
   <g id="line2d_39">
    <g clip-path="url(#p10ea30b4c8)">
     <use style="stroke:#000000;" x="1221.11779" xlink:href="#m93655e55ad" y="1192.219808"/>
    </g>
   </g>
   <g id="line2d_40">
    <g clip-path="url(#p10ea30b4c8)">
     <use style="fill:#9e0142;stroke:#000000;" x="1241.458725" xlink:href="#m8455829c3d" y="1195.966944"/>
    </g>
   </g>
   <g id="line2d_41">
    <g clip-path="url(#p10ea30b4c8)">
     <use style="stroke:#000000;" x="1210.726593" xlink:href="#m93655e55ad" y="1048.709845"/>
    </g>
   </g>
   <g id="line2d_42">
    <g clip-path="url(#p10ea30b4c8)">
     <use style="stroke:#000000;" x="1220.409963" xlink:href="#m93655e55ad" y="1192.313984"/>
    </g>
   </g>
   <g id="line2d_43">
    <g clip-path="url(#p10ea30b4c8)">
     <use style="stroke:#000000;" x="1223.656413" xlink:href="#m93655e55ad" y="1191.301169"/>
    </g>
   </g>
   <g id="line2d_44">
    <g clip-path="url(#p10ea30b4c8)">
     <use style="stroke:#000000;" x="1054.176117" xlink:href="#m93655e55ad" y="579.93845"/>
    </g>
   </g>
   <g id="line2d_45">
    <defs>
     <path d="M 0 9 
C 2.386828 9 4.676219 8.051703 6.363961 6.363961 
C 8.051703 4.676219 9 2.386828 9 0 
C 9 -2.386828 8.051703 -4.676219 6.363961 -6.363961 
C 4.676219 -8.051703 2.386828 -9 0 -9 
C -2.386828 -9 -4.676219 -8.051703 -6.363961 -6.363961 
C -8.051703 -4.676219 -9 -2.386828 -9 0 
C -9 2.386828 -8.051703 4.676219 -6.363961 6.363961 
C -4.676219 8.051703 -2.386828 9 0 9 
z
" id="md877ca8480" style="stroke:#000000;"/>
    </defs>
    <g clip-path="url(#p10ea30b4c8)">
     <use style="fill:#ffffbe;stroke:#000000;" x="1052.279624" xlink:href="#md877ca8480" y="495.491213"/>
    </g>
   </g>
   <g id="line2d_46">
    <g clip-path="url(#p10ea30b4c8)">
     <use style="stroke:#000000;" x="901.513287" xlink:href="#m93655e55ad" y="433.331833"/>
    </g>
   </g>
   <g id="line2d_47">
    <g clip-path="url(#p10ea30b4c8)">
     <use style="fill:#9e0142;stroke:#000000;" x="1236.539044" xlink:href="#m8455829c3d" y="1192.563312"/>
    </g>
   </g>
   <g id="line2d_48">
    <g clip-path="url(#p10ea30b4c8)">
     <use style="stroke:#000000;" x="821.62994" xlink:href="#m93655e55ad" y="236.508307"/>
    </g>
   </g>
   <g id="line2d_49">
    <g clip-path="url(#p10ea30b4c8)">
     <use style="fill:#9e0142;stroke:#000000;" x="1236.347402" xlink:href="#m8455829c3d" y="1193.382196"/>
    </g>
   </g>
   <g id="line2d_50">
    <g clip-path="url(#p10ea30b4c8)">
     <use style="fill:#9e0142;stroke:#000000;" x="1243.934281" xlink:href="#m8455829c3d" y="1193.362527"/>
    </g>
   </g>
   <g id="line2d_51">
    <g clip-path="url(#p10ea30b4c8)">
     <use style="fill:#ffffbe;stroke:#000000;" x="1033.692576" xlink:href="#md877ca8480" y="455.410762"/>
    </g>
   </g>
   <g id="line2d_52">
    <g clip-path="url(#p10ea30b4c8)">
     <use style="stroke:#000000;" x="1204.18771" xlink:href="#m93655e55ad" y="1209.737532"/>
    </g>
   </g>
   <g id="line2d_53">
    <g clip-path="url(#p10ea30b4c8)">
     <use style="stroke:#000000;" x="955.949373" xlink:href="#m93655e55ad" y="472.120276"/>
    </g>
   </g>
   <g id="line2d_54">
    <g clip-path="url(#p10ea30b4c8)">
     <use style="stroke:#000000;" x="1056.866223" xlink:href="#m93655e55ad" y="580.160719"/>
    </g>
   </g>
   <g id="line2d_55">
    <g clip-path="url(#p10ea30b4c8)">
     <use style="stroke:#000000;" x="230.727273" xlink:href="#m93655e55ad" y="941.67408"/>
    </g>
   </g>
   <g id="line2d_56">
    <g clip-path="url(#p10ea30b4c8)">
     <use style="stroke:#000000;" x="1026.902888" xlink:href="#m93655e55ad" y="850.058172"/>
    </g>
   </g>
   <g id="line2d_57">
    <g clip-path="url(#p10ea30b4c8)">
     <use style="fill:#9e0142;stroke:#000000;" x="1245.202999" xlink:href="#m8455829c3d" y="1195.163132"/>
    </g>
   </g>
   <g id="line2d_58">
    <g clip-path="url(#p10ea30b4c8)">
     <use style="stroke:#000000;" x="892.392502" xlink:href="#m93655e55ad" y="242.820553"/>
    </g>
   </g>
   <g id="line2d_59">
    <g clip-path="url(#p10ea30b4c8)">
     <use style="stroke:#000000;" x="1226.075221" xlink:href="#m93655e55ad" y="1231.2"/>
    </g>
   </g>
   <g id="line2d_60">
    <g clip-path="url(#p10ea30b4c8)">
     <use style="stroke:#000000;" x="820.555177" xlink:href="#m93655e55ad" y="223.2"/>
    </g>
   </g>
   <g id="line2d_61">
    <g clip-path="url(#p10ea30b4c8)">
     <use style="stroke:#000000;" x="1056.535386" xlink:href="#m93655e55ad" y="508.318518"/>
    </g>
   </g>
   <g id="line2d_62">
    <g clip-path="url(#p10ea30b4c8)">
     <use style="stroke:#000000;" x="1042.562689" xlink:href="#m93655e55ad" y="821.51306"/>
    </g>
   </g>
   <g id="line2d_63">
    <g clip-path="url(#p10ea30b4c8)">
     <use style="fill:#9e0142;stroke:#000000;" x="1242.275104" xlink:href="#m8455829c3d" y="1194.860093"/>
    </g>
   </g>
   <g id="line2d_64">
    <g clip-path="url(#p10ea30b4c8)">
     <use style="fill:#ffffbe;stroke:#000000;" x="1054.315068" xlink:href="#md877ca8480" y="489.149586"/>
    </g>
   </g>
   <g id="line2d_65">
    <g clip-path="url(#p10ea30b4c8)">
     <use style="stroke:#000000;" x="1026.803334" xlink:href="#m93655e55ad" y="850.154268"/>
    </g>
   </g>
   <g id="line2d_66">
    <g clip-path="url(#p10ea30b4c8)">
     <use style="stroke:#000000;" x="1039.802897" xlink:href="#m93655e55ad" y="727.151573"/>
    </g>
   </g>
   <g id="line2d_67">
    <g clip-path="url(#p10ea30b4c8)">
     <use style="fill:#9e0142;stroke:#000000;" x="1240.705353" xlink:href="#m8455829c3d" y="1192.863134"/>
    </g>
   </g>
   <g id="line2d_68">
    <g clip-path="url(#p10ea30b4c8)">
     <use style="fill:#ffffbe;stroke:#000000;" x="1049.74957" xlink:href="#md877ca8480" y="495.165074"/>
    </g>
   </g>
   <g id="line2d_69">
    <g clip-path="url(#p10ea30b4c8)">
     <use style="stroke:#000000;" x="623.035962" xlink:href="#m93655e55ad" y="458.578165"/>
    </g>
   </g>
   <g id="line2d_70">
    <g clip-path="url(#p10ea30b4c8)">
     <use style="fill:#ffffbe;stroke:#000000;" x="1050.61125" xlink:href="#md877ca8480" y="486.248074"/>
    </g>
   </g>
   <g id="line2d_71">
    <g clip-path="url(#p10ea30b4c8)">
     <use style="fill:#9e0142;stroke:#000000;" x="1243.911218" xlink:href="#m8455829c3d" y="1196.338837"/>
    </g>
   </g>
   <g id="patch_3">
    <path d="M 180 1281.6 
L 180 172.8 
" style="fill:none;stroke:#000000;stroke-linecap:square;stroke-linejoin:miter;stroke-width:0.8;"/>
   </g>
   <g id="patch_4">
    <path d="M 1296 1281.6 
L 1296 172.8 
" style="fill:none;stroke:#000000;stroke-linecap:square;stroke-linejoin:miter;stroke-width:0.8;"/>
   </g>
   <g id="patch_5">
    <path d="M 180 1281.6 
L 1296 1281.6 
" style="fill:none;stroke:#000000;stroke-linecap:square;stroke-linejoin:miter;stroke-width:0.8;"/>
   </g>
   <g id="patch_6">
    <path d="M 180 172.8 
L 1296 172.8 
" style="fill:none;stroke:#000000;stroke-linecap:square;stroke-linejoin:miter;stroke-width:0.8;"/>
   </g>
  </g>
 </g>
 <defs>
  <clipPath id="p10ea30b4c8">
   <rect height="1108.8" width="1116" x="180" y="172.8"/>
  </clipPath>
 </defs>
</svg>
