<?xml version="1.0" encoding="utf-8" standalone="no"?>
<!DOCTYPE svg PUBLIC "-//W3C//DTD SVG 1.1//EN"
  "http://www.w3.org/Graphics/SVG/1.1/DTD/svg11.dtd">
<!-- Created with matplotlib (https://matplotlib.org/) -->
<svg height="1440pt" version="1.1" viewBox="0 0 1440 1440" width="1440pt" xmlns="http://www.w3.org/2000/svg" xmlns:xlink="http://www.w3.org/1999/xlink">
 <defs>
  <style type="text/css">
*{stroke-linecap:butt;stroke-linejoin:round;}
  </style>
 </defs>
 <g id="figure_1">
  <g id="patch_1">
   <path d="M 0 1440 
L 1440 1440 
L 1440 0 
L 0 0 
z
" style="fill:#ffffff;"/>
  </g>
  <g id="axes_1">
   <g id="patch_2">
    <path d="M 180 1281.6 
L 1296 1281.6 
L 1296 172.8 
L 180 172.8 
z
" style="fill:#ffffff;"/>
   </g>
   <g id="matplotlib.axis_1">
    <g id="xtick_1">
     <g id="line2d_1">
      <defs>
       <path d="M 0 0 
L 0 3.5 
" id="m347fdeccda" style="stroke:#000000;stroke-width:0.8;"/>
      </defs>
      <g>
       <use style="stroke:#000000;stroke-width:0.8;" x="364.387501" xlink:href="#m347fdeccda" y="1281.6"/>
      </g>
     </g>
     <g id="text_1">
      <!-- 0.00 -->
      <defs>
       <path d="M 31.78125 66.40625 
Q 24.171875 66.40625 20.328125 58.90625 
Q 16.5 51.421875 16.5 36.375 
Q 16.5 21.390625 20.328125 13.890625 
Q 24.171875 6.390625 31.78125 6.390625 
Q 39.453125 6.390625 43.28125 13.890625 
Q 47.125 21.390625 47.125 36.375 
Q 47.125 51.421875 43.28125 58.90625 
Q 39.453125 66.40625 31.78125 66.40625 
z
M 31.78125 74.21875 
Q 44.046875 74.21875 50.515625 64.515625 
Q 56.984375 54.828125 56.984375 36.375 
Q 56.984375 17.96875 50.515625 8.265625 
Q 44.046875 -1.421875 31.78125 -1.421875 
Q 19.53125 -1.421875 13.0625 8.265625 
Q 6.59375 17.96875 6.59375 36.375 
Q 6.59375 54.828125 13.0625 64.515625 
Q 19.53125 74.21875 31.78125 74.21875 
z
" id="DejaVuSans-48"/>
       <path d="M 10.6875 12.40625 
L 21 12.40625 
L 21 0 
L 10.6875 0 
z
" id="DejaVuSans-46"/>
      </defs>
      <g transform="translate(353.254689 1296.198437)scale(0.1 -0.1)">
       <use xlink:href="#DejaVuSans-48"/>
       <use x="63.623047" xlink:href="#DejaVuSans-46"/>
       <use x="95.410156" xlink:href="#DejaVuSans-48"/>
       <use x="159.033203" xlink:href="#DejaVuSans-48"/>
      </g>
     </g>
    </g>
    <g id="xtick_2">
     <g id="line2d_2">
      <g>
       <use style="stroke:#000000;stroke-width:0.8;" x="582.148377" xlink:href="#m347fdeccda" y="1281.6"/>
      </g>
     </g>
     <g id="text_2">
      <!-- 0.05 -->
      <defs>
       <path d="M 10.796875 72.90625 
L 49.515625 72.90625 
L 49.515625 64.59375 
L 19.828125 64.59375 
L 19.828125 46.734375 
Q 21.96875 47.46875 24.109375 47.828125 
Q 26.265625 48.1875 28.421875 48.1875 
Q 40.625 48.1875 47.75 41.5 
Q 54.890625 34.8125 54.890625 23.390625 
Q 54.890625 11.625 47.5625 5.09375 
Q 40.234375 -1.421875 26.90625 -1.421875 
Q 22.3125 -1.421875 17.546875 -0.640625 
Q 12.796875 0.140625 7.71875 1.703125 
L 7.71875 11.625 
Q 12.109375 9.234375 16.796875 8.0625 
Q 21.484375 6.890625 26.703125 6.890625 
Q 35.15625 6.890625 40.078125 11.328125 
Q 45.015625 15.765625 45.015625 23.390625 
Q 45.015625 31 40.078125 35.4375 
Q 35.15625 39.890625 26.703125 39.890625 
Q 22.75 39.890625 18.8125 39.015625 
Q 14.890625 38.140625 10.796875 36.28125 
z
" id="DejaVuSans-53"/>
      </defs>
      <g transform="translate(571.015565 1296.198437)scale(0.1 -0.1)">
       <use xlink:href="#DejaVuSans-48"/>
       <use x="63.623047" xlink:href="#DejaVuSans-46"/>
       <use x="95.410156" xlink:href="#DejaVuSans-48"/>
       <use x="159.033203" xlink:href="#DejaVuSans-53"/>
      </g>
     </g>
    </g>
    <g id="xtick_3">
     <g id="line2d_3">
      <g>
       <use style="stroke:#000000;stroke-width:0.8;" x="799.909253" xlink:href="#m347fdeccda" y="1281.6"/>
      </g>
     </g>
     <g id="text_3">
      <!-- 0.10 -->
      <defs>
       <path d="M 12.40625 8.296875 
L 28.515625 8.296875 
L 28.515625 63.921875 
L 10.984375 60.40625 
L 10.984375 69.390625 
L 28.421875 72.90625 
L 38.28125 72.90625 
L 38.28125 8.296875 
L 54.390625 8.296875 
L 54.390625 0 
L 12.40625 0 
z
" id="DejaVuSans-49"/>
      </defs>
      <g transform="translate(788.776441 1296.198437)scale(0.1 -0.1)">
       <use xlink:href="#DejaVuSans-48"/>
       <use x="63.623047" xlink:href="#DejaVuSans-46"/>
       <use x="95.410156" xlink:href="#DejaVuSans-49"/>
       <use x="159.033203" xlink:href="#DejaVuSans-48"/>
      </g>
     </g>
    </g>
    <g id="xtick_4">
     <g id="line2d_4">
      <g>
       <use style="stroke:#000000;stroke-width:0.8;" x="1017.670129" xlink:href="#m347fdeccda" y="1281.6"/>
      </g>
     </g>
     <g id="text_4">
      <!-- 0.15 -->
      <g transform="translate(1006.537316 1296.198437)scale(0.1 -0.1)">
       <use xlink:href="#DejaVuSans-48"/>
       <use x="63.623047" xlink:href="#DejaVuSans-46"/>
       <use x="95.410156" xlink:href="#DejaVuSans-49"/>
       <use x="159.033203" xlink:href="#DejaVuSans-53"/>
      </g>
     </g>
    </g>
    <g id="xtick_5">
     <g id="line2d_5">
      <g>
       <use style="stroke:#000000;stroke-width:0.8;" x="1235.431005" xlink:href="#m347fdeccda" y="1281.6"/>
      </g>
     </g>
     <g id="text_5">
      <!-- 0.20 -->
      <defs>
       <path d="M 19.1875 8.296875 
L 53.609375 8.296875 
L 53.609375 0 
L 7.328125 0 
L 7.328125 8.296875 
Q 12.9375 14.109375 22.625 23.890625 
Q 32.328125 33.6875 34.8125 36.53125 
Q 39.546875 41.84375 41.421875 45.53125 
Q 43.3125 49.21875 43.3125 52.78125 
Q 43.3125 58.59375 39.234375 62.25 
Q 35.15625 65.921875 28.609375 65.921875 
Q 23.96875 65.921875 18.8125 64.3125 
Q 13.671875 62.703125 7.8125 59.421875 
L 7.8125 69.390625 
Q 13.765625 71.78125 18.9375 73 
Q 24.125 74.21875 28.421875 74.21875 
Q 39.75 74.21875 46.484375 68.546875 
Q 53.21875 62.890625 53.21875 53.421875 
Q 53.21875 48.921875 51.53125 44.890625 
Q 49.859375 40.875 45.40625 35.40625 
Q 44.1875 33.984375 37.640625 27.21875 
Q 31.109375 20.453125 19.1875 8.296875 
z
" id="DejaVuSans-50"/>
      </defs>
      <g transform="translate(1224.298192 1296.198437)scale(0.1 -0.1)">
       <use xlink:href="#DejaVuSans-48"/>
       <use x="63.623047" xlink:href="#DejaVuSans-46"/>
       <use x="95.410156" xlink:href="#DejaVuSans-50"/>
       <use x="159.033203" xlink:href="#DejaVuSans-48"/>
      </g>
     </g>
    </g>
   </g>
   <g id="matplotlib.axis_2">
    <g id="ytick_1">
     <g id="line2d_6">
      <defs>
       <path d="M 0 0 
L -3.5 0 
" id="m245963f889" style="stroke:#000000;stroke-width:0.8;"/>
      </defs>
      <g>
       <use style="stroke:#000000;stroke-width:0.8;" x="180" xlink:href="#m245963f889" y="1239.243475"/>
      </g>
     </g>
     <g id="text_6">
      <!-- −0.15 -->
      <defs>
       <path d="M 10.59375 35.5 
L 73.1875 35.5 
L 73.1875 27.203125 
L 10.59375 27.203125 
z
" id="DejaVuSans-8722"/>
      </defs>
      <g transform="translate(142.354688 1243.042693)scale(0.1 -0.1)">
       <use xlink:href="#DejaVuSans-8722"/>
       <use x="83.789062" xlink:href="#DejaVuSans-48"/>
       <use x="147.412109" xlink:href="#DejaVuSans-46"/>
       <use x="179.199219" xlink:href="#DejaVuSans-49"/>
       <use x="242.822266" xlink:href="#DejaVuSans-53"/>
      </g>
     </g>
    </g>
    <g id="ytick_2">
     <g id="line2d_7">
      <g>
       <use style="stroke:#000000;stroke-width:0.8;" x="180" xlink:href="#m245963f889" y="1113.127376"/>
      </g>
     </g>
     <g id="text_7">
      <!-- −0.10 -->
      <g transform="translate(142.354688 1116.926594)scale(0.1 -0.1)">
       <use xlink:href="#DejaVuSans-8722"/>
       <use x="83.789062" xlink:href="#DejaVuSans-48"/>
       <use x="147.412109" xlink:href="#DejaVuSans-46"/>
       <use x="179.199219" xlink:href="#DejaVuSans-49"/>
       <use x="242.822266" xlink:href="#DejaVuSans-48"/>
      </g>
     </g>
    </g>
    <g id="ytick_3">
     <g id="line2d_8">
      <g>
       <use style="stroke:#000000;stroke-width:0.8;" x="180" xlink:href="#m245963f889" y="987.011277"/>
      </g>
     </g>
     <g id="text_8">
      <!-- −0.05 -->
      <g transform="translate(142.354688 990.810495)scale(0.1 -0.1)">
       <use xlink:href="#DejaVuSans-8722"/>
       <use x="83.789062" xlink:href="#DejaVuSans-48"/>
       <use x="147.412109" xlink:href="#DejaVuSans-46"/>
       <use x="179.199219" xlink:href="#DejaVuSans-48"/>
       <use x="242.822266" xlink:href="#DejaVuSans-53"/>
      </g>
     </g>
    </g>
    <g id="ytick_4">
     <g id="line2d_9">
      <g>
       <use style="stroke:#000000;stroke-width:0.8;" x="180" xlink:href="#m245963f889" y="860.895178"/>
      </g>
     </g>
     <g id="text_9">
      <!-- 0.00 -->
      <g transform="translate(150.734375 864.694396)scale(0.1 -0.1)">
       <use xlink:href="#DejaVuSans-48"/>
       <use x="63.623047" xlink:href="#DejaVuSans-46"/>
       <use x="95.410156" xlink:href="#DejaVuSans-48"/>
       <use x="159.033203" xlink:href="#DejaVuSans-48"/>
      </g>
     </g>
    </g>
    <g id="ytick_5">
     <g id="line2d_10">
      <g>
       <use style="stroke:#000000;stroke-width:0.8;" x="180" xlink:href="#m245963f889" y="734.779078"/>
      </g>
     </g>
     <g id="text_10">
      <!-- 0.05 -->
      <g transform="translate(150.734375 738.578297)scale(0.1 -0.1)">
       <use xlink:href="#DejaVuSans-48"/>
       <use x="63.623047" xlink:href="#DejaVuSans-46"/>
       <use x="95.410156" xlink:href="#DejaVuSans-48"/>
       <use x="159.033203" xlink:href="#DejaVuSans-53"/>
      </g>
     </g>
    </g>
    <g id="ytick_6">
     <g id="line2d_11">
      <g>
       <use style="stroke:#000000;stroke-width:0.8;" x="180" xlink:href="#m245963f889" y="608.662979"/>
      </g>
     </g>
     <g id="text_11">
      <!-- 0.10 -->
      <g transform="translate(150.734375 612.462198)scale(0.1 -0.1)">
       <use xlink:href="#DejaVuSans-48"/>
       <use x="63.623047" xlink:href="#DejaVuSans-46"/>
       <use x="95.410156" xlink:href="#DejaVuSans-49"/>
       <use x="159.033203" xlink:href="#DejaVuSans-48"/>
      </g>
     </g>
    </g>
    <g id="ytick_7">
     <g id="line2d_12">
      <g>
       <use style="stroke:#000000;stroke-width:0.8;" x="180" xlink:href="#m245963f889" y="482.54688"/>
      </g>
     </g>
     <g id="text_12">
      <!-- 0.15 -->
      <g transform="translate(150.734375 486.346099)scale(0.1 -0.1)">
       <use xlink:href="#DejaVuSans-48"/>
       <use x="63.623047" xlink:href="#DejaVuSans-46"/>
       <use x="95.410156" xlink:href="#DejaVuSans-49"/>
       <use x="159.033203" xlink:href="#DejaVuSans-53"/>
      </g>
     </g>
    </g>
    <g id="ytick_8">
     <g id="line2d_13">
      <g>
       <use style="stroke:#000000;stroke-width:0.8;" x="180" xlink:href="#m245963f889" y="356.430781"/>
      </g>
     </g>
     <g id="text_13">
      <!-- 0.20 -->
      <g transform="translate(150.734375 360.23)scale(0.1 -0.1)">
       <use xlink:href="#DejaVuSans-48"/>
       <use x="63.623047" xlink:href="#DejaVuSans-46"/>
       <use x="95.410156" xlink:href="#DejaVuSans-50"/>
       <use x="159.033203" xlink:href="#DejaVuSans-48"/>
      </g>
     </g>
    </g>
    <g id="ytick_9">
     <g id="line2d_14">
      <g>
       <use style="stroke:#000000;stroke-width:0.8;" x="180" xlink:href="#m245963f889" y="230.314682"/>
      </g>
     </g>
     <g id="text_14">
      <!-- 0.25 -->
      <g transform="translate(150.734375 234.113901)scale(0.1 -0.1)">
       <use xlink:href="#DejaVuSans-48"/>
       <use x="63.623047" xlink:href="#DejaVuSans-46"/>
       <use x="95.410156" xlink:href="#DejaVuSans-50"/>
       <use x="159.033203" xlink:href="#DejaVuSans-53"/>
      </g>
     </g>
    </g>
   </g>
   <g id="line2d_15">
    <defs>
     <path d="M 0 9 
C 2.386828 9 4.676219 8.051703 6.363961 6.363961 
C 8.051703 4.676219 9 2.386828 9 0 
C 9 -2.386828 8.051703 -4.676219 6.363961 -6.363961 
C 4.676219 -8.051703 2.386828 -9 0 -9 
C -2.386828 -9 -4.676219 -8.051703 -6.363961 -6.363961 
C -8.051703 -4.676219 -9 -2.386828 -9 0 
C -9 2.386828 -8.051703 4.676219 -6.363961 6.363961 
C -4.676219 8.051703 -2.386828 9 0 9 
z
" id="m572e648ef8" style="stroke:#000000;"/>
    </defs>
    <g clip-path="url(#p97ff1bb424)">
     <use style="fill:#9e0142;stroke:#000000;" x="572.895811" xlink:href="#m572e648ef8" y="224.829881"/>
    </g>
   </g>
   <g id="line2d_16">
    <defs>
     <path d="M 0 9 
C 2.386828 9 4.676219 8.051703 6.363961 6.363961 
C 8.051703 4.676219 9 2.386828 9 0 
C 9 -2.386828 8.051703 -4.676219 6.363961 -6.363961 
C 4.676219 -8.051703 2.386828 -9 0 -9 
C -2.386828 -9 -4.676219 -8.051703 -6.363961 -6.363961 
C -8.051703 -4.676219 -9 -2.386828 -9 0 
C -9 2.386828 -8.051703 4.676219 -6.363961 6.363961 
C -4.676219 8.051703 -2.386828 9 0 9 
z
" id="mfcc99feee7" style="stroke:#000000;"/>
    </defs>
    <g clip-path="url(#p97ff1bb424)">
     <use style="fill:#fdbf6f;stroke:#000000;" x="1232.470953" xlink:href="#mfcc99feee7" y="993.750218"/>
    </g>
   </g>
   <g id="line2d_17">
    <defs>
     <path d="M 0 9 
C 2.386828 9 4.676219 8.051703 6.363961 6.363961 
C 8.051703 4.676219 9 2.386828 9 0 
C 9 -2.386828 8.051703 -4.676219 6.363961 -6.363961 
C 4.676219 -8.051703 2.386828 -9 0 -9 
C -2.386828 -9 -4.676219 -8.051703 -6.363961 -6.363961 
C -8.051703 -4.676219 -9 -2.386828 -9 0 
C -9 2.386828 -8.051703 4.676219 -6.363961 6.363961 
C -4.676219 8.051703 -2.386828 9 0 9 
z
" id="m9b0fbd161b" style="stroke:#000000;"/>
    </defs>
    <g clip-path="url(#p97ff1bb424)">
     <use style="fill:#bfe5a0;stroke:#000000;" x="826.76541" xlink:href="#m9b0fbd161b" y="369.846299"/>
    </g>
   </g>
   <g id="line2d_18">
    <g clip-path="url(#p97ff1bb424)">
     <use style="fill:#9e0142;stroke:#000000;" x="586.816491" xlink:href="#m572e648ef8" y="263.65207"/>
    </g>
   </g>
   <g id="line2d_19">
    <g clip-path="url(#p97ff1bb424)">
     <use style="fill:#fdbf6f;stroke:#000000;" x="1229.815972" xlink:href="#mfcc99feee7" y="995.479845"/>
    </g>
   </g>
   <g id="line2d_20">
    <defs>
     <path d="M 0 3 
C 0.795609 3 1.55874 2.683901 2.12132 2.12132 
C 2.683901 1.55874 3 0.795609 3 0 
C 3 -0.795609 2.683901 -1.55874 2.12132 -2.12132 
C 1.55874 -2.683901 0.795609 -3 0 -3 
C -0.795609 -3 -1.55874 -2.683901 -2.12132 -2.12132 
C -2.683901 -1.55874 -3 -0.795609 -3 0 
C -3 0.795609 -2.683901 1.55874 -2.12132 2.12132 
C -1.55874 2.683901 -0.795609 3 0 3 
z
" id="m11d626e30f" style="stroke:#000000;"/>
    </defs>
    <g clip-path="url(#p97ff1bb424)">
     <use style="stroke:#000000;" x="433.275102" xlink:href="#m11d626e30f" y="769.982256"/>
    </g>
   </g>
   <g id="line2d_21">
    <g clip-path="url(#p97ff1bb424)">
     <use style="stroke:#000000;" x="434.814709" xlink:href="#m11d626e30f" y="433.635446"/>
    </g>
   </g>
   <g id="line2d_22">
    <g clip-path="url(#p97ff1bb424)">
     <use style="fill:#fdbf6f;stroke:#000000;" x="1229.03536" xlink:href="#mfcc99feee7" y="995.362297"/>
    </g>
   </g>
   <g id="line2d_23">
    <g clip-path="url(#p97ff1bb424)">
     <use style="fill:#fdbf6f;stroke:#000000;" x="1229.952206" xlink:href="#mfcc99feee7" y="996.239898"/>
    </g>
   </g>
   <g id="line2d_24">
    <g clip-path="url(#p97ff1bb424)">
     <use style="fill:#fdbf6f;stroke:#000000;" x="1239.338546" xlink:href="#mfcc99feee7" y="994.863286"/>
    </g>
   </g>
   <g id="line2d_25">
    <g clip-path="url(#p97ff1bb424)">
     <use style="fill:#9e0142;stroke:#000000;" x="572.550322" xlink:href="#m572e648ef8" y="225.877559"/>
    </g>
   </g>
   <g id="line2d_26">
    <g clip-path="url(#p97ff1bb424)">
     <use style="fill:#bfe5a0;stroke:#000000;" x="830.892759" xlink:href="#m9b0fbd161b" y="375.596966"/>
    </g>
   </g>
   <g id="line2d_27">
    <g clip-path="url(#p97ff1bb424)">
     <use style="stroke:#000000;" x="1043.206066" xlink:href="#m11d626e30f" y="1124.026332"/>
    </g>
   </g>
   <g id="line2d_28">
    <g clip-path="url(#p97ff1bb424)">
     <use style="stroke:#000000;" x="230.727273" xlink:href="#m11d626e30f" y="618.565779"/>
    </g>
   </g>
   <g id="line2d_29">
    <g clip-path="url(#p97ff1bb424)">
     <use style="stroke:#000000;" x="276.799119" xlink:href="#m11d626e30f" y="389.178526"/>
    </g>
   </g>
   <g id="line2d_30">
    <g clip-path="url(#p97ff1bb424)">
     <use style="fill:#fdbf6f;stroke:#000000;" x="1244.396454" xlink:href="#mfcc99feee7" y="993.906877"/>
    </g>
   </g>
   <g id="line2d_31">
    <g clip-path="url(#p97ff1bb424)">
     <use style="fill:#fdbf6f;stroke:#000000;" x="1234.080017" xlink:href="#mfcc99feee7" y="994.904225"/>
    </g>
   </g>
   <g id="line2d_32">
    <g clip-path="url(#p97ff1bb424)">
     <use style="fill:#bfe5a0;stroke:#000000;" x="830.571975" xlink:href="#m9b0fbd161b" y="371.506063"/>
    </g>
   </g>
   <g id="line2d_33">
    <g clip-path="url(#p97ff1bb424)">
     <use style="fill:#9e0142;stroke:#000000;" x="573.049003" xlink:href="#m572e648ef8" y="223.2"/>
    </g>
   </g>
   <g id="line2d_34">
    <g clip-path="url(#p97ff1bb424)">
     <use style="fill:#fdbf6f;stroke:#000000;" x="1245.272727" xlink:href="#mfcc99feee7" y="995.45172"/>
    </g>
   </g>
   <g id="line2d_35">
    <g clip-path="url(#p97ff1bb424)">
     <use style="fill:#fdbf6f;stroke:#000000;" x="1236.3377" xlink:href="#mfcc99feee7" y="994.250248"/>
    </g>
   </g>
   <g id="line2d_36">
    <g clip-path="url(#p97ff1bb424)">
     <use style="fill:#fdbf6f;stroke:#000000;" x="1237.696141" xlink:href="#mfcc99feee7" y="996.168839"/>
    </g>
   </g>
   <g id="line2d_37">
    <g clip-path="url(#p97ff1bb424)">
     <use style="fill:#fdbf6f;stroke:#000000;" x="1236.5291" xlink:href="#mfcc99feee7" y="996.017532"/>
    </g>
   </g>
   <g id="line2d_38">
    <g clip-path="url(#p97ff1bb424)">
     <use style="stroke:#000000;" x="275.849353" xlink:href="#m11d626e30f" y="382.620913"/>
    </g>
   </g>
   <g id="line2d_39">
    <g clip-path="url(#p97ff1bb424)">
     <use style="fill:#9e0142;stroke:#000000;" x="573.040755" xlink:href="#m572e648ef8" y="225.830838"/>
    </g>
   </g>
   <g id="line2d_40">
    <g clip-path="url(#p97ff1bb424)">
     <use style="stroke:#000000;" x="698.785557" xlink:href="#m11d626e30f" y="850.848839"/>
    </g>
   </g>
   <g id="line2d_41">
    <g clip-path="url(#p97ff1bb424)">
     <use style="fill:#bfe5a0;stroke:#000000;" x="827.94528" xlink:href="#m9b0fbd161b" y="375.226309"/>
    </g>
   </g>
   <g id="line2d_42">
    <g clip-path="url(#p97ff1bb424)">
     <use style="stroke:#000000;" x="1019.601603" xlink:href="#m11d626e30f" y="974.842069"/>
    </g>
   </g>
   <g id="line2d_43">
    <g clip-path="url(#p97ff1bb424)">
     <use style="fill:#bfe5a0;stroke:#000000;" x="828.41304" xlink:href="#m9b0fbd161b" y="370.238362"/>
    </g>
   </g>
   <g id="line2d_44">
    <g clip-path="url(#p97ff1bb424)">
     <use style="stroke:#000000;" x="902.6561" xlink:href="#m11d626e30f" y="1231.2"/>
    </g>
   </g>
   <g id="line2d_45">
    <g clip-path="url(#p97ff1bb424)">
     <use style="fill:#fdbf6f;stroke:#000000;" x="1239.446864" xlink:href="#mfcc99feee7" y="996.036491"/>
    </g>
   </g>
   <g id="line2d_46">
    <g clip-path="url(#p97ff1bb424)">
     <use style="stroke:#000000;" x="809.727983" xlink:href="#m11d626e30f" y="1118.553672"/>
    </g>
   </g>
   <g id="line2d_47">
    <g clip-path="url(#p97ff1bb424)">
     <use style="fill:#fdbf6f;stroke:#000000;" x="1240.096608" xlink:href="#mfcc99feee7" y="995.308521"/>
    </g>
   </g>
   <g id="line2d_48">
    <g clip-path="url(#p97ff1bb424)">
     <use style="fill:#fdbf6f;stroke:#000000;" x="1233.226094" xlink:href="#mfcc99feee7" y="995.011602"/>
    </g>
   </g>
   <g id="line2d_49">
    <g clip-path="url(#p97ff1bb424)">
     <use style="stroke:#000000;" x="1223.23562" xlink:href="#m11d626e30f" y="1049.668258"/>
    </g>
   </g>
   <g id="line2d_50">
    <g clip-path="url(#p97ff1bb424)">
     <use style="stroke:#000000;" x="1140.699436" xlink:href="#m11d626e30f" y="1110.345095"/>
    </g>
   </g>
   <g id="line2d_51">
    <g clip-path="url(#p97ff1bb424)">
     <use style="fill:#fdbf6f;stroke:#000000;" x="1244.036047" xlink:href="#mfcc99feee7" y="994.279996"/>
    </g>
   </g>
   <g id="line2d_52">
    <g clip-path="url(#p97ff1bb424)">
     <use style="fill:#9e0142;stroke:#000000;" x="573.245737" xlink:href="#m572e648ef8" y="226.564066"/>
    </g>
   </g>
   <g id="line2d_53">
    <g clip-path="url(#p97ff1bb424)">
     <use style="fill:#fdbf6f;stroke:#000000;" x="1244.148876" xlink:href="#mfcc99feee7" y="994.017363"/>
    </g>
   </g>
   <g id="line2d_54">
    <g clip-path="url(#p97ff1bb424)">
     <use style="fill:#bfe5a0;stroke:#000000;" x="827.812197" xlink:href="#m9b0fbd161b" y="372.584742"/>
    </g>
   </g>
   <g id="line2d_55">
    <g clip-path="url(#p97ff1bb424)">
     <use style="fill:#fdbf6f;stroke:#000000;" x="1239.791813" xlink:href="#mfcc99feee7" y="994.13633"/>
    </g>
   </g>
   <g id="line2d_56">
    <g clip-path="url(#p97ff1bb424)">
     <use style="fill:#bfe5a0;stroke:#000000;" x="831.289891" xlink:href="#m9b0fbd161b" y="374.048397"/>
    </g>
   </g>
   <g id="line2d_57">
    <g clip-path="url(#p97ff1bb424)">
     <use style="fill:#bfe5a0;stroke:#000000;" x="829.46829" xlink:href="#m9b0fbd161b" y="375.310647"/>
    </g>
   </g>
   <g id="line2d_58">
    <g clip-path="url(#p97ff1bb424)">
     <use style="stroke:#000000;" x="626.678531" xlink:href="#m11d626e30f" y="510.058797"/>
    </g>
   </g>
   <g id="line2d_59">
    <g clip-path="url(#p97ff1bb424)">
     <use style="fill:#bfe5a0;stroke:#000000;" x="830.866442" xlink:href="#m9b0fbd161b" y="372.055484"/>
    </g>
   </g>
   <g id="line2d_60">
    <g clip-path="url(#p97ff1bb424)">
     <use style="stroke:#000000;" x="1092.973858" xlink:href="#m11d626e30f" y="1110.535202"/>
    </g>
   </g>
   <g id="line2d_61">
    <g clip-path="url(#p97ff1bb424)">
     <use style="stroke:#000000;" x="703.913392" xlink:href="#m11d626e30f" y="850.953159"/>
    </g>
   </g>
   <g id="line2d_62">
    <g clip-path="url(#p97ff1bb424)">
     <use style="fill:#bfe5a0;stroke:#000000;" x="830.579461" xlink:href="#m9b0fbd161b" y="372.082756"/>
    </g>
   </g>
   <g id="patch_3">
    <path d="M 180 1281.6 
L 180 172.8 
" style="fill:none;stroke:#000000;stroke-linecap:square;stroke-linejoin:miter;stroke-width:0.8;"/>
   </g>
   <g id="patch_4">
    <path d="M 1296 1281.6 
L 1296 172.8 
" style="fill:none;stroke:#000000;stroke-linecap:square;stroke-linejoin:miter;stroke-width:0.8;"/>
   </g>
   <g id="patch_5">
    <path d="M 180 1281.6 
L 1296 1281.6 
" style="fill:none;stroke:#000000;stroke-linecap:square;stroke-linejoin:miter;stroke-width:0.8;"/>
   </g>
   <g id="patch_6">
    <path d="M 180 172.8 
L 1296 172.8 
" style="fill:none;stroke:#000000;stroke-linecap:square;stroke-linejoin:miter;stroke-width:0.8;"/>
   </g>
  </g>
 </g>
 <defs>
  <clipPath id="p97ff1bb424">
   <rect height="1108.8" width="1116" x="180" y="172.8"/>
  </clipPath>
 </defs>
</svg>
