<?xml version="1.0" encoding="utf-8" standalone="no"?>
<!DOCTYPE svg PUBLIC "-//W3C//DTD SVG 1.1//EN"
  "http://www.w3.org/Graphics/SVG/1.1/DTD/svg11.dtd">
<!-- Created with matplotlib (https://matplotlib.org/) -->
<svg height="1440pt" version="1.1" viewBox="0 0 1440 1440" width="1440pt" xmlns="http://www.w3.org/2000/svg" xmlns:xlink="http://www.w3.org/1999/xlink">
 <defs>
  <style type="text/css">
*{stroke-linecap:butt;stroke-linejoin:round;}
  </style>
 </defs>
 <g id="figure_1">
  <g id="patch_1">
   <path d="M 0 1440 
L 1440 1440 
L 1440 0 
L 0 0 
z
" style="fill:#ffffff;"/>
  </g>
  <g id="axes_1">
   <g id="patch_2">
    <path d="M 180 1281.6 
L 1296 1281.6 
L 1296 172.8 
L 180 172.8 
z
" style="fill:#ffffff;"/>
   </g>
   <g id="matplotlib.axis_1">
    <g id="xtick_1">
     <g id="line2d_1">
      <defs>
       <path d="M 0 0 
L 0 3.5 
" id="ma8d7b3e736" style="stroke:#000000;stroke-width:0.8;"/>
      </defs>
      <g>
       <use style="stroke:#000000;stroke-width:0.8;" x="201.313696" xlink:href="#ma8d7b3e736" y="1281.6"/>
      </g>
     </g>
     <g id="text_1">
      <!-- −0.15 -->
      <defs>
       <path d="M 10.59375 35.5 
L 73.1875 35.5 
L 73.1875 27.203125 
L 10.59375 27.203125 
z
" id="DejaVuSans-8722"/>
       <path d="M 31.78125 66.40625 
Q 24.171875 66.40625 20.328125 58.90625 
Q 16.5 51.421875 16.5 36.375 
Q 16.5 21.390625 20.328125 13.890625 
Q 24.171875 6.390625 31.78125 6.390625 
Q 39.453125 6.390625 43.28125 13.890625 
Q 47.125 21.390625 47.125 36.375 
Q 47.125 51.421875 43.28125 58.90625 
Q 39.453125 66.40625 31.78125 66.40625 
z
M 31.78125 74.21875 
Q 44.046875 74.21875 50.515625 64.515625 
Q 56.984375 54.828125 56.984375 36.375 
Q 56.984375 17.96875 50.515625 8.265625 
Q 44.046875 -1.421875 31.78125 -1.421875 
Q 19.53125 -1.421875 13.0625 8.265625 
Q 6.59375 17.96875 6.59375 36.375 
Q 6.59375 54.828125 13.0625 64.515625 
Q 19.53125 74.21875 31.78125 74.21875 
z
" id="DejaVuSans-48"/>
       <path d="M 10.6875 12.40625 
L 21 12.40625 
L 21 0 
L 10.6875 0 
z
" id="DejaVuSans-46"/>
       <path d="M 12.40625 8.296875 
L 28.515625 8.296875 
L 28.515625 63.921875 
L 10.984375 60.40625 
L 10.984375 69.390625 
L 28.421875 72.90625 
L 38.28125 72.90625 
L 38.28125 8.296875 
L 54.390625 8.296875 
L 54.390625 0 
L 12.40625 0 
z
" id="DejaVuSans-49"/>
       <path d="M 10.796875 72.90625 
L 49.515625 72.90625 
L 49.515625 64.59375 
L 19.828125 64.59375 
L 19.828125 46.734375 
Q 21.96875 47.46875 24.109375 47.828125 
Q 26.265625 48.1875 28.421875 48.1875 
Q 40.625 48.1875 47.75 41.5 
Q 54.890625 34.8125 54.890625 23.390625 
Q 54.890625 11.625 47.5625 5.09375 
Q 40.234375 -1.421875 26.90625 -1.421875 
Q 22.3125 -1.421875 17.546875 -0.640625 
Q 12.796875 0.140625 7.71875 1.703125 
L 7.71875 11.625 
Q 12.109375 9.234375 16.796875 8.0625 
Q 21.484375 6.890625 26.703125 6.890625 
Q 35.15625 6.890625 40.078125 11.328125 
Q 45.015625 15.765625 45.015625 23.390625 
Q 45.015625 31 40.078125 35.4375 
Q 35.15625 39.890625 26.703125 39.890625 
Q 22.75 39.890625 18.8125 39.015625 
Q 14.890625 38.140625 10.796875 36.28125 
z
" id="DejaVuSans-53"/>
      </defs>
      <g transform="translate(185.991039 1296.198437)scale(0.1 -0.1)">
       <use xlink:href="#DejaVuSans-8722"/>
       <use x="83.789062" xlink:href="#DejaVuSans-48"/>
       <use x="147.412109" xlink:href="#DejaVuSans-46"/>
       <use x="179.199219" xlink:href="#DejaVuSans-49"/>
       <use x="242.822266" xlink:href="#DejaVuSans-53"/>
      </g>
     </g>
    </g>
    <g id="xtick_2">
     <g id="line2d_2">
      <g>
       <use style="stroke:#000000;stroke-width:0.8;" x="353.611448" xlink:href="#ma8d7b3e736" y="1281.6"/>
      </g>
     </g>
     <g id="text_2">
      <!-- −0.10 -->
      <g transform="translate(338.288792 1296.198437)scale(0.1 -0.1)">
       <use xlink:href="#DejaVuSans-8722"/>
       <use x="83.789062" xlink:href="#DejaVuSans-48"/>
       <use x="147.412109" xlink:href="#DejaVuSans-46"/>
       <use x="179.199219" xlink:href="#DejaVuSans-49"/>
       <use x="242.822266" xlink:href="#DejaVuSans-48"/>
      </g>
     </g>
    </g>
    <g id="xtick_3">
     <g id="line2d_3">
      <g>
       <use style="stroke:#000000;stroke-width:0.8;" x="505.909201" xlink:href="#ma8d7b3e736" y="1281.6"/>
      </g>
     </g>
     <g id="text_3">
      <!-- −0.05 -->
      <g transform="translate(490.586545 1296.198437)scale(0.1 -0.1)">
       <use xlink:href="#DejaVuSans-8722"/>
       <use x="83.789062" xlink:href="#DejaVuSans-48"/>
       <use x="147.412109" xlink:href="#DejaVuSans-46"/>
       <use x="179.199219" xlink:href="#DejaVuSans-48"/>
       <use x="242.822266" xlink:href="#DejaVuSans-53"/>
      </g>
     </g>
    </g>
    <g id="xtick_4">
     <g id="line2d_4">
      <g>
       <use style="stroke:#000000;stroke-width:0.8;" x="658.206954" xlink:href="#ma8d7b3e736" y="1281.6"/>
      </g>
     </g>
     <g id="text_4">
      <!-- 0.00 -->
      <g transform="translate(647.074142 1296.198437)scale(0.1 -0.1)">
       <use xlink:href="#DejaVuSans-48"/>
       <use x="63.623047" xlink:href="#DejaVuSans-46"/>
       <use x="95.410156" xlink:href="#DejaVuSans-48"/>
       <use x="159.033203" xlink:href="#DejaVuSans-48"/>
      </g>
     </g>
    </g>
    <g id="xtick_5">
     <g id="line2d_5">
      <g>
       <use style="stroke:#000000;stroke-width:0.8;" x="810.504707" xlink:href="#ma8d7b3e736" y="1281.6"/>
      </g>
     </g>
     <g id="text_5">
      <!-- 0.05 -->
      <g transform="translate(799.371894 1296.198437)scale(0.1 -0.1)">
       <use xlink:href="#DejaVuSans-48"/>
       <use x="63.623047" xlink:href="#DejaVuSans-46"/>
       <use x="95.410156" xlink:href="#DejaVuSans-48"/>
       <use x="159.033203" xlink:href="#DejaVuSans-53"/>
      </g>
     </g>
    </g>
    <g id="xtick_6">
     <g id="line2d_6">
      <g>
       <use style="stroke:#000000;stroke-width:0.8;" x="962.80246" xlink:href="#ma8d7b3e736" y="1281.6"/>
      </g>
     </g>
     <g id="text_6">
      <!-- 0.10 -->
      <g transform="translate(951.669647 1296.198437)scale(0.1 -0.1)">
       <use xlink:href="#DejaVuSans-48"/>
       <use x="63.623047" xlink:href="#DejaVuSans-46"/>
       <use x="95.410156" xlink:href="#DejaVuSans-49"/>
       <use x="159.033203" xlink:href="#DejaVuSans-48"/>
      </g>
     </g>
    </g>
    <g id="xtick_7">
     <g id="line2d_7">
      <g>
       <use style="stroke:#000000;stroke-width:0.8;" x="1115.100213" xlink:href="#ma8d7b3e736" y="1281.6"/>
      </g>
     </g>
     <g id="text_7">
      <!-- 0.15 -->
      <g transform="translate(1103.9674 1296.198437)scale(0.1 -0.1)">
       <use xlink:href="#DejaVuSans-48"/>
       <use x="63.623047" xlink:href="#DejaVuSans-46"/>
       <use x="95.410156" xlink:href="#DejaVuSans-49"/>
       <use x="159.033203" xlink:href="#DejaVuSans-53"/>
      </g>
     </g>
    </g>
    <g id="xtick_8">
     <g id="line2d_8">
      <g>
       <use style="stroke:#000000;stroke-width:0.8;" x="1267.397965" xlink:href="#ma8d7b3e736" y="1281.6"/>
      </g>
     </g>
     <g id="text_8">
      <!-- 0.20 -->
      <defs>
       <path d="M 19.1875 8.296875 
L 53.609375 8.296875 
L 53.609375 0 
L 7.328125 0 
L 7.328125 8.296875 
Q 12.9375 14.109375 22.625 23.890625 
Q 32.328125 33.6875 34.8125 36.53125 
Q 39.546875 41.84375 41.421875 45.53125 
Q 43.3125 49.21875 43.3125 52.78125 
Q 43.3125 58.59375 39.234375 62.25 
Q 35.15625 65.921875 28.609375 65.921875 
Q 23.96875 65.921875 18.8125 64.3125 
Q 13.671875 62.703125 7.8125 59.421875 
L 7.8125 69.390625 
Q 13.765625 71.78125 18.9375 73 
Q 24.125 74.21875 28.421875 74.21875 
Q 39.75 74.21875 46.484375 68.546875 
Q 53.21875 62.890625 53.21875 53.421875 
Q 53.21875 48.921875 51.53125 44.890625 
Q 49.859375 40.875 45.40625 35.40625 
Q 44.1875 33.984375 37.640625 27.21875 
Q 31.109375 20.453125 19.1875 8.296875 
z
" id="DejaVuSans-50"/>
      </defs>
      <g transform="translate(1256.265153 1296.198437)scale(0.1 -0.1)">
       <use xlink:href="#DejaVuSans-48"/>
       <use x="63.623047" xlink:href="#DejaVuSans-46"/>
       <use x="95.410156" xlink:href="#DejaVuSans-50"/>
       <use x="159.033203" xlink:href="#DejaVuSans-48"/>
      </g>
     </g>
    </g>
   </g>
   <g id="matplotlib.axis_2">
    <g id="ytick_1">
     <g id="line2d_9">
      <defs>
       <path d="M 0 0 
L -3.5 0 
" id="m1f3178f550" style="stroke:#000000;stroke-width:0.8;"/>
      </defs>
      <g>
       <use style="stroke:#000000;stroke-width:0.8;" x="180" xlink:href="#m1f3178f550" y="1077.925831"/>
      </g>
     </g>
     <g id="text_9">
      <!-- 0.00 -->
      <g transform="translate(150.734375 1081.72505)scale(0.1 -0.1)">
       <use xlink:href="#DejaVuSans-48"/>
       <use x="63.623047" xlink:href="#DejaVuSans-46"/>
       <use x="95.410156" xlink:href="#DejaVuSans-48"/>
       <use x="159.033203" xlink:href="#DejaVuSans-48"/>
      </g>
     </g>
    </g>
    <g id="ytick_2">
     <g id="line2d_10">
      <g>
       <use style="stroke:#000000;stroke-width:0.8;" x="180" xlink:href="#m1f3178f550" y="855.420142"/>
      </g>
     </g>
     <g id="text_10">
      <!-- 0.05 -->
      <g transform="translate(150.734375 859.219361)scale(0.1 -0.1)">
       <use xlink:href="#DejaVuSans-48"/>
       <use x="63.623047" xlink:href="#DejaVuSans-46"/>
       <use x="95.410156" xlink:href="#DejaVuSans-48"/>
       <use x="159.033203" xlink:href="#DejaVuSans-53"/>
      </g>
     </g>
    </g>
    <g id="ytick_3">
     <g id="line2d_11">
      <g>
       <use style="stroke:#000000;stroke-width:0.8;" x="180" xlink:href="#m1f3178f550" y="632.914452"/>
      </g>
     </g>
     <g id="text_11">
      <!-- 0.10 -->
      <g transform="translate(150.734375 636.713671)scale(0.1 -0.1)">
       <use xlink:href="#DejaVuSans-48"/>
       <use x="63.623047" xlink:href="#DejaVuSans-46"/>
       <use x="95.410156" xlink:href="#DejaVuSans-49"/>
       <use x="159.033203" xlink:href="#DejaVuSans-48"/>
      </g>
     </g>
    </g>
    <g id="ytick_4">
     <g id="line2d_12">
      <g>
       <use style="stroke:#000000;stroke-width:0.8;" x="180" xlink:href="#m1f3178f550" y="410.408763"/>
      </g>
     </g>
     <g id="text_12">
      <!-- 0.15 -->
      <g transform="translate(150.734375 414.207982)scale(0.1 -0.1)">
       <use xlink:href="#DejaVuSans-48"/>
       <use x="63.623047" xlink:href="#DejaVuSans-46"/>
       <use x="95.410156" xlink:href="#DejaVuSans-49"/>
       <use x="159.033203" xlink:href="#DejaVuSans-53"/>
      </g>
     </g>
    </g>
    <g id="ytick_5">
     <g id="line2d_13">
      <g>
       <use style="stroke:#000000;stroke-width:0.8;" x="180" xlink:href="#m1f3178f550" y="187.903074"/>
      </g>
     </g>
     <g id="text_13">
      <!-- 0.20 -->
      <g transform="translate(150.734375 191.702292)scale(0.1 -0.1)">
       <use xlink:href="#DejaVuSans-48"/>
       <use x="63.623047" xlink:href="#DejaVuSans-46"/>
       <use x="95.410156" xlink:href="#DejaVuSans-50"/>
       <use x="159.033203" xlink:href="#DejaVuSans-48"/>
      </g>
     </g>
    </g>
   </g>
   <g id="line2d_14">
    <defs>
     <path d="M 0 9 
C 2.386828 9 4.676219 8.051703 6.363961 6.363961 
C 8.051703 4.676219 9 2.386828 9 0 
C 9 -2.386828 8.051703 -4.676219 6.363961 -6.363961 
C 4.676219 -8.051703 2.386828 -9 0 -9 
C -2.386828 -9 -4.676219 -8.051703 -6.363961 -6.363961 
C -8.051703 -4.676219 -9 -2.386828 -9 0 
C -9 2.386828 -8.051703 4.676219 -6.363961 6.363961 
C -4.676219 8.051703 -2.386828 9 0 9 
z
" id="m0cdb41ae12" style="stroke:#000000;"/>
    </defs>
    <g clip-path="url(#p5ba8489522)">
     <use style="fill:#9e0142;stroke:#000000;" x="383.657265" xlink:href="#m0cdb41ae12" y="304.587363"/>
    </g>
   </g>
   <g id="line2d_15">
    <defs>
     <path d="M 0 3 
C 0.795609 3 1.55874 2.683901 2.12132 2.12132 
C 2.683901 1.55874 3 0.795609 3 0 
C 3 -0.795609 2.683901 -1.55874 2.12132 -2.12132 
C 1.55874 -2.683901 0.795609 -3 0 -3 
C -0.795609 -3 -1.55874 -2.683901 -2.12132 -2.12132 
C -2.683901 -1.55874 -3 -0.795609 -3 0 
C -3 0.795609 -2.683901 1.55874 -2.12132 2.12132 
C -1.55874 2.683901 -0.795609 3 0 3 
z
" id="ma2f4d40918" style="stroke:#000000;"/>
    </defs>
    <g clip-path="url(#p5ba8489522)">
     <use style="stroke:#000000;" x="376.314602" xlink:href="#ma2f4d40918" y="536.116925"/>
    </g>
   </g>
   <g id="line2d_16">
    <g clip-path="url(#p5ba8489522)">
     <use style="stroke:#000000;" x="380.559988" xlink:href="#ma2f4d40918" y="520.053552"/>
    </g>
   </g>
   <g id="line2d_17">
    <g clip-path="url(#p5ba8489522)">
     <use style="stroke:#000000;" x="398.19199" xlink:href="#ma2f4d40918" y="658.6536"/>
    </g>
   </g>
   <g id="line2d_18">
    <g clip-path="url(#p5ba8489522)">
     <use style="fill:#9e0142;stroke:#000000;" x="373.634965" xlink:href="#m0cdb41ae12" y="230.415893"/>
    </g>
   </g>
   <g id="line2d_19">
    <g clip-path="url(#p5ba8489522)">
     <use style="fill:#9e0142;stroke:#000000;" x="375.375447" xlink:href="#m0cdb41ae12" y="236.042704"/>
    </g>
   </g>
   <g id="line2d_20">
    <g clip-path="url(#p5ba8489522)">
     <use style="fill:#9e0142;stroke:#000000;" x="375.552579" xlink:href="#m0cdb41ae12" y="235.453582"/>
    </g>
   </g>
   <g id="line2d_21">
    <defs>
     <path d="M 0 9 
C 2.386828 9 4.676219 8.051703 6.363961 6.363961 
C 8.051703 4.676219 9 2.386828 9 0 
C 9 -2.386828 8.051703 -4.676219 6.363961 -6.363961 
C 4.676219 -8.051703 2.386828 -9 0 -9 
C -2.386828 -9 -4.676219 -8.051703 -6.363961 -6.363961 
C -8.051703 -4.676219 -9 -2.386828 -9 0 
C -9 2.386828 -8.051703 4.676219 -6.363961 6.363961 
C -4.676219 8.051703 -2.386828 9 0 9 
z
" id="m387cc523f0" style="stroke:#000000;"/>
    </defs>
    <g clip-path="url(#p5ba8489522)">
     <use style="fill:#fdbf6f;stroke:#000000;" x="1236.416012" xlink:href="#m387cc523f0" y="605.539194"/>
    </g>
   </g>
   <g id="line2d_22">
    <g clip-path="url(#p5ba8489522)">
     <use style="stroke:#000000;" x="374.198226" xlink:href="#ma2f4d40918" y="335.572666"/>
    </g>
   </g>
   <g id="line2d_23">
    <g clip-path="url(#p5ba8489522)">
     <use style="stroke:#000000;" x="373.149688" xlink:href="#ma2f4d40918" y="321.902356"/>
    </g>
   </g>
   <g id="line2d_24">
    <g clip-path="url(#p5ba8489522)">
     <use style="stroke:#000000;" x="976.238613" xlink:href="#ma2f4d40918" y="1160.894752"/>
    </g>
   </g>
   <g id="line2d_25">
    <g clip-path="url(#p5ba8489522)">
     <use style="stroke:#000000;" x="1029.34295" xlink:href="#ma2f4d40918" y="909.55164"/>
    </g>
   </g>
   <g id="line2d_26">
    <g clip-path="url(#p5ba8489522)">
     <use style="stroke:#000000;" x="385.648718" xlink:href="#ma2f4d40918" y="415.72383"/>
    </g>
   </g>
   <g id="line2d_27">
    <g clip-path="url(#p5ba8489522)">
     <use style="stroke:#000000;" x="1020.398908" xlink:href="#ma2f4d40918" y="508.188206"/>
    </g>
   </g>
   <g id="line2d_28">
    <g clip-path="url(#p5ba8489522)">
     <use style="stroke:#000000;" x="230.727273" xlink:href="#ma2f4d40918" y="494.352423"/>
    </g>
   </g>
   <g id="line2d_29">
    <g clip-path="url(#p5ba8489522)">
     <use style="stroke:#000000;" x="411.253683" xlink:href="#ma2f4d40918" y="854.614959"/>
    </g>
   </g>
   <g id="line2d_30">
    <g clip-path="url(#p5ba8489522)">
     <use style="fill:#fdbf6f;stroke:#000000;" x="1235.179518" xlink:href="#m387cc523f0" y="600.597921"/>
    </g>
   </g>
   <g id="line2d_31">
    <g clip-path="url(#p5ba8489522)">
     <use style="fill:#fdbf6f;stroke:#000000;" x="1236.723863" xlink:href="#m387cc523f0" y="603.826822"/>
    </g>
   </g>
   <g id="line2d_32">
    <g clip-path="url(#p5ba8489522)">
     <use style="stroke:#000000;" x="872.422686" xlink:href="#ma2f4d40918" y="523.187179"/>
    </g>
   </g>
   <g id="line2d_33">
    <g clip-path="url(#p5ba8489522)">
     <use style="fill:#fdbf6f;stroke:#000000;" x="1233.405412" xlink:href="#m387cc523f0" y="601.420742"/>
    </g>
   </g>
   <g id="line2d_34">
    <defs>
     <path d="M 0 9 
C 2.386828 9 4.676219 8.051703 6.363961 6.363961 
C 8.051703 4.676219 9 2.386828 9 0 
C 9 -2.386828 8.051703 -4.676219 6.363961 -6.363961 
C 4.676219 -8.051703 2.386828 -9 0 -9 
C -2.386828 -9 -4.676219 -8.051703 -6.363961 -6.363961 
C -8.051703 -4.676219 -9 -2.386828 -9 0 
C -9 2.386828 -8.051703 4.676219 -6.363961 6.363961 
C -4.676219 8.051703 -2.386828 9 0 9 
z
" id="m818f56be8f" style="stroke:#000000;"/>
    </defs>
    <g clip-path="url(#p5ba8489522)">
     <use style="fill:#bfe5a0;stroke:#000000;" x="335.282472" xlink:href="#m818f56be8f" y="224.582261"/>
    </g>
   </g>
   <g id="line2d_35">
    <g clip-path="url(#p5ba8489522)">
     <use style="fill:#bfe5a0;stroke:#000000;" x="330.236449" xlink:href="#m818f56be8f" y="223.2"/>
    </g>
   </g>
   <g id="line2d_36">
    <g clip-path="url(#p5ba8489522)">
     <use style="fill:#bfe5a0;stroke:#000000;" x="345.426747" xlink:href="#m818f56be8f" y="320.276932"/>
    </g>
   </g>
   <g id="line2d_37">
    <g clip-path="url(#p5ba8489522)">
     <use style="fill:#fdbf6f;stroke:#000000;" x="1182.593267" xlink:href="#m387cc523f0" y="616.651629"/>
    </g>
   </g>
   <g id="line2d_38">
    <g clip-path="url(#p5ba8489522)">
     <use style="stroke:#000000;" x="539.338256" xlink:href="#ma2f4d40918" y="253.958662"/>
    </g>
   </g>
   <g id="line2d_39">
    <g clip-path="url(#p5ba8489522)">
     <use style="fill:#fdbf6f;stroke:#000000;" x="1183.157505" xlink:href="#m387cc523f0" y="563.734165"/>
    </g>
   </g>
   <g id="line2d_40">
    <g clip-path="url(#p5ba8489522)">
     <use style="fill:#fdbf6f;stroke:#000000;" x="1239.635643" xlink:href="#m387cc523f0" y="694.336126"/>
    </g>
   </g>
   <g id="line2d_41">
    <g clip-path="url(#p5ba8489522)">
     <use style="stroke:#000000;" x="462.394295" xlink:href="#ma2f4d40918" y="399.850365"/>
    </g>
   </g>
   <g id="line2d_42">
    <g clip-path="url(#p5ba8489522)">
     <use style="stroke:#000000;" x="539.497785" xlink:href="#ma2f4d40918" y="250.288696"/>
    </g>
   </g>
   <g id="line2d_43">
    <g clip-path="url(#p5ba8489522)">
     <use style="stroke:#000000;" x="755.938717" xlink:href="#ma2f4d40918" y="587.180302"/>
    </g>
   </g>
   <g id="line2d_44">
    <g clip-path="url(#p5ba8489522)">
     <use style="stroke:#000000;" x="490.367844" xlink:href="#ma2f4d40918" y="628.600464"/>
    </g>
   </g>
   <g id="line2d_45">
    <g clip-path="url(#p5ba8489522)">
     <use style="fill:#9e0142;stroke:#000000;" x="387.592213" xlink:href="#m0cdb41ae12" y="299.677436"/>
    </g>
   </g>
   <g id="line2d_46">
    <g clip-path="url(#p5ba8489522)">
     <use style="stroke:#000000;" x="463.018121" xlink:href="#ma2f4d40918" y="399.627196"/>
    </g>
   </g>
   <g id="line2d_47">
    <g clip-path="url(#p5ba8489522)">
     <use style="stroke:#000000;" x="1113.914807" xlink:href="#ma2f4d40918" y="710.130027"/>
    </g>
   </g>
   <g id="line2d_48">
    <g clip-path="url(#p5ba8489522)">
     <use style="fill:#fdbf6f;stroke:#000000;" x="1226.535101" xlink:href="#m387cc523f0" y="607.456847"/>
    </g>
   </g>
   <g id="line2d_49">
    <g clip-path="url(#p5ba8489522)">
     <use style="stroke:#000000;" x="527.850622" xlink:href="#ma2f4d40918" y="661.646745"/>
    </g>
   </g>
   <g id="line2d_50">
    <g clip-path="url(#p5ba8489522)">
     <use style="fill:#fdbf6f;stroke:#000000;" x="1244.367469" xlink:href="#m387cc523f0" y="760.08869"/>
    </g>
   </g>
   <g id="line2d_51">
    <g clip-path="url(#p5ba8489522)">
     <use style="stroke:#000000;" x="539.277816" xlink:href="#ma2f4d40918" y="258.839275"/>
    </g>
   </g>
   <g id="line2d_52">
    <g clip-path="url(#p5ba8489522)">
     <use style="fill:#fdbf6f;stroke:#000000;" x="1239.431751" xlink:href="#m387cc523f0" y="696.045299"/>
    </g>
   </g>
   <g id="line2d_53">
    <g clip-path="url(#p5ba8489522)">
     <use style="stroke:#000000;" x="387.718245" xlink:href="#ma2f4d40918" y="591.820014"/>
    </g>
   </g>
   <g id="line2d_54">
    <g clip-path="url(#p5ba8489522)">
     <use style="fill:#bfe5a0;stroke:#000000;" x="346.737338" xlink:href="#m818f56be8f" y="309.238697"/>
    </g>
   </g>
   <g id="line2d_55">
    <g clip-path="url(#p5ba8489522)">
     <use style="stroke:#000000;" x="1016.710037" xlink:href="#ma2f4d40918" y="508.133417"/>
    </g>
   </g>
   <g id="line2d_56">
    <g clip-path="url(#p5ba8489522)">
     <use style="stroke:#000000;" x="513.708656" xlink:href="#ma2f4d40918" y="950.698159"/>
    </g>
   </g>
   <g id="line2d_57">
    <g clip-path="url(#p5ba8489522)">
     <use style="fill:#9e0142;stroke:#000000;" x="371.96155" xlink:href="#m0cdb41ae12" y="227.720797"/>
    </g>
   </g>
   <g id="line2d_58">
    <g clip-path="url(#p5ba8489522)">
     <use style="stroke:#000000;" x="329.527176" xlink:href="#ma2f4d40918" y="682.740751"/>
    </g>
   </g>
   <g id="line2d_59">
    <g clip-path="url(#p5ba8489522)">
     <use style="stroke:#000000;" x="972.702864" xlink:href="#ma2f4d40918" y="1231.2"/>
    </g>
   </g>
   <g id="line2d_60">
    <g clip-path="url(#p5ba8489522)">
     <use style="fill:#fdbf6f;stroke:#000000;" x="1229.930661" xlink:href="#m387cc523f0" y="606.870224"/>
    </g>
   </g>
   <g id="line2d_61">
    <g clip-path="url(#p5ba8489522)">
     <use style="stroke:#000000;" x="462.059119" xlink:href="#ma2f4d40918" y="399.058556"/>
    </g>
   </g>
   <g id="line2d_62">
    <g clip-path="url(#p5ba8489522)">
     <use style="fill:#bfe5a0;stroke:#000000;" x="346.799748" xlink:href="#m818f56be8f" y="311.395426"/>
    </g>
   </g>
   <g id="line2d_63">
    <g clip-path="url(#p5ba8489522)">
     <use style="fill:#9e0142;stroke:#000000;" x="371.141465" xlink:href="#m0cdb41ae12" y="229.355678"/>
    </g>
   </g>
   <g id="line2d_64">
    <g clip-path="url(#p5ba8489522)">
     <use style="fill:#fdbf6f;stroke:#000000;" x="1245.272727" xlink:href="#m387cc523f0" y="697.554221"/>
    </g>
   </g>
   <g id="line2d_65">
    <g clip-path="url(#p5ba8489522)">
     <use style="fill:#fdbf6f;stroke:#000000;" x="1239.592364" xlink:href="#m387cc523f0" y="692.51541"/>
    </g>
   </g>
   <g id="line2d_66">
    <g clip-path="url(#p5ba8489522)">
     <use style="fill:#fdbf6f;stroke:#000000;" x="1244.940313" xlink:href="#m387cc523f0" y="694.877055"/>
    </g>
   </g>
   <g id="line2d_67">
    <g clip-path="url(#p5ba8489522)">
     <use style="fill:#fdbf6f;stroke:#000000;" x="1239.593156" xlink:href="#m387cc523f0" y="697.030489"/>
    </g>
   </g>
   <g id="line2d_68">
    <g clip-path="url(#p5ba8489522)">
     <use style="fill:#fdbf6f;stroke:#000000;" x="1243.411849" xlink:href="#m387cc523f0" y="695.375142"/>
    </g>
   </g>
   <g id="line2d_69">
    <g clip-path="url(#p5ba8489522)">
     <use style="fill:#fdbf6f;stroke:#000000;" x="1241.401677" xlink:href="#m387cc523f0" y="694.25722"/>
    </g>
   </g>
   <g id="line2d_70">
    <g clip-path="url(#p5ba8489522)">
     <use style="fill:#fdbf6f;stroke:#000000;" x="1242.430037" xlink:href="#m387cc523f0" y="690.548775"/>
    </g>
   </g>
   <g id="line2d_71">
    <g clip-path="url(#p5ba8489522)">
     <use style="fill:#fdbf6f;stroke:#000000;" x="1183.998324" xlink:href="#m387cc523f0" y="618.640409"/>
    </g>
   </g>
   <g id="patch_3">
    <path d="M 180 1281.6 
L 180 172.8 
" style="fill:none;stroke:#000000;stroke-linecap:square;stroke-linejoin:miter;stroke-width:0.8;"/>
   </g>
   <g id="patch_4">
    <path d="M 1296 1281.6 
L 1296 172.8 
" style="fill:none;stroke:#000000;stroke-linecap:square;stroke-linejoin:miter;stroke-width:0.8;"/>
   </g>
   <g id="patch_5">
    <path d="M 180 1281.6 
L 1296 1281.6 
" style="fill:none;stroke:#000000;stroke-linecap:square;stroke-linejoin:miter;stroke-width:0.8;"/>
   </g>
   <g id="patch_6">
    <path d="M 180 172.8 
L 1296 172.8 
" style="fill:none;stroke:#000000;stroke-linecap:square;stroke-linejoin:miter;stroke-width:0.8;"/>
   </g>
  </g>
 </g>
 <defs>
  <clipPath id="p5ba8489522">
   <rect height="1108.8" width="1116" x="180" y="172.8"/>
  </clipPath>
 </defs>
</svg>
