<?xml version="1.0" encoding="utf-8" standalone="no"?>
<!DOCTYPE svg PUBLIC "-//W3C//DTD SVG 1.1//EN"
  "http://www.w3.org/Graphics/SVG/1.1/DTD/svg11.dtd">
<!-- Created with matplotlib (https://matplotlib.org/) -->
<svg height="1440pt" version="1.1" viewBox="0 0 1440 1440" width="1440pt" xmlns="http://www.w3.org/2000/svg" xmlns:xlink="http://www.w3.org/1999/xlink">
 <defs>
  <style type="text/css">
*{stroke-linecap:butt;stroke-linejoin:round;}
  </style>
 </defs>
 <g id="figure_1">
  <g id="patch_1">
   <path d="M 0 1440 
L 1440 1440 
L 1440 0 
L 0 0 
z
" style="fill:#ffffff;"/>
  </g>
  <g id="axes_1">
   <g id="patch_2">
    <path d="M 180 1281.6 
L 1296 1281.6 
L 1296 172.8 
L 180 172.8 
z
" style="fill:#ffffff;"/>
   </g>
   <g id="matplotlib.axis_1">
    <g id="xtick_1">
     <g id="line2d_1">
      <defs>
       <path d="M 0 0 
L 0 3.5 
" id="md4e392807a" style="stroke:#000000;stroke-width:0.8;"/>
      </defs>
      <g>
       <use style="stroke:#000000;stroke-width:0.8;" x="367.602765" xlink:href="#md4e392807a" y="1281.6"/>
      </g>
     </g>
     <g id="text_1">
      <!-- −0.1 -->
      <defs>
       <path d="M 10.59375 35.5 
L 73.1875 35.5 
L 73.1875 27.203125 
L 10.59375 27.203125 
z
" id="DejaVuSans-8722"/>
       <path d="M 31.78125 66.40625 
Q 24.171875 66.40625 20.328125 58.90625 
Q 16.5 51.421875 16.5 36.375 
Q 16.5 21.390625 20.328125 13.890625 
Q 24.171875 6.390625 31.78125 6.390625 
Q 39.453125 6.390625 43.28125 13.890625 
Q 47.125 21.390625 47.125 36.375 
Q 47.125 51.421875 43.28125 58.90625 
Q 39.453125 66.40625 31.78125 66.40625 
z
M 31.78125 74.21875 
Q 44.046875 74.21875 50.515625 64.515625 
Q 56.984375 54.828125 56.984375 36.375 
Q 56.984375 17.96875 50.515625 8.265625 
Q 44.046875 -1.421875 31.78125 -1.421875 
Q 19.53125 -1.421875 13.0625 8.265625 
Q 6.59375 17.96875 6.59375 36.375 
Q 6.59375 54.828125 13.0625 64.515625 
Q 19.53125 74.21875 31.78125 74.21875 
z
" id="DejaVuSans-48"/>
       <path d="M 10.6875 12.40625 
L 21 12.40625 
L 21 0 
L 10.6875 0 
z
" id="DejaVuSans-46"/>
       <path d="M 12.40625 8.296875 
L 28.515625 8.296875 
L 28.515625 63.921875 
L 10.984375 60.40625 
L 10.984375 69.390625 
L 28.421875 72.90625 
L 38.28125 72.90625 
L 38.28125 8.296875 
L 54.390625 8.296875 
L 54.390625 0 
L 12.40625 0 
z
" id="DejaVuSans-49"/>
      </defs>
      <g transform="translate(355.461359 1296.198437)scale(0.1 -0.1)">
       <use xlink:href="#DejaVuSans-8722"/>
       <use x="83.789062" xlink:href="#DejaVuSans-48"/>
       <use x="147.412109" xlink:href="#DejaVuSans-46"/>
       <use x="179.199219" xlink:href="#DejaVuSans-49"/>
      </g>
     </g>
    </g>
    <g id="xtick_2">
     <g id="line2d_2">
      <g>
       <use style="stroke:#000000;stroke-width:0.8;" x="604.076997" xlink:href="#md4e392807a" y="1281.6"/>
      </g>
     </g>
     <g id="text_2">
      <!-- 0.0 -->
      <g transform="translate(596.125435 1296.198437)scale(0.1 -0.1)">
       <use xlink:href="#DejaVuSans-48"/>
       <use x="63.623047" xlink:href="#DejaVuSans-46"/>
       <use x="95.410156" xlink:href="#DejaVuSans-48"/>
      </g>
     </g>
    </g>
    <g id="xtick_3">
     <g id="line2d_3">
      <g>
       <use style="stroke:#000000;stroke-width:0.8;" x="840.55123" xlink:href="#md4e392807a" y="1281.6"/>
      </g>
     </g>
     <g id="text_3">
      <!-- 0.1 -->
      <g transform="translate(832.599667 1296.198437)scale(0.1 -0.1)">
       <use xlink:href="#DejaVuSans-48"/>
       <use x="63.623047" xlink:href="#DejaVuSans-46"/>
       <use x="95.410156" xlink:href="#DejaVuSans-49"/>
      </g>
     </g>
    </g>
    <g id="xtick_4">
     <g id="line2d_4">
      <g>
       <use style="stroke:#000000;stroke-width:0.8;" x="1077.025462" xlink:href="#md4e392807a" y="1281.6"/>
      </g>
     </g>
     <g id="text_4">
      <!-- 0.2 -->
      <defs>
       <path d="M 19.1875 8.296875 
L 53.609375 8.296875 
L 53.609375 0 
L 7.328125 0 
L 7.328125 8.296875 
Q 12.9375 14.109375 22.625 23.890625 
Q 32.328125 33.6875 34.8125 36.53125 
Q 39.546875 41.84375 41.421875 45.53125 
Q 43.3125 49.21875 43.3125 52.78125 
Q 43.3125 58.59375 39.234375 62.25 
Q 35.15625 65.921875 28.609375 65.921875 
Q 23.96875 65.921875 18.8125 64.3125 
Q 13.671875 62.703125 7.8125 59.421875 
L 7.8125 69.390625 
Q 13.765625 71.78125 18.9375 73 
Q 24.125 74.21875 28.421875 74.21875 
Q 39.75 74.21875 46.484375 68.546875 
Q 53.21875 62.890625 53.21875 53.421875 
Q 53.21875 48.921875 51.53125 44.890625 
Q 49.859375 40.875 45.40625 35.40625 
Q 44.1875 33.984375 37.640625 27.21875 
Q 31.109375 20.453125 19.1875 8.296875 
z
" id="DejaVuSans-50"/>
      </defs>
      <g transform="translate(1069.073899 1296.198437)scale(0.1 -0.1)">
       <use xlink:href="#DejaVuSans-48"/>
       <use x="63.623047" xlink:href="#DejaVuSans-46"/>
       <use x="95.410156" xlink:href="#DejaVuSans-50"/>
      </g>
     </g>
    </g>
   </g>
   <g id="matplotlib.axis_2">
    <g id="ytick_1">
     <g id="line2d_5">
      <defs>
       <path d="M 0 0 
L -3.5 0 
" id="mf0d356d1d2" style="stroke:#000000;stroke-width:0.8;"/>
      </defs>
      <g>
       <use style="stroke:#000000;stroke-width:0.8;" x="180" xlink:href="#mf0d356d1d2" y="1140.936999"/>
      </g>
     </g>
     <g id="text_5">
      <!-- −0.2 -->
      <g transform="translate(148.717187 1144.736217)scale(0.1 -0.1)">
       <use xlink:href="#DejaVuSans-8722"/>
       <use x="83.789062" xlink:href="#DejaVuSans-48"/>
       <use x="147.412109" xlink:href="#DejaVuSans-46"/>
       <use x="179.199219" xlink:href="#DejaVuSans-50"/>
      </g>
     </g>
    </g>
    <g id="ytick_2">
     <g id="line2d_6">
      <g>
       <use style="stroke:#000000;stroke-width:0.8;" x="180" xlink:href="#mf0d356d1d2" y="992.615638"/>
      </g>
     </g>
     <g id="text_6">
      <!-- −0.1 -->
      <g transform="translate(148.717187 996.414857)scale(0.1 -0.1)">
       <use xlink:href="#DejaVuSans-8722"/>
       <use x="83.789062" xlink:href="#DejaVuSans-48"/>
       <use x="147.412109" xlink:href="#DejaVuSans-46"/>
       <use x="179.199219" xlink:href="#DejaVuSans-49"/>
      </g>
     </g>
    </g>
    <g id="ytick_3">
     <g id="line2d_7">
      <g>
       <use style="stroke:#000000;stroke-width:0.8;" x="180" xlink:href="#mf0d356d1d2" y="844.294277"/>
      </g>
     </g>
     <g id="text_7">
      <!-- 0.0 -->
      <g transform="translate(157.096875 848.093496)scale(0.1 -0.1)">
       <use xlink:href="#DejaVuSans-48"/>
       <use x="63.623047" xlink:href="#DejaVuSans-46"/>
       <use x="95.410156" xlink:href="#DejaVuSans-48"/>
      </g>
     </g>
    </g>
    <g id="ytick_4">
     <g id="line2d_8">
      <g>
       <use style="stroke:#000000;stroke-width:0.8;" x="180" xlink:href="#mf0d356d1d2" y="695.972917"/>
      </g>
     </g>
     <g id="text_8">
      <!-- 0.1 -->
      <g transform="translate(157.096875 699.772136)scale(0.1 -0.1)">
       <use xlink:href="#DejaVuSans-48"/>
       <use x="63.623047" xlink:href="#DejaVuSans-46"/>
       <use x="95.410156" xlink:href="#DejaVuSans-49"/>
      </g>
     </g>
    </g>
    <g id="ytick_5">
     <g id="line2d_9">
      <g>
       <use style="stroke:#000000;stroke-width:0.8;" x="180" xlink:href="#mf0d356d1d2" y="547.651556"/>
      </g>
     </g>
     <g id="text_9">
      <!-- 0.2 -->
      <g transform="translate(157.096875 551.450775)scale(0.1 -0.1)">
       <use xlink:href="#DejaVuSans-48"/>
       <use x="63.623047" xlink:href="#DejaVuSans-46"/>
       <use x="95.410156" xlink:href="#DejaVuSans-50"/>
      </g>
     </g>
    </g>
    <g id="ytick_6">
     <g id="line2d_10">
      <g>
       <use style="stroke:#000000;stroke-width:0.8;" x="180" xlink:href="#mf0d356d1d2" y="399.330196"/>
      </g>
     </g>
     <g id="text_10">
      <!-- 0.3 -->
      <defs>
       <path d="M 40.578125 39.3125 
Q 47.65625 37.796875 51.625 33 
Q 55.609375 28.21875 55.609375 21.1875 
Q 55.609375 10.40625 48.1875 4.484375 
Q 40.765625 -1.421875 27.09375 -1.421875 
Q 22.515625 -1.421875 17.65625 -0.515625 
Q 12.796875 0.390625 7.625 2.203125 
L 7.625 11.71875 
Q 11.71875 9.328125 16.59375 8.109375 
Q 21.484375 6.890625 26.8125 6.890625 
Q 36.078125 6.890625 40.9375 10.546875 
Q 45.796875 14.203125 45.796875 21.1875 
Q 45.796875 27.640625 41.28125 31.265625 
Q 36.765625 34.90625 28.71875 34.90625 
L 20.21875 34.90625 
L 20.21875 43.015625 
L 29.109375 43.015625 
Q 36.375 43.015625 40.234375 45.921875 
Q 44.09375 48.828125 44.09375 54.296875 
Q 44.09375 59.90625 40.109375 62.90625 
Q 36.140625 65.921875 28.71875 65.921875 
Q 24.65625 65.921875 20.015625 65.03125 
Q 15.375 64.15625 9.8125 62.3125 
L 9.8125 71.09375 
Q 15.4375 72.65625 20.34375 73.4375 
Q 25.25 74.21875 29.59375 74.21875 
Q 40.828125 74.21875 47.359375 69.109375 
Q 53.90625 64.015625 53.90625 55.328125 
Q 53.90625 49.265625 50.4375 45.09375 
Q 46.96875 40.921875 40.578125 39.3125 
z
" id="DejaVuSans-51"/>
      </defs>
      <g transform="translate(157.096875 403.129414)scale(0.1 -0.1)">
       <use xlink:href="#DejaVuSans-48"/>
       <use x="63.623047" xlink:href="#DejaVuSans-46"/>
       <use x="95.410156" xlink:href="#DejaVuSans-51"/>
      </g>
     </g>
    </g>
    <g id="ytick_7">
     <g id="line2d_11">
      <g>
       <use style="stroke:#000000;stroke-width:0.8;" x="180" xlink:href="#mf0d356d1d2" y="251.008835"/>
      </g>
     </g>
     <g id="text_11">
      <!-- 0.4 -->
      <defs>
       <path d="M 37.796875 64.3125 
L 12.890625 25.390625 
L 37.796875 25.390625 
z
M 35.203125 72.90625 
L 47.609375 72.90625 
L 47.609375 25.390625 
L 58.015625 25.390625 
L 58.015625 17.1875 
L 47.609375 17.1875 
L 47.609375 0 
L 37.796875 0 
L 37.796875 17.1875 
L 4.890625 17.1875 
L 4.890625 26.703125 
z
" id="DejaVuSans-52"/>
      </defs>
      <g transform="translate(157.096875 254.808054)scale(0.1 -0.1)">
       <use xlink:href="#DejaVuSans-48"/>
       <use x="63.623047" xlink:href="#DejaVuSans-46"/>
       <use x="95.410156" xlink:href="#DejaVuSans-52"/>
      </g>
     </g>
    </g>
   </g>
   <g id="line2d_12">
    <defs>
     <path d="M 0 3 
C 0.795609 3 1.55874 2.683901 2.12132 2.12132 
C 2.683901 1.55874 3 0.795609 3 0 
C 3 -0.795609 2.683901 -1.55874 2.12132 -2.12132 
C 1.55874 -2.683901 0.795609 -3 0 -3 
C -0.795609 -3 -1.55874 -2.683901 -2.12132 -2.12132 
C -2.683901 -1.55874 -3 -0.795609 -3 0 
C -3 0.795609 -2.683901 1.55874 -2.12132 2.12132 
C -1.55874 2.683901 -0.795609 3 0 3 
z
" id="mbed4776872" style="stroke:#000000;"/>
    </defs>
    <g clip-path="url(#ped8567bdab)">
     <use style="stroke:#000000;" x="1137.0818" xlink:href="#mbed4776872" y="923.534323"/>
    </g>
   </g>
   <g id="line2d_13">
    <g clip-path="url(#ped8567bdab)">
     <use style="stroke:#000000;" x="1025.882186" xlink:href="#mbed4776872" y="955.550907"/>
    </g>
   </g>
   <g id="line2d_14">
    <g clip-path="url(#ped8567bdab)">
     <use style="stroke:#000000;" x="980.829726" xlink:href="#mbed4776872" y="934.769544"/>
    </g>
   </g>
   <g id="line2d_15">
    <g clip-path="url(#ped8567bdab)">
     <use style="stroke:#000000;" x="1037.318952" xlink:href="#mbed4776872" y="989.325478"/>
    </g>
   </g>
   <g id="line2d_16">
    <g clip-path="url(#ped8567bdab)">
     <use style="stroke:#000000;" x="1033.042053" xlink:href="#mbed4776872" y="892.723811"/>
    </g>
   </g>
   <g id="line2d_17">
    <g clip-path="url(#ped8567bdab)">
     <use style="stroke:#000000;" x="1202.66146" xlink:href="#mbed4776872" y="772.845699"/>
    </g>
   </g>
   <g id="line2d_18">
    <g clip-path="url(#ped8567bdab)">
     <use style="stroke:#000000;" x="1178.453803" xlink:href="#mbed4776872" y="720.871289"/>
    </g>
   </g>
   <g id="line2d_19">
    <g clip-path="url(#ped8567bdab)">
     <use style="stroke:#000000;" x="1138.782366" xlink:href="#mbed4776872" y="776.427425"/>
    </g>
   </g>
   <g id="line2d_20">
    <g clip-path="url(#ped8567bdab)">
     <use style="stroke:#000000;" x="481.055674" xlink:href="#mbed4776872" y="243.467789"/>
    </g>
   </g>
   <g id="line2d_21">
    <g clip-path="url(#ped8567bdab)">
     <use style="stroke:#000000;" x="1226.387315" xlink:href="#mbed4776872" y="811.738201"/>
    </g>
   </g>
   <g id="line2d_22">
    <g clip-path="url(#ped8567bdab)">
     <use style="stroke:#000000;" x="1234.004412" xlink:href="#mbed4776872" y="789.624499"/>
    </g>
   </g>
   <g id="line2d_23">
    <g clip-path="url(#ped8567bdab)">
     <use style="stroke:#000000;" x="983.908717" xlink:href="#mbed4776872" y="552.145895"/>
    </g>
   </g>
   <g id="line2d_24">
    <g clip-path="url(#ped8567bdab)">
     <use style="stroke:#000000;" x="655.814811" xlink:href="#mbed4776872" y="571.009536"/>
    </g>
   </g>
   <g id="line2d_25">
    <g clip-path="url(#ped8567bdab)">
     <use style="stroke:#000000;" x="1180.513424" xlink:href="#mbed4776872" y="773.811274"/>
    </g>
   </g>
   <g id="line2d_26">
    <g clip-path="url(#ped8567bdab)">
     <use style="stroke:#000000;" x="1179.135434" xlink:href="#mbed4776872" y="773.62316"/>
    </g>
   </g>
   <g id="line2d_27">
    <g clip-path="url(#ped8567bdab)">
     <use style="stroke:#000000;" x="600.931403" xlink:href="#mbed4776872" y="455.437673"/>
    </g>
   </g>
   <g id="line2d_28">
    <g clip-path="url(#ped8567bdab)">
     <use style="stroke:#000000;" x="486.294075" xlink:href="#mbed4776872" y="250.839132"/>
    </g>
   </g>
   <g id="line2d_29">
    <g clip-path="url(#ped8567bdab)">
     <use style="stroke:#000000;" x="1245.272727" xlink:href="#mbed4776872" y="795.361816"/>
    </g>
   </g>
   <g id="line2d_30">
    <g clip-path="url(#ped8567bdab)">
     <use style="stroke:#000000;" x="1207.236827" xlink:href="#mbed4776872" y="735.761315"/>
    </g>
   </g>
   <g id="line2d_31">
    <g clip-path="url(#ped8567bdab)">
     <use style="stroke:#000000;" x="1197.034867" xlink:href="#mbed4776872" y="808.200179"/>
    </g>
   </g>
   <g id="line2d_32">
    <g clip-path="url(#ped8567bdab)">
     <use style="stroke:#000000;" x="1055.631092" xlink:href="#mbed4776872" y="954.776583"/>
    </g>
   </g>
   <g id="line2d_33">
    <g clip-path="url(#ped8567bdab)">
     <use style="stroke:#000000;" x="461.851476" xlink:href="#mbed4776872" y="223.2"/>
    </g>
   </g>
   <g id="line2d_34">
    <g clip-path="url(#ped8567bdab)">
     <use style="stroke:#000000;" x="998.886056" xlink:href="#mbed4776872" y="672.073974"/>
    </g>
   </g>
   <g id="line2d_35">
    <g clip-path="url(#ped8567bdab)">
     <use style="stroke:#000000;" x="498.207404" xlink:href="#mbed4776872" y="244.592828"/>
    </g>
   </g>
   <g id="line2d_36">
    <g clip-path="url(#ped8567bdab)">
     <use style="stroke:#000000;" x="230.727273" xlink:href="#mbed4776872" y="1185.196483"/>
    </g>
   </g>
   <g id="line2d_37">
    <g clip-path="url(#ped8567bdab)">
     <use style="stroke:#000000;" x="1008.774851" xlink:href="#mbed4776872" y="950.111593"/>
    </g>
   </g>
   <g id="line2d_38">
    <g clip-path="url(#ped8567bdab)">
     <use style="stroke:#000000;" x="1013.378128" xlink:href="#mbed4776872" y="949.343403"/>
    </g>
   </g>
   <g id="line2d_39">
    <g clip-path="url(#ped8567bdab)">
     <use style="stroke:#000000;" x="809.581537" xlink:href="#mbed4776872" y="1231.2"/>
    </g>
   </g>
   <g id="patch_3">
    <path d="M 180 1281.6 
L 180 172.8 
" style="fill:none;stroke:#000000;stroke-linecap:square;stroke-linejoin:miter;stroke-width:0.8;"/>
   </g>
   <g id="patch_4">
    <path d="M 1296 1281.6 
L 1296 172.8 
" style="fill:none;stroke:#000000;stroke-linecap:square;stroke-linejoin:miter;stroke-width:0.8;"/>
   </g>
   <g id="patch_5">
    <path d="M 180 1281.6 
L 1296 1281.6 
" style="fill:none;stroke:#000000;stroke-linecap:square;stroke-linejoin:miter;stroke-width:0.8;"/>
   </g>
   <g id="patch_6">
    <path d="M 180 172.8 
L 1296 172.8 
" style="fill:none;stroke:#000000;stroke-linecap:square;stroke-linejoin:miter;stroke-width:0.8;"/>
   </g>
  </g>
 </g>
 <defs>
  <clipPath id="ped8567bdab">
   <rect height="1108.8" width="1116" x="180" y="172.8"/>
  </clipPath>
 </defs>
</svg>
