<?xml version="1.0" encoding="utf-8" standalone="no"?>
<!DOCTYPE svg PUBLIC "-//W3C//DTD SVG 1.1//EN"
  "http://www.w3.org/Graphics/SVG/1.1/DTD/svg11.dtd">
<!-- Created with matplotlib (https://matplotlib.org/) -->
<svg height="1440pt" version="1.1" viewBox="0 0 1440 1440" width="1440pt" xmlns="http://www.w3.org/2000/svg" xmlns:xlink="http://www.w3.org/1999/xlink">
 <defs>
  <style type="text/css">
*{stroke-linecap:butt;stroke-linejoin:round;}
  </style>
 </defs>
 <g id="figure_1">
  <g id="patch_1">
   <path d="M 0 1440 
L 1440 1440 
L 1440 0 
L 0 0 
z
" style="fill:#ffffff;"/>
  </g>
  <g id="axes_1">
   <g id="patch_2">
    <path d="M 180 1281.6 
L 1296 1281.6 
L 1296 172.8 
L 180 172.8 
z
" style="fill:#ffffff;"/>
   </g>
   <g id="matplotlib.axis_1">
    <g id="xtick_1">
     <g id="line2d_1">
      <defs>
       <path d="M 0 0 
L 0 3.5 
" id="mb1cf78602a" style="stroke:#000000;stroke-width:0.8;"/>
      </defs>
      <g>
       <use style="stroke:#000000;stroke-width:0.8;" x="279.100997" xlink:href="#mb1cf78602a" y="1281.6"/>
      </g>
     </g>
     <g id="text_1">
      <!-- −0.025 -->
      <defs>
       <path d="M 10.59375 35.5 
L 73.1875 35.5 
L 73.1875 27.203125 
L 10.59375 27.203125 
z
" id="DejaVuSans-8722"/>
       <path d="M 31.78125 66.40625 
Q 24.171875 66.40625 20.328125 58.90625 
Q 16.5 51.421875 16.5 36.375 
Q 16.5 21.390625 20.328125 13.890625 
Q 24.171875 6.390625 31.78125 6.390625 
Q 39.453125 6.390625 43.28125 13.890625 
Q 47.125 21.390625 47.125 36.375 
Q 47.125 51.421875 43.28125 58.90625 
Q 39.453125 66.40625 31.78125 66.40625 
z
M 31.78125 74.21875 
Q 44.046875 74.21875 50.515625 64.515625 
Q 56.984375 54.828125 56.984375 36.375 
Q 56.984375 17.96875 50.515625 8.265625 
Q 44.046875 -1.421875 31.78125 -1.421875 
Q 19.53125 -1.421875 13.0625 8.265625 
Q 6.59375 17.96875 6.59375 36.375 
Q 6.59375 54.828125 13.0625 64.515625 
Q 19.53125 74.21875 31.78125 74.21875 
z
" id="DejaVuSans-48"/>
       <path d="M 10.6875 12.40625 
L 21 12.40625 
L 21 0 
L 10.6875 0 
z
" id="DejaVuSans-46"/>
       <path d="M 19.1875 8.296875 
L 53.609375 8.296875 
L 53.609375 0 
L 7.328125 0 
L 7.328125 8.296875 
Q 12.9375 14.109375 22.625 23.890625 
Q 32.328125 33.6875 34.8125 36.53125 
Q 39.546875 41.84375 41.421875 45.53125 
Q 43.3125 49.21875 43.3125 52.78125 
Q 43.3125 58.59375 39.234375 62.25 
Q 35.15625 65.921875 28.609375 65.921875 
Q 23.96875 65.921875 18.8125 64.3125 
Q 13.671875 62.703125 7.8125 59.421875 
L 7.8125 69.390625 
Q 13.765625 71.78125 18.9375 73 
Q 24.125 74.21875 28.421875 74.21875 
Q 39.75 74.21875 46.484375 68.546875 
Q 53.21875 62.890625 53.21875 53.421875 
Q 53.21875 48.921875 51.53125 44.890625 
Q 49.859375 40.875 45.40625 35.40625 
Q 44.1875 33.984375 37.640625 27.21875 
Q 31.109375 20.453125 19.1875 8.296875 
z
" id="DejaVuSans-50"/>
       <path d="M 10.796875 72.90625 
L 49.515625 72.90625 
L 49.515625 64.59375 
L 19.828125 64.59375 
L 19.828125 46.734375 
Q 21.96875 47.46875 24.109375 47.828125 
Q 26.265625 48.1875 28.421875 48.1875 
Q 40.625 48.1875 47.75 41.5 
Q 54.890625 34.8125 54.890625 23.390625 
Q 54.890625 11.625 47.5625 5.09375 
Q 40.234375 -1.421875 26.90625 -1.421875 
Q 22.3125 -1.421875 17.546875 -0.640625 
Q 12.796875 0.140625 7.71875 1.703125 
L 7.71875 11.625 
Q 12.109375 9.234375 16.796875 8.0625 
Q 21.484375 6.890625 26.703125 6.890625 
Q 35.15625 6.890625 40.078125 11.328125 
Q 45.015625 15.765625 45.015625 23.390625 
Q 45.015625 31 40.078125 35.4375 
Q 35.15625 39.890625 26.703125 39.890625 
Q 22.75 39.890625 18.8125 39.015625 
Q 14.890625 38.140625 10.796875 36.28125 
z
" id="DejaVuSans-53"/>
      </defs>
      <g transform="translate(260.597091 1296.198437)scale(0.1 -0.1)">
       <use xlink:href="#DejaVuSans-8722"/>
       <use x="83.789062" xlink:href="#DejaVuSans-48"/>
       <use x="147.412109" xlink:href="#DejaVuSans-46"/>
       <use x="179.199219" xlink:href="#DejaVuSans-48"/>
       <use x="242.822266" xlink:href="#DejaVuSans-50"/>
       <use x="306.445312" xlink:href="#DejaVuSans-53"/>
      </g>
     </g>
    </g>
    <g id="xtick_2">
     <g id="line2d_2">
      <g>
       <use style="stroke:#000000;stroke-width:0.8;" x="404.096093" xlink:href="#mb1cf78602a" y="1281.6"/>
      </g>
     </g>
     <g id="text_2">
      <!-- 0.000 -->
      <g transform="translate(389.782031 1296.198437)scale(0.1 -0.1)">
       <use xlink:href="#DejaVuSans-48"/>
       <use x="63.623047" xlink:href="#DejaVuSans-46"/>
       <use x="95.410156" xlink:href="#DejaVuSans-48"/>
       <use x="159.033203" xlink:href="#DejaVuSans-48"/>
       <use x="222.65625" xlink:href="#DejaVuSans-48"/>
      </g>
     </g>
    </g>
    <g id="xtick_3">
     <g id="line2d_3">
      <g>
       <use style="stroke:#000000;stroke-width:0.8;" x="529.09119" xlink:href="#mb1cf78602a" y="1281.6"/>
      </g>
     </g>
     <g id="text_3">
      <!-- 0.025 -->
      <g transform="translate(514.777127 1296.198437)scale(0.1 -0.1)">
       <use xlink:href="#DejaVuSans-48"/>
       <use x="63.623047" xlink:href="#DejaVuSans-46"/>
       <use x="95.410156" xlink:href="#DejaVuSans-48"/>
       <use x="159.033203" xlink:href="#DejaVuSans-50"/>
       <use x="222.65625" xlink:href="#DejaVuSans-53"/>
      </g>
     </g>
    </g>
    <g id="xtick_4">
     <g id="line2d_4">
      <g>
       <use style="stroke:#000000;stroke-width:0.8;" x="654.086286" xlink:href="#mb1cf78602a" y="1281.6"/>
      </g>
     </g>
     <g id="text_4">
      <!-- 0.050 -->
      <g transform="translate(639.772223 1296.198437)scale(0.1 -0.1)">
       <use xlink:href="#DejaVuSans-48"/>
       <use x="63.623047" xlink:href="#DejaVuSans-46"/>
       <use x="95.410156" xlink:href="#DejaVuSans-48"/>
       <use x="159.033203" xlink:href="#DejaVuSans-53"/>
       <use x="222.65625" xlink:href="#DejaVuSans-48"/>
      </g>
     </g>
    </g>
    <g id="xtick_5">
     <g id="line2d_5">
      <g>
       <use style="stroke:#000000;stroke-width:0.8;" x="779.081382" xlink:href="#mb1cf78602a" y="1281.6"/>
      </g>
     </g>
     <g id="text_5">
      <!-- 0.075 -->
      <defs>
       <path d="M 8.203125 72.90625 
L 55.078125 72.90625 
L 55.078125 68.703125 
L 28.609375 0 
L 18.3125 0 
L 43.21875 64.59375 
L 8.203125 64.59375 
z
" id="DejaVuSans-55"/>
      </defs>
      <g transform="translate(764.76732 1296.198437)scale(0.1 -0.1)">
       <use xlink:href="#DejaVuSans-48"/>
       <use x="63.623047" xlink:href="#DejaVuSans-46"/>
       <use x="95.410156" xlink:href="#DejaVuSans-48"/>
       <use x="159.033203" xlink:href="#DejaVuSans-55"/>
       <use x="222.65625" xlink:href="#DejaVuSans-53"/>
      </g>
     </g>
    </g>
    <g id="xtick_6">
     <g id="line2d_6">
      <g>
       <use style="stroke:#000000;stroke-width:0.8;" x="904.076478" xlink:href="#mb1cf78602a" y="1281.6"/>
      </g>
     </g>
     <g id="text_6">
      <!-- 0.100 -->
      <defs>
       <path d="M 12.40625 8.296875 
L 28.515625 8.296875 
L 28.515625 63.921875 
L 10.984375 60.40625 
L 10.984375 69.390625 
L 28.421875 72.90625 
L 38.28125 72.90625 
L 38.28125 8.296875 
L 54.390625 8.296875 
L 54.390625 0 
L 12.40625 0 
z
" id="DejaVuSans-49"/>
      </defs>
      <g transform="translate(889.762416 1296.198437)scale(0.1 -0.1)">
       <use xlink:href="#DejaVuSans-48"/>
       <use x="63.623047" xlink:href="#DejaVuSans-46"/>
       <use x="95.410156" xlink:href="#DejaVuSans-49"/>
       <use x="159.033203" xlink:href="#DejaVuSans-48"/>
       <use x="222.65625" xlink:href="#DejaVuSans-48"/>
      </g>
     </g>
    </g>
    <g id="xtick_7">
     <g id="line2d_7">
      <g>
       <use style="stroke:#000000;stroke-width:0.8;" x="1029.071575" xlink:href="#mb1cf78602a" y="1281.6"/>
      </g>
     </g>
     <g id="text_7">
      <!-- 0.125 -->
      <g transform="translate(1014.757512 1296.198437)scale(0.1 -0.1)">
       <use xlink:href="#DejaVuSans-48"/>
       <use x="63.623047" xlink:href="#DejaVuSans-46"/>
       <use x="95.410156" xlink:href="#DejaVuSans-49"/>
       <use x="159.033203" xlink:href="#DejaVuSans-50"/>
       <use x="222.65625" xlink:href="#DejaVuSans-53"/>
      </g>
     </g>
    </g>
    <g id="xtick_8">
     <g id="line2d_8">
      <g>
       <use style="stroke:#000000;stroke-width:0.8;" x="1154.066671" xlink:href="#mb1cf78602a" y="1281.6"/>
      </g>
     </g>
     <g id="text_8">
      <!-- 0.150 -->
      <g transform="translate(1139.752608 1296.198437)scale(0.1 -0.1)">
       <use xlink:href="#DejaVuSans-48"/>
       <use x="63.623047" xlink:href="#DejaVuSans-46"/>
       <use x="95.410156" xlink:href="#DejaVuSans-49"/>
       <use x="159.033203" xlink:href="#DejaVuSans-53"/>
       <use x="222.65625" xlink:href="#DejaVuSans-48"/>
      </g>
     </g>
    </g>
    <g id="xtick_9">
     <g id="line2d_9">
      <g>
       <use style="stroke:#000000;stroke-width:0.8;" x="1279.061767" xlink:href="#mb1cf78602a" y="1281.6"/>
      </g>
     </g>
     <g id="text_9">
      <!-- 0.175 -->
      <g transform="translate(1264.747705 1296.198437)scale(0.1 -0.1)">
       <use xlink:href="#DejaVuSans-48"/>
       <use x="63.623047" xlink:href="#DejaVuSans-46"/>
       <use x="95.410156" xlink:href="#DejaVuSans-49"/>
       <use x="159.033203" xlink:href="#DejaVuSans-55"/>
       <use x="222.65625" xlink:href="#DejaVuSans-53"/>
      </g>
     </g>
    </g>
   </g>
   <g id="matplotlib.axis_2">
    <g id="ytick_1">
     <g id="line2d_10">
      <defs>
       <path d="M 0 0 
L -3.5 0 
" id="m6cf87ab186" style="stroke:#000000;stroke-width:0.8;"/>
      </defs>
      <g>
       <use style="stroke:#000000;stroke-width:0.8;" x="180" xlink:href="#m6cf87ab186" y="1168.984359"/>
      </g>
     </g>
     <g id="text_10">
      <!-- −0.2 -->
      <g transform="translate(148.717187 1172.783578)scale(0.1 -0.1)">
       <use xlink:href="#DejaVuSans-8722"/>
       <use x="83.789062" xlink:href="#DejaVuSans-48"/>
       <use x="147.412109" xlink:href="#DejaVuSans-46"/>
       <use x="179.199219" xlink:href="#DejaVuSans-50"/>
      </g>
     </g>
    </g>
    <g id="ytick_2">
     <g id="line2d_11">
      <g>
       <use style="stroke:#000000;stroke-width:0.8;" x="180" xlink:href="#m6cf87ab186" y="955.568362"/>
      </g>
     </g>
     <g id="text_11">
      <!-- −0.1 -->
      <g transform="translate(148.717187 959.367581)scale(0.1 -0.1)">
       <use xlink:href="#DejaVuSans-8722"/>
       <use x="83.789062" xlink:href="#DejaVuSans-48"/>
       <use x="147.412109" xlink:href="#DejaVuSans-46"/>
       <use x="179.199219" xlink:href="#DejaVuSans-49"/>
      </g>
     </g>
    </g>
    <g id="ytick_3">
     <g id="line2d_12">
      <g>
       <use style="stroke:#000000;stroke-width:0.8;" x="180" xlink:href="#m6cf87ab186" y="742.152366"/>
      </g>
     </g>
     <g id="text_12">
      <!-- 0.0 -->
      <g transform="translate(157.096875 745.951584)scale(0.1 -0.1)">
       <use xlink:href="#DejaVuSans-48"/>
       <use x="63.623047" xlink:href="#DejaVuSans-46"/>
       <use x="95.410156" xlink:href="#DejaVuSans-48"/>
      </g>
     </g>
    </g>
    <g id="ytick_4">
     <g id="line2d_13">
      <g>
       <use style="stroke:#000000;stroke-width:0.8;" x="180" xlink:href="#m6cf87ab186" y="528.736369"/>
      </g>
     </g>
     <g id="text_13">
      <!-- 0.1 -->
      <g transform="translate(157.096875 532.535588)scale(0.1 -0.1)">
       <use xlink:href="#DejaVuSans-48"/>
       <use x="63.623047" xlink:href="#DejaVuSans-46"/>
       <use x="95.410156" xlink:href="#DejaVuSans-49"/>
      </g>
     </g>
    </g>
    <g id="ytick_5">
     <g id="line2d_14">
      <g>
       <use style="stroke:#000000;stroke-width:0.8;" x="180" xlink:href="#m6cf87ab186" y="315.320372"/>
      </g>
     </g>
     <g id="text_14">
      <!-- 0.2 -->
      <g transform="translate(157.096875 319.119591)scale(0.1 -0.1)">
       <use xlink:href="#DejaVuSans-48"/>
       <use x="63.623047" xlink:href="#DejaVuSans-46"/>
       <use x="95.410156" xlink:href="#DejaVuSans-50"/>
      </g>
     </g>
    </g>
   </g>
   <g id="line2d_15">
    <defs>
     <path d="M 0 9 
C 2.386828 9 4.676219 8.051703 6.363961 6.363961 
C 8.051703 4.676219 9 2.386828 9 0 
C 9 -2.386828 8.051703 -4.676219 6.363961 -6.363961 
C 4.676219 -8.051703 2.386828 -9 0 -9 
C -2.386828 -9 -4.676219 -8.051703 -6.363961 -6.363961 
C -8.051703 -4.676219 -9 -2.386828 -9 0 
C -9 2.386828 -8.051703 4.676219 -6.363961 6.363961 
C -4.676219 8.051703 -2.386828 9 0 9 
z
" id="mb803c10bc3" style="stroke:#000000;"/>
    </defs>
    <g clip-path="url(#p62ade1a18f)">
     <use style="fill:#9e0142;stroke:#000000;" x="1124.678388" xlink:href="#mb803c10bc3" y="593.40511"/>
    </g>
   </g>
   <g id="line2d_16">
    <defs>
     <path d="M 0 3 
C 0.795609 3 1.55874 2.683901 2.12132 2.12132 
C 2.683901 1.55874 3 0.795609 3 0 
C 3 -0.795609 2.683901 -1.55874 2.12132 -2.12132 
C 1.55874 -2.683901 0.795609 -3 0 -3 
C -0.795609 -3 -1.55874 -2.683901 -2.12132 -2.12132 
C -2.683901 -1.55874 -3 -0.795609 -3 0 
C -3 0.795609 -2.683901 1.55874 -2.12132 2.12132 
C -1.55874 2.683901 -0.795609 3 0 3 
z
" id="m08dc68f307" style="stroke:#000000;"/>
    </defs>
    <g clip-path="url(#p62ade1a18f)">
     <use style="stroke:#000000;" x="1045.880731" xlink:href="#m08dc68f307" y="941.10019"/>
    </g>
   </g>
   <g id="line2d_17">
    <g clip-path="url(#p62ade1a18f)">
     <use style="fill:#9e0142;stroke:#000000;" x="1112.231348" xlink:href="#mb803c10bc3" y="579.185384"/>
    </g>
   </g>
   <g id="line2d_18">
    <g clip-path="url(#p62ade1a18f)">
     <use style="fill:#9e0142;stroke:#000000;" x="1219.985597" xlink:href="#mb803c10bc3" y="587.851511"/>
    </g>
   </g>
   <g id="line2d_19">
    <g clip-path="url(#p62ade1a18f)">
     <use style="fill:#9e0142;stroke:#000000;" x="1245.272727" xlink:href="#mb803c10bc3" y="594.557936"/>
    </g>
   </g>
   <g id="line2d_20">
    <defs>
     <path d="M 0 9 
C 2.386828 9 4.676219 8.051703 6.363961 6.363961 
C 8.051703 4.676219 9 2.386828 9 0 
C 9 -2.386828 8.051703 -4.676219 6.363961 -6.363961 
C 4.676219 -8.051703 2.386828 -9 0 -9 
C -2.386828 -9 -4.676219 -8.051703 -6.363961 -6.363961 
C -8.051703 -4.676219 -9 -2.386828 -9 0 
C -9 2.386828 -8.051703 4.676219 -6.363961 6.363961 
C -4.676219 8.051703 -2.386828 9 0 9 
z
" id="ma15726f777" style="stroke:#000000;"/>
    </defs>
    <g clip-path="url(#p62ade1a18f)">
     <use style="fill:#ffffbe;stroke:#000000;" x="1097.253277" xlink:href="#ma15726f777" y="1154.832503"/>
    </g>
   </g>
   <g id="line2d_21">
    <g clip-path="url(#p62ade1a18f)">
     <use style="fill:#9e0142;stroke:#000000;" x="1240.243966" xlink:href="#mb803c10bc3" y="596.051828"/>
    </g>
   </g>
   <g id="line2d_22">
    <g clip-path="url(#p62ade1a18f)">
     <use style="fill:#9e0142;stroke:#000000;" x="1218.860038" xlink:href="#mb803c10bc3" y="588.425799"/>
    </g>
   </g>
   <g id="line2d_23">
    <g clip-path="url(#p62ade1a18f)">
     <use style="fill:#9e0142;stroke:#000000;" x="1239.986929" xlink:href="#mb803c10bc3" y="595.293513"/>
    </g>
   </g>
   <g id="line2d_24">
    <g clip-path="url(#p62ade1a18f)">
     <use style="stroke:#000000;" x="653.126239" xlink:href="#m08dc68f307" y="265.904315"/>
    </g>
   </g>
   <g id="line2d_25">
    <g clip-path="url(#p62ade1a18f)">
     <use style="fill:#ffffbe;stroke:#000000;" x="1096.760873" xlink:href="#ma15726f777" y="1153.580649"/>
    </g>
   </g>
   <g id="line2d_26">
    <g clip-path="url(#p62ade1a18f)">
     <use style="stroke:#000000;" x="1012.261685" xlink:href="#m08dc68f307" y="1154.998599"/>
    </g>
   </g>
   <g id="line2d_27">
    <g clip-path="url(#p62ade1a18f)">
     <use style="fill:#9e0142;stroke:#000000;" x="1226.844457" xlink:href="#mb803c10bc3" y="589.408357"/>
    </g>
   </g>
   <g id="line2d_28">
    <g clip-path="url(#p62ade1a18f)">
     <use style="fill:#ffffbe;stroke:#000000;" x="1102.388984" xlink:href="#ma15726f777" y="1154.235732"/>
    </g>
   </g>
   <g id="line2d_29">
    <g clip-path="url(#p62ade1a18f)">
     <use style="stroke:#000000;" x="585.370523" xlink:href="#m08dc68f307" y="304.920132"/>
    </g>
   </g>
   <g id="line2d_30">
    <g clip-path="url(#p62ade1a18f)">
     <use style="stroke:#000000;" x="585.208463" xlink:href="#m08dc68f307" y="306.363019"/>
    </g>
   </g>
   <g id="line2d_31">
    <g clip-path="url(#p62ade1a18f)">
     <use style="fill:#9e0142;stroke:#000000;" x="1235.616497" xlink:href="#mb803c10bc3" y="595.073223"/>
    </g>
   </g>
   <g id="line2d_32">
    <g clip-path="url(#p62ade1a18f)">
     <use style="stroke:#000000;" x="991.057182" xlink:href="#m08dc68f307" y="1146.295864"/>
    </g>
   </g>
   <g id="line2d_33">
    <g clip-path="url(#p62ade1a18f)">
     <use style="fill:#ffffbe;stroke:#000000;" x="1096.868552" xlink:href="#ma15726f777" y="1150.490417"/>
    </g>
   </g>
   <g id="line2d_34">
    <g clip-path="url(#p62ade1a18f)">
     <use style="fill:#9e0142;stroke:#000000;" x="1217.58011" xlink:href="#mb803c10bc3" y="588.427016"/>
    </g>
   </g>
   <g id="line2d_35">
    <g clip-path="url(#p62ade1a18f)">
     <use style="fill:#9e0142;stroke:#000000;" x="1154.836784" xlink:href="#mb803c10bc3" y="584.677534"/>
    </g>
   </g>
   <g id="line2d_36">
    <g clip-path="url(#p62ade1a18f)">
     <use style="fill:#9e0142;stroke:#000000;" x="1104.115687" xlink:href="#mb803c10bc3" y="578.385039"/>
    </g>
   </g>
   <g id="line2d_37">
    <g clip-path="url(#p62ade1a18f)">
     <use style="fill:#9e0142;stroke:#000000;" x="1221.239036" xlink:href="#mb803c10bc3" y="587.959605"/>
    </g>
   </g>
   <g id="line2d_38">
    <g clip-path="url(#p62ade1a18f)">
     <use style="fill:#9e0142;stroke:#000000;" x="1243.629851" xlink:href="#mb803c10bc3" y="595.111213"/>
    </g>
   </g>
   <g id="line2d_39">
    <g clip-path="url(#p62ade1a18f)">
     <use style="fill:#9e0142;stroke:#000000;" x="1231.356326" xlink:href="#mb803c10bc3" y="595.136216"/>
    </g>
   </g>
   <g id="line2d_40">
    <g clip-path="url(#p62ade1a18f)">
     <use style="stroke:#000000;" x="490.176055" xlink:href="#m08dc68f307" y="227.81109"/>
    </g>
   </g>
   <g id="line2d_41">
    <g clip-path="url(#p62ade1a18f)">
     <use style="stroke:#000000;" x="490.055009" xlink:href="#m08dc68f307" y="223.2"/>
    </g>
   </g>
   <g id="line2d_42">
    <g clip-path="url(#p62ade1a18f)">
     <use style="fill:#9e0142;stroke:#000000;" x="1230.268903" xlink:href="#mb803c10bc3" y="595.176581"/>
    </g>
   </g>
   <g id="line2d_43">
    <g clip-path="url(#p62ade1a18f)">
     <use style="stroke:#000000;" x="450.961157" xlink:href="#m08dc68f307" y="869.157345"/>
    </g>
   </g>
   <g id="line2d_44">
    <g clip-path="url(#p62ade1a18f)">
     <use style="fill:#9e0142;stroke:#000000;" x="1225.51565" xlink:href="#mb803c10bc3" y="589.408103"/>
    </g>
   </g>
   <g id="line2d_45">
    <g clip-path="url(#p62ade1a18f)">
     <use style="fill:#9e0142;stroke:#000000;" x="1133.602452" xlink:href="#mb803c10bc3" y="593.77555"/>
    </g>
   </g>
   <g id="line2d_46">
    <g clip-path="url(#p62ade1a18f)">
     <use style="fill:#9e0142;stroke:#000000;" x="1152.212874" xlink:href="#mb803c10bc3" y="584.511941"/>
    </g>
   </g>
   <g id="line2d_47">
    <g clip-path="url(#p62ade1a18f)">
     <use style="fill:#9e0142;stroke:#000000;" x="1244.216181" xlink:href="#mb803c10bc3" y="595.443246"/>
    </g>
   </g>
   <g id="line2d_48">
    <g clip-path="url(#p62ade1a18f)">
     <use style="stroke:#000000;" x="1073.744796" xlink:href="#m08dc68f307" y="1225.966305"/>
    </g>
   </g>
   <g id="line2d_49">
    <g clip-path="url(#p62ade1a18f)">
     <use style="stroke:#000000;" x="1062.111325" xlink:href="#m08dc68f307" y="1226.420961"/>
    </g>
   </g>
   <g id="line2d_50">
    <g clip-path="url(#p62ade1a18f)">
     <use style="stroke:#000000;" x="1070.18538" xlink:href="#m08dc68f307" y="1231.2"/>
    </g>
   </g>
   <g id="line2d_51">
    <g clip-path="url(#p62ade1a18f)">
     <use style="fill:#9e0142;stroke:#000000;" x="1227.429526" xlink:href="#mb803c10bc3" y="588.050625"/>
    </g>
   </g>
   <g id="line2d_52">
    <g clip-path="url(#p62ade1a18f)">
     <use style="fill:#9e0142;stroke:#000000;" x="1158.21889" xlink:href="#mb803c10bc3" y="583.439746"/>
    </g>
   </g>
   <g id="line2d_53">
    <g clip-path="url(#p62ade1a18f)">
     <use style="stroke:#000000;" x="500.189494" xlink:href="#m08dc68f307" y="1024.330924"/>
    </g>
   </g>
   <g id="line2d_54">
    <g clip-path="url(#p62ade1a18f)">
     <use style="fill:#9e0142;stroke:#000000;" x="1048.984845" xlink:href="#mb803c10bc3" y="585.059061"/>
    </g>
   </g>
   <g id="line2d_55">
    <g clip-path="url(#p62ade1a18f)">
     <use style="stroke:#000000;" x="1073.630836" xlink:href="#m08dc68f307" y="980.430314"/>
    </g>
   </g>
   <g id="line2d_56">
    <g clip-path="url(#p62ade1a18f)">
     <use style="fill:#9e0142;stroke:#000000;" x="1232.760497" xlink:href="#mb803c10bc3" y="595.668464"/>
    </g>
   </g>
   <g id="line2d_57">
    <g clip-path="url(#p62ade1a18f)">
     <use style="stroke:#000000;" x="650.954402" xlink:href="#m08dc68f307" y="264.674506"/>
    </g>
   </g>
   <g id="line2d_58">
    <g clip-path="url(#p62ade1a18f)">
     <use style="fill:#9e0142;stroke:#000000;" x="1230.125597" xlink:href="#mb803c10bc3" y="595.142037"/>
    </g>
   </g>
   <g id="line2d_59">
    <g clip-path="url(#p62ade1a18f)">
     <use style="stroke:#000000;" x="377.058422" xlink:href="#m08dc68f307" y="767.283168"/>
    </g>
   </g>
   <g id="line2d_60">
    <g clip-path="url(#p62ade1a18f)">
     <use style="stroke:#000000;" x="230.727273" xlink:href="#m08dc68f307" y="693.709863"/>
    </g>
   </g>
   <g id="line2d_61">
    <g clip-path="url(#p62ade1a18f)">
     <use style="fill:#ffffbe;stroke:#000000;" x="1099.207754" xlink:href="#ma15726f777" y="1152.852625"/>
    </g>
   </g>
   <g id="line2d_62">
    <g clip-path="url(#p62ade1a18f)">
     <use style="fill:#9e0142;stroke:#000000;" x="1238.077789" xlink:href="#mb803c10bc3" y="593.627043"/>
    </g>
   </g>
   <g id="line2d_63">
    <g clip-path="url(#p62ade1a18f)">
     <use style="fill:#9e0142;stroke:#000000;" x="1158.459864" xlink:href="#mb803c10bc3" y="583.127365"/>
    </g>
   </g>
   <g id="line2d_64">
    <g clip-path="url(#p62ade1a18f)">
     <use style="fill:#9e0142;stroke:#000000;" x="1229.957357" xlink:href="#mb803c10bc3" y="595.191186"/>
    </g>
   </g>
   <g id="line2d_65">
    <g clip-path="url(#p62ade1a18f)">
     <use style="stroke:#000000;" x="924.445355" xlink:href="#m08dc68f307" y="1104.709451"/>
    </g>
   </g>
   <g id="line2d_66">
    <g clip-path="url(#p62ade1a18f)">
     <use style="stroke:#000000;" x="1029.50183" xlink:href="#m08dc68f307" y="932.344269"/>
    </g>
   </g>
   <g id="line2d_67">
    <g clip-path="url(#p62ade1a18f)">
     <use style="stroke:#000000;" x="994.482162" xlink:href="#m08dc68f307" y="1142.923072"/>
    </g>
   </g>
   <g id="line2d_68">
    <g clip-path="url(#p62ade1a18f)">
     <use style="stroke:#000000;" x="1023.819451" xlink:href="#m08dc68f307" y="596.853398"/>
    </g>
   </g>
   <g id="line2d_69">
    <g clip-path="url(#p62ade1a18f)">
     <use style="stroke:#000000;" x="969.90092" xlink:href="#m08dc68f307" y="1094.223324"/>
    </g>
   </g>
   <g id="patch_3">
    <path d="M 180 1281.6 
L 180 172.8 
" style="fill:none;stroke:#000000;stroke-linecap:square;stroke-linejoin:miter;stroke-width:0.8;"/>
   </g>
   <g id="patch_4">
    <path d="M 1296 1281.6 
L 1296 172.8 
" style="fill:none;stroke:#000000;stroke-linecap:square;stroke-linejoin:miter;stroke-width:0.8;"/>
   </g>
   <g id="patch_5">
    <path d="M 180 1281.6 
L 1296 1281.6 
" style="fill:none;stroke:#000000;stroke-linecap:square;stroke-linejoin:miter;stroke-width:0.8;"/>
   </g>
   <g id="patch_6">
    <path d="M 180 172.8 
L 1296 172.8 
" style="fill:none;stroke:#000000;stroke-linecap:square;stroke-linejoin:miter;stroke-width:0.8;"/>
   </g>
  </g>
 </g>
 <defs>
  <clipPath id="p62ade1a18f">
   <rect height="1108.8" width="1116" x="180" y="172.8"/>
  </clipPath>
 </defs>
</svg>
