<?xml version="1.0" encoding="utf-8" standalone="no"?>
<!DOCTYPE svg PUBLIC "-//W3C//DTD SVG 1.1//EN"
  "http://www.w3.org/Graphics/SVG/1.1/DTD/svg11.dtd">
<!-- Created with matplotlib (https://matplotlib.org/) -->
<svg height="1440pt" version="1.1" viewBox="0 0 1440 1440" width="1440pt" xmlns="http://www.w3.org/2000/svg" xmlns:xlink="http://www.w3.org/1999/xlink">
 <defs>
  <style type="text/css">
*{stroke-linecap:butt;stroke-linejoin:round;}
  </style>
 </defs>
 <g id="figure_1">
  <g id="patch_1">
   <path d="M 0 1440 
L 1440 1440 
L 1440 0 
L 0 0 
z
" style="fill:#ffffff;"/>
  </g>
  <g id="axes_1">
   <g id="patch_2">
    <path d="M 180 1281.6 
L 1296 1281.6 
L 1296 172.8 
L 180 172.8 
z
" style="fill:#ffffff;"/>
   </g>
   <g id="matplotlib.axis_1">
    <g id="xtick_1">
     <g id="line2d_1">
      <defs>
       <path d="M 0 0 
L 0 3.5 
" id="m42a1fce163" style="stroke:#000000;stroke-width:0.8;"/>
      </defs>
      <g>
       <use style="stroke:#000000;stroke-width:0.8;" x="279.08522" xlink:href="#m42a1fce163" y="1281.6"/>
      </g>
     </g>
     <g id="text_1">
      <!-- −0.050 -->
      <defs>
       <path d="M 10.59375 35.5 
L 73.1875 35.5 
L 73.1875 27.203125 
L 10.59375 27.203125 
z
" id="DejaVuSans-8722"/>
       <path d="M 31.78125 66.40625 
Q 24.171875 66.40625 20.328125 58.90625 
Q 16.5 51.421875 16.5 36.375 
Q 16.5 21.390625 20.328125 13.890625 
Q 24.171875 6.390625 31.78125 6.390625 
Q 39.453125 6.390625 43.28125 13.890625 
Q 47.125 21.390625 47.125 36.375 
Q 47.125 51.421875 43.28125 58.90625 
Q 39.453125 66.40625 31.78125 66.40625 
z
M 31.78125 74.21875 
Q 44.046875 74.21875 50.515625 64.515625 
Q 56.984375 54.828125 56.984375 36.375 
Q 56.984375 17.96875 50.515625 8.265625 
Q 44.046875 -1.421875 31.78125 -1.421875 
Q 19.53125 -1.421875 13.0625 8.265625 
Q 6.59375 17.96875 6.59375 36.375 
Q 6.59375 54.828125 13.0625 64.515625 
Q 19.53125 74.21875 31.78125 74.21875 
z
" id="DejaVuSans-48"/>
       <path d="M 10.6875 12.40625 
L 21 12.40625 
L 21 0 
L 10.6875 0 
z
" id="DejaVuSans-46"/>
       <path d="M 10.796875 72.90625 
L 49.515625 72.90625 
L 49.515625 64.59375 
L 19.828125 64.59375 
L 19.828125 46.734375 
Q 21.96875 47.46875 24.109375 47.828125 
Q 26.265625 48.1875 28.421875 48.1875 
Q 40.625 48.1875 47.75 41.5 
Q 54.890625 34.8125 54.890625 23.390625 
Q 54.890625 11.625 47.5625 5.09375 
Q 40.234375 -1.421875 26.90625 -1.421875 
Q 22.3125 -1.421875 17.546875 -0.640625 
Q 12.796875 0.140625 7.71875 1.703125 
L 7.71875 11.625 
Q 12.109375 9.234375 16.796875 8.0625 
Q 21.484375 6.890625 26.703125 6.890625 
Q 35.15625 6.890625 40.078125 11.328125 
Q 45.015625 15.765625 45.015625 23.390625 
Q 45.015625 31 40.078125 35.4375 
Q 35.15625 39.890625 26.703125 39.890625 
Q 22.75 39.890625 18.8125 39.015625 
Q 14.890625 38.140625 10.796875 36.28125 
z
" id="DejaVuSans-53"/>
      </defs>
      <g transform="translate(260.581314 1296.198437)scale(0.1 -0.1)">
       <use xlink:href="#DejaVuSans-8722"/>
       <use x="83.789062" xlink:href="#DejaVuSans-48"/>
       <use x="147.412109" xlink:href="#DejaVuSans-46"/>
       <use x="179.199219" xlink:href="#DejaVuSans-48"/>
       <use x="242.822266" xlink:href="#DejaVuSans-53"/>
       <use x="306.445312" xlink:href="#DejaVuSans-48"/>
      </g>
     </g>
    </g>
    <g id="xtick_2">
     <g id="line2d_2">
      <g>
       <use style="stroke:#000000;stroke-width:0.8;" x="423.87194" xlink:href="#m42a1fce163" y="1281.6"/>
      </g>
     </g>
     <g id="text_2">
      <!-- −0.025 -->
      <defs>
       <path d="M 19.1875 8.296875 
L 53.609375 8.296875 
L 53.609375 0 
L 7.328125 0 
L 7.328125 8.296875 
Q 12.9375 14.109375 22.625 23.890625 
Q 32.328125 33.6875 34.8125 36.53125 
Q 39.546875 41.84375 41.421875 45.53125 
Q 43.3125 49.21875 43.3125 52.78125 
Q 43.3125 58.59375 39.234375 62.25 
Q 35.15625 65.921875 28.609375 65.921875 
Q 23.96875 65.921875 18.8125 64.3125 
Q 13.671875 62.703125 7.8125 59.421875 
L 7.8125 69.390625 
Q 13.765625 71.78125 18.9375 73 
Q 24.125 74.21875 28.421875 74.21875 
Q 39.75 74.21875 46.484375 68.546875 
Q 53.21875 62.890625 53.21875 53.421875 
Q 53.21875 48.921875 51.53125 44.890625 
Q 49.859375 40.875 45.40625 35.40625 
Q 44.1875 33.984375 37.640625 27.21875 
Q 31.109375 20.453125 19.1875 8.296875 
z
" id="DejaVuSans-50"/>
      </defs>
      <g transform="translate(405.368034 1296.198437)scale(0.1 -0.1)">
       <use xlink:href="#DejaVuSans-8722"/>
       <use x="83.789062" xlink:href="#DejaVuSans-48"/>
       <use x="147.412109" xlink:href="#DejaVuSans-46"/>
       <use x="179.199219" xlink:href="#DejaVuSans-48"/>
       <use x="242.822266" xlink:href="#DejaVuSans-50"/>
       <use x="306.445312" xlink:href="#DejaVuSans-53"/>
      </g>
     </g>
    </g>
    <g id="xtick_3">
     <g id="line2d_3">
      <g>
       <use style="stroke:#000000;stroke-width:0.8;" x="568.65866" xlink:href="#m42a1fce163" y="1281.6"/>
      </g>
     </g>
     <g id="text_3">
      <!-- 0.000 -->
      <g transform="translate(554.344597 1296.198437)scale(0.1 -0.1)">
       <use xlink:href="#DejaVuSans-48"/>
       <use x="63.623047" xlink:href="#DejaVuSans-46"/>
       <use x="95.410156" xlink:href="#DejaVuSans-48"/>
       <use x="159.033203" xlink:href="#DejaVuSans-48"/>
       <use x="222.65625" xlink:href="#DejaVuSans-48"/>
      </g>
     </g>
    </g>
    <g id="xtick_4">
     <g id="line2d_4">
      <g>
       <use style="stroke:#000000;stroke-width:0.8;" x="713.44538" xlink:href="#m42a1fce163" y="1281.6"/>
      </g>
     </g>
     <g id="text_4">
      <!-- 0.025 -->
      <g transform="translate(699.131317 1296.198437)scale(0.1 -0.1)">
       <use xlink:href="#DejaVuSans-48"/>
       <use x="63.623047" xlink:href="#DejaVuSans-46"/>
       <use x="95.410156" xlink:href="#DejaVuSans-48"/>
       <use x="159.033203" xlink:href="#DejaVuSans-50"/>
       <use x="222.65625" xlink:href="#DejaVuSans-53"/>
      </g>
     </g>
    </g>
    <g id="xtick_5">
     <g id="line2d_5">
      <g>
       <use style="stroke:#000000;stroke-width:0.8;" x="858.232099" xlink:href="#m42a1fce163" y="1281.6"/>
      </g>
     </g>
     <g id="text_5">
      <!-- 0.050 -->
      <g transform="translate(843.918037 1296.198437)scale(0.1 -0.1)">
       <use xlink:href="#DejaVuSans-48"/>
       <use x="63.623047" xlink:href="#DejaVuSans-46"/>
       <use x="95.410156" xlink:href="#DejaVuSans-48"/>
       <use x="159.033203" xlink:href="#DejaVuSans-53"/>
       <use x="222.65625" xlink:href="#DejaVuSans-48"/>
      </g>
     </g>
    </g>
    <g id="xtick_6">
     <g id="line2d_6">
      <g>
       <use style="stroke:#000000;stroke-width:0.8;" x="1003.018819" xlink:href="#m42a1fce163" y="1281.6"/>
      </g>
     </g>
     <g id="text_6">
      <!-- 0.075 -->
      <defs>
       <path d="M 8.203125 72.90625 
L 55.078125 72.90625 
L 55.078125 68.703125 
L 28.609375 0 
L 18.3125 0 
L 43.21875 64.59375 
L 8.203125 64.59375 
z
" id="DejaVuSans-55"/>
      </defs>
      <g transform="translate(988.704757 1296.198437)scale(0.1 -0.1)">
       <use xlink:href="#DejaVuSans-48"/>
       <use x="63.623047" xlink:href="#DejaVuSans-46"/>
       <use x="95.410156" xlink:href="#DejaVuSans-48"/>
       <use x="159.033203" xlink:href="#DejaVuSans-55"/>
       <use x="222.65625" xlink:href="#DejaVuSans-53"/>
      </g>
     </g>
    </g>
    <g id="xtick_7">
     <g id="line2d_7">
      <g>
       <use style="stroke:#000000;stroke-width:0.8;" x="1147.805539" xlink:href="#m42a1fce163" y="1281.6"/>
      </g>
     </g>
     <g id="text_7">
      <!-- 0.100 -->
      <defs>
       <path d="M 12.40625 8.296875 
L 28.515625 8.296875 
L 28.515625 63.921875 
L 10.984375 60.40625 
L 10.984375 69.390625 
L 28.421875 72.90625 
L 38.28125 72.90625 
L 38.28125 8.296875 
L 54.390625 8.296875 
L 54.390625 0 
L 12.40625 0 
z
" id="DejaVuSans-49"/>
      </defs>
      <g transform="translate(1133.491476 1296.198437)scale(0.1 -0.1)">
       <use xlink:href="#DejaVuSans-48"/>
       <use x="63.623047" xlink:href="#DejaVuSans-46"/>
       <use x="95.410156" xlink:href="#DejaVuSans-49"/>
       <use x="159.033203" xlink:href="#DejaVuSans-48"/>
       <use x="222.65625" xlink:href="#DejaVuSans-48"/>
      </g>
     </g>
    </g>
    <g id="xtick_8">
     <g id="line2d_8">
      <g>
       <use style="stroke:#000000;stroke-width:0.8;" x="1292.592259" xlink:href="#m42a1fce163" y="1281.6"/>
      </g>
     </g>
     <g id="text_8">
      <!-- 0.125 -->
      <g transform="translate(1278.278196 1296.198437)scale(0.1 -0.1)">
       <use xlink:href="#DejaVuSans-48"/>
       <use x="63.623047" xlink:href="#DejaVuSans-46"/>
       <use x="95.410156" xlink:href="#DejaVuSans-49"/>
       <use x="159.033203" xlink:href="#DejaVuSans-50"/>
       <use x="222.65625" xlink:href="#DejaVuSans-53"/>
      </g>
     </g>
    </g>
   </g>
   <g id="matplotlib.axis_2">
    <g id="ytick_1">
     <g id="line2d_9">
      <defs>
       <path d="M 0 0 
L -3.5 0 
" id="m823f3dbabd" style="stroke:#000000;stroke-width:0.8;"/>
      </defs>
      <g>
       <use style="stroke:#000000;stroke-width:0.8;" x="180" xlink:href="#m823f3dbabd" y="1268.420139"/>
      </g>
     </g>
     <g id="text_9">
      <!-- −0.10 -->
      <g transform="translate(142.354688 1272.219357)scale(0.1 -0.1)">
       <use xlink:href="#DejaVuSans-8722"/>
       <use x="83.789062" xlink:href="#DejaVuSans-48"/>
       <use x="147.412109" xlink:href="#DejaVuSans-46"/>
       <use x="179.199219" xlink:href="#DejaVuSans-49"/>
       <use x="242.822266" xlink:href="#DejaVuSans-48"/>
      </g>
     </g>
    </g>
    <g id="ytick_2">
     <g id="line2d_10">
      <g>
       <use style="stroke:#000000;stroke-width:0.8;" x="180" xlink:href="#m823f3dbabd" y="1100.608616"/>
      </g>
     </g>
     <g id="text_10">
      <!-- −0.05 -->
      <g transform="translate(142.354688 1104.407834)scale(0.1 -0.1)">
       <use xlink:href="#DejaVuSans-8722"/>
       <use x="83.789062" xlink:href="#DejaVuSans-48"/>
       <use x="147.412109" xlink:href="#DejaVuSans-46"/>
       <use x="179.199219" xlink:href="#DejaVuSans-48"/>
       <use x="242.822266" xlink:href="#DejaVuSans-53"/>
      </g>
     </g>
    </g>
    <g id="ytick_3">
     <g id="line2d_11">
      <g>
       <use style="stroke:#000000;stroke-width:0.8;" x="180" xlink:href="#m823f3dbabd" y="932.797092"/>
      </g>
     </g>
     <g id="text_11">
      <!-- 0.00 -->
      <g transform="translate(150.734375 936.596311)scale(0.1 -0.1)">
       <use xlink:href="#DejaVuSans-48"/>
       <use x="63.623047" xlink:href="#DejaVuSans-46"/>
       <use x="95.410156" xlink:href="#DejaVuSans-48"/>
       <use x="159.033203" xlink:href="#DejaVuSans-48"/>
      </g>
     </g>
    </g>
    <g id="ytick_4">
     <g id="line2d_12">
      <g>
       <use style="stroke:#000000;stroke-width:0.8;" x="180" xlink:href="#m823f3dbabd" y="764.985569"/>
      </g>
     </g>
     <g id="text_12">
      <!-- 0.05 -->
      <g transform="translate(150.734375 768.784788)scale(0.1 -0.1)">
       <use xlink:href="#DejaVuSans-48"/>
       <use x="63.623047" xlink:href="#DejaVuSans-46"/>
       <use x="95.410156" xlink:href="#DejaVuSans-48"/>
       <use x="159.033203" xlink:href="#DejaVuSans-53"/>
      </g>
     </g>
    </g>
    <g id="ytick_5">
     <g id="line2d_13">
      <g>
       <use style="stroke:#000000;stroke-width:0.8;" x="180" xlink:href="#m823f3dbabd" y="597.174046"/>
      </g>
     </g>
     <g id="text_13">
      <!-- 0.10 -->
      <g transform="translate(150.734375 600.973265)scale(0.1 -0.1)">
       <use xlink:href="#DejaVuSans-48"/>
       <use x="63.623047" xlink:href="#DejaVuSans-46"/>
       <use x="95.410156" xlink:href="#DejaVuSans-49"/>
       <use x="159.033203" xlink:href="#DejaVuSans-48"/>
      </g>
     </g>
    </g>
    <g id="ytick_6">
     <g id="line2d_14">
      <g>
       <use style="stroke:#000000;stroke-width:0.8;" x="180" xlink:href="#m823f3dbabd" y="429.362523"/>
      </g>
     </g>
     <g id="text_14">
      <!-- 0.15 -->
      <g transform="translate(150.734375 433.161742)scale(0.1 -0.1)">
       <use xlink:href="#DejaVuSans-48"/>
       <use x="63.623047" xlink:href="#DejaVuSans-46"/>
       <use x="95.410156" xlink:href="#DejaVuSans-49"/>
       <use x="159.033203" xlink:href="#DejaVuSans-53"/>
      </g>
     </g>
    </g>
    <g id="ytick_7">
     <g id="line2d_15">
      <g>
       <use style="stroke:#000000;stroke-width:0.8;" x="180" xlink:href="#m823f3dbabd" y="261.551"/>
      </g>
     </g>
     <g id="text_15">
      <!-- 0.20 -->
      <g transform="translate(150.734375 265.350219)scale(0.1 -0.1)">
       <use xlink:href="#DejaVuSans-48"/>
       <use x="63.623047" xlink:href="#DejaVuSans-46"/>
       <use x="95.410156" xlink:href="#DejaVuSans-50"/>
       <use x="159.033203" xlink:href="#DejaVuSans-48"/>
      </g>
     </g>
    </g>
   </g>
   <g id="line2d_16">
    <defs>
     <path d="M 0 9 
C 2.386828 9 4.676219 8.051703 6.363961 6.363961 
C 8.051703 4.676219 9 2.386828 9 0 
C 9 -2.386828 8.051703 -4.676219 6.363961 -6.363961 
C 4.676219 -8.051703 2.386828 -9 0 -9 
C -2.386828 -9 -4.676219 -8.051703 -6.363961 -6.363961 
C -8.051703 -4.676219 -9 -2.386828 -9 0 
C -9 2.386828 -8.051703 4.676219 -6.363961 6.363961 
C -4.676219 8.051703 -2.386828 9 0 9 
z
" id="mef34d100f5" style="stroke:#000000;"/>
    </defs>
    <g clip-path="url(#p33094d0db3)">
     <use style="fill:#9e0142;stroke:#000000;" x="1243.428497" xlink:href="#mef34d100f5" y="887.408714"/>
    </g>
   </g>
   <g id="line2d_17">
    <g clip-path="url(#p33094d0db3)">
     <use style="fill:#9e0142;stroke:#000000;" x="1245.166263" xlink:href="#mef34d100f5" y="887.51448"/>
    </g>
   </g>
   <g id="line2d_18">
    <g clip-path="url(#p33094d0db3)">
     <use style="fill:#9e0142;stroke:#000000;" x="1217.31605" xlink:href="#mef34d100f5" y="964.564241"/>
    </g>
   </g>
   <g id="line2d_19">
    <g clip-path="url(#p33094d0db3)">
     <use style="fill:#9e0142;stroke:#000000;" x="1236.152758" xlink:href="#mef34d100f5" y="888.000947"/>
    </g>
   </g>
   <g id="line2d_20">
    <g clip-path="url(#p33094d0db3)">
     <use style="fill:#9e0142;stroke:#000000;" x="1236.538365" xlink:href="#mef34d100f5" y="887.396449"/>
    </g>
   </g>
   <g id="line2d_21">
    <g clip-path="url(#p33094d0db3)">
     <use style="fill:#9e0142;stroke:#000000;" x="1235.358087" xlink:href="#mef34d100f5" y="887.658025"/>
    </g>
   </g>
   <g id="line2d_22">
    <defs>
     <path d="M 0 3 
C 0.795609 3 1.55874 2.683901 2.12132 2.12132 
C 2.683901 1.55874 3 0.795609 3 0 
C 3 -0.795609 2.683901 -1.55874 2.12132 -2.12132 
C 1.55874 -2.683901 0.795609 -3 0 -3 
C -0.795609 -3 -1.55874 -2.683901 -2.12132 -2.12132 
C -2.683901 -1.55874 -3 -0.795609 -3 0 
C -3 0.795609 -2.683901 1.55874 -2.12132 2.12132 
C -1.55874 2.683901 -0.795609 3 0 3 
z
" id="meee11a4b4d" style="stroke:#000000;"/>
    </defs>
    <g clip-path="url(#p33094d0db3)">
     <use style="stroke:#000000;" x="366.749035" xlink:href="#meee11a4b4d" y="679.621701"/>
    </g>
   </g>
   <g id="line2d_23">
    <g clip-path="url(#p33094d0db3)">
     <use style="fill:#9e0142;stroke:#000000;" x="1243.536462" xlink:href="#mef34d100f5" y="887.276009"/>
    </g>
   </g>
   <g id="line2d_24">
    <g clip-path="url(#p33094d0db3)">
     <use style="fill:#9e0142;stroke:#000000;" x="1242.286673" xlink:href="#mef34d100f5" y="887.970382"/>
    </g>
   </g>
   <g id="line2d_25">
    <g clip-path="url(#p33094d0db3)">
     <use style="fill:#9e0142;stroke:#000000;" x="1237.228274" xlink:href="#mef34d100f5" y="887.622787"/>
    </g>
   </g>
   <g id="line2d_26">
    <g clip-path="url(#p33094d0db3)">
     <use style="fill:#9e0142;stroke:#000000;" x="1242.151284" xlink:href="#mef34d100f5" y="887.423592"/>
    </g>
   </g>
   <g id="line2d_27">
    <defs>
     <path d="M 0 9 
C 2.386828 9 4.676219 8.051703 6.363961 6.363961 
C 8.051703 4.676219 9 2.386828 9 0 
C 9 -2.386828 8.051703 -4.676219 6.363961 -6.363961 
C 4.676219 -8.051703 2.386828 -9 0 -9 
C -2.386828 -9 -4.676219 -8.051703 -6.363961 -6.363961 
C -8.051703 -4.676219 -9 -2.386828 -9 0 
C -9 2.386828 -8.051703 4.676219 -6.363961 6.363961 
C -4.676219 8.051703 -2.386828 9 0 9 
z
" id="m395754e8ed" style="stroke:#000000;"/>
    </defs>
    <g clip-path="url(#p33094d0db3)">
     <use style="fill:#e2514a;stroke:#000000;" x="654.50681" xlink:href="#m395754e8ed" y="287.145581"/>
    </g>
   </g>
   <g id="line2d_28">
    <g clip-path="url(#p33094d0db3)">
     <use style="fill:#9e0142;stroke:#000000;" x="1239.744566" xlink:href="#mef34d100f5" y="887.828183"/>
    </g>
   </g>
   <g id="line2d_29">
    <g clip-path="url(#p33094d0db3)">
     <use style="stroke:#000000;" x="941.465618" xlink:href="#meee11a4b4d" y="1082.651326"/>
    </g>
   </g>
   <g id="line2d_30">
    <g clip-path="url(#p33094d0db3)">
     <use style="fill:#9e0142;stroke:#000000;" x="1237.590766" xlink:href="#mef34d100f5" y="887.294176"/>
    </g>
   </g>
   <g id="line2d_31">
    <defs>
     <path d="M 0 9 
C 2.386828 9 4.676219 8.051703 6.363961 6.363961 
C 8.051703 4.676219 9 2.386828 9 0 
C 9 -2.386828 8.051703 -4.676219 6.363961 -6.363961 
C 4.676219 -8.051703 2.386828 -9 0 -9 
C -2.386828 -9 -4.676219 -8.051703 -6.363961 -6.363961 
C -8.051703 -4.676219 -9 -2.386828 -9 0 
C -9 2.386828 -8.051703 4.676219 -6.363961 6.363961 
C -4.676219 8.051703 -2.386828 9 0 9 
z
" id="m85e514a64b" style="stroke:#000000;"/>
    </defs>
    <g clip-path="url(#p33094d0db3)">
     <use style="fill:#fca55d;stroke:#000000;" x="1152.422857" xlink:href="#m85e514a64b" y="1124.827153"/>
    </g>
   </g>
   <g id="line2d_32">
    <g clip-path="url(#p33094d0db3)">
     <use style="fill:#9e0142;stroke:#000000;" x="1244.0246" xlink:href="#mef34d100f5" y="887.365831"/>
    </g>
   </g>
   <g id="line2d_33">
    <g clip-path="url(#p33094d0db3)">
     <use style="fill:#9e0142;stroke:#000000;" x="1234.295566" xlink:href="#mef34d100f5" y="887.776237"/>
    </g>
   </g>
   <g id="line2d_34">
    <defs>
     <path d="M 0 9 
C 2.386828 9 4.676219 8.051703 6.363961 6.363961 
C 8.051703 4.676219 9 2.386828 9 0 
C 9 -2.386828 8.051703 -4.676219 6.363961 -6.363961 
C 4.676219 -8.051703 2.386828 -9 0 -9 
C -2.386828 -9 -4.676219 -8.051703 -6.363961 -6.363961 
C -8.051703 -4.676219 -9 -2.386828 -9 0 
C -9 2.386828 -8.051703 4.676219 -6.363961 6.363961 
C -4.676219 8.051703 -2.386828 9 0 9 
z
" id="m5aa3061412" style="stroke:#000000;"/>
    </defs>
    <g clip-path="url(#p33094d0db3)">
     <use style="fill:#fee999;stroke:#000000;" x="670.257234" xlink:href="#m5aa3061412" y="321.405457"/>
    </g>
   </g>
   <g id="line2d_35">
    <g clip-path="url(#p33094d0db3)">
     <use style="fill:#9e0142;stroke:#000000;" x="1242.200488" xlink:href="#mef34d100f5" y="887.817359"/>
    </g>
   </g>
   <g id="line2d_36">
    <g clip-path="url(#p33094d0db3)">
     <use style="fill:#fee999;stroke:#000000;" x="671.114906" xlink:href="#m5aa3061412" y="315.734264"/>
    </g>
   </g>
   <g id="line2d_37">
    <g clip-path="url(#p33094d0db3)">
     <use style="fill:#9e0142;stroke:#000000;" x="1238.731109" xlink:href="#mef34d100f5" y="887.339571"/>
    </g>
   </g>
   <g id="line2d_38">
    <g clip-path="url(#p33094d0db3)">
     <use style="stroke:#000000;" x="657.865457" xlink:href="#meee11a4b4d" y="992.928979"/>
    </g>
   </g>
   <g id="line2d_39">
    <g clip-path="url(#p33094d0db3)">
     <use style="fill:#e2514a;stroke:#000000;" x="656.064232" xlink:href="#m395754e8ed" y="277.743652"/>
    </g>
   </g>
   <g id="line2d_40">
    <g clip-path="url(#p33094d0db3)">
     <use style="fill:#9e0142;stroke:#000000;" x="1243.718396" xlink:href="#mef34d100f5" y="887.363283"/>
    </g>
   </g>
   <g id="line2d_41">
    <g clip-path="url(#p33094d0db3)">
     <use style="fill:#9e0142;stroke:#000000;" x="1238.494696" xlink:href="#mef34d100f5" y="887.575851"/>
    </g>
   </g>
   <g id="line2d_42">
    <g clip-path="url(#p33094d0db3)">
     <use style="fill:#9e0142;stroke:#000000;" x="1240.15812" xlink:href="#mef34d100f5" y="887.994573"/>
    </g>
   </g>
   <g id="line2d_43">
    <g clip-path="url(#p33094d0db3)">
     <use style="fill:#9e0142;stroke:#000000;" x="1241.35099" xlink:href="#mef34d100f5" y="887.401999"/>
    </g>
   </g>
   <g id="line2d_44">
    <g clip-path="url(#p33094d0db3)">
     <use style="fill:#9e0142;stroke:#000000;" x="1235.968445" xlink:href="#mef34d100f5" y="887.871749"/>
    </g>
   </g>
   <g id="line2d_45">
    <g clip-path="url(#p33094d0db3)">
     <use style="fill:#fee999;stroke:#000000;" x="670.187487" xlink:href="#m5aa3061412" y="326.996943"/>
    </g>
   </g>
   <g id="line2d_46">
    <g clip-path="url(#p33094d0db3)">
     <use style="fill:#9e0142;stroke:#000000;" x="1238.491721" xlink:href="#mef34d100f5" y="887.281952"/>
    </g>
   </g>
   <g id="line2d_47">
    <g clip-path="url(#p33094d0db3)">
     <use style="fill:#9e0142;stroke:#000000;" x="1232.843329" xlink:href="#mef34d100f5" y="887.980308"/>
    </g>
   </g>
   <g id="line2d_48">
    <g clip-path="url(#p33094d0db3)">
     <use style="fill:#9e0142;stroke:#000000;" x="1240.155767" xlink:href="#mef34d100f5" y="887.513052"/>
    </g>
   </g>
   <g id="line2d_49">
    <g clip-path="url(#p33094d0db3)">
     <use style="fill:#9e0142;stroke:#000000;" x="1245.272727" xlink:href="#mef34d100f5" y="887.326553"/>
    </g>
   </g>
   <g id="line2d_50">
    <g clip-path="url(#p33094d0db3)">
     <use style="fill:#9e0142;stroke:#000000;" x="1221.286638" xlink:href="#mef34d100f5" y="964.922186"/>
    </g>
   </g>
   <g id="line2d_51">
    <g clip-path="url(#p33094d0db3)">
     <use style="fill:#9e0142;stroke:#000000;" x="1237.643516" xlink:href="#mef34d100f5" y="887.300049"/>
    </g>
   </g>
   <g id="line2d_52">
    <g clip-path="url(#p33094d0db3)">
     <use style="stroke:#000000;" x="908.357251" xlink:href="#meee11a4b4d" y="598.098227"/>
    </g>
   </g>
   <g id="line2d_53">
    <g clip-path="url(#p33094d0db3)">
     <use style="stroke:#000000;" x="907.634399" xlink:href="#meee11a4b4d" y="600.419356"/>
    </g>
   </g>
   <g id="line2d_54">
    <g clip-path="url(#p33094d0db3)">
     <use style="fill:#9e0142;stroke:#000000;" x="1233.411239" xlink:href="#mef34d100f5" y="887.794973"/>
    </g>
   </g>
   <g id="line2d_55">
    <g clip-path="url(#p33094d0db3)">
     <use style="fill:#9e0142;stroke:#000000;" x="1238.998309" xlink:href="#mef34d100f5" y="887.680109"/>
    </g>
   </g>
   <g id="line2d_56">
    <g clip-path="url(#p33094d0db3)">
     <use style="fill:#9e0142;stroke:#000000;" x="1224.885372" xlink:href="#mef34d100f5" y="964.864085"/>
    </g>
   </g>
   <g id="line2d_57">
    <g clip-path="url(#p33094d0db3)">
     <use style="fill:#9e0142;stroke:#000000;" x="1237.431639" xlink:href="#mef34d100f5" y="887.362317"/>
    </g>
   </g>
   <g id="line2d_58">
    <defs>
     <path d="M 0 9 
C 2.386828 9 4.676219 8.051703 6.363961 6.363961 
C 8.051703 4.676219 9 2.386828 9 0 
C 9 -2.386828 8.051703 -4.676219 6.363961 -6.363961 
C 4.676219 -8.051703 2.386828 -9 0 -9 
C -2.386828 -9 -4.676219 -8.051703 -6.363961 -6.363961 
C -8.051703 -4.676219 -9 -2.386828 -9 0 
C -9 2.386828 -8.051703 4.676219 -6.363961 6.363961 
C -4.676219 8.051703 -2.386828 9 0 9 
z
" id="me2a33866d4" style="stroke:#000000;"/>
    </defs>
    <g clip-path="url(#p33094d0db3)">
     <use style="fill:#edf8a3;stroke:#000000;" x="428.201445" xlink:href="#me2a33866d4" y="278.476074"/>
    </g>
   </g>
   <g id="line2d_59">
    <g clip-path="url(#p33094d0db3)">
     <use style="fill:#9e0142;stroke:#000000;" x="1236.292095" xlink:href="#mef34d100f5" y="887.703919"/>
    </g>
   </g>
   <g id="line2d_60">
    <g clip-path="url(#p33094d0db3)">
     <use style="fill:#fca55d;stroke:#000000;" x="1146.548161" xlink:href="#m85e514a64b" y="1203.606012"/>
    </g>
   </g>
   <g id="line2d_61">
    <g clip-path="url(#p33094d0db3)">
     <use style="fill:#fca55d;stroke:#000000;" x="1160.911841" xlink:href="#m85e514a64b" y="1124.261222"/>
    </g>
   </g>
   <g id="line2d_62">
    <defs>
     <path d="M 0 9 
C 2.386828 9 4.676219 8.051703 6.363961 6.363961 
C 8.051703 4.676219 9 2.386828 9 0 
C 9 -2.386828 8.051703 -4.676219 6.363961 -6.363961 
C 4.676219 -8.051703 2.386828 -9 0 -9 
C -2.386828 -9 -4.676219 -8.051703 -6.363961 -6.363961 
C -8.051703 -4.676219 -9 -2.386828 -9 0 
C -9 2.386828 -8.051703 4.676219 -6.363961 6.363961 
C -4.676219 8.051703 -2.386828 9 0 9 
z
" id="m350392dd48" style="stroke:#000000;"/>
    </defs>
    <g clip-path="url(#p33094d0db3)">
     <use style="fill:#a2d9a4;stroke:#000000;" x="871.428722" xlink:href="#m350392dd48" y="1081.615875"/>
    </g>
   </g>
   <g id="line2d_63">
    <g clip-path="url(#p33094d0db3)">
     <use style="fill:#9e0142;stroke:#000000;" x="1232.477854" xlink:href="#mef34d100f5" y="887.508768"/>
    </g>
   </g>
   <g id="line2d_64">
    <defs>
     <path d="M 0 9 
C 2.386828 9 4.676219 8.051703 6.363961 6.363961 
C 8.051703 4.676219 9 2.386828 9 0 
C 9 -2.386828 8.051703 -4.676219 6.363961 -6.363961 
C 4.676219 -8.051703 2.386828 -9 0 -9 
C -2.386828 -9 -4.676219 -8.051703 -6.363961 -6.363961 
C -8.051703 -4.676219 -9 -2.386828 -9 0 
C -9 2.386828 -8.051703 4.676219 -6.363961 6.363961 
C -4.676219 8.051703 -2.386828 9 0 9 
z
" id="m3fa1cd78b2" style="stroke:#000000;"/>
    </defs>
    <g clip-path="url(#p33094d0db3)">
     <use style="fill:#47a0b3;stroke:#000000;" x="417.631408" xlink:href="#m3fa1cd78b2" y="234.673551"/>
    </g>
   </g>
   <g id="line2d_65">
    <g clip-path="url(#p33094d0db3)">
     <use style="fill:#47a0b3;stroke:#000000;" x="416.480775" xlink:href="#m3fa1cd78b2" y="223.450356"/>
    </g>
   </g>
   <g id="line2d_66">
    <g clip-path="url(#p33094d0db3)">
     <use style="fill:#9e0142;stroke:#000000;" x="1240.915066" xlink:href="#mef34d100f5" y="887.766515"/>
    </g>
   </g>
   <g id="line2d_67">
    <g clip-path="url(#p33094d0db3)">
     <use style="fill:#edf8a3;stroke:#000000;" x="426.345972" xlink:href="#me2a33866d4" y="275.947268"/>
    </g>
   </g>
   <g id="line2d_68">
    <g clip-path="url(#p33094d0db3)">
     <use style="fill:#fca55d;stroke:#000000;" x="1149.426886" xlink:href="#m85e514a64b" y="1231.2"/>
    </g>
   </g>
   <g id="line2d_69">
    <g clip-path="url(#p33094d0db3)">
     <use style="fill:#fca55d;stroke:#000000;" x="1148.070073" xlink:href="#m85e514a64b" y="1228.448204"/>
    </g>
   </g>
   <g id="line2d_70">
    <g clip-path="url(#p33094d0db3)">
     <use style="stroke:#000000;" x="938.776384" xlink:href="#meee11a4b4d" y="1081.658975"/>
    </g>
   </g>
   <g id="line2d_71">
    <g clip-path="url(#p33094d0db3)">
     <use style="fill:#9e0142;stroke:#000000;" x="1233.355366" xlink:href="#mef34d100f5" y="887.235763"/>
    </g>
   </g>
   <g id="line2d_72">
    <g clip-path="url(#p33094d0db3)">
     <use style="fill:#9e0142;stroke:#000000;" x="1239.085787" xlink:href="#mef34d100f5" y="887.708585"/>
    </g>
   </g>
   <g id="line2d_73">
    <g clip-path="url(#p33094d0db3)">
     <use style="fill:#47a0b3;stroke:#000000;" x="417.568571" xlink:href="#m3fa1cd78b2" y="223.2"/>
    </g>
   </g>
   <g id="line2d_74">
    <g clip-path="url(#p33094d0db3)">
     <use style="fill:#9e0142;stroke:#000000;" x="1236.030457" xlink:href="#mef34d100f5" y="887.614905"/>
    </g>
   </g>
   <g id="line2d_75">
    <g clip-path="url(#p33094d0db3)">
     <use style="fill:#fee999;stroke:#000000;" x="671.177742" xlink:href="#m5aa3061412" y="317.694554"/>
    </g>
   </g>
   <g id="line2d_76">
    <g clip-path="url(#p33094d0db3)">
     <use style="fill:#9e0142;stroke:#000000;" x="1243.789341" xlink:href="#mef34d100f5" y="888.023099"/>
    </g>
   </g>
   <g id="line2d_77">
    <g clip-path="url(#p33094d0db3)">
     <use style="fill:#9e0142;stroke:#000000;" x="1236.526201" xlink:href="#mef34d100f5" y="887.805801"/>
    </g>
   </g>
   <g id="line2d_78">
    <g clip-path="url(#p33094d0db3)">
     <use style="fill:#9e0142;stroke:#000000;" x="1232.438387" xlink:href="#mef34d100f5" y="887.301824"/>
    </g>
   </g>
   <g id="line2d_79">
    <g clip-path="url(#p33094d0db3)">
     <use style="fill:#9e0142;stroke:#000000;" x="1244.119303" xlink:href="#mef34d100f5" y="887.297768"/>
    </g>
   </g>
   <g id="line2d_80">
    <g clip-path="url(#p33094d0db3)">
     <use style="fill:#9e0142;stroke:#000000;" x="1242.719991" xlink:href="#mef34d100f5" y="887.310188"/>
    </g>
   </g>
   <g id="line2d_81">
    <g clip-path="url(#p33094d0db3)">
     <use style="fill:#9e0142;stroke:#000000;" x="1239.71221" xlink:href="#mef34d100f5" y="887.97397"/>
    </g>
   </g>
   <g id="line2d_82">
    <g clip-path="url(#p33094d0db3)">
     <use style="fill:#9e0142;stroke:#000000;" x="1232.424079" xlink:href="#mef34d100f5" y="887.245564"/>
    </g>
   </g>
   <g id="line2d_83">
    <g clip-path="url(#p33094d0db3)">
     <use style="stroke:#000000;" x="230.727273" xlink:href="#meee11a4b4d" y="777.770752"/>
    </g>
   </g>
   <g id="line2d_84">
    <g clip-path="url(#p33094d0db3)">
     <use style="fill:#fca55d;stroke:#000000;" x="1158.101356" xlink:href="#m85e514a64b" y="1123.654019"/>
    </g>
   </g>
   <g id="line2d_85">
    <g clip-path="url(#p33094d0db3)">
     <use style="fill:#e2514a;stroke:#000000;" x="654.664339" xlink:href="#m395754e8ed" y="279.265969"/>
    </g>
   </g>
   <g id="line2d_86">
    <g clip-path="url(#p33094d0db3)">
     <use style="fill:#9e0142;stroke:#000000;" x="1242.567954" xlink:href="#mef34d100f5" y="887.468702"/>
    </g>
   </g>
   <g id="line2d_87">
    <g clip-path="url(#p33094d0db3)">
     <use style="fill:#fee999;stroke:#000000;" x="670.423211" xlink:href="#m5aa3061412" y="323.386556"/>
    </g>
   </g>
   <g id="line2d_88">
    <g clip-path="url(#p33094d0db3)">
     <use style="stroke:#000000;" x="936.390224" xlink:href="#meee11a4b4d" y="1081.602947"/>
    </g>
   </g>
   <g id="line2d_89">
    <g clip-path="url(#p33094d0db3)">
     <use style="fill:#9e0142;stroke:#000000;" x="1243.089768" xlink:href="#mef34d100f5" y="887.476488"/>
    </g>
   </g>
   <g id="line2d_90">
    <g clip-path="url(#p33094d0db3)">
     <use style="fill:#9e0142;stroke:#000000;" x="1244.982473" xlink:href="#mef34d100f5" y="887.329653"/>
    </g>
   </g>
   <g id="line2d_91">
    <g clip-path="url(#p33094d0db3)">
     <use style="fill:#9e0142;stroke:#000000;" x="1240.572042" xlink:href="#mef34d100f5" y="887.453306"/>
    </g>
   </g>
   <g id="line2d_92">
    <g clip-path="url(#p33094d0db3)">
     <use style="stroke:#000000;" x="1126.526893" xlink:href="#meee11a4b4d" y="1117.735805"/>
    </g>
   </g>
   <g id="line2d_93">
    <g clip-path="url(#p33094d0db3)">
     <use style="fill:#9e0142;stroke:#000000;" x="1239.802778" xlink:href="#mef34d100f5" y="887.430698"/>
    </g>
   </g>
   <g id="line2d_94">
    <g clip-path="url(#p33094d0db3)">
     <use style="fill:#9e0142;stroke:#000000;" x="1240.465866" xlink:href="#mef34d100f5" y="887.834862"/>
    </g>
   </g>
   <g id="line2d_95">
    <g clip-path="url(#p33094d0db3)">
     <use style="fill:#a2d9a4;stroke:#000000;" x="872.789131" xlink:href="#m350392dd48" y="1079.296607"/>
    </g>
   </g>
   <g id="line2d_96">
    <g clip-path="url(#p33094d0db3)">
     <use style="fill:#9e0142;stroke:#000000;" x="1239.453943" xlink:href="#mef34d100f5" y="887.177039"/>
    </g>
   </g>
   <g id="line2d_97">
    <g clip-path="url(#p33094d0db3)">
     <use style="stroke:#000000;" x="1231.66381" xlink:href="#meee11a4b4d" y="905.638295"/>
    </g>
   </g>
   <g id="line2d_98">
    <g clip-path="url(#p33094d0db3)">
     <use style="fill:#a2d9a4;stroke:#000000;" x="871.035301" xlink:href="#m350392dd48" y="1081.007939"/>
    </g>
   </g>
   <g id="line2d_99">
    <g clip-path="url(#p33094d0db3)">
     <use style="fill:#a2d9a4;stroke:#000000;" x="872.552027" xlink:href="#m350392dd48" y="1079.381959"/>
    </g>
   </g>
   <g id="line2d_100">
    <g clip-path="url(#p33094d0db3)">
     <use style="fill:#a2d9a4;stroke:#000000;" x="873.234378" xlink:href="#m350392dd48" y="1080.178874"/>
    </g>
   </g>
   <g id="line2d_101">
    <g clip-path="url(#p33094d0db3)">
     <use style="fill:#edf8a3;stroke:#000000;" x="426.156729" xlink:href="#me2a33866d4" y="271.59815"/>
    </g>
   </g>
   <g id="line2d_102">
    <g clip-path="url(#p33094d0db3)">
     <use style="stroke:#000000;" x="715.211513" xlink:href="#meee11a4b4d" y="941.743841"/>
    </g>
   </g>
   <g id="line2d_103">
    <g clip-path="url(#p33094d0db3)">
     <use style="fill:#9e0142;stroke:#000000;" x="1237.381758" xlink:href="#mef34d100f5" y="887.599631"/>
    </g>
   </g>
   <g id="line2d_104">
    <g clip-path="url(#p33094d0db3)">
     <use style="fill:#9e0142;stroke:#000000;" x="1236.449399" xlink:href="#mef34d100f5" y="887.638391"/>
    </g>
   </g>
   <g id="line2d_105">
    <g clip-path="url(#p33094d0db3)">
     <use style="fill:#9e0142;stroke:#000000;" x="1242.461657" xlink:href="#mef34d100f5" y="887.137151"/>
    </g>
   </g>
   <g id="line2d_106">
    <g clip-path="url(#p33094d0db3)">
     <use style="fill:#edf8a3;stroke:#000000;" x="428.746934" xlink:href="#me2a33866d4" y="274.861667"/>
    </g>
   </g>
   <g id="line2d_107">
    <g clip-path="url(#p33094d0db3)">
     <use style="fill:#fca55d;stroke:#000000;" x="1152.050085" xlink:href="#m85e514a64b" y="1125.357456"/>
    </g>
   </g>
   <g id="line2d_108">
    <g clip-path="url(#p33094d0db3)">
     <use style="stroke:#000000;" x="291.660582" xlink:href="#meee11a4b4d" y="368.541139"/>
    </g>
   </g>
   <g id="line2d_109">
    <g clip-path="url(#p33094d0db3)">
     <use style="fill:#9e0142;stroke:#000000;" x="1232.215841" xlink:href="#mef34d100f5" y="887.65942"/>
    </g>
   </g>
   <g id="line2d_110">
    <g clip-path="url(#p33094d0db3)">
     <use style="fill:#9e0142;stroke:#000000;" x="1243.988592" xlink:href="#mef34d100f5" y="887.279414"/>
    </g>
   </g>
   <g id="line2d_111">
    <g clip-path="url(#p33094d0db3)">
     <use style="fill:#9e0142;stroke:#000000;" x="1233.238694" xlink:href="#mef34d100f5" y="887.468934"/>
    </g>
   </g>
   <g id="line2d_112">
    <g clip-path="url(#p33094d0db3)">
     <use style="fill:#e2514a;stroke:#000000;" x="654.901896" xlink:href="#m395754e8ed" y="289.95727"/>
    </g>
   </g>
   <g id="line2d_113">
    <g clip-path="url(#p33094d0db3)">
     <use style="fill:#47a0b3;stroke:#000000;" x="417.848507" xlink:href="#m3fa1cd78b2" y="227.962858"/>
    </g>
   </g>
   <g id="line2d_114">
    <g clip-path="url(#p33094d0db3)">
     <use style="fill:#e2514a;stroke:#000000;" x="655.640091" xlink:href="#m395754e8ed" y="277.860069"/>
    </g>
   </g>
   <g id="line2d_115">
    <g clip-path="url(#p33094d0db3)">
     <use style="fill:#e2514a;stroke:#000000;" x="654.778815" xlink:href="#m395754e8ed" y="289.334768"/>
    </g>
   </g>
   <g id="line2d_116">
    <g clip-path="url(#p33094d0db3)">
     <use style="fill:#e2514a;stroke:#000000;" x="655.577346" xlink:href="#m395754e8ed" y="277.744431"/>
    </g>
   </g>
   <g id="line2d_117">
    <g clip-path="url(#p33094d0db3)">
     <use style="fill:#47a0b3;stroke:#000000;" x="418.786597" xlink:href="#m3fa1cd78b2" y="228.291395"/>
    </g>
   </g>
   <g id="line2d_118">
    <g clip-path="url(#p33094d0db3)">
     <use style="fill:#e2514a;stroke:#000000;" x="655.164141" xlink:href="#m395754e8ed" y="284.77153"/>
    </g>
   </g>
   <g id="line2d_119">
    <g clip-path="url(#p33094d0db3)">
     <use style="fill:#9e0142;stroke:#000000;" x="1244.686509" xlink:href="#mef34d100f5" y="887.384572"/>
    </g>
   </g>
   <g id="line2d_120">
    <g clip-path="url(#p33094d0db3)">
     <use style="fill:#9e0142;stroke:#000000;" x="1237.661604" xlink:href="#mef34d100f5" y="887.535431"/>
    </g>
   </g>
   <g id="line2d_121">
    <g clip-path="url(#p33094d0db3)">
     <use style="fill:#9e0142;stroke:#000000;" x="1242.182172" xlink:href="#mef34d100f5" y="887.817273"/>
    </g>
   </g>
   <g id="line2d_122">
    <g clip-path="url(#p33094d0db3)">
     <use style="fill:#a2d9a4;stroke:#000000;" x="805.095208" xlink:href="#m350392dd48" y="1077.667364"/>
    </g>
   </g>
   <g id="line2d_123">
    <g clip-path="url(#p33094d0db3)">
     <use style="fill:#edf8a3;stroke:#000000;" x="427.35558" xlink:href="#me2a33866d4" y="274.090398"/>
    </g>
   </g>
   <g id="line2d_124">
    <g clip-path="url(#p33094d0db3)">
     <use style="fill:#9e0142;stroke:#000000;" x="1229.456457" xlink:href="#mef34d100f5" y="964.977825"/>
    </g>
   </g>
   <g id="line2d_125">
    <g clip-path="url(#p33094d0db3)">
     <use style="fill:#9e0142;stroke:#000000;" x="1238.773886" xlink:href="#mef34d100f5" y="887.585214"/>
    </g>
   </g>
   <g id="line2d_126">
    <g clip-path="url(#p33094d0db3)">
     <use style="fill:#9e0142;stroke:#000000;" x="1242.671349" xlink:href="#mef34d100f5" y="887.183164"/>
    </g>
   </g>
   <g id="line2d_127">
    <g clip-path="url(#p33094d0db3)">
     <use style="fill:#9e0142;stroke:#000000;" x="1240.096276" xlink:href="#mef34d100f5" y="887.827293"/>
    </g>
   </g>
   <g id="patch_3">
    <path d="M 180 1281.6 
L 180 172.8 
" style="fill:none;stroke:#000000;stroke-linecap:square;stroke-linejoin:miter;stroke-width:0.8;"/>
   </g>
   <g id="patch_4">
    <path d="M 1296 1281.6 
L 1296 172.8 
" style="fill:none;stroke:#000000;stroke-linecap:square;stroke-linejoin:miter;stroke-width:0.8;"/>
   </g>
   <g id="patch_5">
    <path d="M 180 1281.6 
L 1296 1281.6 
" style="fill:none;stroke:#000000;stroke-linecap:square;stroke-linejoin:miter;stroke-width:0.8;"/>
   </g>
   <g id="patch_6">
    <path d="M 180 172.8 
L 1296 172.8 
" style="fill:none;stroke:#000000;stroke-linecap:square;stroke-linejoin:miter;stroke-width:0.8;"/>
   </g>
  </g>
 </g>
 <defs>
  <clipPath id="p33094d0db3">
   <rect height="1108.8" width="1116" x="180" y="172.8"/>
  </clipPath>
 </defs>
</svg>
